<svg id="Layer_1" data-name="Layer 1" xmlns="http://www.w3.org/2000/svg" width="384" height="38" viewBox="0 0 384 38">
  <title>choose_theme</title>
  <g>
    <path d="M14.5,33.25V29.5H10.75V25.75H7V14.5h3.75V10.75H14.5V7h15v3.75h3.75V14.5h-7.5V10.75h-7.5V14.5H14.5V25.75h3.75V29.5h7.5V25.75h7.5V29.5H29.5v3.75Z"/>
    <path d="M37,33.25V7h7.5V18.25H55.75V7h7.5V33.25h-7.5V22H44.5V33.25Z"/>
    <path d="M70.75,33.25V29.5H67V10.75h3.75V7H89.5v3.75h3.75V29.5H89.5v3.75ZM74.5,29.5H85.75V10.75H74.5Z"/>
    <path d="M100.75,33.25V29.5H97V10.75h3.75V7H119.5v3.75h3.75V29.5H119.5v3.75Zm3.75-3.75h11.25V10.75H104.5Z"/>
    <path d="M130.75,33.25V29.5H127V25.75h7.5V29.5h11.25V22h-15V18.25H127v-7.5h3.75V7H149.5v3.75h3.75V14.5h-7.5V10.75H134.5v7.5h15V22h3.75v7.5H149.5v3.75Z"/>
    <path d="M157,33.25V7h26.25v3.75H164.5v7.5h15V22h-15v7.5h18.75v3.75Z"/>
    <path d="M228.25,33.25V10.75h-7.5V7h22.5v3.75h-7.5v22.5Z"/>
    <path d="M247,33.25V7h7.5V18.25h11.25V7h7.5V33.25h-7.5V22H254.5V33.25Z"/>
    <path d="M277,33.25V7h26.25v3.75H284.5v7.5h15V22h-15v7.5h18.75v3.75Z"/>
    <path d="M307,33.25V7h7.5v3.75h3.75V14.5H322V10.75h3.75V7h7.5V33.25h-7.5v-15H322v7.5h-3.75v-7.5H314.5v15Z"/>
    <path d="M337,33.25V7h26.25v3.75H344.5v7.5h15V22h-15v7.5h18.75v3.75Z"/>
    <path d="M374.5,18.25v-7.5H382v7.5Zm0,11.25V22H382v7.5Z"/>
  </g>
</svg>
