<svg id="Layer_1" data-name="Layer 1" xmlns="http://www.w3.org/2000/svg" xmlns:xlink="http://www.w3.org/1999/xlink" width="427" height="117" viewBox="0 0 427 117">
  <defs>
    <linearGradient id="linear-gradient" x1="-0.29" y1="58.5" x2="426.71" y2="58.5" gradientUnits="userSpaceOnUse">
      <stop offset="0.04" stop-color="#006837"/>
      <stop offset="0.51" stop-color="#39b54a"/>
      <stop offset="1" stop-color="#006837"/>
    </linearGradient>
  </defs>
  <title>indiginous_button</title>
  <rect x="-0.29" width="427" height="117" fill="url(#linear-gradient)"/>
  <g>
    <path d="M31.71,74.53V44.21H36L45.7,59.55a85.91,85.91,0,0,1,5.45,9.85l.09,0c-.36-4-.45-7.74-.45-12.47V44.21h3.69V74.53h-4L40.89,59.14A95.32,95.32,0,0,1,35.22,49l-.14,0c.23,3.82.32,7.47.32,12.5v13Z" fill="#fff"/>
    <path d="M66.22,65l-3.15,9.54H59L69.33,44.21h4.72L84.4,74.53H80.22L77,65Zm10-3.06-3-8.72c-.68-2-1.13-3.79-1.58-5.54h-.09c-.45,1.8-.94,3.65-1.53,5.49l-3,8.77Z" fill="#fff"/>
    <path d="M91.15,47.54H81.93V44.21h22.45v3.33H95.11v27h-4Z" fill="#fff"/>
    <path d="M111.67,44.21V74.53h-3.91V44.21Z" fill="#fff"/>
    <path d="M125.17,74.53l-9.9-30.32h4.23l4.73,14.93c1.3,4.1,2.43,7.79,3.24,11.34h.09c.85-3.51,2.11-7.33,3.46-11.29l5.13-15h4.19L129.49,74.53Z" fill="#fff"/>
    <path d="M159.33,60.31H147.54V71.25h13.14v3.28H143.62V44.21H160v3.28H147.54v9.59h11.79Z" fill="#fff"/>
    <path d="M180.21,65l-3.15,9.54H173l10.3-30.32H188l10.34,30.32H194.2L191,65Zm9.94-3.06-3-8.72c-.67-2-1.12-3.79-1.57-5.54h-.09c-.45,1.8-1,3.65-1.53,5.49l-3,8.77Z" fill="#fff"/>
    <path d="M228.22,61.21c-.22-4.22-.49-9.31-.45-13.09h-.13c-1,3.55-2.3,7.34-3.83,11.52l-5.35,14.71h-3l-4.91-14.44c-1.44-4.28-2.65-8.19-3.51-11.79H207c-.09,3.78-.31,8.87-.58,13.41l-.81,13h-3.74L204,44.21h5l5.18,14.67c1.26,3.73,2.29,7.06,3.06,10.21h.13c.77-3.06,1.85-6.39,3.2-10.21l5.4-14.67h5l1.89,30.32H229Z" fill="#fff"/>
    <path d="M254.54,60.31H242.75V71.25h13.14v3.28h-17V44.21h16.38v3.28H242.75v9.59h11.79Z" fill="#fff"/>
    <path d="M261,44.61a41.16,41.16,0,0,1,7.51-.63c4.19,0,6.89.77,8.78,2.48a7.54,7.54,0,0,1,2.38,5.75A8,8,0,0,1,273.94,60v.13c2.34.81,3.73,3,4.45,6.12,1,4.23,1.71,7.15,2.34,8.32h-4.05a39.21,39.21,0,0,1-2-7.24c-.9-4.19-2.52-5.76-6.08-5.9h-3.69V74.53H261Zm3.91,13.81h4c4.18,0,6.84-2.29,6.84-5.75,0-3.92-2.84-5.63-7-5.67a16.11,16.11,0,0,0-3.87.36Z" fill="#fff"/>
    <path d="M289.1,44.21V74.53h-3.91V44.21Z" fill="#fff"/>
    <path d="M317.14,73.54a19.43,19.43,0,0,1-8,1.44c-8.55,0-15-5.4-15-15.34,0-9.49,6.44-15.93,15.84-15.93a16.24,16.24,0,0,1,7.2,1.35l-.94,3.19A14.44,14.44,0,0,0,310.12,47c-7.11,0-11.84,4.54-11.84,12.5,0,7.43,4.28,12.2,11.66,12.2a15.79,15.79,0,0,0,6.39-1.26Z" fill="#fff"/>
    <path d="M327.13,65,324,74.53h-4.05l10.3-30.32H335l10.35,30.32h-4.19L337.88,65Zm9.94-3.06-3-8.72c-.67-2-1.12-3.79-1.57-5.54h-.09c-.45,1.8-.95,3.65-1.53,5.49l-3,8.77Z" fill="#fff"/>
    <path d="M349.76,74.53V44.21H354l9.72,15.34a85.73,85.73,0,0,1,5.44,9.85l.09,0c-.36-4-.45-7.74-.45-12.47V44.21h3.69V74.53h-4l-9.63-15.39A97.12,97.12,0,0,1,353.27,49l-.13,0c.22,3.82.31,7.47.31,12.5v13Z" fill="#fff"/>
    <path d="M378.83,69.76a13.89,13.89,0,0,0,7,2c4,0,6.35-2.11,6.35-5.17,0-2.84-1.62-4.46-5.72-6-5-1.75-8-4.32-8-8.59,0-4.73,3.92-8.24,9.81-8.24A13.72,13.72,0,0,1,395,45.2l-1.08,3.19A12.1,12.1,0,0,0,388.15,47c-4.14,0-5.72,2.47-5.72,4.55,0,2.83,1.85,4.22,6,5.84,5.13,2,7.74,4.46,7.74,8.91,0,4.68-3.46,8.73-10.62,8.73a15.69,15.69,0,0,1-7.74-1.93Z" fill="#fff"/>
  </g>
</svg>
