<svg id="Layer_1" data-name="Layer 1" xmlns="http://www.w3.org/2000/svg" width="221" height="62" viewBox="0 7 221 62">
  <title>keep_playing</title>
  <rect x="2.51" y="8.09" width="215.5" height="59.05" fill="#ed7a1b" stroke="#000" stroke-miterlimit="10"/>
  <g fill="#FFFFFF">
    <path d="M20.26,42.44V29.31H24v5.63h1.88V33.06h1.87V31.19h1.88V29.31h3.75v1.88H31.51v1.87H29.64v1.88H27.76v1.87h1.88v1.88h1.87v1.87h1.88v1.88H27.76V40.56H25.89V38.69H24v3.75Z"/>
    <path d="M35.26,42.44V29.31H48.39v1.88H39v3.75h7.5v1.87H39v3.75h9.38v1.88Z"/>
    <path d="M50.26,42.44V29.31H63.39v1.88H54v3.75h7.5v1.87H54v3.75h9.38v1.88Z"/>
    <path d="M65.26,42.44V29.31H76.51v1.88h1.88v5.62H76.51v1.88H69v3.75ZM69,36.81h5.63V31.19H69Z"/>
    <path d="M95.26,42.44V29.31h11.25v1.88h1.88v5.62h-1.88v1.88H99v3.75ZM99,36.81h5.63V31.19H99Z"/>
    <path d="M112.14,42.44V29.31h3.75V40.56h7.5v1.88Z"/>
    <path d="M125.26,42.44V33.06h1.88V31.19H129V29.31h5.63v1.88h1.87v1.87h1.88v9.38h-3.75V38.69H129v3.75ZM129,36.81h5.63V33.06h-1.88V31.19h-1.87v1.87H129Z"/>
    <path d="M145.89,42.44V36.81H144V34.94h-1.87V29.31h3.75v5.63h3.75V29.31h3.75v5.63h-1.88v1.87h-1.87v5.63Z"/>
    <path d="M157.14,42.44V40.56h3.75V31.19h-3.75V29.31h11.25v1.88h-3.75v9.37h3.75v1.88Z"/>
    <path d="M170.26,42.44V29.31H174v1.88h1.88v1.87h1.87v1.88h1.88V29.31h3.75V42.44h-3.75V38.69h-1.88V36.81h-1.87V34.94H174v7.5Z"/>
    <path d="M189,42.44V40.56h-1.87V38.69h-1.88V33.06h1.88V31.19H189V29.31h9.38v1.88h-7.5v1.87H189v5.63h1.88v1.87h3.75V36.81h-1.88V34.94h5.63v7.5Z"/>
  </g>
</svg>
