<svg id="Layer_1" data-name="Layer 1" xmlns="http://www.w3.org/2000/svg" xmlns:xlink="http://www.w3.org/1999/xlink" width="427" height="117" viewBox="0 0 427 117">
  <defs>
    <linearGradient id="linear-gradient" y1="58.5" x2="427" y2="58.5" gradientUnits="userSpaceOnUse">
      <stop offset="0.04" stop-color="#ed1c24"/>
      <stop offset="0.51" stop-color="#f15a24"/>
      <stop offset="1" stop-color="#ed1c24"/>
    </linearGradient>
  </defs>
  <title>mexicans_button</title>
  <rect width="427" height="117" fill="url(#linear-gradient)"/>
  <g>
    <path d="M146,61.21c-.23-4.23-.5-9.31-.45-13.09h-.13c-1,3.55-2.29,7.33-3.83,11.52l-5.35,14.71h-3l-4.9-14.44c-1.44-4.28-2.65-8.19-3.51-11.79h-.09c-.09,3.78-.31,8.87-.58,13.41l-.81,13h-3.73l2.11-30.33h5l5.17,14.67c1.26,3.73,2.29,7.06,3.06,10.21h.14c.76-3.06,1.84-6.39,3.19-10.21l5.4-14.67h5l1.89,30.33h-3.83Z" fill="#fff"/>
    <path d="M172.3,60.31H160.51V71.25h13.14v3.29H156.6V44.21H173v3.29H160.51v9.58H172.3Z" fill="#fff"/>
    <path d="M195.34,74.53l-3.87-6.71c-1.57-2.56-2.56-4.23-3.51-6h-.09c-.85,1.75-1.71,3.38-3.29,6l-3.64,6.66h-4.5l9.27-15.34-8.91-15h4.54l4,7.11c1.13,2,2,3.51,2.79,5.13h.13c.85-1.8,1.62-3.2,2.75-5.13l4.14-7.11h4.5L190.44,59l9.45,15.57Z" fill="#fff"/>
    <path d="M208.35,44.21V74.53h-3.91V44.21Z" fill="#fff"/>
    <path d="M236.38,73.54a19.42,19.42,0,0,1-8,1.44c-8.55,0-15-5.4-15-15.34,0-9.49,6.43-15.93,15.84-15.93a16.25,16.25,0,0,1,7.2,1.35l-.95,3.19A14.26,14.26,0,0,0,229.36,47c-7.11,0-11.83,4.54-11.83,12.51,0,7.42,4.27,12.19,11.65,12.19a15.68,15.68,0,0,0,6.39-1.26Z" fill="#fff"/>
    <path d="M246.37,65l-3.15,9.54h-4l10.3-30.33h4.72l10.35,30.33h-4.18L257.13,65Zm9.94-3.06-3-8.73c-.67-2-1.12-3.78-1.57-5.54h-.09c-.45,1.8-.94,3.65-1.53,5.49l-3,8.77Z" fill="#fff"/>
    <path d="M269,74.53V44.21h4.27L283,59.55a85.86,85.86,0,0,1,5.44,9.85l.09,0c-.36-4-.45-7.74-.45-12.46V44.21h3.69V74.53h-4l-9.63-15.39A96.26,96.26,0,0,1,272.52,49l-.13,0c.22,3.82.31,7.47.31,12.51v13Z" fill="#fff"/>
    <path d="M298.08,69.76a13.87,13.87,0,0,0,7,2c4,0,6.34-2.12,6.34-5.17,0-2.83-1.62-4.46-5.71-6-5-1.75-8-4.32-8-8.59,0-4.72,3.91-8.24,9.81-8.24a13.78,13.78,0,0,1,6.7,1.49l-1.08,3.2A12.08,12.08,0,0,0,307.39,47c-4.14,0-5.71,2.47-5.71,4.54,0,2.83,1.84,4.23,6,5.85,5.13,2,7.74,4.46,7.74,8.91,0,4.68-3.46,8.73-10.62,8.73A15.67,15.67,0,0,1,297.09,73Z" fill="#fff"/>
  </g>
</svg>
