<svg id="Layer_1" data-name="Layer 1" xmlns="http://www.w3.org/2000/svg" viewBox="0 0 201 107"><defs><style>.cls-1{fill:#898989;}.cls-1,.cls-2{stroke:#000;stroke-miterlimit:10;}.cls-2{fill:#707070;}.cls-3{isolation:isolate;}</style></defs><title>play_inactive</title><polygon class="cls-1" points="199.18 79.61 2.69 79.61 21.82 6.88 181.32 6.88 199.18 79.61"/><rect class="cls-2" x="2.65" y="80.44" width="196.97" height="19.27"/><g class="cls-3"><path d="M37,55.88V27H61.75v4.13h4.13V43.5H61.75v4.13H45.25v8.25ZM45.25,43.5H57.63V31.13H45.25Z"/><path d="M74.13,55.88V27h8.25V51.75h16.5v4.13Z"/><path d="M103,55.88V35.25h4.13V31.13h4.12V27h12.38v4.13h4.12v4.12h4.13V55.88h-8.25V47.63H111.25v8.25Zm8.25-12.38h12.38V35.25H119.5V31.13h-4.12v4.12h-4.13Z"/><path d="M148.38,55.88V43.5h-4.13V39.38h-4.12V27h8.25V39.38h8.25V27h8.25V39.38h-4.13V43.5h-4.12V55.88Z"/></g></svg>