<svg id="Layer_1" data-name="Layer 1" xmlns="http://www.w3.org/2000/svg" viewBox="0 0 201 107"><defs><style>.cls-1{fill:#0ec416;}.cls-1,.cls-2{stroke:#000;stroke-miterlimit:10;}.cls-2{fill:#11a511;}.cls-3{isolation:isolate;}</style></defs><title>play_pressed</title><polygon class="cls-1" points="199.18 90.61 2.69 90.61 21.82 17.88 181.32 17.88 199.18 90.61"/><rect class="cls-2" x="2.65" y="91.44" width="196.97" height="8.06"/><g class="cls-3"><path d="M37,66.88V38H61.75v4.13h4.13V54.5H61.75v4.13H45.25v8.25ZM45.25,54.5H57.63V42.13H45.25Z"/><path d="M74.13,66.88V38h8.25V62.75h16.5v4.13Z"/><path d="M103,66.88V46.25h4.13V42.13h4.12V38h12.38v4.13h4.12v4.12h4.13V66.88h-8.25V58.63H111.25v8.25Zm8.25-12.38h12.38V46.25H119.5V42.13h-4.12v4.12h-4.13Z"/><path d="M148.38,66.88V54.5h-4.13V50.38h-4.12V38h8.25V50.38h8.25V38h8.25V50.38h-4.13V54.5h-4.12V66.88Z"/></g></svg>