<svg id="Layer_1" data-name="Layer 1" xmlns="http://www.w3.org/2000/svg" viewBox="0 0 1245 1400" aria-labelledby="slot_machine_desc">
    <defs>
        <style>
            .cls-1,.cls-8{fill:#fff;}.cls-1,.cls-2,.cls-3,.cls-4,.cls-6,.cls-9{stroke:#000;stroke-miterlimit:10;}.cls-2,.cls-3{fill:#7b3310;}.cls-2,.cls-9{stroke-width:2px;}.cls-3{stroke-width:5px;}.cls-4{fill:none;stroke-width:3px;}.cls-5{fill:#2b1e14;}.cls-6{fill:#d3d3d3;}.cls-7{isolation:isolate;}.cls-9{fill:#56240b;}
        </style>
    </defs>
    <desc id="slot_machine_desc">Slot machine</desc>
    <path class="cls-1"
          d="M488.53,136.47H349.58C366.41,104,387.46,88,414.5,110.85c-1.45-31,55.9-39.59,62.64.56,0,0-8-48.4,35.31-37s13.66,62.07,13.66,62.07Z"/>
    <rect class="cls-2 slot_machine_color" x="99.64" y="284.93" width="1004.7" height="642.2"/>
    <polygon class="cls-3 slot_machine_color"
             points="1231.36 1185.14 1104.86 927.92 100.16 927.92 18.57 1190.22 18.57 1398.86 1231.36 1398.86 1231.36 1185.14"/>
    <line class="cls-4" x1="1232" y1="1399.5" x2="18.57" y2="1399.5"/>
    <rect class="cls-5" x="137.23" y="344.08" width="720.27" height="450"/>
    <rect class="cls-6" x="887.83" y="399.34" width="188.41" height="61.25"/>
    <text class="coins_won" x="970" y="446" style="font-size: 2rem;">0</text>
    <rect class="cls-6" x="887.83" y="624.15" width="188.41" height="61.25"/>
    <text class="spins_left" x="970" y="673" style="font-size: 2rem;">0</text>
    <g class="cls-7">
        <path class="cls-8"
              d="M895.07,380.13v-3.87h-2.28v-3.88H890.5V360.76h2.29v-3.88h2.28V353h9.15v3.87h2.28v3.88h-4.57v-3.88h-4.57v3.88h-2.29v11.62h2.29v3.88h4.57v-3.88h4.57v3.88h-2.28v3.87Z"/>
        <path class="cls-8"
              d="M911.08,380.13v-3.87h-2.29V364.63h2.29v-3.87h11.43v3.87h2.28v11.63h-2.28v3.87Zm2.28-3.87h6.86V364.63h-6.86Z"/>
        <path class="cls-8"
              d="M929.37,380.13v-3.87h4.57V364.63h-2.29v-3.87h6.86v15.5h4.57v3.87Zm4.57-23.25V353h4.57v3.87Z"/>
        <path class="cls-8" d="M945.37,380.13V360.76h13.72v3.87h2.28v15.5H956.8v-15.5h-6.86v15.5Z"/>
        <path class="cls-8"
              d="M963.66,380.13v-3.87h11.43v-3.88H966v-3.87h-2.29v-3.88H966v-3.87h11.43v3.87h-9.15v3.88h9.15v3.87h2.28v3.88h-2.28v3.87Z"/>
        <path class="cls-8"
              d="M1004.81,376.26h2.29v3.87h-4.57v-3.87h-2.29v-15.5h4.57Zm4.57-15.5v15.5h-2.28v-15.5Zm6.86,0v15.5H1014v3.87h-4.58v-3.87h2.29v-15.5Z"/>
        <path class="cls-8"
              d="M1020.82,380.13v-3.87h-2.29V364.63h2.29v-3.87h11.43v3.87h2.28v11.63h-2.28v3.87Zm2.28-3.87H1030V364.63h-6.86Z"/>
        <path class="cls-8" d="M1036.82,380.13V360.76h13.72v3.87h2.28v15.5h-4.57v-15.5h-6.86v15.5Z"/>
        <path class="cls-8" d="M1059.68,364.63v-7.75h4.57v7.75Zm0,11.63v-7.75h4.57v7.75Z"/>
    </g>
    <g class="cls-7">
        <path class="cls-8"
              d="M892.49,605.45v-3.38h-2V598.7h4v3.37h6v-6.75h-8V592h-2V585.2h2v-3.38h10v3.38h2v3.37h-4V585.2h-6V592h8v3.37h2v6.75h-2v3.38Z"/>
        <path class="cls-8" d="M906.43,608.82V588.57h12V592h2v6.75h-2v3.37h-8v6.75Zm4-10.12h6V592h-6Z"/>
        <path class="cls-8" d="M924.35,605.45v-3.38h4V592h-2v-3.38h6v13.5h4v3.38Zm4-20.25v-3.38h4v3.38Z"/>
        <path class="cls-8" d="M938.29,605.45V588.57h12V592h2v13.5h-4V592h-6v13.5Z"/>
        <path class="cls-8"
              d="M954.22,605.45v-3.38h10V598.7h-8v-3.38h-2V592h2v-3.38h10V592h-8v3.37h8v3.38h2v3.37h-2v3.38Z"/>
        <path class="cls-8" d="M988.07,605.45v-3.38h4V585.2h-2v-3.38h6v20.25h4v3.38Z"/>
        <path class="cls-8" d="M1004,605.45v-3.38h-2V592h2v-3.38h10V592h2v6.75h-10v3.37h8v3.38Zm2-10.13h6V592h-6Z"/>
        <path class="cls-8" d="M1023.91,605.45V592h-4v-3.38h4V585.2h2v-3.38h6v3.38h-4v3.37h4V592h-4v13.5Z"/>
        <path class="cls-8" d="M1039.84,605.45V592h-4v-3.38h4v-6.75h4v6.75h4V592h-4v13.5Z"/>
        <path class="cls-8" d="M1053.78,592V585.2h4V592Zm0,10.12v-6.75h4v6.75Z"/>
    </g>
    <rect class="cls-9 slot_machine_color_dark" x="20.11" y="1190.21" width="1212.89" height="207.68"/>
    <path class="cls-2 slot_machine_color" d="M1104.61,285.63S956.88,18,584.34,18,100.47,285.63,100.47,285.63"/>
    <g class="cls-7">
        <path class="cls-8"
              d="M380.75,145.87a25.8,25.8,0,0,1,2.27,7.95,22.17,22.17,0,0,1-.37,7.55,16.81,16.81,0,0,1-2.85,6.26,13.08,13.08,0,0,1-5.1,4.17,13.23,13.23,0,0,1-5.88,1.21,15.69,15.69,0,0,1-6.26-1.51,15.53,15.53,0,0,1-2.92,5.76,13.23,13.23,0,0,1-4.75,3.7,13.1,13.1,0,0,1-6.47,1.2,16.82,16.82,0,0,1-6.62-1.89,22,22,0,0,1-6-4.6,25.69,25.69,0,0,1-4.6-6.89l-21-45.37,9.92-4.59,21,45.37a8.9,8.9,0,0,0,1.54,2.33,7.35,7.35,0,0,0,2,1.55,5.58,5.58,0,0,0,2.2.63,4.48,4.48,0,0,0,2.16-.41,4.37,4.37,0,0,0,1.71-1.39,5.45,5.45,0,0,0,.95-2.07,7.31,7.31,0,0,0,.11-2.53,9,9,0,0,0-.78-2.68l-21-45.38,9.92-4.59,21,45.38a8.82,8.82,0,0,0,1.54,2.33,7.4,7.4,0,0,0,2,1.55,5.36,5.36,0,0,0,2.19.62,4.52,4.52,0,0,0,3.88-1.79,5.41,5.41,0,0,0,.94-2.08,7.28,7.28,0,0,0,.13-2.53,8.63,8.63,0,0,0-.76-2.69l-21-45.38,9.88-4.57Z"/>
    </g>
    <g class="cls-7">
        <path class="cls-8"
              d="M437.81,114.26a44.3,44.3,0,0,1,1.64,9.51,43.19,43.19,0,0,1-.38,9.08,36.62,36.62,0,0,1-2.26,8.28,31,31,0,0,1-3.95,7,25.17,25.17,0,0,1-5.5,5.36,22.05,22.05,0,0,1-6.86,3.28,21.82,21.82,0,0,1-7.56.79,25.5,25.5,0,0,1-7.48-1.69A30.61,30.61,0,0,1,398.4,152a36.46,36.46,0,0,1-6.27-5.87,42.94,42.94,0,0,1-5.1-7.54,45,45,0,0,1-3.57-9,44.48,44.48,0,0,1-1.64-9.53,41.37,41.37,0,0,1,.4-9.1,37.22,37.22,0,0,1,2.28-8.25,30,30,0,0,1,4-7,25.71,25.71,0,0,1,5.5-5.33,22.3,22.3,0,0,1,14.42-4.07A25.57,25.57,0,0,1,415.88,88a30.58,30.58,0,0,1,7,3.9,36.55,36.55,0,0,1,6.24,5.85,42.39,42.39,0,0,1,5.08,7.55A44.63,44.63,0,0,1,437.81,114.26Zm-10.44,2.95a27.15,27.15,0,0,0-3.67-8,23.76,23.76,0,0,0-5.5-5.81,18.05,18.05,0,0,0-6.61-3.08,14,14,0,0,0-13,3.68,18.33,18.33,0,0,0-4,6.08,23.37,23.37,0,0,0-1.67,7.83,27.05,27.05,0,0,0,1,8.71,26.63,26.63,0,0,0,3.66,7.92,23.81,23.81,0,0,0,5.51,5.78,18.4,18.4,0,0,0,6.62,3.11,13.91,13.91,0,0,0,13-3.68,17.89,17.89,0,0,0,4-6.11,23.91,23.91,0,0,0,1.66-7.8A26.56,26.56,0,0,0,427.37,117.21Z"/>
    </g>
    <g class="cls-7">
        <path class="cls-8"
              d="M463,145l-10.65,2L440.47,78.38l21.3-3.92a16.69,16.69,0,0,1,5.81-.06,19,19,0,0,1,5.55,1.84,23.64,23.64,0,0,1,5.05,3.51,28,28,0,0,1,4.31,5,33.18,33.18,0,0,1,3.29,6.16,34.2,34.2,0,0,1,2,7.14,34.64,34.64,0,0,1-.35,13.74,28.93,28.93,0,0,1-2.17,6.13,24.48,24.48,0,0,1-3.4,5.17l9,16.85L479.58,142l-7-13-11.9,2.29Zm-9.52-54.89,4.76,27.47,10.65-2a8.49,8.49,0,0,0,3.93-1.84,11.46,11.46,0,0,0,2.87-3.56,14.77,14.77,0,0,0,1.52-4.8,16.91,16.91,0,0,0-.09-5.49,16.69,16.69,0,0,0-1.76-5.18,14.61,14.61,0,0,0-3-4,11.06,11.06,0,0,0-3.89-2.32,8.39,8.39,0,0,0-4.3-.32Z"/>
    </g>
    <g class="cls-7">
        <path class="cls-8" d="M538.86,134.94l-37.75,3.92-7.7-69.32,10.79-1.12,6.16,55.45,27-2.81Z"/>
    </g>
    <g class="cls-7">
        <path class="cls-8"
              d="M585.9,97.87a43.52,43.52,0,0,1-.6,9.34,40.61,40.61,0,0,1-2.43,8.46,36.58,36.58,0,0,1-4,7.24,29.3,29.3,0,0,1-5.31,5.71,24.45,24.45,0,0,1-6.39,3.79,21.21,21.21,0,0,1-7.2,1.52l-16.45.63-2.8-70,16.45-.64a21.58,21.58,0,0,1,7.3,1,24.72,24.72,0,0,1,6.68,3.29,29.37,29.37,0,0,1,5.74,5.28,37.05,37.05,0,0,1,4.55,6.91,40.52,40.52,0,0,1,3.09,8.25A43.54,43.54,0,0,1,585.9,97.87ZM575,98.29a25.42,25.42,0,0,0-1.61-8.1,22.1,22.1,0,0,0-3.77-6.53,17.13,17.13,0,0,0-5.4-4.32,12.89,12.89,0,0,0-6.44-1.41l-5.45.21,1.68,42,5.45-.21a13.07,13.07,0,0,0,6.31-1.88,16.78,16.78,0,0,0,5-4.7,22.08,22.08,0,0,0,3.24-6.82A26.16,26.16,0,0,0,575,98.29Z"/>
    </g>
    <g class="cls-7">
        <path class="cls-8"
              d="M657.56,128.08a27.15,27.15,0,0,1-8.7,5.94,21.89,21.89,0,0,1-17.06,0,25,25,0,0,1-6.45-4,31.38,31.38,0,0,1-5.36-6,36.23,36.23,0,0,1-4-7.56,43.31,43.31,0,0,1-2.37-8.81,46.11,46.11,0,0,1-.52-9.67,45.17,45.17,0,0,1,1.48-9.52,43.7,43.7,0,0,1,3.23-8.47,35.68,35.68,0,0,1,4.73-7.1,30.2,30.2,0,0,1,5.92-5.34,25,25,0,0,1,6.82-3.3,21.46,21.46,0,0,1,7.45-.91,22.1,22.1,0,0,1,9.51,2.72A27.41,27.41,0,0,1,660.32,73l-6.25,11.92a18.79,18.79,0,0,0-5.39-5.35,13.37,13.37,0,0,0-13.36-.77,18.22,18.22,0,0,0-5.67,4.48,23.75,23.75,0,0,0-4,6.84,27,27,0,0,0-1.78,8.55,27.38,27.38,0,0,0,.92,8.76,24.12,24.12,0,0,0,3.33,7.27,18.12,18.12,0,0,0,5.19,5.07,13.24,13.24,0,0,0,6.55,2.1,12.42,12.42,0,0,0,4-.43,16.05,16.05,0,0,0,3.74-1.57l1-19.92,10.42.54Z"/>
    </g>
    <g class="cls-7">
        <path class="cls-8"
              d="M707.43,141.08l-10.85-1.35,1.72-13.9-21.7-2.69-1.72,13.91-10.81-1.34L669.23,94a34,34,0,0,1,3-10.62A30.16,30.16,0,0,1,678,75.14a22.45,22.45,0,0,1,7.62-5.1,17.54,17.54,0,0,1,16.89,2.09,22.57,22.57,0,0,1,6.16,6.81,29.82,29.82,0,0,1,3.56,9.42,34.39,34.39,0,0,1,.36,11ZM700,112l1.72-13.91a17.44,17.44,0,0,0-.18-5.51,14.88,14.88,0,0,0-1.78-4.72,11.14,11.14,0,0,0-3.09-3.41,8.76,8.76,0,0,0-8.43-1,11.24,11.24,0,0,0-3.82,2.55,15,15,0,0,0-2.88,4.14,17.46,17.46,0,0,0-1.52,5.3l-1.72,13.91Z"/>
    </g>
    <g class="cls-7">
        <path class="cls-8"
              d="M767.82,153.88l-10.61-2.37,11-49a8.47,8.47,0,0,0,.17-2.77,7.26,7.26,0,0,0-.66-2.44,5.48,5.48,0,0,0-1.36-1.84,4.45,4.45,0,0,0-2-1,4.51,4.51,0,0,0-2.19.06,5.46,5.46,0,0,0-2,1.09,7.3,7.3,0,0,0-1.62,1.92,8.58,8.58,0,0,0-1,2.59l-11,49-10.65-2.38,11-49A8.78,8.78,0,0,0,747.1,95a7.31,7.31,0,0,0-.64-2.44,5.48,5.48,0,0,0-1.36-1.83,4.49,4.49,0,0,0-4.16-.93,5.63,5.63,0,0,0-2,1.08,7.47,7.47,0,0,0-1.63,1.92,9.26,9.26,0,0,0-1,2.59l-11,49L714.65,142l11-49a25.84,25.84,0,0,1,3-7.74,22.31,22.31,0,0,1,4.88-5.79,16.82,16.82,0,0,1,6.08-3.26,13,13,0,0,1,6.57-.22,13.11,13.11,0,0,1,5.41,2.65,15.68,15.68,0,0,1,4,5.05,15.85,15.85,0,0,1,5.8-2.85,13,13,0,0,1,11.86,2.9,17,17,0,0,1,4.1,5.54,22.55,22.55,0,0,1,1.94,7.32,26.06,26.06,0,0,1-.56,8.29Z"/>
    </g>
    <g class="cls-7">
        <path class="cls-8"
              d="M810.5,168.29l-35.41-12.16,22.73-66.22,35.41,12.15-4.55,13.25-25.07-8.6L799.06,120l17,5.83L811.48,139l-17-5.82L790,146.43l25.07,8.6Z"/>
    </g>
    <g class="cls-7">
        <path class="cls-8"
              d="M833.92,124.87a25,25,0,0,1,4.82-6.68,22.44,22.44,0,0,1,6.11-4.35,17.11,17.11,0,0,1,6.63-1.69,12.7,12.7,0,0,1,6.38,1.38L880,124.77l-6.31,12.48L851.55,126a4.38,4.38,0,0,0-2.13-.48,5.49,5.49,0,0,0-2.2.55,7.29,7.29,0,0,0-2,1.46,8.47,8.47,0,0,0-1.6,2.24,8.86,8.86,0,0,0-.87,2.65,7,7,0,0,0,0,2.51,5.57,5.57,0,0,0,.86,2.11,4.36,4.36,0,0,0,1.64,1.43l9.67,4.91a12.85,12.85,0,0,1,4.91,4.32,16.77,16.77,0,0,1,2.6,6.34,22.24,22.24,0,0,1,.08,7.52,26.85,26.85,0,0,1-7.35,14.54,22,22,0,0,1-6.09,4.36,17,17,0,0,1-6.65,1.68,12.72,12.72,0,0,1-6.39-1.39l-21.46-10.89,6.3-12.47,21.46,10.89a4.43,4.43,0,0,0,2.13.48,5.45,5.45,0,0,0,2.2-.55,7.14,7.14,0,0,0,2-1.46,8.47,8.47,0,0,0,1.6-2.24,8.57,8.57,0,0,0,.86-2.62,7.22,7.22,0,0,0,0-2.5,5.63,5.63,0,0,0-.87-2.1,4.3,4.3,0,0,0-1.64-1.44l-9.67-4.9a12.67,12.67,0,0,1-4.88-4.34,17.07,17.07,0,0,1-2.57-6.35,22.28,22.28,0,0,1-.1-7.53A25.4,25.4,0,0,1,833.92,124.87Z"/>
    </g>
</svg>