<svg id="Layer_1" data-name="Layer 1" xmlns="http://www.w3.org/2000/svg" width="204" height="110" viewBox="0 0 204 110">
  <title>spin_pressed</title>
  <polygon points="201.1 86.89 4.6 86.89 23.74 14.16 183.24 14.16 201.1 86.89" fill="#ed7a1b" stroke="#000" stroke-miterlimit="10"/>
  <rect x="4.23" y="87.5" width="196.97" height="9.21" fill="#d16819" stroke="#000" stroke-miterlimit="10"/>
  <g>
    <path d="M43.13,62.88V58.75H39V54.63h8.25v4.13H59.63V50.5H43.13V46.38H39V38.13h4.13V34H63.75v4.13h4.13v4.13H59.63V38.13H47.25v8.25h16.5V50.5h4.13v8.25H63.75v4.13Z"/>
    <path d="M72,62.88V34H96.75v4.13h4.13V50.5H96.75v4.13H80.25v8.25ZM80.25,50.5H92.63V38.13H80.25Z"/>
    <path d="M109.13,62.88V58.75h8.25V38.13h-8.25V34h24.75v4.13h-8.25V58.75h8.25v4.13Z"/>
    <path d="M138,62.88V34h8.25v4.13h4.13v4.13h4.13v4.13h4.13V34h8.25V62.88h-8.25V54.63H154.5V50.5h-4.12V46.38h-4.12v16.5Z"/>
  </g>
</svg>
