<svg id="Layer_1" data-name="Layer 1" xmlns="http://www.w3.org/2000/svg" viewBox="0 0 204 110"><defs><style>.cls-1{fill:#898989;}.cls-1,.cls-2{stroke:#000;stroke-miterlimit:10;}.cls-2{fill:#707070;}.cls-3{isolation:isolate;}</style></defs><title>spin_inactive</title><polygon class="cls-1" points="201.1 80.89 4.6 80.89 23.74 8.16 183.24 8.16 201.1 80.89"/><rect class="cls-2" x="4.23" y="80.44" width="196.97" height="19.27"/><g class="cls-3"><path d="M43.13,56.88V52.75H39V48.63h8.25v4.12H59.63V44.5H43.13V40.38H39V32.13h4.13V28H63.75v4.13h4.13v4.12H59.63V32.13H47.25v8.25h16.5V44.5h4.13v8.25H63.75v4.13Z"/><path d="M72,56.88V28H96.75v4.13h4.13V44.5H96.75v4.13H80.25v8.25ZM80.25,44.5H92.63V32.13H80.25Z"/><path d="M109.13,56.88V52.75h8.25V32.13h-8.25V28h24.75v4.13h-8.25V52.75h8.25v4.13Z"/><path d="M138,56.88V28h8.25v4.13h4.13v4.12h4.12v4.13h4.13V28h8.25V56.88h-8.25V48.63H154.5V44.5h-4.12V40.38h-4.13v16.5Z"/></g></svg>