<svg id="Layer_1" data-name="Layer 1" xmlns="http://www.w3.org/2000/svg" xmlns:xlink="http://www.w3.org/1999/xlink" width="427" height="117" viewBox="0 0 427 117">
  <defs>
    <linearGradient id="linear-gradient" x1="-0.28" y1="58.5" x2="427" y2="58.5" gradientUnits="userSpaceOnUse">
      <stop offset="0.04" stop-color="#1a48c4"/>
      <stop offset="0.51" stop-color="#29abe2"/>
      <stop offset="1" stop-color="#1a45c3"/>
    </linearGradient>
  </defs>
  <title>vikings_button</title>
  <rect x="-0.28" width="427.28" height="117" fill="url(#linear-gradient)"/>
  <g>
    <path d="M147.36,72.27l-9.9-30.33h4.23l4.73,14.94c1.3,4.09,2.43,7.79,3.24,11.34h.09c.85-3.51,2.12-7.33,3.46-11.29l5.13-15h4.19L151.68,72.27Z" fill="#fff"/>
    <path d="M169.73,41.94V72.27h-3.91V41.94Z" fill="#fff"/>
    <path d="M176.57,41.94h3.91V56.56h.14c.81-1.17,1.62-2.25,2.38-3.24l9.27-11.38h4.86l-11,12.87L198,72.27h-4.63l-10-14.89-2.88,3.33V72.27h-3.91Z" fill="#fff"/>
    <path d="M204.87,41.94V72.27H201V41.94Z" fill="#fff"/>
    <path d="M211.71,72.27V41.94H216l9.72,15.34a85.86,85.86,0,0,1,5.44,9.85l.09,0c-.36-4-.45-7.74-.45-12.46V41.94h3.69V72.27h-4l-9.63-15.39a96.26,96.26,0,0,1-5.67-10.12l-.13,0c.22,3.82.31,7.47.31,12.51v13Z" fill="#fff"/>
    <path d="M264.4,70.92a28.26,28.26,0,0,1-9.31,1.67c-4.59,0-8.37-1.17-11.34-4-2.61-2.52-4.23-6.57-4.23-11.29,0-9,6.25-15.66,16.42-15.66A18.75,18.75,0,0,1,263.5,43l-.94,3.2a15.72,15.72,0,0,0-6.71-1.31c-7.38,0-12.19,4.59-12.19,12.2s4.63,12.24,11.7,12.24a12.78,12.78,0,0,0,5.22-.81v-9h-6.17V56.34h10Z" fill="#fff"/>
    <path d="M269.85,67.5a13.87,13.87,0,0,0,7,2c4,0,6.34-2.12,6.34-5.17,0-2.83-1.62-4.46-5.71-6-5-1.75-8-4.32-8-8.59,0-4.72,3.91-8.24,9.81-8.24a13.78,13.78,0,0,1,6.7,1.49l-1.08,3.2a12.08,12.08,0,0,0-5.76-1.44c-4.14,0-5.71,2.47-5.71,4.54,0,2.83,1.85,4.23,6,5.85,5.13,2,7.74,4.46,7.74,8.91,0,4.68-3.46,8.73-10.62,8.73a15.67,15.67,0,0,1-7.74-1.94Z" fill="#fff"/>
  </g>
</svg>
