<svg id="Layer_1" data-name="Layer 1" xmlns="http://www.w3.org/2000/svg" xmlns:xlink="http://www.w3.org/1999/xlink" width="797" height="383" viewBox="0 0 797 383">
  <defs>
    <linearGradient id="linear-gradient" x1="-1" y1="191.5" x2="800" y2="191.5" gradientTransform="matrix(1, 0, 0, -1, 0, 383)" gradientUnits="userSpaceOnUse">
      <stop offset="0.04" stop-color="#1a48c4"/>
      <stop offset="0.51" stop-color="#29abe2"/>
      <stop offset="1" stop-color="#1a45c3"/>
    </linearGradient>
    <linearGradient id="linear-gradient-2" x1="99.64" y1="82.42" x2="251.78" y2="345.91" gradientTransform="matrix(1, 0, 0, -1, 0, 383)" gradientUnits="userSpaceOnUse">
      <stop offset="0" stop-color="#3aff2a"/>
      <stop offset="0.04" stop-color="#37f528"/>
      <stop offset="0.52" stop-color="#1a9415" stop-opacity="0.98"/>
      <stop offset="0.84" stop-color="#07570a" stop-opacity="0.96"/>
      <stop offset="1" stop-color="#003f05" stop-opacity="0.96"/>
    </linearGradient>
    <linearGradient id="linear-gradient-3" x1="178.21" y1="210.59" x2="182.7" y2="218.35" xlink:href="#linear-gradient-2"/>
    <linearGradient id="linear-gradient-4" x1="196.88" y1="203.04" x2="201.22" y2="210.55" xlink:href="#linear-gradient-2"/>
    <linearGradient id="linear-gradient-5" x1="185.02" y1="204.32" x2="186.75" y2="207.33" xlink:href="#linear-gradient-2"/>
    <linearGradient id="linear-gradient-6" x1="210.06" y1="203.95" x2="212.38" y2="207.98" xlink:href="#linear-gradient-2"/>
    <linearGradient id="linear-gradient-7" x1="334.01" y1="306.59" x2="339.93" y2="316.85" xlink:href="#linear-gradient-2"/>
    <linearGradient id="linear-gradient-8" x1="457.07" y1="100.85" x2="476.45" y2="134.42" xlink:href="#linear-gradient-2"/>
    <linearGradient id="linear-gradient-9" x1="623.99" y1="160.63" x2="638.82" y2="186.33" xlink:href="#linear-gradient-2"/>
    <linearGradient id="linear-gradient-10" x1="645.86" y1="58.83" x2="693.21" y2="140.83" xlink:href="#linear-gradient-2"/>
    <linearGradient id="linear-gradient-11" x1="678.64" y1="49.97" x2="684.52" y2="60.17" xlink:href="#linear-gradient-2"/>
    <linearGradient id="linear-gradient-12" x1="727" y1="38.07" x2="749.29" y2="76.68" xlink:href="#linear-gradient-2"/>
    <linearGradient id="linear-gradient-13" x1="690.24" y1="144.73" x2="705.39" y2="170.97" xlink:href="#linear-gradient-2"/>
    <linearGradient id="linear-gradient-14" x1="642.68" y1="153.33" x2="654.85" y2="174.41" xlink:href="#linear-gradient-2"/>
    <linearGradient id="linear-gradient-15" x1="644.2" y1="192.56" x2="656.72" y2="214.24" xlink:href="#linear-gradient-2"/>
    <linearGradient id="linear-gradient-16" x1="656.42" y1="254.66" x2="675.86" y2="288.34" xlink:href="#linear-gradient-2"/>
    <linearGradient id="linear-gradient-17" x1="454.83" y1="353.24" x2="465.45" y2="371.64" xlink:href="#linear-gradient-2"/>
    <linearGradient id="linear-gradient-18" x1="506.79" y1="371.72" x2="509.74" y2="376.83" xlink:href="#linear-gradient-2"/>
    <linearGradient id="linear-gradient-19" x1="387.55" y1="366.58" x2="393.42" y2="376.74" xlink:href="#linear-gradient-2"/>
    <linearGradient id="linear-gradient-20" x1="398.49" y1="374.14" x2="400.41" y2="377.46" xlink:href="#linear-gradient-2"/>
    <linearGradient id="linear-gradient-21" x1="389.41" y1="77.11" x2="585.34" y2="416.47" xlink:href="#linear-gradient-2"/>
  </defs>
  <title>Artboard 1</title>
  <rect x="-1" y="-1.5" width="801" height="386" fill="url(#linear-gradient)"/>
  <path d="M173.05,43.22c-13.86,3.32-23.33-1.76-36.44,0C118.35,38,100.12,36.43,82,44.71a79.41,79.41,0,0,0-7.73,2.39c-7.39,2.79-8.33,5.48.14,8a89.21,89.21,0,0,0-19.73,7.45L59.19,70,51.6,74.49c10.17-.62,22.8,2.45,29.86-4,5.62-5.15,12.13-5.14,18.72-1.93l4.55,3c-.53,1.92-1.9,4-1,5.67,2,3.61.71,6.72,3.08,9.29,2,2.17-1,5.7-.56,8.87L95.63,111.71c-4.72,8.25-5.82,15.94,1.51,22.34l1.52,10.42,3,4.47c-.31,7.41,2.64,12,7.59,14.89l-1.52-14.89,6.07,8.93,4.56,10.42-1.52,3c6.36,6.21,13.37,11.5,22.77,13.4l3-1.49c2.95,4.43,8.64,7.86,16.7,10.43a33,33,0,0,0,15.94,14.14c1.33-4.22,2.77-5.71,4.56,0,1.46,6.81-1.43,13.77-7.59,20.85-1.25,2.1-.94,4.1,1.51,6-1.77,1.59-2.8,4.54-3,8.93,4.77,2.83,9,7.65,12.14,16.38,3.52,6,8.91,11.95,18.22,17.87-.07,11.54.25,22.33,1.52,31.27a58.39,58.39,0,0,1,1.51,17.87,28.7,28.7,0,0,1,1.52,11.91,9,9,0,0,0,6.07,7.44,9.54,9.54,0,0,1-3,6c2.5,1.69,4,3.58,3,5.95,4.35,8.14,10.58,14.43,19.74,17.87l3-1.49s5.62,1.06,4.56,0-12.28-11-10.63-11.91c0,0,6.07-7.45,4.56-8.93a21.92,21.92,0,0,0-4.56-3l1.52-4.47v-7.44c2.17.12,3.52-2.41,4.55-6,7.61-1.55,9-5.23,6.08-10.42,3.63-.21,6.81-1,9.1-3a31.19,31.19,0,0,1,4.56-11.91c2.51-1.19,3.31-5.56,3-11.91l9.1-6c3.13.65,5.57-1.72,7.59-5.95,3.19-8,3.4-14.25,1.52-19.36-1.61-1,2-5.37,9.11-11.91,1.2-4.14,1.42-8.14,0-11.91A16,16,0,0,1,275.4,236c-2.33-1.56-4.79-2.43-7.59-1.49a52.77,52.77,0,0,0-19.73-8.93c-.17-7.24-2-12.42-6.08-14.89h-9c-6.18-6.76-12.28-11.84-18.22-13.4-5.08.25-9.25-.59-12.14-3h-3l-4.55-1.49c-6.94,3.6-11.42,6.75-10.63,8.93-4.5-2-8.74-2.9-12.14,0-4.15-.82-4.87-6.72-3-16.37-1.7-3.72-6.32-2.41-10.63-3-.31-4,1.08-6.62,4.56-7.45v-6l-1.52-1.49c-2.94-.29-5.55.06-7.59,1.49-3.86,7.42-8.41,8.94-13.66,4.47-2.77-4.2-3.74-8.22-1.52-11.92a14.22,14.22,0,0,0,4.55-10.42c7-4.42,12.55-6.38,15.18-3,6.2-3.08,10.87-4.33,12.15-1.49,3-.8,5.07.09,4.55,6,.93,3,2.42,5,4.56,6,3.32-2,4-6.76,1.51-14.89a102.1,102.1,0,0,1,16.7-13.4l1.52-6c4.25-4.6,8.92-8.6,15.18-10.42,4.56-4.52,9-8.29,12.14-6,1.06,2,3.15,1.31,6.08-1.49l10.62-3c1.34-1.74.64-3.21-1.52-4.47L236,102c-3.51-1.14-3.08-4.09,1.52-8.94,2.12,1.76,4.17,2.29,6.07,0,2-2.71,3.49-1.85,4.56,1.49l-1.52,3c2.41,2.25,6.13,3,10.63,3,2.42-1.46,3.07-4.2,3-7.45l-4.55-1.49c4.16-6.31,3.72-11.43-3-14.89,1.15-4.3-.66-8.15-3-11.91-3.41,2.5-6.69,4.64-9.1,4.47,0-7.71-4.89-10.9-15.18-8.93-.81,3.65-2.35,6.9-6.08,8.93,3.76,3.47,1.44,6.43-6.07,8.93,0,0-3,8.94-6.07,8.94s-1.52-8.94-1.52-8.94c-5.62-3.32-10.82-5.64-15.18-5.95.65-7.16,4.82-11,12.15-11.91l10.62-4.47c9.62,3.65,13.46,3.12,7.59-4.47,5.62-.51,9.89-3.15,12.15-8.93,5.16,1.06,9.77,2.37,9.1,6A25.21,25.21,0,0,1,231.5,53c3.31,4.16,9.74,7,18.21,8.94v-3c5,1.86,6.18-.45,4.56-6,10.24.65,11.67-1.69,3-7.44-1.62-5.41-5.86-9.27-12.15-11.91l-13.66-6c-8.36.06-17.58,2.92-27.33,7.44-6,.57-12.15,1.49-16.69-1.48-3.89-2.91-9-3.22-15.18-1.49,0,0-10.63,0-9.11,4.46s9.11,3,9.11,3C173.77,40.69,174.06,41.93,173.05,43.22Z" stroke="#000" stroke-miterlimit="10" stroke-width="0.25" fill="url(#linear-gradient-2)"/>
  <path d="M168.49,166.8c3.46-5.4,12.84-3.91,22.77,3q1.69,4.47-6.07,3C179.46,168.53,172.91,167.61,168.49,166.8Z" stroke="#000" stroke-miterlimit="10" stroke-width="0.25" fill="url(#linear-gradient-3)"/>
  <path d="M191.26,175.74c2.78-2.81,5.79-4,9.11-3,3.57.93,6.09,2.24,6.07,4.47.29.71-2.7,1.17-7.59,1.49-3.75.35-6.38-.54-7.59-3" stroke="#000" stroke-miterlimit="10" stroke-width="0.25" fill="url(#linear-gradient-4)"/>
  <path d="M183.67,175.74h3c1.7.58,2,1.64,1.52,3h-3c-2.19-1-2.69-2-1.52-3" stroke="#000" stroke-miterlimit="10" stroke-width="0.25" fill="url(#linear-gradient-5)"/>
  <path d="M209.48,177.23s-1.52-3,1.52-1.49c3-1.49,3,1.49,3,1.49-1.6,1.38-3.12,2-4.55,1.49Z" stroke="#000" stroke-miterlimit="10" stroke-width="0.25" fill="url(#linear-gradient-6)"/>
  <path d="M362.8,19.4c-3.59-2.42-7.67-2.81-12.15-1.49-8.26-4.08-26.92-2.77-45.54-1.49l-25.8,3c-1,2.06-3.09,3.5-6.08,4.47-2.46-1.31-5-.63-7.59,1.49.81,3.06,4,4.77,10.63,4.46h6.07l1.52,6-1.52,1.49,1.52,3-1.52,1.48V43.3c.19,1.59-5,7.62-4.55,8.94,1.28,3.58,3,7.44,3,7.44.86,2.4,2.75,4.44,6.08,6,4.53-.15,7.6-1.61,9.1-4.47L305.84,53a21.65,21.65,0,0,0,13.66-4.47c10.5-1.27,17.84-3.52,19.74-7.44a7.26,7.26,0,0,1,3-6,10.83,10.83,0,0,0,4.56-3c-.3-1.82,1.09-3.22,3-4.47.06-3,.88-5.22,3-6C357.82,21.56,361,20.75,362.8,19.4Z" fill="#fcfcfc" stroke="#000" stroke-miterlimit="10" stroke-width="0.25"/>
  <path d="M339.58,66.56c-3.51-.85-6.21.66-7.59,6-1.44,1.68-1.24,2.78,1.52,3l7.59-3C341.17,67.74,340.72,65.5,339.58,66.56Z" stroke="#000" stroke-miterlimit="10" stroke-width="0.25" fill="url(#linear-gradient-7)"/>
  <path d="M473.61,247.21c9.69,13.53-.75,26.06-7.59,35.73h-7.59c-4.86-4.81-4.58-9.78,0-14.89-.3-6.77,1.36-11.95,7.59-13.4C469.27,248.05,471.94,244.76,473.61,247.21Z" stroke="#000" stroke-miterlimit="10" stroke-width="0.25" fill="url(#linear-gradient-8)"/>
  <path d="M636,195.09l7.59,4.47c-3.2,2.49-5.18,4.69-3,6l1.52,5.95a46.54,46.54,0,0,1-7.59,14.89c-11-2.64-18.06-7.32-16.7-16.38C628.11,206.56,633.77,201.45,636,195.09Z" stroke="#000" stroke-miterlimit="10" stroke-width="0.25" fill="url(#linear-gradient-9)"/>
  <path d="M690.69,259.12s3-16.38,6.07-14.89,5.4,10,7.59,17.87l12.15,19.35c-1.08,11.4-5,20.78-13.67,26.8l-12.14,10.43c-11.17,1.83-19.78,1.74-18.22-6l-7.59-4.47c-3.46-5.89-11.13-7.78-25.8-3-11.05,4.41-19.9,6.65-21.26,1.48,2.13-1.83,6.57-5.19,4.84-9.77-3.15-8.37-1.86-15.34,1.24-23a45.07,45.07,0,0,1,19.73-7.45c1.91-6.24,6.19-11.07,12.14-14.89,3.42-.38,6.22.2,7.59,3,2.85-5.16,6.36-8.71,10.63-10.42l10.63,3-1.52,8.93C685.63,258.16,687.33,260.16,690.69,259.12Z" stroke="#000" stroke-miterlimit="10" stroke-width="0.25" fill="url(#linear-gradient-10)"/>
  <path d="M678.55,324.63h9.1a11.52,11.52,0,0,1-7.59,8.94Q673.75,331.74,678.55,324.63Z" stroke="#000" stroke-miterlimit="10" stroke-width="0.25" fill="url(#linear-gradient-11)"/>
  <path d="M749.89,309.74c1.69-4.11,4.92-.67,9.11,7.45-3.57,7.32-20.13,15.58-36.43,23.82L715,338C732,330,743.88,320.68,749.89,309.74Z" stroke="#000" stroke-miterlimit="10" stroke-width="0.25" fill="url(#linear-gradient-12)"/>
  <path d="M671,217.43c4.47-2.67,8.31-2.86,10.63,3,11.67-2.48,21.91.1,30.36,8.93,0,0,13.66-11.91,12.15-4.47s-9.92,14.52-6.08,19.36l-13.66-8.93c-1.84,3.06-7.31,3.62-16.7,1.48A106.8,106.8,0,0,1,671,217.43Z" stroke="#000" stroke-miterlimit="10" stroke-width="0.25" fill="url(#linear-gradient-13)"/>
  <path d="M657.29,210a28.76,28.76,0,0,0-12.14,1.49c-3.26,4.08-4,10.23-3,17.87l10.63-3C648.69,222.56,652.5,218.16,657.29,210Z" stroke="#000" stroke-miterlimit="10" stroke-width="0.25" fill="url(#linear-gradient-14)"/>
  <path d="M640.59,163.83h7.59l1.52,11.91c4.25,2.87,7.84,5.92,6.07,10.42q6.59,4.64,3,11.91c-6-1.74-9.12-4.51-7.59-8.93C643.36,183.55,640.72,174.52,640.59,163.83Z" stroke="#000" stroke-miterlimit="10" stroke-width="0.25" fill="url(#linear-gradient-15)"/>
  <path d="M663.36,92.36c5.42.31,10.44.93,13.67,3q.33,4.62-6.08,6c3.61,6.27,6,12.36,4.56,17.87l-16.7,10.42c-4.09-1.58-5-4.86-4.55-8.93,4.41-3.6,8.31-11.25,13.66-7.45C663.33,109.65,663.51,100.82,663.36,92.36Z" stroke="#000" stroke-miterlimit="10" stroke-width="0.25" fill="url(#linear-gradient-16)"/>
  <path d="M469.06,13.44l3,3-16.69,6L460,28.33h-7.59l-4.55-3C452,17.75,459.77,14.6,469.06,13.44Z" stroke="#000" stroke-miterlimit="10" stroke-width="0.25" fill="url(#linear-gradient-17)"/>
  <path d="M500.94,7.49c3.88-1.79,8.57-.84,13.66,1.49,1.22,1.6.5,2.52-1.52,3C508.25,11.8,504.15,10.39,500.94,7.49Z" stroke="#000" stroke-miterlimit="10" stroke-width="0.25" fill="url(#linear-gradient-18)"/>
  <path d="M379.5,9a45.33,45.33,0,0,1,22.77,3s1.51-1.49-1.52,1.48-9.11,0-9.11,0L387.09,15Q381.77,14.93,379.5,9Z" stroke="#000" stroke-miterlimit="10" stroke-width="0.25" fill="url(#linear-gradient-19)"/>
  <path d="M394.68,6c3.57,0,7,.2,9.1,1.49.51,1.16.05,2.16-1.51,3-3.9-1.36-6.12-2.88-7.59-4.47" stroke="#000" stroke-miterlimit="10" stroke-width="0.25" fill="url(#linear-gradient-20)"/>
  <g>
    <path d="M346.61,50.38c-1.34-1.25-4.53-1.06-10.75,1.5l-4.61-3-3.07,3c.76,2.42,1.89,4.64,4.61,6h10.75c-.57,4.62-.62,8.5,2.3,8.28-1.35,4.86-2.15,9.17-1.53,12,1.24-.43,2.47-.82,3.66-1.15,3.37-.94,6.42-1.33,8.63-.35l-12.29,6c4.08,3.71,7,7.8,4.61,13.54l-15.37-1.5A59.29,59.29,0,0,0,332,114.34h6.14c-.91,5.86-3.94,10.25-10.75,12v9C320,138.48,314,144.17,310.51,155c-.3,5.22,3.07,10.53-.51,14.29,0,9.18.85,15.1,3.58,14.3,4,9.22,9.66,16.4,18.44,19.57,5.56-2.32,10.78-2.82,15.36,0,6.84-5.76,13-6.29,18.44,0,6.12-2.86,9.14,1.59,7.68,16.55,5.51,6.63,9.82,15.08,10.75,28.6-3.26,3.07-5.84,6.72-4.6,13.54,4.16,17.57,9.61,33.8,16.9,48.16,18.4.28,27.49-5.48,30.72-15.05l4.61-9c5.84-2.94,6.05-9.91,4.61-18.06,12.77-2.28,17-12.2,10.76-31.6,2.05-12.4,8.41-22.12,20-28.6a36.75,36.75,0,0,0,9.22-25.58c-14.55,5.62-19.72,5.16-20,1.5-.08-2.81,8.81-7.36,26.12-13.54q10.41-5.93,12.29-16.56l-18.43-6c-5.61-4.62-7.34-9.11-7.68-13.54a22.24,22.24,0,0,0,16.9,9l24.58,4.51L521,158l4.61,1.5c3.69,14.72,8.58,26.76,15.37,34.62,5.82-4.53,8.18-10.89,6.14-19.57,8.72-11.49,17.16-20.08,24.58-18.06,4.23,4.24,8,8.81,9.22,15,6.12-4.78,10.15.17,10.76,21.07l7.68,15c-5.47-5.61-10.8-9.93-15.37-7.52a45.07,45.07,0,0,0,10.76,15.05c2.69,5.18,5.5,10,9.22,12l4.61,4.51c1.15,5.86,12.29,8,26.11,9,1.45-1.26.84-2.15,0-3-9.23-2.06-17.69-4.35-23-7.52,3.52-6.85,2.91-10.67-3.07-10.54-1.74-1.72-2.69-4.31-3.08-7.52l1.54-1.51c-.89-6.39-2.26-12-6.15-13.54-4.47-5.22-7.25-10.61-4.61-16.56,4.72,2.17,8.82,5.06,10.76,10.54,7.27-2,11.22-5.39,10.75-10.54-1.71-7.57-5.26-13.62-10.75-18.06,3-3.65,6-7.09,7.68-3a9,9,0,0,0,7.68-3c14.66-3.83,20.16-13.45,16.9-28.59-6.8-6.15-11-11.49-4.61-13.55-2.59-2.54-5.15-3.2-7.68-1.5-4.9-3.21-2.36-5.45,1.54-7.53.5,3.57,3.92,4.8,9.22,4.52,3.43,4.9,6.82,9.37,10.75,12,2.86-.12,4.16-1.28,4.61-3l-9.22-12c1.67-4.54,4.1-7.35,7.68-7.53,4.29-5.2,6.29-10.73,6.15-16.55,2.73,3.33,5.58,7.6,7.68,6l3.07-1.51a6.94,6.94,0,0,1-4.6-4.51c1.27-3.41-3.91-8.59-13.83-15a29,29,0,0,1-15.37-1.51c1.56-5.45,3.33-10,6.15-10.53a55.1,55.1,0,0,0,20,0c.48-5.42,2.73-7.83,9.22-3l3.07-3c.25,4-.27,7.73-3.07,10.53,3.3,7.46,9,13.45,16.9,18.06,2-5.57,1.84-11.63,0-18.06-2.54-1.86-6.14-3-6.14-4.51s4.55-2,9.21-1.51a17.42,17.42,0,0,1,9.22-7.52c-2.87-1.7-5.26-3.35-1.53-4.52l10.75,1.51c2.31-1.78,1.87-3.83,0-6-21.48-6.21-39.34-9.09-50.7-6-23.16-2-43.47-5.85-59.92-12l-1.54,6c-6.72,1.3-15.38-.63-26.11-6-5.66,2.82-12.48,3.48-21.51,0-4.37-4.06-12.85-6.65-26.12-7.53-3.14,3.8-9.33,5.78-18.44,6-3.76,3.81-11.12,6-20,7.53-4.28-6.3-7.39-5.05-9.22,4.51l-12.29-1.5c-1.77,3.22-10.48,5.52-21.51,7.52-2.37-6.09-4.34-4-6.14,1.51-4.71-5.16-12-7.45-20-9l-12.29-3c-6.42-.4-19,1.23-21,9a13.4,13.4,0,0,1-8.2,9.06c-7.89,2-11.38,6.11-4.61,15,0,0,7.68-4.52,7.68-1.51s-6.14,4.52-6.14,4.52L372,69.19c-4.39.41-7.68,1.51-10.75,4.52-1.24,1.21-2.48.22-3.52-1.39a29.21,29.21,0,0,1-2.63-6.14A29,29,0,0,0,346.61,50.38Z" stroke="#000" stroke-miterlimit="10" stroke-width="0.25" fill="url(#linear-gradient-21)"/>
    <path d="M396.64,39.71c1.46-1.49,2.9-1.86,4.31-.85.78,2.27-1.17,3.85-4.31,5.11-1.64,4-1.19,7.45,5.17,9.38l3.45-1.7c-.88,3.1-2.51,5.21-5.17,6-2.83.47-4.12,3.25-4.31,7.68a69.55,69.55,0,0,1-15.52.85l-4.68-7,1.23-2.39c1.25,3.61,2.94,6.43,6.9,5.12l3.45-1.71c.57-3.31,1.42-5.08,2.58-5.11,2.08-2,1.26-4.32-.86-6.82.31-1.77.72-4.9,3-5A5.23,5.23,0,0,0,396.64,39.71Z" fill="#1786ff" stroke="#000" stroke-miterlimit="10" stroke-width="0.25"/>
    <path d="M347.07,114.31c3.9-7,7.94-10.9,12.07-12.79l.86-4.26a34.78,34.78,0,0,0,12.93-1.71s14.23,9,14.66,11.94-7.76,4.26-7.76,4.26l6.89,3.41,5.18-8.52c-1.06-3.42-6.29-8.72-11.64-14.07,7.52,2.19,13.39,6,15.52,13.64,3,5.39,5.9,9.36,8.62,9.38,0,0-1.73-11.08,1.72-11.08s11.21,11.08,11.21,11.08c6.65,1.75,12.63,2.51,16.38,0,1.94,5.52.59,10.23-2.59,14.5-10.18-.07-21.25-5.35-33.62-2.56,0,0,3.45,2.56,0,4.26s-20.69-4.26-22.41-7.67.86-10.23.86-10.23c-14.68-.22-24.75,1.37-29.31,5.11C332,120.34,330.06,116.31,347.07,114.31Z" fill="#1786ff" stroke="#000" stroke-miterlimit="10" stroke-width="0.25"/>
    <path d="M415.17,96.41c2.58-5.28,5.45-7.83,8.62-7.68l4.31,6c5.77-2.13,11.18-.1,16.38,4.27,1.15,2.32-.2,3.66-3.45,4.26l-14.65-2.56C421,102.05,417.21,100.78,415.17,96.41Z" fill="#1786ff" stroke="#000" stroke-miterlimit="10" stroke-width="0.25"/>
    <path d="M457.41,92.14c3.88-5.9,7.16-5.51,10.35-4.26.85,2.46-.32,4.73-3.45,6.82,4.22,4.81,8.16,9.84,10.35,16.2.26,3.22-2.07,3.36-5.18,2.56-2.93-1.82-4.52-4-4.31-6.82C460.88,100.88,458.37,96.09,457.41,92.14Z" fill="#1786ff" stroke="#000" stroke-miterlimit="10" stroke-width="0.25"/>
    <path d="M456.58,183c-6.23-5.46-11.34-11.47-14.68-18.35L429,137.33c5,3.57,10.11,9,15.51,17.91a77.22,77.22,0,0,1,12.93,26.52Z" fill="#1786ff" stroke="#000" stroke-miterlimit="10" stroke-width="0.25"/>
  </g>
  <path d="M359.08,72.58A16.44,16.44,0,0,1,356,74.81c-.47.33-.95.67-1.45,1a7.49,7.49,0,0,1-1.82.66,67.84,67.84,0,0,0-7,2.9c-.44.2-.06.84.38.65a67.38,67.38,0,0,1,7.5-3,10.67,10.67,0,0,0,3.07-1.72,15.65,15.65,0,0,0,2.91-2.13c.32-.35-.21-.89-.54-.53Z"/>
  <path d="M357.5,72v.5c-2.94,2.59-7.49,4.38-13.22,5.58" fill="none" stroke="#000" stroke-miterlimit="10" stroke-width="0.25"/>
  <path d="M353.5,78.5c2-1.45,5.44-3.11,7-4.32" fill="none" stroke="#000" stroke-miterlimit="10" stroke-width="0.25"/>
  <path d="M336.07,116.75a.38.38,0,1,0-.31-.31A.37.37,0,0,0,336.07,116.75Z"/>
  <path d="M335.26,118.45a.38.38,0,1,0-.31-.31A.37.37,0,0,0,335.26,118.45Z"/>
  <path d="M458.3,183.26A.38.38,0,1,0,458,183,.37.37,0,0,0,458.3,183.26Z"/>
  <path d="M458.15,183.45a.38.38,0,1,0-.31-.31A.37.37,0,0,0,458.15,183.45Z"/>
  <path d="M375.26,58.23a.38.38,0,1,0-.31-.31A.37.37,0,0,0,375.26,58.23Z"/>
</svg>
