<svg id="Layer_1" data-name="Layer 1" xmlns="http://www.w3.org/2000/svg" xmlns:xlink="http://www.w3.org/1999/xlink" 
width="825" height="137" viewBox="0 0 825 137">
  <defs>
    <linearGradient id="linear-gradient" x1="41.12" y1="124.86" x2="106.38" y2="11.83" gradientUnits="userSpaceOnUse">
      <stop offset="0" stop-color="#29abe2"/>
      <stop offset="1" stop-color="#1a45c3"/>
    </linearGradient>
    <linearGradient id="linear-gradient-2" x1="74.22" y1="18.69" x2="84.29" y2="1.25" gradientUnits="userSpaceOnUse">
      <stop offset="0" stop-color="#00aa27"/>
      <stop offset="0.19" stop-color="#009420" stop-opacity="0.99"/>
      <stop offset="0.74" stop-color="#00570d" stop-opacity="0.97"/>
      <stop offset="1" stop-color="#003f05" stop-opacity="0.96"/>
    </linearGradient>
    <linearGradient id="linear-gradient-3" x1="79.4" y1="35.08" x2="82.23" y2="30.19" xlink:href="#linear-gradient-2"/>
    <linearGradient id="linear-gradient-4" x1="19.82" y1="103.8" x2="74.15" y2="9.69" gradientUnits="userSpaceOnUse">
      <stop offset="0" stop-color="#3aff2a"/>
      <stop offset="0.04" stop-color="#37f528"/>
      <stop offset="0.52" stop-color="#1a9415" stop-opacity="0.98"/>
      <stop offset="0.84" stop-color="#07570a" stop-opacity="0.96"/>
      <stop offset="1" stop-color="#003f05" stop-opacity="0.96"/>
    </linearGradient>
    <linearGradient id="linear-gradient-5" x1="57.15" y1="45.89" x2="59.71" y2="41.46" xlink:href="#linear-gradient-2"/>
    <linearGradient id="linear-gradient-6" x1="55.83" y1="38.27" x2="58.29" y2="34.01" xlink:href="#linear-gradient-4"/>
    <linearGradient id="linear-gradient-7" x1="87.64" y1="105.35" x2="131.93" y2="28.64" gradientUnits="userSpaceOnUse">
      <stop offset="0" stop-color="#3aff2a"/>
      <stop offset="0.13" stop-color="#39fa29"/>
      <stop offset="0.27" stop-color="#35ed27"/>
      <stop offset="0.42" stop-color="#2ed722" stop-opacity="0.99"/>
      <stop offset="0.58" stop-color="#25b81c" stop-opacity="0.99"/>
      <stop offset="0.74" stop-color="#199015" stop-opacity="0.98"/>
      <stop offset="0.9" stop-color="#0a610b" stop-opacity="0.97"/>
      <stop offset="1" stop-color="#003f05" stop-opacity="0.96"/>
    </linearGradient>
  </defs>
  <title>logo_nav</title>
  <g>
    <path d="M139,68.35a65.18,65.18,0,1,1-52.63-64A65.25,65.25,0,0,1,139,68.35Z" stroke="#000" stroke-miterlimit="10" stroke-width="0.5" fill="url(#linear-gradient)"/>
    <path d="M79.87,21.8a2,2,0,0,0,.88-2.65c-1-2.86,1.57-5.26,1.95-5.13,2.51.15,5.48-.88,6.37-2.12s-.77-2.74.37-3.4,1-2.18,1-3.67c-4.86-2.13-11.34-2.17-18.2-1.72-.87,1.95-.29,4,2.64,6.31a6.18,6.18,0,0,1-.35,3.89c1,.53.6,1.28,1.27,3.11C76.42,18,78.93,22.07,79.87,21.8Z" stroke="#000" stroke-miterlimit="10" stroke-width="0.5" fill="url(#linear-gradient-2)"/>
    <path d="M76.12,33.19c1.19-1.54.75-3.54,2.12-3.18s5,.71,6.72,1.77c.46.86.58,1.63-.35,2.12-2.49,1.83-7.85.19-7.07-.71A1.33,1.33,0,0,0,76.12,33.19Z" stroke="#000" stroke-miterlimit="10" stroke-width="0.5" fill="url(#linear-gradient-3)"/>
    <path d="M62.61,3.54c1.75.53,3.49,1.08,4.6,2.83s1.43,3.29.71,4.6c-.27,1.16-1.19,1.2-2.83,0-.16,1.24-.46,2.34-1.41,2.83a6,6,0,0,1-2.48-.35c-.15.89-.49,1.46-1.41,1.06-4.31-1.86-5.84.35-6.72,3.54.42,1.66,1.8,2.51,4.6,2.12.72-1.09,1.43-1.83,2.12-1.77a6.62,6.62,0,0,0,2.66-.89c.57-.57,1.12-.86,1.59-.53a2.12,2.12,0,0,1,1.06,2.12l1.06,2.12.71,5.66a54.5,54.5,0,0,0-7.07-.35L58,27.24a15.3,15.3,0,0,0-4.6,0,4.4,4.4,0,0,1-2.83,1.41L47.4,29.71l-1.06,1.77-1.41.71c-.2,4.37-.31,8.41.71,8.49a3,3,0,0,1-1.77-2.12l-2.48-2.83c-.79-1.18-1.48-1.7-2.12-1.77A9.09,9.09,0,0,0,35,35c-2.48.79-4.09,1.7-4.24,2.83-1.33,3-2.42,5.89-1.06,6.72A18.94,18.94,0,0,0,35.38,46c1,.32,1.38,1.31.71,3.54-1.37,1-2.58,1.93-1.77,3.18,1.46,3.79,3.15,7.12,5.66,8.84l1.77-.71,1.77-.35,1.41-1.06c.93,0,1.77.79,2.48,2.83l3.54,2.48,2.12,3.18a4.23,4.23,0,0,0,1.06,2.48l3.18,3.18c.23,1.81.63,3.26,1.41,3.89,1.22.2,2.27.67,2.48,1.41l2.12.35,1.77,1.41,1.06.71a4.65,4.65,0,0,1,0,4.24l-2.48,2.83L61.9,92.31l-2.48,2.12a6.38,6.38,0,0,0-2.83,3.18,2.9,2.9,0,0,1,0,3.18l-1.41,1.06-.35,1.41L53.06,105a7.91,7.91,0,0,1-2.48,3.89l-1.06,1.77-1.06,3.54,1.77,2.48h0c-.12,1.05.43,2.4,2.12,4.24a5,5,0,0,1-2.83,0,24,24,0,0,0-5.66-3.54,9.11,9.11,0,0,1-4.24-2.83l-1.77-2.48-1.06-1.41a25.54,25.54,0,0,1-1.06-8.49,6.51,6.51,0,0,1-1.06-3.54L35,95.49a17.06,17.06,0,0,1,0-5.66c-.86-.79-1.39-2.35-1.77-4.24a4.9,4.9,0,0,1-2.83.71l-.71-2.12A1.81,1.81,0,0,1,29,82.05c-1.78-.57-2.79-1.49-2.83-2.83a7.1,7.1,0,0,1-1.41-3.54,4.61,4.61,0,0,1-.35-2.48c.1-1,1.41-2.12,1.41-3.18a4.29,4.29,0,0,0-.35-1.77,8,8,0,0,1,1.77-2.83l3.18-1.77a7.82,7.82,0,0,0,2.48-2.83,5.58,5.58,0,0,0,.35-3.18l-1.41-2.12a18.48,18.48,0,0,0-1.41-5,11.68,11.68,0,0,0-4.24-1.06c-.58-2.06-1.3-3-2.12-3.18L21.94,46a3.66,3.66,0,0,0-1.41-2.12,10.37,10.37,0,0,1-3.18-2.48L16.64,41l-1.06-1.77c1.05-4.6,4.63-9.59,8.94-14.7,5.62-6.73,12.95-12,21.39-16.21C52.15,5.56,58,3.55,62.61,3.54Z" stroke="#000" stroke-miterlimit="10" stroke-width="0.5" fill="url(#linear-gradient-4)"/>
    <path d="M54.74,40.26c-1.4,1.55-1.75,3,0,4.24a2.93,2.93,0,0,0,1.77-.35,4.4,4.4,0,0,1,2.12.35H60.4a4.44,4.44,0,0,0,3.18.35c.34-.49-.21-1.11-1.06-1.77A14.23,14.23,0,0,0,60,42.38,4,4,0,0,0,57.57,41,4.51,4.51,0,0,0,54.74,40.26Z" stroke="#000" stroke-miterlimit="10" stroke-width="0.5" fill="url(#linear-gradient-5)"/>
    <path d="M58.88,34.44c1.12.32,1.76,1.21,1.77,2.83a5,5,0,0,1-3.18,1.06,8.26,8.26,0,0,0-2.83-1.41l-1.77-.35c-.05-.92.52-1.3,1.41-1.41a2,2,0,0,0,2.12,0C57.45,34.47,58.29,34.21,58.88,34.44Z" stroke="#000" stroke-miterlimit="10" stroke-width="0.5" fill="url(#linear-gradient-6)"/>
    <path d="M110.35,16.18c-.37,1.2-2.41,1.14-5,.71a4,4,0,0,0-2.12,1.41,9.69,9.69,0,0,1-3.18.35c-2-.14-3.55,0-3.89,1.06.22,1.11,2.07,1.72,4.6,2.12,0,1.72.07,3.12.71,3.54A4.35,4.35,0,0,1,104,26.79,3.3,3.3,0,0,0,105.76,30c.37.44.11.91-.71,1.41a9,9,0,0,0-4.6,1.06,25.25,25.25,0,0,0-5-.35c-2.32,1.12-4.61,2.24-4.6,4.24.15.44-.17,1.12,1.33,1.62s.69.55,1.15.86a13.77,13.77,0,0,1,1.41,5c-.63,1.16,1.51,1.37,4.16,1.41H99c.56-.21.73-.73.71-1.41a5.12,5.12,0,0,1,.71-3.18l2.83-1.06A2.59,2.59,0,0,1,105,38.11a12.4,12.4,0,0,1,3.89,2.48,29.28,29.28,0,0,1,5,0,6.21,6.21,0,0,0,2.48,2.48c2.2.62,3.88,1.6,4.24,3.54.85,1.49.78,2.81-.71,3.89-2.63-.82-4.84-1.41-5.3-1.06-1.32-.14-2.12-2.12-3.89-2.12a9.79,9.79,0,0,1-2.83-.35,5.28,5.28,0,0,0-3.18-1.06,9.39,9.39,0,0,1-3.18,1.77l-4.24,2.48c-1,1.78-2.13,3.17-4.11,3.08l-.14.1A11.34,11.34,0,0,0,90.9,59a9.48,9.48,0,0,1,.71,5.66,7.67,7.67,0,0,1,3.54,2.48c.51,1.67-.36,2.65-2.12,3.18q.55,2.46,4.24,5a12.86,12.86,0,0,1,2.48,5.3A8.71,8.71,0,0,1,104,83a16.63,16.63,0,0,1,5.66-1.41,9.68,9.68,0,0,0,4.6-2.12c1.5.51,2.8,1.1,3.18,2.12l.35,2.12,2.12,1.41c.62,1.44-.59,2.85-2.83,4.24v3.54a9.15,9.15,0,0,0-3.18,4.24l-1.06,2.12a2.93,2.93,0,0,0-.35,2.83,3.46,3.46,0,0,0,1.77,1.77c-.48,1.15-1.06,2.32-.35,3.18a4,4,0,0,1-.35,3.18l-.71,2.12c-.52,2.12-.72,3.77-.35,4.6l1.41,3.54c6.95-4.66,12.95-11.43,17.81-20.74,4.59-8.19,6.89-18.24,7.3-29.83a65.14,65.14,0,0,0-5.08-25.45C127.94,32.16,120.58,22,110.35,16.18Z" stroke="#000" stroke-miterlimit="10" stroke-width="0.5" fill="url(#linear-gradient-7)"/>
  </g>
  <g>
    <path d="M216.3,100.16h-6.45L198.23,59.59l-11.38,40.58h-6.45l-6.05-53h-1.51a3.14,3.14,0,0,1-2.1-.56,2.06,2.06,0,0,1,0-3,3.15,3.15,0,0,1,2.1-.56h15.23a3.25,3.25,0,0,1,2.15.56,2.06,2.06,0,0,1,0,3,3.24,3.24,0,0,1-2.15.56H178.5l5.42,48.34L195,55.68h6.3l11.38,39.79L218,47.14h-9.62a3.14,3.14,0,0,1-2.1-.56,2.06,2.06,0,0,1,0-3,3.15,3.15,0,0,1,2.1-.56h15.14a3.25,3.25,0,0,1,2.15.56,2.06,2.06,0,0,1,0,3,3.24,3.24,0,0,1-2.15.56H222Z" fill="#fff" stroke="#fff" stroke-miterlimit="10" stroke-width="4"/>
    <path d="M281.24,79.12a21.71,21.71,0,0,1-6.71,16,23.11,23.11,0,0,1-32.45,0,22.52,22.52,0,0,1,0-32,23.11,23.11,0,0,1,32.45,0A21.76,21.76,0,0,1,281.24,79.12Zm-4.15,0A17.77,17.77,0,0,0,271.59,66,19,19,0,0,0,245,66a18.36,18.36,0,0,0,0,26.2,18.95,18.95,0,0,0,26.61,0A17.79,17.79,0,0,0,277.09,79.12Z" fill="#fff" stroke="#fff" stroke-miterlimit="10" stroke-width="4"/>
    <path d="M313.42,57.88V68.23q8-7.23,12-9.3a16.07,16.07,0,0,1,7.35-2.07,10.84,10.84,0,0,1,6.81,2.46q3.15,2.47,3.15,3.74a2.09,2.09,0,0,1-2.15,2.15,1.82,1.82,0,0,1-.83-.17,6.86,6.86,0,0,1-1.27-1.1,12.39,12.39,0,0,0-3-2.34A5.54,5.54,0,0,0,333,61a13.72,13.72,0,0,0-6.47,2.15q-3.78,2.15-13.11,10.5V96.06h18.16a3.25,3.25,0,0,1,2.15.56,2,2,0,0,1,0,3,3.14,3.14,0,0,1-2.15.59H299.4a3.14,3.14,0,0,1-2.1-.56,1.92,1.92,0,0,1,0-2.83,3.14,3.14,0,0,1,2.12-.56h9.91V62h-7.57a3.05,3.05,0,0,1-2.1-.59,2,2,0,0,1-.63-1.51,2,2,0,0,1,.61-1.46,3,3,0,0,1,2.12-.59Z" fill="#fff" stroke="#fff" stroke-miterlimit="10" stroke-width="4"/>
    <path d="M380.41,38.88V96.06h16.11a3.25,3.25,0,0,1,2.15.56,2,2,0,0,1,0,3,3.14,3.14,0,0,1-2.15.59H360.19a3.05,3.05,0,0,1-2.1-.59,2,2,0,0,1,0-3,3.15,3.15,0,0,1,2.1-.56h16.11V43H364.49a3.16,3.16,0,0,1-2.12-.59,1.93,1.93,0,0,1-.66-1.51,1.91,1.91,0,0,1,.63-1.46,3.14,3.14,0,0,1,2.15-.59Z" fill="#fff" stroke="#fff" stroke-miterlimit="10" stroke-width="4"/>
    <path d="M458.44,38.88V96.06h5.47a3.25,3.25,0,0,1,2.15.56,2,2,0,0,1,0,3,3.14,3.14,0,0,1-2.15.59h-9.62V92q-7.13,9.76-18.12,9.77A21.4,21.4,0,0,1,417.44,90.4a23.06,23.06,0,0,1,0-22.58,21.26,21.26,0,0,1,8.06-8.42,20.94,20.94,0,0,1,10.72-3q10.74,0,18.07,9.77V43h-5.47a3.14,3.14,0,0,1-2.15-.59,2,2,0,0,1-.63-1.51,1.91,1.91,0,0,1,.63-1.46,3.14,3.14,0,0,1,2.15-.59Zm-4.15,40.23A18.09,18.09,0,0,0,449,65.94a17.4,17.4,0,0,0-25.15,0,19.08,19.08,0,0,0,0,26.34,17.35,17.35,0,0,0,25.15,0A18.11,18.11,0,0,0,454.28,79.12Z" fill="#fff" stroke="#fff" stroke-miterlimit="10" stroke-width="4"/>
    <path d="M580.65,79V96.55a44.35,44.35,0,0,1-9.35,3.91,34.06,34.06,0,0,1-9.3,1.32,31.8,31.8,0,0,1-11.6-2,23.94,23.94,0,0,1-8.47-5.47,26.37,26.37,0,0,1-5.4-7.86,27.32,27.32,0,0,1-1.93-11V67.94A27.89,27.89,0,0,1,538,54.83a23.66,23.66,0,0,1,9.16-9.74,24.77,24.77,0,0,1,12.65-3.37q9.91,0,16.75,5.42a13.13,13.13,0,0,1,.17-2.88,1.75,1.75,0,0,1,.71-.86A2.11,2.11,0,0,1,578.6,43a1.91,1.91,0,0,1,1.46.63,3.05,3.05,0,0,1,.59,2.1V55a3,3,0,0,1-.59,2.12,1.94,1.94,0,0,1-1.46.61,1.89,1.89,0,0,1-1.39-.56,2.9,2.9,0,0,1-.61-2q-.29-4.15-5.4-6.79a23.84,23.84,0,0,0-11.11-2.64,21.19,21.19,0,0,0-10.23,2.46q-4.57,2.47-8.52,9.4A20.14,20.14,0,0,0,538.71,68v7.47q0,10.2,6.25,16.21t17.24,6a28.78,28.78,0,0,0,6.88-.78,42.79,42.79,0,0,0,7.42-2.73V79H562.39a3.14,3.14,0,0,1-2.1-.56,1.89,1.89,0,0,1-.63-1.49,2,2,0,0,1,.63-1.51,3.05,3.05,0,0,1,2.1-.59l19.73,0a3.16,3.16,0,0,1,2.1.56,1.89,1.89,0,0,1,.63,1.49,2,2,0,0,1-.39,1.17,1.87,1.87,0,0,1-.88.71A13.42,13.42,0,0,1,580.65,79Z" fill="#fff" stroke="#fff" stroke-miterlimit="10" stroke-width="4"/>
    <path d="M630.16,100.16V94.26q-8.94,7.52-19.09,7.52-7.37,0-11.52-3.74a11.84,11.84,0,0,1-4.15-9.15q0-6,5.47-10.4t16-4.44a56.37,56.37,0,0,1,6.15.37q3.32.37,7.18,1.15V68.91A7.33,7.33,0,0,0,627,63.05q-3.13-2.49-9.37-2.49-4.79,0-13.43,2.78a9.38,9.38,0,0,1-2,.49,1.79,1.79,0,0,1-1.34-.59,2,2,0,0,1-.56-1.46,1.78,1.78,0,0,1,.49-1.32q.68-.73,5.52-2a48.75,48.75,0,0,1,11.52-2.05q7.76,0,12.11,3.83t4.35,8.67V96.06h5.47a3.25,3.25,0,0,1,2.15.56,2,2,0,0,1,0,3,3.14,3.14,0,0,1-2.15.59Zm0-20.41a38.85,38.85,0,0,0-6.1-1.22,56.37,56.37,0,0,0-6.79-.39q-8.94,0-14,3.86-3.81,2.88-3.81,6.88a8,8,0,0,0,2.91,6.25q2.9,2.54,8.47,2.54a23.15,23.15,0,0,0,9.89-2.12,35.64,35.64,0,0,0,9.4-6.76Z" fill="#fff" stroke="#fff" stroke-miterlimit="10" stroke-width="4"/>
    <path d="M659.7,57.88V62q5.22-5.62,10.5-5.62a9.42,9.42,0,0,1,5.57,1.68,12.64,12.64,0,0,1,4,5.1,21.45,21.45,0,0,1,5.54-5.1A10.87,10.87,0,0,1,691,56.41,9.13,9.13,0,0,1,698,59.29a11.66,11.66,0,0,1,3.47,8.11V96.06H705a3.16,3.16,0,0,1,2.1.56,2,2,0,0,1,0,3,3.05,3.05,0,0,1-2.1.59H697.4V67.79a7.31,7.31,0,0,0-1.9-5.18,5.84,5.84,0,0,0-4.39-2.05,8.53,8.53,0,0,0-4.74,1.68q-2.49,1.68-5.66,6.62v27.2h3.42a3.16,3.16,0,0,1,2.1.56,2,2,0,0,1,0,3,3.05,3.05,0,0,1-2.1.59h-7.57V68.08a7.72,7.72,0,0,0-1.93-5.4,5.74,5.74,0,0,0-4.32-2.12A7.83,7.83,0,0,0,666,62a24.94,24.94,0,0,0-6.25,6.88v27.2h3.47a3.16,3.16,0,0,1,2.1.56,2,2,0,0,1,0,3,3.05,3.05,0,0,1-2.1.59h-11a3.05,3.05,0,0,1-2.1-.59,2,2,0,0,1,0-3,3.15,3.15,0,0,1,2.1-.56h3.47V62h-3.47a3.05,3.05,0,0,1-2.1-.59,2,2,0,0,1-.63-1.51,1.91,1.91,0,0,1,.63-1.46,3.05,3.05,0,0,1,2.1-.59Z" fill="#fff" stroke="#fff" stroke-miterlimit="10" stroke-width="4"/>
    <path d="M760.58,80h-41.8a19.86,19.86,0,0,0,6.67,12.82,20.35,20.35,0,0,0,13.84,4.86,33.38,33.38,0,0,0,9.62-1.51,24.75,24.75,0,0,0,8.2-4,2.78,2.78,0,0,1,1.61-.73,1.84,1.84,0,0,1,1.37.61,2,2,0,0,1,.59,1.44,2.29,2.29,0,0,1-.78,1.61q-2.34,2.44-8.33,4.56a36.44,36.44,0,0,1-12.28,2.12,24.15,24.15,0,0,1-17.6-6.91,22.54,22.54,0,0,1-7.06-16.72,20.57,20.57,0,0,1,6.62-15.33,22.65,22.65,0,0,1,16.38-6.4q10.06,0,16.55,6.57T760.58,80Zm-4.15-4.15a17.87,17.87,0,0,0-6.42-11,20.21,20.21,0,0,0-24.73,0,18,18,0,0,0-6.45,11.08Z" fill="#fff" stroke="#fff" stroke-miterlimit="10" stroke-width="4"/>
    <path d="M812,60.56a3,3,0,0,1,.59-2.05,1.91,1.91,0,0,1,1.46-.63,2,2,0,0,1,1.51.63,3.14,3.14,0,0,1,.59,2.15v7a3.06,3.06,0,0,1-.59,2.1,2,2,0,0,1-1.51.63,1.94,1.94,0,0,1-1.39-.54,2.66,2.66,0,0,1-.66-1.76,6.54,6.54,0,0,0-3-4.83q-4-2.73-10.6-2.73-6.88,0-10.69,2.78-2.88,2.1-2.88,4.69,0,2.93,3.42,4.88,2.34,1.37,8.89,2.1,8.54.93,11.87,2.1A15,15,0,0,1,816,81.85a10.55,10.55,0,0,1,2.32,6.54q0,5.22-5,9.3t-14.75,4.08q-9.72,0-15.92-4.93a7.25,7.25,0,0,1-.2,2.15,1.81,1.81,0,0,1-.71.83,2,2,0,0,1-1.15.34,1.91,1.91,0,0,1-1.46-.63,3.06,3.06,0,0,1-.59-2.1V89a3.15,3.15,0,0,1,.56-2.1,1.89,1.89,0,0,1,1.49-.63,2,2,0,0,1,1.49.61,2.22,2.22,0,0,1,.61,1.64,6.14,6.14,0,0,0,1.12,3.76,12.33,12.33,0,0,0,5.44,3.88,24.08,24.08,0,0,0,9.16,1.54q8,0,11.91-3t3.91-6.3q0-3.81-4-6.1T798.6,79.22a47.33,47.33,0,0,1-11-2.05,11.15,11.15,0,0,1-5.18-3.81,9.09,9.09,0,0,1-1.86-5.47q0-5.27,5.18-8.38a23.6,23.6,0,0,1,12.35-3.1Q806.63,56.41,812,60.56Z" fill="#fff" stroke="#fff" stroke-miterlimit="10" stroke-width="4"/>
  </g>
</svg>
