<svg id="Layer_1" data-name="Layer 1" xmlns="http://www.w3.org/2000/svg" width="1029.59" height="1029.61" viewBox="0 0 1029.59 1029.61">
  <title>closedone</title>
  <g>
    <path d="M21.13,123l23.81,23.81,64.34,64.33,95.63,95.63,116,116L448,549.81,576.92,678.75,696.49,798.33,798.07,899.9l72.61,72.62L905.16,1007l1.47,1.47a74.31,74.31,0,0,0,50.91,21.08,80.13,80.13,0,0,0,50.91-21.08c12.6-13.72,22-31.74,21.09-50.92s-7.31-37.13-21.09-50.91l-23.81-23.81L920.31,818.5l-95.63-95.63-116-116-127-127L452.67,350.85,333.09,231.28,231.52,129.71,158.9,57.09,124.42,22.61,123,21.14A74.3,74.3,0,0,0,72,.05,54.26,54.26,0,0,0,44.3,6.26,54,54,0,0,0,21.13,21.14C8.54,34.86-.82,52.88,0,72.05S7.35,109.19,21.13,123Z"/>
    <line x1="72.04" y1="72.05" x2="957.54" y2="957.55"/>
  </g>
  <g>
    <path d="M906.63,21.14,882.82,45l-64.33,64.34-95.63,95.63-116,116L479.78,448,350.84,576.93,231.27,696.5,129.7,798.08,57.08,870.69,22.6,905.18l-1.47,1.46A74.27,74.27,0,0,0,0,957.55a54.33,54.33,0,0,0,6.2,27.74,54.1,54.1,0,0,0,14.89,23.18c13.72,12.59,31.74,21.94,50.91,21.08s37.13-7.3,50.91-21.08l23.82-23.81,64.33-64.34,95.63-95.63,116-116,127-127L678.74,452.68,798.31,333.11,899.89,231.53l72.62-72.61L1007,124.43l1.46-1.46a74.28,74.28,0,0,0,21.09-50.92,54.17,54.17,0,0,0-6.2-27.74,53.88,53.88,0,0,0-14.89-23.17C994.73,8.55,976.72-.8,957.54.05s-37.13,7.31-50.91,21.09Z"/>
    <line x1="957.54" y1="72.05" x2="72.04" y2="957.55"/>
  </g>
</svg>
