<?xml version="1.0" encoding="iso-8859-1"?>
<!-- Generator: Adobe Illustrator 18.0.0, SVG Export Plug-In . SVG Version: 6.00 Build 0)  -->
<!DOCTYPE svg PUBLIC "-//W3C//DTD SVG 1.1//EN" "http://www.w3.org/Graphics/SVG/1.1/DTD/svg11.dtd">
<svg version="1.1" id="Capa_1" xmlns="http://www.w3.org/2000/svg" xmlns:xlink="http://www.w3.org/1999/xlink" x="0px" y="0px"
	 viewBox="0 0 297 297" style="enable-background:new 0 0 297 297;" xml:space="preserve">
<path d="M227.337,138.23l12.811-12.811c1.758-1.756,2.744-4.14,2.744-6.625c0-2.484-0.986-4.868-2.744-6.625l-14.023-14.024
	l12.197-12.198c3.66-3.658,3.66-9.591,0-13.25c-3.658-3.658-9.59-3.658-13.25,0l-12.199,12.199l-30.475-30.475l12.199-12.199
	c3.658-3.658,3.658-9.591,0-13.25c-3.66-3.658-9.59-3.658-13.25,0l-12.199,12.199l-10.066-10.065V9.369
	c0-5.174-4.193-9.369-9.369-9.369c-5.174,0-9.369,4.195-9.369,9.369v19.313l-11.277,11.278l-10.986-10.987
	c-3.66-3.658-9.59-3.658-13.25,0c-3.658,3.659-3.658,9.592,0,13.25l10.986,10.986L85.339,83.684L74.354,72.697
	c-3.66-3.658-9.592-3.658-13.25,0c-3.66,3.659-3.66,9.592,0,13.25l10.984,10.986L56.853,112.17
	c-1.758,1.757-2.744,4.141-2.744,6.625c0,2.485,0.986,4.867,2.744,6.625l14.024,14.024l-9.772,9.773c-3.66,3.658-3.66,9.591,0,13.25
	c1.828,1.829,4.227,2.744,6.625,2.744c2.397,0,4.795-0.915,6.625-2.744l9.772-9.772l30.476,30.474l-9.773,9.771
	c-3.658,3.66-3.658,9.592,0,13.251c1.83,1.829,4.227,2.743,6.625,2.743s4.795-0.914,6.625-2.743l9.773-9.772l12.49,12.492v37.518
	l-19.117,19.119c-3.66,3.658-3.66,9.592,0,13.25c3.658,3.658,9.59,3.658,13.25,0l5.867-5.868v14.702
	c0,5.174,4.195,9.369,9.369,9.369c5.176,0,9.369-4.195,9.369-9.369v-14.702l5.869,5.868c1.83,1.829,4.227,2.744,6.625,2.744
	c2.398,0,4.795-0.915,6.625-2.744c3.66-3.658,3.66-9.592,0-13.25l-19.119-19.119v-39.946l11.279-11.276l10.986,10.985
	c1.83,1.829,4.227,2.743,6.625,2.743c2.398,0,4.795-0.914,6.625-2.743c3.658-3.659,3.658-9.591,0-13.251l-10.986-10.985
	l30.475-30.474l10.986,10.986c1.83,1.829,4.227,2.744,6.625,2.744c2.398,0,4.795-0.915,6.625-2.744c3.66-3.659,3.66-9.592,0-13.25
	L227.337,138.23z M220.272,118.795l-6.186,6.187l-7.398-7.399l6.186-6.186L220.272,118.795z M199.624,98.146l-6.188,6.186
	l-30.473-30.476l6.184-6.185L199.624,98.146z M180.186,117.582l-30.475,30.475l-30.473-30.475l30.473-30.475L180.186,117.582z
	 M148.501,47.025l7.396,7.397l-6.186,6.184l-7.396-7.396L148.501,47.025z M129.065,66.46l7.396,7.397l-30.475,30.475l-7.396-7.398
	L129.065,66.46z M76.728,118.795l8.611-8.611l7.398,7.398l-8.611,8.611L76.728,118.795z M97.376,139.443l8.611-8.611l30.475,30.475
	l-8.611,8.611L97.376,139.443z M148.499,190.564l-7.398-7.396l8.611-8.611l7.398,7.398L148.499,190.564z M170.36,168.704
	l-7.396-7.398l30.473-30.475l7.399,7.398L170.36,168.704z"/>
<g>
</g>
<g>
</g>
<g>
</g>
<g>
</g>
<g>
</g>
<g>
</g>
<g>
</g>
<g>
</g>
<g>
</g>
<g>
</g>
<g>
</g>
<g>
</g>
<g>
</g>
<g>
</g>
<g>
</g>
</svg>
