<svg id="Layer_1" data-name="Layer 1" xmlns="http://www.w3.org/2000/svg" width="122.64" height="140.65" viewBox="0 0 122.64 140.65">
  <title>Julie</title>
<g transform="scale(-1, 1) translate(-122.64, 0)">
  <rect id="J_leg_shadow" x="73.08" y="108.15" width="14.75" height="31.95" rx="3.45" ry="3.45" fill="#9e0000"/>
  <rect x="47.32" y="108.15" width="14.75" height="31.95" rx="3.45" ry="3.45" fill="#9e0000"/>
  <rect id="J_leg_2" x="47.32" y="112.07" width="13.27" height="27.85" rx="3.45" ry="3.45" fill="#cf3638"/>
  <g id="J_horn_2">
    <rect x="17.36" y="24.45" width="25.46" height="14.45" rx="6.43" ry="6.43" transform="translate(60.18 63.35) rotate(-180)" fill="#dddaba"/>
    <g>
      <rect x="9.28" y="19.45" width="25.46" height="13.03" rx="6.43" ry="6.43" transform="translate(-3.95 47.98) rotate(-90)" fill="#dddaba"/>
      <path d="M15.67,18.22V5.36a20.6,20.6,0,0,1,12.62,12.5Z" fill="#dddaba"/>
    </g>
    <g>
      <rect x="13.38" y="19.45" width="15.61" height="7.99" rx="3.99" ry="3.99" transform="translate(-2.25 44.63) rotate(-90)" fill="#f9f9f9"/>
      <path d="M17.3,18.69V10.8A12.63,12.63,0,0,1,25,18.47Z" fill="#f9f9f9"/>
    </g>
  </g>
  <g id="J_arm">
    <rect x="28.82" y="76.24" width="15.54" height="35.5" rx="7" ry="7" transform="matrix(0.28, 0.96, -0.96, 0.28, 116.82, 32.86)" fill="#eabfa2"/>
    <rect x="30.15" y="75.97" width="12.96" height="33.33" rx="6.48" ry="6.48" transform="translate(115.55 31.84) rotate(73.96)" fill="#f4e4d9"/>
  </g>
  <g id="J_body">
    <rect x="42.65" y="65.25" width="52.8" height="57.5" rx="12" ry="12" fill="#9e0000"/>
    <rect x="42.11" y="68.51" width="48.69" height="53.02" rx="12" ry="12" fill="#cf3638"/>
  </g>
  <rect id="J_face_shadow" x="27.81" y="37.56" width="75.78" height="38.96" rx="19.48" ry="19.48" fill="#eabfa2"/>
  <rect id="J_face" x="27.92" y="37.56" width="65.95" height="38.96" rx="19.48" ry="19.48" fill="#f4e4d9"/>
  <ellipse id="J_eye_2" cx="40.82" cy="56.96" rx="3.87" ry="5.52"/>
  <ellipse id="J_eye_1" cx="75.74" cy="56.76" rx="3.87" ry="5.32"/>

  <ellipse id="J_hair_2" cx="93.87" cy="49.59" rx="9.16" ry="14.79" transform="translate(-12.22 53.58) rotate(-30)" fill="#77190a"/>
  <g id="helmet">
    <path d="M60.81,64.77V45.55h41.56V29.25C96.21,10.14,81.3-.18,66.38,1.68,47.87,4.24,35,12.18,30.82,28.42V45.55L50.53,46l-.43,18.8Z" fill="#055fa3"/>
    <path d="M58.13,63.54V45h38V29.35C90.48,11,76.86,1,63.22,2.81,46.3,5.27,34.53,12.92,30.71,28.55V45l18,.4-.39,18.1Z" fill="#1c7ce5"/>
    <path d="M55.44,7.43c-9.5,3.25-16.87,8.11-20.67,15.67-.84,4.2.58,6.2,5.67,4.67,5-10.16,12.56-14.86,21.24-17.25C61,7.28,58.79,6.41,55.44,7.43Z" fill="#60a9ea"/>
  </g>
  <g id="horn_1">
    <rect x="89.64" y="24.66" width="25.46" height="14.45" rx="6.43" ry="6.43" fill="#dddaba"/>
    <rect x="97.72" y="19.66" width="25.46" height="13.03" rx="6.43" ry="6.43" transform="translate(84.27 136.61) rotate(-90)" fill="#dddaba"/>
    <path d="M116.79,18.42V5.56a20.6,20.6,0,0,0-12.62,12.5Z" fill="#dddaba"/>
    <g id="horn_highlight_1">
      <rect x="103.47" y="19.65" width="15.61" height="7.99" rx="3.99" ry="3.99" transform="translate(87.63 134.91) rotate(-90)" fill="#f9f9f9"/>
      <path d="M115.16,18.89V11a12.63,12.63,0,0,0-7.74,7.66Z" fill="#f9f9f9"/>
    </g>
  </g>
  <rect id="sword_shadow" x="9.28" y="42.28" width="11" height="47.89" rx="3.94" ry="3.94" transform="translate(-25.78 11.82) rotate(-24.13)" fill="#91d1db"/>
  <rect id="Sword_blade" x="8.84" y="42.57" width="9.1" height="47.89" rx="3.94" ry="3.94" transform="translate(-26.02 11.28) rotate(-24.13)" fill="#b5e5ea"/>
  <rect id="sword_handle_2" x="10.54" y="81.05" width="26" height="9.5" rx="4.75" ry="4.75" transform="translate(-33.01 17.12) rotate(-24.13)" fill="#d3a629"/>
  <rect id="sword_handle_1" x="13.89" y="89.13" width="26" height="9.5" rx="4.75" ry="4.75" transform="translate(-47.8 156.8) rotate(-114.13)" fill="#d3a629"/>
  <g id="Shield">
    <g>
      <path d="M113.89,94.5a19.34,19.34,0,0,1-19.34,19.34h-.42A19.34,19.34,0,1,1,113.89,94.5Z" fill="#055fa3"/>
      <polygon points="113.89 94.87 75.21 94.87 75.21 72.48 94.55 72.48 113.89 72.48 113.89 94.87" fill="#055fa3"/>
    </g>
    <path d="M75.21,72.48H94.36a0,0,0,0,1,0,0v41.23a0,0,0,0,1,0,0h-1.7A17.45,17.45,0,0,1,75.21,96.27V72.48A0,0,0,0,1,75.21,72.48Z" fill="#1c7ce5"/>
  </g>
  <path id="J_hair_1" d="M103.43,49c4.23,10.53,10.27,16,18.09,16.36-6.9,5.63-14.63,8.8-24.42,6.13C102.38,67.78,103.55,59.17,103.43,49Z" fill="#77190a"/>
  <rect id="shield_highlight" x="106.24" y="78.42" width="4.98" height="18.36" rx="2.49" ry="2.49" fill="#1c7ce5"/>
  <rect id="J_leg_1" x="72.63" y="112.07" width="13.27" height="27.85" rx="3.45" ry="3.45" fill="#cf3638"/>
</g>
</svg>
