<svg id="Layer_1" data-name="Layer 1" xmlns="http://www.w3.org/2000/svg" width="175.33" height="130" viewBox="0 0 175.33 130">

  <defs>

    <filter id="logoGlitch">

      <!--  Text glitch by Dirk Weber:
      https://codepen.io/DirkWeber/pen/ArFvk -->

      <feFlood flood-color="red" result="flood1" />
      <feFlood flood-color="limegreen" result="flood2" />
      <feOffset in="SourceGraphic" dx="3" dy="0" result="off1a"/>
      <feOffset in="SourceGraphic" dx="2" dy="0" result="off1b"/>
      <feOffset in="SourceGraphic" dx="-3" dy="0" result="off2a"/>
      <feOffset in="SourceGraphic" dx="-2" dy="0" result="off2b"/>
      <feComposite in="flood1" in2="off1a" operator="in"  result="comp1" />
      <feComposite in="flood2" in2="off2a" operator="in" result="comp2" />

      <feMerge x="0" width="100%" result="merge1">
        <feMergeNode in = "black" />
        <feMergeNode in = "comp1" />
        <feMergeNode in = "off1b" />

        <animate
                attributeName="y"
                id = "y"
                dur ="4s"

                values = '104px; 104px; 30px; 105px; 30px; 2px; 2px; 50px; 40px; 105px; 105px; 20px; 6ßpx; 40px; 104px; 40px; 70px; 10px; 30px; 104px; 102px'

                keyTimes = '0; 0.362; 0.368; 0.421; 0.440; 0.477; 0.518; 0.564; 0.593; 0.613; 0.644; 0.693; 0.721; 0.736; 0.772; 0.818; 0.844; 0.894; 0.925; 0.939; 1'

                repeatCount = "indefinite" />

        <animate attributeName="height"
                 id = "h"
                 dur ="4s"

                 values = '10px; 0px; 10px; 30px; 50px; 0px; 10px; 0px; 0px; 0px; 10px; 50px; 40px; 0px; 0px; 0px; 40px; 30px; 10px; 0px; 50px'

                 keyTimes = '0; 0.362; 0.368; 0.421; 0.440; 0.477; 0.518; 0.564; 0.593; 0.613; 0.644; 0.693; 0.721; 0.736; 0.772; 0.818; 0.844; 0.894; 0.925; 0.939; 1'

                 repeatCount = "indefinite" />
      </feMerge>


      <feMerge x="0" width="100%" y="60px" height="65px" result="merge2">
        <feMergeNode in = "black" />
        <feMergeNode in = "comp2" />
        <feMergeNode in = "off2b" />

        <animate attributeName="y"
                 id = "y"
                 dur ="4s"
                 values = '103px; 104px; 69px; 53px; 42px; 104px; 78px; 89px; 96px; 100px; 67px; 50px; 96px; 66px; 88px; 42px; 13px; 100px; 100px; 104px;'

                 keyTimes = '0; 0.055; 0.100; 0.125; 0.159; 0.182; 0.202; 0.236; 0.268; 0.326; 0.357; 0.400; 0.408; 0.461; 0.493; 0.513; 0.548; 0.577; 0.613; 1'

                 repeatCount = "indefinite" />

        <animate attributeName="height"
                 id = "h"
                 dur = "4s"

                 values = '0px; 0px; 0px; 16px; 16px; 12px; 12px; 0px; 0px; 5px; 10px; 22px; 33px; 11px; 0px; 0px; 10px'

                 keyTimes = '0; 0.055; 0.100; 0.125; 0.159; 0.182; 0.202; 0.236; 0.268; 0.326; 0.357; 0.400; 0.408; 0.461; 0.493; 0.513;  1'

                 repeatCount = "indefinite" />
      </feMerge>

      <feMerge>
        <feMergeNode in="SourceGraphic" />

        <feMergeNode in="merge1" />
        <feMergeNode in="merge2" />

      </feMerge>
    </filter>

  </defs>

  <title>Pc</title>
  <rect x="20.34" y="6.41" width="133.67" height="67.94" rx="5.59" ry="5.59" fill="#565656"/>
  <rect id="logo_screen" x="28.18" y="12.38" width="117.17" height="54.3" rx="5.27" ry="5.27" fill="#f2f2f2"/>
  <path d="M151.21,75.85H24.47L2.68,121.93a4.15,4.15,0,0,0,4,4H168.31c2.85-.72,4.44-2,3.35-4.35Z" fill="#565656"/>
  <polygon points="30.36 79.42 146.54 79.42 157.43 106.55 20.01 106.55 30.36 79.42" fill="#aaa"/>
  <rect x="67" y="109.15" width="40.76" height="13.29" fill="#aaa"/>
  <g id="text" filter="url(#logoGlitch)">
  <g>
    <path d="M42.54,41.49v.73H40.81v-.73a.08.08,0,0,0-.09-.09H35a.08.08,0,0,0-.09.09v5.75a.08.08,0,0,0,.09.09h5.73a.08.08,0,0,0,.09-.09V45.47H38.7V43.76h3.85v3.48A1.73,1.73,0,0,1,42,48.52a1.76,1.76,0,0,1-1.29.53H35a1.8,1.8,0,0,1-1.81-1.81V41.49A1.8,1.8,0,0,1,35,39.69h5.73a1.76,1.76,0,0,1,1.29.53A1.73,1.73,0,0,1,42.54,41.49Z"/>
    <path d="M49.78,41.51a1.8,1.8,0,0,1,1.79,1.79V49H45.72a1.8,1.8,0,0,1-1.79-1.79V44.42h6V43.3a.08.08,0,0,0-.09-.09H43.92v-1.7Zm.09,5.84V46.13H45.62v1.12a.08.08,0,0,0,.09.09Z"/>
    <path d="M62.12,41.51a1.8,1.8,0,0,1,1.79,1.79V49H62.23V43.3q0-.09-.1-.09H59.29q-.08,0-.08.09V49H57.49V43.3c0-.06,0-.09-.08-.09H54.57a.08.08,0,0,0-.09.09V49h-1.7V41.51Z"/>
    <path d="M70.81,41.51A1.8,1.8,0,0,1,72.6,43.3v2.83h-6v1.12a.08.08,0,0,0,.09.09H72.6V49H66.74a1.8,1.8,0,0,1-1.79-1.79v-4a1.8,1.8,0,0,1,1.79-1.79Zm-4.16,2.91H70.9V43.3a.08.08,0,0,0-.09-.09H66.74a.08.08,0,0,0-.09.09Z"/>
    <path d="M83,41.49v1.83a1.54,1.54,0,0,1-.13.66,1.74,1.74,0,0,1,.51,1.24v2a1.73,1.73,0,0,1-.53,1.28,1.76,1.76,0,0,1-1.29.53H74V39.69h7.18A1.81,1.81,0,0,1,83,41.49Zm-1.81-.09H75.85a.08.08,0,0,0-.09.09v1.83a.08.08,0,0,0,.09.09h5.37c.05,0,.08,0,.08-.09V41.49C81.3,41.43,81.27,41.4,81.22,41.4Zm.46,5.84v-2c0-.05,0-.08-.09-.08H75.85c-.06,0-.09,0-.09.08v2a.08.08,0,0,0,.09.09h5.73A.08.08,0,0,0,81.67,47.24Z"/>
    <path d="M86.56,41.51h4.19v1.7H86.56a.08.08,0,0,0-.09.09V49h-1.7V43.3a1.8,1.8,0,0,1,1.79-1.79Z"/>
    <path d="M97.48,41.51a1.8,1.8,0,0,1,1.79,1.79v2.83h-6v1.12a.08.08,0,0,0,.09.09h5.86V49H93.41a1.8,1.8,0,0,1-1.79-1.79v-4a1.8,1.8,0,0,1,1.79-1.79Zm-4.16,2.91h4.25V43.3a.08.08,0,0,0-.09-.09H93.41a.08.08,0,0,0-.09.09Z"/>
    <path d="M106.49,41.51a1.8,1.8,0,0,1,1.79,1.79V49h-5.86a1.8,1.8,0,0,1-1.79-1.79V44.42h6V43.3a.08.08,0,0,0-.09-.09h-5.86v-1.7Zm.09,5.84V46.13h-4.25v1.12a.08.08,0,0,0,.09.09Z"/>
    <path d="M115,41.51h1.83v.44l-3,3.33,3,3.33V49H115l-2.69-2.91H111V49h-1.7V39H111v5.38h1.34Z"/>
    <path d="M123.21,41.51A1.8,1.8,0,0,1,125,43.3v2.83h-6v1.12a.08.08,0,0,0,.09.09H125V49h-5.86a1.8,1.8,0,0,1-1.79-1.79v-4a1.8,1.8,0,0,1,1.79-1.79ZM119,44.42h4.25V43.3a.08.08,0,0,0-.09-.09h-4.07a.08.08,0,0,0-.09.09Z"/>
    <path d="M127.82,41.51H132v1.7h-4.19a.08.08,0,0,0-.09.09V49H126V43.3a1.8,1.8,0,0,1,1.79-1.79Z"/>
    <path d="M140.5,43.3v.33h-1.7V43.3a.08.08,0,0,0-.09-.09h-4.07a.08.08,0,0,0-.09.09v1c0,.05,0,.08.09.08h4.07a1.72,1.72,0,0,1,1.27.53,1.74,1.74,0,0,1,.52,1.27v1a1.74,1.74,0,0,1-.52,1.27,1.72,1.72,0,0,1-1.27.53h-4.07a1.8,1.8,0,0,1-1.79-1.79v-.33h1.7v.33a.08.08,0,0,0,.09.09h4.07a.08.08,0,0,0,.09-.09v-1c0-.05,0-.08-.09-.08h-4.07a1.8,1.8,0,0,1-1.79-1.79v-1a1.8,1.8,0,0,1,1.79-1.79h4.07a1.79,1.79,0,0,1,1.79,1.79Z"/>
  </g>
  <g>
    <path d="M74.68,23.82H84v1.72H80.24v7.64H78.51V25.53H74.68Z"/>
    <path d="M90.86,25.64a1.74,1.74,0,0,1,1.26.53,1.72,1.72,0,0,1,.53,1.27v5.75h-1.7V27.43a.08.08,0,0,0-.09-.09H86.79a.08.08,0,0,0-.09.09v5.75H85v-10h1.7v2.47Z"/>
    <path d="M99.5,25.64a1.8,1.8,0,0,1,1.79,1.79v2.83h-6v1.12a.08.08,0,0,0,.09.09h5.86v1.7H95.43a1.8,1.8,0,0,1-1.79-1.79v-4a1.8,1.8,0,0,1,1.79-1.79Zm-4.16,2.91h4.25V27.43a.08.08,0,0,0-.09-.09H95.43a.08.08,0,0,0-.09.09Z"/>
  </g>
  </g>
</svg>
