<svg xmlns="http://www.w3.org/2000/svg" xmlns:xlink="http://www.w3.org/1999/xlink" width="669" height="300" viewBox="0 -20 669 300" aria-labelledby="aiber_name_description">
  <defs>
    <clipPath id="Aiber-clip-path">
      <path id="Aiber_a_clip" d="M15.35,260.52a21.37,21.37,0,0,1-5.54-3.93,6.68,6.68,0,0,1-1.61-4.65c0-2.39,1-5.78,3-10.2s5.54-11.38,10.55-20.92q2.14-4.63,8.22-16.45,20.75-39.69,20.74-43.27A5,5,0,0,1,50.4,159q0-3.57,5.72-6.43A85,85,0,0,0,69.71,135q3.57-7.86,9.65-18.77t15-25.93q4.31-7.51,12.88-21.82a486.2,486.2,0,0,1,34-51.5Q149.47,5.9,154.82,6.25q6.8,0,15.2,6.25t11.63,14.13q1.42,2.51,1.43,10.73,0,11.09-2.51,37.55-.72,4.65-1.43,14.66-1.06,16.1-3.22,34.34Q172,164,170.2,186.49t-1.79,42.2q0,10,.36,14.66v2.51l-.36,8.22q-2.15,2.14-6.43,2.15a21.32,21.32,0,0,1-9.66-2.33c-3.1-1.55-4.89-3.39-5.36-5.54a4.46,4.46,0,0,0-1.08-.72c-.48-.23-.71-1.3-.71-3.21l.35-7.87,1.08-20,1.79-57.93-4.65.35q-7.17,0-31.83,2.86t-30.76,4.65q-3.21,0-7.87,4.29a40.89,40.89,0,0,0-8.22,11.09,51.09,51.09,0,0,1-5,10.19q-3.93,6.63-3.93,7.69a14.3,14.3,0,0,0-3.76,3.76,31.86,31.86,0,0,0-2,3q0,3.93-7.34,20a194,194,0,0,1-14.48,26.83l-7.51,11.44ZM98.68,143.75a119.31,119.31,0,0,1,12.87-1.61q25.76-6.07,31.47-6.08a10.19,10.19,0,0,1,4.65,1.08,5.83,5.83,0,0,0,2.33,2,5.71,5.71,0,0,0,1.6.54q.72-2.14,4.48-38.8T160.19,52l1.07-17.88q-2.14,0-9.3,8.23a216.86,216.86,0,0,0-15.91,21.28,240.33,240.33,0,0,0-15.56,26.64q-3.58,6.43-7,12c-2.27,3.7-3.88,5.54-4.83,5.54q-2.5,2.5-11.8,19.31t-7.51,18.24C90.81,145.13,93.9,144.59,98.68,143.75Z" fill="none"/>
    </clipPath>
    <clipPath id="Aiber-clip-path-2">
      <path id="Aiber_i_clip" d="M204.89,223a18.87,18.87,0,0,1,1.79-8.58,15.94,15.94,0,0,1,.71-4.3,15.81,15.81,0,0,0,.72-3.21q-.36-2.16,2.86-11.81,6.43-14.3,17.17-50.42a3.89,3.89,0,0,1,1.43-3,7.94,7.94,0,0,1,4.29-1.61,19.55,19.55,0,0,1,3.93-.72,5.17,5.17,0,0,1,3.76,1.61,43.42,43.42,0,0,1,4.47,5.9q2.14,2.15,2.14,6.44,0,6.79-4.64,16.45a82.76,82.76,0,0,0-6.08,17.88,156,156,0,0,0-6.8,17.88q-.72,2.16-2.15,8.59a32.39,32.39,0,0,1-3.93,10.37q-2.15,10-3.93,13.95t-3.94,3.93c-1.67,0-3.93-1.66-6.79-5Q204.89,232.27,204.89,223ZM240.3,83.49q-1.8-6.08,0-6.08,2.85-.34,6.61-6.25c2.51-3.94,3.63-7.21,3.4-9.84a4.09,4.09,0,0,1,1.07-2.68A4.85,4.85,0,0,1,253.89,57a9.82,9.82,0,0,1,5-1.79q6.08,0,11.09,8.58a20.13,20.13,0,0,1,2.15,8.23,14.21,14.21,0,0,1-1.79,6.62,51.56,51.56,0,0,1-6.44,8.76q-6.09,8.23-11.44,8.22-3.59,0-7.87-3.57Q242.08,89.57,240.3,83.49Z" fill="none"/>
    </clipPath>
    <clipPath id="Aiber-clip-path-3">
      <path id="Aiber_b_clip" d="M303.77,240.85c-1.07-.72-2.32-2.62-3.75-5.72q-2.86-2.87-3.4-4.65a7.25,7.25,0,0,1-.18-3.58c2.86,0,4.53-.47,5-1.43,0-.71.41-1.19,1.25-1.43a5.29,5.29,0,0,1,2.68,0q9.66.72,27.9-10a215.19,215.19,0,0,0,36.48-27.54q10.37-13.23,14.48-20.74t4.11-12.16a13.41,13.41,0,0,0-1.07-5.37c-.72-1.66-3.22-2.5-7.51-2.5q-11.08,0-22.89,7.87a204.68,204.68,0,0,0-24.67,17.7A112.51,112.51,0,0,0,315,190.07a75.36,75.36,0,0,0-7.15,11.62q-3.58,7-4.65,9.12c0,.95-1.38,2.15-4.12,3.58a15.75,15.75,0,0,1-7,2.14,14.23,14.23,0,0,1-4.11-2.86,8,8,0,0,1-2.68-5,16.72,16.72,0,0,0-2.33-1.78,6.09,6.09,0,0,1-2.14-2.15,5.51,5.51,0,0,1-.54-2.5c0-1.43.65-4.59,2-9.48s2.32-8.52,3-10.91q2.85-13.59,7.33-28.25T299,137.5c.23-.48.77-1.79,1.61-3.94a18.64,18.64,0,0,0,1.25-6.79,49.82,49.82,0,0,1,2.32-7.33,25,25,0,0,0,1.61-4.83q1.78-1.42,11.45-28.26,0-1.42,7.86-18.95,11.81-26.82,14.31-34.33a79.86,79.86,0,0,0,5.72-9.66q3.93-7.14,5.72-7.87,2.86-.7,7.33,1.08a15.14,15.14,0,0,1,7,5.36c1.19,1.67,1.79,2.86,1.79,3.58,0,1.19-.66,3.4-2,6.61s-2.81,6.5-4.47,9.84-2.86,5.84-3.58,7.51l-8.94,18.6q-9.66,20.38-15.73,36.3t-12.88,36.29l-6.44,17.53-1.78,7.87,8.94-8.59q4.29-3.21,15.73-13.23,2.5-2.14,4.47-3.75c1.31-1.08,2.33-2,3-2.69a83.82,83.82,0,0,1,12.52-6.43,78.17,78.17,0,0,1,11.44-4.3A65,65,0,0,1,383,125.34a21,21,0,0,1,12.52,3.57q5,3.59,9.65,11.45a30.68,30.68,0,0,1,3.22,13.94,40,40,0,0,1-5.72,20.75,21.25,21.25,0,0,0-3.58,3.75,7,7,0,0,0-1.79,3.76q-.36,2.15-6.08,9.65t-12.51,15q-9.31,9.66-24.5,19.31T329,239.78c-1.43.24-4.12.66-8.05,1.25a75.79,75.79,0,0,0-8.4,1.61C307.76,242.16,304.85,241.57,303.77,240.85Z" fill="none"/>
    </clipPath>
    <clipPath id="Aiber-clip-path-4">
      <path id="Aiber_e_clip" d="M437.35,238.35q-10-11.44-10-28.61T435,172a150.69,150.69,0,0,1,19.85-37q12.15-16.44,24.68-22.17a32.83,32.83,0,0,1,16.09-3.94q6.8,0,15.38,3.94a25.33,25.33,0,0,1,9.3,6.08q3.21,3.59,5.72,11.09a65.3,65.3,0,0,1,1.07,8.94q0,2.15-1.79,9.29a74,74,0,0,1-11.26,22.36A60.75,60.75,0,0,1,496,186.13c-3.82,2.39-8.58,3.58-14.31,3.58A37.19,37.19,0,0,1,467.57,187a21.57,21.57,0,0,1-10.2-8.05l-2.5-2.86L453.8,179q-7.51,19.31-7.51,32.9,0,9.3,3.57,15,2.5,3.94,12.16,3.94,7.16,0,10.37-1.43a41.17,41.17,0,0,0,9.48-4.47q4.11-2.69,8.05-5.55l1.43-.71H491q4.29-2.15,7.15-3.94t3.94-2.5a3.19,3.19,0,0,0,1.43-.36,4,4,0,0,0,1.43-1.43c2.14-.95,4.65-.59,7.51,1.07s4.29,3.82,4.29,6.44q-.72,2.86-6.44,9.3t-8.58,6.79a11.24,11.24,0,0,0-2.5,1.08,11.61,11.61,0,0,0-2.86,1.79h.35c-2.14,2.86-4.29,4.29-6.43,4.29h-2.86q-1.44,2.86-9.48,5.72a45.64,45.64,0,0,1-15.2,2.86A32.24,32.24,0,0,1,437.35,238.35ZM498.5,159q8.58-11.43,8.58-22.89,0-6.08-2.5-8.58a9,9,0,0,0-3.93-1.07,29.55,29.55,0,0,0-6.08,1.07q-4.65,1.08-14.31,9.84T466,152.87l-4.65,7.51a19.59,19.59,0,0,1,5.54-1.25c1.79-.12,2.8.06,3,.54a13,13,0,0,0,2.5,8.22,7.8,7.8,0,0,0,6.44,3.22Q489.56,171.11,498.5,159Z" fill="none"/>
    </clipPath>
    <clipPath id="Aiber-clip-path-5">
      <path id="Aiber_r_clip" d="M559.65,236.2c-2.62-.95-4.29-1.79-5-2.5a11.29,11.29,0,0,1-3.58-8.23q0-7.86,7.87-18.95,2.14-4.29,10.73-29.69l7.15-19.66q.72-6.09-.71-8.77c-1-1.78-3-2.8-6.08-3h-2.15c-2.15,0-3.58-.41-4.29-1.25s-1.07-3-1.07-6.61a11.35,11.35,0,0,1,2.14-6.44,29.36,29.36,0,0,1,6.08-5,26.17,26.17,0,0,1,11.8-2.86c3.81,0,6.67.84,8.59,2.5,1.43,1,2.44,3,3,6.26a68.76,68.76,0,0,1,1.07,10,64.41,64.41,0,0,0,.54,7.33q1.79-1.78,8.76-7.33a142.26,142.26,0,0,0,12-10.55,107.07,107.07,0,0,1,14-8.23q7.86-3.93,11.08-3.93a17.64,17.64,0,0,1,7.87,2,11.41,11.41,0,0,1,5.36,4.83q3.22,5.73,3.22,10.37,0,5-3.93,10a21.38,21.38,0,0,1-8.23,6.08q-5,2.14-7.15,2.14t-5.36-3.22c-2.15-2.14-3.35-3.93-3.58-5.36q0-1.43-9.12,5.54a147.54,147.54,0,0,0-14.13,12,103.86,103.86,0,0,0-11.62,17.88q-5.89,11.1-17.34,33.62-1.08,2.51-5,12.16a39.65,39.65,0,0,1-3.22,8.05,4.15,4.15,0,0,1-3.58,2.32A19.29,19.29,0,0,1,559.65,236.2Z" fill="none"/>
    </clipPath>
  </defs>
  <desc id="aiber_name_description">Name: Aiber</desc>
  <g id="Aiber_name">
    <g id="Aiber_a_mask">
      <g clip-path="url(#Aiber-clip-path)">
        <path id="Aiber_a" d="M8.5,264.5C60,162,111,80.8,161.5,18.5c13.76,0,7.17,138.36-2,239l7-112c-24.61,1.36-61.95,6.75-102,13" fill="none" stroke="#000" stroke-miterlimit="10" stroke-width="36"/>
      </g>
    </g>
    <g id="Aiber_i_mask">
      <g clip-path="url(#Aiber-clip-path-2)">
        <path id="Aiber_i1" d="M248,133q-23.44,47.44-39,114" fill="none" stroke="#000" stroke-miterlimit="10" stroke-width="25"/>
        <path id="Aiber_i2" d="M264.5,46.5c-3.74,19-10.68,36.81-22,53" fill="none" stroke="#000" stroke-miterlimit="10" stroke-width="31"/>
      </g>
    </g>
    <g id="Aiber_b_mask">
      <g clip-path="url(#Aiber-clip-path-3)">
        <path id="Aiber_b" d="M365.5,11.5a1211.25,1211.25,0,0,0-85,203c38.35-53.11,76.68-83.56,115-79,3.34,51.55-35.05,85.5-103,107" fill="none" stroke="#000" stroke-miterlimit="10" stroke-width="36"/>
      </g>
    </g>
    <g id="Aiber_e_mask">
      <g clip-path="url(#Aiber-clip-path-4)">
        <path id="Aiber_e" d="M452,161l32,21c21.36-10.76,32.75-27.37,39-47-5.2-13-18.06-18.15-36-18-28.49,26.72-49.27,59.7-50,109,14.69,28.05,43.16,19.69,82-16" fill="none" stroke="#000" stroke-miterlimit="10" stroke-width="32"/>
      </g>
    </g>
    <g id="Aiber_r_mask">
      <g clip-path="url(#Aiber-clip-path-5)">
        <path id="Aiber_r" d="M559,141c12-3.37,22.53-4.72,26,3,10.59,15.58-14.46,59.48-34,99,57.85-112.92,93.41-129.9,101.5-90.5" fill="none" stroke="#000" stroke-miterlimit="10" stroke-width="60"/>
      </g>
    </g>
  </g>
</svg>
