<svg id="Assets" xmlns="http://www.w3.org/2000/svg" width="200" height="200" viewBox="0 0 1000 958">
  <title>Apple_name</title>
  <path id="Apple_1" d="M482,283c-77-32.3-162.18-10.32-241,36-76.39,32.54-135,135-135,248s71,215,103.5,244.5S358,933,457.5,943.5s162.57.7,242-25c65.57-24.82,127.89-60.3,184-116,47.72-40.56,76.07-103,89-183,13.65-47.73,12.5-105.5,0-160s-42.5-104.5-95-144-91.23-54.76-138-62c-66.87-3.18-129.32,2.06-183.87,33.47l19.22-170.31a.44.44,0,0,0-.88-.12l-12.47,73C467.06,102.42,455.71,87.39,353,96c-4.31.36,8.47-3.45,4-3" fill="none" stroke="#fff" stroke-miterlimit="10" stroke-width="35"/>
  <path id="Apple_2" d="M472.3,175.63c1.66,11-107.72,47.66-168.61-8.59S195.79,126.36,154.29,73C234.23,33.66,351.7,17.49,406,26s101.35,69,101.35,69" fill="none" stroke="#fff" stroke-miterlimit="10" stroke-width="20"/>
  <path id="Apple_3" d="M676,334c-93.75,45.56-190.58,48.71-290,19C473.18,360.12,570.47,352.66,676,334Z" fill="none" stroke="#f9f9f9" stroke-miterlimit="10" stroke-width="15"/>
</svg>