<svg id="Assets" xmlns="http://www.w3.org/2000/svg" width="200" height="200" viewBox="0 0 410 357">
  <title>blood</title>
  <g id="blood1">
    <path d="M143.54,54.52c-.33.87-.67,1.74-1,2.61a1.27,1.27,0,0,0,.9,1.82c1.4.44,2,1.76,3,2.57a9.19,9.19,0,0,0,3,1.31c.91.29,1.54-.28,2.06-1A21,21,0,0,1,153.65,59c.42-.41,1.68-.73,1.84-.52a3.15,3.15,0,0,1,.83,2.29,7.13,7.13,0,0,0-.36,3c.14,1.08-.67,1.73-1.69,1.94s-1.68.7-1.54,1.93a1.87,1.87,0,0,1-.53,1.17c-.72.86-.9,3.45-.14,4.27a2.18,2.18,0,0,0,1.28.53c.94.11,1.89.09,2.83.13.11,0,.22.1.44.2-1.13.32-2.17.59-3.19.92a1.17,1.17,0,0,0-.71.53c-.89,2.61.24,4.49,3.07,5.11.49.11,1,0,1.54,0a9.09,9.09,0,0,1,1.43.49c-.12.32-.15.79-.37.92a1.44,1.44,0,0,1-1.19.13,5.62,5.62,0,0,0-3.46-.45,2.08,2.08,0,0,0-1.52.81c-.69,1.52-1.1,3.16-1.74,4.71a3.52,3.52,0,0,0,.69,3.75,14.61,14.61,0,0,0,2.16,2.5,23.33,23.33,0,0,0,3.12,1.83c.32.18.77.32.91.6a3.73,3.73,0,0,1,.32,1.49c0,.23-.32.46-.37.72-.33,1.7-.66,2-2.27,1.22a22.27,22.27,0,0,1-3.23-2.27l.15-.44c.56,0,1.12,0,1.68,0a3.47,3.47,0,0,0,.75-.21c-.07-.22-.07-.54-.22-.64a9.23,9.23,0,0,0-2-1.09,1,1,0,0,0-1.45.9c-.2,1-.8,1.23-1.72.88a17.82,17.82,0,0,1-1.73-.57,1.76,1.76,0,0,0-2.55.88,8,8,0,0,1-4.31,3.91c-.89.34-2,.84-1.41,2.26a.13.13,0,0,1,0,.12c-2,1.53-2.23,4.62-4.75,5.56a26.19,26.19,0,0,1-5.12.94c-1.09.17-2.2.17-3.28.38-1.47.28-2-.16-1.69-1.62.22-1.05-.51-1.58-1.91-1.55a4.82,4.82,0,0,1-2.18-.35,2,2,0,0,0-2.26.24,6.52,6.52,0,0,1-2.07,1c-1.55.39-2.58-.41-2.92-2A10.7,10.7,0,0,0,112,103c-.16-.32-.75-.39-1.08-.65a2.1,2.1,0,0,1-.76-.93c-.27-1-2.08-3-3.09-3.15a1.77,1.77,0,0,0-1.07.1c-1.72.94-3.4,2-5.11,2.9a4.89,4.89,0,0,1-1.16.31l-.2-.3c.23-.34.48-.68.7-1,1.24-2,2.47-4,1.83-6.5a2.59,2.59,0,0,0-2-2.05,10.78,10.78,0,0,1-2.07-1.2,8.38,8.38,0,0,0-2.26-.94c-1.47-.26-3-.31-4.47-.49a5.07,5.07,0,0,1-1.11-.45c1.25-1.41.13-2.63,0-3.91s-.35-2.42-.51-3.63a1.11,1.11,0,0,1,.08-.48,31,31,0,0,1,1.59-4.44c1.05-2,2.42-3.82,3.57-5.77,1.3-2.2,2.58-4.42,3.71-6.71a1.82,1.82,0,0,0-.59-2.41A2.71,2.71,0,0,1,97,60c-.15-.45-.28-1.24-.06-1.42a2.66,2.66,0,0,1,1.59-.28c.77,0,1.54.19,2.32.24a9.2,9.2,0,0,1,1.47-.06c1.89.46,3.19-.51,4.5-1.64a2.44,2.44,0,0,1,1.48-.42c2.47,0,3.43-.35,3.95-2.39,1.75,0,1.75,0,3.15-1.65-.68-.72-2-1.36-.8-2.55a1.62,1.62,0,0,1,1.59,0c1.12,1,.26,1.79-.55,2.48,1.8,1.36,2.51,1.25,4.47-.3,1.72-1.36,3.56-2.43,5.95-1.52,1.25.48,2.23-.36,2.39-1.7.08-.67.43-1.31.47-2,.07-1.28,0-2.57,0-3.86,0-1-.61-2.15.59-2.92.14-.09.24-.27.38-.3a41,41,0,0,1,4.2-.87,2.48,2.48,0,0,1,2.7,2c.07.24.11.48.18.72.76,2.75.57,3.83-2.83,4.13-.21,0-.42-.27-.65-.31-.59-.1-1.48-.41-1.73-.14-.43.45-.47,1.28-.67,1.95l1.62.49-.32.89a3.61,3.61,0,0,0,2.91,5.09,25.11,25.11,0,0,1,2.75.47,4.31,4.31,0,0,1,1.76,1.06c.75.77,1.45,1,2.37.36.45-.32.92-.63,1.37-.94Z" fill="#de3221"/>
    <path d="M129.79,25a2.83,2.83,0,0,1-1.62,3,2.61,2.61,0,0,1-1.74.19c-.32-.08-.69-.72-.71-1.14-.13-1.85-.08-3.71-.22-5.56-.08-1.13.34-1.72,1.42-1.88a2,2,0,0,1,2.16,1.44C129.36,22.39,129.56,23.72,129.79,25Z" fill="#de3221"/>
    <path d="M98.32,105.87a2.06,2.06,0,0,1-.35.64,20,20,0,0,1-2.23,2.09c-1.07.79-2.27,1.41-3.35,2.19-.61.44-1.08,1.08-1.66,1.57s-1,.78-1.6.11-.48-1.29.33-1.95c1-.79,1.82-1.71,2.74-2.54,1.39-1.25,2.74-2.53,4.21-3.67C97.21,103.71,98.32,104.55,98.32,105.87Z" fill="#de3221"/>
    <path d="M78.49,82.61a15.92,15.92,0,0,1-6.72,2.15,12.11,12.11,0,0,1-3,0A1.63,1.63,0,0,1,67.67,84c-.28-.54.1-.9.68-1.19a12.05,12.05,0,0,1,7-1.59A13.77,13.77,0,0,1,78.49,82.61Z" fill="#de3221"/>
    <path d="M88.19,22c0,1.06-.51,1.51-1.31,1.06A9,9,0,0,1,84.11,21a35.86,35.86,0,0,1-2.84-4.55,1.24,1.24,0,0,1,0-1.12,1.07,1.07,0,0,1,1-.15,17.54,17.54,0,0,1,3.07,2.5,31,31,0,0,1,2.52,3.7A2.69,2.69,0,0,1,88.19,22Z" fill="#de3221"/>
    <path d="M92.45,61.11c-1.47-1.65-2.71-3-3.9-4.41-.22-.26-.19-.71-.36-1-.26-.5-.59-1-.88-1.44a3.47,3.47,0,0,1-.4-.82c0-.07.34-.37.42-.33a2,2,0,0,1,.71.54,9.07,9.07,0,0,0,1.39,1.78,2.62,2.62,0,0,0,1.86.4,3.93,3.93,0,0,1,3.71.92c.38.36.8,1.24.63,1.5a2.35,2.35,0,0,1-1.63.92C92.87,59.19,92.28,59.55,92.45,61.11Z" fill="#de3221"/>
    <path d="M111.53,52.78c-1.09-.26-1.93-.5-2.78-.65-.66-.11-1.39,1-1.31,1.71a4.57,4.57,0,0,1-.26,2c-1.2-1.19-1-2.41-.43-3.73.36-.8.47-1.71.78-2.54a5.67,5.67,0,0,1,.9-1.74c.88.25,2.09.55,2.42,1.22A13.4,13.4,0,0,1,111.53,52.78Z" fill="#de3221"/>
    <path d="M174.2,45.17c-1,2.42-4.77,4.88-8,4.89a1.89,1.89,0,0,1,1.36-2.5c1.56-.58,3.06-1.32,4.6-1.94A14.18,14.18,0,0,1,174.2,45.17Z" fill="#de3221"/>
    <path d="M142,108.66a5.77,5.77,0,0,0,.66,2c.83,1,.64,2.07.61,3.14,0,.32-.49.63-.75.95-.26-.24-.62-.44-.75-.73a3.34,3.34,0,0,1-.35-1.54c.17-1.87-.86-3.34-1.53-4.93a2.26,2.26,0,0,1-.12-1.25c.2-1,.88-1.23,1.48-.42a13.17,13.17,0,0,1,1.19,2.57Z" fill="#de3221"/>
    <path d="M150.81,39.63c.57-1.18,1-2.14,1.49-3.1a10.82,10.82,0,0,1,1-1.81,4.21,4.21,0,0,1,1.14-.76,4.57,4.57,0,0,1,.42,1.39,6.31,6.31,0,0,1-.4,2.79A16.42,16.42,0,0,1,152,40.9Z" fill="#de3221"/>
    <path d="M175.31,89.61c-.49.28-.84.65-1.16.63-2.07-.13-4.25.15-6-1.27a3.77,3.77,0,0,1-.64-1c.38-.18.79-.57,1.13-.51,1.91.34,3.81.76,5.7,1.22C174.62,88.81,174.88,89.22,175.31,89.61Z" fill="#de3221"/>
    <path d="M110.82,103.93c-.33.67-.54,1.2-.83,1.68-.47.76-1,1.49-1.48,2.24a5.92,5.92,0,0,1-.61,1.05,1.07,1.07,0,0,1-.86.19c-.13,0-.32-.5-.25-.69a28.35,28.35,0,0,1,1.56-4c.25-.47,1.1-.67,1.71-.89C110.22,103.42,110.52,103.74,110.82,103.93Z" fill="#de3221"/>
    <path d="M163.27,81.51a21.55,21.55,0,0,1,2.35.51,1.06,1.06,0,0,1,.58.78c0,.18-.42.51-.7.57a22.17,22.17,0,0,1-2.91.41,2.85,2.85,0,0,1-1.41-.3.83.83,0,0,1,.12-1.59A14.64,14.64,0,0,1,163.27,81.51Z" fill="#de3221"/>
    <path d="M80.8,91.63a9.51,9.51,0,0,1,1.73-.71,14.66,14.66,0,0,1,2.07-.11c1.67-.1,3.35-.25,5-.28.3,0,.6.49.9.75-.35.27-.7.75-1.06.76-1.38,0-2.76,0-4.14-.1a.57.57,0,0,1-.35-.12c-1.21-1.14-2.52-.64-3.83-.26a2.25,2.25,0,0,1-.37,0Z" fill="#de3221"/>
    <path d="M172.72,73.3c.62.27,1.76.52,1.77.81,0,1-1,.75-1.66.9a16.43,16.43,0,0,1-2.86.6c-.5,0-1-.46-1.54-.72.47-.37.88-.93,1.41-1.07a17,17,0,0,1,2.8-.3Z" fill="#de3221"/>
    <path d="M121.39,116a14.15,14.15,0,0,1-.16,2.09,1.1,1.1,0,0,1-.73.64.84.84,0,0,1-.67-.49,22.7,22.7,0,0,1-.28-3.74c0-.33.75-.64,1.15-1a5.59,5.59,0,0,1,.6,1.16A6.15,6.15,0,0,1,121.39,116Z" fill="#de3221"/>
    <path d="M97.18,132.66c-.1-.6-.36-1.11-.21-1.4.63-1.22,1.37-2.39,2.12-3.56.11-.18.47-.21.71-.3a2.15,2.15,0,0,1,.28.76C100,130.06,98.94,131.39,97.18,132.66Z" fill="#de3221"/>
    <path d="M127.36,38.13c1,.41.93.88.45,1.49-.69.89-1.28,1.87-2,2.72a10.3,10.3,0,0,1-1.7,1.29l-.41-.43Z" fill="#de3221"/>
    <path d="M160,73.89c1-.58,1.85-1.11,2.74-1.58a1.06,1.06,0,0,1,1.59.6c.1.31-.38.93-.74,1.25C162.48,75.2,161.34,74.8,160,73.89Z" fill="#de3221"/>
    <path d="M110.18,27.61l1.41,6.48c-1.44-1.1-2.38-5.14-1.79-6.41Z" fill="#de3221"/>
    <path d="M89.17,62.86a1.46,1.46,0,0,1-2.1.44,22.49,22.49,0,0,0-2.17-.71.64.64,0,0,1,.38-1.22C86.56,61.81,87.81,62.33,89.17,62.86Z" fill="#de3221"/>
    <path d="M113.79,115.05c-.13-.5-.47-1.08-.33-1.5a3.23,3.23,0,0,1,1.16-1.58c.47-.32,1.12.42.86,1a21.26,21.26,0,0,1-1.15,2Z" fill="#de3221"/>
    <path d="M166.33,98.48a6.09,6.09,0,0,1-3.66-.77A2.81,2.81,0,0,1,166.33,98.48Z" fill="#de3221"/>
    <path d="M158.67,88.42a2,2,0,0,1-2.73-.23C156.74,87.23,157.16,87.26,158.67,88.42Z" fill="#de3221"/>
    <path d="M139.28,45.75l1.51-2.45.37.22L139.7,46Z" fill="#de3221"/>
    <path d="M144.34,52.74l.95-1.16.66.6-1.09,1Z" fill="#de3221"/>
    <path d="M73.82,95.76l2.85-1.27.19.55-3,.72Z" fill="#de3221"/>
    <path d="M101.94,112.45l-1.42,2.2-.3-.18,1.34-2.23Z" fill="#de3221"/>
    <path d="M104.67,51.16l-.31-2.56.44-.08.52,2.57Z" fill="#de3221"/>
    <path d="M179.43,74.17a3,3,0,0,1-1,.45c-.21,0-.44-.37-.9-.79h1.75Z" fill="#de3221"/>
    <path d="M157.89,51.77l-1.48,1.89-.31-.29,1.77-1.58Z" fill="#de3221"/>
    <path d="M86.43,119.24l-1.75,1.18v0l1.75-1.19Z" fill="#de3221"/>
    <path d="M86.43,119.25l.18-.12-.08-.07-.1.19Z" fill="#de3221"/>
    <path d="M80.79,91.61l-.39.18,0-.15h.44Z" fill="#de3221"/>
    <polygon points="141.27 42.72 141.26 42.79 141.37 42.76 141.27 42.72" fill="#de3221"/>
    <path d="M143.56,54.54l0-.12,0,.1Z" fill="#de3221"/>
    <polygon points="73.83 95.76 73.8 95.79 73.82 95.76 73.83 95.76" fill="#de3221"/>
    <polygon points="157.87 51.79 157.88 51.74 157.89 51.77 157.87 51.79" fill="#de3221"/>
    <path d="M84.67,120.42l0,.08,0-.06Z" fill="#de3221"/>
  </g>
  <g id="blood2">
    <path d="M321,136.7c-.08.62-.19,1.23-.25,1.85-.34,3.45.43,4.59,4.09,6a4.8,4.8,0,0,1-.48,2.51c1.07,1,2.55,1.42,3.43,2.82,1.37-1.1,2.36-3.5,4.44-1.49a1.53,1.53,0,0,1,0,2.5c-1.49,1.23-2.27,1.16-4.07-.61-2.32,2.53-1.91,5.71,1,7.8a8.47,8.47,0,0,1,2.79,8.22c-.92,3.08.45,4.59,3.56,5.15a33.6,33.6,0,0,0,12.38-.16,2,2,0,0,1,2.16,1.62c0,2.66,1.61,4.9,1.65,7.49s-.81,3.59-3.45,4.35A13.36,13.36,0,0,0,345,185.8c-1.58.92-4-.87-4.11-2.88-.07-1,.06-2.1-.85-2.95,1.17-.88,1.92-2,1-3.43a2.84,2.84,0,0,0-3.31-1.14c-1.69.4-.31,1.75-.6,2.59-.6.49-1.17.23-1.77,0-4.44-1.37-7.94.86-8.33,5.46-.15,1.77-1,3.45-.63,5.29.14.68-.34,1.1-.88,1.51-2.44,1.83-2.55,2.36-1.17,4.91-.69,1.12-1.65.61-2.53.38-1.65-.44-2.83-.35-3.18,1.79s-2.36,3.26-4,4.45c-2.32,1.71-2.77,6.63-.54,8.46,1.68,1.37,2.91,3.26,5.17,4,1.6.52,1.42,2.27.91,3.37a2.64,2.64,0,0,1-3.56,1.26,7.35,7.35,0,0,0-4.76-.72,2.85,2.85,0,0,1-3.4-2c-.64-1.82-1.51-3.45-4-3a1.16,1.16,0,0,1-1-.26c-1.84-2.41-4.33-1-6.53-1.1-1.21,0-2,.74-2,2.15a30.94,30.94,0,0,1-.33,6.31c-.89-1.65-1.1-3.61-1.66-5.46-.3-1-.78-1.66-1.65-1.31a8.37,8.37,0,0,1-3.43.19c-2.06,0-3.94,2-4.48,5-.15.84-.7,1.74.12,2.74s-.5,1.92-.84,2.87a.67.67,0,0,1-1.06.23c-.85-.63-.73-1.42-.59-2.39.33-2.29.47-4.62.6-6.93,0-.86-.31-1.79-1.3-1.8a10.88,10.88,0,0,1-5.07-1.7c-4.81-2.61-8.24-.65-12,2.4-2.56,2.07-3,4.92-4.43,7.41s-1.41,2.63-4.13,1.51a2,2,0,0,0-.4-.1c-.91-.16-2.21.43-2.59-.74a4.18,4.18,0,0,1,.4-3.38c1.08-1.77,1.94-3.74,3.74-5.1a2.67,2.67,0,0,1,.5,2.46,1.45,1.45,0,0,0,.67,1.8c.85.34,1.09-.46,1.51-1a5.86,5.86,0,0,0,1.05-2.65c.2-1.26-.16-2.21-1.55-2.47-1.73-.33-2.06-1.31-1.52-2.89.41-1.19.6-2.45.9-3.67.4-1.6-.53-2.66-1.61-3.5a12.57,12.57,0,0,0-3.22-1.83,4,4,0,0,1-2.26-2.48c-.69-1.69-2.05-2.92-2.91-4.49a1.23,1.23,0,0,0-1.39-.73c-1.44.53-2.27-.42-3.28-1.09a22.66,22.66,0,0,0-4.63-2.73c-1.6-.59-2.28-2.39-3-3.81-1.7-3.18-2.08-6.72-2.16-10.28,0-1.41-.71-2.66-.95-4a1.9,1.9,0,0,1,2.24-2.37c2.53.44,3.9-.82,3.1-3.28a3.85,3.85,0,0,1,.41-3.63,2.32,2.32,0,0,0-.29-3.21c-1.56-1.42-1.64-3.45-2.36-5.2-.49-1.2,1.41-3.1,3.18-3.53,2.5-.61,5.18-1,5.78-4.27,0-.24.33-.61.51-.61,2.25-.05,3.19-1.8,4.46-3.22,1.88-2.1,1.89-3.5,0-6-1.72-2.23-2.56-5-4.49-7.17a1.17,1.17,0,0,1,.12-1.41c1-.44,1.41.47,2,.93,3.11,2.24,6.42,3.67,10.39,2.71,2.62-.64,3.15-1.23,3.57-4a3.3,3.3,0,0,1,1.09-2c3-2.31,2.71-5.64,3-8.84.14-1.71-.66-3.59.71-5.23,2.57,1.21,4.74-.25,7-.91,1.87-.56,3.84-.07,5.67-1,1-.51,1.31,1.19,2.35,1.32,1.3.16,2.56.67,3.86.78,3.76.32,6.44,2.83,9.48,4.58,3.44,2,6.67,4.36,10.25,6a11.69,11.69,0,0,0,4.86,1.28,3.2,3.2,0,0,0,2.7-1.17,6.43,6.43,0,0,1,4.72-2.09,2.75,2.75,0,0,1,.06,3.47,2.48,2.48,0,0,0-.2,2.57,9.85,9.85,0,0,1,.57,4.86c-.25,3.31,2.26,5,4.27,6.89Z" fill="#de3221"/>
    <path d="M374.25,171.7c-2.45.65-3.89-1.06-5.18-2.95a2.37,2.37,0,0,1,1.76-3.77c2.16-.23,4.31-1,6.5-.06,1.06.47,1.89-.55,2.91-.67,2.25-.28,2.72,1.25,3.12,2.79a2.41,2.41,0,0,1-1.71,3.09C379.25,170.58,377,172,374.25,171.7Z" fill="#de3221"/>
    <path d="M224.8,110.44c2.24-1.86,2.79-1.83,4,.41.42.77,1.19.89,1.72,1.4a104.46,104.46,0,0,1,8.25,8.23c.94,1.13,1.7,2.42.31,3.6s-2.33.08-3.66-.74a15.78,15.78,0,0,1-5.67-6.54C228.48,114.32,225.43,113.42,224.8,110.44Z" fill="#de3221"/>
    <path d="M274.83,89.15c-1.12-.15-1.48-.94-1.77-1.68a32.33,32.33,0,0,1-2.64-13.21c0-.85,0-1.89,1.06-2.25a1.88,1.88,0,0,1,2.45,1.35c1,3.24,2.93,6.16,2.94,9.77C276.88,85.46,275.76,87.19,274.83,89.15Z" fill="#de3221"/>
    <path d="M376.93,102.14c-1.92-.08-2.7-.62-2.14-2.1a10.9,10.9,0,0,1,3.76-5.26c2.24-1.59,4.55-3.09,6.82-4.64a1.79,1.79,0,0,1,2.14-.18c.74.51.61,1.29.32,2a3.22,3.22,0,0,1-.39.93,46.35,46.35,0,0,1-8.42,8.15A5.44,5.44,0,0,1,376.93,102.14Z" fill="#de3221"/>
    <path d="M312,111.49c1.83-1.43,3-3.51,5.22-4.37a1.32,1.32,0,0,0,.92-1.27,1.33,1.33,0,0,1,1.27-1.39c1.48-.26,3-.4,3.71-2.11a.82.82,0,0,1,1.42-.07.92.92,0,0,1-.44,1.52c-1.07.48-2.19.8-2.86,1.91-.77,1.28-1.33,2.46-.64,4,.78,1.78-.65,5.81-2.24,6.91-1.36.94-3.32-.18-3.56-2C314.43,112,314.43,112,312,111.49Z" fill="#de3221"/>
    <path d="M321,136.72a4.09,4.09,0,0,1,5.17-2.11c2.43,1,4.72,2.27,7.52,1.77a1.23,1.23,0,0,1,1.3,1.34c-.11,1.45.13,3.06-1.53,4a10.7,10.7,0,0,1-6.85,1.17c1.24-1.27.66-2.79,1.2-4.11.32-.78-1.85-2.92-2.66-2.51-1.41.71-2.8.24-4.17.44Z" fill="#de3221"/>
    <path d="M343.16,247.45c-2.38-.79-8.46-8.37-7.93-12.78,2.92-.65,3.52-.34,4.29,2.41a26.51,26.51,0,0,0,3.68,7.27C344,245.54,344.06,246.43,343.16,247.45Z" fill="#de3221"/>
    <path d="M235.56,198.27a4.38,4.38,0,0,0-3.9,1.38c-1.56,1.67-3.62.87-5.47.92-.76,0-1-.87-1.09-1.55s.56-.86,1.12-1a4.82,4.82,0,0,1,1.19-.31c3.71.15,6.76-1.68,9.84-3.32,1.4-.74,2.82-.5,3.41.61s-.62,2-1.72,2.61A5,5,0,0,1,235.56,198.27Z" fill="#de3221"/>
    <path d="M361.12,213.65c-.27,1.08-1,1.52-2,1.05a6.2,6.2,0,0,0-4.59-.62c-.74.23-1.32-.36-1.79-.87s-.68-.93-1.26-1c-1.28-.22-2.17-1.09-2-2.2.22-1.41,1.87-1.45,2.87-1.42a5.59,5.59,0,0,1,4.17,1.5,8.16,8.16,0,0,0,3,1.8A2.18,2.18,0,0,1,361.12,213.65Z" fill="#de3221"/>
    <path d="M269.69,252.18c-1.4-.84-1.28-2.21-1.3-3.38-.06-2.93-.1-5.9,1.89-8.37.46-.57.88-1.43,1.8-1a1.63,1.63,0,0,1,.77,2c-.53,2.34-.47,4.77-1.2,7.09C271.22,249.81,271.6,251.5,269.69,252.18Z" fill="#de3221"/>
    <path d="M242.15,144.21c-.27.63-.5,1.4-1.4,1.17s-1.88-.34-2.35-1.19c-.71-1.3-2-1.56-3.17-2.06l-1.91-.79c-.83-.35-1.55-.83-1.12-1.86.5-1.21,1.42-.56,2.08-.23,1.89,1,4.13.84,5.92,2.14A7.23,7.23,0,0,1,242.15,144.21Z" fill="#de3221"/>
    <path d="M282.3,232.45c.28,1.22-.45,2.27-.63,3.42-.11.69-.73,1-1.41.94s-.82-.53-.93-1.13c-.33-1.81-.52-3.65-1-5.44a2.23,2.23,0,0,1,1.47-2.86c1.4-.4,1.66.8,1.87,1.85S282.56,231.28,282.3,232.45Z" fill="#de3221"/>
    <path d="M296.41,247.49c-.44.69.62,2.41-1.06,2.49-1.52.08-1.22-1.48-1.46-2.5-.37-1.58-.82-3.15-1.27-4.71-.33-1.13-.07-2.2,1-2.58s1.66.62,1.79,1.51C295.66,243.59,296.73,245.32,296.41,247.49Z" fill="#de3221"/>
    <path d="M217.71,163.94c-1.24-1.46-.11-2.26.84-2.59,1.92-.66,4-1.23,6-.4.82.33,1.68.68,1.48,1.89s-1.22.89-1.95,1C222,164.29,219.9,163.49,217.71,163.94Z" fill="#de3221"/>
    <path d="M261.05,99c1,2.69,0,5.76,1.46,8.46.24.45-.09,1.2-.18,1.81-.13.8-.37,1.51-1.42,1.39-.88-.1-1.14-.78-1.18-1.47-.14-2.38.16-4.77-.25-7.15C259.26,100.71,260.93,100.17,261.05,99Z" fill="#de3221"/>
    <path d="M192.2,125.43c1.68-1.69,2.8-1.73,5.3,0,1,.65,1.92,1.29,2.92,1.88.5.3,1.18.66.92,1.44s-1,.62-1.62.58a8.4,8.4,0,0,1-4.66-1.95A14.24,14.24,0,0,0,192.2,125.43Z" fill="#de3221"/>
    <path d="M352.25,169.09c-.33.65-.91,1.49-1.75.68-1.71-1.63-4.07-2.13-5.8-3.66a4.63,4.63,0,0,1-1.3-3.16C346.74,164.71,349.9,166.18,352.25,169.09Z" fill="#de3221"/>
    <path d="M295,226c1,1.56,1.94,3,2.71,4.49a2.12,2.12,0,0,1-1.11,2.79c-.87.5-1.49-.37-2.07-1.15C293,230.07,293.31,228.17,295,226Z" fill="#de3221"/>
    <path d="M368.87,138.92c-3.67.86-7.06,2.72-11.19,3C359.68,139.59,366.81,137.63,368.87,138.92Z" fill="#de3221"/>
    <path d="M308.52,106.53c-1.9-2.38-1.18-5.87,1.22-8.18.62.11,1.18.66,1,1.09A54.59,54.59,0,0,0,308.52,106.53Z" fill="#de3221"/>
    <path d="M223.47,150.61a4.91,4.91,0,0,1,4.24,1.19c1.13.86.7,1.93-.3,2.22-1.43.43-2.44-.89-3.61-1.53C222.79,151.94,223.3,151.27,223.47,150.61Z" fill="#de3221"/>
    <path d="M255.87,232.07a10.13,10.13,0,0,1-1.09,6C253.68,234.35,254,232.69,255.87,232.07Z" fill="#de3221"/>
    <path d="M271.12,219.65c1.47,1.92.68,3.28-.64,4.88C269.38,222.62,269.45,221.15,271.12,219.65Z" fill="#de3221"/>
    <path d="M339.64,189.49c2.36,0,3.54,1.59,5.69,2.06C342.69,192.26,341.56,190.57,339.64,189.49Z" fill="#de3221"/>
    <path d="M328.75,198.6c1.46-.26,2.28.23,2.63,1.32a.93.93,0,0,1-.91.94C329.28,200.74,329,199.82,328.75,198.6Z" fill="#de3221"/>
    <path d="M252.59,83.38c.89,1.41,2,2.72,1.48,4.61C254.09,86.24,251.88,85.39,252.59,83.38Z" fill="#de3221"/>
    <path d="M329,132.32c1.41-1.77,3.06-.87,4.64-1.12C332.36,132.49,331.6,132.67,329,132.32Z" fill="#de3221"/>
    <path d="M222.22,128.72c1.89.35,3.17.87,4.11,2.1C225,130.35,223.55,130.22,222.22,128.72Z" fill="#de3221"/>
    <path d="M296.26,255.54a4,4,0,0,1,0,2.45c-1.06.34-1.12-.49-1.27-1.11C294.8,256,295.22,255.63,296.26,255.54Z" fill="#de3221"/>
    <path d="M213.85,105.82a5.53,5.53,0,0,1-2-3l0,0a7.7,7.7,0,0,1,2,2.95Z" fill="#de3221"/>
    <path d="M213.83,105.82l.2.3.13-.14-.31-.17Z" fill="#de3221"/>
    <polygon points="345.8 192.13 345.85 192.31 345.93 192.14 345.8 192.13" fill="#de3221"/>
    <path d="M211.85,102.86l-.13,0,.1.05Z" fill="#de3221"/>
  </g>
  <g id="blood3">
    <path d="M84.61,274.18c-.11-.18-.26-.31-.24-.41.26-1.23,1.1-2.65.42-3.66a7.68,7.68,0,0,0-3.29-2.26c-1.69-.75-4.94,1.17-6,3.57a2.68,2.68,0,0,1-2.48,2c-.78-1.63.17-2.76,1.18-3.54a12.62,12.62,0,0,0,1.56-1.71c2.15-2.31.86-4-.77-5.76-.32-.33-.64-.67-.94-1-4.36-4.89-6.32-5.46-12.34-3.28-1.61.58-2.69,2.13-4.36,2.8-1.25.5-2.13.74-2.74-.71a1.51,1.51,0,0,0-.35-.58c-.63-.51-1.89-.91-1.49-1.76a4.26,4.26,0,0,1,2.5-2.67l4.32-1.43c.31,1.67-2.15,2.36-1.11,4,.62-.24,1.25-.46,1.87-.72,2-.84,2.39-2.18,1.23-3.95s.52-2.67,1.49-3.34c1.91-1.34,2.55-2.79,1.29-4.81a11.63,11.63,0,0,1-1.5-7.53c.12-1.3.64-2.88-1.64-3.29-.77-.14-.58-1.74-.94-2.65-.7-1.76-2.38-3-2.49-5.07a17.07,17.07,0,0,1,1.86-8.23,49.19,49.19,0,0,0,2.51-5.53c.46-1.38,1.56-1.74,2.58-.68,1.49,1.55,2.37.66,3.29-.53.14-.17.17-.44.33-.58,2.47-2.21,3.31-5,3.49-8.26.11-2.11,1.94-2.74,4.1-2.15s4.18,1.83,6-.5c.22-.28.68-.12,1.06.06,2.19,1,3.92-.48,5.75-1.22.78-.31,1-1.26.94-2.16-.14-2.64.51-5.28,0-7.93a3.35,3.35,0,0,1,.3-1.27c1.12.11,1.12.94,1.5,1.57,1.78,2.93,3.17,6.39,7.34,6.68,1.2.08,2.44.1,3.17-1.29a2.31,2.31,0,0,1,1.51-1c4-.62,5.39-4,7.37-6.72.26-.36.43-.79.69-1.15a5.59,5.59,0,0,1,.8-.71c1,1.78,2.65,2.25,4.41,2.47,1.93.25,4.23,1,5.05,2.26,1.83,2.75,4.87,4.25,6.36,7.37C130.76,202,133,207.4,136.59,212c.88,1.12,2,2,3.54,1.37a5,5,0,0,1,2.48-.05c.64.06,1.41.1,1.62,1a1.73,1.73,0,0,1-.66,2c-2.67,1.66-2.68,5-4.61,7.11,1.33,3.54-.35,6.61-1.46,9.81-.39,1.11.75,1.89,1.35,2.94-1.33,1.4-1.36,3.07-.34,4.87,1.3-.2,2.84-1.79,3.77.55a1.4,1.4,0,0,1-.81,2c-2,.66-2.5-.79-2.85-2.42a3.25,3.25,0,0,0-2.65,3.48c0,2,.46,3.91.11,5.91s-.82,3.55-2.45,4.67a1.92,1.92,0,0,0-.3,3.16c2.14,2,4,4.3,7,5.33,4.22,1.47,4.23,1.72,2.51,6a1.4,1.4,0,0,0-.14.62c.21,2-.46,3.74-2.34,4.17a7.51,7.51,0,0,1-6.89-1.4c-1.27-1.12-.71-4.28.95-5.39.82-.55,1.79-.82,1.66-2.11s-1.21-1.78-2.19-2.1c-1.07.14-.46,1.36-1.37,1.59-.09,0-.37-.08-.47-.23-2.61-4-6.48-3.91-9.32,0-1.12,1.55-2.24,3.49-4.69,3.58-.5,0-1,.63-1.49,1-.85.6-1.73,1.87-3,.41-.66-.74-1.73-.26-2.31.24a8.82,8.82,0,0,1-4.64,1.74,6.26,6.26,0,0,0-4.05,2.55c-1.94,2.65.25,4.92,1.13,7.26.31.82,1.12,1.39.54,2.47a2.57,2.57,0,0,1-4.46.15,5.41,5.41,0,0,0-2.59-2c-1.68-.63-2.13-2.28-1.62-4,.38-1.28.28-2.22-1.1-2.75-.49-.19-1-.42-1.06-1.08-.32-2.45-2.55-2.82-4.23-3.69-1.12-.59-2,.06-2.63,1.1C86,272.67,85.87,273.93,84.61,274.18Z" fill="#de3221"/>
    <path d="M170.35,276.29c0,2.31-1.26,3.36-3.33,3a15,15,0,0,1-6.56-2.9,4.08,4.08,0,0,1-1.16-4.17c.21-1.18,1.32-1.79,2.81-1.3,2.84.94,4.92,3.19,7.66,4.28A1,1,0,0,1,170.35,276.29Z" fill="#de3221"/>
    <path d="M89.3,181.28c-.12.67,0,1.63-1.37,1.75s-2.25-.23-2.59-1.57a35.28,35.28,0,0,1-1.08-8.67c0-1.52-.87-2.75-.81-4.19,0-.73.06-1.59,1.1-1.74s1.83.21,1.93,1.18c.46,4.22,2.09,8.16,2.82,12.31A6.72,6.72,0,0,1,89.3,181.28Z" fill="#de3221"/>
    <path d="M128.1,174.19A21,21,0,0,1,132.17,162c.4-.57.78-1.5,2-1s.69,1.36.62,2c-.46,4.23-.91,8.51-5.13,11a3.66,3.66,0,0,1-.82.34A2.8,2.8,0,0,1,128.1,174.19Z" fill="#de3221"/>
    <path d="M207.72,226c-1.1,2.07-3.16,2.1-4.91,2.6a20.51,20.51,0,0,1-7.16.82c-1.05-.08-2-.41-2.18-1.3-.25-1.13.89-1.57,1.73-2,2.87-1.58,6-1.4,9.09-1.25C206.83,224.91,206.83,224.88,207.72,226Z" fill="#de3221"/>
    <path d="M144.79,207c2.4-1.09,4.85-1.1,7.19-1.56,1.64-.32,3.41,1.07,5.14,0,.05,0,.36.24.49.41a.52.52,0,0,1-.19.79,2.61,2.61,0,0,1-1.73.29c-2.19-.35-3.58.68-4.3,2.69s-2.07,3.66-4.57,3.73c-1.61,0-2.55-1.26-1.63-2.59S146.55,208,144.79,207Z" fill="#de3221"/>
    <path d="M141.07,235.64c1.2-1.17,2.83-2,2.57-4a1.52,1.52,0,0,0-1.42-1.53c-1-.05-1.54-.84-1.7-2,1.71,0,3.15.2,4.18,1.83a8.53,8.53,0,0,0,3.39,3.55c.94.44,1.67,1.37,1,2.4s-1.52,2.15-3,1.88A10.82,10.82,0,0,1,141.07,235.64Z" fill="#de3221"/>
    <path d="M105.89,303.85c1.66.74,2.79,1.68,2.14,3.74a15.85,15.85,0,0,0-.87,7.09c.18,1.25-.73,1.28-1.14,1.9C104,313.94,103.9,309.25,105.89,303.85Z" fill="#de3221"/>
    <path d="M54.26,234.73a3.6,3.6,0,0,1-2-.73,5.59,5.59,0,0,0-3.87-1.07c-1.67.21-2.63-1-3.86-1.63-.63-.33-.41-1-.33-1.41.13-.71.86-.67,1.33-.54a11.71,11.71,0,0,1,2.77,1,8.25,8.25,0,0,0,5,1.15,6.51,6.51,0,0,1,1.83.16c1.07.2,2,.9,1.85,1.94S55.81,234.87,54.26,234.73Z" fill="#de3221"/>
    <path d="M127,293.74c0-1,.7-1.41,1.54-.93,1.2.68,2.49,1.28,3.11,2.74s1.42,2.62,2.09,3.95c.22.43.5.93-.05,1.42a1,1,0,0,1-1.2.12C130,300.08,127.09,296.29,127,293.74Z" fill="#de3221"/>
    <path d="M51.1,286.81c2-3.57,3.27-7.31,7.66-8.26C59.85,281,54.64,287,51.1,286.81Z" fill="#de3221"/>
    <path d="M81.28,196.72c-.14.92,0,1.81-.89,2.1-1.21.42-1.91-.86-2-1.42-.26-1.9-1.44-3.16-2.51-4.53-.45-.58-.79-1.26,0-1.78s1.2-.08,1.6.66c.76,1.4,2.43,2,3.13,3.54C80.86,195.83,81.48,196.2,81.28,196.72Z" fill="#de3221"/>
    <path d="M70.74,274.27c.44,2.86-1.19,4.75-2.91,6.58a1.14,1.14,0,0,1-1.66,0c-.51-.45-.35-.83,0-1.37.77-1.3,1-2.86,1.84-4.13A2.27,2.27,0,0,1,70.74,274.27Z" fill="#de3221"/>
    <path d="M75,290.73A28.94,28.94,0,0,1,72,297c-.22.37-.66.28-1,.16s-.73-.5-.57-.85c1-2.11,1.08-4.57,2.49-6.49.27-.37.69-.86,1.34-.58S75,289.88,75,290.73Z" fill="#de3221"/>
    <path d="M61.54,203.58c-.31.56-.4,1.5-1.35,1.15a15.33,15.33,0,0,1-5.13-3.13c-.85-.79,0-1.42.69-1.66,1-.33,5.13,2,5.54,3C61.38,203.15,61.45,203.36,61.54,203.58Z" fill="#de3221"/>
    <path d="M59.1,169.12c-2.43.26-4.28-2.27-4.52-6.15C56.7,162.71,58.4,165,59.1,169.12Z" fill="#de3221"/>
    <path d="M113.79,175.79a25.06,25.06,0,0,1-3.16,7.31,1.06,1.06,0,0,1-1.38.4,1,1,0,0,1-.49-1.38C110.28,179.91,111.15,177.19,113.79,175.79Z" fill="#de3221"/>
    <path d="M147.13,265.69c-2-.37-4.22-6-3.37-8.22A15,15,0,0,1,147.13,265.69Z" fill="#de3221"/>
    <path d="M81.11,279.93c1.19,3.85.5,5.66-2.14,5.66C78.13,282,78.28,281.63,81.11,279.93Z" fill="#de3221"/>
    <path d="M172.63,251.78A56.21,56.21,0,0,1,163.7,249C165.47,247.92,171.32,249.62,172.63,251.78Z" fill="#de3221"/>
    <path d="M144.54,202c-.31-2.59,1.83-5,4.67-5.41C148.51,199.27,146.13,200,144.54,202Z" fill="#de3221"/>
    <path d="M64.89,194.65c1.24,1,2.92,1.75,2.14,3.72a.92.92,0,0,1-1.66,0C64.89,197.24,62.79,196.21,64.89,194.65Z" fill="#de3221"/>
    <path d="M47.94,270.61a4,4,0,0,1,3-4.24C51,268.51,49.15,269.21,47.94,270.61Z" fill="#de3221"/>
    <path d="M64.92,267.73c-.28-1.9.87-2.43,2.16-3.18C67.5,266.53,66.87,267.48,64.92,267.73Z" fill="#de3221"/>
    <path d="M129.52,274.39a3.52,3.52,0,0,1,1.93,3.32C130.11,276.86,129.89,275.74,129.52,274.39Z" fill="#de3221"/>
    <path d="M147.44,229.22c1.37-.63,2.27.07,3.31,1C149.19,230.86,148.41,229.75,147.44,229.22Z" fill="#de3221"/>
    <path d="M117.24,275.68c1.49.17,1.78.88,1.59,2C117,278.19,117,277.14,117.24,275.68Z" fill="#de3221"/>
  </g>
</svg>