<?xml version="1.0" encoding="utf-8"?>
<!-- Generator: Adobe Illustrator 23.1.0, SVG Export Plug-In . SVG Version: 6.00 Build 0)  -->
<svg version="1.1" xmlns="http://www.w3.org/2000/svg" xmlns:xlink="http://www.w3.org/1999/xlink" x="0px" y="0px"
	 viewBox="100 0 1000 1000" style="enable-background:new 0 0 1000 1000;" xml:space="preserve">
<style type="text/css">
	.st0{fill:#FCFBD9;stroke:#000000;stroke-width:7;stroke-miterlimit:3.3333;}
	.st1{stroke:#000000;stroke-width:15;stroke-miterlimit:3.3333;}
	.st2{stroke:#000000;stroke-width:0.3333;stroke-miterlimit:3.3333;}
	.st3{fill:#FFFFE1;stroke:#000000;stroke-width:0.3333;stroke-miterlimit:3.3333;}
	.st4{fill:#FCFBD9;stroke:#000000;stroke-width:0.3333;stroke-miterlimit:3.3333;}
</style>
<g id="Layer_1">
	<title>Book</title>
	<path class="st0" d="M462.2,1852.9H150.7c-15.7,0-28.4-12.7-28.4-28.4v-668.7c0-17.9,14.5-32.4,32.4-32.4h307.5V1852.9z"/>
	<path class="st0" d="M1066.9,1852.9H457.6v-729.5h612.2c16.7,0,30.3,13.6,30.3,30.3v666C1100.1,1838,1085.2,1852.9,1066.9,1852.9z"
		/>
	<path class="st1" d="M459.4,1119.4l0,104.6l-0.1,146.2l0,123.4l0,93.3l0,121.8l0,87.3l-1.5,56c7.1,23.8,12.9,22.2,2.8,59
		c-2.7,9.8,0.7,31.6,4.2,48.9c2.7,13.5,5.5,24.1,5.5,24.1c27.9,21,49.9,20.6,66.9,1.2c-31.1-0.4-62.4-11.5-73.5-26.2"/>
</g>
<g id="Book">
	<path id="Black_x5F_left" class="st2" d="M457.8,68.6c-91.8,5.1-189.8-6.6-282.4-16.6c-20.7-4.9-35.3,6.6-43.5,35.3l-23.1,700.5
		c-30.4,68.7,230.9,102.1,339.1,52.4L457.8,68.6z"/>
	<path id="Black_x5F_right" class="st2" d="M1064.7,73.1c18,9.1,29.8,24.1,29.1,51.1l-1.2,682.9c-2.9,13.6-13.1,21.3-32.4,21.7
		l-887.4-1.6c-16.8-7.6-22.6-19.2-24.1-32.5l24.8-705.5c7.1-23.5,22.4-28.7,40.8-27.3C338.3,58.5,904.7,60.6,1064.7,73.1z"/>
	<path id="Right_x5F_side" class="st3" d="M456.4,68.6c174.3,15.9,460.8,16.5,589.7,8.3c18.3,9.1,30.3,24,29.7,50.8l2.1,676.5
		c-2.8,13.5-13.1,21.1-32.7,21.3l-898.4-5.8c-17-7.6-23-19.2-24.5-32.3l21.7-698.8c7.1-23.3,22.6-28.3,41.1-26.8
		C342.6,83.2,331.3,75.1,456.4,68.6z"/>
	<path id="Left_x5F_side" class="st4" d="M457.8,68.6c-91.7,4.6-183.4,3.2-275.9-7c-20.7-4.9-35.2,6.3-43.3,34.4l-20.1,685.8
		c-30.1,67.1,231.2,100.9,339,52.8L457.8,68.6z"/>
	<path id="Middle_x5F_line" class="st1" d="M457.8,68.6l0,104.6l-0.1,146.2l0,123.4l0,93.3l0,121.8l0,87.3l-1.5,56
		c7.1,23.8,12.9,22.2,2.8,59c-2.7,9.8,0.7,31.6,4.2,48.9c2.7,13.5,5.5,24.1,5.5,24.1c27.9,21,49.9,20.6,66.9,1.2
		c-31.1-0.4-62.4-11.5-73.5-26.2"/>
</g>
</svg>
