<svg id="Assets" xmlns="http://www.w3.org/2000/svg" width="316.83" height="386.33" viewBox="0 0 316.83 386.33">
  <title>Note</title>
  <rect x="76.94" y="46.61" width="170.89" height="299.05" rx="12" ry="12" transform="matrix(0.87, 0.5, -0.5, 0.87, 119.82, -54.92)" fill="#ffffdc" stroke="#000" stroke-width="4"/>
  <rect x="74.5" y="35.53" width="162.57" height="299.05" rx="12" ry="12" transform="translate(113.4 -53.1) rotate(30)"/>
  <g>
    <path d="M109,145.16l-.22-.13a5.82,5.82,0,0,1-1.22-1,1.81,1.81,0,0,1-.39-.56,3.19,3.19,0,0,1-.14-.63l-.09-.59a2.57,2.57,0,0,1,.21-1.53c.16-.28.35-.31.57-.08a2.34,2.34,0,0,1,.29.92,2.48,2.48,0,0,0,.45.91,3,3,0,0,0,.87.71q.2.11.79.38a11.58,11.58,0,0,0,1.82.49,5.26,5.26,0,0,0,1.69.12q1.88-.15,3.06-.22l1.49-.08c.09-.07.35-.07.78,0l1.18-.29a12.38,12.38,0,0,1,1.51-.4,2.66,2.66,0,0,1,.33-.35,1.3,1.3,0,0,0,.26-.28,10.13,10.13,0,0,0,2-1.17,14.8,14.8,0,0,0,2.31-1.87,14.48,14.48,0,0,0,1.6-2.18,7.17,7.17,0,0,0,1.06-3.23,8.29,8.29,0,0,0-.51-3.16,9.9,9.9,0,0,0-1.34-2.18q-1-1.36-1.3-1.41a6.38,6.38,0,0,0-1.69,1.18q-1.53,1.23-4.32,3.59l-2.34,2q-.37.39-.74.7t-.63.57a9,9,0,0,0-1,1,4.62,4.62,0,0,0-1.21,1q-.63.67-1.92,2.39l-.71.71-.65.67c-.18.17-.29.23-.33.18l-.18,0c-.07.11-.18.12-.35,0a1.44,1.44,0,0,1-.43-.42,1.72,1.72,0,0,1-.28-.55,2.75,2.75,0,0,1,.21-.63,5.12,5.12,0,0,1,.87-1q.78-.82,2.29-2.25t2.51-2.31a21.73,21.73,0,0,0,1.6-1.47q.91-.86,1.92-1.74a11.08,11.08,0,0,1,1.34-1.06q.17-.16,1-.9t2-1.61l.73-.81-.23-.32a1.67,1.67,0,0,1-.5-.18.81.81,0,0,1-.26-.26q-.33-.08-.63-.69a1.29,1.29,0,0,1-.2-.92.62.62,0,0,1,.08-.29l.12-.23q.22-.25,1.42.13a12.32,12.32,0,0,1,2.47,1.11q.53.31.8.5a4.76,4.76,0,0,1,.87.73q.38.41.89,1.08l.53.64a8.05,8.05,0,0,1,1.24,2.29,11.52,11.52,0,0,1,.68,3,7.81,7.81,0,0,1-.26,2.94q-.13.41-.42,1.11a10.34,10.34,0,0,1-.58,1.2q-.34.59-.53.67a.52.52,0,0,0-.25.23c-.06.11-.07.2,0,.26l-.55.5-.86.78a12.16,12.16,0,0,1-4,3.25.59.59,0,0,0-.25-.09c-.07,0-.08,0,0,.09a1.43,1.43,0,0,1-.62.36,2.81,2.81,0,0,0-.59.2,3.16,3.16,0,0,1-.63.22.6.6,0,0,1-.36.23.46.46,0,0,1-.33,0,.13.13,0,0,0-.15.06,11,11,0,0,1-2.88.74,12.62,12.62,0,0,1-3.25.15,4.62,4.62,0,0,1-.87,0L113,146a5.42,5.42,0,0,1-1.45-.11,11.08,11.08,0,0,1-1.74-.39Z" fill="#fff"/>
    <path d="M127.78,151.83a3.23,3.23,0,0,1-1.14-1.11,3.51,3.51,0,0,1-.52-1.53,3.36,3.36,0,0,1,.05-1.32,5.59,5.59,0,0,1,.63-1.47c.11-.19.34-.55.71-1.09a6.38,6.38,0,0,1,1.94-1.77,9.63,9.63,0,0,1,2.66-1.14,6.17,6.17,0,0,1,2.48-.2,1.82,1.82,0,0,1,1,.19,3.34,3.34,0,0,1,.38.25l.39.3a3.84,3.84,0,0,1,.8.78,1.67,1.67,0,0,1,.28.78,2.58,2.58,0,0,1-.24,2,3.89,3.89,0,0,1-1.76,1,6.8,6.8,0,0,1-2.64.35,4.22,4.22,0,0,1-1.25-.5,2.83,2.83,0,0,1-1.19-1.18,1.53,1.53,0,0,0-.34-.31.48.48,0,0,0-.57.12,7.25,7.25,0,0,0-1,1.1,4.85,4.85,0,0,0-.35.55q-.83,1.43,0,2.12a5.76,5.76,0,0,0,.85.68,1.9,1.9,0,0,0,.89.21h.71a1.36,1.36,0,0,0,.44,0l.4-.11.27-.09a.74.74,0,0,1,.31,0,.53.53,0,0,1,.21.06.47.47,0,0,1,.18.27,2.54,2.54,0,0,0,.12.31q.25.15-.09.42a3.06,3.06,0,0,1-1.07.47,6.62,6.62,0,0,1-1.53.22A2.84,2.84,0,0,1,127.78,151.83Zm6.83-5.76a1.6,1.6,0,0,0,1-.56.83.83,0,0,0,.07-.71,1.18,1.18,0,0,0-.57-.63,2,2,0,0,0-.54-.24,2.9,2.9,0,0,0-1.28.07,9.4,9.4,0,0,0-1.5.46c-.46.18-.67.32-.65.41s.31.52.95.89a3.36,3.36,0,0,0,1.16.45A3.42,3.42,0,0,0,134.6,146.07Z" fill="#fff"/>
    <path d="M135.76,155.91a3.55,3.55,0,0,1-.63-.46c-.18-.17-.25-.29-.2-.36a.19.19,0,0,0,0-.13s0-.06-.1-.09l-.09-.24a1.72,1.72,0,0,0-.22-.39,1.77,1.77,0,0,1,.23-1,8,8,0,0,1,1.11-1.34,7,7,0,0,1,2.14-1.76,18.81,18.81,0,0,1,3.26-1.53,9,9,0,0,1,2.81-.62,1.67,1.67,0,0,1,1.31.2,2.22,2.22,0,0,1,.81.8,3.68,3.68,0,0,1,.39,1.24,5.76,5.76,0,0,1,.06,1.49,3.68,3.68,0,0,1-.36.88,13.87,13.87,0,0,1-.87,1.26,10.74,10.74,0,0,0-1,1.1,11.08,11.08,0,0,0-.83,1.21,1.28,1.28,0,0,0-.31.66.4.4,0,0,0,.17.42.81.81,0,0,0,.36.09,1.57,1.57,0,0,1,.7.22.87.87,0,0,1,.41.46.73.73,0,0,1-.1.62,1.57,1.57,0,0,1-1.27.61A2.58,2.58,0,0,1,142,159q-.42-.24-.39-1.11a12.38,12.38,0,0,1,.29-2.1l.2-.74-1.87.45-1,.27a7.87,7.87,0,0,0-.81.24,3.49,3.49,0,0,1-2.13.12A3,3,0,0,1,135.76,155.91Zm4-1.79a18,18,0,0,0,2.72-.94,6.53,6.53,0,0,0,2.41-1.64,2.75,2.75,0,0,0,0-.89.94.94,0,0,0-.24-.62,2,2,0,0,0-1.55,0,21.32,21.32,0,0,0-2.5,1l-1.72.84a9.12,9.12,0,0,0-1.28.85,5.87,5.87,0,0,0-1.09.92q-.36.62,0,.83a1.48,1.48,0,0,0,.78.15A10.27,10.27,0,0,0,139.79,154.12Z" fill="#fff"/>
    <path d="M146.47,162a3.17,3.17,0,0,1,0-1.32.25.25,0,0,0,0-.16c0-.07,0-.12,0-.15s.1-.43.42-1,.55-.9.88-1.36a9.56,9.56,0,0,1,.86-1.07l1.37-1.2,1-.9,1.7-1.19-.95-1a.55.55,0,0,1-.21-.38.61.61,0,0,1,.05-.38,1.15,1.15,0,0,1,.55-.41q.43-.18.57-.1a2.3,2.3,0,0,0,.43.29,8.08,8.08,0,0,0,1.31.65.79.79,0,0,0,.65-.22l.59-.41.65-.45.57-.37q.38-.25.93-.53l.49-.26a2.38,2.38,0,0,1,.79-.27.75.75,0,0,1,.59.08,1.51,1.51,0,0,1,.52.79c0,.08,0,.18,0,.31a.53.53,0,0,1,0,.31,1.53,1.53,0,0,1-.5.35l-.67.42-.54.31q-.66.37-1,.57a1.26,1.26,0,0,0-.61.4q-.11.2.25.41a9.9,9.9,0,0,0,1.42.59,5.24,5.24,0,0,1,.57.25q1,.57.6,1.43a2.84,2.84,0,0,1-.2.41c-.15.26-.33.37-.54.32a5.9,5.9,0,0,1-1.24-.6,13.82,13.82,0,0,1-1.93-.93l-.39-.21a2.82,2.82,0,0,0-.48-.18.72.72,0,0,0-.42,0,1.72,1.72,0,0,0-.42.24,5.19,5.19,0,0,0-.77.42q-.86.59-1.07.69a31.76,31.76,0,0,0-3.78,4c-.21.28-.34.45-.38.53a.73.73,0,0,0-.06.75,2.28,2.28,0,0,0,.86.72,7.16,7.16,0,0,0,1.77.76,13.25,13.25,0,0,0,1.62.11h1c.12-.08.22-.1.29-.06s.19.31.13.68a1.77,1.77,0,0,1-.65.67,3.15,3.15,0,0,1-1.44.22,7,7,0,0,1-3.86-.84,4.66,4.66,0,0,1-.79-.57A2,2,0,0,1,146.47,162Z" fill="#fff"/>
    <path d="M162.32,171.4a1.54,1.54,0,0,1-.78-1.28,3.26,3.26,0,0,1,.52-1.91,12,12,0,0,1,1.11-1.47,14.17,14.17,0,0,1,1.51-1.58l.21-.18a.63.63,0,0,0,.18-.21c0-.05,0-.09,0-.11a1.26,1.26,0,0,0-.72.07,19.67,19.67,0,0,0-2.67.73,17.84,17.84,0,0,0-2.62,1.11,3.71,3.71,0,0,0-1.34,1,.63.63,0,0,1-.51.34,1.07,1.07,0,0,1-.65-.15.93.93,0,0,1-.32-.3,1.67,1.67,0,0,1-.25-.89,2.38,2.38,0,0,1,.36-1q.28-.48.47-.74a28.87,28.87,0,0,1,2.38-3.18q1.15-1.3,3.56-3.54l1.36-1.12q2.3-2,2.54-2.13a5.1,5.1,0,0,0,1.28-.89,6.74,6.74,0,0,0,1.1-1,1.1,1.1,0,0,1,.69-.54l.44-.12a1.34,1.34,0,0,1,.47.55,1,1,0,0,1,.14.74,1.89,1.89,0,0,1-.26.9,3.05,3.05,0,0,1-.8.83q-.57.44-1.77,1.21a33,33,0,0,0-3.67,2.86q-.83.72-2.47,2.3a17.29,17.29,0,0,0-1.82,1.89.2.2,0,0,0,.08.31.77.77,0,0,0,.67-.06,7.8,7.8,0,0,1,1.7-.48l1.94-.44a3.87,3.87,0,0,1,2.27-.1,1.23,1.23,0,0,1,.51.63,1.44,1.44,0,0,1,.09.84,1,1,0,0,1,0,.32.74.74,0,0,0,0,.23c0,.06,0,.18-.14.37a11.37,11.37,0,0,1-2.26,2.48,17.11,17.11,0,0,0-1.76,1.94c-.1.17-.1.28,0,.33h1.24a3.62,3.62,0,0,1,2.06.33q.34.19.21.42a.55.55,0,0,1-.2.15.56.56,0,0,0-.21.18l-.08.14a3.31,3.31,0,0,1-1.24.41,3.88,3.88,0,0,1-1.55.15A2.18,2.18,0,0,1,162.32,171.4Z" fill="#fff"/>
    <path d="M173.65,180.62a.56.56,0,0,1-.28,0s-.06-.09-.08-.22a4.86,4.86,0,0,1,0-.49,1.11,1.11,0,0,1-.14-.53,1.38,1.38,0,0,1,.09-.42,2.32,2.32,0,0,1,.13-.28,22.61,22.61,0,0,1,2.55-2.59q2.19-2,3.69-3.21l1.42-1.16q.47-.36,2-1.36l2-1.33q0-.19,1.78-1.35t3.12-1.93a10.9,10.9,0,0,1,1.11-.52.66.66,0,0,1,.55,0,1,1,0,0,1,.19.19l.24.1a3.05,3.05,0,0,1,.76.63q.34.38.24.62a.66.66,0,0,1-.12.27,6.06,6.06,0,0,1-.7.95,29.22,29.22,0,0,0-2.77,3.95q-.92,1.6-2.54,5l-1.23,3.49,1-.64q.75-.46,2.2-1.54l.73-.55q.5-.42,1.09-.85l.77-.55a6.08,6.08,0,0,0,1.71-1.18l1.26-1.11.83-.81a2.84,2.84,0,0,1,1.12-.8,5.71,5.71,0,0,1,.88-1.07q.78-.83,1.18-1.19l.24-.09a2,2,0,0,0,.47-.29l.92.23a2,2,0,0,1,.19.67.94.94,0,0,1-.13.52,3.26,3.26,0,0,1-1,.94,2.45,2.45,0,0,1-.47.52l-.31.24c.07,0,.08.11,0,.21a4.29,4.29,0,0,1-.42.47l-2.21,2.21a29.77,29.77,0,0,1-3.12,2.45,34.47,34.47,0,0,1-3.17,2.16l-.41.29a2.35,2.35,0,0,1-.48.28,8.78,8.78,0,0,1-2,1.19,5.14,5.14,0,0,1-1.83.63,1.08,1.08,0,0,1-.85-.08,1.51,1.51,0,0,1-.69-1.07,3.27,3.27,0,0,1,.18-1.73l.76-1.84q.12-.34.82-2a16.69,16.69,0,0,1,1.07-2.27,3.28,3.28,0,0,1,.32-.68,4.43,4.43,0,0,1,.35-.55l.17-.26a1.49,1.49,0,0,0,.17-.33,8.84,8.84,0,0,1,.74-1.15,6.54,6.54,0,0,0,.65-.93q.38-.53.18-.64t-2.17,1a8.26,8.26,0,0,1-1.23.83,2.59,2.59,0,0,0-.73.48l-5,3.73a17.23,17.23,0,0,0-2.6,2.39q-1.62,1.73-1.77,1.86a1.1,1.1,0,0,1-.33.39l-.7.63Z" fill="#fff"/>
    <path d="M191.87,189a3.44,3.44,0,0,1-.42-.67,3,3,0,0,1-.06-2.62,1,1,0,0,0,.17-.24,1.17,1.17,0,0,0,.13-.28.7.7,0,0,1,0-.14.44.44,0,0,1-.05-.2s0-.06.09-.08l.14-.07c.08,0,.14,0,.18,0a.53.53,0,0,0,.06-.23,2.69,2.69,0,0,1,.69-1,9.55,9.55,0,0,1,1.36-1.22,14.55,14.55,0,0,1,1.51-1,9.37,9.37,0,0,1,3.34-1.18,4.85,4.85,0,0,1,1.48.07,3,3,0,0,1,1,.22,1.44,1.44,0,0,1,.51.74,2.72,2.72,0,0,1,.71,1.14,2.76,2.76,0,0,1-.08,1.4,5.55,5.55,0,0,1-.59,1.42,11,11,0,0,1-4.86,3.88,15.7,15.7,0,0,1-2.06.52,9.69,9.69,0,0,1-1.45.14,3.72,3.72,0,0,1-1.26-.24A1.59,1.59,0,0,1,191.87,189Zm6.52-2.75a9.74,9.74,0,0,0,1.54-1.49,2.65,2.65,0,0,0,.29-.43,5.68,5.68,0,0,0,.5-1.13c.12-.38.13-.61,0-.69a1.37,1.37,0,0,0-.37-.33,2.33,2.33,0,0,0-1.81,0,8.84,8.84,0,0,0-2.26,1.22,26.57,26.57,0,0,0-2.53,2.15,4.51,4.51,0,0,0-.66.82,1.65,1.65,0,0,0-.27.91.73.73,0,0,0,.39.62,2.06,2.06,0,0,0,1.31.14,7.49,7.49,0,0,0,2-.68A11.44,11.44,0,0,0,198.38,186.28Z" fill="#fff"/>
    <path d="M200.28,195.35a1.88,1.88,0,0,1,.31-1.34q.11-.2.46-.67a6.91,6.91,0,0,0,.62-.69q.5-.54.7-.57a.35.35,0,0,0,.12-.08.13.13,0,0,0,0-.17,3.48,3.48,0,0,1,.84-.86,4,4,0,0,1,.37-.31l.26-.19a.27.27,0,0,1,0-.2.45.45,0,0,1,.32-.19,1.54,1.54,0,0,0,.37-.12.21.21,0,0,0,.12-.23q0-.17,1.26-1,.79-.52.86-.59a5.08,5.08,0,0,1,1-.8q1-.7,1.52-1,.33,0-.08-.31a7.75,7.75,0,0,0-1.08-.66,16.33,16.33,0,0,1-1.38-.93,2.76,2.76,0,0,1-.68-.71,1,1,0,0,1,0-.62q.16-.28.85.08t2.36,1.1l1.5.71.36-.43a13.45,13.45,0,0,0,1.17-.73,4.25,4.25,0,0,0,.75-.71,4.86,4.86,0,0,0,.62-.39,3.47,3.47,0,0,0,.77-.72l1.17-.69.66-.39a1.11,1.11,0,0,1,.57,0,1.44,1.44,0,0,1,.4.61q.43.88.23,1.22a.56.56,0,0,1-.36.24,9.54,9.54,0,0,0-.86.7,5.21,5.21,0,0,0-.82.44,3.9,3.9,0,0,0-.79.65q-.5.35-.93.61t-.51.21a.37.37,0,0,0,0,.29.6.6,0,0,0,.25.22,3.09,3.09,0,0,0,.37.18,4.58,4.58,0,0,1,.54.27,3.45,3.45,0,0,0,.54.2,1.85,1.85,0,0,1,.44.18,1,1,0,0,1,.29.28,1.42,1.42,0,0,1-.16.92.55.55,0,0,1-.51.3l-.71-.19a5.1,5.1,0,0,1-1.14-.43l-1.57-.72-1,.68c-.26.15-.5.3-.71.45a2,2,0,0,1-.41.25,1.89,1.89,0,0,1-.55.43q-.47.29-.73.48a7.29,7.29,0,0,1-.78.58l-.54.34c-.06,0-.1,0-.12,0a.49.49,0,0,0-.09.12l-.07.26a.47.47,0,0,1-.3.2.68.68,0,0,0-.32.08l-.24.12a.22.22,0,0,1,0,.17,1.19,1.19,0,0,1-.49.39,4.89,4.89,0,0,1-1.22,1.2,6.89,6.89,0,0,0-.32.68c0,.1,0,.17.08.19l.11.06.38.18q.49.06-1.56,1.72l-.89.5-.38.21c-.22.11-.36.15-.44.1A2.26,2.26,0,0,1,200.28,195.35Z" fill="#fff"/>
    <path d="M212.14,200.53a3.23,3.23,0,0,1-1.14-1.11,3.51,3.51,0,0,1-.52-1.53,3.36,3.36,0,0,1,.05-1.32,5.59,5.59,0,0,1,.63-1.47c.11-.19.34-.55.71-1.09a6.38,6.38,0,0,1,1.94-1.77,9.63,9.63,0,0,1,2.66-1.14,6.17,6.17,0,0,1,2.48-.2,1.82,1.82,0,0,1,1,.19,3.34,3.34,0,0,1,.38.25l.39.3a3.84,3.84,0,0,1,.8.78,1.67,1.67,0,0,1,.28.78,2.58,2.58,0,0,1-.24,2,3.89,3.89,0,0,1-1.76,1,6.8,6.8,0,0,1-2.64.35,4.22,4.22,0,0,1-1.25-.5,2.83,2.83,0,0,1-1.19-1.18,1.53,1.53,0,0,0-.34-.31.48.48,0,0,0-.57.12,7.25,7.25,0,0,0-1,1.1,4.85,4.85,0,0,0-.35.55q-.83,1.43,0,2.12a5.76,5.76,0,0,0,.85.68,1.9,1.9,0,0,0,.89.21H215a1.36,1.36,0,0,0,.44,0l.4-.11.27-.09a.74.74,0,0,1,.31,0,.53.53,0,0,1,.21.06.47.47,0,0,1,.18.27,2.54,2.54,0,0,0,.12.31q.25.15-.09.42a3.05,3.05,0,0,1-1.07.47,6.62,6.62,0,0,1-1.53.22A2.84,2.84,0,0,1,212.14,200.53Zm6.83-5.76a1.6,1.6,0,0,0,1-.56.83.83,0,0,0,.07-.71,1.18,1.18,0,0,0-.57-.63,2,2,0,0,0-.54-.24,2.9,2.9,0,0,0-1.28.07,9.4,9.4,0,0,0-1.5.46c-.46.18-.67.32-.65.41s.31.52.95.89a3.36,3.36,0,0,0,1.16.45A3.42,3.42,0,0,0,219,194.77Z" fill="#fff"/>
  </g>
</svg>
