<svg id="Assets" xmlns="http://www.w3.org/2000/svg" width="381.83" height="382.33" viewBox="0 0 381.83 382.33">
  <title>deathByOther</title>
  <path d="M160,105V71c-5.15-.12-16.81-10.78-18-22-1.15-10.81,10.7-21,14.5-18.5,0,0,10-26,26.5-21.5s19,21,19,21,17.5,3.5,15,21-18,18-18,18l1,36c13.7,4.59,26.25,6.08,36,0,4.9-10.17,12.2-16.43,23-17,12.16,2.9,20.23,7.59,22,15,0,0,14.5,3.5,16,21s-16,22-16,22-9.5,15.5-22,17-24-16-24-16c-11.71-3.09-23-2-34,1V305s18.5,10.5,18,28-19,29-19,29-1.5,11.5-17,12a22.06,22.06,0,0,1-21-12s-20.5-8.5-18-30,18-26,18-26l-1-156c-17.81-6.48-28.24-3-39,0,0,0-10.5,15.5-22,16s-21-17-21-17-20.5-8.5-17-24,18-20,18-20,5.5-18.5,22-17,23.5,19.5,23.5,19.5Z"/>
</svg>
