<svg xmlns="http://www.w3.org/2000/svg" xmlns:xlink="http://www.w3.org/1999/xlink" width="675" height="320" viewBox="0 0 675 320" aria-labelledby="gelus_name_description">
  <defs>
    <clipPath id="Gelus-clip-path-1">
      <path id="Gelus_g_clip" d="M13.93,274.34a49.37,49.37,0,0,1-5.38-25.53q-.41-47.07,16.35-99.33Q32.09,128.33,42.45,105T60,69.3A181.71,181.71,0,0,1,84.74,37q13.55-14,21.94-18.75a67.13,67.13,0,0,1,14.16-5.19,73.48,73.48,0,0,1,18.95-2.39,64.73,64.73,0,0,1,14.76,1.59,108.19,108.19,0,0,1,18.74,6.59q9.18,4.18,12.37,7c1.06,1.59,2.33,3.46,3.79,5.58A48.86,48.86,0,0,1,192.84,37a11.37,11.37,0,0,1,1.2,5.18q.39,4-3.39,9.58t-7.78,5.58c-1.6,0-3.19-.93-4.79-2.79a36.33,36.33,0,0,0-8-9,45.29,45.29,0,0,0-8.37-5,68.09,68.09,0,0,1-6.39-3.2Q150.15,34.2,141,34.19a51.05,51.05,0,0,0-14.56,2.2A34.26,34.26,0,0,0,113.86,43a176,176,0,0,0-17.55,19,134.88,134.88,0,0,0-16,23.33q-23.94,41.9-33.91,79-3.19,11.56-7.18,29.12t-5.18,26.33a167.84,167.84,0,0,0-2.4,26.72q0,14.76,5,22.54t16.55,7.78q8,0,19.55-4,13.17-1.59,29.92-15.36a132.34,132.34,0,0,0,27.92-31.31q18-33.51,17.95-45.08,0-8-7.58-8-8-.8-19.94-.79-8,0-12.37-.4a19.88,19.88,0,0,1-8-2.4c-1.86-2.92-2.79-5.44-2.79-7.58q0-4.78,5.19-10,5.58-2.38,21.94-2.39,23.13,0,36.3,6.38,12.36,6,12.36,24.33a68.47,68.47,0,0,1-1.59,15.56q-3.6,15.56-24.34,46.67-9.18,12.78-27.32,27.73T91.12,289.49q-21.95,10-39.49,10-12.37,0-20.75-6A46.67,46.67,0,0,1,13.93,274.34Z" fill="none"/>
    </clipPath>
    <clipPath id="Gelus-clip-path-2">
      <path id="Gelus_e_clip" d="M243.1,275.93a39.63,39.63,0,0,1-18.95-4.79,43,43,0,0,1-15-13.16,41.22,41.22,0,0,1-7.58-14.36,68.65,68.65,0,0,1-2.4-19.55q0-4,.8-15.95,1.2-14.76,9.77-30.72a118.52,118.52,0,0,1,21.35-28.52q12.75-12.57,25.13-17.35,6.38-4,11.57-4a38.89,38.89,0,0,1,5.58.4q2.79.41,6,.79,8.78,1.2,13.37,3.4a20.55,20.55,0,0,1,7.78,6.58q10,10,10,23.13-1.61,9.58-12.37,21.94a83.34,83.34,0,0,1-25.93,19.95,51.47,51.47,0,0,1-16.35,2.39q-12.37,0-20-5.18a19,19,0,0,0-5.58-1.2c-2.4,0-4.19,1.6-5.39,4.79s-2.33,9-3.39,17.55a59.56,59.56,0,0,0-.4,8q0,20.34,13.57,22.34,9.17,2,13.16,2,4.79,0,10.77-3.19l7.58-4.39a17,17,0,0,0,4.39-3.19l3.59-3.59c.53-.53,1.33-1.4,2.39-2.59a9,9,0,0,1,3-2.4,6.6,6.6,0,0,1,2.6-.59,5.72,5.72,0,0,1,3.59,1.79,28.63,28.63,0,0,0,3.19,2.59c2.39,0,2.92,1.67,1.59,5S286.38,251,282,255.39a82.6,82.6,0,0,1-15,11.77A35,35,0,0,1,243.1,275.93Zm37.3-103.32q7-7.17,7-12a10.22,10.22,0,0,0-3.59-8q-3.59-3.19-10-3.19a24.23,24.23,0,0,0-7.18.8q-5.59,1.59-13.17,8.57A118,118,0,0,0,240.31,173c-3.73,4.79-5.18,7.58-4.39,8.38q2,3.59,15.56,3.59,9.16,0,15.16-2.39Q273.42,179.8,280.4,172.61Z" fill="none"/>
    </clipPath>
    <clipPath id="Gelus-clip-path-3">
      <path id="Gelus_l_clip" d="M338.44,281.52q-6.39,0-10-6.39t-3.59-17.55a109,109,0,0,1,2.39-21.14q4.38-11.56,4.39-16.75,1.2-7.58,8.17-27.33t9-23.73c1.06,0,2-.86,2.79-2.6a13.55,13.55,0,0,0,1.2-5.78,21.06,21.06,0,0,1,1.4-7.38,14.93,14.93,0,0,1,3-5.39,18.23,18.23,0,0,1,1-4.38,18,18,0,0,0,1-4.39,9.15,9.15,0,0,1,1-3,9.19,9.19,0,0,0,1-3.39q6.38-12.38,22.34-55.65t16-48.07q0-6.37,6.38-6.38,2-2,6.39-2l6.38,6.38a13.17,13.17,0,0,1,3.59,5.79,37.45,37.45,0,0,1,.8,9,30.52,30.52,0,0,1-1.6,10.38q-1.59,4.38-8,18c-.79,1.86-1.86,4-3.19,6.58s-2.79,5.65-4.39,9.37q-.8,2-6.38,14.36c-2.66,5.33-4,8.38-4,9.18a17.34,17.34,0,0,1-1.59,5,78.29,78.29,0,0,0-2.8,7.78q-3.19,6.39-10.17,22.54t-7,17.75c0,2.93-.67,5.06-2,6.39-.8,0-1.34.59-1.6,1.79A13.38,13.38,0,0,0,370,173q0,4-6.38,21.15L360,205.72q-7.59,25.93-10.57,37.9a85.94,85.94,0,0,0-3,20.34q0,10-.6,12.77a6.54,6.54,0,0,1-3.39,4.39A14.24,14.24,0,0,1,338.44,281.52Z" fill="none"/>
    </clipPath>
    <clipPath id="Gelus-clip-path-4">
      <path id="Gelus_u_clip" d="M484.24,279.12a34.43,34.43,0,0,1-9-8.37A25.59,25.59,0,0,1,471.47,260q-.6-5.58-.6-23.13,0-4-1.59-4-1.2,0-5.59,3.79t-10.77,10.17a126.37,126.37,0,0,1-19.15,15.56q-8.77,5.6-14.36,5.18-4.4,0-9.37-6a44.42,44.42,0,0,1-7.78-14,46.22,46.22,0,0,1-1.2-11.17q0-16.75,7-40.69t16.36-41.29q9.38-17.34,16.55-17.35,6,0,11.17,13.17a9.39,9.39,0,0,1,1.2,4c0,1.87-1.07,3.73-3.19,5.59q-6,7.58-14,27.12a320.48,320.48,0,0,0-12.57,36.31Q419,240,421.81,240q5.58,0,13.16-4.39a82,82,0,0,0,15.16-11.57,119.52,119.52,0,0,0,13.56-16.15q6-8.58,14.76-23.34,16.76-26.72,18.35-31.11,6-11.17,8.58-14.56a12.69,12.69,0,0,1,6.58-4.59h5.58c1.6.27,3.46,1.46,5.59,3.59,1.86.8,3,1.66,3.39,2.59a9.85,9.85,0,0,1,.6,3.79l-6.38,14.76-3.59,8.38q-.4,1.59-4.39,9.17-9.18,20.35-14,32.71a139,139,0,0,0-7.18,25.53,39.1,39.1,0,0,0-.4,6.79q0,12,2.39,16.75,3.58,7.19,7.18,10.37c1.33,1.07,2,2.13,2,3.19q0,2.81-4.58,5.59c-3.06,1.86-5.26,2.79-6.58,2.79C489.75,281.38,487.29,281,484.24,279.12Z" fill="none"/>
    </clipPath>
    <clipPath id="Gelus-clip-path-5">
      <path id="Gelus_g_clip-2" data-name="Gelus_g_clip" d="M553.84,272.34q-10-5.58-13.16-15.16-2.79-7.17-2.79-8,0-2.4,2.79-3.6,2.79,0,6.58,2.4a31,31,0,0,0,6.18,3.19q6,5.6,16.36,5.58a32.9,32.9,0,0,0,14.56-3.19c4.39-2.12,6.84-4.65,7.38-7.58q0-2-4-14a126.57,126.57,0,0,1-15.36-29.32q-5.39-15-5.38-25.33a32.19,32.19,0,0,1,4.39-15.56,41.73,41.73,0,0,1,12-13.56,113.22,113.22,0,0,1,24.14-18.75q14.14-8.37,25.73-11.57a71.36,71.36,0,0,1,11.76,1.2q7,1.2,9.78,2.79,4.38,1.6,8.37,8.78t4,13.56q0,6.39-6.78,17.55a46.58,46.58,0,0,1-3.19,7.58c-1.6,3.19-2.39,5.19-2.39,6q-1.6,4-5.19,4t-7-3.4a24.91,24.91,0,0,1-5.39-8.17,35.56,35.56,0,0,1-1.19-8.38,17.13,17.13,0,0,1,3.19-9.57c2.92-2.93,4.39-4.92,4.39-6s-1.47-1.59-4.39-1.59q-4.79,0-18.35,7.58t-21.54,16q-7.19,6.79-8.78,10.17T589,186.18a47.87,47.87,0,0,0,2.59,14.16q2.6,8.17,5.38,11c.53,1.06,1.66,3.33,3.4,6.78a64.57,64.57,0,0,0,6.18,10q8,18,8,27.93,0,11.56-9,16.75t-28.12,5.19Q563.81,277.93,553.84,272.34Z" fill="none"/>
    </clipPath>
  </defs>
  <desc id="gelus_name_description">Name: Gelus</desc>
  <g id="Gelus">
    <g id="Gelus_g_mask">
      <g clip-path="url(#Gelus-clip-path-1)">
        <path id="Gelus_g" d="M199.5,55.5c-17.28-22.21-38.34-35.34-65-35-61,24.14-103.17,96.78-115,248,9.69,14.94,25.16,22.09,46,22,52.85-14.91,81.82-60,99-120l-73-14" fill="none" stroke="#000" stroke-width="33"/>
      </g>
    </g>
    <g id="Gelus_e_mask">
      <g clip-path="url(#Gelus-clip-path-2)">
        <path id="Gelus_e" d="M219.5,184.5l45,13q25.77-17.34,40-42c-10-13-23.52-18.66-40-18-33.18,16.83-57.19,45.78-53,112,8.36,11.78,20.34,18.6,37,19l50-39" fill="none" stroke="#000" stroke-width="29"/>
      </g>
    </g>
    <g id="Gelus_l_mask">
      <g clip-path="url(#Gelus-clip-path-3)">
        <path id="Gelus_l" d="M416.5,7.5c-36.37,101.33-67.7,196.46-88,278" fill="none" stroke="#000" stroke-width="34"/>
      </g>
    </g>
    <g id="Gelus_u_mask">
      <g clip-path="url(#Gelus-clip-path-4)">
        <path id="Gelus_u" d="M453,134c-31.39,45.62-48.6,88-33,123,39.12-17.48,72.27-69.17,104-129-44.9,80.73-54.29,133.42-23,154" fill="none" stroke="#000" stroke-width="31"/>
      </g>
    </g>
    <g id="Gelus_s_mask">
      <g clip-path="url(#Gelus-clip-path-5)">
        <path id="Gelus_s" d="M641.5,184.5l16-50c-17.45-10.92-47.13,11.41-78,37l23,84c-4.18,10.95-42.33,7.3-75,6" fill="none" stroke="#000" stroke-width="34"/>
      </g>
    </g>
  </g>
</svg>
