<svg xmlns="http://www.w3.org/2000/svg" xmlns:xlink="http://www.w3.org/1999/xlink" width="1200" height="258" viewBox="0 0 3784 258" aria-labelledby="headline_name_description">
  <defs>
    <clipPath id="Headline-clip-path">
      <path id="Headline_a_clip" d="M34.3,229.93a18.55,18.55,0,0,1-4.78-3.39,5.76,5.76,0,0,1-1.39-4c0-2.06.87-5,2.62-8.79s4.79-9.82,9.11-18.05q1.85-4,7.09-14.19,13.26-25.29,13.26-37.33a4.37,4.37,0,0,1-.3-1.85q0-3.07,4.93-5.55c.62-.62,2.83-2.36,6.64-5.24a35.93,35.93,0,0,0,9.1-9.88q4-9.25,10.18-20.51T112,64.28a386.11,386.11,0,0,1,31.47-49,25.34,25.34,0,0,1,6.94-6.79C153,6.8,155.23,6,157.08,6q9.55,0,19.59,7.41t13.11,14.8Q191,30.34,191,37.44q0,9.56-2.15,32.39-.63,4-1.24,12.65-.93,13.88-2.78,29.61-3.39,34.56-4.93,54t-1.54,36.4q0,8.64.3,12.65v2.16l-.3,7.09c-1.24,1.24-3.7,1.85-7.41,1.85a40,40,0,0,1-12.34-2q-6.17-2-6.78-4.78a3.73,3.73,0,0,0-.93-.62c-.41-.2-.62-1.13-.62-2.78l.31-6.78.93-17.28,1.54-47.2-4,.31q-6.18,0-26.07,2.47t-25.14,4c-1.85,0-4.12,1.23-6.79,3.7A35.15,35.15,0,0,0,84,164.84a44.43,44.43,0,0,1-4.32,8.8c-2.27,3.8-3.39,6-3.39,6.63A11.89,11.89,0,0,0,73,183.51a28.2,28.2,0,0,0-1.7,2.62q0,3.39-6,17.43a152.88,152.88,0,0,1-11.88,23L45.1,238.26Zm82.37-107.5A114.87,114.87,0,0,1,128.08,121q14.82-3.71,20.36-3.7a10.63,10.63,0,0,1,4.32.61,5,5,0,0,0,2,1.7,4.89,4.89,0,0,0,1.39.46q.61-2.46,4.93-33.62t4.32-38.26c0-3.28-.11-6.11-.31-8.48a25.94,25.94,0,0,0-.62-4.47q-2.78,0-12.64,14.65a296.27,296.27,0,0,0-19.13,33.16q-7.09,12.66-9.87,12.65-2.16,2.16-9.26,14.5T108,123.81Q110.19,123.51,116.67,122.43Z" fill="none"/>
    </clipPath>
    <clipPath id="Headline-clip-path-2">
      <path id="Headline_t_clip" d="M451.37,43.92a6.15,6.15,0,0,1-3.7,5.86q-1.85.61-7.25,2.31a30.9,30.9,0,0,1-8.79,1.7,12.05,12.05,0,0,1-4.32-.62,18.52,18.52,0,0,0-7.4-4Q415.57,47.93,402,47a46.18,46.18,0,0,1-7.09.62,30.88,30.88,0,0,0-4.94.31A89.55,89.55,0,0,1,383.81,63a48,48,0,0,1-3.39,10.49c-1.44,4.12-2.06,6.48-1.85,7.1q-.93,1.23-5.86,15.57t-9.26,27.92q-3.09,9.57-4.62,13.88a87.2,87.2,0,0,0-3.86,9.72q-2.31,6.65-3.24,9.41L344,178.42a114.24,114.24,0,0,0-6,14.65q-3.54,10-5.7,18.05-3.41,12-6,17.27t-4.47,6.48a9.48,9.48,0,0,1-5.25,1.23q-4.94,0-8.64-4.93t-3.7-9.26q0-6.78,4.78-22.82a208.8,208.8,0,0,1,9.11-25.61c.81-3.7,1.59-6.68,2.31-8.95s1.18-3.9,1.39-4.93a35.2,35.2,0,0,0,2.93-6.63q2-5.4,3.24-10,.91-5.55,19.12-62l2.16-6.47a64,64,0,0,0,5.25-11.73Q357,61.2,357,56.25a4.83,4.83,0,0,1,1.08-2.46,5,5,0,0,0,1.08-2.16,1.3,1.3,0,0,1,.93-.31,2.64,2.64,0,0,1,.77.15c.31.11.87-.25,1.7-1.08h-.31L347.1,51.94l-6.78.61q-18.21,1.55-20.67,2.16l-4.32.31q-9.57,0-13.42-3.85a8.75,8.75,0,0,1-2.62-8.8,10.3,10.3,0,0,1,4.78-6.48q3.85-2.46,12.8-4.31,2.78-.61,10.8-1.85L336,28.18,346.49,27a352.32,352.32,0,0,1,37.94-3.7q8.32-.32,14-.77T406,21.7q4.32.32,14,1.55c6.48.82,11.15,1.75,14,2.77a23.71,23.71,0,0,1,11.1,5.56,20.33,20.33,0,0,1,5.86,9.25A12.74,12.74,0,0,1,451.37,43.92Z" fill="none"/>
    </clipPath>
    <clipPath id="Headline-clip-path-3">
      <path id="Headline_i_clip" d="M416.51,199.09q0-5.86,1.54-9a13.49,13.49,0,0,1,.62-3.7,14,14,0,0,0,.62-2.78q-.32-1.84,2.46-10.18,3.71-8.32,9.41-25.6T439,123.2a3.36,3.36,0,0,1,1.23-2.62,6.79,6.79,0,0,1,3.71-1.39q3.39-1.23,8.63,2.93a38.91,38.91,0,0,1,8.64,9.41,6.64,6.64,0,0,1,1.85,4.93q0,4.64-4,13a59.3,59.3,0,0,0-2.93,8.33c-.92,3.29-1.7,6.38-2.31,9.25A133.79,133.79,0,0,0,448,182.43c-.62,2.67-1,4.73-1.24,6.17q-2.16,11.42-4,14.8-1.85,7.72-5.24,11.57a10.08,10.08,0,0,1-7.71,3.86,11.39,11.39,0,0,1-8.95-4.32Q416.51,210.19,416.51,199.09Zm32.7-113.84a17.14,17.14,0,0,1-2.16-6.48c-.21-2,0-3.28.62-3.7a28.68,28.68,0,0,0,3.7-5.86c1.23-2.47,2.16-4.21,2.78-5.24a70,70,0,0,1,4-8q2.14-4.32,4-4.63a9.6,9.6,0,0,1,4-1.23A17.78,17.78,0,0,1,475,52.86a21.39,21.39,0,0,1,7.25,6.48A22.09,22.09,0,0,1,484.38,68q0,7.39-7.1,16.35a21.32,21.32,0,0,1-7.4,6.17,19.17,19.17,0,0,1-8.64,2.16,12.55,12.55,0,0,1-7.09-1.85A16,16,0,0,1,449.21,85.25Z" fill="none"/>
    </clipPath>
    <clipPath id="Headline-clip-path-4">
      <path id="Headline_m_clip" d="M622,211.43a22,22,0,0,1-6.32-4.48,30.24,30.24,0,0,1-6.79-10.18,39.2,39.2,0,0,1-2.93-15.89,61.85,61.85,0,0,1,.77-10.33,44.6,44.6,0,0,0,.77-5.71c0-1-.3-1.54-.92-1.54q-8,0-34.86,29.31a5.38,5.38,0,0,0-1.54,1.54,63,63,0,0,0-6.79,5.86,67.46,67.46,0,0,1-7.56,6.32,13,13,0,0,1-6.32,2.32,7.91,7.91,0,0,1-4.63-1.85L541.45,204a7.91,7.91,0,0,1-2.78-3.39,10.45,10.45,0,0,1-1.23-4.63v-1.54l7.09-20.67q7.71-17,7.72-20c0-.41-.11-.62-.31-.62q-2.78-.3-8.18,4.78t-15.27,15.89l-13.88,14.5q-2.48,2.47-13.27,14.81-6.78,8.33-7.09,8.33a18.18,18.18,0,0,1-17.58-17.9,53.28,53.28,0,0,1,1.23-9.87q1.23-6.16,2.78-13l1.38-5.55c.52-2.05,1.08-4.42,1.7-7.09q.62-3.09,1.39-6.79a57.93,57.93,0,0,1,3.24-9.72q2.46-6,7.09-16.81a28.42,28.42,0,0,0,.93-12.49,21.56,21.56,0,0,1-.31-2.63q0-4.62,4.47-7.86a16.69,16.69,0,0,1,10-3.24q8,0,12,5.71a20.38,20.38,0,0,1,4,11.87,22.43,22.43,0,0,1-2.47,10.18l-3.39,8.33q-1.23,2.77-4.47,10t-3.24,8.79c0,.62.2.92.61.92H514c1,0,2.67-1.12,4.94-3.39a234,234,0,0,1,23.91-19.28q14-10,20.2-11.88c1.65,0,3.81.83,6.48,2.47a25.69,25.69,0,0,1,7.1,6.63,15,15,0,0,1,3.08,9.1l-.31,2.47q-.3,1.25-2.62,10.49t-3.55,10.8Q579.09,155,593.58,145t21.29-10.34q10.18,0,13.26,8.33t4.32,24.37q1.23,15.12,3.4,20.36.61,1.86,4.32,3.09a21.85,21.85,0,0,1,6,2.93q2.31,1.69,2.31,6.63,0,6.8-6,9.56a34,34,0,0,1-14.35,2.78A12.64,12.64,0,0,1,622,211.43Z" fill="none"/>
    </clipPath>
    <clipPath id="Headline-clip-path-5">
      <path id="Headline_e_clip" d="M651.88,185.2q0-14.49,7.25-32.85a141.93,141.93,0,0,1,18.2-33q10.95-14.64,21.75-19.59a28.81,28.81,0,0,1,13.58-3.08q13.88,0,24.21,6t10.34,22.68q0,9.55-6.48,21a67.09,67.09,0,0,1-16.2,19.28q-9.72,7.88-19,7.87-13.87,0-23.44-8.95-5.25,10.5-5.25,20.06,0,7.71,1.85,11.87c1.24,2.78,4.11,4.17,8.64,4.17a25.32,25.32,0,0,0,10.49-1.85,43.74,43.74,0,0,0,7.4-4.32q3.39-2.47,5.25-3.7l1.23-.62h-.31q5.55-3.07,8.18-4.78a21.18,21.18,0,0,1,4.47-2.32,14.91,14.91,0,0,1,8.64,2.78c2.67,1.85,4,4.12,4,6.79q0,3.09-5.55,10t-11.42,9.72l-3.7,1.85h.31q-2.77,3.7-5.56,3.7h-2.46q-1.25,2.47-8.18,4.94a39.31,39.31,0,0,1-13.11,2.47Q651.89,225.31,651.88,185.2Zm65.56-41.64q5.7-7.41,5.7-14.81a11.61,11.61,0,0,0-1.69-6.17A5.09,5.09,0,0,0,717,119.8q-5.24,0-11.72,4.94a46.9,46.9,0,0,0-11.41,13l-4,6.47a4.66,4.66,0,0,1,1.85-.61,4,4,0,0,1,3.7,2.16,17.3,17.3,0,0,0,2.78,3.7c1,1,2.67,1.54,4.93,1.54Q711.73,151,717.44,143.56Z" fill="none"/>
    </clipPath>
    <clipPath id="Headline-clip-path-6">
      <path id="Headline_l_clip" d="M759.7,206.64q-3.24-3.54-3.24-6.63a73.46,73.46,0,0,1,1.08-11.1,111.4,111.4,0,0,1,2.62-12.34q.93-7.71,2-12.5a32.09,32.09,0,0,1,3.85-9.41q1.23-4.62,4.32-13.88,6.78-21.59,9.26-33.32,2.46-6.78,4.32-12t3.39-9.56q-.62,1.84,7.71-21,2.47-7.39,3.4-11.41,3.39-13.89,7.71-21a45.59,45.59,0,0,0,3.24-5.24,22.16,22.16,0,0,1,2-3.4q.3-1.23,3.24-2.16a20.07,20.07,0,0,1,6-.92q3.39,0,4.62,1.23,1.54-.61,5.4,5.09t3.55,8.18a13.51,13.51,0,0,1-2.16,7.4,17.36,17.36,0,0,0-2.78,4.47c-1,2.16-2,4-2.77,5.4-.42,1.44-1.08,3.86-2,7.25s-1.8,6.23-2.62,8.49c-1,2.46-2,4.78-2.93,6.94s-1.7,4.06-2.31,5.7q-1.25,4-4.32,12a138.14,138.14,0,0,0-5.86,16.35q-.63,1.84-2.16,7.71-4.34,15.42-8.33,22.52a29.43,29.43,0,0,0-3.55,10.79c-.72,4.53-1.19,7.31-1.39,8.33q-4.62,13.89-4.63,16.35c-.41,1.85-1.13,5.46-2.15,10.8q-1.86,9.87-3.71,14.19a20.73,20.73,0,0,1-3.54,9q-2.94,4.32-6.64,4.32a7.62,7.62,0,0,1-3.39-.93A27.17,27.17,0,0,1,759.7,206.64Z" fill="none"/>
    </clipPath>
    <clipPath id="Headline-clip-path-7">
      <path id="Headline_i2_clip" d="M818.93,208c-2.37-1-4-1.74-4.78-2.16a12.6,12.6,0,0,0-.77-3.24,13,13,0,0,1-.78-2.93,9.62,9.62,0,0,1-4.47-4.16,7.34,7.34,0,0,1-.77-6q4.32-7.4,15.58-34.09t12.49-30.69q0-6.78,4.32-9.56a7.4,7.4,0,0,1,4.32-1.55c3.49,0,6.79,2.37,9.87,7.1a29.78,29.78,0,0,1,4.63,16.66q0,3.71-6.94,21.13t-15.58,35q-4.93,9.89-7.25,13a6.65,6.65,0,0,1-5.4,3.08A16.59,16.59,0,0,1,818.93,208ZM856.41,88a33.44,33.44,0,0,1-9.1-8.79,18.71,18.71,0,0,1-3.86-10.95q0-1.86,6.48-11.42c2.88-3.9,4.32-6.27,4.32-7.09a22.32,22.32,0,0,1,5.55.92,32.29,32.29,0,0,1,5.86,2.16q1.86,4.32,7.41,11.11a58.37,58.37,0,0,1,5.4,7.71,13.39,13.39,0,0,1,1.69,6.48q0,6.78-3.54,10t-11.26,3.24Q861.66,91.42,856.41,88Z" fill="none"/>
    </clipPath>
    <clipPath id="Headline-clip-path-8">
      <path id="Headline_n_clip" d="M961.29,208a18.3,18.3,0,0,1-7.4-7.4l-1.54-3.09a60.9,60.9,0,0,1-3.7-20.36V163.61c0-2.26-.21-3.39-.62-3.39q-2.47,0-21.29,20.05a221.82,221.82,0,0,1-23,21.44q-9.72,7.56-13.42,7.56c-.82,0-2.77-.78-5.86-2.32a26.12,26.12,0,0,1-5.86-3.55,10,10,0,0,1-2.78-5.24,72.13,72.13,0,0,1-.61-11.72,74,74,0,0,1,4-22.37q4-12.49,13.57-33.47a86,86,0,0,0,4.94-10.49q7.08-16,13.26-22.21a12.54,12.54,0,0,1,3.39.31q4,.32,9.41,3.7a14,14,0,0,1,6.64,9,37,37,0,0,1-1.55,10.49q-1.54,5.25-7.09,13-3.4,4.63-8.95,20-1.54,2.47-4.16,7.56t-2.62,5.71c.2.21.81-.26,1.85-1.39S910,164,911,163l8.33-8.33q24.36-24.36,37.64-25,6.78,0,12,7.09a27.8,27.8,0,0,1,5.24,17q0,1.84-.62,10.49v17.58a86.08,86.08,0,0,0,10.8-3.39,60.67,60.67,0,0,1,16-3.4q-.62,5.25-5.7,13.89A69.87,69.87,0,0,1,982.89,204q-6.79,6.48-12.34,6.48A19.48,19.48,0,0,1,961.29,208Z" fill="none"/>
    </clipPath>
    <clipPath id="Headline-clip-path-9">
      <path id="Headline_e1_clip" d="M1025.46,209.88q-10.8-9.87-10.8-28.07a148,148,0,0,1,.93-15.73q.61-7.41,6-20.36a114.47,114.47,0,0,1,14.81-25.3,58.78,58.78,0,0,1,22.06-18.2,62.27,62.27,0,0,1,9.87-3.86,36.17,36.17,0,0,1,9.26-1.08q12.64,0,20.51,4.63t11.11,10.49q3.24,5.86,3.24,10.18v2.47c0,2.47-1.45,7-4.32,13.57a55.57,55.57,0,0,1-13.73,18.51q-9.42,8.64-24.22,9.56a73.34,73.34,0,0,1-14.34-1.38,62.27,62.27,0,0,0-8.79-1.39q-4.63,0-5.87,3.39T1040,178.73q.93,8.64,4.78,12t11.26,3.39a22.09,22.09,0,0,0,8.64-2.16,74,74,0,0,0,11.72-7.71,44.55,44.55,0,0,1,5.86-4.32,10.46,10.46,0,0,1,5.25-1.23q2.77,0,6.48,3.7t4,7.09q-.63,3.71-6.79,11.11a61.46,61.46,0,0,1-16,13.26,41,41,0,0,1-21.29,5.86Q1036.26,219.75,1025.46,209.88Zm47.2-65.71q3.08-1.53,9.41-7.86c4.21-4.21,6.42-7.15,6.63-8.79a6.17,6.17,0,0,0-2.62-5.09,15.16,15.16,0,0,0-7.25-2.63h-3.39q-4,0-11.57,6.64a71.8,71.8,0,0,0-13.11,15.27q.3,1.54,4.62,2.62a38.11,38.11,0,0,0,9.26,1.08C1068.54,145.41,1071.22,145,1072.66,144.17Z" fill="none"/>
    </clipPath>
    <clipPath id="Headline-clip-path-10">
      <path id="Headline_o_clip" d="M1218.88,217.59a13.26,13.26,0,0,1-6.48-1.38,29.18,29.18,0,0,1-5.86-4.78q-7.1-3.41-12.34-11.42t-4.63-12.65q1.54-14.81,8.33-32.23a123.83,123.83,0,0,1,17.74-31.47q11-14,23.29-19.59a28.33,28.33,0,0,1,10.18-2.16q9.56,0,12.65,6.17,2.16,4.32,2.16,6.48,0,3.7-4.32,4.94a3.76,3.76,0,0,0-2.16.92,2.49,2.49,0,0,0-1.23,1.85c.2.21,1.13.31,2.77.31a67.93,67.93,0,0,0,13-1.54q7.71-1.55,9.87-3.4a7.37,7.37,0,0,1,3.09-.92l4.32.62q5.23,1.55,5.24,3.7a10.65,10.65,0,0,0,1.08,4c.72,1.65,1.39,2.47,2,2.47,1,0,1.55.72,1.55,2.16q0,1.84-2,4.78a25.16,25.16,0,0,1-5.7,5.7q-1.56.93-4.48,2.78c-2,1.23-3.08,2.27-3.39,3.09a5.57,5.57,0,0,0,.15,3.39,13.78,13.78,0,0,1,1.24,6.17q0,10.49-10.18,24.52A113.84,113.84,0,0,1,1249.88,205q-14.66,10.8-27,12.34A21.78,21.78,0,0,1,1218.88,217.59Zm14.19-29.92c2.67-2.67,4.83-4.32,6.48-4.93.62,0,1.18-.57,1.7-1.7s1.43-2.88,2.77-5.25a80,80,0,0,1,6.64-9.4,64.28,64.28,0,0,0,6.94-8.95,13.28,13.28,0,0,0,2-6.79,26.34,26.34,0,0,0-.62-4.32,3.4,3.4,0,0,0-2-1.69c-1.13-.51-2.21-1-3.24-1.39a6.85,6.85,0,0,0-3.08.77,6,6,0,0,1-2.16.77,5.51,5.51,0,0,1-3.4-1.54l-4.93-6.17-5.25,5.24q-7.1,7.11-11.88,19.13a80.39,80.39,0,0,0-5.7,21.9q-.31,4.32,1.39,6a7.92,7.92,0,0,0,5.09,2Q1225.67,191.37,1233.07,187.67Z" fill="none"/>
    </clipPath>
    <clipPath id="Headline-clip-path-11">
      <path id="Headline_f_clip" d="M1311.27,254.15a49,49,0,0,1-11-9.1,10.15,10.15,0,0,1-2.47-3.55,13.41,13.41,0,0,1-.61-4.47l.61-7.71a34.18,34.18,0,0,0,1.55-10.8c0-1.64.71-6.83,2.16-15.58s2.56-15.06,3.39-19l.92-3.7q2.48-10.19,3.71-18.82,2.46-7.71,4.16-15.27a57.84,57.84,0,0,0,1.7-10.33c0-3.71,1.43-6.38,4.32-8q.3-2.46,4.62-10.18,7.41-21,10.95-30.07a110.54,110.54,0,0,1,7.56-15.89q5.55-15.42,8.95-19.44Q1354,47,1363.56,36.82a197.41,197.41,0,0,1,17-16.35q15.42-8,25.91-8,8.94,0,20.67,11.11c2.88,3.08,4.52,5.14,4.94,6.17a18.42,18.42,0,0,1,.61,5.86q-1.23,5.86-10.79,20.66t-12,15.12a19.69,19.69,0,0,1-4.93,1.23,6.27,6.27,0,0,1-4.63-1.85q-1.85-1.84-1.85-5.55,0-5.85,3.7-13.57,3.7-4.93,3.7-8.64,0-5.24-8.32-5.24-2.48,1.23-9.72,8.79T1380.53,56c-.21.41-.77,1.49-1.7,3.24a37.27,37.27,0,0,1-4.16,6q-5.55,7.71-5.56,9.56c0,2.68-.61,4-1.85,4-.2.42-.67,1.6-1.38,3.55a48.23,48.23,0,0,1-2.94,6.33q-1.23,2.77-3.08,6.17a21.66,21.66,0,0,1-3.09,4.62h.31c-.61,1.44-1.75,4.17-3.39,8.18s-2.47,6.32-2.47,6.94c0,.82,1.24,1.23,3.7,1.23q6.8,0,19.13-3.39a15.31,15.31,0,0,1,12,0q3.39,2.16,5.55,9.56t.93,9.26q-.32,1.23-6.63,3.39a89.35,89.35,0,0,1-13.11,3.39l-12.65,2.78q-17.58,3.71-17.59,4.94a2.68,2.68,0,0,0-2.16,1.23,4.17,4.17,0,0,0-.92,2.47,13.55,13.55,0,0,1-1.23,6.48q-1.56,4.32-5.09,20.67t-3.55,20.05q-2.48,3.09-2.47,11.1a15.94,15.94,0,0,0-1.85,7.72,13.23,13.23,0,0,1-.31,3.08q0,1.54-.62,7.4a104,104,0,0,0-.61,10.8l-.93,8.95a61.54,61.54,0,0,1-.92,6.78,9,9,0,0,1-2.16,4.63Q1317.9,258.31,1311.27,254.15Z" fill="none"/>
    </clipPath>
    <clipPath id="Headline-clip-path-12">
      <path id="Headline_d_clip" d="M1649.83,103.15V105c0,1.23.41,2,1.24,2.16-.42,1.23-1.14,3.5-2.16,6.78s-2.16,6.79-3.4,10.49q-.91,11.1-7.25,27.3a190.66,190.66,0,0,1-11.87,25.76,5.7,5.7,0,0,0-2.47.46c-.62.31-.52.57.31.78q0,1.54-3.4,5.86a26.51,26.51,0,0,0-3.85,4.47,29.63,29.63,0,0,1-4.17,4.78,5.68,5.68,0,0,1-1.85,3.55,4.45,4.45,0,0,1-2.77,1.39,1.2,1.2,0,0,0-.93,1.23q-5.55,8-22.06,22.06t-27.91,18.66a43.39,43.39,0,0,1-7.25,4c-2.78,1.24-4.68,2-5.71,2.47q-2.16,1.84-23.14,3.7-3.09.3-6.78.62t-7.41.92a41.83,41.83,0,0,1-6.17.31q-9.87,0-25.91-4a17.3,17.3,0,0,1-5.86-2.77,30.93,30.93,0,0,1-4.17-4.48l-3.54-4.47a22.91,22.91,0,0,1-4-13.27,15.8,15.8,0,0,1,2.31-8.79,10.5,10.5,0,0,1,7.25-4.47h.92a20.31,20.31,0,0,1,4.94,1.23,58.29,58.29,0,0,1,2.16-16.35q2.77-12.65,17.27-54.29l3.71-10.49q2.14-5.23,6.17-19.74,3.39-11.42,7.55-23.45t6-15.11a50.3,50.3,0,0,0,1.85-6.79q4.63-15.73,9.26-27.15l2.16-10.18-3.4-1.54a15.79,15.79,0,0,1-4.93.93,7.66,7.66,0,0,1-3.4-.93q-2.78.93-7.56-3.08t-5.39-7.1a5.84,5.84,0,0,1-.77-2.78c-.11-1.23-.16-2-.16-2.46q.3-2.16,7.4-4.79A103.67,103.67,0,0,1,1528.29,2a115.77,115.77,0,0,1,20-1.85,50.86,50.86,0,0,1,6.48.31A116.4,116.4,0,0,1,1573.94,4q11.41,2.92,20.67,6.32,10.19,3.71,21.75,13A114.91,114.91,0,0,1,1637,44.84a70.14,70.14,0,0,1,12.19,25.3q.91,4,1.85,11.1a100.3,100.3,0,0,1,.92,12.65q0,6.48-1.23,8Zm-27.45-7.1q0-31.77-22.83-51.21-6.48-5.55-21.13-12T1561.6,27q-1.55.32-7.86,17.27t-13.42,37.64l-13.88,38.87q-1.25,4.93-2.78,9.25t-2.47,7.72q-4,11.42-4,13-9,13.89-13.26,46.89c-.42,1.24-1.54,6-3.4,14.19q-2.16,10.19-3.08,9.88l-.31,2.77a20.39,20.39,0,0,0,10.8,1.85c1.23-.2,2.93-.41,5.09-.61s3.75-.31,4.78-.31q9.26-.63,13.73-1.39a16.36,16.36,0,0,0,7.55-3.24q13.58-9.26,22.06-15.89t10.34-8.48q.62-1.55,6.48-3.7l8.63-9q7.71-8.32,9.87-9.87a26.32,26.32,0,0,1,1.08-4.47,12.59,12.59,0,0,0,.78-3.55q3.69-4,11.1-19.28t10.18-26.38A115.42,115.42,0,0,0,1622.38,96.05Z" fill="none"/>
    </clipPath>
    <clipPath id="Headline-clip-path-13">
      <path id="Headline_e2_clip" d="M1659.24,204.48q-4.79-8.47-4.78-22,0-3.09.61-11.11a47,47,0,0,0,.31-5.86c0-3.49-.41-6.12-1.23-7.87a18,18,0,0,0-4.32-5.39q-.93-.93-4.32-4t-3.08-4.63v-.93a12.53,12.53,0,0,1,1.08-4.78,7.55,7.55,0,0,1,2-3.24,27.59,27.59,0,0,0,3.7-1.85c1.85-1,3.29-1.33,4.32-.93a9.11,9.11,0,0,1,3.86,1.55c1.74,1,2.62,2,2.62,2.77q1.85,3.71,9.56-12a63.44,63.44,0,0,1,11.73-12.8,83.68,83.68,0,0,1,13.57-9.72,71.7,71.7,0,0,1,9.72-2.62,57.85,57.85,0,0,1,11.87-1.7q4.93,0,11.57,4a51.25,51.25,0,0,1,11,8.64q6.48,4.63,6.48,17.59a32.39,32.39,0,0,1-2.47,13.26q-1.23,4.64-12.18,14T1713.07,167a68.24,68.24,0,0,1-15.12,1.55q-8.33,0-11.41-1.55-2.16-1.23-3.55,1.08t-2.31,10.34l-.31,3.08a14.24,14.24,0,0,0,1.54,6.48,20,20,0,0,0,4,5.24c1.24,1,3.09,1.55,5.56,1.55l2.77-.31a13.93,13.93,0,0,0,7.25-3.4,115.34,115.34,0,0,0,9.1-8.32q5.55-5.25,6.48-6.17c1-2.06,3.8-3.09,8.33-3.09a35.07,35.07,0,0,1,7.09.93,7.6,7.6,0,0,1,3.09,6.17q0,5.25-4.94,14.19-1.55,3.09-9.4,10.49t-12.5,10.18a37.5,37.5,0,0,1-18.51,4.62,46,46,0,0,1-16-3.08Q1664,213,1659.24,204.48Zm49.36-61.39q4.15-2.61,9.71-10.33c1.65-4.94,2-7.91.93-8.95a5.94,5.94,0,0,0-4.32-1.85c-2.06,0-4.53,1.14-7.4,3.4-2.06.61-4.89,2.52-8.49,5.7a85.16,85.16,0,0,0-9.1,9.26c-2.46,3-3.19,4.78-2.16,5.4-.41.61.62,1.08,3.09,1.38a51.22,51.22,0,0,0,6.17.47A40.73,40.73,0,0,0,1708.6,143.09Z" fill="none"/>
    </clipPath>
    <clipPath id="Headline-clip-path-14">
      <path id="Headline_a_clip-2" data-name="Headline_a_clip" d="M1758.73,208.34c-2.89-2.05-4.32-3.29-4.32-3.7a8,8,0,0,0-1.39-3.55q-1.39-2.31-2.62-4.16-2.48-2.48,3.39-16.05t15.73-32.08a39.38,39.38,0,0,0,4.78-6.48c2-3.08,3.24-4.83,3.86-5.24a3.48,3.48,0,0,1,.93-2.31,2.75,2.75,0,0,1,2.16-1.08l2.46-4.94q1.23-2.77,12-13.27t17-14.19a22,22,0,0,1,12.65-4A19.31,19.31,0,0,1,1838,101.6l8.33,7.1q9.26,7.71,10.49,8.94l11.41,10.18L1863,143.25a49.57,49.57,0,0,0-2.78,15.73,40,40,0,0,0,6.48,21.9,12.49,12.49,0,0,0,4.16,5.25,15.83,15.83,0,0,0,6.94,2.47q6.78,1.23,6.79,6.78,0,6.8-2.47,10.18a10.7,10.7,0,0,1-5.86,4.32,63.39,63.39,0,0,1-6.79.62,30.22,30.22,0,0,1-16.35-4.63q-7.39-4.62-12.95-15.73a41.1,41.1,0,0,1-3.24-6.79,39.85,39.85,0,0,1-2.32-6.78,66.2,66.2,0,0,1-7.09,8q-31.79,32.08-51.52,32.08a21.66,21.66,0,0,1-12-3.39C1763.35,212,1761.6,210.4,1758.73,208.34Zm41.33-31.77q1.55-1.23,3.4-2.93c1.23-1.13,2.57-2.32,4-3.55q8.63-7.09,13.42-11.88a97.71,97.71,0,0,0,9.71-11.57l6.79-11.1q-3.09-6.78-5.55-9.1a7.29,7.29,0,0,0-4.94-2.32q-6.17,0-15.42,10.95t-22.21,33.17a62.11,62.11,0,0,0-5.56,11.57q-2.16,6-2.77,7.86Q1785.86,188.3,1800.06,176.57Z" fill="none"/>
    </clipPath>
    <clipPath id="Headline-clip-path-15">
      <path id="Headline_t2_clip" d="M1916.67,210.19q-5.25-6.78-6.17-12.18t-.92-21.44q0-7.41,7.4-37c.2-.82.93-3.6,2.16-8.33.62-2.26-.21-3.7-2.47-4.32a38,38,0,0,0-9.56-.93c-3.5,0-5.55-.2-6.17-.61-.62-.21-1-1.13-1.08-2.78s-.15-2.78-.15-3.39-.47-1.24-1.39-1.85a7.07,7.07,0,0,1-2-1.86c-.61-.81-.1-2.36,1.54-4.62a9.27,9.27,0,0,1,5.56-4q1.85-.3,8-.93a56.11,56.11,0,0,0,11.87-2.47q5.71-1.85,8.49-5.24,4-10.48,9.41-22.21t7.55-13.88a20.29,20.29,0,0,1,9-2.47,11.89,11.89,0,0,1,10.49,5.55,22.85,22.85,0,0,0,2.16,2.47,3.84,3.84,0,0,1,1.23,2.78q0,2.16-2,6.78t-7.87,15.12l-4,7.71a17.64,17.64,0,0,0,4.32.31,39.9,39.9,0,0,0,5.55-.31,63.22,63.22,0,0,1,10.49-1.23,18.07,18.07,0,0,1,4,.31q13,0,14.19,14.19a5.77,5.77,0,0,1-2.62,6q-3.24,2.31-11.26,2.31-31.77,1.25-32.08,2.78-1.54.93-4.94,9.56t-5.55,16.35a134.69,134.69,0,0,0-3.7,30.24q0,13.57,4,17.58a4.58,4.58,0,0,0,3.39,1.23q5.55,0,15.73-8.33a10.82,10.82,0,0,1,7.41-3.08,6.59,6.59,0,0,1,5.4,2.47,10,10,0,0,1,2,6.48,15.23,15.23,0,0,1-3.08,8.94q-4.63,7.11-13.89,11.72a39.3,39.3,0,0,1-17.58,4.63,15.62,15.62,0,0,1-5.24-.61Q1927.47,219.75,1916.67,210.19Z" fill="none"/>
    </clipPath>
    <clipPath id="Headline-clip-path-16">
      <path id="Headline_h_clip" d="M2094.36,220.06a13.75,13.75,0,0,1-10.18-4q-.93-1.23-3.24-4.47a22.58,22.58,0,0,1-3.39-7.1,36.61,36.61,0,0,1-1.08-9.71q0-4.32.31-7.41c.2-2.05.41-3.7.61-4.93l.62-9a55.7,55.7,0,0,0,1.54-13q0-8.33-2.77-8.32-9-1.55-48.44,43.18a42.18,42.18,0,0,0-4,5.87q-3.07,4.32-5.24,7.09c-1.44,1.85-2.47,2.78-3.09,2.78a22.39,22.39,0,0,1-14.19-3.86q-5.86-4.17-6.78-10.33-.32-3.09,12.34-41l13.57-40.11q2.46-7.7,9-23.13l5.86-15.12,3.7-9.25,14.19-37.64V29.42q0-5.25,2.16-7.41l4.32-.31c0-.41,1.49.06,4.47,1.39a55.26,55.26,0,0,1,8.33,4.63q3.85,2.63,3.86,4.16a12.61,12.61,0,0,1,.92,4.94q0,7.09-7.09,24.37-2.78,4-8.33,19.44-3.09,8.64-4.63,12-3.09,5.55-9.25,21.28t-10.18,29.93c-1.65,3.91-2.47,6.78-2.47,8.63,0,1,.31,1.55.92,1.55q2.16,0,6.79-5.86,16.66-17.59,25.91-25.3t16.35-7.1q4.32.93,11.88,7.56t9.41,11.57a52.7,52.7,0,0,1,1.85,13.88q0,4.63-1.54,27.15-2.47,15.42-2.47,17.89a7.8,7.8,0,0,0,.77,4,17.56,17.56,0,0,0,3.24,3.4,9.8,9.8,0,0,1-1.54,16.34Q2098.68,220.07,2094.36,220.06Z" fill="none"/>
    </clipPath>
    <clipPath id="Headline-clip-path-17">
      <path id="Headline_n1_clip" d="M2398.83,55.33a8.23,8.23,0,0,1-.46,2.62,20.92,20.92,0,0,0-.77,3.24l-7.71,28.69q-2.16,8-14.35,35.17T2360,157.75a148.49,148.49,0,0,1-10.18,19.59A148.87,148.87,0,0,1,2335,198.16q-7.72,9-12.65,9-6.79,0-13.73-7.25a33.19,33.19,0,0,1-8.79-17.43q-.32-2.77-4-20.36-2.16-10.8-4.17-21.75a99.44,99.44,0,0,1-2-15.89,30.35,30.35,0,0,0-.31-4.47,24.85,24.85,0,0,1-.31-3.86l.31-11.1v-3.4l.31-7.71a57.16,57.16,0,0,0,.62-8c0-2.05-.21-3.08-.62-3.08q-1.85,0-9.56,13.41t-7.72,14.66l-23.13,54.29q-5.86,12-15.74,55.84,0-1.25-3.7,6.94t-7.09,8.17q1.23,0-3.4-3.23t-8.94-7c-2.88-2.46-4.32-4.42-4.32-5.86q0-6.17,8.33-32.39t15.42-44.73l6.17-16.35q2.16-5.55,9.72-20.82t10.64-20.52H2256q0-1.53,9.11-20.36T2281,35a110.27,110.27,0,0,1,7.25-11.57c1.54-1.95,3.14-2.93,4.78-2.93l1.55.62h1.23q10.8,0,16.66,1.85t5.86,6.79a212.91,212.91,0,0,1-1.85,22.51c-.21,2.06-.52,5.36-.93,9.88s-.61,8.22-.61,11.1q0,10.8,1.08,23.91t2.62,27.92l1.23,12.34,5.25,34.24,3.7-7.71q3.08-6.78,5.86-14.5l4.32-10.49,9.25-22.83,2.16-4a121.64,121.64,0,0,0,6.79-15.27q3.7-9.72,5.24-15.27,3.71-11.1,8.64-27.15,1.84-5.55,3.86-12t4.47-13.88c.2-.2.72-.82,1.54-1.85a18.71,18.71,0,0,0,2.47-4.63l10.8-2.47a38.27,38.27,0,0,1,6.78,6.64,11.88,11.88,0,0,1,2.16,7.25q0,3.69-2.31,11.57t-3.24,8.79C2398.42,53.79,2398.83,54.3,2398.83,55.33Z" fill="none"/>
    </clipPath>
    <clipPath id="Headline-clip-path-18">
      <path id="Headline_o1_clip" d="M2416.42,217.59a13.2,13.2,0,0,1-6.48-1.38,29.18,29.18,0,0,1-5.86-4.78Q2397,208,2391.74,200t-4.63-12.65q1.54-14.81,8.33-32.23a123.83,123.83,0,0,1,17.74-31.47q11-14,23.29-19.59a28.33,28.33,0,0,1,10.18-2.16q9.55,0,12.65,6.17,2.16,4.32,2.16,6.48,0,3.7-4.32,4.94a3.76,3.76,0,0,0-2.16.92,2.49,2.49,0,0,0-1.23,1.85c.2.21,1.12.31,2.77.31a67.93,67.93,0,0,0,13-1.54q7.71-1.55,9.87-3.4a7.33,7.33,0,0,1,3.09-.92l4.31.62q5.25,1.55,5.25,3.7a10.65,10.65,0,0,0,1.08,4c.72,1.65,1.39,2.47,2,2.47,1,0,1.55.72,1.55,2.16q0,1.84-2,4.78a25,25,0,0,1-5.71,5.7q-1.54.93-4.47,2.78c-2,1.23-3.08,2.27-3.39,3.09a5.57,5.57,0,0,0,.15,3.39,13.78,13.78,0,0,1,1.24,6.17q0,10.49-10.19,24.52A113.57,113.57,0,0,1,2447.42,205q-14.65,10.8-27,12.34A21.78,21.78,0,0,1,2416.42,217.59Zm14.19-29.92c2.67-2.67,4.83-4.32,6.48-4.93.61,0,1.18-.57,1.69-1.7s1.44-2.88,2.78-5.25a80.86,80.86,0,0,1,6.63-9.4,63.5,63.5,0,0,0,6.94-8.95,13.2,13.2,0,0,0,2-6.79,26.34,26.34,0,0,0-.62-4.32,3.46,3.46,0,0,0-2-1.69c-1.14-.51-2.22-1-3.24-1.39a6.92,6.92,0,0,0-3.09.77,5.9,5.9,0,0,1-2.16.77,5.49,5.49,0,0,1-3.39-1.54l-4.94-6.17-5.24,5.24q-7.1,7.11-11.88,19.13a80,80,0,0,0-5.7,21.9q-.32,4.32,1.38,6a8,8,0,0,0,5.09,2Q2423.21,191.37,2430.61,187.67Z" fill="none"/>
    </clipPath>
    <clipPath id="Headline-clip-path-19">
      <path id="Headline_t3_clip" d="M2513.59,212.2q-6.16-6.94-7.71-11.88a2.37,2.37,0,0,0-.62-1.39c-.41-.51-.72-.87-.92-1.08q-1.24-.93-1.24-10.18,0-7.39.78-15.42a91.29,91.29,0,0,1,2-13l5.55-16.35,4.32-12.34,8.33-17.89-12.34-3.39a5.28,5.28,0,0,1-3.55-2.16,5.88,5.88,0,0,1-1.38-3.4c0-1.64.87-4,2.62-7.09s3.13-4.63,4.16-4.63a21.88,21.88,0,0,0,4.94.31,76.23,76.23,0,0,0,13.88-.93,7.48,7.48,0,0,0,4.32-4.93,40.89,40.89,0,0,1,3.08-5.71q1.55-2.31,3.09-5.09c.62-1.23,1.59-3.13,2.93-5.71s3-5.5,5.09-8.79c.41-.62,1.33-2.11,2.78-4.47a22.73,22.73,0,0,1,5.24-6,16,16,0,0,1,4.94-2.62,18.53,18.53,0,0,1,6.17-1.08,12.76,12.76,0,0,1,8.94,3.09q2.78,4.32,2.78,6.47c0,1.65-.83,3.81-2.47,6.48a83.53,83.53,0,0,1-6.17,9.87q-3.71,5.57-5.55,9-3.09,4-3.09,6.17t4,2.16a94,94,0,0,0,14.5-1.85,23.8,23.8,0,0,1,4.32-.31q7.41,0,10.49,4.32a18.16,18.16,0,0,1,3.08,10.8c0,2.88-1,4.62-2.93,5.24s-6.32.93-13.11.93a131.53,131.53,0,0,1-20.36,1.54c-1.23,0-2.62,0-4.16.15a27.92,27.92,0,0,0-4.78.77,6.86,6.86,0,0,0-3.55,1.85,16.27,16.27,0,0,0-2.31,4q-.93.93-4.32,7.1c-2.89,6-4.74,9.56-5.56,10.8A314.92,314.92,0,0,0,2527.47,184a29.7,29.7,0,0,0-.3,4.63c0,2.67.87,4.58,2.62,5.7s5.19,1.7,10.33,1.7a60.35,60.35,0,0,0,16.35-2.16,123.49,123.49,0,0,0,13.88-6.79c1.86-1,3.55-2,5.09-2.93s2.63-1.59,3.24-2c.82-1.64,2.21-1.44,4.17.62a21.32,21.32,0,0,1,4.47,7.09,22.78,22.78,0,0,1-2.16,10q-2.16,4.47-10.8,9.41a74.17,74.17,0,0,1-20.36,8.94,77.32,77.32,0,0,1-19.74,2.78,45.46,45.46,0,0,1-9.56-.93Q2519.77,219.15,2513.59,212.2Z" fill="none"/>
    </clipPath>
    <clipPath id="Headline-clip-path-20">
      <path id="Headline_e3_clip" d="M2610.61,204.48q-4.79-8.47-4.78-22c0-2.06.2-5.76.62-11.11a49.21,49.21,0,0,0,.3-5.86c0-3.49-.41-6.12-1.23-7.87a17.87,17.87,0,0,0-4.32-5.39q-.93-.93-4.32-4t-3.08-4.63v-.93a12.53,12.53,0,0,1,1.08-4.78,7.75,7.75,0,0,1,2-3.24,27.59,27.59,0,0,0,3.7-1.85c1.86-1,3.29-1.33,4.32-.93a9.11,9.11,0,0,1,3.86,1.55c1.74,1,2.62,2,2.62,2.77q1.86,3.71,9.57-12a63.07,63.07,0,0,1,11.72-12.8,84.12,84.12,0,0,1,13.57-9.72A72.16,72.16,0,0,1,2656,99a57.94,57.94,0,0,1,11.87-1.7q4.93,0,11.57,4a51.57,51.57,0,0,1,11,8.64q6.46,4.63,6.47,17.59a32.56,32.56,0,0,1-2.46,13.26q-1.24,4.64-12.19,14T2664.44,167a68.15,68.15,0,0,1-15.11,1.55q-8.34,0-11.42-1.55-2.16-1.23-3.55,1.08t-2.31,10.34l-.31,3.08a14.24,14.24,0,0,0,1.54,6.48,20,20,0,0,0,4,5.24c1.24,1,3.09,1.55,5.56,1.55l2.77-.31a13.93,13.93,0,0,0,7.25-3.4,115.34,115.34,0,0,0,9.1-8.32c3.71-3.5,5.86-5.56,6.48-6.17q1.55-3.09,8.33-3.09a35.24,35.24,0,0,1,7.1.93,7.61,7.61,0,0,1,3.08,6.17q0,5.25-4.93,14.19-1.56,3.09-9.41,10.49t-12.5,10.18a37.5,37.5,0,0,1-18.51,4.62,46,46,0,0,1-16-3.08Q2615.4,213,2610.61,204.48ZM2660,143.09q4.17-2.61,9.72-10.33c1.64-4.94,1.95-7.91.92-8.95a5.92,5.92,0,0,0-4.32-1.85c-2.06,0-4.52,1.14-7.4,3.4-2.06.61-4.89,2.52-8.48,5.7a83.35,83.35,0,0,0-9.1,9.26c-2.47,3-3.2,4.78-2.16,5.4-.42.61.61,1.08,3.08,1.38a51.22,51.22,0,0,0,6.17.47A40.61,40.61,0,0,0,2660,143.09Z" fill="none"/>
    </clipPath>
    <clipPath id="Headline-clip-path-21">
      <path id="Headline_f_clip-2" data-name="Headline_f_clip" d="M2780.43,204.64a10.52,10.52,0,0,0,4-8.33q.93-4.32,1.54-6.17a10.89,10.89,0,0,1,1.55-3.09l3.08-10.33q2.16-7.25,3.08-11.26a43.57,43.57,0,0,1,1.24-5.86c.62-2.26,1-3.8,1.23-4.63q1.86-1.84,5.86-12,.32-6.78,4-9.56a14.72,14.72,0,0,0,1.86-7.71q-2.79,0,8.94-27.15a91.49,91.49,0,0,0,4.32-9.26q1.84-4.62,2.16-5.86a6.41,6.41,0,0,1,1.08-2.77,20.4,20.4,0,0,0,1.7-3.71c0-.61.71-2.46,2.16-5.55s2.77-6.27,4-9.56q2.77-10.48,6.17-16a25.18,25.18,0,0,1,3.7-8.33,33.65,33.65,0,0,0,3.08-6.48,19.09,19.09,0,0,1,4.63-9.72,10.43,10.43,0,0,1,7.71-3.55q6.16,0,10.49,6.17,2.77,3.41,5.25,3.4t8.63-3.4a109.8,109.8,0,0,0,11.88-.92q7.86-.93,14-2.16a73.82,73.82,0,0,0,10.33-.77q5.4-.77,6.63-.77c.41-.41,1.65-.62,3.7-.62a40.25,40.25,0,0,1,8.8,1.08c3.18.72,5.4,1.7,6.63,2.93a32.3,32.3,0,0,1,1.23,6.48,75,75,0,0,1,.62,9.25c0,2.89-.31,4.32-.93,4.32h-16q-8.32,0-24.68,3.09a39.85,39.85,0,0,0-5.09.3c-1.54.21-2.83.42-3.85.62a51.35,51.35,0,0,1-9,1.24,107.79,107.79,0,0,1-11.41.92c-3.09,0-5.09.26-6,.77s-2,2.21-3.24,5.09l-4.93,11.57a202.63,202.63,0,0,0-7.1,19.28l-3.7,13.27h4.94q10.78-.61,27.45-2.78a76.4,76.4,0,0,1,13.27-1.85,66.11,66.11,0,0,1,6.78-.62q9,0,13.58,4.17a13.19,13.19,0,0,1,4.32,11c0,1.65-1.24,3.44-3.71,5.4s-6.68,3.34-12.64,4.16q-11.43.63-28.69,2.47-9,.61-17.13,1.23t-12.49.93a19.6,19.6,0,0,0-3.7-.31c-1.24,0-2,.21-2.31.62a5.65,5.65,0,0,0-.78,2.16,18.6,18.6,0,0,1-.92,4,41,41,0,0,0-1.23,4.93,39,39,0,0,0-3.4,6.17,43.78,43.78,0,0,0-2.77,7.72q-1.24,3.08-2.16,5.24a17.32,17.32,0,0,0-1.24,4q-1.55,2.48-8.64,24.06l-5.24,15.43q-4.93,17-8,22.82t-8,5.87a15.8,15.8,0,0,1-4.94-.93Q2778,211.73,2780.43,204.64Z" fill="none"/>
    </clipPath>
    <clipPath id="Headline-clip-path-22">
      <path id="Headline_a1_clip" d="M2918.94,208.34c-2.88-2.05-4.32-3.29-4.32-3.7a7.83,7.83,0,0,0-1.39-3.55c-.92-1.54-1.8-2.93-2.62-4.16q-2.47-2.48,3.39-16.05t15.74-32.08a40.58,40.58,0,0,0,4.78-6.48q2.92-4.62,3.86-5.24a3.47,3.47,0,0,1,.92-2.31,2.78,2.78,0,0,1,2.16-1.08l2.47-4.94q1.23-2.77,12-13.27t17-14.19a22,22,0,0,1,12.64-4,19.31,19.31,0,0,1,12.65,4.32l8.33,7.1q9.25,7.71,10.49,8.94l11.42,10.18-5.25,15.43a49.85,49.85,0,0,0-2.78,15.73,40,40,0,0,0,6.48,21.9,12.58,12.58,0,0,0,4.17,5.25,15.78,15.78,0,0,0,6.94,2.47q6.78,1.23,6.78,6.78,0,6.8-2.46,10.18a10.7,10.7,0,0,1-5.86,4.32,63.82,63.82,0,0,1-6.79.62,30.17,30.17,0,0,1-16.35-4.63q-7.41-4.62-13-15.73a42.84,42.84,0,0,1-3.24-6.79,38.62,38.62,0,0,1-2.31-6.78,66.46,66.46,0,0,1-7.1,8q-31.77,32.08-51.51,32.08a21.64,21.64,0,0,1-12-3.39C2923.57,212,2921.82,210.4,2918.94,208.34Zm41.34-31.77q1.54-1.23,3.39-2.93c1.24-1.13,2.57-2.32,4-3.55q8.64-7.09,13.42-11.88a96.78,96.78,0,0,0,9.72-11.57l6.79-11.1q-3.09-6.78-5.56-9.1a7.28,7.28,0,0,0-4.93-2.32q-6.18,0-15.43,10.95t-22.21,33.17a62.7,62.7,0,0,0-5.55,11.57q-2.16,6-2.78,7.86Q2946.09,188.3,2960.28,176.57Z" fill="none"/>
    </clipPath>
    <clipPath id="Headline-clip-path-23">
      <path id="Headline_t4_clip" d="M3076.89,210.19q-5.25-6.78-6.17-12.18t-.93-21.44q0-7.41,7.41-37,.3-1.23,2.16-8.33.91-3.39-2.47-4.32a38.12,38.12,0,0,0-9.57-.93c-3.5,0-5.55-.2-6.17-.61-.61-.21-1-1.13-1.08-2.78s-.15-2.78-.15-3.39-.46-1.24-1.39-1.85a7.15,7.15,0,0,1-2-1.86c-.62-.81-.11-2.36,1.54-4.62a9.23,9.23,0,0,1,5.55-4q1.86-.3,8-.93a56.33,56.33,0,0,0,11.88-2.47q5.7-1.85,8.48-5.24,4-10.48,9.41-22.21T3109,62.12a20.25,20.25,0,0,1,9-2.47,11.89,11.89,0,0,1,10.49,5.55,21.68,21.68,0,0,0,2.15,2.47,3.85,3.85,0,0,1,1.24,2.78q0,2.16-2,6.78t-7.86,15.12l-4,7.71a17.58,17.58,0,0,0,4.32.31,39.9,39.9,0,0,0,5.55-.31,63.22,63.22,0,0,1,10.49-1.23,18.13,18.13,0,0,1,4,.31q12.95,0,14.19,14.19a5.79,5.79,0,0,1-2.62,6q-3.24,2.31-11.26,2.31-31.79,1.25-32.09,2.78-1.55.93-4.93,9.56a170.39,170.39,0,0,0-5.56,16.35,135.27,135.27,0,0,0-3.7,30.24q0,13.57,4,17.58a4.59,4.59,0,0,0,3.4,1.23q5.55,0,15.73-8.33a10.82,10.82,0,0,1,7.4-3.08,6.59,6.59,0,0,1,5.4,2.47,10,10,0,0,1,2,6.48,15.25,15.25,0,0,1-3.09,8.94q-4.62,7.11-13.88,11.72a39.33,39.33,0,0,1-17.58,4.63,15.73,15.73,0,0,1-5.25-.61Q3087.69,219.75,3076.89,210.19Z" fill="none"/>
    </clipPath>
    <clipPath id="Headline-clip-path-24">
      <path id="Headline_a2_clip" d="M3178.38,216.05a33.12,33.12,0,0,1-7.41-.77c-2.26-.51-3.39-1.18-3.39-2a1.24,1.24,0,0,0-1.54-1.55,43,43,0,0,0-4.17-3.24,30.69,30.69,0,0,0-5.39-3.23,19.39,19.39,0,0,1-3.71-11.42q0-5.85,3.71-18.82.3-12,8.79-27a144.29,144.29,0,0,1,20.51-27.76q12-12.81,21.6-18.36,4.62-4.62,12.95-4.63a22.91,22.91,0,0,1,11.42,2.78q4,2.47,10,10.49a87.39,87.39,0,0,1,9.1,14.5q.62,2.16,1.7,5.86a32.28,32.28,0,0,1,1.08,9l-.62,8.63a82.44,82.44,0,0,0-3.7,22.83,12.22,12.22,0,0,0,.62,6.94q1.23,2.63,3.39,2.62a7.66,7.66,0,0,0,3.4-.92,9.47,9.47,0,0,1,4.31-.93,9.89,9.89,0,0,1,6.79,2.47,7.92,7.92,0,0,1,2.78,6.17,11.87,11.87,0,0,1-1.55,5.86q-2.78,6.18-10.33,11.11t-14,4.93q-5.25,0-10-5.55a40.09,40.09,0,0,1-7.56-14.5l-1.85-7.09-11.11,10.18-7.09,7.09a73.72,73.72,0,0,0-5.55,5.86,14.65,14.65,0,0,1-5.4,4.63,94.38,94.38,0,0,1-12.19,5.25A28.69,28.69,0,0,1,3178.38,216.05Zm23.29-37.94q3.85-4.63,9.72-13,1.23-1.85,2.46-3.85a33.25,33.25,0,0,1,3.09-4.17,101.42,101.42,0,0,0,7.56-11.41,40.15,40.15,0,0,0,3.54-9.26,30,30,0,0,0-3.54-7.56q-2.31-3.54-4.17-3.85-8.64,0-23.44,20.36-1.54,2.16-4.78,7.71t-4.17,7.4q-1.55,2.17-4.16,10.34t-2.62,10.64c0,4.53,1.33,6.79,4,6.79a14,14,0,0,0,7.09-2.47A32.88,32.88,0,0,0,3201.67,178.11Z" fill="none"/>
    </clipPath>
    <clipPath id="Headline-clip-path-25">
      <path id="Headline_l1_clip" d="M3278.17,223.46c-1.54-2.68-2.31-6.58-2.31-11.73a122.25,122.25,0,0,1,2.47-24.68l.3-2.46c.21-1.24.51-3.24.93-6s.72-3.55.92-2.31l1.86-8.33q2.14-8.64,4.16-16c1.33-4.94,2.42-8.54,3.24-10.8l3.39-10.8q9.26-29.91,17.28-40.41a8.92,8.92,0,0,1,.92-2.31,9.23,9.23,0,0,0,.93-2.32,13.84,13.84,0,0,1,1.85-7.71q2.78-4.62,4.63-8.33l1.23-3.39,8.64-17.59a21.32,21.32,0,0,1,3.85-6.78,15.31,15.31,0,0,1,6-4.94l-.31-.31q1.54-2.46,5.71-4.32a18.42,18.42,0,0,1,7.25-1.85,8.8,8.8,0,0,1,6.48,2.47,9.21,9.21,0,0,1,2.47,6.79v3.08a15.6,15.6,0,0,1-.47,4.32,13.45,13.45,0,0,1-2,3.7h.31c.2.21,0,.88-.47,2s-1,2.21-1.39,3.24c-1.44,3.7-2.46,5.76-3.08,6.17q-2.16,2.77-14.19,26.07t-15.43,32.23l-1.23,4.63-.62,1.85c-2.26,4.94-3.5,7.61-3.7,8l-4.93,19.13-1.24,6.48-2.77,7.09-1.86,5.86a22.34,22.34,0,0,0-1.08,4,6.75,6.75,0,0,1-1.07,3.09l-.31,1.54q-.32,1.23-2.16,7.1-2.78,8.64-4,14.34a74.16,74.16,0,0,0-1.55,12.19l-.3,1.23q-.93,6.78-3.86,10.18a6.91,6.91,0,0,1-7.56,2.16A12.16,12.16,0,0,1,3278.17,223.46Z" fill="none"/>
    </clipPath>
    <clipPath id="Headline-clip-path-26">
      <path id="Headline_i1_clip" d="M3343,208c-2.37-1-4-1.74-4.78-2.16a12.6,12.6,0,0,0-.77-3.24,12.8,12.8,0,0,1-.77-2.93,9.64,9.64,0,0,1-4.48-4.16,7.38,7.38,0,0,1-.77-6q4.32-7.4,15.58-34.09t12.5-30.69q0-6.78,4.31-9.56a7.4,7.4,0,0,1,4.32-1.55q5.25,0,9.87,7.1a29.78,29.78,0,0,1,4.63,16.66q0,3.71-6.94,21.13t-15.58,35q-4.93,9.89-7.25,13a6.65,6.65,0,0,1-5.4,3.08A16.71,16.71,0,0,1,3343,208Zm37.48-120a33.44,33.44,0,0,1-9.1-8.79,18.69,18.69,0,0,1-3.85-10.95q0-1.86,6.48-11.42c2.87-3.9,4.31-6.27,4.31-7.09a22.45,22.45,0,0,1,5.56.92,32.57,32.57,0,0,1,5.86,2.16q1.84,4.32,7.4,11.11a57.43,57.43,0,0,1,5.4,7.71,13.29,13.29,0,0,1,1.7,6.48q0,6.78-3.55,10t-11.26,3.24Q3385.68,91.42,3380.43,88Z" fill="none"/>
    </clipPath>
    <clipPath id="Headline-clip-path-27">
      <path id="Headline_t5_clip" d="M3409.12,212.2q-6.16-6.94-7.71-11.88a2.37,2.37,0,0,0-.62-1.39c-.41-.51-.72-.87-.92-1.08q-1.24-.93-1.24-10.18,0-7.39.78-15.42a91.29,91.29,0,0,1,2-13l5.55-16.35,4.32-12.34,8.33-17.89-12.34-3.39a5.28,5.28,0,0,1-3.55-2.16,5.88,5.88,0,0,1-1.38-3.4c0-1.64.87-4,2.62-7.09s3.13-4.63,4.16-4.63a21.88,21.88,0,0,0,4.94.31,76.23,76.23,0,0,0,13.88-.93,7.48,7.48,0,0,0,4.32-4.93,40.89,40.89,0,0,1,3.08-5.71q1.54-2.31,3.09-5.09c.62-1.23,1.59-3.13,2.93-5.71s3-5.5,5.09-8.79q.62-.93,2.78-4.47a22.73,22.73,0,0,1,5.24-6,16,16,0,0,1,4.94-2.62,18.53,18.53,0,0,1,6.17-1.08,12.76,12.76,0,0,1,8.94,3.09q2.78,4.32,2.78,6.47c0,1.65-.83,3.81-2.47,6.48a83.53,83.53,0,0,1-6.17,9.87q-3.7,5.57-5.55,9-3.09,4-3.09,6.17t4,2.16a94,94,0,0,0,14.5-1.85,23.8,23.8,0,0,1,4.32-.31q7.41,0,10.49,4.32a18.16,18.16,0,0,1,3.08,10.8c0,2.88-1,4.62-2.93,5.24s-6.32.93-13.11.93a131.53,131.53,0,0,1-20.36,1.54c-1.23,0-2.62,0-4.16.15a27.92,27.92,0,0,0-4.78.77,6.86,6.86,0,0,0-3.55,1.85,16.59,16.59,0,0,0-2.31,4q-.93.93-4.32,7.1c-2.89,6-4.74,9.56-5.56,10.8A314.92,314.92,0,0,0,3423,184a29.7,29.7,0,0,0-.3,4.63c0,2.67.87,4.58,2.62,5.7s5.19,1.7,10.33,1.7a60.35,60.35,0,0,0,16.35-2.16,123.49,123.49,0,0,0,13.88-6.79c1.86-1,3.55-2,5.09-2.93s2.63-1.59,3.24-2c.82-1.64,2.21-1.44,4.17.62a21.32,21.32,0,0,1,4.47,7.09,22.78,22.78,0,0,1-2.16,10q-2.16,4.47-10.8,9.41a74.24,74.24,0,0,1-20.35,8.94,77.46,77.46,0,0,1-19.75,2.78,45.46,45.46,0,0,1-9.56-.93Q3415.3,219.15,3409.12,212.2Z" fill="none"/>
    </clipPath>
    <clipPath id="Headline-clip-path-28">
      <path id="Headline_i2_clip-2" data-name="Headline_i2_clip" d="M3498.58,199.09q0-5.86,1.54-9a13.49,13.49,0,0,1,.62-3.7,14,14,0,0,0,.62-2.78q-.32-1.84,2.46-10.18,3.7-8.32,9.41-25.6t7.87-24.68a3.36,3.36,0,0,1,1.23-2.62,6.78,6.78,0,0,1,3.7-1.39q3.39-1.23,8.64,2.93a39.11,39.11,0,0,1,8.64,9.41,6.68,6.68,0,0,1,1.85,4.93q0,4.64-4,13a58.05,58.05,0,0,0-2.93,8.33c-.93,3.29-1.7,6.38-2.31,9.25a135.85,135.85,0,0,0-5.87,15.43c-.61,2.67-1,4.73-1.23,6.17q-2.16,11.42-4,14.8-1.85,7.72-5.24,11.57a10.08,10.08,0,0,1-7.72,3.86,11.37,11.37,0,0,1-8.94-4.32Q3498.57,210.19,3498.58,199.09Zm32.7-113.84a17,17,0,0,1-2.16-6.48c-.21-2,0-3.28.62-3.7a29.12,29.12,0,0,0,3.7-5.86c1.23-2.47,2.16-4.21,2.77-5.24a71.75,71.75,0,0,1,4-8q2.16-4.32,4-4.63a9.56,9.56,0,0,1,4-1.23,17.78,17.78,0,0,1,8.79,2.77,21.48,21.48,0,0,1,7.25,6.48,22.27,22.27,0,0,1,2.16,8.64q0,7.39-7.1,16.35a21.32,21.32,0,0,1-7.4,6.17,19.2,19.2,0,0,1-8.64,2.16,12.61,12.61,0,0,1-7.1-1.85A16,16,0,0,1,3531.28,85.25Z" fill="none"/>
    </clipPath>
    <clipPath id="Headline-clip-path-29">
      <path id="Headline_e4_clip" d="M3558.43,185.2q0-14.49,7.24-32.85a141.59,141.59,0,0,1,18.21-33q10.93-14.64,21.74-19.59a28.81,28.81,0,0,1,13.58-3.08q13.88,0,24.21,6t10.34,22.68q0,9.55-6.48,21a67.22,67.22,0,0,1-16.19,19.28q-9.72,7.88-19,7.87-13.87,0-23.44-8.95-5.25,10.5-5.25,20.06,0,7.71,1.85,11.87t8.64,4.17a25.32,25.32,0,0,0,10.49-1.85,43.74,43.74,0,0,0,7.4-4.32q3.39-2.47,5.25-3.7l1.23-.62H3618q5.57-3.07,8.18-4.78a21.18,21.18,0,0,1,4.47-2.32,14.91,14.91,0,0,1,8.64,2.78c2.67,1.85,4,4.12,4,6.79q0,3.09-5.55,10t-11.42,9.72l-3.7,1.85h.31q-2.78,3.7-5.55,3.7h-2.47q-1.24,2.47-8.18,4.94a39.26,39.26,0,0,1-13.11,2.47Q3558.43,225.31,3558.43,185.2ZM3624,143.56q5.7-7.41,5.71-14.81a11.62,11.62,0,0,0-1.7-6.17,5.09,5.09,0,0,0-4.47-2.78q-5.25,0-11.73,4.94a47.06,47.06,0,0,0-11.41,13l-4,6.47a4.71,4.71,0,0,1,1.85-.61,4,4,0,0,1,3.7,2.16,17.3,17.3,0,0,0,2.78,3.7q1.55,1.54,4.93,1.54Q3618.27,151,3624,143.56Z" fill="none"/>
    </clipPath>
    <clipPath id="Headline-clip-path-30">
      <path id="Headline_s_clip" d="M3676.58,217.29a37.85,37.85,0,0,1-13.27-11q-4.93-6.62-4.93-13.11c0-3.49,1.43-5.24,4.32-5.24a17.84,17.84,0,0,1,6.47,3.39c3.09,1.85,5.71,3.3,7.87,4.32a15.24,15.24,0,0,0,6.63,1.54,22.46,22.46,0,0,0,9.1-1.69q3.86-1.69,4.48-5.09a26.18,26.18,0,0,0-1.24-5.4,38.9,38.9,0,0,0-3.08-7.56,61.94,61.94,0,0,1-9.1-19.9,123.37,123.37,0,0,1-2.93-22.67q0-7.09,10.33-17a119,119,0,0,1,24.06-17.58q13.73-7.71,22.37-8.64,17,0,20.36,2.78,4.32,3.39,8,11.1t3.7,13a11,11,0,0,1-2,5.4q-2,3.24-2.63,4.16l-2.77,4.32-2.16,4.63c-.42,1-1.08,2.57-2,4.63s-1.75,3.29-2.46,3.7a5.26,5.26,0,0,1-3.24.31q-5.25,0-9.57-4.63a14.63,14.63,0,0,1-4.32-10.18,14,14,0,0,1,2.78-8q2.78-4,2.78-4.63c0-.82-.93-1.23-2.78-1.23q-4,0-12.34,4a52.23,52.23,0,0,0-14.81,10.64q-6.48,6.65-6.47,14.65a35.76,35.76,0,0,0,1.69,10,43.21,43.21,0,0,0,3.86,9.41q2.46,2.47,7.25,14.65t4.78,19.28q0,10.8-8.18,16.35t-22.67,5.56A38.39,38.39,0,0,1,3676.58,217.29Z" fill="none"/>
    </clipPath>
  </defs>
  <desc id="headline_name_description">Page headline</desc>
  <g id="Headline">
    <g id="Headline_a_mask">
      <g clip-path="url(#Headline-clip-path)">
        <path id="Headline_a" d="M28.5,238.5c42.7-82.89,87.75-157.68,137-218,11.08,18.4,10.25,55.71,0,108l-81,1,89,6-8,110" fill="none" stroke="#fff" stroke-width="42"/>
      </g>
    </g>
    <g id="Headline_t_mask">
      <g clip-path="url(#Headline-clip-path-2)">
        <path id="Headline_t" d="M289,47c62.35-12.24,119.15-15.65,169-8l-85-4c-13.2,65-37.33,137.4-69,215" fill="none" stroke="#fff" stroke-width="37"/>
      </g>
    </g>
    <g id="Headline_i_mask">
      <g clip-path="url(#Headline-clip-path-3)">
        <line id="Headline_i1" x1="454.5" y1="119.5" x2="421.5" y2="225.5" fill="none" stroke="#fff" stroke-width="30"/>
        <line id="Headline_i2" x1="476.5" y1="49.5" x2="456.5" y2="96.5" fill="none" stroke="#fff" stroke-width="35"/>
      </g>
    </g>
    <g id="Headline_m_mask">
      <g clip-path="url(#Headline-clip-path-4)">
        <path id="Headline_m" d="M519.5,89.5l-35,110c28.64-38.49,55.22-55.43,81-64l-18,64c22.86-25.29,47-42.78,72-55-.2,32.35,10.1,51.66,22,69" fill="none" stroke="#fff" stroke-width="50"/>
      </g>
    </g>
    <g id="Headline_e_mask">
      <g clip-path="url(#Headline-clip-path-5)">
        <path id="Headline_e" d="M678,150c6.66,8.4,19.52,12.18,35,14,12.7-7.68,22.27-22.58,29-44-8.11-8.29-19.62-13.42-35.5-14.5-29.93,24.3-44,58.81-40,105,26.61,2.62,53.62-6.5,81-27" fill="none" stroke="#fff" stroke-width="35"/>
      </g>
    </g>
    <g id="Headline_l_mask">
      <g clip-path="url(#Headline-clip-path-6)">
        <line id="Headline_l" x1="828.5" y1="13.5" x2="760.5" y2="213.5" fill="none" stroke="#fff" stroke-width="33"/>
      </g>
    </g>
    <g id="Headline_i2_mask">
      <g clip-path="url(#Headline-clip-path-7)">
        <line id="Headline_i3" x1="858.5" y1="113.5" x2="810.5" y2="217.5" fill="none" stroke="#fff" stroke-width="32"/>
        <line id="Headline_i4" x1="848.5" y1="52.5" x2="880.5" y2="96.5" fill="none" stroke="#fff" stroke-width="36"/>
      </g>
    </g>
    <g id="Headline_n_mask">
      <g clip-path="url(#Headline-clip-path-8)">
        <path id="Headline_n" d="M917,94,883,210c28-28.81,54.1-51.76,77-65,1.32,19.63,3.85,38.06,11,52l29.47-15.77" fill="none" stroke="#fff" stroke-width="40"/>
      </g>
    </g>
    <g id="Headline_e1_mask">
      <g clip-path="url(#Headline-clip-path-9)">
        <path id="Headline_e1" d="M1042,154l38-2,23-30c-6.72-5.35-17-10.41-33-15-28.73,23.38-43.62,54.05-39,95,26.55,5.59,53.7-4.1,81-18" fill="none" stroke="#fff" stroke-width="33"/>
      </g>
    </g>
    <g id="Headline_o_mask">
      <g clip-path="url(#Headline-clip-path-10)">
        <path id="Headline_o" d="M1302.5,121.5c-27.09,7.41-51.89,12.54-64,5l32-29c-43.54,32.17-63.83,60.44-68,86,2.35,7.75,10.44,15.14,27,22,20.23-10.79,36.49-27.09,48-50l-6-23Z" fill="none" stroke="#fff" stroke-miterlimit="10" stroke-width="36"/>
      </g>
    </g>
    <g id="Headline_f_mask">
      <g clip-path="url(#Headline-clip-path-11)">
        <path id="Headline_f" d="M1399,82c12.06-21.29,21.84-41,23-55-29.57-11.49-59.71,11.56-91,106l81-13c-69.64-4-109.07,37.43-109.5,137.5" fill="none" stroke="#fff" stroke-miterlimit="10" stroke-width="44"/>
      </g>
    </g>
    <g id="Headline_d_mask">
      <g clip-path="url(#Headline-clip-path-12)">
        <path id="Headline_d" d="M1492,20c53.4-17.57,100.34-2.59,141,44,.56,95.64-34.1,154-103,176l-54-8,72.5-216.5" fill="none" stroke="#fff" stroke-miterlimit="10" stroke-width="44"/>
      </g>
    </g>
    <g id="Headline_e2_mask">
      <g clip-path="url(#Headline-clip-path-13)">
        <path id="Headline_e2" d="M1642,138l58,21c19.69-5.13,31.53-16.17,37-32-4.56-15.14-15.31-21.91-31-22-28.64,26-44.75,57-34.5,98.5,22.3,9.84,47.35-3.4,74-30" fill="none" stroke="#fff" stroke-miterlimit="10" stroke-width="36"/>
      </g>
    </g>
    <g id="Headline_a_mask-2" data-name="Headline_a_mask">
      <g clip-path="url(#Headline-clip-path-14)">
        <path id="Headline_a-2" data-name="Headline_a" d="M1851,131c-7.25-10.56-17.83-17.33-32-20-23.58,20.45-42.79,46.72-59,77,.47,9,6.1,15.93,21,19,31.24-20.79,58.21-56.35,84-96q-42.59,84.58,24.5,99.5" fill="none" stroke="#fff" stroke-miterlimit="10" stroke-width="37"/>
      </g>
    </g>
    <g id="Headline_t2_mask">
      <g clip-path="url(#Headline-clip-path-15)">
        <path id="Headline_t2" d="M1962.5,50.5l-22,59-56,7,114-10c-55.33-10.18-76.94,26.51-80,89,16.36,17.78,37,17.71,62,0" fill="none" stroke="#fff" stroke-miterlimit="10" stroke-width="36"/>
      </g>
    </g>
    <g id="Headline_h_mask">
      <g clip-path="url(#Headline-clip-path-16)">
        <path id="Headline_h" d="M2071,22l-75,188c38.13-40.05,68.46-65.08,92-77,7.67,17.11,11.58,49.94,14,89" fill="none" stroke="#fff" stroke-miterlimit="10" stroke-width="48"/>
      </g>
    </g>
    <g id="Headline_n1_mask">
      <g clip-path="url(#Headline-clip-path-17)">
        <path id="Headline_n1" d="M2208,234c30.83-79,61-147.4,90-199a682.63,682.63,0,0,0,26,159c31.74-49.64,54.56-112.57,73-182" fill="none" stroke="#fff" stroke-miterlimit="10" stroke-width="43"/>
      </g>
    </g>
    <g id="Headline_o1_mask">
      <g clip-path="url(#Headline-clip-path-18)">
        <path id="Headline_o1" d="M2496.5,124.5l-64,3,36-30c-42.68,27.23-62.64,59.64-74,94,10.44,11.4,22.21,15.49,35,14,18.05-12.86,32.86-31.06,46-52l-15-19Z" fill="none" stroke="#fff" stroke-miterlimit="10" stroke-width="37"/>
      </g>
    </g>
    <g id="Headline_t3_mask">
      <g clip-path="url(#Headline-clip-path-19)">
        <path id="Headline_t3" d="M2574.5,42.5l-31,59-40-4c29.28,6.19,65.94,5.58,108,0-29.52,2.74-66.94,3.27-75,12-18.92,48-25.41,84.32-12,102,23.67-2.38,46.6-11.73,69-26" fill="none" stroke="#fff" stroke-miterlimit="10" stroke-width="31"/>
      </g>
    </g>
    <g id="Headline_e3_mask">
      <g clip-path="url(#Headline-clip-path-20)">
        <path id="Headline_e3" d="M2593.5,130.5c20.83,16.61,42.87,29.37,69,29,13.76-8.44,23.07-19.3,29-32-7.3-15.82-18.31-22.08-31-24-38.56,29.4-52.3,60.89-35,95,13.24,19.61,37.78,4,66-23" fill="none" stroke="#fff" stroke-miterlimit="10" stroke-width="36"/>
      </g>
    </g>
    <g id="Headline_f_mask-2" data-name="Headline_f_mask">
      <g clip-path="url(#Headline-clip-path-21)">
        <polyline id="Headline_f-2" data-name="Headline_f" points="2952.5 30.5 2855.5 37.5 2829.5 110.5 2931.5 103.5 2824.5 115.5 2783.5 224.5" fill="none" stroke="#fff" stroke-miterlimit="10" stroke-width="40"/>
      </g>
    </g>
    <g id="Headline_a1_mask">
      <g clip-path="url(#Headline-clip-path-22)">
        <path id="Headline_a1" d="M3013,125c-10.41-9.34-23.51-14.68-40-15-20.52,24.25-37.67,50-50,78,1.67,8.93,6.33,16.08,23,16,32.3-20.44,56.55-53.81,77.5-92.5-28.93,59.39-22,92.91,27,96" fill="none" stroke="#fff" stroke-miterlimit="10" stroke-width="37"/>
      </g>
    </g>
    <g id="Headline_t4_mask">
      <g clip-path="url(#Headline-clip-path-23)">
        <path id="Headline_t4" d="M3126.5,55.5l-31,60h-42l115-10c-80.62-5.18-98.39,36.93-83,104,18.61-1.45,36.9-7,55-15" fill="none" stroke="#fff" stroke-miterlimit="10" stroke-width="36"/>
      </g>
    </g>
    <g id="Headline_a2_mask">
      <g clip-path="url(#Headline-clip-path-24)">
        <path id="Headline_a2" d="M3247,124l-23-30c-24.94,22.16-52.1,63-61.66,104.46l25,11c18.28-14.15,43.47-60.55,61.68-105.83-8.25,73.57-.63,102.77,23.48,85.87" fill="none" stroke="#fff" stroke-miterlimit="10" stroke-width="57"/>
      </g>
    </g>
    <g id="Headline_l1_mask">
      <g clip-path="url(#Headline-clip-path-25)">
        <path id="Headline_l1" d="M3363.5,26.5c-44.7,59.66-71.06,129.5-80,209" fill="none" stroke="#fff" stroke-miterlimit="10" stroke-width="35"/>
      </g>
    </g>
    <g id="Headline_i1_mask">
      <g clip-path="url(#Headline-clip-path-26)">
        <line id="Headline_i1-2" data-name="Headline_i1" x1="3377.5" y1="111.5" x2="3336.5" y2="209.5" fill="none" stroke="#fff" stroke-miterlimit="10" stroke-width="36"/>
        <line id="Headline_i2-2" data-name="Headline_i2" x1="3371.5" y1="52.5" x2="3400.5" y2="91.5" fill="none" stroke="#fff" stroke-miterlimit="10" stroke-width="34"/>
      </g>
    </g>
    <g id="Headline_t5_mask">
      <g clip-path="url(#Headline-clip-path-27)">
        <path id="Headline_t5" d="M3475,42l-38,61,77-6c-45.91,6.77-87.11,7-123,0,44.89-2.65,58.54,12.47,19,57.86,0,30.34,6.54,49.31,19,58.14,22.52-6.28,41.43-17.91,58-33" fill="none" stroke="#fff" stroke-miterlimit="10" stroke-width="40"/>
      </g>
    </g>
    <g id="Headline_i2_mask-2" data-name="Headline_i2_mask">
      <g clip-path="url(#Headline-clip-path-28)">
        <line id="Headline_i4-2" data-name="Headline_i4" x1="3541" y1="117" x2="3505" y2="227" fill="none" stroke="#fff" stroke-miterlimit="10" stroke-width="38"/>
        <line id="Headline_i5" x1="3554.5" y1="47.5" x2="3540.5" y2="96.5" fill="none" stroke="#fff" stroke-miterlimit="10" stroke-width="38"/>
      </g>
    </g>
    <g id="Headline_e4_mask">
      <g clip-path="url(#Headline-clip-path-29)">
        <path id="Headline_e4" d="M3581,148l35,17c16.53-11.6,27.31-25.21,27.5-42.5-5-19-20.15-18.17-37-14-33.91,40.12-36.94,71.29-28,99,18.23,8.66,39.79.5,65-26" fill="none" stroke="#fff" stroke-miterlimit="10" stroke-width="33"/>
      </g>
    </g>
    <g id="Headline_s_mask">
      <g clip-path="url(#Headline-clip-path-30)">
        <path id="Headline_s" d="M3746.5,149.5c9.73-18.3,16.49-34.7,9-42-14.56-8.64-34.94,1.22-60,26l19,72c-16.11,4.75-36.9-.77-58-7" fill="none" stroke="#fff" stroke-miterlimit="10" stroke-width="37"/>
      </g>
    </g>
  </g>
</svg>