<svg xmlns="http://www.w3.org/2000/svg" xmlns:xlink="http://www.w3.org/1999/xlink" width="1368" height="250" viewBox="0 60 1368 250" aria-labelledby="hirokazu_name_description">
  <defs>
    <clipPath id="Hirokazu-clip-path">
      <path id="Hirokazu_r_clip" d="M223,253.13a8.14,8.14,0,0,1-.82-4.11,25.87,25.87,0,0,1,.27-4.1,130,130,0,0,1,4.11-21.61l1.37-5.47q.81-6.84,9.57-28.72t14.22-29.82a8.65,8.65,0,0,1,4.65-1.37,8.19,8.19,0,0,1,6,2.46c1.1.74,1.64,2.1,1.64,4.11q0,2.73-2,8.07t-7,15.73c-.73,1.46-2,4.19-3.7,8.2s-2.6,6.39-2.6,7.11c0,.37.09.55.28.55a1.83,1.83,0,0,0,1.09-.41,7.29,7.29,0,0,1,1.1-.68q3-5.2,14.63-14.23t16-11.21a32.51,32.51,0,0,1,4.93-2.19c2-.73,3.37-1.27,4.1-1.64a23,23,0,0,1,10.4-2.19,16.94,16.94,0,0,1,6.7,1.23,7.21,7.21,0,0,1,4,3.69,4.74,4.74,0,0,0,1.51,3,9.9,9.9,0,0,0,1.78,1.37,1.07,1.07,0,0,1,1.09.68,3.23,3.23,0,0,1,.27,1c0,1.28-.73,2-2.19,2.33a68.78,68.78,0,0,1-7.93.68,27.74,27.74,0,0,0-6.29,1.37,50.11,50.11,0,0,0-6.56,2.73q-15.33,8.76-22.84,13.68a79.65,79.65,0,0,0-15.19,13.4q-3,3.28-7.93,11.77-1.92,1.91-4,10t-2,10c-.18.55-.54,1.6-1.09,3.15a16.94,16.94,0,0,1-2.46,4.51c-2.19,2.92-4,4.38-5.47,4.38-1.65,0-3.83-1.46-6.57-4.38A11.57,11.57,0,0,1,223,253.13Z" fill="none"/>
    </clipPath>
    <clipPath id="Hirokazu-clip-path-2">
      <path id="Hirokazu_o_clip" d="M342,256.13a5,5,0,0,1-2.74-.68,19,19,0,0,1-3-2.6,22.7,22.7,0,0,1-9.43-8.61c-2.29-3.74-3.24-7.07-2.88-10q1.09-12.57,7.25-27.63a122.89,122.89,0,0,1,14.64-26.53q8.47-11.49,16.41-14.22a23.59,23.59,0,0,1,8.21-1.92q6.56,0,9.3,5.47c1.27,2.56,1.91,4.47,1.91,5.75,0,2.18-1.28,3.65-3.83,4.37a3.41,3.41,0,0,0-1.91.82,2.23,2.23,0,0,0-1.1,1.64,5.36,5.36,0,0,0,2.47.28,60.59,60.59,0,0,0,11.48-1.37q6.84-1.36,8.76-3a6.37,6.37,0,0,1,2.73-.82l3.83.55c3.1.91,4.65,2,4.65,3.28a3.13,3.13,0,0,0,.82,2.05,2.47,2.47,0,0,0,1.92,1c1.09.18,1,.91-.41,2.19s-4,3.37-7.8,6.29q-1.37.82-4,2.46c-1.74,1.1-2.74,2-3,2.74a4.9,4.9,0,0,0,.13,3,14.82,14.82,0,0,1,1.1,6q0,9-7.8,20a80.72,80.72,0,0,1-19.42,19.15q-11.62,8.2-22.29,9.57A34.31,34.31,0,0,1,342,256.13ZM351.55,240q3.56-3.56,5.75-4.38c1.27,0,3-1,5.19-2.87s5.57-5.79,10.13-11.63A90,90,0,0,0,380.41,211a14.89,14.89,0,0,0,2.6-7.93,8.45,8.45,0,0,0-.27-2.47,3.11,3.11,0,0,0-1.78-1.5c-1-.45-2-.86-2.87-1.23a8.65,8.65,0,0,1-4.52-1.23,63.2,63.2,0,0,1-5.88-4.24l-4.38-5.47-4.64,4.65q-6.57,6.57-13.41,21.47t-7.66,23.12q-.27,3.83,1.23,5.33a7.09,7.09,0,0,0,4.52,1.78C344.44,243.28,347.18,242.18,351.55,240Z" fill="none"/>
    </clipPath>
    <clipPath id="Hirokazu-clip-path-3">
      <path id="Hirokazu_k_clip" d="M465.89,203.34c-1.09.91-2.73,2.33-4.92,4.24a34.24,34.24,0,0,1-5.75,4.24,26.68,26.68,0,0,0,3.56,5.2l4.65,7.11q9.3,14.51,13.68,19.15t13.4,10.12a5.31,5.31,0,0,1,2.19,4.92c-.73,2-1.5,3.24-2.33,3.7a40.15,40.15,0,0,1-7.24,2.05A15.74,15.74,0,0,1,477,262.7a92.55,92.55,0,0,1-8.62-6,149.56,149.56,0,0,1-12.72-14.63q-8.34-10.53-15.18-20.11a4.32,4.32,0,0,1-2.19-2.73q-4.92,11.76-4.92,14.22a57.42,57.42,0,0,0-2.46,9.57q-1.92,8.49-4.1,12.59-.55,6-4.11,6a9.91,9.91,0,0,1-4.92-1.91,13.69,13.69,0,0,1-4-3.28,6.66,6.66,0,0,1-1.23-4.11,32.82,32.82,0,0,1,1.37-8.75q1.36-4.92,3-9.57a95.41,95.41,0,0,1,2.32-10.81,30.36,30.36,0,0,1,4-8.34c1.46-4.38,2.91-8.39,4.38-12q7.38-21.06,9.57-29,3.29-7.11,6.29-15.05,3.29-6.83,9.58-22.15l3.28-9.58q3.82-12.3,7.93-18.33c.55-.72,2.19-3.28,4.93-7.65.17-.73.91-1.1,2.18-1.1a9.07,9.07,0,0,1,3.56.69,5.8,5.8,0,0,1,2.46,1.77q1.37-.27,3.15,3.56t1.5,6a12.69,12.69,0,0,1-2.19,6.56,17.18,17.18,0,0,0-2.19,3.28,56.63,56.63,0,0,1-3.28,5.2c-.54,1.64-1.23,3.93-2.05,6.84a32.75,32.75,0,0,1-2.6,6.84q-1.1,2.46-2.87,5.88a40.37,40.37,0,0,0-2.33,5.06q-1.36,3.56-4.65,10.67-4.65,10.4-5.74,13.95-.56,1.92-3,9.16a105.79,105.79,0,0,1-5.47,13.27,15.4,15.4,0,0,1,1.91-2.05,6.7,6.7,0,0,0,1.37-1.51c.18-.72,1.23-1.82,3.15-3.28a44.44,44.44,0,0,0,4-3.28,226.18,226.18,0,0,0,19.84-14.09Q488,165,490.24,162.86a4.71,4.71,0,0,1,3.28-1.65,6.79,6.79,0,0,1,3,.83c2.19.54,3.65,1.41,4.38,2.59s1.09,3.42,1.09,6.71q.83,3-2.19,6.29a54.44,54.44,0,0,1-9.57,7.66,101.92,101.92,0,0,0-12.31,9.3A69,69,0,0,0,465.89,203.34Z" fill="none"/>
    </clipPath>
    <clipPath id="Hirokazu-clip-path-4">
      <path id="Hirokazu_a1_clip" d="M522,253.67c-3.83-2.73-6.12-5.74-6.84-9a15.78,15.78,0,0,1-.28-3.56q0-10.12,7.8-26.12a147.25,147.25,0,0,1,19-29.55q11.22-13.53,20.52-17.09,5.75-3,7.38-3t7.39,3a19.32,19.32,0,0,1,5.74,2.46,25.67,25.67,0,0,1,4.93,5.47,60.46,60.46,0,0,1,5.19,17.51,34.59,34.59,0,0,1,1.65,8.2,5.23,5.23,0,0,1-1.65,3.83c-.18.19-.5.55-.95,1.1a2.34,2.34,0,0,0-.69,1.23c0,.27.18.41.55.41a6.29,6.29,0,0,1-.27,1.23,17.08,17.08,0,0,1-1.1,2.6q-3.29,10.4-3.28,17.78a26.06,26.06,0,0,0,.55,5.19q2.73,7.13,9.3,7.12,5.46,0,10.39-4.93c2.92-2,5.06-3.42,6.43-4.24s2-.59,2,.69a8.68,8.68,0,0,0,1.1.82,2.86,2.86,0,0,0,1.64.54c1.27,0,1.91.83,1.91,2.47a10.49,10.49,0,0,1-1.91,5.47,40.21,40.21,0,0,0-3,3.28,4,4,0,0,0-1.1,2.19l-4.1,3.83a24.13,24.13,0,0,1-12.31,3c-4.92,0-8.85-1-11.76-3a31.22,31.22,0,0,1-7.39-7.93,31.54,31.54,0,0,1-4.65-9.31l-1.36-2.73-7.94,5.2a79.12,79.12,0,0,1-6.29,5.6q-3.55,2.88-4.65,4c-1.46,1.83-2.73,2.74-3.83,2.74h-2.73c0,1.27-1.78,2.69-5.34,4.24a24.07,24.07,0,0,1-9.44,2.32Q527.71,257.78,522,253.67Zm23.25-20.38q12.3-8.61,15.59-12.72l7.93-8.2a39.53,39.53,0,0,0,7-11.22,30.41,30.41,0,0,0,2.6-11.49c0-3.1-.46-5.28-1.37-6.56-.73-2.19-1.83-3.28-3.28-3.28-.74,0-2.83.64-6.3,1.91q-5.19,3.28-14.63,15.05A209.76,209.76,0,0,0,535.92,221q-7.39,12.45-7.39,18.19a2.93,2.93,0,0,0,.55,1.65,7.36,7.36,0,0,0,.82,1.09Q532.9,241.91,545.22,233.29Z" fill="none"/>
    </clipPath>
    <clipPath id="Hirokazu-clip-path-5">
      <path id="Hirokazu_u1_clip" d="M769.52,246.56a20.32,20.32,0,0,1-.55-5.74v-5.75a17.5,17.5,0,0,1-6,7.39,46.84,46.84,0,0,1-12.58,9.3q-9.58,6.28-15.59,6.29-5.47,0-10.4-6a24.05,24.05,0,0,1-5.33-6,14.2,14.2,0,0,1-1.78-7.38,29.18,29.18,0,0,1,.82-6.57A102.48,102.48,0,0,1,721,212.64q2.32-9.3,8.89-23.8,8.76-17.24,12.59-23a9.55,9.55,0,0,1,3.55-.55A6.4,6.4,0,0,1,750.5,167a6.62,6.62,0,0,1,2.06,4.38,5,5,0,0,1,.82,3q0,6.85-8.21,22.44-10.67,25.71-10.67,35.56c0,3.83,1.1,6.11,3.28,6.83a5.76,5.76,0,0,0,3,.83q6.84,0,16.42-9.31t18.32-29.81a63.52,63.52,0,0,0,4.65-19.15,8.42,8.42,0,0,1-.27-2.46q0-4.92,4.92-7.93a7.58,7.58,0,0,1,3-2.6c1.28-.64,2.1-.59,2.47.13l4.37-.27c.55-.18,1.1.32,1.64,1.5a5.67,5.67,0,0,0,1.64,2.33q1.92,1.63,1.92,6,0,9-7.93,27.63a130.79,130.79,0,0,0-7,16.82,47,47,0,0,0-2.05,11.35,21.76,21.76,0,0,0,7.93,17.23,7.51,7.51,0,0,1,3.28,4.11,19.87,19.87,0,0,1,.28,6,6.09,6.09,0,0,1-3.15,4,11,11,0,0,1-5.61,1.51,10.74,10.74,0,0,1-6.29-1.92Q772.81,258.88,769.52,246.56Z" fill="none"/>
    </clipPath>
    <clipPath id="Hirokazu-clip-path-6">
      <path id="Hirokazu_u2_clip" d="M894.38,264.48Q888,253.95,888,234.8q0-17,5.47-44.32,4.1-20,14.08-47.73t20.38-46.09q6-10.39,9.3-13.68t6.57-2.73a12.11,12.11,0,0,1,6.84,4.24,10.68,10.68,0,0,1,2.46,6.7q0,5.75-5.47,9.3-2.19,2.46-6,9.71t-4.92,9.16l-6.57,12.31Q920.51,159,916,173.8A244.83,244.83,0,0,0,908.74,205q-3.82,18.33-4.78,27a129.64,129.64,0,0,0-1,13.54v6.29c.55,1.09,1.27,2.51,2.19,4.24a20,20,0,0,0,2.46,3.83,4.43,4.43,0,0,0,2.46,1.5A15.13,15.13,0,0,0,917,262.7q7.38,0,15.32-4.65a8.14,8.14,0,0,1,3.15-3.42c1.36-.82,2.23-1.32,2.59-1.5.37.54.64.82.82.82.55,0,1-.64,1.37-1.92v-.27q0-1.37,2.46-3.83,2.73-1.1,9-8.48a171.54,171.54,0,0,0,11.63-15.32q5.32-7.94,5.33-9.57a4.7,4.7,0,0,1,1.5-3c1-1.1,1.69-1.82,2.06-2.19q1.9-1.92,9.71-16.69t14.36-28.45q4.1-13.4,11.35-37.75t8.62-31.18a23.62,23.62,0,0,1,1.64-6c.72-1.64,1.18-2.73,1.37-3.28q1.9-.54,5.88,1.51c2.64,1.36,4.33,2.23,5.06,2.59a7.1,7.1,0,0,1,1.37,4.65q0,3.29-2.47,13.68-1.36,5.47-3.55,16.41a272.75,272.75,0,0,1-10.4,32.55q-6,15.33-15.59,36.93c-.73,1.65-1.55,3.42-2.46,5.34s-1.83,4.06-2.74,6.43v1.64a13.35,13.35,0,0,0-5.19,5.74c-.55.92-1.23,2.15-2.06,3.69a7.8,7.8,0,0,1-2.59,3.15c-.55,1.64-1.06,3-1.51,4.1s-.78,1.83-1,2.19a4.67,4.67,0,0,1-2.46,3c-1.46.91-2.37,1.46-2.73,1.64a3.7,3.7,0,0,0-1.64,2.46,6.46,6.46,0,0,1-1.1,2.47,171.74,171.74,0,0,1-22,26.39q-12.18,11.91-22.84,15.73a26.38,26.38,0,0,1-9.57,2.19,20.67,20.67,0,0,1-5.47-.55Q900.81,275,894.38,264.48Z" fill="none"/>
    </clipPath>
    <clipPath id="Hirokazu-clip-path-7">
      <path id="Hirokazu_k2_clip" d="M1015.15,257.91q-3.55-5.33-3.56-9.71l3.83-11.49,5.2-16.41a30,30,0,0,0,4-8.62c1-3.37,1.6-5.33,1.78-5.88q2.73-5.19,10.94-25.16l5.2-12.59q7.66-16.41,12.58-29.54l4.38-10.12,5.2-12q9.57-23.23,10.67-27.08a4.87,4.87,0,0,1,1-3.28,2.75,2.75,0,0,1,2.06-1.09,6,6,0,0,1,4.37-1.37q1.36,0,4.38,4.24c2,2.83,3,5.24,3,7.25q0,4.65-4.38,16.82A250.87,250.87,0,0,1,1074,138.78q-26.82,57.72-24.62,59.91l4.65-2.32a56,56,0,0,0,7.39-4.52c1.64-.91,3.18-1.87,4.65-2.87s2.73-1.87,3.83-2.6q8.48-5.74,10.39-6.29c1.1-.73,3.19-2,6.29-3.83,3.29-2.19,5-3.37,5.2-3.56a13,13,0,0,1,5.47-1.64,4.74,4.74,0,0,1,3,1.1,27.78,27.78,0,0,1,3.28,3.28,5.9,5.9,0,0,1,1.64,3.83q0,1.92-2.18,4a54.79,54.79,0,0,1-7.39,5.33q-3.55,2.46-7.39,4.65t-7.38,4.38q-19.69,12-20.24,12.85c.36.73,1.23,2.37,2.59,4.93a64.89,64.89,0,0,0,4,6.56l4.1,7.11c2.19,3.11,3.29,5.11,3.29,6a25.77,25.77,0,0,0,6.7,10.67,13.44,13.44,0,0,0,9.16,3.83,15.18,15.18,0,0,0,5.75-1.37,19,19,0,0,1,6.56-1.64q3.83,0,5.2,4.38a6.2,6.2,0,0,1,.82,2.46q0,1.09-3.83,4.92-7.11,7.13-14.5,7.11a15.3,15.3,0,0,1-5.74-1.36q-4.11.27-10.26-5.47t-17.1-20q0-1.09-3-7.11a30.27,30.27,0,0,0-2.46-4.52l-1.91-2.87a5.61,5.61,0,0,0-1.23-2.87,24.25,24.25,0,0,1-1.78-2.88c-2-.54-3.6-.36-4.79.55a13.9,13.9,0,0,0-3.28,3.83c-1,1.64-1.78,2.83-2.33,3.56a174.18,174.18,0,0,0-5.47,17.37Q1028.28,254,1029.1,257c0,2.91-.46,4.88-1.37,5.88s-2.83,1.5-5.74,1.5Q1018.71,263.25,1015.15,257.91Z" fill="none"/>
    </clipPath>
    <clipPath id="Hirokazu-clip-path-8">
      <path id="Hirokazu_i2_clip" d="M1125.52,252a25,25,0,0,1-3.69-10.39q1.08-10.39,1.64-14.77,2.19-10.12,7-27.77t5.89-19.83a2.68,2.68,0,0,1,2.46-1.37,7.26,7.26,0,0,1,3.55,1.1,15.69,15.69,0,0,1,3.29,2.46,11.38,11.38,0,0,1,2.18,6.84q0,5.74-5.47,24.07-3.83,13.68-4.92,19.42a53.29,53.29,0,0,0-.82,12.31l-1,6.43a25.5,25.5,0,0,1-1.23,5.6,1.75,1.75,0,0,1-1.64,1.1Q1128.66,257.23,1125.52,252ZM1162,148.91a8,8,0,0,1-3.56-1.65q-2.73-.27-7.25-4.78t-4.51-5.88a27.37,27.37,0,0,1,1.64-11.77q2.19-6.28,7.93-6.56a8.19,8.19,0,0,1,2.19.41c.91.27,2.46.87,4.65,1.78l2.33,4.65a41.6,41.6,0,0,1,2.73,6.84,21.51,21.51,0,0,1,1,6,11.36,11.36,0,0,1-5.47,10.12A2.38,2.38,0,0,1,1162,148.91Z" fill="none"/>
    </clipPath>
    <clipPath id="Hirokazu-clip-path-9">
      <path id="Hirokazu_t_clip" d="M1197.6,262.7a37.32,37.32,0,0,1-6.57-5.2,36.72,36.72,0,0,1-6.43-12.17q-1.5-5.61-1.5-17.92,0-6.56,7.39-36.11-.56,1.92,1.91-7.93.82-3-2.19-3.83a34.26,34.26,0,0,0-8.48-.82q-4.65,0-5.47-.55a1.25,1.25,0,0,1-1-.82,3.6,3.6,0,0,1-.13-.82,6.94,6.94,0,0,0-1.1-3.28,1.11,1.11,0,0,1-.27-.82,4.72,4.72,0,0,1,1.5-3,5.83,5.83,0,0,1,3.7-1.91c.91-.18,3-.46,6.29-.82a39,39,0,0,0,9.3-2.19,15.79,15.79,0,0,0,6.84-4.65q3.54-9,9-20.38t7.39-13.54q4.37-2.19,6-2.19a3.74,3.74,0,0,1,2.73,1.09,31.74,31.74,0,0,1,3,3.83,13.06,13.06,0,0,0,1.37,1.92,4.36,4.36,0,0,1,1.09,2.73c0,1.47-.68,3.65-2,6.57s-4.06,8-8.07,15.32l-3.55,6.84a16,16,0,0,0,3.83.27,36.54,36.54,0,0,0,4.92-.27,62.9,62.9,0,0,1,11.22-1.1,19.2,19.2,0,0,1,3.83.27q6.29,0,9.16,2.33t3.42,7.8c.36,2,0,3.19-1.1,3.55s-4.19.55-9.3.55q-31.72,1.37-32,2.46-1.09.82-4.1,9.57t-5.2,16.69a139,139,0,0,0-3.56,29q0,11.49,3.28,15.31c.92.92,2.65,1.37,5.2,1.37a26.55,26.55,0,0,0,8.34-1.5,23.53,23.53,0,0,0,7.53-4q4.92-4.1,8.2-4.1a3.5,3.5,0,0,1,2.6,1,3.16,3.16,0,0,1,1,2.32q0,3-3.28,7.66a33.24,33.24,0,0,1-10.94,10.39q-6.86,4.11-13.13,4.11a12.58,12.58,0,0,1-4.38-.55A30.11,30.11,0,0,1,1197.6,262.7Z" fill="none"/>
    </clipPath>
    <clipPath id="Hirokazu-clip-path-10">
      <path id="Hirokazu_a2_clip" d="M1266.53,253.67q-5.74-4.09-6.84-9a16.56,16.56,0,0,1-.27-3.56q0-10.12,7.79-26.12a147.25,147.25,0,0,1,19-29.55q11.22-13.53,20.52-17.09,5.74-3,7.39-3t7.38,3a19.2,19.2,0,0,1,5.74,2.46,25.67,25.67,0,0,1,4.93,5.47,60.45,60.45,0,0,1,5.2,17.51A35,35,0,0,1,1339,202a5.26,5.26,0,0,1-1.64,3.83c-.19.19-.51.55-1,1.1a2.34,2.34,0,0,0-.69,1.23c0,.27.18.41.55.41a6.29,6.29,0,0,1-.27,1.23,17.08,17.08,0,0,1-1.1,2.6q-3.27,10.4-3.28,17.78a26.06,26.06,0,0,0,.55,5.19q2.73,7.13,9.3,7.12,5.48,0,10.39-4.93c2.92-2,5.06-3.42,6.43-4.24s2-.59,2,.69a8.68,8.68,0,0,0,1.1.82,2.89,2.89,0,0,0,1.64.54c1.27,0,1.91.83,1.91,2.47a10.49,10.49,0,0,1-1.91,5.47,42.13,42.13,0,0,0-3,3.28,4,4,0,0,0-1.09,2.19l-4.11,3.83a24.1,24.1,0,0,1-12.31,3q-7.38,0-11.76-3a37.22,37.22,0,0,1-12-17.24l-1.37-2.73-7.94,5.2a79.12,79.12,0,0,1-6.29,5.6q-3.56,2.88-4.65,4c-1.46,1.83-2.73,2.74-3.83,2.74H1292c0,1.27-1.78,2.69-5.34,4.24a24.07,24.07,0,0,1-9.43,2.32Q1272.27,257.78,1266.53,253.67Zm23.25-20.38q12.32-8.61,15.59-12.72l7.93-8.2a39.53,39.53,0,0,0,7-11.22,30.41,30.41,0,0,0,2.6-11.49c0-3.1-.46-5.28-1.37-6.56q-1.1-3.28-3.28-3.28-1.1,0-6.29,1.91-5.2,3.28-14.64,15.05a209.76,209.76,0,0,0-16.82,24.2q-7.38,12.45-7.39,18.19a2.93,2.93,0,0,0,.55,1.65,8.15,8.15,0,0,0,.82,1.09Q1277.47,241.91,1289.78,233.29Z" fill="none"/>
    </clipPath>
    <clipPath id="Hirokazu-clip-path-11">
      <path id="Hirokazu_z_clip" d="M624,249.84q0-6.28,8.89-17.64t29.41-31.87a109.25,109.25,0,0,0,13-15.45q5.34-7.8,5.34-9.71-12.87-.27-27.08.82-2.74.27-6.84.27c-4,0-7-.5-8.89-1.51a6.11,6.11,0,0,1-3.42-4.51,4.7,4.7,0,0,1-1.1-3c0-2.19,1.37-4,4.11-5.6a15.68,15.68,0,0,1,7.66-2.33c.72-.55,3.28-.82,7.66-.82q7.92,0,18.6,1t13.95,2.05A23.82,23.82,0,0,1,695.66,167c3.1,2.73,4.65,5.84,4.65,9.3,0,1.82-1.19,4.47-3.55,7.93a61.84,61.84,0,0,1-7.12,8.76l-30.09,32c-.91.92-2.73,2.78-5.47,5.61a82.25,82.25,0,0,0-6.56,7.52c-1.64,2.19-2.56,4-2.74,5.47.55,1.1,2.19,1.64,4.93,1.64q5.46,0,25.44-3.28a48.24,48.24,0,0,1,15.32-3q7.38,0,8.2,4.1c-.37,1.47-1.73,3.61-4.1,6.43s-3.93,4.15-4.65,4l-20,4.92Q652.16,263,644.78,263a25,25,0,0,1-12.31-3.55Q624,255.31,624,249.84Z" fill="none"/>
    </clipPath>
    <clipPath id="Hirokazu-clip-path-12">
      <path id="Hirokazu_h_clip" d="M18.93,287.59a11,11,0,0,0-3.55-.55A9.3,9.3,0,0,1,10,283.49a10.28,10.28,0,0,1-2-6.29,12.46,12.46,0,0,1,.28-3c.54-.55,1-2,1.5-4.24a32.21,32.21,0,0,0,.69-6.16,22.15,22.15,0,0,0,1.36-3.42c.37-1.18.82-2.87,1.37-5.06q2.19-12,10.12-40.48t9.85-30.36v-3a18.9,18.9,0,0,1,.55-3.29A14.64,14.64,0,0,1,36.17,173,65.51,65.51,0,0,0,38,166.55c.45-2.1.77-3.69.95-4.79q1.1-1.37,3.7-8.2l3.42-9q1.9-5.19,4.78-12.17t4-9.17v-1.37a35.94,35.94,0,0,0,2.87-5.6q2.32-5.07,4-8.62,1.91-4.36,10.12-22.7a37.32,37.32,0,0,1,2.6-4.79c1.18-1.92,1.77-3.24,1.77-4a4,4,0,0,1,3.83-1.91A9,9,0,0,1,85,76a11.76,11.76,0,0,1,4,4.51L91.7,84.9l-9.85,19.69q-4.11,7.13-7.11,13.68t-3,7.66q-1.1,2.73-4.24,11.21t-5.06,14.5q-1.38,4.11-3.28,8.62t-2.74,6.43a35.13,35.13,0,0,0-2.19,5.47q0-1.09,32.83-1.1,5.19,0,18.46-.27t16.55-.82l14.22-1.37,9.3-28.17q2.74-9.59,12-37.21,4.11-11.76,6.57-15.18a7.23,7.23,0,0,1,6-3.42,10.39,10.39,0,0,1,4,1.23A6.54,6.54,0,0,1,177.59,89a8.92,8.92,0,0,1,3,6.29q0,3.84-4.38,10.67-3.28,5.75-9.3,21.61-2.46,7.38-3,8.48,0,5.74-2.73,8.48-1.1,1.09-3.83,7.79t-2.74,7.8a15.9,15.9,0,0,1-.82,4.79,9.34,9.34,0,0,1-1.91,3.69L150,175.17q-9.57,34.74-15,48.14a16.9,16.9,0,0,1-1.37,4.92,16.68,16.68,0,0,0-1.37,4.93c-.37,1.27-1.19,3.83-2.46,7.66s-1.92,6.11-1.92,6.83q-.54,3-2.18,9.58-4.11,18.6-4.11,20.24a2.24,2.24,0,0,1-1.64.55,11.94,11.94,0,0,1-3.42-.82,34.21,34.21,0,0,1-3.42-1.37q-6.56-3.56-6.56-8.21c0-2,.82-4.65,2.46-7.93q.82-1.37,5.2-17.78l2.46-10.12q1.64-4.38,7.39-26,4.63-16.68,5.19-17.23v-2.74q-.81-1.37-20-1.36a333.08,333.08,0,0,0-39.66,2.18h-20q-1.37,3-8.34,25.31t-7.8,28q-1.92,9-6,25t-6.29,23.39A21,21,0,0,0,18.93,287.59Z" fill="none"/>
    </clipPath>
    <clipPath id="Hirokazu-clip-path-13">
      <path id="Hirokazu_i_clip" d="M168.83,246a14.41,14.41,0,0,1,1.37-6.56,12,12,0,0,1,.55-3.28,12.47,12.47,0,0,0,.54-2.47q-.27-1.63,2.19-9,4.92-11,13.13-38.57a3,3,0,0,1,1.1-2.33,6.06,6.06,0,0,1,3.28-1.23,15.51,15.51,0,0,1,3-.55,3.91,3.91,0,0,1,2.87,1.24,32.37,32.37,0,0,1,3.42,4.51,6.69,6.69,0,0,1,1.64,4.92q0,5.21-3.56,12.58a64,64,0,0,0-4.65,13.68,121.07,121.07,0,0,0-5.19,13.68q-.56,1.63-1.64,6.56a25.3,25.3,0,0,1-3,7.94,60,60,0,0,1-3,10.67q-1.38,3-3,3-1.92,0-5.2-3.82C170.1,254.4,168.83,250.76,168.83,246Zm27.08-106.68q-1.36-4.65,0-4.65,2.19-.27,5.06-4.79c1.92-3,2.78-5.51,2.6-7.52a3.1,3.1,0,0,1,.82-2.05,3.66,3.66,0,0,1,1.92-1.23,7.5,7.5,0,0,1,3.83-1.37q4.65,0,8.48,6.57a15.42,15.42,0,0,1,1.64,6.29,10.85,10.85,0,0,1-1.37,5.06,39.54,39.54,0,0,1-4.92,6.7c-3.11,4.2-6,6.29-8.76,6.29q-2.73,0-6-2.73C197.92,144.62,196.82,142.43,195.91,139.33Z" fill="none"/>
    </clipPath>
  </defs>
  <desc id="hirokazu_name_description">Name: Hirokazu Ukita</desc>
  <g id="Hirokazu_name">
    <g id="Hirokazu_r_mask">
      <g clip-path="url(#Hirokazu-clip-path)">
        <path id="Hirokazu_r" d="M264,149,220,261c27.29-47.35,60.2-77.62,97-96" fill="none" stroke="#000" stroke-width="28"/>
      </g>
    </g>
    <g id="Hirokazu_o_mask">
      <g clip-path="url(#Hirokazu-clip-path-2)">
        <path id="Hirokazu_o" d="M413,180l-45,7,12-25c-31.76,20.34-42.82,46.28-51,73,3.45,7.2,8,13.46,18,15,20.22-11.23,38.6-24.13,46-47l-9.5-10.5Z" fill="none" stroke="#000" stroke-width="22"/>
      </g>
    </g>
    <g id="Hirokazu_k_mask">
      <g clip-path="url(#Hirokazu-clip-path-3)">
        <path id="Hirokazu_k" d="M483,96a1183.15,1183.15,0,0,0-70,168c10.44-43.7,45.85-74.2,95-108l-60,49c6.95,26,23.17,45.21,44,61" fill="none" stroke="#000" stroke-width="25"/>
      </g>
    </g>
    <g id="Hirokazu_a1_mask">
      <g clip-path="url(#Hirokazu-clip-path-4)">
        <path id="Hirokazu_a1" d="M587.5,187.5l-20-17c-19.94,17.3-36.41,38.69-47,67l16,13c24.33-18.46,41.93-43.5,56-72-17.6,61.51-14.45,90.81,30,56" fill="none" stroke="#000" stroke-width="24"/>
      </g>
    </g>
    <g id="Hirokazu_u1_mask">
      <g clip-path="url(#Hirokazu-clip-path-5)">
        <path id="Hirokazu_u1" d="M752.5,160.5c-18.94,34.62-32.43,66.73-18,86,26.66.89,49.16-37.89,71-83-32.34,54.2-39.82,92.39-6,104" fill="none" stroke="#000" stroke-width="32"/>
      </g>
    </g>
    <g id="Hirokazu_u2_mask">
      <g clip-path="url(#Hirokazu-clip-path-6)">
        <path id="Hirokazu_u2" d="M954,75c-48.7,96.48-80.84,178-38,192,38.13,15.12,79.11-87.93,120-187" fill="none" stroke="#000" stroke-width="30"/>
      </g>
    </g>
    <g id="Hirokazu_k2_mask">
      <g clip-path="url(#Hirokazu-clip-path-7)">
        <path id="Hirokazu_k2" d="M1090,75a1822.14,1822.14,0,0,1-78,190c3.6-32.83,39.54-68.33,97-103l-64.5,46.5c34.76,43,49.11,59.71,70,43" fill="none" stroke="#000" stroke-width="29"/>
      </g>
    </g>
    <g id="Hirokazu_i2_mask">
      <g clip-path="url(#Hirokazu-clip-path-8)">
        <line id="Hirokazu_i3" x1="1146.5" y1="174.5" x2="1125.5" y2="263.5" fill="none" stroke="#000" stroke-width="24"/>
        <line id="Hirokazu_i4" x1="1147.5" y1="115.5" x2="1169.5" y2="148.5" fill="none" stroke="#000" stroke-width="27"/>
      </g>
    </g>
    <g id="Hirokazu_t_mask">
      <g clip-path="url(#Hirokazu-clip-path-9)">
        <path id="Hirokazu_t1" d="M1233.5,118.5c-28.75,50-46.89,96.13-40,133,11,10.91,30.1,6.15,55-10" fill="none" stroke="#000" stroke-width="22"/>
        <line id="Hirokazu_t2" x1="1259.5" y1="168.5" x2="1167.5" y2="174.5" fill="none" stroke="#000" stroke-width="21"/>
      </g>
    </g>
    <g id="Hirokazu_a2_mask">
      <g clip-path="url(#Hirokazu-clip-path-10)">
        <path id="Hirokazu_a2" d="M1334.5,192.5c-1.11-14.07-12.35-18-24-19-18,13.07-33.52,35.66-47,66,3.72,9.71,11.34,12.54,22,10,20.8-16.41,39.09-40.19,56-68-23.64,59.87-17.09,82.48,26,60" fill="none" stroke="#000" stroke-width="24"/>
      </g>
    </g>
    <g id="Hirokazu_z_mask">
      <g clip-path="url(#Hirokazu-clip-path-11)">
        <polyline id="Hirokazu_z" points="629 165 687 172 632 259 703 242" fill="none" stroke="#000" stroke-miterlimit="10" stroke-width="33"/>
      </g>
    </g>
    <g id="Hirokazu_h_mask">
      <g clip-path="url(#Hirokazu-clip-path-12)">
        <path id="Hirokazu_h" d="M91,66C58.74,134.74,31.56,210.4,8,291L45,177l97,2L181,79c-31.41,76.21-59,149.7-71,212" fill="none" stroke="#000" stroke-miterlimit="10" stroke-width="27"/>
      </g>
    </g>
    <g id="Hirokazu_i_mask">
      <g clip-path="url(#Hirokazu-clip-path-13)">
        <path id="Hirokazu_i2" d="M215.5,112.5c-2.58,13.43-11.17,30.93-22,41" fill="none" stroke="#000" stroke-miterlimit="10" stroke-width="25"/>
        <path id="Hirokazu_i1" d="M199.5,175.5c-16.68,34.4-27.7,66.06-31,94" fill="none" stroke="#000" stroke-miterlimit="10" stroke-width="25"/>
      </g>
    </g>
  </g>
</svg>
