<svg xmlns="http://www.w3.org/2000/svg" xmlns:xlink="http://www.w3.org/1999/xlink" width="1272" height="200" viewBox="0 0 1272 200" aria-labelledby="hitoshi_name_description">
  <defs>
    <clipPath id="Hitoshi-clip-path">
      <path id="Hitoshi_h_clip" d="M16.93,162.21a8.28,8.28,0,0,0-2.63-.4,7,7,0,0,1-4-2.63,7.53,7.53,0,0,1-1.52-4.66,9.36,9.36,0,0,1,.2-2.23,7.21,7.21,0,0,0,1.11-3.14,23.35,23.35,0,0,0,.51-4.56,15.89,15.89,0,0,0,1-2.53q.4-1.32,1-3.75,1.61-8.91,7.49-30t7.29-22.49V83.63a13.47,13.47,0,0,1,.41-2.44,10.9,10.9,0,0,1,1.82-3.84A46.75,46.75,0,0,0,31,72.59c.33-1.55.57-2.74.71-3.55A31.46,31.46,0,0,0,34.45,63c1.28-3.37,2.13-5.6,2.53-6.68q1.41-3.84,3.55-9t2.93-6.79v-1a26.34,26.34,0,0,0,2.13-4.15l2.94-6.38Q49.94,25.7,56,12.12A29.24,29.24,0,0,1,58,8.58a7.43,7.43,0,0,0,1.31-2.94A3,3,0,0,1,62.1,4.22a6.75,6.75,0,0,1,3.75,1.32,8.86,8.86,0,0,1,2.93,3.34l2,3.24L63.52,26.71q-3,5.26-5.27,10.13T56,42.51q-.81,2-3.14,8.3T49.13,61.55q-1,3-2.43,6.38c-.94,2.23-1.62,3.81-2,4.76a26.26,26.26,0,0,0-1.62,4q0-.81,24.3-.81,3.86,0,13.68-.2a121.91,121.91,0,0,0,12.25-.61l10.53-1,6.89-20.87q2-7.08,8.91-27.54,3-8.71,4.86-11.25a5.38,5.38,0,0,1,4.46-2.53,7.89,7.89,0,0,1,2.94.91,4.86,4.86,0,0,1,2.53,2.33,6.62,6.62,0,0,1,2.23,4.66c0,1.89-1.09,4.53-3.24,7.9q-2.43,4.26-6.89,16-1.83,5.47-2.23,6.28c0,2.84-.68,4.93-2,6.28-.55.54-1.49,2.47-2.84,5.77a30.31,30.31,0,0,0-2,5.78,11.94,11.94,0,0,1-.6,3.54,6.83,6.83,0,0,1-1.42,2.74L114,79q-7.1,25.73-11.14,35.65a12.62,12.62,0,0,1-1,3.64,12.33,12.33,0,0,0-1,3.65c-.28.94-.88,2.83-1.83,5.67a28.27,28.27,0,0,0-1.42,5.06q-.41,2.24-1.62,7.09-3,13.77-3,15a1.68,1.68,0,0,1-1.22.41,8.8,8.8,0,0,1-2.53-.61,23.62,23.62,0,0,1-2.53-1c-3.24-1.75-4.86-3.78-4.86-6.07a14.11,14.11,0,0,1,1.82-5.88q.6-1,3.85-13.16l1.82-7.5q1.22-3.23,5.47-19.24,3.44-12.34,3.85-12.76v-2q-.61-1-14.79-1A245.15,245.15,0,0,0,54.4,87.47H39.61q-1,2.23-6.17,18.74T27.66,127q-1.41,6.69-4.45,18.53t-4.66,17.32A15.89,15.89,0,0,0,16.93,162.21Z" fill="none"/>
    </clipPath>
    <clipPath id="Hitoshi-clip-path-2">
      <path id="Hitoshi_i_clip" d="M127.92,131.43a10.7,10.7,0,0,1,1-4.86,9.11,9.11,0,0,1,.4-2.44,9.19,9.19,0,0,0,.41-1.82q-.21-1.22,1.62-6.68,3.65-8.1,9.72-28.56a2.19,2.19,0,0,1,.81-1.72,4.46,4.46,0,0,1,2.43-.91,11.25,11.25,0,0,1,2.23-.41,2.92,2.92,0,0,1,2.13.91,25.7,25.7,0,0,1,2.53,3.34,5,5,0,0,1,1.21,3.65c0,2.57-.88,5.67-2.63,9.32a46.48,46.48,0,0,0-3.44,10.12,88.76,88.76,0,0,0-3.85,10.13q-.4,1.22-1.22,4.86a18.39,18.39,0,0,1-2.23,5.88,44.46,44.46,0,0,1-2.22,7.9c-.68,1.48-1.42,2.23-2.23,2.23s-2.23-1-3.85-2.84Q127.93,136.7,127.92,131.43Zm20.06-79c-.68-2.29-.68-3.44,0-3.44,1.08-.13,2.33-1.32,3.74-3.55s2.06-4.08,1.93-5.57a2.31,2.31,0,0,1,.61-1.52,2.72,2.72,0,0,1,1.41-.91,5.62,5.62,0,0,1,2.84-1c2.29,0,4.39,1.62,6.28,4.86A11.38,11.38,0,0,1,166,46a8,8,0,0,1-1,3.75,29.12,29.12,0,0,1-3.65,5q-3.43,4.67-6.48,4.66a7.25,7.25,0,0,1-4.45-2A11.37,11.37,0,0,1,148,52.43Z" fill="none"/>
    </clipPath>
    <clipPath id="Hitoshi-clip-path-3">
      <path id="Hitoshi_t_clip" d="M175.83,140.24a19.94,19.94,0,0,1-4.36-7,1.52,1.52,0,0,0-.4-.91c-.28-.34-.48-.57-.61-.71-.54-.41-.81-2.63-.81-6.68,0-3.25.17-6.62.51-10.13a59.15,59.15,0,0,1,1.31-8.51l3.65-10.73L178,87.47l5.47-11.74-8.1-2.23A3.45,3.45,0,0,1,173,72.08a3.8,3.8,0,0,1-.91-2.23,7.17,7.17,0,0,1,1.72-3.95c1.15-1.55,2.06-2.33,2.74-2.33a14.24,14.24,0,0,0,3.24.2,50.87,50.87,0,0,0,9.11-.6,4.92,4.92,0,0,0,2.84-3.24q.81-1.62,1.92-4c.74-1.63,1.45-3.11,2.13-4.46q.6-1.22,1.92-3.75c.88-1.68,2-3.61,3.34-5.77.27-.41.88-1.38,1.83-2.94a14.92,14.92,0,0,1,3.44-4,4.69,4.69,0,0,1,3.44-1.42q2,0,5.27,2.64l1.11,1.62a3.24,3.24,0,0,1,.71,1.82,9.56,9.56,0,0,1-1.62,3.44q-1.22,2.45-2.33,4.36L211,50.81q-2.43,4-3.44,6.08c-1.36,1.75-2,3.11-2,4s.88,1.42,2.63,1.42a61.6,61.6,0,0,0,9.52-1.22,32.85,32.85,0,0,1,3.85-.4q7.09,0,7.7,5.87a18.12,18.12,0,0,1,.2,2.84c0,1.89-.64,3-1.92,3.44s-4.16.61-8.61.61a87.16,87.16,0,0,1-13.37,1c-.81,0-1.72,0-2.73.1a18,18,0,0,0-3.14.51,4.41,4.41,0,0,0-2.33,1.21A10.57,10.57,0,0,0,195.78,79a31.23,31.23,0,0,0-2.84,4.66c-1.89,3.91-3.11,6.27-3.64,7.08a199.05,199.05,0,0,0-8.11,33.22c-.27,2.16-.4,3.52-.4,4q0,3,2,4.26t6.89,1.21a44.88,44.88,0,0,0,12-1.41,85.41,85.41,0,0,0,9.12-4.46c1.21-.68,2.33-1.32,3.34-1.93s1.72-1,2.13-1.31c.4-.81.87-1.22,1.41-1.22,1.08,0,2,1.09,2.84,3.24a11.16,11.16,0,0,1-1.42,5.68q-1.41,2.43-7.09,5.67-11.74,7.48-23.49,7.49a28.61,28.61,0,0,1-6.08-.61C180.25,144.19,178.05,142.74,175.83,140.24Z" fill="none"/>
    </clipPath>
    <clipPath id="Hitoshi-clip-path-4">
      <path id="Hitoshi_o_clip" d="M250.26,138.92a3.8,3.8,0,0,1-2-.5,14.11,14.11,0,0,1-2.23-1.93,16.78,16.78,0,0,1-7-6.38q-2.53-4.16-2.13-7.39a70.85,70.85,0,0,1,5.37-20.46A90.65,90.65,0,0,1,253.1,82.61q6.27-8.51,12.15-10.53a17.66,17.66,0,0,1,6.08-1.42,7.08,7.08,0,0,1,6.88,4A10.86,10.86,0,0,1,279.63,79q0,2.43-2.83,3.24a2.51,2.51,0,0,0-1.42.6,1.66,1.66,0,0,0-.81,1.22,4,4,0,0,0,1.82.2,44.32,44.32,0,0,0,8.51-1c3.37-.67,5.53-1.42,6.48-2.23a4.84,4.84,0,0,1,2-.61l2.83.41q3.45,1,3.45,2.43a2.31,2.31,0,0,0,.6,1.52,1.84,1.84,0,0,0,1.42.71c.81.13.71.68-.3,1.62s-2.94,2.5-5.78,4.66c-.67.4-1.65,1-2.93,1.82a5.45,5.45,0,0,0-2.23,2,3.66,3.66,0,0,0,.1,2.22,11,11,0,0,1,.81,4.46q0,6.69-5.77,14.79a60,60,0,0,1-14.38,14.17q-8.61,6.09-16.51,7.09A25.13,25.13,0,0,1,250.26,138.92ZM257.35,127a13.9,13.9,0,0,1,4.26-3.24q1.41,0,3.84-2.13A70.57,70.57,0,0,0,273,113a66.73,66.73,0,0,0,5.77-7.5,11,11,0,0,0,1.93-5.87,6,6,0,0,0-.21-1.83c-.13-.4-.57-.77-1.31-1.11s-1.46-.64-2.13-.91a6.42,6.42,0,0,1-3.34-.91,47.35,47.35,0,0,1-4.36-3.14l-3.24-4-3.44,3.44Q257.76,96,252.69,107T247,124.13c-.13,1.9.17,3.21.91,4a5.19,5.19,0,0,0,3.35,1.32Q252.5,129.4,257.35,127Z" fill="none"/>
    </clipPath>
    <clipPath id="Hitoshi-clip-path-5">
      <path id="Hitoshi_s_clip" d="M309.2,141.55a13.67,13.67,0,0,1-6.68-7.69,28.11,28.11,0,0,1-1.42-4.05,2,2,0,0,1,1.42-1.83,6.56,6.56,0,0,1,3.34,1.22,15.48,15.48,0,0,0,3.14,1.62c2,1.89,4.79,2.84,8.31,2.84A16.72,16.72,0,0,0,324.7,132c2.23-1.08,3.47-2.37,3.75-3.85q0-1-2-7.09a64.49,64.49,0,0,1-7.8-14.89,39.32,39.32,0,0,1-2.73-12.86,16.28,16.28,0,0,1,2.23-7.9,21.13,21.13,0,0,1,6.07-6.89A57.56,57.56,0,0,1,336.45,69a55,55,0,0,1,13.06-5.87,37,37,0,0,1,6,.6,16.76,16.76,0,0,1,5,1.42q2.22.81,4.25,4.46a14.28,14.28,0,0,1,2,6.89q0,3.24-3.44,8.91a25.34,25.34,0,0,1-1.62,3.85,10.46,10.46,0,0,0-1.22,3,2.75,2.75,0,0,1-2.63,2,5,5,0,0,1-3.55-1.72,12.59,12.59,0,0,1-2.73-4.15,17.64,17.64,0,0,1-.61-4.26,8.71,8.71,0,0,1,1.62-4.86c1.48-1.48,2.23-2.5,2.23-3s-.75-.81-2.23-.81-4.73,1.29-9.32,3.85a46.23,46.23,0,0,0-10.93,8.1c-2.44,2.3-3.92,4-4.46,5.17A12.66,12.66,0,0,0,327,97.8a24.22,24.22,0,0,0,1.32,7.19q1.31,4.16,2.73,5.57L332.8,114a33.94,33.94,0,0,0,3.14,5.06q4.05,9.12,4.05,14.18,0,5.88-4.55,8.51t-14.28,2.63A24,24,0,0,1,309.2,141.55Z" fill="none"/>
    </clipPath>
    <clipPath id="Hitoshi-clip-path-6">
      <path id="Hitoshi_h1_clip" d="M440.05,142.37a5.67,5.67,0,0,1-2.73-.71,16.27,16.27,0,0,1-3.35-2.74c-.4-.54-1.11-1.52-2.12-2.94a14.48,14.48,0,0,1-2.23-4.65,23.85,23.85,0,0,1-.71-6.38c0-1.89.07-3.51.2-4.87s.27-2.43.41-3.24l.4-5.87a51,51,0,0,0,1.42-11.14q0-5.47-1.42-5.47-3-.6-13.37,9A315.83,315.83,0,0,0,394.07,127l-3.64,5.27c-.28.4-.95,1.35-2,2.83s-1.82,2.23-2.23,2.23q-2.24.21-6.07-2.13T376,131q0-1.22,3.14-11.24t5-15.7l8.91-26.33q1.62-5.06,5.87-15.19l3.85-9.93,2.43-6.07,9.32-24.71V21q0-3.45,1.42-4.86l2.83-.21c0-.27.54,0,1.62.91a27.07,27.07,0,0,1,3.14,3,4.83,4.83,0,0,1,1.52,2.74,8,8,0,0,1,.61,3.24q0,4.67-4.66,16-1.81,2.64-5.47,12.76c-1.35,3.78-2.36,6.42-3,7.9q-2.43,4.45-8.4,18.33a180.08,180.08,0,0,0-8.41,22.79,16.73,16.73,0,0,0-1.62,5.67c0,.68.2,1,.61,1q1.41,0,4.46-3.85,12.75-13.56,20.45-20.45T432,79.57q2.43.62,6,4.56a25.72,25.72,0,0,1,5,7.6,31.66,31.66,0,0,1,1.21,8.3q0,3.45-.61,12.56l-.4,4.66q-1.62,10.13-1.62,11.75a5.26,5.26,0,0,0,.5,2.63,12.15,12.15,0,0,0,2.13,2.23c2.16,1.75,3.24,3.24,3.24,4.45s-.94,2.17-2.83,3.24A15.38,15.38,0,0,1,440.05,142.37Z" fill="none"/>
    </clipPath>
    <clipPath id="Hitoshi-clip-path-7">
      <path id="Hitoshi_i2_clip" d="M468.2,135.68c-.67-.27-1.14-.47-1.41-.61a8,8,0,0,0-.51-2.12,8.82,8.82,0,0,1-.51-1.93c-1.08-.54-1.62-1.21-1.62-2a9.93,9.93,0,0,1,.61-2.84q2.63-4.65,9.32-21.17t7.49-19.54a4.73,4.73,0,0,1,.61-2,7.57,7.57,0,0,1,1.42-2,2.5,2.5,0,0,1,1.82-.81q2.24,0,4.15,3a12.25,12.25,0,0,1,1.93,6.68q0,2.43-4.56,13.87t-10.23,23l-2.33,4.66a12.22,12.22,0,0,1-2.33,3.65,3.67,3.67,0,0,1-2.23.61A4.75,4.75,0,0,1,468.2,135.68Zm23.6-80.51q-3.94-4.16-3.95-8.61,0-1,2.43-4.66a22,22,0,0,0,2.43-4,12.93,12.93,0,0,1,2.43.2,13.21,13.21,0,0,1,2.43.81,32.67,32.67,0,0,0,5.68,8.31q1.22,1.62,2.22,3a4.47,4.47,0,0,1,1,2.43,23.06,23.06,0,0,1-.31,4.66,2.19,2.19,0,0,1-1.62,1.62,19.32,19.32,0,0,1-5,.41Q495.74,59.32,491.8,55.17Z" fill="none"/>
    </clipPath>
    <clipPath id="Hitoshi-clip-path-8">
      <path id="Hitoshi_d_clip" d="M572.92,166.06H571.3a36.3,36.3,0,0,1-9.72-1.62,11.42,11.42,0,0,1-3.85-1.82,20.88,20.88,0,0,1-2.74-2.94l-2.32-2.93q-3.66-5.07-3.65-8.92,0-3,2.83-2.22a14.54,14.54,0,0,1,4.46,4,15.31,15.31,0,0,0,5.27,3.54,18.88,18.88,0,0,0,6.88,1.12c.95,0,2.77-.14,5.47-.41a72,72,0,0,0,11.35-3,32.88,32.88,0,0,0,9.52-4.66q9.72-6.68,15.9-10.73t7.79-5.07q.4-1,4.26-2.43l5.47-5.26a76.24,76.24,0,0,1,6.88-6.89,17.38,17.38,0,0,1,.71-2.94,7.94,7.94,0,0,0,.51-2.33q2.43-2.62,7.29-12.65a92.31,92.31,0,0,0,6.68-17.32,90.38,90.38,0,0,0,1.83-16.82q0-12.35-4.36-20.76A51.83,51.83,0,0,0,635.1,27.52q-4.25-3.45-14.07-7.6c-6.56-2.76-10.37-4-11.45-3.54-.68.13-2.5,4-5.47,11.64s-7,18.61-12.15,32.92l-6.48,18q-.81,3.24-1.82,6.07c-.68,1.9-1.22,3.58-1.63,5.07-1.75,5-2.63,7.83-2.63,8.5a28.66,28.66,0,0,0-3.54,9q-1.32,5.57-2.94,18.94c-1.22,4.45-1.76,6.48-1.62,6.07q-.81,3.45-1.42,5.67c-.4,1.49-.81,2.17-1.21,2l-.81.81c0,.81-.61,1.22-1.83,1.22a9,9,0,0,1-3.64-.92,10.65,10.65,0,0,1-3.24-2.12,17.16,17.16,0,0,1-.81-4.05,31.63,31.63,0,0,1,1.62-8.11q1.62-6.89,5.36-19.34t6.38-20.36a132.37,132.37,0,0,0,4.06-13q2.22-7.49,5-15.39a68.77,68.77,0,0,1,3.95-9.93c.27-.94,1.18-3.65,2.73-8.1s3.41-9.38,5.57-14.79l1.42-6.68-2.23-1a10.52,10.52,0,0,1-3.24.6,5.08,5.08,0,0,1-2.23-.6c-1.35.4-3.21-.17-5.57-1.73s-3.68-3-4-4.35a3.84,3.84,0,0,1-.5-1.82c-.07-.81-.1-1.35-.1-1.62q.39-2,8.1-3.75a76.84,76.84,0,0,1,16.81-1.72q3.84,0,5.87.2a29.74,29.74,0,0,1,7,1.22q3.35,1,8.2,3l4.87,1.83a50.31,50.31,0,0,1,13.87,8.5,71.93,71.93,0,0,1,13.17,14.28,48.8,48.8,0,0,1,7.8,16.71c.4,1.76.81,4.19,1.21,7.3a64,64,0,0,1,.61,8.3c0,2.84-.27,4.59-.81,5.27a3.23,3.23,0,0,0-.61,2c0,.81.27,1.29.81,1.42-.27.81-.74,2.3-1.42,4.46s-1.41,4.45-2.23,6.88q-1.21,12.76-11.34,30a3.69,3.69,0,0,0-1.62.3c-.4.21-.34.38.2.51q0,1-2.22,3.85a17.29,17.29,0,0,0-2.54,2.94,19.17,19.17,0,0,1-2.73,3.14,3.72,3.72,0,0,1-1.22,2.32,2.89,2.89,0,0,1-1.82.92.79.79,0,0,0-.61.81q-3.64,5.26-13.26,13t-17.12,10.94a28.9,28.9,0,0,1-4.76,2.63Q598,157.56,597,158q-1.62,1.41-8.2,3.95a69,69,0,0,1-10.63,3.34Z" fill="none"/>
    </clipPath>
    <clipPath id="Hitoshi-clip-path-9">
      <path id="Hitoshi_e_clip" d="M695.46,143.38a20.15,20.15,0,0,1-9.62-2.43,21.88,21.88,0,0,1-7.6-6.69,21.29,21.29,0,0,1-3.85-7.29,35,35,0,0,1-1.21-9.92q0-2,.4-8.11a39.85,39.85,0,0,1,5-15.59,60,60,0,0,1,10.83-14.48,38.5,38.5,0,0,1,12.76-8.82A11.44,11.44,0,0,1,708,68a20.71,20.71,0,0,1,2.83.2c.95.14,2,.27,3,.41a23.87,23.87,0,0,1,6.79,1.72,10.5,10.5,0,0,1,4,3.34,16.14,16.14,0,0,1,5.06,11.75q-.81,4.86-6.28,11.14a42.34,42.34,0,0,1-13.16,10.13,26.24,26.24,0,0,1-8.31,1.21q-6.29,0-10.13-2.63a9.54,9.54,0,0,0-2.83-.61c-1.22,0-2.13.81-2.74,2.43a45.93,45.93,0,0,0-1.72,8.91,31.71,31.71,0,0,0-.2,4q0,10.33,6.89,11.35a36.47,36.47,0,0,0,6.68,1,11.88,11.88,0,0,0,5.47-1.62l3.85-2.23a8.41,8.41,0,0,0,2.23-1.62l1.82-1.82c.27-.27.67-.71,1.21-1.32a4.53,4.53,0,0,1,1.52-1.21,3.27,3.27,0,0,1,1.32-.31,2.92,2.92,0,0,1,1.82.91,16.4,16.4,0,0,0,1.62,1.32c1.22,0,1.49.85.81,2.53a18.92,18.92,0,0,1-4.35,5.88,41.84,41.84,0,0,1-7.6,6A17.75,17.75,0,0,1,695.46,143.38ZM714.4,90.92q3.54-3.65,3.54-6.08a5.18,5.18,0,0,0-1.82-4,7.38,7.38,0,0,0-5.06-1.62,12.36,12.36,0,0,0-3.65.4q-2.83.83-6.68,4.36A59,59,0,0,0,694,91.12q-2.84,3.64-2.23,4.25,1,1.83,7.9,1.83a20.88,20.88,0,0,0,7.7-1.22A21.37,21.37,0,0,0,714.4,90.92Z" fill="none"/>
    </clipPath>
    <clipPath id="Hitoshi-clip-path-10">
      <path id="Hitoshi_m_clip" d="M823.78,132.54q-2.53-3.94-2.54-12.86l.21-9.32a13.07,13.07,0,0,0-.31-3.44c-.2-.68-.57-1-1.11-1q-2.64,0-11.24,6.88a153.48,153.48,0,0,0-17.32,16.41c-.68.68-1.59,1.65-2.74,2.94a16,16,0,0,1-3.14,2.83,4.9,4.9,0,0,1-2.63.91,5.14,5.14,0,0,1-3.44-1.42l-2.23-1.82a3.62,3.62,0,0,1-1.42-2.83l.41-1.83,4.66-13.36q4.44-10.34,5.26-13.07c.54-1.82.47-2.66-.2-2.53a15.79,15.79,0,0,0-5.06,1.92q-3.26,1.73-4.05,3.35c-.28,0-1.15.7-2.64,2.12a25.24,25.24,0,0,1-3.85,3.14q-1.81,2.64-8.91,9.52l-4.86,4.66q-3,2.43-8.51,9.93-2.83,3.65-3.24,3.64-6.28,0-7.9-6.08a7.72,7.72,0,0,1-.81-3.84q0-3.24,2.43-13.37c1.22-4.59,1.89-7.43,2-8.51l1-4a31.17,31.17,0,0,1,1.82-6.28q1.42-3.65,4.87-11.54c1.34-3.78,2-6.62,2-8.51A5.12,5.12,0,0,1,752.17,71a6.16,6.16,0,0,1,4.06-1.52,6.38,6.38,0,0,1,4.86,2.22,8.46,8.46,0,0,1,2,5.88,17.39,17.39,0,0,1-1.62,7.09l-2.23,5.47a100.36,100.36,0,0,0-4.15,10.43q-2.54,7.18-2.53,8c.13.4.61.3,1.42-.3s1.75-1.39,2.83-2.33a39.15,39.15,0,0,1,4.26-3.65,95,95,0,0,1,14.48-10.94q8.4-5.26,12.86-6.68a8.65,8.65,0,0,1,4,.71,12.33,12.33,0,0,1,2.94,2.43c1.08,1.15,1.89,2,2.43,2.53a7.14,7.14,0,0,1,1.82,5.27,11.35,11.35,0,0,1-.4,2.63c-.55,1.89-1.25,4.19-2.13,6.89s-1.52,4.65-1.93,5.87q1.42-1.22,5.07-4.25t6.68-5.68q10.13-7.89,16-7.9,4.26,0,7.3,4.46a7.66,7.66,0,0,1,2.22,3.75,26,26,0,0,1,.41,5.16v5.07a40.63,40.63,0,0,1,.2,4.86q.21,1.62.51,6.28t.91,5.26c.67.81,3,1.56,6.89,2.23q3.65.61,3.64,3.24c0,1.22-.88,2.43-2.63,3.65a12.17,12.17,0,0,1-6.48,1.62,17.9,17.9,0,0,1-6.69-1.22C827.25,136.83,825.46,135.17,823.78,132.54Z" fill="none"/>
    </clipPath>
    <clipPath id="Hitoshi-clip-path-11">
      <path id="Hitoshi_e2_cllip" d="M856.28,140.14q-5.67-6.48-5.67-16.21A61.38,61.38,0,0,1,855,102.56a85.25,85.25,0,0,1,11.24-21q6.88-9.31,14-12.56a18.62,18.62,0,0,1,9.11-2.23A21.38,21.38,0,0,1,898,69a14.56,14.56,0,0,1,5.27,3.44,18.27,18.27,0,0,1,3.24,6.28,37.54,37.54,0,0,1,.61,5.07,28.76,28.76,0,0,1-1,5.26,41.74,41.74,0,0,1-6.38,12.66,34.23,34.23,0,0,1-10.23,8.81,14.93,14.93,0,0,1-8.1,2,21.17,21.17,0,0,1-8-1.52,12.19,12.19,0,0,1-5.77-4.56l-1.42-1.62-.61,1.62q-4.25,10.93-4.25,18.64a15.88,15.88,0,0,0,2,8.51c1,1.48,3.24,2.22,6.89,2.22a15.49,15.49,0,0,0,5.87-.81,23,23,0,0,0,5.37-2.53q2.32-1.51,4.56-3.14l.81-.4h-.2q2.43-1.22,4.05-2.23l2.23-1.42a1.89,1.89,0,0,0,.81-.2,2.47,2.47,0,0,0,.81-.81q1.81-.81,4.25.61a4.17,4.17,0,0,1,2.43,3.64c-.27,1.08-1.49,2.84-3.64,5.27s-3.79,3.71-4.87,3.85a6.59,6.59,0,0,0-1.41.6,6.72,6.72,0,0,0-1.62,1h.2c-1.22,1.62-2.43,2.43-3.65,2.43h-1.62q-.81,1.62-5.37,3.24a25.66,25.66,0,0,1-8.6,1.62A18.29,18.29,0,0,1,856.28,140.14Zm34.64-45q4.86-6.48,4.86-13,0-3.45-1.42-4.86a5,5,0,0,0-2.22-.61,16.32,16.32,0,0,0-3.45.61q-2.62.6-8.1,5.57a52.65,52.65,0,0,0-8.1,8.81L869.86,96a11.24,11.24,0,0,1,3.14-.71c1-.06,1.58,0,1.72.31a7.36,7.36,0,0,0,1.41,4.65,4.42,4.42,0,0,0,3.65,1.83Q885.86,102.06,890.92,95.17Z" fill="none"/>
    </clipPath>
    <clipPath id="Hitoshi-clip-path-12">
      <path id="Hitoshi_g_clip" d="M928,183.18a41,41,0,0,1-7.09-2.33,30.61,30.61,0,0,1-7.6-9q-3.54-6-3.14-8.81c0-.55.47-.82,1.42-.82a7.37,7.37,0,0,1,3.14.82,5.91,5.91,0,0,1,2.53,2,26.59,26.59,0,0,0,6.69,6.08q4,2.63,6.28,2.23a13.54,13.54,0,0,0,8-4.66A43.34,43.34,0,0,0,944.6,158q2.22-6.08,3.54-11.14c.88-3.37,1.93-7.7,3.14-13q1.41-6.48,2-8.71c.53-2.57.87-4.32,1-5.27s.13-1.48,0-1.62l-.41-.4L940.75,125a44.17,44.17,0,0,1-14,2.43,20.55,20.55,0,0,1-5.67-.81q-2.24-1-4.35-5.27T915,114q.21-2.83,5.47-11.75t6.08-8.71c.67,0,1-.67,1-2q.4-1.81,11.14-10.33a80.59,80.59,0,0,1,13-10A25,25,0,0,1,962,67.42a17.2,17.2,0,0,0,2.53.2h1.52c.27.14.81.44,1.62.92a24.26,24.26,0,0,0,3.24,1.51q4.25,1.83,7.49,7.3a25,25,0,0,1,3.65,10.93A32.55,32.55,0,0,1,980,97q-1.62,4.26-3.24,4.05a6,6,0,0,0-3.95,1.42c-1.55,1.08-2.33,1.89-2.33,2.43q0,2.23-3.24,5.88l-3,14.18q-3.24,14.38-3.44,16.4a139.14,139.14,0,0,1-5.06,16.21,33.75,33.75,0,0,1-2.13,8.61,33.56,33.56,0,0,1-4.15,6.58,24.65,24.65,0,0,1-7.19,7.9,18,18,0,0,1-7.8,3.44A21.68,21.68,0,0,1,928,183.18Zm1.62-65.73A26,26,0,0,0,941.76,114l2.84-1.42c.81-.41,1.55-.74,2.22-1q3.66-1.62,5.47-2.64a6.14,6.14,0,0,0,2.64-2.63A52.25,52.25,0,0,0,959,96.39a5.26,5.26,0,0,1,1.11-1.93,3.62,3.62,0,0,1,1.72-1.32h.81a11,11,0,0,1,3.24.82,2.67,2.67,0,0,0,1.42-2,10.55,10.55,0,0,0,.2-3.65,9.23,9.23,0,0,0-2.12-3.84,14.56,14.56,0,0,0-4.56-3.85,6.5,6.5,0,0,0-1.82-.41,8.23,8.23,0,0,0-4.66,1.93,66.22,66.22,0,0,0-7.09,6.38,19.84,19.84,0,0,0-1.82,1.62,15.52,15.52,0,0,1-1.62,1.41,122.5,122.5,0,0,0-13.27,14.08q-5.16,6.59-4.36,10.43C926.3,117,927.45,117.45,929.61,117.45Z" fill="none"/>
    </clipPath>
    <clipPath id="Hitoshi-clip-path-13">
      <path id="Hitoshi_a_clip" d="M993.61,137.1q-4.25-3-5.06-6.69a11.67,11.67,0,0,1-.2-2.63q0-7.48,5.77-19.34a109.09,109.09,0,0,1,14.08-21.88q8.29-10,15.19-12.66c2.83-1.48,4.66-2.23,5.47-2.23s2.63.75,5.47,2.23a14.12,14.12,0,0,1,4.25,1.83,19.13,19.13,0,0,1,3.65,4,44.76,44.76,0,0,1,3.84,13,25.85,25.85,0,0,1,1.22,6.08,3.88,3.88,0,0,1-1.22,2.83c-.13.14-.37.41-.71.81a1.83,1.83,0,0,0-.5.91c0,.21.13.31.4.31a4.92,4.92,0,0,1-.2.91,12.15,12.15,0,0,1-.81,1.92,45,45,0,0,0-2.43,13.17,19,19,0,0,0,.41,3.85q2,5.27,6.88,5.26,4,0,7.7-3.64c2.16-1.49,3.75-2.53,4.76-3.14s1.52-.44,1.52.5a5.05,5.05,0,0,0,.81.61,2.17,2.17,0,0,0,1.21.41c1,0,1.42.6,1.42,1.82a7.66,7.66,0,0,1-1.42,4.05,31.36,31.36,0,0,0-2.22,2.43,2.93,2.93,0,0,0-.81,1.62l-3,2.84a17.87,17.87,0,0,1-9.12,2.23c-3.64,0-6.55-.74-8.71-2.23a27.62,27.62,0,0,1-8.91-12.76l-1-2-5.88,3.85a58.83,58.83,0,0,1-4.66,4.15q-2.62,2.13-3.44,2.94c-1.08,1.35-2,2-2.83,2h-2q0,1.42-4,3.14a17.82,17.82,0,0,1-7,1.73C999.08,139.87,996.45,139.12,993.61,137.1ZM1010.83,122q9.12-6.39,11.55-9.42l5.87-6.08a29,29,0,0,0,5.16-8.3,22.4,22.4,0,0,0,1.93-8.51c0-2.29-.34-3.91-1-4.86q-.82-2.43-2.43-2.43a21.77,21.77,0,0,0-4.66,1.42q-3.85,2.43-10.84,11.14a156.21,156.21,0,0,0-12.46,17.92q-5.46,9.23-5.47,13.47a2.2,2.2,0,0,0,.41,1.22,5.59,5.59,0,0,0,.61.81Q1001.71,128.39,1010.83,122Z" fill="none"/>
    </clipPath>
    <clipPath id="Hitoshi-clip-path-14">
      <path id="Hitoshi_w_clip" d="M1121.42,133.66c-1.21-1.76-2.2-4.76-2.94-9A118,118,0,0,1,1117,111q-16,24.3-25.92,27.55a5.48,5.48,0,0,1-1.62.2,3.77,3.77,0,0,1-3.45-2.43,21.88,21.88,0,0,1-1.82-5,19.63,19.63,0,0,1-.61-6.18q-1.21-12.56-1.21-23.5,0-9.32,1-12.35a6.55,6.55,0,0,1-.2-1.52v-.91a8.28,8.28,0,0,1-.41-3.45,60.28,60.28,0,0,1,.51-7.49q.51-4.05,1.11-4.86c.27-.81,1.22-1.42,2.84-1.83,2,.41,3.1,1.22,3.24,2.43a4.58,4.58,0,0,1,1.11,1,1.47,1.47,0,0,0,1.52.6q1.21.83,1.22,11.15a12.91,12.91,0,0,0-.1,2.93c.06,1.15.1,2,.1,2.53a4.3,4.3,0,0,1-.2,1.62c0,2.71.2,6.42.6,11.15,0,2.83-.07,5.13-.2,6.88l-.2,7.29a22.77,22.77,0,0,0,1.11,5.27c.34.68.91.74,1.72.2,1.35-.54,19.92-29.64,21.27-31.39q.81-6.08,2.23-14.18,3-3.45,5.47-3.45c1.35,0,2.43.82,3.24,2.44a4.68,4.68,0,0,1,2.84,4.45,6.9,6.9,0,0,1-.21,2l-3,10.93q-1.43,5.28-1.42,16.41,0,10.14,1.21,14.38,0,1.62,1.83,1.62c1.34,0,3.1-.87,5.26-2.63A113.18,113.18,0,0,0,1146,110.06q5.78-8.2,5.77-9.83a9.22,9.22,0,0,1,.81-3.54,7.62,7.62,0,0,1,2-2.94,6.75,6.75,0,0,0,1.21-2.63,20.7,20.7,0,0,1,.81-2.63c.14-.27.31-.64.51-1.12s.44-1,.71-1.72l-.2-.61a3.55,3.55,0,0,1,1.42-2.33,6.42,6.42,0,0,0,1.62-1.92q.6-3.24,3.44-3.24a4.75,4.75,0,0,1,3.14,1.32,5.11,5.11,0,0,1,1.72,3.54q0,3.86-3.44,12a82.89,82.89,0,0,1-7.7,14.48c-.27.55-.68,1.46-1.22,2.74a32.69,32.69,0,0,1-2.73,4.86q-1.92,2.94-5.57,7.59a40.56,40.56,0,0,1-5.87,6.49,51.75,51.75,0,0,1-6.49,7.09,9.38,9.38,0,0,1-5.26,2.43Q1127.9,140.55,1121.42,133.66Z" fill="none"/>
    </clipPath>
    <clipPath id="Hitoshi-clip-path-15">
      <path id="Hitoshi_a2_clip" d="M1176.21,136.19c-.88-.88-1.32-1.45-1.32-1.73a5.21,5.21,0,0,0-1-3.44,2.74,2.74,0,0,1-.4-1.82q0-3.24,3.14-11a150.43,150.43,0,0,1,8.2-16.91A26.84,26.84,0,0,0,1188,97a16.48,16.48,0,0,1,2.53-3.44,2.29,2.29,0,0,1,.61-1.52,1.83,1.83,0,0,1,1.42-.71V90.11q0-1.83,6.68-8.81t10.94-9.63a18.21,18.21,0,0,1,10.33-3.44,10,10,0,0,1,6.28,2q1,1.21,9.31,8.71l7.5,6.68-3.65,10.13a31.78,31.78,0,0,0-1.82,9.92,27.31,27.31,0,0,0,4.46,14.79,10.71,10.71,0,0,0,4,4.25,14.37,14.37,0,0,0,6.07,2.43q4.45.81,4.46,4.46c0,2.7-1.21,4.32-3.65,4.86a10.53,10.53,0,0,1-2.43.2q-12,0-20.66-16.81a27.48,27.48,0,0,1-2.12-4.45,25.45,25.45,0,0,1-1.52-4.46c-.81,1.08-1.83,2.36-3,3.85s-2.37,2.77-3.44,3.85q-22.08,22.08-34.84,22.07a13.48,13.48,0,0,1-7.3-2A9.89,9.89,0,0,0,1176.21,136.19Zm11.34-8.21a20.49,20.49,0,0,0,5.27-2,37.28,37.28,0,0,0,6.38-4.26q17.41-15,25.12-26.12l4.45-7.3a18.89,18.89,0,0,0-4.25-6.17,6.51,6.51,0,0,0-4-1.93q-4.26,0-13.37,10.64a131.4,131.4,0,0,0-16.61,25,73.28,73.28,0,0,0-3.24,7c-1,2.36-1.55,3.88-1.82,4.56C1185.43,128.05,1186.14,128.26,1187.55,128Z" fill="none"/>
    </clipPath>
  </defs>
  <desc id="hitoshi_name_description">Name: Hitoshi Demegawa</desc>
  <g id="Hitoshi_name">
    <g id="Hitoshi_h_mask">
      <g clip-path="url(#Hitoshi-clip-path)">
        <path id="Hitoshi_h" d="M68.5,3.5c-24.63,48.76-44.93,103-60,164l24-87,72-1,32-73c-24.2,58.08-44,112-53,156" fill="none" stroke="#000" stroke-width="23"/>
      </g>
    </g>
    <g id="Hitoshi_i_mask">
      <g clip-path="url(#Hitoshi-clip-path-2)">
        <line id="Hitoshi_i1" x1="150.5" y1="79.5" x2="127.5" y2="144.5" fill="none" stroke="#000" stroke-width="16"/>
        <path id="Hitoshi_i2" d="M161.5,33.5a117.31,117.31,0,0,1-11,30" fill="none" stroke="#000" stroke-width="18"/>
      </g>
    </g>
    <g id="Hitoshi_t_mask">
      <g clip-path="url(#Hitoshi-clip-path-3)">
        <path id="Hitoshi_t1" d="M216,30c-29,43.17-42.92,80.37-35,109,12.75,4.56,28-3.36,44-15" fill="none" stroke="#000" stroke-width="17"/>
        <path id="Hitoshi_t2" d="M236.5,63.5a301.08,301.08,0,0,1-69,4" fill="none" stroke="#000" stroke-width="17"/>
      </g>
    </g>
    <g id="Hitoshi_o_mask">
      <g clip-path="url(#Hitoshi-clip-path-4)">
        <path id="Hitoshi_o" d="M303.5,80.5l-25,12-12-9,14-13c-17.54,7-31.11,21.55-38,49,1.07,10.17,5.39,15.37,14,14a118.62,118.62,0,0,0,31-31l-4-8Z" fill="none" stroke="#000" stroke-width="19"/>
      </g>
    </g>
    <g id="Hitoshi_s_mask">
      <g clip-path="url(#Hitoshi-clip-path-5)">
        <path id="Hitoshi_s" d="M355.5,96.5c3.65-10.11,6.5-19.64,5-26-18.55-9.8-28.54,11.61-41,24,7.8,15.33,12.57,28.72,14,40-7.85,7.67-21.72,4.21-36,0" fill="none" stroke="#000" stroke-width="19"/>
      </g>
    </g>
    <g id="Hitoshi_h1_mask">
      <g clip-path="url(#Hitoshi-clip-path-6)">
        <path id="Hitoshi_h1" d="M420.5,12.5c-4.73,26-23.27,74.85-42,124,22.08-28,48.29-53.95,56-49-.43,30,3.06,48.91,10,58" fill="none" stroke="#000" stroke-width="21"/>
      </g>
    </g>
    <g id="Hitoshi_i2_mask">
      <g clip-path="url(#Hitoshi-clip-path-7)">
        <line id="Hitoshi_i3" x1="491.5" y1="79.5" x2="464.5" y2="142.5" fill="none" stroke="#000" stroke-width="17"/>
        <line id="Hitoshi_i4" x1="487.5" y1="37.5" x2="512.5" y2="63.5" fill="none" stroke="#000" stroke-width="20"/>
      </g>
    </g>
    <g id="Hitoshi_d_mask">
      <g clip-path="url(#Hitoshi-clip-path-8)">
        <path id="Hitoshi_d" d="M560.5,143.5l41-126c-3-9.86-16.65-6.07-29-4,37.62-8.52,70.49-4.28,87,44-5.39,43.15-24.08,76.51-63,95-15.91,10-36,7.5-58-1" fill="none" stroke="#000" stroke-width="21"/>
      </g>
    </g>
    <g id="Hitoshi_e_mask">
      <g clip-path="url(#Hitoshi-clip-path-9)">
        <path id="Hitoshi_e" d="M683.5,97.5l24,5c10.09-4.08,15.09-11.38,18-20-2.86-7.81-10-9.65-19-9-17.88,11.71-32.39,26.11-25,58,10.87,13.93,24.69,7.22,40-10" fill="none" stroke="#000" stroke-width="14"/>
      </g>
    </g>
    <g id="Hitoshi_m_mask">
      <g clip-path="url(#Hitoshi-clip-path-10)">
        <path id="Hitoshi_m" d="M756,64c-.71,21.31-8.81,46.37-20,73,19.86-20.65,39.07-45.06,62-48l-22,50c18.4-20,36.68-39.51,50-40-2.58,23.21,3,38.35,19,43" fill="none" stroke="#000" stroke-width="21"/>
      </g>
    </g>
    <g id="Hitoshi_e2_mask">
      <g clip-path="url(#Hitoshi-clip-path-11)">
        <path id="Hitoshi_e2" d="M864.5,98.5l22,8c9.35-7.09,14.48-15.84,16-26-3.8-10.65-12.38-8.88-21-7-22.42,22.59-27.9,44.92-17,67,13.09-1,26.5-8.62,40-18" fill="none" stroke="#000" stroke-width="19"/>
      </g>
    </g>
    <g id="Hitoshi_g_mask">
      <g clip-path="url(#Hitoshi-clip-path-12)">
        <path id="Hitoshi_g" d="M962.5,106.5l14-22c-2.16-6.63-7.46-10.72-15-13-13.5,9-27.09,20.61-41,41,1.71,7.17,5.1,12.17,14,10,11.29-1.71,22.15-13.65,33-26-10.06,40.23-20.08,70.06-30,81-9.12,2.74-19.41-4.84-30-15" fill="none" stroke="#000" stroke-width="22"/>
      </g>
    </g>
    <g id="Hitoshi_a_mask">
      <g clip-path="url(#Hitoshi-clip-path-13)">
        <path id="Hitoshi_a" d="M1041,95c.17-13.14-5.6-17.52-14-18-18.53,15-29.75,31.38-34,49,2.11,6.08,6.64,9,14.5,7.5,15.43-8.39,24.41-26.41,33-45-8.34,35.17-4.09,55.61,31,40" fill="none" stroke="#000" stroke-width="22"/>
      </g>
    </g>
    <g id="Hitoshi_w_mask">
      <g clip-path="url(#Hitoshi-clip-path-14)">
        <path id="Hitoshi_w" d="M1091,66c-2.28,23.4-3.15,46-1,67a222.34,222.34,0,0,0,44-61c-13.58,28.33-17.14,50.34-3.5,61.5,13.18-10.91,27-34.16,41-59" fill="none" stroke="#000" stroke-width="21"/>
      </g>
    </g>
    <g id="Hitoshi_a2_mask">
      <g clip-path="url(#Hitoshi-clip-path-15)">
        <path id="Hitoshi_a2" d="M1233.5,85.5c-.23-8.24-6.28-11.64-16-12-11.35,7.29-23.73,19.76-40,52,2.23,5.68,5.76,9.22,11,10,22.07-11.54,38.36-29.73,48.93-55.32-9.52,30.39-4.28,50.33,22.07,55.32" fill="none" stroke="#000" stroke-width="18"/>
      </g>
    </g>
  </g>
</svg>
