<svg xmlns="http://www.w3.org/2000/svg" xmlns:xlink="http://www.w3.org/1999/xlink" width="1291" height="255" viewBox="0 0 1291 255" aria-labelledby="ito_name_description">
  <defs>
    <clipPath id="Ito-clip-path">
      <path id="Ito_i_clip" d="M23.35,228.09l-2.81.31a18.55,18.55,0,0,1-10.27-2.8c-2.91-1.87-4-3.94-3.43-6.23q.62-8.1,25.85-8.41l16.51-.31,3.11-6.23q2.49-7.15,7.17-23Q61,175.46,66,161.44q9.65-29.9,10.28-32.39,1.55-3.74,5-15t5.29-18.38q14.64-45.15,11.84-45.78-3.12-.31-17,1.09T66,53.36a3.63,3.63,0,0,1-3.12,1.25,7.65,7.65,0,0,1-4-1.4,6.42,6.42,0,0,1-2.8-3.27,14.66,14.66,0,0,1-.31-3.43,3.89,3.89,0,0,1,1.87-3.42Q61,40.28,72.71,36.7a127.38,127.38,0,0,1,22.58-4.83A58.55,58.55,0,0,0,106,29.54a22.38,22.38,0,0,0,8.25-4.21,29.39,29.39,0,0,1,10.9-1.87c1.46,1.05,5,1.56,10.59,1.56,4.78,0,8.41-.1,10.91-.31a176.57,176.57,0,0,1,19-1.25c3.95,0,6.8.42,8.57,1.25a9.32,9.32,0,0,1,4.2,4.05,35.47,35.47,0,0,1,1.25,6.54q0,5.93-6.85,5.61-5.31,1.25-25.54,1.86-22.12,1.88-23.67,4.36a17.09,17.09,0,0,0-2.34,2.81q-.78,1.25-1.71,2.49c.2.83-.26,3.48-1.4,7.94s-2.55,9-4.21,13.55l-5.6,16.51q-8.73,27.09-11.22,33.32a50.45,50.45,0,0,0-3.11,10.91q-5.3,18.38-8.72,29.12T80,181.06q-5.91,17.44-9,29.28l17.75-1.56q18.38-1.86,24-1.87c2.9,0,4.93.31,6.07.94a6.29,6.29,0,0,1,2.65,3.73q3.74,4.68,3.73,7.79,0,3.74-5.91,5.3t-18.38,1.24q-14.33.63-23.83,1.09T64.3,228.4c-2.18.63-3.47,1.66-3.89,3.12,0,1.66-.93,2.49-2.8,2.49a14.42,14.42,0,0,1-5.92-1.25Q47.64,227.17,23.35,228.09Z" fill="none"/>
    </clipPath>
    <clipPath id="Ito-clip-path-2">
      <path id="Ito_t_clip" d="M165.21,214.23c-3.42-3.84-5.66-7.42-6.69-10.74a2.33,2.33,0,0,0-.63-1.4c-.41-.52-.73-.88-.93-1.09-.83-.63-1.25-4.05-1.25-10.28,0-5,.26-10.17.78-15.58a92.78,92.78,0,0,1,2-13.08l5.6-16.5,4.36-12.46L176.89,115l-12.45-3.42a5.33,5.33,0,0,1-3.59-2.18,5.93,5.93,0,0,1-1.4-3.43q0-2.49,2.65-6.07t4.2-3.58a23.07,23.07,0,0,0,5,.31,76.53,76.53,0,0,0,14-.94,7.52,7.52,0,0,0,4.36-5q1.25-2.49,3-6.23t3.27-6.85c.63-1.25,1.61-3.16,3-5.76S201.91,66.34,204,63c.41-.62,1.35-2.13,2.8-4.52a23,23,0,0,1,5.3-6.07,7.22,7.22,0,0,1,5.29-2.18q3.12,0,8.1,4,.61.93,1.71,2.49a5.06,5.06,0,0,1,1.09,2.8c0,.84-.83,2.6-2.49,5.3-1.24,2.49-2.44,4.72-3.58,6.69l-3,5.14Q215.52,83,214,86.07q-3.12,4.05-3.12,6.23t4,2.18a95.26,95.26,0,0,0,14.64-1.87,50,50,0,0,1,5.92-.62q10.89,0,11.83,9a26.54,26.54,0,0,1,.31,4.36q0,4.37-3,5.29t-13.24.94a132.88,132.88,0,0,1-20.56,1.55c-1.24,0-2.65.06-4.2.16a28.51,28.51,0,0,0-4.83.78,6.87,6.87,0,0,0-3.58,1.87,16.51,16.51,0,0,0-2.34,4c-.62.62-2.08,3-4.36,7.16-2.91,6-4.78,9.65-5.6,10.9a304.57,304.57,0,0,0-12.46,51.08q-.63,5-.63,6.23,0,4.67,3.12,6.54c2.07,1.25,5.61,1.87,10.59,1.87a68.75,68.75,0,0,0,18.37-2.18,127.19,127.19,0,0,0,14-6.85q2.81-1.56,5.14-3c1.56-.94,2.65-1.61,3.27-2,.62-1.24,1.35-1.87,2.18-1.87,1.66,0,3.11,1.67,4.36,5a17,17,0,0,1-2.18,8.72q-2.19,3.74-10.9,8.72-18.08,11.52-36.13,11.52a44.68,44.68,0,0,1-9.34-.93Q170.34,220,165.21,214.23Z" fill="none"/>
    </clipPath>
    <clipPath id="Ito-clip-path-3">
      <path id="Ito_o_clip" d="M269.39,217.19a46.21,46.21,0,0,1-6.22-4.67q-10.29-10.9-10.28-19.93a10.9,10.9,0,0,1,.31-3.12,9.33,9.33,0,0,0,.78-4.36c-.11-1.45-.16-2.38-.16-2.8-.83-.83-1.24-1.4-1.24-1.71a1.23,1.23,0,0,1,.62-.94,3.1,3.1,0,0,0,.93-1.09c1.25,0,1.66-1.14,1.25-3.43q-.63-2.47,2.49-11a76.11,76.11,0,0,1,7.79-15.73,144.26,144.26,0,0,1,10.12-14,87.06,87.06,0,0,1,12-12.77,72.66,72.66,0,0,1,13.39-9.65,51.76,51.76,0,0,1,13.09-4.67,43.2,43.2,0,0,1,8.4-1.56,7.12,7.12,0,0,1,3.9,1.09,29.86,29.86,0,0,1,4.51,3.89q8.42,3.73,11.68,9.5T346,138.08q0,20.25-16.5,43.92a88.2,88.2,0,0,1-13.4,15.73,120,120,0,0,1-16.5,11.68,52.9,52.9,0,0,1-12,6.69,40.5,40.5,0,0,1-12.3,2.34A12,12,0,0,1,269.39,217.19Zm47.81-47.65a103.82,103.82,0,0,0,8.57-19,45.63,45.63,0,0,0,1.56-12.77q0-9.35-2.5-10.59a13.77,13.77,0,0,0-6.22-1.56q-6.86,0-14.33,6.23A84.41,84.41,0,0,0,288.08,151a224.93,224.93,0,0,0-14.64,28.18A29.68,29.68,0,0,0,270.33,192a11.3,11.3,0,0,0,2.34,7.48,7.84,7.84,0,0,0,6.38,2.8q10.27,0,26.16-16.82A109.17,109.17,0,0,0,317.2,169.54Z" fill="none"/>
    </clipPath>
    <clipPath id="Ito-clip-path-4">
      <path id="Ito_s_clip" d="M474.64,234.94,475,234q0-3.12-5.29-3.43A44.81,44.81,0,0,1,458,220a45.74,45.74,0,0,1-7-11.53,56,56,0,0,1-2.18-5.29,1.8,1.8,0,0,1,1.09-1.56c.73-.41,1.61-.94,2.65-1.56a6.17,6.17,0,0,1,4.05-1.56,3,3,0,0,1,2.33,1.41,37.9,37.9,0,0,1,3,4.82q3.74,6.54,12.77,10.44a51.39,51.39,0,0,0,20.56,3.89,61.64,61.64,0,0,0,26.16-5.61q8.1-3.42,11.84-6.69t3.73-7.32q0-3.74-3.42-9a15.45,15.45,0,0,0-2.65-4.52,51.75,51.75,0,0,0-4.83-4.83q-1.86-1.55-7.16-6.85a66.87,66.87,0,0,1-10.28-5l-6.54-3.12q-8.42-3.74-19.47-12.92t-14.79-16a27.08,27.08,0,0,1-6.85-11.22,46.82,46.82,0,0,1-2.49-15.57,45.28,45.28,0,0,1,4.67-20.56q3.74-8.4,16.51-23.35t19.62-19.63L507.34,39c.21-.83.52-1.3.94-1.4a3.88,3.88,0,0,1,.93-.16,65.72,65.72,0,0,1,6.54-3,40.54,40.54,0,0,0,11.84-8.25q21.18-10.27,34.1-14.8T583,7q11.84.63,20.09,7.32a26.69,26.69,0,0,1,9.81,17.59,19.15,19.15,0,0,1,.62,5.61q0,11.22-8.1,24.14T587.08,80.46q-7.79,3.44-10.9,3.43a3,3,0,0,1-3-1.56,9.76,9.76,0,0,1-.47-5,13.24,13.24,0,0,1,2-6.39q2-3.57,9.18-11.68,12.78-18.37,12.77-27.41c0-3.52-1.55-5.39-4.67-5.6-2.29-.63-8-.1-17.28,1.55s-13.86,3-13.86,4.05a7,7,0,0,1-.16,1.09c-.11.52-.47.68-1.09.47q-1.24-.3-23,12.93T514.2,61.15a6.25,6.25,0,0,1-2.34,3.27,20,20,0,0,1-4.83,3,37.66,37.66,0,0,0-10.9,10A169.2,169.2,0,0,0,484.3,96a51,51,0,0,0-6.08,11.53,32.48,32.48,0,0,0-2.33,11.21,16.91,16.91,0,0,0,.93,5.92q1.56,5.3,9.66,12.92a113.23,113.23,0,0,0,20.24,14.8A207.29,207.29,0,0,1,533.35,170q10.74,8.56,13.55,14.48a37.05,37.05,0,0,1,7.16,22.11,33.47,33.47,0,0,1-.93,8.1,36.47,36.47,0,0,1-7.79,10.43q-5.3,5.15-9,4.83A20.41,20.41,0,0,0,531,232.3a24.4,24.4,0,0,1-3.74,2q-3.43,2.18-16.35,3.58a144.06,144.06,0,0,1-23.83.78Z" fill="none"/>
    </clipPath>
    <clipPath id="Ito-clip-path-5">
      <path id="Ito_h_clip" d="M678.65,216q-7.8,0-12.62-6.86t-4.83-18.37q0-5.29,2.18-17.6a136,136,0,0,1,5-20.4,26.33,26.33,0,0,0,.93-2.49,6.2,6.2,0,0,0,.47-2.65q-.16-.78-.78-.78c-1,0-2.91,1.36-5.61,4a189.45,189.45,0,0,0-18.68,18.84,172.35,172.35,0,0,0-16.51,21.81q-6.54,10.44-6.54,14.48a6.09,6.09,0,0,1-2.65,5.29,10.25,10.25,0,0,1-6.07,1.87,8.93,8.93,0,0,1-4-.93q-4.68-2.81-6.39-6.23c-1.14-2.28-1.71-5.61-1.71-10q0-5.3.31-8.41a276.45,276.45,0,0,1,4.52-37.84q3.27-16.35,12.61-46.56.31-.93,5.92-15.89,9.65-27.4,10.9-29.9,2.18-2.17,6.39-13.54T645.63,30a10.55,10.55,0,0,1,3.12-7.78l3.11-3.12a12.82,12.82,0,0,1,6.54,2.34,10.06,10.06,0,0,1,4.67,5.45,18.16,18.16,0,0,1,2.18,8.72,29.3,29.3,0,0,1-2.64,10.75q-2.65,6.38-8.88,18.53a315.88,315.88,0,0,0-16.82,41.42q-3.43,10-9.5,31t-6.07,24.45a1.92,1.92,0,0,0,2.18,2.18c1.66,0,3.42-1.24,5.29-3.74q1.25-2.48,11.84-12.14,1.23-1.25,14-12.93T673,123.44a11.8,11.8,0,0,1,7.32,2.81,13.9,13.9,0,0,1,4.83,6.54,9.83,9.83,0,0,1,1.86,2.49,7.35,7.35,0,0,0,1.25,1.87c.41.42.62,1.66.62,3.73q0,10.92-6.85,31.46-5.3,20.57-5.29,24.61c0,1.87.51,2.8,1.55,2.8.63-.41,1.87-1.14,3.74-2.18s4-2.28,6.54-3.74q10.59-7.16,18.69-7.16,3.74,0,3.74,2.49a5.34,5.34,0,0,1-.94,2.18,5.35,5.35,0,0,0-.93,2.49v1.56q0,1.56-8.41,9.34t-12.15,8.72A20.76,20.76,0,0,1,678.65,216Z" fill="none"/>
    </clipPath>
    <clipPath id="Ito-clip-path-6">
      <path id="Ito_i2_clip" d="M739.84,207.54a28.64,28.64,0,0,1-4.2-11.84q1.25-11.83,1.87-16.82,2.49-11.52,7.94-31.61t6.7-22.58a3.06,3.06,0,0,1,2.8-1.56,8.28,8.28,0,0,1,4,1.25,17.64,17.64,0,0,1,3.74,2.8,12.93,12.93,0,0,1,2.49,7.79q0,6.54-6.23,27.41-4.37,15.57-5.61,22.11a61.07,61.07,0,0,0-.93,14c-.21,1.46-.58,3.9-1.09,7.32a29.13,29.13,0,0,1-1.4,6.39,2,2,0,0,1-1.87,1.24Q743.42,213.45,739.84,207.54ZM781.42,90.12c-.83,0-2.18-.63-4-1.87q-3.12-.31-8.26-5.45c-3.42-3.43-5.14-5.66-5.14-6.7a31.18,31.18,0,0,1,1.87-13.39q2.49-7.17,9-7.48a9.36,9.36,0,0,1,2.5.47c1,.31,2.8,1,5.29,2,.41.84,1.29,2.6,2.65,5.3a46.78,46.78,0,0,1,3.11,7.79,24.47,24.47,0,0,1,1.09,6.85,13,13,0,0,1-6.23,11.52A2.7,2.7,0,0,1,781.42,90.12Z" fill="none"/>
    </clipPath>
    <clipPath id="Ito-clip-path-7">
      <path id="Ito_r_clip" d="M802.6,218.13a7.47,7.47,0,0,1-3.89-1.25,20,20,0,0,1-2.34-1.56c-3.11,0-5.09-1.66-5.91-5a7.59,7.59,0,0,1-.32-2.8q0-4,3.74-15.89l2.18-10q3.12-13.71,5.61-23.05.93-1.56,3.74-10.59a79.22,79.22,0,0,1,5-13.39,109.73,109.73,0,0,1,11.84-27.72,13.45,13.45,0,0,1,2.49-2.5,5.47,5.47,0,0,1,2.8-1.55,5.64,5.64,0,0,1,4.05-1.87q2.17,0,5.6,2.8,3.12,3.74,3.12,7.16,0,5.92-7.79,17.76l-5,12.14c-.42,1.05-1.46,3.48-3.11,7.32a39.62,39.62,0,0,0-3.12,10.44q4.05-5.61,14.64-16.2a95.58,95.58,0,0,1,10.28-9.19q4-3,11.83-7.94a54.7,54.7,0,0,1,10-5.92,24.36,24.36,0,0,1,9.66-1.87,23.32,23.32,0,0,1,4.36.32q4.35-.32,6.85,4.36A31.5,31.5,0,0,1,892,134.34a38.13,38.13,0,0,0-5.29-.62,23.77,23.77,0,0,0-11.06,2.49A56.85,56.85,0,0,0,867.7,141c-2.08,1.56-3.43,2.54-4.05,3q-16.81,10.91-26.16,20.55-9.66,10.6-13.55,15.58a37.79,37.79,0,0,0-5.76,10q-.95,2.19-5.3,12.93T805.72,216A3.62,3.62,0,0,1,802.6,218.13Z" fill="none"/>
    </clipPath>
    <clipPath id="Ito-clip-path-8">
      <path id="Ito_o2_clip" d="M927.65,220.77a33.14,33.14,0,0,1-6.7-3.58q-13.4-10.89-13.08-21.49a9.37,9.37,0,0,0,.31-2.8,11.1,11.1,0,0,0-.31-3,6.8,6.8,0,0,1-.31-1.4c-.83-.63-1.3-1.09-1.4-1.4a1.18,1.18,0,0,1,.31-1.09,8.54,8.54,0,0,0,.78-1.25c.83-.2,1.24-.62,1.24-1.25a5,5,0,0,0-.62-2.18q-.93-2.49,1.09-11.36a92.74,92.74,0,0,1,5.45-16.67,140.62,140.62,0,0,1,7.94-15.26,80.82,80.82,0,0,1,10.13-14.33,80,80,0,0,1,12-11.52,46.54,46.54,0,0,1,12.61-6.54q6.54-2.81,9-2.8,3.12,0,7.79,3.73,7.47,2.19,11.37,6.08t6.07,12a53.09,53.09,0,0,1,1.87,14.64q0,17.44-10.9,38.31-5.61,11.21-10.9,17.28a149.72,149.72,0,0,1-14.64,14.17,92.14,92.14,0,0,1-11.37,8.1,35.91,35.91,0,0,1-11.68,4.05A15.43,15.43,0,0,1,927.65,220.77Zm41-54.19a93,93,0,0,0,5.6-19.78,25,25,0,0,0,.31-5A55.18,55.18,0,0,0,973.28,130c-.83-3.73-1.87-5.71-3.12-5.91a13.2,13.2,0,0,0-4.67-.94q-7.17,0-15.26,8.41a85,85,0,0,0-12.93,21,256.81,256.81,0,0,0-10.74,30.06,43.39,43.39,0,0,0-1.56,10q0,5.59,2.18,8.87a7,7,0,0,0,6.23,3.27q5,0,11.52-5.14t13.71-15.41A110.11,110.11,0,0,0,968.61,166.58Z" fill="none"/>
    </clipPath>
    <clipPath id="Ito-clip-path-9">
      <path id="Ito_b_clip" d="M1039.15,216.26q-1.39-.94-3.27-5a11.21,11.21,0,0,1-3-4.05,6.31,6.31,0,0,1-.15-3.11c2.49,0,3.94-.41,4.36-1.25,0-.62.36-1,1.09-1.24a4.38,4.38,0,0,1,2.33,0q8.42.63,24.3-8.72a187.22,187.22,0,0,0,31.76-24q9-11.52,12.62-18.07t3.58-10.59a11.76,11.76,0,0,0-.93-4.67q-.95-2.18-6.54-2.18-9.66,0-19.94,6.85a178.74,178.74,0,0,0-21.49,15.42A98.52,98.52,0,0,0,1049,172a66.3,66.3,0,0,0-6.23,10.12c-2.08,4-3.42,6.7-4,7.94,0,.84-1.19,1.87-3.58,3.12a13.7,13.7,0,0,1-6.07,1.87,12.54,12.54,0,0,1-3.58-2.49,6.93,6.93,0,0,1-2.34-4.36,13.84,13.84,0,0,0-2-1.56,5.24,5.24,0,0,1-1.87-1.87,4.83,4.83,0,0,1-.47-2.18,43,43,0,0,1,1.71-8.25q1.71-6.39,2.65-9.5,2.49-11.84,6.39-24.61t5.45-14c.2-.42.67-1.56,1.4-3.43a16.33,16.33,0,0,0,1.09-5.92,43.89,43.89,0,0,1,2-6.38,21.08,21.08,0,0,0,1.4-4.21q1.56-1.23,10-24.6,0-1.24,6.85-16.51,10.27-23.36,12.46-29.9a68.07,68.07,0,0,0,5-8.41q3.44-6.23,5-6.85c1.66-.41,3.78-.1,6.38.93a13.24,13.24,0,0,1,6.08,4.67,7,7,0,0,1,1.55,3.12,19.17,19.17,0,0,1-1.71,5.76q-1.71,4.2-3.89,8.57c-1.46,2.91-2.49,5.09-3.12,6.54l-7.78,16.19q-8.41,17.76-13.71,31.62t-11.21,31.61l-5.61,15.26-1.55,6.85,7.78-7.47q3.73-2.81,13.71-11.53,2.17-1.86,3.89-3.27c1.14-.93,2-1.71,2.65-2.33a73,73,0,0,1,10.9-5.61,68.5,68.5,0,0,1,10-3.74,57,57,0,0,1,13.71-1.55,18.33,18.33,0,0,1,10.9,3.11q4.37,3.12,8.41,10a26.71,26.71,0,0,1,2.8,12.14,34.87,34.87,0,0,1-5,18.07,19,19,0,0,0-3.12,3.27,6,6,0,0,0-1.55,3.27q-.31,1.88-5.3,8.41T1104.4,187a115.91,115.91,0,0,1-21.33,16.82q-13.24,8.41-22,11.52c-1.25.21-3.58.58-7,1.09a67.46,67.46,0,0,0-7.32,1.4C1042.63,217.4,1040.08,216.88,1039.15,216.26Z" fill="none"/>
    </clipPath>
    <clipPath id="Ito-clip-path-10">
      <path id="Ito_a_clip" d="M1143.8,208c-1.35-1.34-2-2.23-2-2.64a8.05,8.05,0,0,0-1.56-5.3c-.42-.41-.62-1.35-.62-2.8q0-5,4.82-17a234.94,234.94,0,0,1,12.62-26,42,42,0,0,0,4.83-6.54c2-3.12,3.27-4.88,3.89-5.3a3.53,3.53,0,0,1,.93-2.33,2.8,2.8,0,0,1,2.18-1.09v-1.87q0-2.81,10.28-13.55T1196,108.8a28,28,0,0,1,15.89-5.29,15.41,15.41,0,0,1,9.65,3.11q1.56,1.88,14.33,13.4l11.52,10.27-5.6,15.58a48.67,48.67,0,0,0-2.81,15.26,42.2,42.2,0,0,0,6.85,22.74q1.56,3.42,6.23,6.54a22.15,22.15,0,0,0,9.35,3.73q6.84,1.26,6.85,6.86,0,6.23-5.61,7.47a16.47,16.47,0,0,1-3.73.31q-18.39,0-31.77-25.85a42.26,42.26,0,0,1-3.27-6.85,38.73,38.73,0,0,1-2.34-6.85c-1.25,1.66-2.8,3.63-4.67,5.91s-3.64,4.26-5.3,5.92Q1177.6,215,1158,215a20.76,20.76,0,0,1-11.21-3.11A15.51,15.51,0,0,0,1143.8,208Zm17.44-12.61a31.28,31.28,0,0,0,8.1-3.11,56.77,56.77,0,0,0,9.81-6.55q26.79-23,38.62-40.17l6.86-11.22q-3.12-6.54-6.55-9.5c-2.28-2-4.36-3-6.22-3q-6.54,0-20.56,16.36a203,203,0,0,0-25.54,38.46,111.76,111.76,0,0,0-5,10.75c-1.46,3.63-2.39,6-2.81,7Q1158,196,1161.24,195.39Z" fill="none"/>
    </clipPath>
  </defs>
  <desc id="ito_name_description">Name: Ito Shiroba</desc>
  <g id="Ito_name">
    <g id="Ito_i_mask">
      <g clip-path="url(#Ito-clip-path)">
        <path id="Ito_i" d="M190.5,31.5c-47.06-3.45-95.2,4.36-144,19l72-17-62,185-54,3c46.72-5.44,90.13-7.19,130-5" fill="none" stroke="#000" stroke-width="32"/>
      </g>
    </g>
    <g id="Ito_t_mask">
      <g clip-path="url(#Ito-clip-path-2)">
        <path id="Ito_t1" d="M227,47c-44.66,68-74.59,129.07-53,166,22.06.81,44.47-7.16,67-18" fill="none" stroke="#000" stroke-width="23"/>
        <path id="Ito_t2" d="M253.5,100.5c-29.92,7.4-67.61,6.2-108,2" fill="none" stroke="#000" stroke-width="24"/>
      </g>
    </g>
    <g id="Ito_o_mask">
      <g clip-path="url(#Ito-clip-path-3)">
        <path id="Ito_o" d="M341,136c-5.33-19.92-17.38-22.48-31-21-23.07,17.32-39.22,42.58-50,74,4.12,16.47,13.19,23.62,28,20C307.27,191.57,325.92,171.51,341,136Z" fill="none" stroke="#000" stroke-width="27"/>
      </g>
    </g>
    <g id="Ito_s_mask">
      <g clip-path="url(#Ito-clip-path-4)">
        <path id="Ito_s" d="M574.5,90.5c33.09-42.88,42.37-69.08,17-71-51.64,3-92.15,31-122,83-.84,22.13,4.06,51.25,28.13,57.08,19.06,4.61,37.23,13.26,49.87,44.92-37,40.89-72.13,32.49-106-10" fill="none" stroke="#000" stroke-width="30"/>
      </g>
    </g>
    <g id="Ito_h_mask">
      <g clip-path="url(#Ito-clip-path-5)">
        <path id="Ito_h" d="M662,13c-27.66,78-56.12,156.83-57,203,21.73-35.78,41.42-73.19,83-93-13.84,33.72-21.94,65.63-22,95l52-32" fill="none" stroke="#000" stroke-width="26"/>
      </g>
    </g>
    <g id="Ito_i2_mask">
      <g clip-path="url(#Ito-clip-path-6)">
        <path id="Ito_i1" d="M765,118c-12.72,30.53-20.41,64.27-25,100" fill="none" stroke="#000" stroke-width="22"/>
        <path id="Ito_i2" d="M765,52c14.53,13.76,22.37,28.86,25,45" fill="none" stroke="#000" stroke-width="35"/>
      </g>
    </g>
    <g id="Ito_r_mask">
      <g clip-path="url(#Ito-clip-path-7)">
        <path id="Ito_r" d="M841.5,90.5a657.55,657.55,0,0,0-51,128c25.07-51.21,63.29-82.15,110-100" fill="none" stroke="#000" stroke-width="28"/>
      </g>
    </g>
    <g id="Ito_o2_mask">
      <g clip-path="url(#Ito-clip-path-8)">
        <path id="Ito_o2" d="M986,130c-6.27-13-17.7-17-32-16-22.32,21.92-37.21,49.48-39,87,10.2,10.22,20,15.89,29,12C964.45,191,979.67,164.4,986,130Z" fill="none" stroke="#000" stroke-width="26"/>
      </g>
    </g>
    <g id="Ito_b_mask">
      <g clip-path="url(#Ito-clip-path-9)">
        <path id="Ito_b" d="M1088,17l-71,179c40.07-52.23,70.89-70.33,97-71,19.58,33.23-10.42,63.07-83,90" fill="none" stroke="#000" stroke-width="27"/>
      </g>
    </g>
    <g id="Ito_a_mask">
      <g clip-path="url(#Ito-clip-path-10)">
        <path id="Ito_a" d="M1239.5,129.5l-32-18c-27.45,17.56-47.64,44.85-59,84,2.93,7.21,6.74,11.5,12,11,50.52-17.77,65-55.14,86-89-15.87,56.11-9.78,88.86,27,89" fill="none" stroke="#000" stroke-width="30"/>
      </g>
    </g>
  </g>
</svg>
