<svg xmlns="http://www.w3.org/2000/svg" xmlns:xlink="http://www.w3.org/1999/xlink" width="1163" height="200" viewBox="0 0 1163 200" aria-labelledby="kiichiro_name_description">
  <defs>
    <clipPath id="Kiichiro-clip-path">
      <path id="Kiichiro_clip" d="M131,22.9c-.9,1.15-2.86,2.65-5.9,4.49q-9.31,5.07-10.56,7.6c-.7.61-2.25,1.92-4.66,3.91s-5.42,4.46-9,7.37q-8.09,6-14,11.28t-7.77,8.06a2.82,2.82,0,0,0-1.55.69,1.73,1.73,0,0,1-1.56.46,19.29,19.29,0,0,0-1.86,1.38,10,10,0,0,0-2.07,2.07,12.15,12.15,0,0,1-2,3.57,3.41,3.41,0,0,1-3.21,1.5q-3.95,2.3-15.54,12.66,1.45,17.73,8.08,31.08,6,14.74,12.22,21.64A53.61,53.61,0,0,0,79.81,149c2.56,2,4.52,3,5.91,3a23,23,0,0,1,5.18,3.23c2.2,1.69,3.38,3.07,3.52,4.14a5.55,5.55,0,0,1,.2,1.84,9.64,9.64,0,0,1-1,5.07,18.12,18.12,0,0,1-1.45,2.42,2.49,2.49,0,0,1-2.07.8,12.12,12.12,0,0,1-5.6-1.84q-3.31.22-11.39-6.91a84.11,84.11,0,0,1-12.42-13.12q-5.59-9-9.64-16.35a64.07,64.07,0,0,1-6.11-16.11q-.82-4.15-3.1-12.44a35.78,35.78,0,0,1-1.66-6.21V92.08L37.66,99q-.21.69-2.58,7.6T28.34,131L25,143q-4.77,16.59-6.32,21t-3.21,4.37a3.94,3.94,0,0,1-2.17-1c-.9-.69-1.56-1.19-2-1.49a9,9,0,0,1-2.28-2.07,4.1,4.1,0,0,1-.62-2.31,27.87,27.87,0,0,1,1-5.75,20,20,0,0,1,.41-5.76,27.53,27.53,0,0,0,.62-3.22c1,0,1.45-1.23,1.45-3.69,0-1.22.62-3.91,1.87-8.05l1.86-7.14,2.48-6.68q2.28-6.44,2.28-6.9,0-3,2.7-7.6.82-2.76,1.45-6a29.35,29.35,0,0,0,.62-5.29c.27-.77,1-2.53,2.28-5.3a39.07,39.07,0,0,0,2.69-8.29,14.56,14.56,0,0,1,.72-2.53q.53-1.38,1.14-3.45L38.91,55,42,47.19c.28-.77,1.21-3.14,2.8-7.14s2.66-6,3.21-6V31.53q0-.91,2.28-6L52.78,20a32.72,32.72,0,0,0,2.59-5.87c.62-1.92,1-3.18,1.14-3.8.14-.3.42-.84.83-1.61a11.43,11.43,0,0,1,1.45-2.07,6.86,6.86,0,0,1,4.14-1.84c1.94,0,3.59,1.53,5,4.6a14.25,14.25,0,0,1,1.45,5.76,11.55,11.55,0,0,1-1.86,5.52q-7,16.82-14.19,34.54T46.16,75.74l7-5.76A180.55,180.55,0,0,1,70.39,54.1l25.48-23a82.54,82.54,0,0,0,13.67-10.13,26.73,26.73,0,0,0,3.31-2.53,12.29,12.29,0,0,1,2.07-1.61q1.24-1.15,5-4c2.49-1.92,4.07-2.8,4.77-2.65,1.51-.76,3.17,0,5,2.31s2.55,4.45,2.28,6.44A4.88,4.88,0,0,1,131,22.9Z" fill="none"/>
    </clipPath>
    <clipPath id="Kiichiro-clip-path-2">
      <path id="Kiichiro_i1_clip" d="M116.78,140.66a13.23,13.23,0,0,1,1-5.52,11.1,11.1,0,0,1,.41-2.76,11.32,11.32,0,0,0,.42-2.08q-.21-1.38,1.65-7.59,3.74-9.21,9.94-32.47a2.64,2.64,0,0,1,.83-1.95,4.28,4.28,0,0,1,2.49-1,10.09,10.09,0,0,1,2.28-.46,2.81,2.81,0,0,1,2.17,1,27.65,27.65,0,0,1,2.59,3.79,6,6,0,0,1,1.24,4.15c0,2.92-.9,6.44-2.69,10.59a57.41,57.41,0,0,0-3.52,11.51,108.19,108.19,0,0,0-3.94,11.51c-.27.92-.69,2.76-1.24,5.53a22.12,22.12,0,0,1-2.28,6.67,55.17,55.17,0,0,1-2.27,9c-.7,1.69-1.45,2.53-2.28,2.53s-2.28-1.07-3.94-3.22C117.75,147.72,116.78,144.66,116.78,140.66Zm20.51-89.79c-.7-2.6-.7-3.91,0-3.91,1.1-.15,2.38-1.5,3.83-4s2.1-4.64,2-6.33a2.76,2.76,0,0,1,.62-1.73,2.73,2.73,0,0,1,1.45-1,5.3,5.3,0,0,1,2.9-1.15q3.51,0,6.42,5.52a14.07,14.07,0,0,1,1.24,5.3,10.08,10.08,0,0,1-1,4.26A34,34,0,0,1,151,53.41q-3.53,5.3-6.63,5.29c-1.38,0-2.9-.76-4.56-2.3A13.58,13.58,0,0,1,137.29,50.87Z" fill="none"/>
    </clipPath>
    <clipPath id="Kiichiro-clip-path-3">
      <path id="Kiichiro_i2_clip" d="M161.42,145.73a22.76,22.76,0,0,1-2.8-8.75q.82-8.74,1.24-12.43,1.66-8.52,5.28-23.37t4.46-16.69a2,2,0,0,1,1.86-1.15,5.1,5.1,0,0,1,2.69.92,11.62,11.62,0,0,1,2.49,2.07,10.32,10.32,0,0,1,1.66,5.75q0,4.85-4.15,20.26-2.9,11.52-3.72,16.35a50.2,50.2,0,0,0-.63,10.36c-.13,1.08-.38,2.88-.72,5.41a24.11,24.11,0,0,1-.93,4.72,1.33,1.33,0,0,1-1.25.92C164.83,150.1,163,148.65,161.42,145.73Zm27.65-86.8a5.78,5.78,0,0,1-2.7-1.38c-1.38-.15-3.21-1.5-5.48-4s-3.42-4.18-3.42-5a25.29,25.29,0,0,1,1.24-9.9c1.1-3.53,3.11-5.37,6-5.52a5.52,5.52,0,0,1,1.65.34c.69.23,1.87.73,3.53,1.5.27.61.86,1.92,1.76,3.91a38.76,38.76,0,0,1,2.07,5.76,20.2,20.2,0,0,1,.72,5.06,9.87,9.87,0,0,1-4.14,8.52A1.72,1.72,0,0,1,189.07,58.93Z" fill="none"/>
    </clipPath>
    <clipPath id="Kiichiro-clip-path-4">
      <path id="Kiichiro_c_clip" d="M213.09,155.17a16.56,16.56,0,0,1-12.63-5.3q-5-5.3-5-14.73-.84-10.14,4-25.1T211.85,85q5.18-6.67,8.91-10.82a21.7,21.7,0,0,1,6.83-5.53,22.36,22.36,0,0,1,9.74-2.07A22.26,22.26,0,0,1,244.68,70q3.62,2.53,3.62,5.07l1,1.15c.83,0,1.59,1.11,2.28,3.34a24.34,24.34,0,0,1,1,7.25,13.36,13.36,0,0,1-1,5.52,22.69,22.69,0,0,1-2.8,7.6q-2,3.23-3.83,3.23-2.28,0-2.28,1.38c0,.61-.28.92-.83.92a4,4,0,0,1-2.48-1.38,7.8,7.8,0,0,1-2.07-3.23,24.12,24.12,0,0,1,.83-3.91q.83-3.23,1.65-7.14a22,22,0,0,0,.62-4.83q0-4.61-3.1-4.61a6.83,6.83,0,0,0-3.32.92q-8.28,5.07-14.7,16.12t-10.77,30.39a41.86,41.86,0,0,0-1,8.06,17.25,17.25,0,0,0,.31,3.68c.21.92.45,1.46.73,1.61a12.85,12.85,0,0,0,4.35.46c5.1,0,8.7-.69,10.77-2.07a116.61,116.61,0,0,0,14.7-10.59,34.68,34.68,0,0,0,2.49-2.42,11.17,11.17,0,0,1,3.1-2.41,7.37,7.37,0,0,1,2.7-3.11,10,10,0,0,1,3.93-.58,12.36,12.36,0,0,1,4.35,2.42c1.11,1,1.11,1.81,0,2.42a.82.82,0,0,0-.83.46,1.85,1.85,0,0,0-.2.69c.27.77-.83,2.69-3.32,5.75a71.7,71.7,0,0,1-8.28,8.64c-3,2.68-5.11,4-6.22,4a4.28,4.28,0,0,0-1.45.23c-.41.15-.62.54-.62,1.15s-2.1,2-6.31,4.26a46.83,46.83,0,0,1-10.26,4.26A29.92,29.92,0,0,1,213.09,155.17Z" fill="none"/>
    </clipPath>
    <clipPath id="Kiichiro-clip-path-5">
      <path id="Kiichiro_h_clip" d="M327,151.94q-5.17,0-8.39-5.06t-3.21-13.58a94.25,94.25,0,0,1,1.45-13,109.74,109.74,0,0,1,3.32-15.08c.13-.31.34-.92.62-1.84a5,5,0,0,0,.31-2c-.07-.38-.25-.58-.52-.58-.69,0-1.94,1-3.73,3a133.12,133.12,0,0,0-12.43,13.92,127.62,127.62,0,0,0-11,16.12c-2.9,5.15-4.35,8.71-4.35,10.71a4.68,4.68,0,0,1-1.76,3.91,6.4,6.4,0,0,1-4,1.38,5.48,5.48,0,0,1-2.7-.69,11.27,11.27,0,0,1-4.24-4.6,18.64,18.64,0,0,1-1.14-7.37q0-3.92.21-6.22a225.75,225.75,0,0,1,3-28q2.18-12.09,8.39-34.42c.13-.46,1.45-4.37,3.93-11.74q6.42-20.25,7.25-22.1,1.46-1.6,4.25-10t2.8-10.24a8.27,8.27,0,0,1,2.07-5.76l2.07-2.3a8,8,0,0,1,4.35,1.73,7.26,7.26,0,0,1,3.1,4,14.51,14.51,0,0,1,1.45,6.44,23.63,23.63,0,0,1-1.76,7.94q-1.75,4.73-5.9,13.7A249.42,249.42,0,0,0,299.26,70.9q-2.29,7.38-6.32,22.91t-4,18.07c0,1.08.48,1.62,1.45,1.62s2.28-.92,3.52-2.77q.83-1.83,7.87-9,.83-.91,9.32-9.55t12.22-8.63a7.41,7.41,0,0,1,4.87,2.07,10.21,10.21,0,0,1,3.21,4.83,7.54,7.54,0,0,1,1.24,1.84,5.44,5.44,0,0,0,.83,1.39q.42.47.42,2.76,0,8.06-4.56,23.25-3.53,15.2-3.52,18.19c0,1.38.34,2.07,1,2.07.42-.3,1.25-.84,2.49-1.61s2.69-1.69,4.35-2.76q7-5.29,12.43-5.3c1.65,0,2.48.62,2.48,1.84a4.35,4.35,0,0,1-.62,1.62,4.28,4.28,0,0,0-.62,1.84v1.15q0,1.16-5.59,6.91t-8.08,6.44A12.76,12.76,0,0,1,327,151.94Z" fill="none"/>
    </clipPath>
    <clipPath id="Kiichiro-clip-path-6">
      <path id="Kiichiro_i3_clip" d="M364.71,145.5c-.7-.31-1.18-.54-1.45-.69a10.38,10.38,0,0,0-.52-2.42,10.53,10.53,0,0,1-.52-2.19,2.66,2.66,0,0,1-1.66-2.3,12.23,12.23,0,0,1,.62-3.22q2.7-5.3,9.53-24.06t7.67-22.22a5.79,5.79,0,0,1,.62-2.3,8.47,8.47,0,0,1,1.45-2.3,2.43,2.43,0,0,1,1.86-.92c1.52,0,2.93,1.15,4.25,3.45a15.08,15.08,0,0,1,2,7.6q0,2.76-4.67,15.77t-10.45,26.13L371,141.12a14,14,0,0,1-2.38,4.15,3.45,3.45,0,0,1-2.28.69A4.27,4.27,0,0,1,364.71,145.5ZM388.84,54a14.87,14.87,0,0,1-4-9.78q0-1.16,2.48-5.3a25.61,25.61,0,0,0,2.49-4.6,11.83,11.83,0,0,1,2.48.23,12,12,0,0,1,2.49.92,37.26,37.26,0,0,0,5.8,9.44c.83,1.23,1.58,2.38,2.28,3.45a5.41,5.41,0,0,1,1,2.76,28.76,28.76,0,0,1-.31,5.3,2.38,2.38,0,0,1-1.66,1.84,18.24,18.24,0,0,1-5.07.46Q392.88,58.7,388.84,54Z" fill="none"/>
    </clipPath>
    <clipPath id="Kiichiro-clip-path-7">
      <path id="Kiichiro_r_clip" d="M409.44,153.56a4.61,4.61,0,0,1-2.59-.93,12.88,12.88,0,0,1-1.55-1.15c-2.07,0-3.38-1.22-3.93-3.68a6.25,6.25,0,0,1-.21-2.07q0-3,2.48-11.74l1.45-7.37q2.07-10.12,3.73-17a58.43,58.43,0,0,0,2.49-7.83,64.28,64.28,0,0,1,3.31-9.9,87,87,0,0,1,7.87-20.49,9.9,9.9,0,0,1,1.66-1.84c.83-.76,1.45-1.15,1.86-1.15a3.62,3.62,0,0,1,2.7-1.38q1.44,0,3.72,2.07a9,9,0,0,1,2.08,5.3q0,4.36-5.18,13.12l-3.32,9q-.4,1.16-2.07,5.41a32.55,32.55,0,0,0-2.07,7.71,109.08,109.08,0,0,1,9.74-12,65.26,65.26,0,0,1,6.83-6.79q2.69-2.19,7.87-5.87a35,35,0,0,1,6.63-4.38,14.73,14.73,0,0,1,6.42-1.38,14.37,14.37,0,0,1,2.9.23c1.93-.15,3.45.92,4.56,3.23a25.45,25.45,0,0,1,2.07,9,23.4,23.4,0,0,0-3.52-.46A14.5,14.5,0,0,0,458,93a37.53,37.53,0,0,0-5.28,3.56c-1.38,1.16-2.28,1.89-2.69,2.19a103,103,0,0,0-17.4,15.2q-6.42,7.83-9,11.51a28.85,28.85,0,0,0-3.83,7.36q-.62,1.62-3.52,9.56c-1.94,5.29-3.52,8.48-4.77,9.55Q410.68,153.56,409.44,153.56Z" fill="none"/>
    </clipPath>
    <clipPath id="Kiichiro-clip-path-8">
      <path id="Kiichiro_o_clip" d="M486.08,152.87a32.45,32.45,0,0,1-4.15-3.46q-6.82-8.06-6.83-14.73a8.72,8.72,0,0,1,.21-2.3,7.6,7.6,0,0,0,.51-3.23c-.07-1.07-.1-1.76-.1-2.07-.55-.61-.83-1-.83-1.27a.94.94,0,0,1,.42-.69,2.28,2.28,0,0,0,.62-.8c.83,0,1.1-.85.83-2.54-.28-1.22.27-4,1.65-8.17A59.72,59.72,0,0,1,483.59,102a109.43,109.43,0,0,1,6.73-10.36,62.59,62.59,0,0,1,8-9.44,48.47,48.47,0,0,1,8.9-7.13,32.16,32.16,0,0,1,8.7-3.46,26.65,26.65,0,0,1,5.6-1.15,4.35,4.35,0,0,1,2.58.81,21,21,0,0,1,3,2.88q5.6,2.76,7.76,7T537,94.39q0,15-11,32.46a64,64,0,0,1-8.9,11.63,81.46,81.46,0,0,1-11,8.63,34.41,34.41,0,0,1-8,4.95,24.61,24.61,0,0,1-8.18,1.73A7.28,7.28,0,0,1,486.08,152.87Zm31.79-35.23a81.17,81.17,0,0,0,5.7-14,37.87,37.87,0,0,0,1-9.44q0-6.91-1.66-7.83a8.42,8.42,0,0,0-4.14-1.15q-4.56,0-9.53,4.6a61.64,61.64,0,0,0-10.77,14.16,174.15,174.15,0,0,0-9.73,20.84,23.88,23.88,0,0,0-2.07,9.44,9,9,0,0,0,1.55,5.52,5,5,0,0,0,4.25,2.07q6.83,0,17.4-12.43A81.18,81.18,0,0,0,517.87,117.64Z" fill="none"/>
    </clipPath>
    <clipPath id="Kiichiro-clip-path-9">
      <path id="Kiichiro_o2_clip" d="M605,152.06a19,19,0,0,1-2.69-8.86,27.15,27.15,0,0,1-.21-4.15,156.4,156.4,0,0,1,1-16.11q1-9.68,2.07-15.43a4.4,4.4,0,0,0,.93-2.76,6.84,6.84,0,0,0-.1-2.31,31.78,31.78,0,0,1,1-4.6,146.22,146.22,0,0,0,3.53-14.27q5.58-18.88,11-30.16a169.15,169.15,0,0,1,12-21.19q8.9-10.12,14-14.84a50.64,50.64,0,0,1,11.29-7.95q8.07-5.29,11.59-5.29a5.92,5.92,0,0,1,1.87.46q11.6,2.76,17.4,10.47t8.49,23.83A176.47,176.47,0,0,1,700,60.08a76.41,76.41,0,0,1-3.73,23.26q-3.72,11.73-13.46,29.46-11.18,24.42-26.41,39.14t-28.68,14.74a20.61,20.61,0,0,1-13.26-4.84Q607.24,155.63,605,152.06Zm36.15-3q6.32-5.19,15.63-17.16,8.09-10.35,11.5-15.65a63.82,63.82,0,0,0,6.11-12.66Q677,96.24,681,81q2.28-9.66,3-15.08a100.14,100.14,0,0,0,.73-13l-.21-15a36,36,0,0,0-1.45-8.17,18.77,18.77,0,0,0-2.9-6.33,9.83,9.83,0,0,0-8.08-3.92,12.29,12.29,0,0,0-6,1.61Q662.13,23,654.47,31.88a171,171,0,0,0-13.78,18.19q-6.11,9.32-6.11,12.09c0,.15-.07.61-.2,1.38a5.4,5.4,0,0,1-.83,2.07q-3.52,4.14-7.87,16.81A260.13,260.13,0,0,0,618,109.81a144,144,0,0,0-3.73,24.64l-.41,7.82a12.89,12.89,0,0,0,.31,3.23,8.84,8.84,0,0,0,1.35,2.65,27.94,27.94,0,0,1,1.86,3.1,7.53,7.53,0,0,0,3.32,3,10.35,10.35,0,0,0,4.76,1.15,9.13,9.13,0,0,0,2.28-.23A26.36,26.36,0,0,0,641.11,149.07Z" fill="none"/>
    </clipPath>
    <clipPath id="Kiichiro-clip-path-10">
      <path id="Kiichiro_s_clip" d="M709.14,153.44a21.57,21.57,0,0,1-4.76-5.41v-1.61a1.58,1.58,0,0,1,.62-1.5,5.18,5.18,0,0,1,2.28-.34,106.15,106.15,0,0,1,11.18.92,48.82,48.82,0,0,0,10.36-1.27c3.86-.84,6-1.8,6.42-2.88.41,0,.62-.07.62-.23s-.55-1.07-1.65-2.3a5.73,5.73,0,0,1-1.87-.8,5.77,5.77,0,0,0-1.86-.81c0-.61-.62-1.42-1.87-2.42a24,24,0,0,0-4.14-2.65q-6-5.52-8.49-8.17t-1.87-3.8V119c-1,0-2-1.5-3.21-4.49a23.14,23.14,0,0,1-1.76-8.4q0-4.14,3.21-11.51a44,44,0,0,1,7.36-12,115.21,115.21,0,0,1,15-12.67q9.22-6.68,14.6-8.52a16.9,16.9,0,0,1,7-1.61A9.48,9.48,0,0,1,762,61.46a23.42,23.42,0,0,1,5.28,5.3A20.5,20.5,0,0,1,770.66,73a50.46,50.46,0,0,1-.93,9.78c-.62,3.15-1.56,4.72-2.8,4.72a1.49,1.49,0,0,0-.62.23c-.28.16-.42.54-.42,1.15a5.4,5.4,0,0,1-.82,2.42,12.43,12.43,0,0,1-2.28,2.88q-4.56,3.68-7.46,3.68c-1.52,0-2.48-.84-2.9-2.53a5.54,5.54,0,0,1-.83-1.38c-.28-.62-.62-.92-1-.92-.14,0-.38-.27-.73-.81a4.08,4.08,0,0,1-.52-2.19,2.85,2.85,0,0,1,.52-1.49,9.63,9.63,0,0,1,.73-1c.83,0,2.2-1.8,4.14-5.41s2.9-6,2.9-7.25c0-.92-.1-1.46-.31-1.61a4.53,4.53,0,0,0-2-.23Q739.18,81,735.24,85.18a13.9,13.9,0,0,1-.93,1.84,1.28,1.28,0,0,1-1.14.46q0-2.07-11,15.66a7.79,7.79,0,0,0-.93,2.76,18,18,0,0,0-.52,3.91,19.33,19.33,0,0,0-.41,2.07,3,3,0,0,0,.72,1.85,13.47,13.47,0,0,0,2,2q1.25,1,2.49,2.19a196,196,0,0,1,15,13.47q4.25,4.49,5.08,7.48a16.88,16.88,0,0,1,2.69,8.29,7,7,0,0,1-1.87,4.83,18.28,18.28,0,0,1-5.59,3.92,27.21,27.21,0,0,1-7.66,1.95,70.94,70.94,0,0,1-10.56.81,44.83,44.83,0,0,1-6.22-.46A27.58,27.58,0,0,1,709.14,153.44Z" fill="none"/>
    </clipPath>
    <clipPath id="Kiichiro-clip-path-11">
      <path id="Kiichiro_o3_clip" d="M791.58,149.18a3.59,3.59,0,0,1-2.08-.57,15.7,15.7,0,0,1-2.27-2.19,18,18,0,0,1-7.15-7.25q-2.6-4.72-2.17-8.41a88,88,0,0,1,5.48-23.25,106.66,106.66,0,0,1,11.09-22.33q6.4-9.68,12.42-12a16.38,16.38,0,0,1,6.22-1.62,7.19,7.19,0,0,1,7,4.61A13.52,13.52,0,0,1,821.61,81a3.64,3.64,0,0,1-2.9,3.69,2.41,2.41,0,0,0-1.45.69,1.89,1.89,0,0,0-.83,1.38,3.84,3.84,0,0,0,1.86.23,41.15,41.15,0,0,0,8.7-1.15q5.18-1.16,6.63-2.53a4.54,4.54,0,0,1,2.07-.69l2.9.46q3.52,1.15,3.52,2.76a2.73,2.73,0,0,0,.63,1.72,1.79,1.79,0,0,0,1.45.81c.82.16.72.77-.32,1.84s-3,2.84-5.9,5.3q-1,.69-3,2.07a5.92,5.92,0,0,0-2.28,2.3,4.53,4.53,0,0,0,.1,2.53,13.8,13.8,0,0,1,.83,5.07q0,7.6-5.9,16.81A64.85,64.85,0,0,1,813,140.43q-8.81,6.91-16.88,8.06A23.65,23.65,0,0,1,791.58,149.18Zm7.25-13.58a14.6,14.6,0,0,1,4.34-3.69q1.46,0,3.94-2.41a78.58,78.58,0,0,0,7.66-9.79,76.28,76.28,0,0,0,5.91-8.52,13.45,13.45,0,0,0,2-6.67,8.27,8.27,0,0,0-.2-2.08,2.39,2.39,0,0,0-1.35-1.26c-.76-.38-1.48-.73-2.17-1a6,6,0,0,1-3.42-1A48.37,48.37,0,0,1,811,95.54l-3.31-4.61-3.52,3.92q-5,5.52-10.15,18.07t-5.8,19.46c-.14,2.15.17,3.64.93,4.48a5.06,5.06,0,0,0,3.42,1.5Q793.86,138.36,798.83,135.6Z" fill="none"/>
    </clipPath>
    <clipPath id="Kiichiro-clip-path-12">
      <path id="Kiichiro_r_clip-2" data-name="Kiichiro_r_clip" d="M856.2,149.18a8.58,8.58,0,0,1-2.9-1.61,7.68,7.68,0,0,1-2.07-5.3q0-5.06,4.55-12.2Q857,127.31,862,111l4.14-12.66q.42-3.92-.41-5.64c-.56-1.15-1.73-1.8-3.53-2H861a3,3,0,0,1-2.48-.8q-.63-.81-.63-4.26a8,8,0,0,1,1.25-4.15,17.52,17.52,0,0,1,3.52-3.22,13.85,13.85,0,0,1,6.83-1.84,6.88,6.88,0,0,1,5,1.61c.83.62,1.42,2,1.77,4a49.31,49.31,0,0,1,.62,6.45,46.34,46.34,0,0,0,.31,4.72q1-1.15,5.07-4.72a83.8,83.8,0,0,0,6.94-6.8,61.76,61.76,0,0,1,8.08-5.29c3-1.69,5.18-2.53,6.42-2.53a9.35,9.35,0,0,1,4.56,1.26,6.93,6.93,0,0,1,3.1,3.11A15,15,0,0,1,913.16,85a11.07,11.07,0,0,1-2.28,6.44,12.42,12.42,0,0,1-4.77,3.92A11.57,11.57,0,0,1,902,96.69c-.83,0-1.86-.69-3.1-2.07a7.5,7.5,0,0,1-2.08-3.46q0-.91-5.28,3.57a89.49,89.49,0,0,0-8.18,7.71A68,68,0,0,0,876.6,114q-3.42,7.14-10.05,21.64-.62,1.6-2.9,7.83a27.21,27.21,0,0,1-1.86,5.18,2.39,2.39,0,0,1-2.07,1.49A10.16,10.16,0,0,1,856.2,149.18Z" fill="none"/>
    </clipPath>
    <clipPath id="Kiichiro-clip-path-13">
      <path id="Kiichiro_e_clip" d="M927.24,144q-2.7-4.71-2.69-13.24a86.62,86.62,0,0,1,.62-9.67l.41-8.29a10.07,10.07,0,0,0-.41-3.22,7.15,7.15,0,0,0-1.87-2.53l-2.07-2.3c-1.1-1.23-1.59-2.23-1.45-3l-.21-1.15a8.58,8.58,0,0,1,.52-3q.52-1.38,1.14-1.38a5.59,5.59,0,0,0,1.66-.35,3.18,3.18,0,0,1,1.86-.11c1.93,0,2.9.46,2.9,1.38q.83,1.84,2.8.35t3.83-5.88a51.67,51.67,0,0,1,8.6-10.7A57.23,57.23,0,0,1,952.3,73a16.63,16.63,0,0,1,4.76-1.73,24.92,24.92,0,0,1,5.8-.81,11.6,11.6,0,0,1,6.53,1.85,27.32,27.32,0,0,1,5.69,5.29Q979,80.81,979,87.71a26.05,26.05,0,0,1-2.07,9.9q-.84,3.45-6.53,8.75A39.06,39.06,0,0,1,960,113.73a49.73,49.73,0,0,1-13.25,1.61q-5,0-6.42-.92-2.49-1.62-3.52,12.43a35.51,35.51,0,0,0-.21,4.37,15.42,15.42,0,0,0,1,6.22c.14.15.63.73,1.45,1.73a10.82,10.82,0,0,0,3.11,2.53,8,8,0,0,0,3.94,1,7.32,7.32,0,0,0,2.9-.46,11.18,11.18,0,0,0,4.35-2.64c1.37-1.31,3.31-3.34,5.8-6.1q3.3-3.69,4.76-5.07,1-2.07,4.14-2.07a15.55,15.55,0,0,1,2.9.46,4.61,4.61,0,0,1,1.87,3.45c0,1.23-.7,3.53-2.08,6.91q-1,2.31-5.07,6.33a65.9,65.9,0,0,1-7.15,6.33,24.49,24.49,0,0,1-12.84,3.92,25.1,25.1,0,0,1-9.11-2.08Q929.93,148.73,927.24,144Zm27.55-40.17a12.49,12.49,0,0,0,6.52-3.11,39,39,0,0,0,6.11-8.41,11.51,11.51,0,0,0,.62-3.68q0-3.45-1.24-4.83a4.35,4.35,0,0,0-3.31-1.62c-1.94,0-3.94.93-6,2.77q-2.07.69-6.11,5.06a75.47,75.47,0,0,0-6.94,8.64q-2.91,4.26-1.86,4.95c-.28.46.41.8,2.07,1a31,31,0,0,0,4.14.35Q950.85,104.52,954.79,103.83Z" fill="none"/>
    </clipPath>
    <clipPath id="Kiichiro-clip-path-14">
      <path id="Kiichiro_d_clip" d="M1033.08,157.24a3.84,3.84,0,0,1-2.07-.92c-.83-.61-1.87-1.46-3.11-2.53a13.56,13.56,0,0,1-1.76-4.61,68.71,68.71,0,0,1-.31-8.29q.62-6.44,4.76-22.9t6-21.3a19.62,19.62,0,0,0,.83-5.07,2.52,2.52,0,0,0-1-2.41,14.3,14.3,0,0,0-4.14-1q-7.66-.92-14.19,5.3t-14,19.33q-6.63,11.52-6.63,20a10.26,10.26,0,0,0,.42,3c.41,1.23,1.52,1.84,3.31,1.84a15.61,15.61,0,0,0,4.66-.92,19.81,19.81,0,0,0,4.87-2.3q1.24-.69,7.87-3.92a1.93,1.93,0,0,1,1.76.81,6.4,6.4,0,0,1,.52,3.11,3,3,0,0,0,2.07,2.76q.83,1.15-2.49,4.26a70.76,70.76,0,0,1-9.73,7.25,31.53,31.53,0,0,1-9.32,1.61,13.19,13.19,0,0,1-8.08-3q-6.84-4.36-6.83-15.66,0-7.59,3.52-18.88a78.05,78.05,0,0,1,7.76-15.54,145.21,145.21,0,0,1,11.08-14.15,20.7,20.7,0,0,1,4.25-3.11,37.71,37.71,0,0,1,7.15-3.34,35,35,0,0,1,11-2.3,11.11,11.11,0,0,1,6.63,2.07l2.7.46a2.87,2.87,0,0,0,2.58-1.61,55.61,55.61,0,0,0,3-7.37l5.18-15.19q1.65-4.84,5.07-14.74t6.32-17.5a39.41,39.41,0,0,0,2.38-6.21,12.8,12.8,0,0,1,1.55-3.92h3.94c.69,0,1.72.58,3.1,1.73a7.91,7.91,0,0,1,2.7,4.26q0,2.54-1.87,9.78a155.26,155.26,0,0,1-5.17,16q-1.66,4.6-2.7,6.9-7.25,19.11-9.94,28.55L1053,88.17a40,40,0,0,0-2.9,8.52,83.21,83.21,0,0,1-3.31,11.63c-1.24,3.3-1.94,5.18-2.07,5.64l-1.87,6.21q-3.52,11.28-4.66,15.77A36.9,36.9,0,0,0,1037,145a56.22,56.22,0,0,0,.42,7.59,4.57,4.57,0,0,1-1.87,3.92A6,6,0,0,1,1033.08,157.24Z" fill="none"/>
    </clipPath>
    <clipPath id="Kiichiro-clip-path-15">
      <path id="Kiichiro_a_clip" d="M1070.25,146.07c-.89-1-1.34-1.64-1.34-1.95a6.44,6.44,0,0,0-1-3.92,3.35,3.35,0,0,1-.41-2.07q0-3.67,3.21-12.55a181.62,181.62,0,0,1,8.39-19.22,30.25,30.25,0,0,0,3.21-4.84,18.2,18.2,0,0,1,2.59-3.91,2.76,2.76,0,0,1,.62-1.73,1.81,1.81,0,0,1,1.45-.8V93.7c0-1.39,2.28-4.72,6.83-10s8.29-8.94,11.19-10.93a17.37,17.37,0,0,1,10.56-3.92,9.56,9.56,0,0,1,6.42,2.3q1,1.38,9.53,9.9l7.66,7.6-3.72,11.51a39.46,39.46,0,0,0-1.87,11.28,33.65,33.65,0,0,0,4.56,16.81,11.92,11.92,0,0,0,4.14,4.84,14,14,0,0,0,6.21,2.76q4.56.91,4.56,5.06c0,3.07-1.24,4.92-3.73,5.53a10.1,10.1,0,0,1-2.48.23q-12.22,0-21.13-19.11a33.08,33.08,0,0,1-2.17-5.07,32,32,0,0,1-1.56-5.06q-1.25,1.84-3.1,4.37c-1.25,1.69-2.42,3.15-3.53,4.38q-22.58,25.1-35.62,25.09a12.74,12.74,0,0,1-7.46-2.3A11.3,11.3,0,0,0,1070.25,146.07Zm11.6-9.32a19.68,19.68,0,0,0,5.39-2.3,38.14,38.14,0,0,0,6.52-4.84q17.82-17,25.69-29.7l4.55-8.29a21.57,21.57,0,0,0-4.35-7q-2.28-2.17-4.14-2.18-4.35,0-13.67,12.08a152,152,0,0,0-17,28.44,85.43,85.43,0,0,0-3.32,7.94c-1,2.69-1.59,4.41-1.86,5.18C1079.68,136.83,1080.4,137.06,1081.85,136.75Z" fill="none"/>
    </clipPath>
  </defs>
  <desc id="kiichiro_name_description">Name: Kiichiro Osoreda</desc>
  <g id="Kiichiro_name">
    <g id="Kiichiro_k_mask">
      <g clip-path="url(#Kiichiro-clip-path)">
        <path id="Kiichiro_k" d="M67.5-.5l-59,170c8.86-69.93,58.12-119.63,128-159l-94,75c4.54,39.12,23.17,67.64,58,84" fill="none" stroke="#000" stroke-width="23"/>
      </g>
    </g>
    <g id="Kiichiro_i1_mask">
      <g clip-path="url(#Kiichiro-clip-path-2)">
        <line id="Kiichiro_i1" x1="138.5" y1="83.5" x2="118.5" y2="153.5" fill="none" stroke="#000" stroke-width="17"/>
        <line id="Kiichiro_i2" x1="153.5" y1="30.5" x2="140.5" y2="63.5" fill="none" stroke="#000" stroke-width="20"/>
      </g>
    </g>
    <g id="Kiichiro_i2_mask">
      <g clip-path="url(#Kiichiro-clip-path-3)">
        <line id="Kiichiro_i3" x1="176" y1="79" x2="161" y2="155" fill="none" stroke="#000" stroke-width="18"/>
        <line id="Kiichiro_i4" x1="178.5" y1="30.5" x2="194.5" y2="61.5" fill="none" stroke="#000" stroke-width="21"/>
      </g>
    </g>
    <g id="Kiichiro_c_mask">
      <g clip-path="url(#Kiichiro-clip-path-4)">
        <path id="Kiichiro_c" d="M242.5,107.5a41.74,41.74,0,0,0,0-35c-28.24,15.26-45.77,37.3-37,76,15.43,0,34.93-12.14,56-29" fill="none" stroke="#000" stroke-width="22"/>
      </g>
    </g>
    <g id="Kiichiro_h_mask">
      <g clip-path="url(#Kiichiro-clip-path-5)">
        <polyline id="Kiichiro_h" points="314 3 275 152 324 91 324 150 352 134" fill="none" stroke="#000" stroke-width="25"/>
      </g>
    </g>
    <g id="Kiichiro_i3_clip-2" data-name="Kiichiro_i3_clip">
      <g clip-path="url(#Kiichiro-clip-path-6)">
        <line id="Kiichiro_i5" x1="390.5" y1="79.5" x2="360.5" y2="150.5" fill="none" stroke="#000" stroke-width="19"/>
        <line id="Kiichiro_i6" x1="382.5" y1="34.5" x2="408.5" y2="58.5" fill="none" stroke="#000" stroke-width="23"/>
      </g>
    </g>
    <g id="Kiichiro_r_mask">
      <g clip-path="url(#Kiichiro-clip-path-7)">
        <path id="Kiichiro_r" d="M431.5,61.5l-28,92c12.36-33,33.93-58.49,70-72" fill="none" stroke="#000" stroke-width="22"/>
      </g>
    </g>
    <g id="Kiichiro_o_mask">
      <g clip-path="url(#Kiichiro-clip-path-8)">
        <path id="Kiichiro_o" d="M532,91c-3.27-9.49-8.35-15.32-17-14-18,11.62-28.28,28.7-34,49-1.66,16.11,4,23.6,19,20C519.09,131.09,531.61,113.51,532,91Z" fill="none" stroke="#000" stroke-width="19"/>
      </g>
    </g>
    <g id="Kiichiro_o2_mask">
      <g clip-path="url(#Kiichiro-clip-path-9)">
        <path id="Kiichiro_o2" d="M691.5,64.5c.77-20.64-3.79-37.48-13-51-15-5-33.81,15.32-54,45-22,57.8-24.19,93.61,0,100C652,161.52,673.33,123.71,691.5,64.5Z" fill="none" stroke="#000" stroke-width="24"/>
      </g>
    </g>
    <g id="Kiichiro_s_mask">
      <g clip-path="url(#Kiichiro-clip-path-10)">
        <path id="Kiichiro_s" d="M753,102c8.28-14.51,10.66-26,8-35-18.58.47-34.79,11.54-46,45l28,32c-8,8.76-23.44,10-39,11" fill="none" stroke="#000" stroke-width="24"/>
      </g>
    </g>
    <g id="Kiichiro_o3_mask">
      <g clip-path="url(#Kiichiro-clip-path-11)">
        <path id="Kiichiro_o3" d="M847,85c-16,7.06-29.92,8.76-40,0l17-13c-20.66,6.61-33.41,28.2-40.5,60.5,2.7,9.15,7.93,13.77,19,8,17.72-8.51,22.64-25.28,23-45Z" fill="none" stroke="#000" stroke-width="22"/>
      </g>
    </g>
    <g id="Kiichiro_c_mask-2" data-name="Kiichiro_c_mask">
      <g clip-path="url(#Kiichiro-clip-path-12)">
        <path id="Kiichiro_r-2" data-name="Kiichiro_r" d="M856,82c7.07-1.29,13.54-1.56,16,5,.52,16.63-9.64,40.41-21,65,18.46-43.74,39.11-68.89,62-75" fill="none" stroke="#000" stroke-width="30"/>
      </g>
    </g>
    <g id="Kiichiro_e_mask">
      <g clip-path="url(#Kiichiro-clip-path-13)">
        <path id="Kiichiro_e" d="M917,96l35,16c20.34-7,21.61-16.5,23-26-1.57-7.37-6.8-10.28-13-12-19.33,16.67-35.8,35-28.5,66.5,10.68,14.32,26,4.14,43-15" fill="none" stroke="#000" stroke-width="20"/>
      </g>
    </g>
    <g id="Kiichiro_d_mask">
      <g clip-path="url(#Kiichiro-clip-path-14)">
        <path id="Kiichiro_d" d="M1075,7c-28.72,67.21-38.14,112.2-43.5,152.5,7.65-39.62,14.75-77.76,8-79-24.92-3.65-39.5,16.89-47,54,8.84,13,19.37,10.48,31-2" fill="none" stroke="#000" stroke-width="21"/>
      </g>
    </g>
    <g id="Kiichiro_a_mask">
      <g clip-path="url(#Kiichiro-clip-path-15)">
        <path id="Kiichiro_a" d="M1129.5,88.5c-3.21-6.42-8.56-11.15-15-15-17,11.22-29,36-41,61,3.48,4.32,7.08,7.58,11,8,18.63-2.14,33.59-30.89,50-67-16.38,37-8.48,61.61,21,71" fill="none" stroke="#000" stroke-width="25"/>
      </g>
    </g>
  </g>
</svg>
