<svg xmlns="http://www.w3.org/2000/svg" xmlns:xlink="http://www.w3.org/1999/xlink" width="774" height="150" viewBox="0 0 774 150" aria-labelledby="kiyomi_name_description">
  <defs>
    <clipPath id="Kiyomi-clip-path">
      <path id="Kiyomi_k1_clip" d="M102.48,17.38A18.19,18.19,0,0,1,98,20.46q-7.11,3.48-8.06,5.21c-.53.43-1.71,1.32-3.56,2.69s-4.13,3.06-6.87,5.06q-6.17,4.11-10.68,7.75a38,38,0,0,0-5.92,5.53,2.37,2.37,0,0,0-1.19.47,1.39,1.39,0,0,1-1.19.32,16.34,16.34,0,0,0-1.42.95,7.46,7.46,0,0,0-1.58,1.42A8,8,0,0,1,56,52.31a2.7,2.7,0,0,1-2.45,1q-3,1.59-11.86,8.7a53.7,53.7,0,0,0,6.17,21.34q4.57,10.11,9.33,14.86a39.44,39.44,0,0,0,6.24,5.69Q66.35,106,67.94,106a17.69,17.69,0,0,1,4,2.21c1.68,1.16,2.58,2.11,2.69,2.84a3.49,3.49,0,0,1,.15,1.27,6,6,0,0,1-.79,3.48,12.13,12.13,0,0,1-1.1,1.66,2,2,0,0,1-1.58.55A10,10,0,0,1,67,116.74q-2.53.15-8.7-4.75a60.75,60.75,0,0,1-9.48-9q-4.28-6.17-7.35-11.22a41.15,41.15,0,0,1-4.67-11.07c-.42-1.9-1.21-4.74-2.37-8.54a21.9,21.9,0,0,1-1.26-4.27v-3l-1.9,4.74q-.17.48-2,5.22T24.14,91.6l-2.53,8.22Q18,111.21,16.79,114.21c-.79,2-1.61,3-2.45,3a3.29,3.29,0,0,1-1.66-.71c-.68-.48-1.18-.82-1.5-1a6.78,6.78,0,0,1-1.74-1.42A2.6,2.6,0,0,1,9,112.47a17.64,17.64,0,0,1,.79-4,12.37,12.37,0,0,1,.31-4,16.5,16.5,0,0,0,.48-2.21c.73,0,1.11-.84,1.11-2.53a23.7,23.7,0,0,1,1.42-5.53l1.42-4.9,1.9-4.59a47.32,47.32,0,0,0,1.74-4.74,10.37,10.37,0,0,1,2.05-5.22,39.24,39.24,0,0,0,1.11-4.11,18.45,18.45,0,0,0,.47-3.64q.32-.78,1.74-3.63a25.22,25.22,0,0,0,2.06-5.69A9.06,9.06,0,0,1,26.12,56q.39-.95.87-2.37l5.22-14.23,2.37-5.38c.21-.52.92-2.16,2.13-4.9s2-4.11,2.45-4.11V23.3a17.58,17.58,0,0,1,1.74-4.11l1.9-3.79a22.35,22.35,0,0,0,2-4c.47-1.32.76-2.19.86-2.61.11-.21.32-.58.64-1.11a7.28,7.28,0,0,1,1.1-1.42A5.61,5.61,0,0,1,50.55,5C52,5,53.29,6,54.34,8.13a9,9,0,0,1,1.11,3.95A7.4,7.4,0,0,1,54,15.87Q48.65,27.42,43.19,39.59T37.74,53.66l5.38-4A131.49,131.49,0,0,1,56.24,38.8L75.68,23a64.19,64.19,0,0,0,10.44-7,20.79,20.79,0,0,0,2.53-1.74,8.69,8.69,0,0,1,1.58-1.1q.94-.79,3.79-2.77c1.9-1.32,3.11-1.92,3.64-1.82q1.74-.79,3.79,1.58t1.74,4.43A3.12,3.12,0,0,1,102.48,17.38Z" fill="none"/>
    </clipPath>
    <clipPath id="Kiyomi-clip-path-2">
      <path id="Kiyomi_i1_clip" d="M91.65,98.24a8.39,8.39,0,0,1,.79-3.8,7.09,7.09,0,0,1,.31-1.89,7.23,7.23,0,0,0,.32-1.43c-.11-.63.32-2.37,1.26-5.21q2.85-6.33,7.59-22.29a1.73,1.73,0,0,1,.63-1.35,3.54,3.54,0,0,1,1.9-.71,8.66,8.66,0,0,1,1.74-.31,2.25,2.25,0,0,1,1.66.71,18.26,18.26,0,0,1,2,2.61,3.86,3.86,0,0,1,1,2.84,17.44,17.44,0,0,1-2.06,7.27A36.75,36.75,0,0,0,106,82.59a68.6,68.6,0,0,0-3,7.9c-.21.63-.53,1.9-1,3.8a14.33,14.33,0,0,1-1.74,4.58A33.77,33.77,0,0,1,98.6,105c-.53,1.16-1.1,1.74-1.74,1.74s-1.74-.74-3-2.22A8.52,8.52,0,0,1,91.65,98.24ZM107.3,36.58c-.53-1.79-.53-2.68,0-2.68.84-.11,1.82-1,2.92-2.77a7.33,7.33,0,0,0,1.5-4.35,1.77,1.77,0,0,1,.48-1.18,2.12,2.12,0,0,1,1.1-.72,4.46,4.46,0,0,1,2.22-.79q2.69,0,4.9,3.8a8.9,8.9,0,0,1,1,3.63,6.36,6.36,0,0,1-.79,2.93,22.7,22.7,0,0,1-2.85,3.87Q115,42,112.67,42a5.71,5.71,0,0,1-3.48-1.58A9,9,0,0,1,107.3,36.58Z" fill="none"/>
    </clipPath>
    <clipPath id="Kiyomi-clip-path-3">
      <path id="Kiyomi_y_clip" d="M170.38,56.5q0,2.85-3.8,10a64.62,64.62,0,0,1-2.77,6.8,22.48,22.48,0,0,1-2.29,4.11l-3.63,8.38c-1.58,3.48-3.54,7.54-5.85,12.17q-4.28,8.86-6,13.12L144,114.36Q136.07,127,131.8,132.07q-8.7,7.74-13.44,9a16.81,16.81,0,0,1-4.9.63,22.08,22.08,0,0,1-9.88-2.29q-4.67-2.29-5.29-5.29a3.19,3.19,0,0,1,.79-2.38,2.63,2.63,0,0,1,2-1.26,1.51,1.51,0,0,1,1.27.63,14.34,14.34,0,0,0,3.71,1.82,15.71,15.71,0,0,0,5.3.87,19.54,19.54,0,0,0,3-.32,14.41,14.41,0,0,0,6.64-3.79,49.16,49.16,0,0,0,6.32-7A198.42,198.42,0,0,0,138.92,103a9,9,0,0,1-4.27-3.08,21.46,21.46,0,0,1-3.24-5.14c-.79-1.79-1.09-3.11-.87-4V89.07q-1.42,0-2.3-5.38a78.9,78.9,0,0,1-.87-12.48c0-1.8.11-4.06.32-6.8a28.73,28.73,0,0,0,.71-6.25c0-2.47.08-4.08.08-4.82v-.63a6.4,6.4,0,0,1,.4-2.69,3.74,3.74,0,0,1,1.34-1.42,5.6,5.6,0,0,1,2.53-.63q4.42,0,4.43,11.69c0,1.17-.11,3.43-.32,6.8q-.17,2.22-.16,6.64a66.64,66.64,0,0,0,1.43,14.55c.94,4.21,2.37,7.11,4.26,8.69l1-2.21A29,29,0,0,1,146,88.28a44.87,44.87,0,0,0,2.53-5.85,20.08,20.08,0,0,1,1.74-3.64l2-4.27q.32-.94,2.06-6.08a52.45,52.45,0,0,1,3.48-8.3q.63-1.26,1.89-3.72a31.19,31.19,0,0,1,2.06-3.55,3.65,3.65,0,0,1,1.74-1.43,3.59,3.59,0,0,1,2-1.1,5.45,5.45,0,0,1,2.22.95A7.42,7.42,0,0,1,170.38,56.5Z" fill="none"/>
    </clipPath>
    <clipPath id="Kiyomi-clip-path-4">
      <path id="Kiyomi_o_clip" d="M188.71,104.09a2.87,2.87,0,0,1-1.58-.4,11,11,0,0,1-1.74-1.5,13.06,13.06,0,0,1-5.45-5,9.11,9.11,0,0,1-1.66-5.77,55.32,55.32,0,0,1,4.19-16,71.32,71.32,0,0,1,8.45-15.33q4.91-6.64,9.49-8.22a13.66,13.66,0,0,1,4.74-1.11A5.56,5.56,0,0,1,210.53,54a8.71,8.71,0,0,1,1.11,3.32c0,1.27-.74,2.11-2.22,2.53a1.94,1.94,0,0,0-1.1.48,1.25,1.25,0,0,0-.64,1,3.39,3.39,0,0,0,1.43.15,34.72,34.72,0,0,0,6.64-.79c2.63-.52,4.32-1.1,5.05-1.74a3.83,3.83,0,0,1,1.59-.47l2.21.32c1.79.52,2.69,1.16,2.69,1.89a1.76,1.76,0,0,0,.47,1.19,1.43,1.43,0,0,0,1.11.55c.63.11.55.53-.24,1.27s-2.29,1.95-4.51,3.63c-.52.32-1.29.79-2.29,1.43a4.32,4.32,0,0,0-1.74,1.58,2.94,2.94,0,0,0,.08,1.74,8.51,8.51,0,0,1,.63,3.47q0,5.22-4.5,11.54a46.71,46.71,0,0,1-11.23,11.07q-6.72,4.74-12.88,5.53A19.67,19.67,0,0,1,188.71,104.09Zm5.54-9.33a10.76,10.76,0,0,1,3.32-2.53c.73,0,1.73-.55,3-1.66a56.08,56.08,0,0,0,5.85-6.72,51.55,51.55,0,0,0,4.5-5.85,8.58,8.58,0,0,0,1.51-4.58,4.93,4.93,0,0,0-.16-1.42,1.75,1.75,0,0,0-1-.87c-.58-.27-1.13-.5-1.66-.72A4.92,4.92,0,0,1,207,69.7a36.35,36.35,0,0,1-3.4-2.45L201,64.09l-2.68,2.69q-3.8,3.8-7.75,12.41t-4.43,13.36a3.92,3.92,0,0,0,.71,3.08,4.12,4.12,0,0,0,2.61,1C190.13,96.66,191.72,96,194.25,94.76Z" fill="none"/>
    </clipPath>
    <clipPath id="Kiyomi-clip-path-5">
      <path id="Kiyomi_m_clip" d="M234.56,100.61c0-.84-.27-1.27-.79-1.27-.64-.63.58-4.24,3.63-10.82a136,136,0,0,1,7.91-15.1,2.9,2.9,0,0,0,.95-1.35c.21-.57.21-.86,0-.86.21-.32.52-.85,1-1.59a15.48,15.48,0,0,1,1.26-1.89q2.68-5.22,2.21-8.38a1.42,1.42,0,0,0-1.34-.48,2.25,2.25,0,0,0-.87.32,13,13,0,0,1-1.66.55,8.51,8.51,0,0,0-2.29,1c-2.43,1.58-4,2.37-4.59,2.37a2,2,0,0,1-1.66-1,12.83,12.83,0,0,1-1.5-3.16A7.71,7.71,0,0,1,236.3,57a3.07,3.07,0,0,1,1.26-2.22,7,7,0,0,1,2.29-1.5,11.73,11.73,0,0,0,1.82-.87,20.92,20.92,0,0,1,4.75-2.21,17.85,17.85,0,0,1,4.58-.79,6.72,6.72,0,0,1,6.64,4.42A9.47,9.47,0,0,1,259.85,60a19.58,19.58,0,0,1-2.21,7.75l-1.58,2.37a3.76,3.76,0,0,0-.48,1.26c0,.22.06.32.16.32.42,0,.9-.37,1.43-1.11.52-.52,1.21-1.18,2.05-2s1.42-1.19,1.74-1.19a1,1,0,0,0,.47-.24c.21-.15.32-.55.32-1.18l1.58-1.42q.63,0,3.8-2.69l3-2.37a5.51,5.51,0,0,1,3.16-1.27,5,5,0,0,1,1.42-.16c2,0,3.64,1.09,4.9,3.24a16.24,16.24,0,0,1,1.9,8.3l-3.32,8.54,5.69-7a32.25,32.25,0,0,1,3.8-3.8,1.82,1.82,0,0,1,.87-1.19,2.61,2.61,0,0,1,.71-.23.71.71,0,0,0,.39-.16.52.52,0,0,0,.24-.47c.42-.32,1-.72,1.66-1.19A5.2,5.2,0,0,0,292.89,63a7.73,7.73,0,0,1,3.17-.63q3.31,0,5.53,4.27a10.28,10.28,0,0,1,1.18,3.08,29.18,29.18,0,0,1,.24,4.51q-.63,3.48-1.1,7.27c0,.42-.11,1.48-.32,3.16A13.68,13.68,0,0,0,300.8,90a10.12,10.12,0,0,0,.24,2.84c.15.43.55.64,1.18.64a29.32,29.32,0,0,0,6.25-2.3,20.23,20.23,0,0,0,5.61-3.55q2.37-2.37,4.27-2.37a2.16,2.16,0,0,1,2.21,1.89q.48.94-2.45,5.06c-1.95,2.74-3.3,4.11-4,4.11-.21,0-.61.32-1.19,1a9,9,0,0,1-1.34,1.26c-1.8,2-3.27,3-4.43,3a5,5,0,0,0-1.66.39,5,5,0,0,1-1.82.4,4.45,4.45,0,0,1-1.58.16,9,9,0,0,1-4.58-1.27,5.8,5.8,0,0,1-2.85-3.79,24.74,24.74,0,0,1-1.26-8.86c0-.94.1-2.47.31-4.58l.79-4.9a14.64,14.64,0,0,1,.64-3.64V74.05c0-1.79-.16-2.69-.48-2.69q-1.26,0-8.38,8.14a129.16,129.16,0,0,0-10.9,14,23.45,23.45,0,0,0-2.45,4.19,12.05,12.05,0,0,1-1.66,2.92,2,2,0,0,1-1.43.63,3.22,3.22,0,0,1-2.05-.95,8.51,8.51,0,0,1-1.9-2.37,7.16,7.16,0,0,1-.63-2.37,19.33,19.33,0,0,1,.95-4.35q.94-3.24,2.68-8.61,1.74-5.22,2.93-9t1.5-5.06q0-1.11-7.9,5.69-1.59,1.89-3.64,4Q258.11,82,253.61,87c-3,3.38-5.61,6.59-7.83,9.65s-4,5.37-5.14,6.64-2,1.89-2.76,1.89c-.53,0-1.21-.47-2.06-1.42A5,5,0,0,1,234.56,100.61Z" fill="none"/>
    </clipPath>
    <clipPath id="Kiyomi-clip-path-6">
      <path id="Kiyomi_i2_clip" d="M329.89,101.56q-.79-.32-1.11-.48a6.16,6.16,0,0,0-.4-1.66,6.9,6.9,0,0,1-.39-1.5c-.84-.42-1.26-1-1.26-1.58a7.46,7.46,0,0,1,.47-2.21q2.06-3.63,7.27-16.52t5.85-15.26a3.8,3.8,0,0,1,.47-1.58,6.16,6.16,0,0,1,1.11-1.58,2,2,0,0,1,1.43-.63q1.73,0,3.24,2.37a9.57,9.57,0,0,1,1.5,5.22q0,1.89-3.56,10.83t-8,17.94c-.43.84-1,2-1.82,3.63a9.52,9.52,0,0,1-1.82,2.85,2.81,2.81,0,0,1-1.74.48A3.66,3.66,0,0,1,329.89,101.56ZM348.3,38.72A9.75,9.75,0,0,1,345.22,32c0-.53.63-1.74,1.9-3.64A17.79,17.79,0,0,0,349,25.2a9.45,9.45,0,0,1,1.89.16,9.29,9.29,0,0,1,1.9.63,25.14,25.14,0,0,0,4.43,6.48L359,34.84a3.54,3.54,0,0,1,.79,1.9,17.8,17.8,0,0,1-.24,3.64,1.71,1.71,0,0,1-1.27,1.26,15.42,15.42,0,0,1-3.87.32Q351.39,42,348.3,38.72Z" fill="none"/>
    </clipPath>
    <clipPath id="Kiyomi-clip-path-7">
      <path id="Kiyomi_t_clip" d="M481.81,19.35a1.4,1.4,0,0,1-.39,1,2.28,2.28,0,0,1-.87.55,1.77,1.77,0,0,0-.64.32,19.54,19.54,0,0,1-5.69,1.1,10.24,10.24,0,0,1-3.63-.79,9.58,9.58,0,0,0-3.8-2,55.49,55.49,0,0,0-9.17-1.11,78.4,78.4,0,0,1-8.06.48,34.84,34.84,0,0,1-3.64,10.43,25.35,25.35,0,0,1-1.73,5.38c-.74,2.1-1.06,3.32-.95,3.63a67.18,67.18,0,0,0-3,8q-2.52,7.35-4.74,14.3c-1.05,3.27-1.85,5.64-2.37,7.12a44.46,44.46,0,0,0-2,5q-1.18,3.39-1.66,4.82l-4,10.91A59.35,59.35,0,0,0,422.45,96c-1.22,3.42-2.19,6.51-2.93,9.24l-1.58,5.54c-.53,1.9-1,3.32-1.34,4.27a3.76,3.76,0,0,1-.87,1.58,3.83,3.83,0,0,1-1.58,0c-.85,0-1.77-.66-2.77-2a6.44,6.44,0,0,1-1.5-3.87q0-3.48,2.45-11.7A108.38,108.38,0,0,1,417,85.91c.42-1.9.82-3.43,1.19-4.59s.6-2,.71-2.53a17,17,0,0,0,1.5-3.4q1-2.76,1.66-5.13.48-2.85,9.8-31.78L433,35.16a32.81,32.81,0,0,0,2.69-6c.84-.52,1.26-1.63,1.26-3.32a2.5,2.5,0,0,1,.56-1.26,2.67,2.67,0,0,0,.55-1.11,4.29,4.29,0,0,0,.71-1.5,4.56,4.56,0,0,1,1-1.82V20l-2.53.16-7.75.79-3.48.32c-6.11.53-9.64.89-10.59,1.1q-4.74.33-6.72-.47c-1.31-.53-1.76-1.58-1.34-3.16a4.48,4.48,0,0,1,2-2.85A12.59,12.59,0,0,1,414,14.45q1.42-.31,5.53-.95l4.27-.79,5.38-.63a182,182,0,0,1,19.44-1.9c2.85-.1,5.24-.24,7.19-.39s3.25-.29,3.88-.4q2.2.16,7.19.79a38,38,0,0,1,7.19,1.42,12,12,0,0,1,5.14,2.22,8.36,8.36,0,0,1,2.45,4.11A5.6,5.6,0,0,1,481.81,19.35Z" fill="none"/>
    </clipPath>
    <clipPath id="Kiyomi-clip-path-8">
      <path id="Kiyomi_a1_clip" d="M453.75,102c-.69-.68-1-1.13-1-1.34a4.07,4.07,0,0,0-.79-2.69,2.14,2.14,0,0,1-.32-1.42q0-2.53,2.46-8.62a118.64,118.64,0,0,1,6.4-13.2,20.68,20.68,0,0,0,2.45-3.32,12.82,12.82,0,0,1,2-2.68,1.8,1.8,0,0,1,.48-1.19,1.4,1.4,0,0,1,1.11-.55V66q0-1.42,5.21-6.88a48.65,48.65,0,0,1,8.54-7.51,14.19,14.19,0,0,1,8.06-2.69,7.76,7.76,0,0,1,4.9,1.59q.8.95,7.27,6.79l5.85,5.22-2.84,7.9a24.72,24.72,0,0,0-1.42,7.75,21.34,21.34,0,0,0,3.47,11.54A8.4,8.4,0,0,0,508.69,93a11.14,11.14,0,0,0,4.74,1.9q3.48.63,3.48,3.48,0,3.16-2.85,3.79a8.12,8.12,0,0,1-1.9.16q-9.33,0-16.12-13.12a21.87,21.87,0,0,1-1.66-3.48,20.66,20.66,0,0,1-1.19-3.48c-.63.85-1.42,1.85-2.37,3a38.79,38.79,0,0,1-2.69,3q-17.24,17.23-27.19,17.23a10.55,10.55,0,0,1-5.69-1.58A8.2,8.2,0,0,0,453.75,102Zm8.85-6.4A15.94,15.94,0,0,0,466.71,94a29.31,29.31,0,0,0,5-3.32q13.59-11.7,19.61-20.39l3.47-5.69a14.69,14.69,0,0,0-3.32-4.83,5.08,5.08,0,0,0-3.16-1.5q-3.32,0-10.43,8.3a102.89,102.89,0,0,0-13,19.53,56.83,56.83,0,0,0-2.52,5.45l-1.43,3.56C460.94,95.61,461.5,95.76,462.6,95.55Z" fill="none"/>
    </clipPath>
    <clipPath id="Kiyomi-clip-path-9">
      <path id="Kiyomi_k2_clip" d="M561.49,110.41a13.32,13.32,0,0,1-6-1.26,18.87,18.87,0,0,1-1.82-1.58,13.22,13.22,0,0,1-2-2.22l-5.85-6.16c-.53-1.06-2.59-3.37-6.17-7a29,29,0,0,0-3.24-3.56c-1-.89-1.71-1.34-2.13-1.34l-5.06,17.39a15.21,15.21,0,0,1-2.06,3,2.58,2.58,0,0,1-1.9.79,3.82,3.82,0,0,1-3.16-1.66,7.25,7.25,0,0,1-1.26-4.5q-1.27-4.59,8.38-28.62a35.43,35.43,0,0,1,1.58-5.13c.73-1.95,1.26-3.35,1.58-4.19q2.52-8.07,8.69-22.45l2.85-6.48q2.68-5.53,5.85-11.54,8.37-15.5,10.59-18a4.21,4.21,0,0,1,6,0A5.59,5.59,0,0,1,568,9.23q0,2.7-4,9-1.74,3.65-3.17,6a43.56,43.56,0,0,0-3,5.06c-.74,2.11-1.53,3.16-2.37,3.16-.11.53-.29,1.22-.55,2.06a18.42,18.42,0,0,1-1,2.53,25.7,25.7,0,0,1-1.58,3.79A28.29,28.29,0,0,0,550.9,44c-.22.43-.51,1.06-.87,1.9a34,34,0,0,1-1.66,3.16q-4.44,9.18-4.91,11.39a.14.14,0,0,0,.16.15,3.33,3.33,0,0,0,1.27-.63c.63-.42,1.16-.79,1.58-1.11A74.54,74.54,0,0,1,555.16,53a26.36,26.36,0,0,1,7.59-3.32,13,13,0,0,1,3.8-.63,7.72,7.72,0,0,1,3.16.63q3.63,2.22,4.74,7.75,0,2.53-2.45,8.14c-1.63,3.74-3.14,6.2-4.5,7.35a9.86,9.86,0,0,0-1.67.87,7.22,7.22,0,0,0-.71.56,3.5,3.5,0,0,1-.63,1.66,3.74,3.74,0,0,1-1.74,1.5c-1.48,1.48-2.21,2.48-2.21,3v.79a5,5,0,0,0-2,1.11l-2.76,2A8,8,0,0,1,553,86.54c-.69.21-1.24.37-1.66.47a4.16,4.16,0,0,1-1.34.72c-.69.26-1,.55-1,.86q0,1.11,5.14,6.88t7,7a5.13,5.13,0,0,1,2.37,2.45,7.45,7.45,0,0,1,.79,3.24,5.57,5.57,0,0,1-.31,1.74A4.19,4.19,0,0,1,561.49,110.41Zm-7-36q6.72-5.61,8.3-7.67a10.4,10.4,0,0,0,1.9-3.08,9.47,9.47,0,0,0,1-3.72,2.8,2.8,0,0,0-.32-1.26q-.31-.8-9,3.63a77.76,77.76,0,0,0-10.12,7.12,33.31,33.31,0,0,0-7.43,7.9,3.27,3.27,0,0,0,1.11,3.24,4.86,4.86,0,0,0,3.63,1.66,3,3,0,0,0,1.59-.31Q547.74,80.06,554.45,74.45Z" fill="none"/>
    </clipPath>
    <clipPath id="Kiyomi-clip-path-10">
      <path id="Kiyomi_a2_clip" d="M591.52,105.35a17.3,17.3,0,0,1-3.79-.39c-1.16-.26-1.74-.61-1.74-1a.64.64,0,0,0-.79-.79c-.11-.1-.42-.37-1-.79a8.41,8.41,0,0,0-1.9-1.11,8.65,8.65,0,0,1-1.42-4.74,39.41,39.41,0,0,1,1.42-8.38q.48-5.06,4.75-12.65a90.82,90.82,0,0,1,10-14.38q5.76-6.8,10.35-9.49a8.14,8.14,0,0,1,6-2.37,10.73,10.73,0,0,1,5.37,1.42,18,18,0,0,1,4.67,4.27,28,28,0,0,1,3.87,6.17,17.82,17.82,0,0,1,.63,4.58,67.08,67.08,0,0,1-.63,7.43,51.11,51.11,0,0,0-1.34,7,54.27,54.27,0,0,0-.56,7.11,6.32,6.32,0,0,0,.32,3.56,1.93,1.93,0,0,0,1.74,1.34,3.93,3.93,0,0,0,1.74-.47,7.61,7.61,0,0,1,3.48-.79,4.19,4.19,0,0,1,2.84,1,3.53,3.53,0,0,1,1.11,2.84q0,2.85-3.88,5.69a12.57,12.57,0,0,1-7.35,2.85q-2.37,0-4.34-3.72a60.31,60.31,0,0,1-3.88-9.56l-.95-3.64-6.79,6.49-3.64,3.63a40.37,40.37,0,0,0-2.85,3q-1.74,3-8.69,5.7A14.71,14.71,0,0,1,591.52,105.35ZM604.17,88a87.12,87.12,0,0,0,9.17-10.59,31.85,31.85,0,0,0,6.17-12.8,13.68,13.68,0,0,0-2.06-3.8c-1-1.26-1.79-2-2.53-2.05q-3.17,0-6.64,3.63a103.73,103.73,0,0,0-8.22,10.12l-5.22,7.75a44.36,44.36,0,0,0-3.32,6.71q-2.37,5.46-2.37,6.57c0,2.32.69,3.47,2.06,3.47a7.19,7.19,0,0,0,3.63-1.26A50.29,50.29,0,0,0,604.17,88Z" fill="none"/>
    </clipPath>
    <clipPath id="Kiyomi-clip-path-11">
      <path id="Kiyomi_d_clip" d="M680.37,109.15a38,38,0,0,1-2.21-13,16.32,16.32,0,0,1,.15-2.68l.32-3.32-6.17,4.9a40.23,40.23,0,0,1-10,6.64,22.68,22.68,0,0,1-9.09,2.21,12.14,12.14,0,0,1-5.13-2.29,10.71,10.71,0,0,1-3.56-4.35A8.82,8.82,0,0,1,644,93.5q0-5.85,3.16-13.84a43,43,0,0,1,7.9-13.2q6.79-10.27,15.18-10.27a15.3,15.3,0,0,1,7.91,2.37,24.77,24.77,0,0,0,4.58,1.58,1.54,1.54,0,0,0,1.42-.79,10.93,10.93,0,0,0,1-2.85q1.74-7.26,3.32-12.17,3.48-10.44,6-16.76t6.16-13.91a14.53,14.53,0,0,1,2.77-4.35A3.34,3.34,0,0,1,706,8.44q3.48,0,5.37,4.75a5.47,5.47,0,0,1,.48,2.21,7.33,7.33,0,0,1-1,3q-4.11,7.13-10.12,23.24t-9.33,28a102.55,102.55,0,0,0-2.45,15,162.8,162.8,0,0,0-1,16.29,19.07,19.07,0,0,0,.31,4.11,17,17,0,0,1,.79,4.74,2.44,2.44,0,0,1-.79,2.13,5.41,5.41,0,0,1-2.53.72Q681.8,113.58,680.37,109.15ZM667.88,90.33c.63-.42,2.16-1.52,4.58-3.32A21.46,21.46,0,0,0,678,81.32a20.33,20.33,0,0,0,2.68-6.8,11,11,0,0,0-.55-4.66,9.29,9.29,0,0,0-2.76-3.56,6.82,6.82,0,0,0-4-1.1,11.24,11.24,0,0,0-7.9,3.48,36.45,36.45,0,0,0-7.59,9.8,51.57,51.57,0,0,0-5.06,13.91c-.32,2,.74,3,3.16,3a11.47,11.47,0,0,0,3-.31Q662.66,94.29,667.88,90.33Z" fill="none"/>
    </clipPath>
    <clipPath id="Kiyomi-clip-path-12">
      <path id="Kiyomi_a3_clip" d="M710.09,102.67A7.74,7.74,0,0,1,706,95.39q0-5.83,4.5-15.1a85.62,85.62,0,0,1,11-17.07q6.48-7.83,11.86-9.88,3.31-1.74,4.27-1.74t4.26,1.74a11.1,11.1,0,0,1,3.32,1.42A15,15,0,0,1,748,57.92,34.91,34.91,0,0,1,751,68a19.81,19.81,0,0,1,1,4.75A3,3,0,0,1,751,75c-.1.11-.29.32-.55.63a1.44,1.44,0,0,0-.4.71c0,.16.11.24.32.24a3.24,3.24,0,0,1-.16.71,8.46,8.46,0,0,1-.63,1.5,35.29,35.29,0,0,0-1.9,10.28,15.33,15.33,0,0,0,.32,3c1.05,2.74,2.85,4.11,5.38,4.11a8.47,8.47,0,0,0,6-2.84q2.54-1.74,3.72-2.45c.79-.48,1.18-.34,1.18.39a4.44,4.44,0,0,0,.64.48,1.67,1.67,0,0,0,.94.31c.74,0,1.11.48,1.11,1.43a6,6,0,0,1-1.11,3.16c-.73.74-1.31,1.37-1.73,1.89a2.29,2.29,0,0,0-.64,1.27L761.15,102a13.93,13.93,0,0,1-7.11,1.74,11.79,11.79,0,0,1-6.8-1.74A18,18,0,0,1,743,97.45a18.17,18.17,0,0,1-2.69-5.38l-.79-1.58-4.58,3q-1.59,1.57-3.64,3.24c-1.37,1.1-2.27,1.87-2.69,2.29-.84,1-1.58,1.58-2.21,1.58h-1.58c0,.74-1,1.56-3.08,2.45a13.9,13.9,0,0,1-5.46,1.34C714.36,104.83,712.3,104.25,710.09,102.67Zm13.44-11.78q7.11-5,9-7.35l4.58-4.75a22.44,22.44,0,0,0,4-6.48,17.58,17.58,0,0,0,1.5-6.64,6.74,6.74,0,0,0-.79-3.79c-.42-1.27-1.05-1.9-1.89-1.9a17.16,17.16,0,0,0-3.64,1.11q-3,1.89-8.46,8.69a122.75,122.75,0,0,0-9.72,14q-4.27,7.2-4.27,10.52a1.69,1.69,0,0,0,.32.94,5.62,5.62,0,0,0,.47.64Q716.41,95.87,723.53,90.89Z" fill="none"/>
    </clipPath>
  </defs>
  <desc id="kiyomi_name_description">Name: Kiyomi Takada</desc>
  <g id="Kiyomi_name">
    <g id="Kiyomi_k1_mask">
      <g clip-path="url(#Kiyomi-clip-path)">
        <path id="Kiyomi_k1" d="M54.5,4.5l-46,113c10.61-28.75,21.1-56.67,28-59l78-54c-32.23,23.21-81.54,53-77,62,3.93,24.81,19.35,42.61,42,56" fill="none" stroke="#000" stroke-width="17"/>
      </g>
    </g>
    <g id="Kiyomi_i1_mask">
      <g clip-path="url(#Kiyomi-clip-path-2)">
        <line id="Kiyomi_i1" x1="110.5" y1="58.5" x2="91.5" y2="110.5" fill="none" stroke="#000" stroke-width="16"/>
        <line id="Kiyomi_i2" x1="119.5" y1="22.5" x2="108.5" y2="43.5" fill="none" stroke="#000" stroke-width="15"/>
      </g>
    </g>
    <g id="Kiyomi_y_mask">
      <g clip-path="url(#Kiyomi-clip-path-3)">
        <path id="Kiyomi_y" d="M134.5,43.5c-4.55,26-5.43,49.18,8,61l31-64c-20.78,48.25-40.5,89.43-55,96-5.73.59-14.62-.57-24-2" fill="none" stroke="#000" stroke-width="14"/>
      </g>
    </g>
    <g id="Kiyomi_o_mask">
      <g clip-path="url(#Kiyomi-clip-path-4)">
        <path id="Kiyomi_o" d="M229,60c-10.14,4.3-19.55,6.07-27,1l9-10c-16.25,9-25.13,23.2-29,41,.92,5.76,3.36,9.82,11.5,7.5,9.9-1.72,17-12.74,24-24l-3-8Z" fill="none" stroke="#000" stroke-width="14"/>
      </g>
    </g>
    <g id="Kiyomi_m_mask">
      <g clip-path="url(#Kiyomi-clip-path-5)">
        <path id="Kiyomi_m" d="M235,61c6.57-4.36,13.2-7.48,20-7-1,12.5-9.4,30.15-21,50,12.74-21.92,26-33.71,39.5-40.5,4.83-3.88.52,12.42-8,38,6.28-13.94,17.12-26.07,31-37,2,1.5,3,12.62,3,34,5.8,1.12,14.05-4.94,23-13" fill="none" stroke="#000" stroke-width="15"/>
      </g>
    </g>
    <g id="Kiyomi_i2_mask">
      <g clip-path="url(#Kiyomi-clip-path-6)">
        <line id="Kiyomi_i3" x1="343.5" y1="25.5" x2="362.5" y2="41.5" fill="none" stroke="#000" stroke-width="15"/>
        <line id="Kiyomi_i4" x1="348.5" y1="53.5" x2="326.5" y2="107.5" fill="none" stroke="#000" stroke-width="13"/>
      </g>
    </g>
    <g id="Kiyomi_t_mask">
      <g clip-path="url(#Kiyomi-clip-path-7)">
        <path id="Kiyomi_t" d="M403.5,18.5c28.34-4.68,56-5.23,83-1l-42-3-33,105" fill="none" stroke="#000" stroke-width="15"/>
      </g>
    </g>
    <g id="Kiyomi_a1_mask">
      <g clip-path="url(#Kiyomi-clip-path-8)">
        <path id="Kiyomi_a1" d="M499.5,61.5c-2.19-2.75-7.22-5.78-14-9-11.61,9.54-22,23.39-31,42,3.18,4.91,7.12,7.7,13,5,12.06-4.37,24.56-25.25,37-44-9.7,24.14-8.84,41.64,13,46" fill="none" stroke="#000" stroke-width="14"/>
      </g>
    </g>
    <g id="Kiyomi_k2_mask">
      <g clip-path="url(#Kiyomi-clip-path-9)">
        <path id="Kiyomi_k2" d="M567,3c-20.29,35.35-36,71-44,107,5.41-34.17,22.48-50.91,46-58-.41,19-8.33,32.1-32.5,32.5l31,28" fill="none" stroke="#000" stroke-width="15"/>
      </g>
    </g>
    <g id="Kiyomi_a2_mask">
      <g clip-path="url(#Kiyomi-clip-path-10)">
        <path id="Kiyomi_a2" d="M624.5,63.5a32.83,32.83,0,0,0-12-11c-10.18,10.12-20.09,20.74-26,39-3.94,9.07,1.35,10.31,12,7,10.83-8,20.64-23.77,30-43-9.78,37.59-4.91,49.86,11,43" fill="none" stroke="#000" stroke-width="20"/>
      </g>
    </g>
    <g id="Kiyomi_d_mask">
      <g clip-path="url(#Kiyomi-clip-path-11)">
        <path id="Kiyomi_d" d="M712,5,685,65q-24.43-16.53-36.5,25.5c8.66,14.9,23,14.23,37-23a138.88,138.88,0,0,0,0,45" fill="none" stroke="#000" stroke-width="16"/>
      </g>
    </g>
    <g id="Kiyomi_a3_mask">
      <g clip-path="url(#Kiyomi-clip-path-12)">
        <path id="Kiyomi_a3" d="M747,70c-.15-8.2-3.07-12.88-8-15-8.62,4.26-17.53,10.52-29.5,37.5,1.76,6,5.1,9.27,11,8,11.33-6.77,21.37-22.08,31-40-11.54,31.07-10.76,48.5,18,35" fill="none" stroke="#000" stroke-width="17"/>
      </g>
    </g>
  </g>
</svg>
