<svg xmlns="http://www.w3.org/2000/svg" xmlns:xlink="http://www.w3.org/1999/xlink" width="1250" height="180" viewBox="0 100 1250 180" aria-labelledby="korou_name_description">
  <defs>
    <clipPath id="Kurou-clip-path-1">
      <path d="M130.55,123.34q-1.38,1.59-6,4.13-9.52,4.66-10.79,7-1.06.85-4.76,3.6t-9.21,6.77q-8.25,5.51-14.29,10.37t-7.94,7.41a3.09,3.09,0,0,0-1.59.63,1.88,1.88,0,0,1-1.59.42,20.48,20.48,0,0,0-1.9,1.27,9.9,9.9,0,0,0-2.12,1.9,10.84,10.84,0,0,1-2,3.28A3.63,3.63,0,0,1,65,171.5q-4,2.12-15.87,11.64,1.48,16.3,8.25,28.57,6.14,13.55,12.49,19.89a52.45,52.45,0,0,0,8.36,7.62q3.91,2.75,6,2.75a23.86,23.86,0,0,1,5.29,3q3.38,2.33,3.6,3.81a4.43,4.43,0,0,1,.21,1.69,8.12,8.12,0,0,1-1.06,4.66,15.25,15.25,0,0,1-1.48,2.22,2.66,2.66,0,0,1-2.12.74A13.38,13.38,0,0,1,83,256.37q-3.39.21-11.64-6.35A81.82,81.82,0,0,1,58.69,238q-5.72-8.25-9.84-15a55.25,55.25,0,0,1-6.24-14.82q-.85-3.81-3.17-11.43A30.1,30.1,0,0,1,37.74,191v-4l-2.54,6.35q-.21.63-2.65,7t-6.88,22.44l-3.39,11Q17.42,249,15.83,253t-3.28,4a4.33,4.33,0,0,1-2.22-1l-2-1.38A8.83,8.83,0,0,1,6,252.77a3.43,3.43,0,0,1-.63-2.12,23.67,23.67,0,0,1,1.06-5.29,16.44,16.44,0,0,1,.42-5.29,22.42,22.42,0,0,0,.64-3q1.48,0,1.48-3.39,0-1.69,1.9-7.41l1.9-6.56,2.54-6.14a63.16,63.16,0,0,0,2.33-6.35q0-2.75,2.75-7a52.09,52.09,0,0,0,1.48-5.5,24.18,24.18,0,0,0,.63-4.87q.42-1.06,2.33-4.87a33.14,33.14,0,0,0,2.75-7.62,12.27,12.27,0,0,1,.74-2.33q.53-1.27,1.16-3.17l7-19,3.17-7.2q.42-1.06,2.86-6.56t3.28-5.5v-2.33q0-.84,2.33-5.5l2.54-5.08a29.13,29.13,0,0,0,2.65-5.4q1-2.64,1.16-3.49c.14-.28.42-.77.85-1.48a9.85,9.85,0,0,1,1.48-1.9A7.44,7.44,0,0,1,61,106.73q3,0,5.08,4.23a12.13,12.13,0,0,1,1.48,5.29,9.91,9.91,0,0,1-1.9,5.08q-7.2,15.45-14.5,31.75t-7.3,18.84l7.2-5.29A178.37,178.37,0,0,1,68.64,152l26-21.17a85.06,85.06,0,0,0,14-9.31,27.31,27.31,0,0,0,3.39-2.33,12,12,0,0,1,2.12-1.48q1.27-1.06,5.08-3.7t4.87-2.43q2.33-1.06,5.08,2.12t2.33,5.93A4.14,4.14,0,0,1,130.55,123.34Z" fill="none"/>
    </clipPath>
    <clipPath id="Kurou-clip-path-2">
      <path d="M114.57,242.82a31.44,31.44,0,0,1-4.23-3.17q-7-7.41-7-13.55a7.4,7.4,0,0,1,.21-2.12,6.31,6.31,0,0,0,.53-3c-.07-1-.11-1.62-.11-1.91-.57-.56-.85-1-.85-1.16a.85.85,0,0,1,.42-.63,2.1,2.1,0,0,0,.64-.74c.85,0,1.13-.77.85-2.33q-.43-1.69,1.69-7.51A52,52,0,0,1,112,196a98.78,98.78,0,0,1,6.88-9.52,58.93,58.93,0,0,1,8.15-8.68,49.22,49.22,0,0,1,9.1-6.56,35,35,0,0,1,8.89-3.17,29.53,29.53,0,0,1,5.71-1.06,4.84,4.84,0,0,1,2.65.74,20.39,20.39,0,0,1,3.07,2.65q5.72,2.54,7.94,6.46t2.22,12.17q0,13.76-11.22,29.84a59.55,59.55,0,0,1-9.1,10.69,81,81,0,0,1-11.22,7.94,36,36,0,0,1-8.15,4.55,27.41,27.41,0,0,1-8.36,1.59A8.1,8.1,0,0,1,114.57,242.82Zm32.49-32.38a70.48,70.48,0,0,0,5.82-12.91,31.08,31.08,0,0,0,1.06-8.68q0-6.35-1.69-7.2A9.41,9.41,0,0,0,148,180.6q-4.66,0-9.74,4.23a57.39,57.39,0,0,0-11,13A152.47,152.47,0,0,0,117.32,217a20.09,20.09,0,0,0-2.12,8.68,7.68,7.68,0,0,0,1.59,5.08,5.34,5.34,0,0,0,4.34,1.91q7,0,17.78-11.43A74.73,74.73,0,0,0,147.06,210.44Z" fill="none"/>
    </clipPath>
    <clipPath id="Kurou-clip-path-3">
      <path d="M180.39,237.11a6.29,6.29,0,0,1-.63-3.17,19.71,19.71,0,0,1,.21-3.17A100.38,100.38,0,0,1,183.14,214l1.06-4.23q.64-5.29,7.41-22.22t11-23.07a6.68,6.68,0,0,1,3.6-1.06,6.34,6.34,0,0,1,4.66,1.9,3.55,3.55,0,0,1,1.27,3.17,19.37,19.37,0,0,1-1.59,6.24q-1.59,4.13-5.4,12.17-.85,1.7-2.86,6.35t-2,5.5c0,.28.07.42.21.42a1.41,1.41,0,0,0,.85-.32,5.57,5.57,0,0,1,.85-.53q2.33-4,11.32-11t12.38-8.68a25.33,25.33,0,0,1,3.81-1.69q2.33-.84,3.17-1.27a17.8,17.8,0,0,1,8-1.69,13.07,13.07,0,0,1,5.19,1,5.58,5.58,0,0,1,3.07,2.86,3.67,3.67,0,0,0,1.16,2.33,7.61,7.61,0,0,0,1.38,1.06.82.82,0,0,1,.85.53,2.47,2.47,0,0,1,.21.74c0,1-.57,1.59-1.69,1.8a52.51,52.51,0,0,1-6.14.53,21.78,21.78,0,0,0-4.87,1.06A38.93,38.93,0,0,0,235,188q-11.86,6.77-17.67,10.58A61.58,61.58,0,0,0,205.58,209a57,57,0,0,0-6.14,9.1q-1.48,1.48-3.07,7.72a47.11,47.11,0,0,0-1.59,7.73c-.14.42-.42,1.24-.85,2.43a13,13,0,0,1-1.91,3.49q-2.54,3.39-4.23,3.39-1.91,0-5.08-3.39A8.89,8.89,0,0,1,180.39,237.11Z" fill="none"/>
    </clipPath>
    <clipPath id="Kurou-clip-path-4">
      <path d="M272.46,239.43a3.91,3.91,0,0,1-2.12-.53,14.67,14.67,0,0,1-2.33-2,17.54,17.54,0,0,1-7.3-6.67q-2.65-4.34-2.22-7.73a74,74,0,0,1,5.61-21.38,94.9,94.9,0,0,1,11.32-20.53q6.56-8.89,12.7-11a18.35,18.35,0,0,1,6.35-1.48,7.41,7.41,0,0,1,7.2,4.23,11.44,11.44,0,0,1,1.48,4.45q0,2.54-3,3.39a2.6,2.6,0,0,0-1.48.63,1.7,1.7,0,0,0-.85,1.27,4.23,4.23,0,0,0,1.9.21,46.55,46.55,0,0,0,8.89-1.06q5.29-1.06,6.77-2.33a5,5,0,0,1,2.12-.63l3,.42q3.6,1.06,3.6,2.54a2.4,2.4,0,0,0,.64,1.59,1.89,1.89,0,0,0,1.48.74q1.27.21-.32,1.69t-6,4.87q-1.06.63-3.07,1.91a5.74,5.74,0,0,0-2.33,2.12,3.81,3.81,0,0,0,.11,2.33,11.48,11.48,0,0,1,.85,4.66q0,7-6,15.45a62.52,62.52,0,0,1-15,14.82q-9,6.35-17.25,7.41A26.63,26.63,0,0,1,272.46,239.43Zm7.41-12.49a14.56,14.56,0,0,1,4.45-3.39q1.48,0,4-2.22a74.23,74.23,0,0,0,7.83-9,70.4,70.4,0,0,0,6-7.83,11.5,11.5,0,0,0,2-6.14,6.5,6.5,0,0,0-.21-1.9,2.36,2.36,0,0,0-1.38-1.16q-1.17-.53-2.22-1a6.66,6.66,0,0,1-3.49-1,48.4,48.4,0,0,1-4.55-3.28L289,185.89l-3.6,3.6q-5.08,5.08-10.37,16.61T269.07,224q-.21,3,1,4.13a5.45,5.45,0,0,0,3.49,1.38Q274.78,229.49,279.86,226.95Z" fill="none"/>
    </clipPath>
    <clipPath id="Kurou-clip-path-5">
      <path d="M338.17,228.22q-2-3.81-2.86-11.64-.64-4.87,1.69-14.18a109.48,109.48,0,0,1,6.24-18.1q3.91-8.78,7.73-12.59,2.75-3.6,4.87-3.6a16.63,16.63,0,0,1,5.08,1.69,9,9,0,0,1,2.33,5.93q0,3-2.54,7.2a58.51,58.51,0,0,0-7.2,14,76.93,76.93,0,0,0-4.23,15.66q-2.12,7-2.12,9.1a3.57,3.57,0,0,0,1,2.65,5.92,5.92,0,0,0,3.07,1.38q4,.85,9.52-3a47.21,47.21,0,0,0,10.79-11A64.6,64.6,0,0,0,380,196a43.1,43.1,0,0,0,1.91-7.2q1.48-5.08,1.69-5.71a14.18,14.18,0,0,1,3.17-6.46,6.14,6.14,0,0,1,4.44-2.22,5.09,5.09,0,0,1,3,1.06,4.76,4.76,0,0,1,2,1.38,4.82,4.82,0,0,1,.53,2.65,33.21,33.21,0,0,1-.21,4,23.81,23.81,0,0,1-1.27,8.15,90.42,90.42,0,0,1-4,9,56.2,56.2,0,0,0-3.81,7.83,74.92,74.92,0,0,1-9.95,15.56q-6.56,8.15-12.06,10.48-5.93,3.6-11,3.6a33.86,33.86,0,0,1-9.95-2.12A31.14,31.14,0,0,1,338.17,228.22Z" fill="none"/>
    </clipPath>
    <clipPath id="Kurou-clip-path-6">
      <path d="M465.27,242.08a16.21,16.21,0,0,1-2.75-8.15,22.54,22.54,0,0,1-.21-3.81,128.85,128.85,0,0,1,1.06-14.82q1.06-8.89,2.12-14.18a3.81,3.81,0,0,0,1-2.54,5.51,5.51,0,0,0-.11-2.12,26.74,26.74,0,0,1,1.06-4.23,121.37,121.37,0,0,0,3.6-13.12q5.71-17.35,11.22-27.73a151.22,151.22,0,0,1,12.28-19.47q9.1-9.31,14.29-13.65A52.55,52.55,0,0,1,520.3,111q8.25-4.87,11.85-4.87a6.76,6.76,0,0,1,1.9.42q11.85,2.54,17.78,9.63t8.68,21.91a145.92,145.92,0,0,1,1.9,19.47,63.91,63.91,0,0,1-3.81,21.38Q554.79,189.7,544.85,206q-11.43,22.44-27,36t-29.31,13.55A22.57,22.57,0,0,1,475,251.08Q467.59,245.36,465.27,242.08Zm36.93-2.75q6.45-4.76,16-15.77,8.25-9.52,11.75-14.39a56.19,56.19,0,0,0,6.24-11.64q2.75-6.77,6.77-20.74A141,141,0,0,0,546,162.92a82.72,82.72,0,0,0,.74-12l-.21-13.76a30.16,30.16,0,0,0-1.48-7.51,16.48,16.48,0,0,0-3-5.82,10.5,10.5,0,0,0-8.25-3.6,13.58,13.58,0,0,0-6.14,1.48q-4,1.7-11.85,9.84a160.54,160.54,0,0,0-14.07,16.72q-6.25,8.57-6.24,11.11a11.1,11.1,0,0,1-.21,1.27,4.63,4.63,0,0,1-.85,1.91q-3.6,3.81-8,15.45a220.42,220.42,0,0,0-7.83,25.19,119.58,119.58,0,0,0-3.81,22.65l-.42,7.2a10.78,10.78,0,0,0,.32,3,7.88,7.88,0,0,0,1.38,2.43,25.94,25.94,0,0,1,1.9,2.86,7.45,7.45,0,0,0,3.39,2.75,11.59,11.59,0,0,0,4.87,1.06,10,10,0,0,0,2.33-.21A28.36,28.36,0,0,0,502.2,239.33Z" fill="none"/>
    </clipPath>
    <clipPath id="Kurou-clip-path-7">
      <path d="M585.69,244.51a28.84,28.84,0,0,1-5.08-4,28.41,28.41,0,0,1-5-9.42q-1.17-4.33-1.16-13.86,0-5.08,5.71-27.94-.43,1.48,1.48-6.14a2.13,2.13,0,0,0-1.69-3,26.22,26.22,0,0,0-6.56-.64q-3.6,0-4.23-.42c-.42-.14-.67-.35-.74-.63a2.77,2.77,0,0,1-.11-.63,5.38,5.38,0,0,0-.85-2.54.85.85,0,0,1-.21-.63,3.63,3.63,0,0,1,1.16-2.33,4.53,4.53,0,0,1,2.86-1.48q1.06-.21,4.87-.63a29.74,29.74,0,0,0,7.2-1.69,12.17,12.17,0,0,0,5.29-3.6q2.75-7,7-15.77t5.71-10.48A13.32,13.32,0,0,1,606,137a2.88,2.88,0,0,1,2.12.85,24.63,24.63,0,0,1,2.33,3,10.18,10.18,0,0,0,1.06,1.48,3.41,3.41,0,0,1,.85,2.12,13.59,13.59,0,0,1-1.59,5.08q-1.59,3.39-6.24,11.85l-2.75,5.29a12.28,12.28,0,0,0,3,.21,27.84,27.84,0,0,0,3.81-.21,48.83,48.83,0,0,1,8.68-.85,14.14,14.14,0,0,1,3,.21q4.87,0,7.09,1.8t2.65,6q.42,2.33-.85,2.75t-7.2.42q-24.56,1.06-24.76,1.9-.85.64-3.17,7.41t-4,12.91a107.49,107.49,0,0,0-2.75,22.44q0,8.89,2.54,11.85,1.06,1.06,4,1.06a20.52,20.52,0,0,0,6.46-1.16,18.17,18.17,0,0,0,5.82-3.07q3.81-3.17,6.35-3.17a2.72,2.72,0,0,1,2,.74,2.46,2.46,0,0,1,.74,1.8q0,2.33-2.54,5.93a25.72,25.72,0,0,1-8.47,8,19.8,19.8,0,0,1-10.16,3.17,9.78,9.78,0,0,1-3.39-.42A23,23,0,0,1,585.69,244.51Z" fill="none"/>
    </clipPath>
    <clipPath id="Kurou-clip-path-8">
      <path d="M644.74,242.82a31.4,31.4,0,0,1-4.23-3.17q-7-7.41-7-13.55a7.38,7.38,0,0,1,.21-2.12,6.31,6.31,0,0,0,.53-3c-.07-1-.11-1.62-.11-1.91-.57-.56-.85-1-.85-1.16a.85.85,0,0,1,.42-.63,2.1,2.1,0,0,0,.63-.74c.85,0,1.13-.77.85-2.33q-.43-1.69,1.69-7.51A52,52,0,0,1,642.2,196a98.71,98.71,0,0,1,6.88-9.52,58.88,58.88,0,0,1,8.15-8.68,49.25,49.25,0,0,1,9.1-6.56,35,35,0,0,1,8.89-3.17,29.53,29.53,0,0,1,5.71-1.06,4.84,4.84,0,0,1,2.65.74,20.44,20.44,0,0,1,3.07,2.65q5.71,2.54,7.94,6.46t2.22,12.17q0,13.76-11.22,29.84a59.55,59.55,0,0,1-9.1,10.69,81,81,0,0,1-11.22,7.94,36,36,0,0,1-8.15,4.55,27.42,27.42,0,0,1-8.36,1.59A8.1,8.1,0,0,1,644.74,242.82Zm32.49-32.38a70.44,70.44,0,0,0,5.82-12.91,31.1,31.1,0,0,0,1.06-8.68q0-6.35-1.69-7.2a9.41,9.41,0,0,0-4.23-1.06q-4.66,0-9.74,4.23a57.37,57.37,0,0,0-11,13A152.41,152.41,0,0,0,647.49,217a20.09,20.09,0,0,0-2.12,8.68,7.68,7.68,0,0,0,1.59,5.08,5.35,5.35,0,0,0,4.34,1.91q7,0,17.78-11.43A74.7,74.7,0,0,0,677.23,210.44Z" fill="none"/>
    </clipPath>
    <clipPath id="Kurou-clip-path-9">
      <path d="M777.87,243a5.92,5.92,0,0,1-2.86-.74,16.5,16.5,0,0,1-3.49-2.86q-.64-.84-2.22-3.07A15.46,15.46,0,0,1,767,231.5a25.11,25.11,0,0,1-.74-6.67q0-3,.21-5.08c.14-1.41.28-2.54.42-3.39l.42-6.14a53.69,53.69,0,0,0,1.48-11.64q0-5.71-1.48-5.71-3.17-.63-14,9.42a328.46,328.46,0,0,0-23.49,24.66l-3.81,5.5q-.43.64-2.12,3c-1.13,1.55-1.9,2.33-2.33,2.33q-2.33.21-6.35-2.22T711,231.18q0-1.27,3.28-11.75t5.19-16.4l9.31-27.52q1.69-5.29,6.14-15.87l4-10.37,2.54-6.35,9.74-25.82v-.85q0-3.6,1.48-5.08l3-.21c0-.28.56,0,1.69,1a28.09,28.09,0,0,1,3.28,3.17,5.1,5.1,0,0,1,1.59,2.86,8.54,8.54,0,0,1,.63,3.39q0,4.87-4.87,16.72-1.91,2.75-5.71,13.33-2.12,5.93-3.17,8.25-2.54,4.66-8.78,19.15a189,189,0,0,0-8.78,23.81,17.49,17.49,0,0,0-1.69,5.93c0,.71.21,1.06.63,1.06q1.48,0,4.66-4,13.33-14.18,21.38-21.38t12.91-6.77q2.54.64,6.24,4.76a26.78,26.78,0,0,1,5.19,7.94,33.11,33.11,0,0,1,1.27,8.68q0,3.6-.63,13.12l-.42,4.87q-1.7,10.59-1.69,12.28a5.37,5.37,0,0,0,.53,2.75,12.14,12.14,0,0,0,2.22,2.33q3.38,2.75,3.39,4.66,0,1.7-3,3.39A16.32,16.32,0,0,1,777.87,243Z" fill="none"/>
    </clipPath>
    <clipPath id="Kurou-clip-path-10">
      <path d="M819.14,241.13a22.8,22.8,0,0,1-5.08-.53c-1.55-.35-2.33-.81-2.33-1.37a.85.85,0,0,0-1.06-1.06c-.14-.14-.57-.49-1.27-1.06a11.17,11.17,0,0,0-2.54-1.48,11.52,11.52,0,0,1-1.91-6.35,52,52,0,0,1,1.91-11.22q.63-6.77,6.35-16.93a122.56,122.56,0,0,1,13.44-19.26q7.72-9.1,13.86-12.7a10.89,10.89,0,0,1,8-3.17,14.46,14.46,0,0,1,7.2,1.9,23.88,23.88,0,0,1,6.24,5.71,37.38,37.38,0,0,1,5.19,8.25A23.89,23.89,0,0,1,868,188a90,90,0,0,1-.85,9.95,70.35,70.35,0,0,0-1.8,9.31,72.45,72.45,0,0,0-.74,9.52,8.4,8.4,0,0,0,.42,4.76,2.59,2.59,0,0,0,2.33,1.8,5.28,5.28,0,0,0,2.33-.63,10.26,10.26,0,0,1,4.66-1.06,5.65,5.65,0,0,1,3.81,1.27,4.75,4.75,0,0,1,1.48,3.81q0,3.81-5.19,7.62t-9.84,3.81q-3.17,0-5.82-5a80.65,80.65,0,0,1-5.19-12.8l-1.27-4.87-9.1,8.68-4.87,4.87a51,51,0,0,0-3.81,4q-2.33,4-11.64,7.62A19.48,19.48,0,0,1,819.14,241.13Zm16.93-23.28a116.69,116.69,0,0,0,12.28-14.18q6.56-8.68,8.25-17.14a18,18,0,0,0-2.75-5.08q-1.9-2.54-3.39-2.75-4.24,0-8.89,4.87a138.41,138.41,0,0,0-11,13.55l-7,10.37q-1.27,1.7-4.45,9T816,225.25q0,4.66,2.75,4.66a9.6,9.6,0,0,0,4.87-1.69Q828.67,225.26,836.08,217.85Z" fill="none"/>
    </clipPath>
    <clipPath id="Kurou-clip-path-11">
      <path d="M891.52,237.11a6.29,6.29,0,0,1-.63-3.17,19.65,19.65,0,0,1,.21-3.17A100.33,100.33,0,0,1,894.28,214l1.06-4.23q.64-5.29,7.41-22.22t11-23.07a6.68,6.68,0,0,1,3.6-1.06,6.34,6.34,0,0,1,4.66,1.9,3.55,3.55,0,0,1,1.27,3.17,19.37,19.37,0,0,1-1.59,6.24q-1.59,4.13-5.4,12.17-.85,1.7-2.86,6.35t-2,5.5c0,.28.07.42.21.42a1.41,1.41,0,0,0,.85-.32,5.59,5.59,0,0,1,.85-.53q2.33-4,11.32-11T937,178.69a25.32,25.32,0,0,1,3.81-1.69q2.33-.84,3.17-1.27a17.8,17.8,0,0,1,8-1.69,13.07,13.07,0,0,1,5.19,1,5.58,5.58,0,0,1,3.07,2.86,3.67,3.67,0,0,0,1.16,2.33,7.61,7.61,0,0,0,1.38,1.06.83.83,0,0,1,.85.53,2.49,2.49,0,0,1,.21.74q0,1.48-1.69,1.8a52.49,52.49,0,0,1-6.14.53,21.78,21.78,0,0,0-4.87,1.06,38.92,38.92,0,0,0-5.08,2.12q-11.86,6.77-17.67,10.58A61.57,61.57,0,0,0,916.71,209a57,57,0,0,0-6.14,9.1q-1.48,1.48-3.07,7.72a47.16,47.16,0,0,0-1.59,7.73c-.14.42-.42,1.24-.85,2.43a13,13,0,0,1-1.91,3.49q-2.54,3.39-4.23,3.39-1.91,0-5.08-3.39A8.89,8.89,0,0,1,891.52,237.11Z" fill="none"/>
    </clipPath>
    <clipPath id="Kurou-clip-path-12">
      <path d="M970.89,237.53q-4.44-3.18-5.29-7a12.5,12.5,0,0,1-.21-2.75q0-7.83,6-20.21a113.77,113.77,0,0,1,14.71-22.86q8.68-10.48,15.87-13.23,4.44-2.33,5.71-2.33t5.71,2.33a14.94,14.94,0,0,1,4.44,1.9,20.15,20.15,0,0,1,3.81,4.23,46.69,46.69,0,0,1,4,13.55,26.9,26.9,0,0,1,1.27,6.35,4.06,4.06,0,0,1-1.27,3c-.14.14-.39.42-.74.85a1.84,1.84,0,0,0-.53,1c0,.21.14.32.42.32a4.92,4.92,0,0,1-.21,1,12.72,12.72,0,0,1-.85,2,47,47,0,0,0-2.54,13.76,20.3,20.3,0,0,0,.42,4q2.11,5.51,7.2,5.5,4.23,0,8-3.81,3.38-2.33,5-3.28c1.06-.63,1.59-.46,1.59.53a5.92,5.92,0,0,0,.85.63,2.25,2.25,0,0,0,1.27.42c1,0,1.48.63,1.48,1.9a8.09,8.09,0,0,1-1.48,4.23,32.12,32.12,0,0,0-2.33,2.54,3.1,3.1,0,0,0-.85,1.69l-3.17,3a18.66,18.66,0,0,1-9.52,2.33q-5.71,0-9.1-2.33a28.81,28.81,0,0,1-9.31-13.33l-1.06-2.12-6.14,4a62.21,62.21,0,0,1-4.87,4.34q-2.75,2.22-3.6,3.07-1.7,2.12-3,2.12h-2.12q0,1.48-4.13,3.28a18.65,18.65,0,0,1-7.3,1.8Q975.34,240.71,970.89,237.53Zm18-15.77q9.52-6.67,12.06-9.84l6.14-6.35a30.49,30.49,0,0,0,5.4-8.68,23.54,23.54,0,0,0,2-8.89q0-3.6-1.06-5.08-.85-2.54-2.54-2.54a23.39,23.39,0,0,0-4.87,1.48q-4,2.54-11.32,11.64a162.35,162.35,0,0,0-13,18.73Q976,221.87,976,226.31a2.26,2.26,0,0,0,.42,1.27,6,6,0,0,0,.63.85Q979.35,228.43,988.88,221.76Z" fill="none"/>
    </clipPath>
    <clipPath id="Kurou-clip-path-13">
      <path d="M1101.9,242.61a28.66,28.66,0,0,1-3.49-5.19,11,11,0,0,1-1-4.76,27.83,27.83,0,0,1,.21-3.81l.85-9.74q-.43-.42-1.59.21a11.41,11.41,0,0,0-2.12,1.48c-.63.57-1.24,1.06-1.8,1.48l-3.6,3q-9.32,10.59-16.19,15t-12.81,4.45l-2.33-.21a7.89,7.89,0,0,1-6.56-4.34,21,21,0,0,1-2.12-10.05,36.4,36.4,0,0,1,.21-4.66,59.27,59.27,0,0,1,3.17-13.76A68.27,68.27,0,0,1,1060,198a47.16,47.16,0,0,1,10.48-12.28,42.34,42.34,0,0,1,13.65-8.25,34.58,34.58,0,0,1,11.85-2.33,25.42,25.42,0,0,1,7.2,1.06,9.81,9.81,0,0,0,4,1.27q1.69,0,2.54-2.12a20.3,20.3,0,0,0,1.91-4.66,50.41,50.41,0,0,1,2.75-6.56l4.66-13.76,5.5-13.12,6.14-14.39q4.23-8.46,7.2-8.47,1.69,0,4,2.33a6.81,6.81,0,0,1,1.91,4.66,16.09,16.09,0,0,1-1.16,5.29q-1.17,3.18-2.86,7.41a90.28,90.28,0,0,0-5.5,10.58l-3.17,7.2q-5.71,13.55-6.77,16.3l-1.69,5.71a94.47,94.47,0,0,0-2.75,10.16q-1.7,9.1-3,9.1-3.81,4-7.2,25-.85,5.08-.85,19.47a32.37,32.37,0,0,1-.32,6,1.48,1.48,0,0,1-1.59,1.16Q1103.38,244.73,1101.9,242.61Zm-31.64-14.29a126.26,126.26,0,0,0,11.11-9.21q5.71-5.5,13.76-17.14t8-13.55c0-.56-.71-1.06-2.12-1.48a16.14,16.14,0,0,0-4.66-.63,14,14,0,0,0-3.39.42,25.28,25.28,0,0,0-9.42,4.34,54.08,54.08,0,0,0-9.63,9.42,76,76,0,0,0-9.74,15.66q-3.81,8.25-3.81,12.7,0,2.54,1.48,2.54A14.58,14.58,0,0,0,1070.26,228.32Z" fill="none"/>
    </clipPath>
    <clipPath id="Kurou-clip-path-14">
      <path d="M1135.45,236.58c-.92-.92-1.37-1.51-1.37-1.8a5.48,5.48,0,0,0-1.06-3.6,2.86,2.86,0,0,1-.42-1.91q0-3.38,3.28-11.54a159.09,159.09,0,0,1,8.57-17.67,27.82,27.82,0,0,0,3.28-4.44,17,17,0,0,1,2.65-3.6,2.41,2.41,0,0,1,.63-1.59,1.91,1.91,0,0,1,1.48-.74v-1.27q0-1.9,7-9.21t11.43-10.05a19,19,0,0,1,10.79-3.6,10.47,10.47,0,0,1,6.56,2.12q1.06,1.27,9.74,9.1l7.83,7L1202,194.35a33.13,33.13,0,0,0-1.9,10.37,28.6,28.6,0,0,0,4.66,15.45,11.27,11.27,0,0,0,4.23,4.44,15,15,0,0,0,6.35,2.54q4.65.85,4.66,4.66,0,4.24-3.81,5.08a11.27,11.27,0,0,1-2.54.21q-12.49,0-21.59-17.57a29.19,29.19,0,0,1-2.22-4.66,26.81,26.81,0,0,1-1.59-4.66q-1.27,1.7-3.17,4t-3.6,4q-23.07,23.07-36.4,23.07a14.06,14.06,0,0,1-7.62-2.12A10.55,10.55,0,0,0,1135.45,236.58ZM1147.3,228a21.27,21.27,0,0,0,5.5-2.12,39,39,0,0,0,6.67-4.45q18.2-15.66,26.25-27.3l4.66-7.62a19.73,19.73,0,0,0-4.44-6.46,6.82,6.82,0,0,0-4.23-2q-4.44,0-14,11.11a137.79,137.79,0,0,0-17.36,26.14,75.74,75.74,0,0,0-3.39,7.3l-1.9,4.76Q1145.08,228.43,1147.3,228Z" fill="none"/>
    </clipPath>
  </defs>
  <desc id="korou_name_description">Name: Korou Otoharada</desc>
  <g id="Kurou_name">
    <g clip-path="url(#Kurou-clip-path-1)">
      <path id="Kurou_k" d="M65.5,101.5l-60,157c20.78-85.73,75.06-115.47,132-152l-98,74c8.28,35.36,28,60.69,57,78" fill="none" stroke="#000" stroke-width="25"/>
    </g>
    <g clip-path="url(#Kurou-clip-path-2)">
      <path id="Kurou_o" d="M162.5,182.5c-3.58-5.58-11.95-8-21-10q-23.94,15.89-35,52c5.9,8.11,12.37,13.64,20,14C147.06,224,158.73,205.22,162.5,182.5Z" fill="none" stroke="#000" stroke-width="21"/>
    </g>
    <g clip-path="url(#Kurou-clip-path-3)">
      <path id="Kurou_r" d="M212.5,158.5l-33,85c18.58-41.12,43.29-62.58,73-68" fill="none" stroke="#000" stroke-width="23"/>
    </g>
    <g clip-path="url(#Kurou-clip-path-4)">
      <path id="Kurou_o1" data-name="Kurou_o" d="M328.5,180.5l-28,7c-8.35-4.3-6.23-11.69-1-20-13.78,9-26.32,28.75-38,56l16,16C301.73,216.19,317.26,184.93,328.5,180.5Z" fill="none" stroke="#000" stroke-width="24"/>
    </g>
    <g clip-path="url(#Kurou-clip-path-5)">
      <path id="Kurou_u" d="M361.5,163.5c-17.52,28.82-23.68,62-11,71,21.1-7.95,35.35-31.52,47-61" fill="none" stroke="#000" stroke-width="20"/>
    </g>
    <g clip-path="url(#Kurou-clip-path-6)">
      <path id="Kurou_o2" d="M551,183c7.15-28.1,4.75-51.55-10-69-21,.05-39.29,18-56,46-22.32,53.08-19.58,76.95-5,87C499.89,256.44,523.63,234.53,551,183Z" fill="none" stroke="#000" stroke-width="23"/>
    </g>
    <g clip-path="url(#Kurou-clip-path-7)">
      <path id="Kurou_t1" d="M611.5,134.5c-22.32,32.4-30.77,67.78-26,106,12,1.82,23.67-4.59,35-17" fill="none" stroke="#000" stroke-width="17"/>
      <line id="Kurou_t2" x1="635.5" y1="170.5" x2="565.5" y2="176.5" fill="none" stroke="#000" stroke-width="19"/>
    </g>
    <g clip-path="url(#Kurou-clip-path-8)">
      <path id="Kurou_o3" d="M692.5,188.5c-3.06-8-9.2-12.86-16-17-10.78,3.06-24.89,26.54-39,50,3.11,11.41,7.41,20.17,17,17C670,224.89,688.23,214.25,692.5,188.5Z" fill="none" stroke="#000" stroke-width="20"/>
    </g>
    <g clip-path="url(#Kurou-clip-path-9)">
      <path id="Kurou_h" d="M761,106,711,240c24.07-26.27,46.55-47.7,67-63-5.79,23.09-4.66,46.43,3,70" fill="none" stroke="#000" stroke-width="21"/>
    </g>
    <g clip-path="url(#Kurou-clip-path-10)">
      <path id="Kurou_a1" d="M866.5,182.5l-22-13c-12.81,13.5-25,35.15-37,60l14,9c20.59-21.26,39.28-43.43,51-69-19.17,41-16.68,62.63,5,67" fill="none" stroke="#000" stroke-width="32"/>
    </g>
    <g clip-path="url(#Kurou-clip-path-11)">
      <path id="Kurou_r2" d="M923,155l-32,89c20.11-42.14,46.16-64.15,77-70" fill="none" stroke="#000" stroke-width="24"/>
    </g>
    <g clip-path="url(#Kurou-clip-path-12)">
      <path id="Kurou_a2" d="M1020.5,194.5c-1-16.27-7.24-21.1-17-18-15.4,12.21-26.6,29.71-34,52l13,6c17.35-17.13,35.58-34.7,41-46-9.81,39.69-5.28,56.94,23,37" fill="none" stroke="#000" stroke-width="21"/>
    </g>
    <g clip-path="url(#Kurou-clip-path-13)">
      <path id="Kurou_d" d="M1113.5,183.5c-32.32-12.73-71.72,41.65-59,52,17.58,14.31,63.91-38.62,89-123-22.8,48.55-40.67,95.48-42,137" fill="none" stroke="#000" stroke-width="21"/>
    </g>
    <g clip-path="url(#Kurou-clip-path-14)">
      <path id="Kurou_a3" d="M1197.5,185.5c-2.88-7.38-11.81-13-21-16-15.09,11.21-28.71,31.19-41,59l15,8c20.39-14.78,37.27-36.28,53-60-18.35,36-4.51,51.71,21,60" fill="none" stroke="#000" stroke-width="21"/>
    </g>
  </g>
</svg>
