<svg xmlns="http://www.w3.org/2000/svg" xmlns:xlink="http://www.w3.org/1999/xlink" width="1361" height="250" viewBox="0 0 1361 250" aria-labelledby="kyosuke_name_description">
  <defs>
    <clipPath id="Kyosuke-clip-path">
      <path id="Kyosuke_clip" d="M160.85,38.08Q159.2,40,153.64,43q-11.4,5.58-12.92,8.36c-.84.67-2.74,2.11-5.69,4.3s-6.63,4.9-11,8.1q-9.88,6.58-17.09,12.41T97.43,85a3.68,3.68,0,0,0-1.9.76,2.25,2.25,0,0,1-1.89.5,25,25,0,0,0-2.28,1.52,11.62,11.62,0,0,0-2.53,2.28A13.09,13.09,0,0,1,86.42,94a4.34,4.34,0,0,1-3.92,1.64q-4.81,2.53-19,13.92,1.77,19.5,9.87,34.18,7.35,16.22,14.94,23.8a62.46,62.46,0,0,0,10,9.11c3.12,2.2,5.53,3.29,7.21,3.29a28.48,28.48,0,0,1,6.33,3.55c2.7,1.86,4.14,3.37,4.31,4.56a5.42,5.42,0,0,1,.25,2q0,3.79-1.27,5.57a17.28,17.28,0,0,1-1.77,2.66,3.17,3.17,0,0,1-2.53.89,16,16,0,0,1-6.83-2q-4.06.26-13.93-7.59A98.31,98.31,0,0,1,74.9,175.17q-6.84-9.88-11.77-18a66.38,66.38,0,0,1-7.47-17.72q-1-4.56-3.8-13.67a35.87,35.87,0,0,1-2-6.84v-4.81l-3,7.6c-.17.5-1.23,3.29-3.16,8.35s-4.69,14-8.23,26.84l-4,13.16q-5.84,18.22-7.72,23c-1.27,3.2-2.58,4.81-3.93,4.81a5.18,5.18,0,0,1-2.66-1.14c-1.1-.76-1.9-1.31-2.4-1.64a10.66,10.66,0,0,1-2.79-2.28,4.16,4.16,0,0,1-.76-2.54A28.07,28.07,0,0,1,12.37,184a19.54,19.54,0,0,1,.51-6.33,28.26,28.26,0,0,0,.76-3.55c1.17,0,1.77-1.35,1.77-4.05q0-2,2.28-8.86L20,153.39l3-7.34a74.92,74.92,0,0,0,2.79-7.59c0-2.2,1.09-5,3.29-8.36a63.72,63.72,0,0,0,1.77-6.58,28.71,28.71,0,0,0,.76-5.82q.51-1.28,2.78-5.83a39.75,39.75,0,0,0,3.3-9.11,14.7,14.7,0,0,1,.88-2.79c.42-1,.89-2.27,1.39-3.79l8.36-22.79,3.8-8.61q.5-1.26,3.41-7.84t3.93-6.59V47.57c0-.67.92-2.87,2.78-6.58l3-6.08a34.89,34.89,0,0,0,3.17-6.45c.76-2.11,1.22-3.51,1.39-4.18.16-.34.5-.93,1-1.77a11.77,11.77,0,0,1,1.77-2.28,8.93,8.93,0,0,1,5.07-2q3.54,0,6.07,5.07a14.44,14.44,0,0,1,1.77,6.32,11.91,11.91,0,0,1-2.27,6.08q-8.61,18.48-17.35,38T57.18,96.18l8.61-6.33q6.57-6.59,21-17.47l31.14-25.32a101.52,101.52,0,0,0,16.71-11.14,32.27,32.27,0,0,0,4-2.78,14.19,14.19,0,0,1,2.53-1.77c1-.85,3-2.32,6.08-4.43s5-3.08,5.82-2.92c1.85-.84,3.88,0,6.08,2.54s3.12,4.89,2.78,7.09A4.94,4.94,0,0,1,160.85,38.08Z" fill="none"/>
    </clipPath>
    <clipPath id="Kyosuke-clip-path-2">
      <path id="Kyosuke_y_clip" d="M212.11,100.73q0,4.56-6.07,16a107.78,107.78,0,0,1-4.43,10.89,37,37,0,0,1-3.67,6.58l-5.83,13.42q-3.8,8.35-9.36,19.49-6.84,14.19-9.62,21l-3.29,5.31q-12.68,20.25-19.5,28.36-13.92,12.39-21.52,14.43a27,27,0,0,1-7.85,1,35.49,35.49,0,0,1-15.82-3.67q-7.45-3.68-8.48-8.48a5.13,5.13,0,0,1,1.27-3.8,4.2,4.2,0,0,1,3.29-2,2.38,2.38,0,0,1,2,1,23.31,23.31,0,0,0,6,2.91,25.18,25.18,0,0,0,8.48,1.39,31.75,31.75,0,0,0,4.81-.5q5.07-1,10.64-6.08a80,80,0,0,0,10.12-11.14,318.19,318.19,0,0,0,18.48-31.64,14.38,14.38,0,0,1-6.83-4.94,34.15,34.15,0,0,1-5.19-8.23q-1.91-4.31-1.39-6.33v-2.78q-2.28,0-3.67-8.61a126.41,126.41,0,0,1-1.4-20q0-4.31.51-10.89a46.66,46.66,0,0,0,1.14-10c.08-4,.12-6.54.12-7.72v-1a10.31,10.31,0,0,1,.64-4.31,6.05,6.05,0,0,1,2.15-2.27,8.93,8.93,0,0,1,4.05-1q7.08,0,7.09,18.74c0,1.86-.17,5.48-.51,10.88-.17,2.37-.25,5.91-.25,10.64a106.72,106.72,0,0,0,2.28,23.29q2.28,10.13,6.83,13.92l1.52-3.54q2.79-7.35,4.31-9.37a69.91,69.91,0,0,0,4.05-9.37,31.62,31.62,0,0,1,2.78-5.82l3.29-6.84,3.29-9.74a84.15,84.15,0,0,1,5.57-13.29q1-2,3-6a50.44,50.44,0,0,1,3.29-5.7,5.86,5.86,0,0,1,2.79-2.28c1.35-1.18,2.44-1.77,3.29-1.77a8.89,8.89,0,0,1,3.54,1.52Q212.11,96.43,212.11,100.73Z" fill="none"/>
    </clipPath>
    <clipPath id="Kyosuke-clip-path-3">
      <path id="Kyosuke_y_clip-2" data-name="Kyosuke_y_clip" d="M233.12,181a37.5,37.5,0,0,1-5.06-3.8q-8.35-8.87-8.35-16.2a8.83,8.83,0,0,1,.25-2.53,7.44,7.44,0,0,0,.63-3.55c-.09-1.18-.12-1.94-.12-2.28-.68-.67-1-1.14-1-1.39a1,1,0,0,1,.51-.76,2.39,2.39,0,0,0,.76-.89c1,0,1.35-.92,1-2.78q-.51-2,2-9A61.38,61.38,0,0,1,230.09,125a115.89,115.89,0,0,1,8.22-11.39,70.29,70.29,0,0,1,9.75-10.38A58.65,58.65,0,0,1,259,95.42a41.82,41.82,0,0,1,10.63-3.8,35.48,35.48,0,0,1,6.84-1.27,5.79,5.79,0,0,1,3.16.89,24,24,0,0,1,3.67,3.17q6.84,3,9.49,7.72t2.66,14.55q0,16.47-13.42,35.7a71.62,71.62,0,0,1-10.88,12.79,97.92,97.92,0,0,1-13.42,9.49,42.53,42.53,0,0,1-9.75,5.44,32.86,32.86,0,0,1-10,1.9A9.77,9.77,0,0,1,233.12,181ZM272,142.25a84,84,0,0,0,7-15.44,37.3,37.3,0,0,0,1.26-10.38q0-7.59-2-8.61a11.3,11.3,0,0,0-5.07-1.26q-5.56,0-11.64,5.06a68.55,68.55,0,0,0-13.17,15.57,182.94,182.94,0,0,0-11.89,22.91,24.07,24.07,0,0,0-2.54,10.38,9.24,9.24,0,0,0,1.9,6.08,6.41,6.41,0,0,0,5.19,2.28q8.35,0,21.27-13.67A89,89,0,0,0,272,142.25Z" fill="none"/>
    </clipPath>
    <clipPath id="Kyosuke-clip-path-4">
      <path id="Kyosuke_s_clip" d="M315.15,180.23a17.13,17.13,0,0,1-8.36-9.62,35.73,35.73,0,0,1-1.77-5.07,2.44,2.44,0,0,1,1.77-2.27,8.12,8.12,0,0,1,4.18,1.52,19.36,19.36,0,0,0,3.93,2c2.53,2.37,6,3.54,10.38,3.54a20.93,20.93,0,0,0,9.24-2q4.17-2,4.68-4.81c0-.84-.85-3.8-2.53-8.86a80.5,80.5,0,0,1-9.75-18.61q-3.42-9.5-3.42-16.08a20.42,20.42,0,0,1,2.79-9.87,26.43,26.43,0,0,1,7.59-8.61,72.28,72.28,0,0,1,15.32-11.9,69.17,69.17,0,0,1,16.33-7.34A46.34,46.34,0,0,1,373,83a21,21,0,0,1,6.2,1.77c1.85.68,3.63,2.54,5.32,5.57A17.91,17.91,0,0,1,387.05,99q0,4-4.31,11.14a30.39,30.39,0,0,1-2,4.81,13.44,13.44,0,0,0-1.52,3.8,3.44,3.44,0,0,1-3.29,2.53,6.31,6.31,0,0,1-4.43-2.15,15.75,15.75,0,0,1-3.42-5.19,22.18,22.18,0,0,1-.76-5.32,10.8,10.8,0,0,1,2-6.07q2.78-2.79,2.78-3.8c0-.67-.93-1-2.78-1q-3,0-11.65,4.81A57.28,57.28,0,0,0,344,112.63q-4.56,4.31-5.57,6.46a15.73,15.73,0,0,0-1,6.45,30.28,30.28,0,0,0,1.64,9c1.1,3.46,2.24,5.79,3.42,7,.34.68,1.05,2.12,2.15,4.31a42,42,0,0,0,3.93,6.33q5.06,11.38,5.06,17.72,0,7.35-5.7,10.63t-17.84,3.29A30.12,30.12,0,0,1,315.15,180.23Z" fill="none"/>
    </clipPath>
    <clipPath id="Kyosuke-clip-path-5">
      <path id="Kyosuke_u_clip" d="M451,184.53a22.1,22.1,0,0,1-5.7-5.31,16.2,16.2,0,0,1-2.4-6.84q-.39-3.54-.38-14.68c0-1.69-.34-2.53-1-2.53-.51,0-1.69.8-3.55,2.4s-4.14,3.76-6.83,6.46a80.66,80.66,0,0,1-12.16,9.87q-5.56,3.54-9.11,3.29-2.79,0-5.95-3.8a28.19,28.19,0,0,1-4.94-8.86,29.73,29.73,0,0,1-.76-7.09q0-10.63,4.43-25.82A135.14,135.14,0,0,1,413,105.42q6-11,10.51-11,3.79,0,7.09,8.35a5.92,5.92,0,0,1,.76,2.53,4.88,4.88,0,0,1-2,3.54q-3.79,4.82-8.86,17.22a202.88,202.88,0,0,0-8,23c-1.95,7.09-2.32,10.63-1.14,10.63,2.36,0,5.15-.92,8.35-2.78a51.85,51.85,0,0,0,9.62-7.35,75.07,75.07,0,0,0,8.61-10.25q3.79-5.44,9.37-14.81,10.63-16.95,11.64-19.74a84,84,0,0,1,5.45-9.25,8.1,8.1,0,0,1,4.17-2.91h3.55a7.28,7.28,0,0,1,3.54,2.28,3.87,3.87,0,0,1,2.15,1.65,6.08,6.08,0,0,1,.38,2.4l-4.05,9.37-2.27,5.32a46.57,46.57,0,0,1-2.79,5.82q-5.82,12.92-8.86,20.76a88.9,88.9,0,0,0-4.56,16.2,25,25,0,0,0-.25,4.3q0,7.61,1.52,10.64a22,22,0,0,0,4.56,6.58,2.75,2.75,0,0,1,1.26,2q0,1.78-2.91,3.55c-1.94,1.18-3.33,1.77-4.18,1.77Q453.88,186.3,451,184.53Z" fill="none"/>
    </clipPath>
    <clipPath id="Kyosuke-clip-path-6">
      <path id="Kyosuke_k2_clip" d="M551.1,187.06a21.24,21.24,0,0,1-9.62-2,30,30,0,0,1-2.92-2.53A21.79,21.79,0,0,1,535.4,179L526,169.09q-1.26-2.53-9.87-11.14a46.13,46.13,0,0,0-5.19-5.7c-1.61-1.43-2.75-2.15-3.42-2.15L499.45,178a24.63,24.63,0,0,1-3.29,4.81,4.14,4.14,0,0,1-3,1.27,6.13,6.13,0,0,1-5.06-2.66,11.57,11.57,0,0,1-2-7.22q-2-7.34,13.42-45.82A59.35,59.35,0,0,1,502,120.1c1.18-3.12,2-5.35,2.53-6.71q4-12.9,13.93-35.95L523,67.06q4.31-8.85,9.37-18.48,13.41-24.81,17-28.86a6.74,6.74,0,0,1,9.62,0q2.53,3,2.54,5.32,0,4.31-6.33,14.43-2.79,5.82-5.07,9.62a69.34,69.34,0,0,0-4.81,8.1c-1.18,3.38-2.45,5.06-3.79,5.06-.18.85-.47,2-.89,3.29a25.71,25.71,0,0,1-1.65,4,38.71,38.71,0,0,1-2.53,6.08,47.34,47.34,0,0,0-2.28,5.06c-.34.68-.8,1.69-1.39,3a50,50,0,0,1-2.66,5.06q-7.08,14.7-7.85,18.23a.23.23,0,0,0,.26.26,5.23,5.23,0,0,0,2-1c1-.67,1.86-1.26,2.53-1.77A119.52,119.52,0,0,1,541,95.16c5.23-3,9.28-4.81,12.15-5.31a21,21,0,0,1,6.08-1,12.43,12.43,0,0,1,5.06,1q5.82,3.54,7.6,12.4,0,4.06-3.93,13t-7.21,11.77a14.81,14.81,0,0,0-2.66,1.4,10.21,10.21,0,0,0-1.14.88,5.59,5.59,0,0,1-1,2.66,6,6,0,0,1-2.79,2.41c-2.37,2.36-3.54,4-3.54,4.8v1.27c-.51,0-1.57.59-3.17,1.77L542,145.54c-1.86,1.86-3.33,3-4.43,3.3s-2,.59-2.66.75a6.27,6.27,0,0,1-2.15,1.14c-1.1.43-1.64.89-1.64,1.4q0,1.77,8.22,11t11.27,11.27a8.22,8.22,0,0,1,3.8,3.92,12.06,12.06,0,0,1,1.26,5.19,9,9,0,0,1-.5,2.78C554.64,186.81,553.29,187.06,551.1,187.06Zm-11.27-57.59q10.75-9,13.29-12.28a16.65,16.65,0,0,0,3-4.94,15.11,15.11,0,0,0,1.52-6,4.48,4.48,0,0,0-.51-2q-.51-1.26-14.43,5.82a125.69,125.69,0,0,0-16.2,11.39q-8.35,6.84-11.9,12.66-.76,2.53,1.77,5.19a7.84,7.84,0,0,0,5.82,2.66,4.76,4.76,0,0,0,2.54-.51Q529.06,138.46,539.83,129.47Z" fill="none"/>
    </clipPath>
    <clipPath id="Kyosuke-clip-path-7">
      <path id="Kyosuke_e_clip" d="M588.56,171.24q-3.28-5.19-3.29-14.56a86.44,86.44,0,0,1,.76-10.63l.51-9.11a9.85,9.85,0,0,0-.51-3.55,7.91,7.91,0,0,0-2.28-2.78l-2.53-2.53c-1.35-1.35-1.94-2.45-1.77-3.29l-.26-1.27a8.32,8.32,0,0,1,.64-3.29c.42-1,.88-1.52,1.39-1.52a7.65,7.65,0,0,0,2-.38,4.37,4.37,0,0,1,2.27-.13c2.37,0,3.55.51,3.55,1.52q1,2,3.42.38c1.6-1.09,3.16-3.25,4.68-6.45a58,58,0,0,1,10.51-11.78,69.93,69.93,0,0,1,11.52-8.73,22.09,22.09,0,0,1,5.82-1.9,33.8,33.8,0,0,1,7.09-.89,15.36,15.36,0,0,1,8,2,32.15,32.15,0,0,1,7,5.82q4.82,3.55,4.81,11.14a26.15,26.15,0,0,1-2.53,10.89q-1,3.8-8,9.62a48.17,48.17,0,0,1-12.79,8.1,67.12,67.12,0,0,1-16.2,1.77c-4.05,0-6.67-.33-7.85-1q-3-1.77-4.3,13.67a35.4,35.4,0,0,0-.26,4.81,15.37,15.37,0,0,0,1.27,6.84q.25.25,1.77,1.89a13,13,0,0,0,3.8,2.79,10.61,10.61,0,0,0,4.81,1.14,9.75,9.75,0,0,0,3.54-.51,13.68,13.68,0,0,0,5.32-2.91q2.53-2.15,7.09-6.71c2.7-2.7,4.64-4.55,5.82-5.57q1.26-2.28,5.07-2.28a21.26,21.26,0,0,1,3.54.51,4.92,4.92,0,0,1,2.28,3.8c0,1.35-.85,3.88-2.53,7.59-.85,1.69-2.91,4-6.21,7a79.66,79.66,0,0,1-8.73,7,32.39,32.39,0,0,1-15.7,4.3A33.55,33.55,0,0,1,600,179.72Q591.85,176.44,588.56,171.24Zm33.67-44.18a16,16,0,0,0,8-3.41c2.11-1.78,4.59-4.85,7.47-9.24a11.62,11.62,0,0,0,.76-4.06q0-3.8-1.52-5.31a5.61,5.61,0,0,0-4-1.77c-2.37,0-4.81,1-7.35,3q-2.53.77-7.46,5.57a85.4,85.4,0,0,0-8.49,9.5Q606,126,607.3,126.81c-.34.51.5.89,2.53,1.14a42.7,42.7,0,0,0,5.06.38C616.58,128,619,127.57,622.23,127.06Z" fill="none"/>
    </clipPath>
    <clipPath id="Kyosuke-clip-path-8">
      <path id="Kyosuke_h_clip" d="M731.34,206.05a10.27,10.27,0,0,0-3.29-.51,8.56,8.56,0,0,1-4.93-3.29,9.42,9.42,0,0,1-1.9-5.82,11.91,11.91,0,0,1,.25-2.78c.51-.51,1-1.82,1.39-3.93a29.55,29.55,0,0,0,.64-5.69,21.8,21.8,0,0,0,1.26-3.17c.34-1.09.76-2.66,1.27-4.68q2-11.15,9.36-37.47t9.12-28.1v-2.79a17.21,17.21,0,0,1,.5-3,13.86,13.86,0,0,1,2.28-4.82A60.4,60.4,0,0,0,748.94,94c.42-1.94.71-3.42.88-4.44q1-1.26,3.42-7.59l3.17-8.35q1.77-4.82,4.43-11.27t3.67-8.48V52.63a33.44,33.44,0,0,0,2.66-5.19q2.15-4.68,3.67-8,1.77-4,9.36-21A36.14,36.14,0,0,1,782.61,14c1.1-1.77,1.64-3,1.64-3.67a3.75,3.75,0,0,1,3.55-1.77,8.28,8.28,0,0,1,4.68,1.65,11,11,0,0,1,3.67,4.17l2.54,4.06-9.12,18.22q-3.8,6.59-6.58,12.66c-1.86,4-2.79,6.42-2.79,7.09q-1,2.53-3.92,10.38T771.6,80.23q-1.27,3.8-3,8c-1.18,2.79-2,4.77-2.53,6a32.44,32.44,0,0,0-2,5.06q0-1,30.38-1,4.82,0,17.09-.25a150.52,150.52,0,0,0,15.32-.76L840,95.92l8.61-26.07Q851.08,61,859.7,35.42q3.79-10.89,6.07-14a6.71,6.71,0,0,1,5.57-3.17A9.55,9.55,0,0,1,875,19.34a6,6,0,0,1,3.17,2.91A8.22,8.22,0,0,1,881,28.08q0,3.54-4.05,9.87-3,5.31-8.6,20-2.28,6.84-2.79,7.85c0,3.54-.85,6.16-2.53,7.85-.68.67-1.86,3.08-3.54,7.21s-2.54,6.54-2.54,7.22a14.72,14.72,0,0,1-.76,4.43,8.43,8.43,0,0,1-1.77,3.41L852.61,102q-8.86,32.16-13.92,44.56a15.79,15.79,0,0,1-1.27,4.55,15.57,15.57,0,0,0-1.27,4.56c-.34,1.18-1.1,3.55-2.27,7.09a34.34,34.34,0,0,0-1.78,6.33q-.51,2.79-2,8.86-3.8,17.2-3.8,18.73a2.07,2.07,0,0,1-1.52.51,10.63,10.63,0,0,1-3.16-.76,32.16,32.16,0,0,1-3.17-1.26q-6.07-3.3-6.07-7.6c0-1.86.76-4.3,2.27-7.34q.76-1.26,4.82-16.46l2.27-9.36q1.53-4,6.84-24.06,4.31-15.43,4.81-15.94v-2.54q-.76-1.26-18.48-1.26a306.45,306.45,0,0,0-36.71,2H759.7q-1.28,2.79-7.72,23.42T744.76,162q-1.77,8.35-5.57,23.17t-5.82,21.64A18.64,18.64,0,0,0,731.34,206.05Z" fill="none"/>
    </clipPath>
    <clipPath id="Kyosuke-clip-path-9">
      <path id="Kyosuke_i_clip" d="M870.07,167.57a13.41,13.41,0,0,1,1.27-6.08,11.24,11.24,0,0,1,.51-3,11.74,11.74,0,0,0,.5-2.28q-.26-1.52,2-8.36,4.56-10.12,12.15-35.69a2.79,2.79,0,0,1,1-2.16,5.72,5.72,0,0,1,3-1.14,14.37,14.37,0,0,1,2.79-.5,3.63,3.63,0,0,1,2.65,1.14,29.74,29.74,0,0,1,3.17,4.18,6.19,6.19,0,0,1,1.52,4.55q0,4.81-3.29,11.65a59,59,0,0,0-4.31,12.66,110.81,110.81,0,0,0-4.81,12.66c-.34,1-.84,3-1.52,6.07a22.85,22.85,0,0,1-2.78,7.34,53.9,53.9,0,0,1-2.79,9.88c-.84,1.86-1.77,2.78-2.78,2.78-1.18,0-2.79-1.18-4.81-3.54Q870.07,174.15,870.07,167.57Zm25.07-98.74c-.85-2.86-.85-4.3,0-4.3q2-.24,4.68-4.43t2.41-7a2.86,2.86,0,0,1,.76-1.9,3.36,3.36,0,0,1,1.77-1.14,7,7,0,0,1,3.54-1.27q4.31,0,7.85,6.08a14.29,14.29,0,0,1,1.52,5.82,10,10,0,0,1-1.27,4.69,35.9,35.9,0,0,1-4.55,6.2q-4.3,5.82-8.1,5.82-2.54,0-5.57-2.53C897,73.73,896,71.71,895.14,68.83Z" fill="none"/>
    </clipPath>
    <clipPath id="Kyosuke-clip-path-10">
      <path id="Kyosuke_g_clip" d="M992.1,115.16a12.13,12.13,0,0,1-3,7.6,46,46,0,0,1-2.78,3.92,43,43,0,0,0-3.55,5.45,23.55,23.55,0,0,0-2.28,6.33q-1,5.82-6.07,24.81l-2.79,9.87-4.05,15.7q-11.38,39.24-22.78,45.31a17.53,17.53,0,0,1-6.33,1.27,22,22,0,0,1-11.52-3.67,34,34,0,0,1-10.25-10q-2.53-3.56-4.94-11.27t-.89-8.73a2.47,2.47,0,0,1,1.78-.51,7.81,7.81,0,0,1,3.79,1.14,5.09,5.09,0,0,1,2.53,2.66,33.39,33.39,0,0,0,4.31,7.34c2.19,3,3.8,4.64,4.81,4.81a16,16,0,0,0,6.83,2,7.11,7.11,0,0,0,4.31-1.52,29.29,29.29,0,0,0,7-8.48q2.91-5.21,6.46-16.59l2-7.34q6.07-22.28,8.86-28.86A34.94,34.94,0,0,1,966,150.1l-4.55,4.05q-3,2.79-6.33,5.32a31.71,31.71,0,0,1-6.84,4.05c-1.18,1.52-4.14,2.28-8.86,2.28a35.2,35.2,0,0,1-10.13-1.52c-3.54-1.86-5.74-3.29-6.58-4.31s-2-3.37-3.54-7.08a14.79,14.79,0,0,1-1-6.33q0-10.89,5.07-23.29,4.8-9.88,15.19-21t18-13.42A12.63,12.63,0,0,1,962,87.32a18.58,18.58,0,0,1,5.83,1,18,18,0,0,1,6.33,1.77,58.47,58.47,0,0,1,7.59,5.82,38,38,0,0,1,8.86,13.42A13.08,13.08,0,0,1,992.1,115.16Zm-23.29,6.71a39.73,39.73,0,0,0,1.26-13.29,13.2,13.2,0,0,0-1-4.93,2.88,2.88,0,0,0-2.78-1.4q-4.81,0-11.14,4.56A62,62,0,0,0,943,118.71a45.45,45.45,0,0,0-6.33,12.15,48.09,48.09,0,0,0-3,15.95q0,5.56,2,6.33A26.9,26.9,0,0,0,950,148.58q6.45-4.31,12.78-14.17A36.74,36.74,0,0,0,968.81,121.87Z" fill="none"/>
    </clipPath>
    <clipPath id="Kyosuke-clip-path-11">
      <path id="Kyosuke_u2_clip" d="M1062.86,184.53a22.1,22.1,0,0,1-5.7-5.31,16.2,16.2,0,0,1-2.4-6.84q-.39-3.54-.38-14.68c0-1.69-.34-2.53-1-2.53-.51,0-1.69.8-3.55,2.4s-4.14,3.76-6.83,6.46a80.66,80.66,0,0,1-12.16,9.87q-5.57,3.54-9.11,3.29-2.79,0-6-3.8a28.19,28.19,0,0,1-4.94-8.86,29.73,29.73,0,0,1-.76-7.09q0-10.63,4.43-25.82a135.14,135.14,0,0,1,10.38-26.2q6-11,10.51-11,3.79,0,7.09,8.35a5.92,5.92,0,0,1,.76,2.53,4.88,4.88,0,0,1-2,3.54q-3.8,4.82-8.86,17.22a202.88,202.88,0,0,0-8,23c-2,7.09-2.32,10.63-1.14,10.63,2.36,0,5.14-.92,8.35-2.78a52.18,52.18,0,0,0,9.62-7.35,75.07,75.07,0,0,0,8.61-10.25q3.79-5.44,9.37-14.81,10.63-16.95,11.64-19.74a84,84,0,0,1,5.45-9.25,8.06,8.06,0,0,1,4.17-2.91H1084a7.28,7.28,0,0,1,3.54,2.28,3.87,3.87,0,0,1,2.15,1.65,6.08,6.08,0,0,1,.38,2.4l-4,9.37-2.27,5.32a46.57,46.57,0,0,1-2.79,5.82q-5.82,12.92-8.86,20.76a88.11,88.11,0,0,0-4.56,16.2,25,25,0,0,0-.25,4.3q0,7.61,1.52,10.64a22,22,0,0,0,4.56,6.58,2.75,2.75,0,0,1,1.26,2q0,1.78-2.91,3.55c-1.94,1.18-3.34,1.77-4.18,1.77Q1065.77,186.3,1062.86,184.53Z" fill="none"/>
    </clipPath>
    <clipPath id="Kyosuke-clip-path-12">
      <path id="Kyosuke_c_clip" d="M1117.92,179.09a18,18,0,0,1-5.82-3.92,29.45,29.45,0,0,0-5.07-7.6,26.1,26.1,0,0,1-1-8.35,69.8,69.8,0,0,1,1.52-13.8,87.37,87.37,0,0,1,4-14,37.48,37.48,0,0,0,1.65-3.8c.42-1.18.71-1.94.88-2.28q0-1.77,6.46-11t10.25-12.79a24.37,24.37,0,0,1,5.45-4.3,35.83,35.83,0,0,1,6.45-3.29,37.58,37.58,0,0,1,12.41-2.53q7.33,0,12.4,6.83,5.57,5.58,5.57,12.41a23,23,0,0,1-.76,5.57q-2.53,10.13-7.34,10.12c-2.2,0-4.3-1.26-6.33-3.79a12,12,0,0,1-1-3.3,24.68,24.68,0,0,1,1-4.3,21.12,21.12,0,0,0,.51-3.54,12.91,12.91,0,0,0-1-5.32c-.67-1.52-1.6-2.28-2.78-2.28q-5.84,0-15.19,10.13a99.89,99.89,0,0,0-8.48,11.14,77.65,77.65,0,0,0-7.72,13.67q-2.54,7.59-4,12.4c-1,3.21-1.69,5.24-2,6.08a4.9,4.9,0,0,0,.63,1.77,5,5,0,0,1,.64,2,4.5,4.5,0,0,0,.76,2.78,7.68,7.68,0,0,0,2.78,2,10.89,10.89,0,0,0,6.58,2,22.29,22.29,0,0,0,9.37-2.53q3.28-1.51,9.37-6.58l6.07-4.56c1.18-.84,2.24-1.56,3.17-2.15s1.64-1,2.15-1.27.76-.21.76.13c0,.68.25,1,.76,1a2.77,2.77,0,0,0,1.77-1,7,7,0,0,1,5.82-3c1.35,0,2,.26,2,.76l-.25,1.27a3.65,3.65,0,0,0,1.26,2.53A7.89,7.89,0,0,1,1171,155a7.45,7.45,0,0,1-1.65,2.66,29.22,29.22,0,0,1-5.19,5.44q-3.67,3.17-4.93,4.18h-.26q-1.26,0-3.54,2.28c-2.53,2.36-4.73,3.54-6.58,3.54l-2.28,1.14c-.85.42-1.27.89-1.27,1.39a12.81,12.81,0,0,1-6.07,3.42,49,49,0,0,1-10.89.88Q1120.46,180,1117.92,179.09Z" fill="none"/>
    </clipPath>
    <clipPath id="Kyosuke-clip-path-13">
      <path id="Kyosuke_h2_clip" d="M1273.11,181.24a7,7,0,0,1-3.42-.89,19.25,19.25,0,0,1-4.17-3.41q-.76-1-2.66-3.67a18.46,18.46,0,0,1-2.79-5.83,30.16,30.16,0,0,1-.88-8q0-3.54.25-6.08c.17-1.68.34-3,.51-4l.5-7.34a64.11,64.11,0,0,0,1.77-13.92q0-6.84-1.77-6.84-3.79-.76-16.71,11.27a392.57,392.57,0,0,0-28.1,29.49l-4.56,6.58q-.51.76-2.53,3.55c-1.35,1.86-2.28,2.78-2.78,2.78-1.86.17-4.39-.71-7.6-2.66s-4.89-3.67-5.06-5.19q0-1.51,3.92-14.05t6.21-19.62l11.14-32.91q2-6.33,7.34-19l4.81-12.4,3-7.6,11.64-30.88v-1c0-2.86.59-4.89,1.77-6.07l3.55-.25c0-.34.67,0,2,1.13a34.05,34.05,0,0,1,3.93,3.8c1.26,1.44,1.9,2.58,1.9,3.42a10.3,10.3,0,0,1,.76,4.05q0,5.82-5.83,20-2.28,3.3-6.83,16-2.54,7.09-3.8,9.87-3,5.58-10.51,22.92a224.65,224.65,0,0,0-10.5,28.48c-1.36,3.2-2,5.57-2,7.08,0,.85.25,1.27.76,1.27q1.77,0,5.57-4.81,15.94-17,25.57-25.57t15.44-8.1c2,.51,4.52,2.4,7.47,5.7a32.16,32.16,0,0,1,6.21,9.49,39.69,39.69,0,0,1,1.51,10.38q0,4.3-.76,15.7l-.5,5.82q-2,12.66-2,14.68a6.34,6.34,0,0,0,.64,3.29,14.14,14.14,0,0,0,2.65,2.79q4,3.28,4,5.57,0,2-3.54,4A19.74,19.74,0,0,1,1273.11,181.24Z" fill="none"/>
    </clipPath>
    <clipPath id="Kyosuke-clip-path-14">
      <path id="Kyosuke_i_clip-2" data-name="Kyosuke_i_clip" d="M1308.3,172.89c-.85-.34-1.44-.59-1.77-.76a10.21,10.21,0,0,0-.64-2.66,11,11,0,0,1-.63-2.41c-1.35-.67-2-1.52-2-2.53A12,12,0,0,1,1304,161q3.29-5.82,11.64-26.46T1325,110.1a5.92,5.92,0,0,1,.76-2.53,9.33,9.33,0,0,1,1.77-2.53,3.15,3.15,0,0,1,2.28-1q2.78,0,5.19,3.79a15.34,15.34,0,0,1,2.4,8.36q0,3-5.69,17.34t-12.79,28.73c-.67,1.36-1.64,3.29-2.91,5.83s-2.24,4-2.91,4.55a4.54,4.54,0,0,1-2.78.76A5.73,5.73,0,0,1,1308.3,172.89Zm29.49-100.64q-4.93-5.18-4.93-10.76,0-1.26,3-5.82c2-3,3-4.72,3-5.06a15.73,15.73,0,0,1,3,.25,16.48,16.48,0,0,1,3,1,40.43,40.43,0,0,0,7.09,10.38c1,1.36,1.94,2.62,2.78,3.8a5.63,5.63,0,0,1,1.27,3,29,29,0,0,1-.38,5.82,2.76,2.76,0,0,1-2,2,24.79,24.79,0,0,1-6.2.5Q1342.73,77.44,1337.79,72.25Z" fill="none"/>
    </clipPath>
  </defs>
  <desc id="kyosuke_name_description">Name: Kyosuke Higuchi</desc>
  <g id="Kyosuke_name">
    <g id="Kyosuke_k_mask">
      <g clip-path="url(#Kyosuke-clip-path)">
        <path id="Kyosuke_k" d="M83.5,8.5l-72,197c3.25-72.95,62.3-132,156-183l-115,86c10.08,45.93,31.89,78.05,70,91" fill="none" stroke="#000" stroke-width="24"/>
      </g>
    </g>
    <g id="Kyosuke_y_mask">
      <g clip-path="url(#Kyosuke-clip-path-2)">
        <path id="Kyosuke_y" d="M150,79c-2.07,52.44,1.6,90.69,19,95l46-92C172.09,190.56,130.51,256.17,92,223" fill="none" stroke="#000" stroke-width="21"/>
      </g>
    </g>
    <g id="Kyosuke_y_mask-2" data-name="Kyosuke_y_mask">
      <g clip-path="url(#Kyosuke-clip-path-3)">
        <path id="Kyosuke_o" data-name="Kyosuke_y" d="M291.5,113.5c-5.31-11.48-12.57-17-22-16-16,9.36-30.82,25.92-44,52,0,15.79,5.15,25.2,18,25C265.63,167.4,281.25,146.25,291.5,113.5Z" fill="none" stroke="#000" stroke-width="23"/>
      </g>
    </g>
    <g id="Kyosuke_s_mask">
      <g clip-path="url(#Kyosuke-clip-path-4)">
        <path id="Kyosuke_s" d="M372.5,123.5l7-31c-13.72-6.4-31.76,3.3-53,25l21,51c-4.22,9.46-12.85,12-25,9l-23-17" fill="none" stroke="#000" stroke-width="22"/>
      </g>
    </g>
    <g id="Kyosuke_u_mask">
      <g clip-path="url(#Kyosuke-clip-path-5)">
        <path id="Kyosuke_u" d="M430,90c-20,36.32-34,68.1-20,79,28.47-9.43,49-43.87,68-83-29,47.21-38.54,84-15,103" fill="none" stroke="#000" stroke-width="20"/>
      </g>
    </g>
    <g id="Kyosuke_k2_mask">
      <g clip-path="url(#Kyosuke-clip-path-6)">
        <path id="Kyosuke_k2" d="M563,11c-35.58,61.17-63.77,120.47-77,176,15.12-52.36,40.2-84.22,77-92,1.74,30.13-24.81,64.41-56.5,44.5L559,190" fill="none" stroke="#000" stroke-width="23"/>
      </g>
    </g>
    <g id="Kyosuke_e_mask">
      <g clip-path="url(#Kyosuke-clip-path-7)">
        <path id="Kyosuke_e" d="M575.5,117.5c15.83,8.88,31.53,15.74,47,19,13.83-8,23.14-16.83,26-27-4.52-11-11.1-14.79-19-14-26,19-47.23,39.79-34,74,16.83,14.68,36.09.25,56-22" fill="none" stroke="#000" stroke-width="21"/>
      </g>
    </g>
    <g id="Kyosuke_h_mask">
      <g clip-path="url(#Kyosuke-clip-path-8)">
        <path id="Kyosuke_h" d="M798.5,3.5q-49.5,96.5-77,207l33-107c26.68,2.64,56,1.89,87-1l39-88c-14.18,30.66-16.65,9.39-66,196" fill="none" stroke="#000" stroke-width="21"/>
      </g>
    </g>
    <g id="Kyosuke_i_mask">
      <g clip-path="url(#Kyosuke-clip-path-9)">
        <path id="Kyosuke_i1" d="M900.5,103.5c-13.54,25.78-24.37,52.75-30,82" fill="none" stroke="#000" stroke-width="22"/>
        <path id="Kyosuke_i2" d="M917.5,44.5a105.91,105.91,0,0,1-23,38" fill="none" stroke="#000" stroke-width="24"/>
      </g>
    </g>
    <g id="Kyosuke_g_clip-2" data-name="Kyosuke_g_clip">
      <g clip-path="url(#Kyosuke-clip-path-10)">
        <path id="Kyosuke_g" d="M981,113c-.54-11.68-9.13-17.11-21-20-24.06,11.76-29.73,34.26-35,57,3.19,6.27,7.31,10.9,14,11,17-8.55,33.45-28.53,47.5-61.5-11.88,46.2-25.45,95.14-43,127-13.56,2.91-25.71-8.32-37-28" fill="none" stroke="#000" stroke-width="22"/>
      </g>
    </g>
    <g id="Kyosuke_u2_clip-2" data-name="Kyosuke_u2_clip">
      <g clip-path="url(#Kyosuke-clip-path-11)">
        <path id="Kyosuke_u2" d="M1043,95c-18.45,26.89-29.09,52.22-22,74,22.51-8.68,46.68-42.67,71-79-31.58,43.13-39.83,76.72-18,98" fill="none" stroke="#000" stroke-width="21"/>
      </g>
    </g>
    <g id="Kyosuke_c_clip-2" data-name="Kyosuke_c_clip">
      <g clip-path="url(#Kyosuke-clip-path-12)">
        <path id="Kyosuke_c" d="M1162.5,127.5c3.3-10.49,3.66-20.54,0-30-27.64-.13-43.91,25.35-53,67,8.94,6,17.55,11.1,24,10,14.14-4,30-16.7,46-30" fill="none" stroke="#000" stroke-width="20"/>
      </g>
    </g>
    <g id="Kyosuke_h2_mask">
      <g clip-path="url(#Kyosuke-clip-path-13)">
        <path id="Kyosuke_h2" d="M1251,19c-10.65,39.42-32.37,98.52-56,161,20.41-32.19,44.43-54.19,71-69-.37,45.14,5.31,66.07,14,75" fill="none" stroke="#000" stroke-width="25"/>
      </g>
    </g>
    <g id="Kyosuke_i_mask-2" data-name="Kyosuke_i_mask">
      <g clip-path="url(#Kyosuke-clip-path-14)">
        <path id="Kyosuke_i3" d="M1337.5,102.5c-9.6,31.53-20.4,57.77-33,76" fill="none" stroke="#000" stroke-width="22"/>
        <path id="Kyosuke_i4" d="M1328.5,46.5c10.59,10.12,19.72,20.91,26,33" fill="none" stroke="#000" stroke-width="23"/>
      </g>
    </g>
  </g>
</svg>
