<svg xmlns="http://www.w3.org/2000/svg" xmlns:xlink="http://www.w3.org/1999/xlink" width="220" height="400" viewBox="0 0 220 400" aria-labelledby="l_name_description">
  <defs>
    <clipPath id="L-clip-path">
      <path d="M29.71,333.07q-15.08-13.89-19.32-29.45A239.89,239.89,0,0,1,8.5,272.05q0-11.31,1.41-12.72,1.41-.94,1.41-5.65-.48-2.83,3.3-15.55,3.29-8.48,1.88-14.61l1.65-3.3a26.52,26.52,0,0,1,3.06-4.71,8.08,8.08,0,0,0,2.59-4.95,7.53,7.53,0,0,0-.24-3.53v-.47a14.62,14.62,0,0,1,1.18-4.95,20.53,20.53,0,0,1,2.59-4.95,14.38,14.38,0,0,0,2.59-3.77l1.65-3.3q.46-3.29,7.3-21t9.19-21.44v-.94a60.19,60.19,0,0,1,5.18-9.89q.94-6.59,6.6-18.38,10.83-24,30.39-55.36t30.86-42.17a50.17,50.17,0,0,1,7.77-7.3A10.41,10.41,0,0,1,134.78,11q4.24,0,10.84,6.6,5.65,5.65,5.65,15.08c0,3.46-.63,5.18-1.88,5.18q-6.13,4.24-24.5,30.63A521.17,521.17,0,0,0,95.2,115.62q-6.13,13.2-10.6,22.15l-5.89,11.78-1.88,4.24q-11.31,24-21.2,51.83a14.14,14.14,0,0,0-3.06,5.89,23.56,23.56,0,0,0-.71,4c-.63-.31-1.18.55-1.65,2.59a37.1,37.1,0,0,1-1.65,5.42q-3.3,2.83-3.3,13.67-5.19,12.72-8.48,32T34.42,298q1.88,15.55,25.92,25,10.83,4.24,16,4.24a39.76,39.76,0,0,0,10.13-.47q6.82-.94,15.78-2.36h-.47q2.35-.46,25.92-5.65a84.24,84.24,0,0,0,18.85-4.24q14.14-4.24,18.38-4.24c1.88,0,3.14.32,3.77.94a8.54,8.54,0,0,1,3.77,7.07l-.94,4.24q-1.41,3.78-15.08,11.31a134.08,134.08,0,0,1-26.39,11.31,106.76,106.76,0,0,1-22.85,6.6A141.17,141.17,0,0,1,82,354q-12.72,0-18.85-2.36A77.31,77.31,0,0,1,29.71,333.07Z" fill="none"/>
    </clipPath>
  </defs>
  <desc id="l_name_description">Name: L</desc>
  <g id="L_name">
    <g id="L_mask">
      <g clip-path="url(#L-clip-path)">
        <path id="L" d="M157.5,11.5C94.41,79.71,44,168.81,17.5,297.5c10,25.46,30,38,55,44,33.32-.4,78.89-13,131-32" fill="none" stroke="#000" stroke-width="33"/>
      </g>
    </g>
  </g>
</svg>
