<svg xmlns="http://www.w3.org/2000/svg" xmlns:xlink="http://www.w3.org/1999/xlink" width="1368" height="359" viewBox="0 0 1368 359" aria-labelledby="light_name_description">
  <defs>
    <clipPath id="Light-clip-path-1">
      <path id="L" d="M20,254.64q-9.85-9.07-12.61-19.22a156.58,156.58,0,0,1-1.23-20.61q0-7.38.92-8.3.92-.61.92-3.69-.31-1.84,2.15-10.15,2.15-5.54,1.23-9.53L12.44,181a17.35,17.35,0,0,1,2-3.08,5.28,5.28,0,0,0,1.69-3.23,4.91,4.91,0,0,0-.15-2.31v-.31a9.55,9.55,0,0,1,.77-3.23,13.38,13.38,0,0,1,1.69-3.23,9.39,9.39,0,0,0,1.69-2.46L21.21,161q.3-2.15,4.77-13.69t6-14v-.62a39.3,39.3,0,0,1,3.38-6.46q.61-4.3,4.31-12A313.29,313.29,0,0,1,59.5,78.1Q72.26,57.65,79.65,50.57a32.73,32.73,0,0,1,5.07-4.77,6.79,6.79,0,0,1,3.84-1.38q2.77,0,7.07,4.31a13.3,13.3,0,0,1,3.69,9.84c0,2.26-.41,3.38-1.23,3.38q-4,2.77-16,20A340.06,340.06,0,0,0,62.73,112.7q-4,8.61-6.92,14.46L52,134.84l-1.23,2.77Q43.35,153.3,36.9,171.44a9.24,9.24,0,0,0-2,3.84,15.4,15.4,0,0,0-.46,2.61c-.41-.2-.77.36-1.08,1.69a24.22,24.22,0,0,1-1.08,3.54q-2.16,1.85-2.15,8.92A101.24,101.24,0,0,0,24.59,213q-2.16,12.62-1.54,18.76Q24.28,241.88,40,248,47,250.8,50.43,250.8a25.91,25.91,0,0,0,6.61-.31q4.45-.61,10.3-1.54H67q1.54-.3,16.92-3.69a55,55,0,0,0,12.3-2.77q9.23-2.77,12-2.77a3.58,3.58,0,0,1,2.46.62,5.57,5.57,0,0,1,2.46,4.61l-.62,2.77q-.92,2.47-9.84,7.38a87.52,87.52,0,0,1-17.22,7.38,69.7,69.7,0,0,1-14.92,4.31,92.12,92.12,0,0,1-16.46,1.54q-8.3,0-12.3-1.54A50.46,50.46,0,0,1,20,254.64Z" fill="none"/>
    </clipPath>
    <clipPath id="Light-clip-path-2">
      <path id="I" d="M139,233a16.32,16.32,0,0,1,1.54-7.38,13.69,13.69,0,0,1,.62-3.69,13.86,13.86,0,0,0,.62-2.77q-.31-1.84,2.46-10.15,5.54-12.3,14.76-43.37a3.35,3.35,0,0,1,1.23-2.61,6.81,6.81,0,0,1,3.69-1.38,17,17,0,0,1,3.38-.62,4.43,4.43,0,0,1,3.23,1.38,36.77,36.77,0,0,1,3.84,5.07q1.84,1.85,1.85,5.54,0,5.85-4,14.15A71.47,71.47,0,0,0,167,202.51a134.55,134.55,0,0,0-5.84,15.38q-.62,1.84-1.85,7.38a28.06,28.06,0,0,1-3.38,8.92,66.43,66.43,0,0,1-3.38,12q-1.54,3.39-3.38,3.38-2.16,0-5.84-4.31Q139,241,139,233Zm30.45-120q-1.54-5.23,0-5.23,2.46-.3,5.69-5.38t2.92-8.46a3.5,3.5,0,0,1,.92-2.31,4.14,4.14,0,0,1,2.15-1.38,8.47,8.47,0,0,1,4.31-1.54q5.23,0,9.53,7.38a17.28,17.28,0,0,1,1.85,7.07,12.19,12.19,0,0,1-1.54,5.69,43.87,43.87,0,0,1-5.54,7.54q-5.23,7.08-9.84,7.07-3.08,0-6.77-3.08Q171,118.24,169.46,113Z" fill="none"/>
    </clipPath>
    <clipPath id="Light-clip-path-3">
      <path id="G" d="M287.25,169.29q0,4.61-3.69,9.23-.92,1.54-3.38,4.77a51.82,51.82,0,0,0-4.31,6.61,28.45,28.45,0,0,0-2.77,7.69q-1.23,7.08-7.38,30.14l-3.38,12-4.92,19.07q-13.84,47.67-27.68,55.06a21.43,21.43,0,0,1-7.69,1.54q-6.77,0-14-4.46a41.29,41.29,0,0,1-12.46-12.15q-3.08-4.31-6-13.69t-1.08-10.61a3,3,0,0,1,2.15-.62,9.49,9.49,0,0,1,4.61,1.38,6.17,6.17,0,0,1,3.08,3.23,40.13,40.13,0,0,0,5.23,8.92q4,5.54,5.84,5.84a19.45,19.45,0,0,0,8.3,2.46,8.57,8.57,0,0,0,5.23-1.85,35.49,35.49,0,0,0,8.46-10.3q3.53-6.31,7.84-20.15l2.46-8.92q7.38-27.06,10.76-35.06a42.16,42.16,0,0,1,3.08-7.69L250,216.66q-3.69,3.39-7.69,6.46A38.48,38.48,0,0,1,234,228q-2.16,2.77-10.77,2.77A42.6,42.6,0,0,1,211,229q-6.46-3.38-8-5.23t-4.31-8.61q-1.23-2.46-1.23-7.69,0-13.22,6.15-28.3,5.84-12,18.45-25.53t21.84-16.3a15.3,15.3,0,0,1,6.77-1.85,22.45,22.45,0,0,1,7.07,1.23,21.72,21.72,0,0,1,7.69,2.15,69.36,69.36,0,0,1,9.23,7.07,46.16,46.16,0,0,1,10.77,16.3A15.82,15.82,0,0,1,287.25,169.29ZM259,177.44a48.45,48.45,0,0,0,1.54-16.15,16.15,16.15,0,0,0-1.23-6,3.51,3.51,0,0,0-3.38-1.69q-5.85,0-13.53,5.54a75.1,75.1,0,0,0-14.76,14.46,55.62,55.62,0,0,0-7.69,14.76,58.54,58.54,0,0,0-3.69,19.38q0,6.77,2.46,7.69A32.57,32.57,0,0,0,236,209.89q7.84-5.23,15.53-17.22A44.64,44.64,0,0,0,259,177.44Z" fill="none"/>
    </clipPath>
    <clipPath id="Light-clip-path-4">
      <path id="H" d="M393.67,248q-7.69,0-12.46-6.77t-4.77-18.15q0-5.23,2.15-17.38a134.63,134.63,0,0,1,4.92-20.15,23.85,23.85,0,0,0,.92-2.46,6,6,0,0,0,.46-2.61c-.11-.51-.36-.77-.77-.77q-1.54,0-5.54,4a186.54,186.54,0,0,0-18.45,18.61,170.22,170.22,0,0,0-16.3,21.53q-6.46,10.31-6.46,14.3a6,6,0,0,1-2.62,5.23,10.15,10.15,0,0,1-6,1.85,8.81,8.81,0,0,1-4-.92,15.78,15.78,0,0,1-6.3-6.15q-1.69-3.38-1.69-9.84,0-5.23.31-8.3a272.36,272.36,0,0,1,4.46-37.37q3.23-16.15,12.46-46,.3-.92,5.84-15.69,9.53-27.06,10.76-29.53,2.15-2.15,6.31-13.38t4.15-13.69a10.43,10.43,0,0,1,3.08-7.69l3.08-3.08A12.69,12.69,0,0,1,373.68,56a9.92,9.92,0,0,1,4.61,5.38,17.93,17.93,0,0,1,2.15,8.61,28.89,28.89,0,0,1-2.61,10.61q-2.62,6.31-8.77,18.3a312.46,312.46,0,0,0-16.61,40.91q-3.39,9.85-9.38,30.6t-6,24.14a1.9,1.9,0,0,0,2.15,2.15q2.46,0,5.23-3.69,1.22-2.46,11.69-12,1.22-1.23,13.84-12.76t18.15-11.53a11.65,11.65,0,0,1,7.23,2.77,13.71,13.71,0,0,1,4.77,6.46,9.91,9.91,0,0,1,1.85,2.46,7,7,0,0,0,1.23,1.85q.61.62.62,3.69,0,10.77-6.77,31.06-5.23,20.3-5.23,24.3c0,1.85.51,2.77,1.54,2.77q.92-.61,3.69-2.15t6.46-3.69Q414,219.12,422,219.12q3.69,0,3.69,2.46a5.33,5.33,0,0,1-.92,2.15,5.27,5.27,0,0,0-.92,2.46v1.54q0,1.54-8.3,9.23t-12,8.61A20.57,20.57,0,0,1,393.67,248Z" fill="none"/>
    </clipPath>
    <clipPath id="Light-clip-path-5">
      <path id="T" d="M461.8,264.79q-3.85-4.15-3.84-12.46,0-2.15.62-7.69a65.15,65.15,0,0,0,1.84-8.61q1.54-6.76,3.08-8a3.4,3.4,0,0,0,.62-1.23,1.25,1.25,0,0,0-.62-1.54q0-4,2.77-11.07a36.26,36.26,0,0,1,1.54-4.31q.92-2.15,1.23-2.77a2.49,2.49,0,0,1-.61-1.85,4.29,4.29,0,0,1,1.69-3.08,14.1,14.1,0,0,0,2.46-2.77,2,2,0,0,0-.15-2.46q-.62-1.54,5.84-13.84,4-8,4.31-8.92-.31-.92,4.46-11.38t7.54-15.69q2.77-1.54-2.15-2.15a73.8,73.8,0,0,0-12-.31,154.56,154.56,0,0,1-15.69-1.08A26.25,26.25,0,0,1,455.8,141q-2.77-3.38-2.77-5.23,0-3.07,7.38-3.38,8-.3,24.61-2.15L500.71,129l.92-5.23a128.4,128.4,0,0,0,6.15-11.53,40.24,40.24,0,0,0,2.77-9.38,45,45,0,0,0,3.23-6.15,32.72,32.72,0,0,0,2.92-9.53q3.38-5.84,6.31-11.23t3.54-6.31q3.38-2.77,4.61-2.77,1.85,0,6.15,3.08Q545,75.18,545,78.87a5.32,5.32,0,0,1-1.85,3.69,90.23,90.23,0,0,0-3.69,9.84,49.26,49.26,0,0,0-4.61,7.54,36.66,36.66,0,0,0-3.38,9.07q-2.46,5.23-4.77,9.38t-3.23,4.15A3.49,3.49,0,0,0,524.7,125a5.72,5.72,0,0,0,3.08.62,29.7,29.7,0,0,0,3.84-.31,44.69,44.69,0,0,1,5.69-.31,33.66,33.66,0,0,0,5.38-.92,17.34,17.34,0,0,1,4.46-.62,9.69,9.69,0,0,1,3.69.92,13.48,13.48,0,0,1,3.08,8.3,5.21,5.21,0,0,1-2.77,4.92q-1.54.31-6.77,1.85A48.6,48.6,0,0,1,533,141.3l-16.3,1.54-5.23,10.46a78.59,78.59,0,0,0-3.69,7.07,18.68,18.68,0,0,1-2.15,4q0,1.54-2.46,6.15t-3.69,7.38a69.12,69.12,0,0,1-3.69,8.46q-2.16,4.15-2.77,5.38c-.62,0-1,.15-1.08.46a4.57,4.57,0,0,0-.15,1.38l.62,2.46a4.43,4.43,0,0,1-1.54,3.08,6.47,6.47,0,0,0-2.31,2.15,20.18,20.18,0,0,0-1.38,2.15,2.1,2.1,0,0,1,.62,1.54q0,2.15-2.15,5.54,0,5.23-4.3,15.69a65.78,65.78,0,0,0,.61,7.07q.3,1.54,1.54,1.23h1.23l4-.31q4.3-1.84-4.61,21.53l-4.92,8.3q-.31.61-2.15,3.54t-3.08,2.92Q465.64,268.94,461.8,264.79Z" fill="none"/>
    </clipPath>
    <clipPath id="Light-clip-path-6">
      <path id="Yagami_y" d="M763.93,79q-.3,1.78-3,4.31t-3.56,3.42q-6.54,5.65-20.8,20.5T714,132.52q-11.89,13.67-21.69,24.21t-14.26,15a77.72,77.72,0,0,1-5.94,6.24q-3,10.4-5.35,20.8l-5.94,19.31q-1.49,4.46-4.16,14.11t-4.46,14.11q-.89,3.57-1.78,7T648.65,260q-1.78,6.83-3.12,11.29T643,277.06q-1.19,1.34-3.57.45-1.19-.3-8.91-5.65-2.67-3-2.67-5.35,0-2.08,1.78-8l2.38-8.91a83.13,83.13,0,0,1,2.82-16.93,65.55,65.55,0,0,1,6.09-16q0-4.46,3-13.82t6.24-17.38l5.05-14.26-5.05-6.24a112.76,112.76,0,0,1-9.8-17.38,70.82,70.82,0,0,1-4.75-18.27,93.56,93.56,0,0,1-3.27-25q0-4.16.59-23.17.29-12.77,3-17.83t3-5.94q1.78-1.78,3-1.78,3.27,0,5.79,7.43a50.09,50.09,0,0,1,2.23,17.53q1.78,65.06,14.86,73.38a17.4,17.4,0,0,0,3,.59q3.27,0,7-3.42t14.71-15.3l6.54-7.13q4.75-5,25.25-28.52,11.88-14,19.16-22t11.44-10.4a6.82,6.82,0,0,1,2.38-2.38,11.05,11.05,0,0,1,2.53-1.19,6.87,6.87,0,0,1,1.34-.3,2.66,2.66,0,0,1,1.78,1.63,33.64,33.64,0,0,1,1.34,3.86A15.57,15.57,0,0,0,763,73.7,10.28,10.28,0,0,1,763.93,79Z" fill="none"/>
    </clipPath>
    <clipPath id="Light-clip-path-7">
      <path id="Yagami_a" d="M720.4,242.9c-1.29-1.29-1.93-2.13-1.93-2.53a7.69,7.69,0,0,0-1.48-5.05,4,4,0,0,1-.6-2.67q0-4.75,4.61-16.19a223.35,223.35,0,0,1,12-24.81,39,39,0,0,0,4.6-6.24q2.82-4.46,3.71-5.05a3.38,3.38,0,0,1,.89-2.23,2.68,2.68,0,0,1,2.08-1v-1.78q0-2.67,9.8-12.92t16-14.11a26.68,26.68,0,0,1,15.15-5.05,14.68,14.68,0,0,1,9.21,3Q796,148,808.2,159l11,9.8-5.35,14.85a46.48,46.48,0,0,0-2.67,14.56,40.14,40.14,0,0,0,6.54,21.69q1.48,3.27,5.94,6.24a21.08,21.08,0,0,0,8.91,3.57q6.53,1.19,6.54,6.54,0,5.95-5.35,7.13a15.78,15.78,0,0,1-3.56.3q-17.53,0-30.3-24.66a41.11,41.11,0,0,1-3.12-6.54,37.6,37.6,0,0,1-2.23-6.54q-1.78,2.38-4.46,5.65T785,217.2q-32.39,32.39-51.1,32.38a19.74,19.74,0,0,1-10.7-3A14.84,14.84,0,0,0,720.4,242.9Zm16.64-12a29.84,29.84,0,0,0,7.72-3,54.86,54.86,0,0,0,9.36-6.24q25.55-22,36.84-38.33l6.54-10.7q-3-6.24-6.24-9.06t-5.94-2.82q-6.24,0-19.61,15.6A193.44,193.44,0,0,0,741.35,213a105.81,105.81,0,0,0-4.75,10.25L733.92,230Q733.92,231.46,737,230.86Z" fill="none"/>
    </clipPath>
    <clipPath id="Light-clip-path-8">
      <path id="yagami_g" d="M937.73,174.41a14.27,14.27,0,0,1-3.56,8.91q-.89,1.49-3.27,4.61a50,50,0,0,0-4.16,6.39,27.47,27.47,0,0,0-2.67,7.43q-1.19,6.84-7.13,29.12l-3.27,11.59-4.75,18.42q-13.37,46-26.74,53.18a20.69,20.69,0,0,1-7.43,1.49q-6.54,0-13.52-4.31a39.9,39.9,0,0,1-12-11.74q-3-4.16-5.79-13.22t-1-10.25a2.88,2.88,0,0,1,2.08-.59,9.19,9.19,0,0,1,4.46,1.34,6,6,0,0,1,3,3.12,38.85,38.85,0,0,0,5.05,8.62q3.86,5.35,5.65,5.64a18.8,18.8,0,0,0,8,2.38,8.28,8.28,0,0,0,5.05-1.78,34.27,34.27,0,0,0,8.17-10q3.41-6.09,7.58-19.46l2.38-8.62q7.13-26.14,10.4-33.87a40.65,40.65,0,0,1,3-7.43l-5.35,4.75q-3.57,3.27-7.43,6.24a37.18,37.18,0,0,1-8,4.75q-2.08,2.67-10.4,2.67A41.14,41.14,0,0,1,864,232.05q-6.24-3.27-7.72-5.05t-4.16-8.32q-1.19-2.37-1.19-7.43,0-12.77,5.94-27.33,5.64-11.59,17.83-24.66t21.09-15.75a14.79,14.79,0,0,1,6.54-1.78,21.68,21.68,0,0,1,6.83,1.19,21,21,0,0,1,7.43,2.08,67,67,0,0,1,8.91,6.83,44.58,44.58,0,0,1,10.4,15.75A15.28,15.28,0,0,1,937.73,174.41Zm-27.33,7.87a46.78,46.78,0,0,0,1.49-15.6,15.63,15.63,0,0,0-1.19-5.79,3.4,3.4,0,0,0-3.27-1.63q-5.65,0-13.07,5.35a72.54,72.54,0,0,0-14.26,14,53.73,53.73,0,0,0-7.43,14.26,56.56,56.56,0,0,0-3.56,18.72q0,6.54,2.38,7.43a31.46,31.46,0,0,0,16.79-5.35q7.58-5,15-16.64A43.13,43.13,0,0,0,910.39,182.29Z" fill="none"/>
    </clipPath>
    <clipPath id="Light-clip-path-9">
      <path id="yagami_a-2" data-name="yagami_a" d="M976.35,249.28a32.06,32.06,0,0,1-7.13-.74C967,248,966,247.4,966,246.61a1.19,1.19,0,0,0-1.49-1.49q-.3-.29-1.78-1.49a15.64,15.64,0,0,0-3.57-2.08,16.18,16.18,0,0,1-2.67-8.91q0-5,2.67-15.75.89-9.5,8.91-23.77a172,172,0,0,1,18.87-27q10.84-12.77,19.46-17.83a15.29,15.29,0,0,1,11.29-4.46,20.3,20.3,0,0,1,10.1,2.67,33.54,33.54,0,0,1,8.76,8,52.55,52.55,0,0,1,7.28,11.59,33.55,33.55,0,0,1,1.19,8.62,126.45,126.45,0,0,1-1.19,14,98.44,98.44,0,0,0-2.53,13.07,101.7,101.7,0,0,0-1,13.37,11.78,11.78,0,0,0,.59,6.69q1.18,2.53,3.27,2.52a7.4,7.4,0,0,0,3.27-.89,14.42,14.42,0,0,1,6.54-1.49,7.94,7.94,0,0,1,5.35,1.78,6.67,6.67,0,0,1,2.08,5.35q0,5.35-7.28,10.7t-13.82,5.35q-4.46,0-8.17-7a113.12,113.12,0,0,1-7.28-18l-1.78-6.83-12.78,12.18-6.83,6.83A71.77,71.77,0,0,0,998,238q-3.27,5.65-16.34,10.7A27.35,27.35,0,0,1,976.35,249.28Zm23.77-32.68a163.92,163.92,0,0,0,17.23-19.91q9.21-12.18,11.59-24.06a25.29,25.29,0,0,0-3.86-7.13q-2.67-3.57-4.75-3.86-5.95,0-12.48,6.83a194.52,194.52,0,0,0-15.45,19L982.59,202q-1.78,2.38-6.24,12.63T971.89,227q0,6.54,3.86,6.54a13.47,13.47,0,0,0,6.83-2.38Q989.72,227,1000.12,216.6Z" fill="none"/>
    </clipPath>
    <clipPath id="Light-clip-path-10">
      <path id="yagami_m" d="M1081.52,240.37q0-2.37-1.49-2.38-1.78-1.78,6.83-20.35t14.86-28.37a5.37,5.37,0,0,0,1.78-2.53c.39-1.09.39-1.63,0-1.63q.59-.89,1.78-3a27.85,27.85,0,0,1,2.38-3.57q5-9.8,4.16-15.75a2.66,2.66,0,0,0-2.53-.89,4,4,0,0,0-1.63.59,25.77,25.77,0,0,1-3.12,1,15.84,15.84,0,0,0-4.31,1.93q-6.84,4.46-8.62,4.46a3.85,3.85,0,0,1-3.12-1.78,23.72,23.72,0,0,1-2.82-5.94,14.11,14.11,0,0,1-.89-3.86q0-2.07,2.38-4.16a13.05,13.05,0,0,1,4.31-2.82,22.25,22.25,0,0,0,3.42-1.63q6.24-3.57,8.91-4.16a34,34,0,0,1,8.62-1.49q8.91,0,12.48,8.32a17.73,17.73,0,0,1,4.16,11.59q0,5.65-4.16,14.56l-3,4.46a7.19,7.19,0,0,0-.89,2.38c0,.4.1.59.3.59q1.18,0,2.67-2.08,1.48-1.48,3.86-3.71t3.27-2.23a1.83,1.83,0,0,0,.89-.45c.39-.3.59-1,.59-2.23l3-2.67q1.18,0,7.13-5.05l5.65-4.46a10.44,10.44,0,0,1,5.94-2.38,9.12,9.12,0,0,1,2.67-.3q5.64,0,9.21,6.09t3.57,15.6l-6.24,16,10.7-13.07a60.51,60.51,0,0,1,7.13-7.13,3.38,3.38,0,0,1,1.63-2.23,4.8,4.8,0,0,1,1.34-.45,1.44,1.44,0,0,0,.74-.3,1,1,0,0,0,.45-.89q1.18-.89,3.12-2.23a10.08,10.08,0,0,0,2.52-2.23,14.51,14.51,0,0,1,5.94-1.19q6.24,0,10.4,8a19.66,19.66,0,0,1,2.23,5.79,55.4,55.4,0,0,1,.45,8.47q-1.19,6.54-2.08,13.67,0,1.19-.59,5.94-1.49,3.27-1.49,10.1a19.38,19.38,0,0,0,.45,5.35q.45,1.19,2.23,1.19a55,55,0,0,0,11.74-4.31q7.28-3.41,10.55-6.68,4.46-4.46,8-4.46,3.27,0,4.16,3.56.89,1.78-4.6,9.51t-7.58,7.72q-.6,0-2.23,1.78a16.24,16.24,0,0,1-2.53,2.38q-5.06,5.65-8.32,5.65a9.28,9.28,0,0,0-3.12.74,9.69,9.69,0,0,1-3.42.74,8.67,8.67,0,0,1-3,.3,17.11,17.11,0,0,1-8.62-2.38,10.89,10.89,0,0,1-5.35-7.13q-2.38-5.94-2.38-16.64,0-2.67.59-8.62l1.49-9.21q.59-5.64,1.19-6.83v-2.67q0-5-.89-5.05-2.38,0-15.75,15.3a242.7,242.7,0,0,0-20.5,26.29,45.79,45.79,0,0,0-4.6,7.87q-2.53,5.2-3.12,5.5a3.69,3.69,0,0,1-2.67,1.19,6.16,6.16,0,0,1-3.86-1.78,16,16,0,0,1-3.57-4.46,13.44,13.44,0,0,1-1.19-4.46q0-2.07,1.78-8.17T1146,206.5q3.27-9.8,5.5-16.93t2.82-9.51q0-2.07-14.85,10.7-3,3.57-6.83,7.43-6.84,7.13-15.3,16.64a233.37,233.37,0,0,0-14.71,18.12q-6.54,8.91-9.66,12.48t-5.2,3.56q-1.49,0-3.86-2.67A9.48,9.48,0,0,1,1081.52,240.37Z" fill="none"/>
    </clipPath>
    <clipPath id="Light-clip-path-11">
      <path id="yagami_i" d="M1260.67,242.15q-1.49-.59-2.08-.89a12,12,0,0,0-.74-3.12,12.72,12.72,0,0,1-.74-2.82c-1.59-.79-2.38-1.78-2.38-3a14.27,14.27,0,0,1,.89-4.16q3.86-6.83,13.67-31t11-28.67a7,7,0,0,1,.89-3,11.28,11.28,0,0,1,2.08-3,3.69,3.69,0,0,1,2.67-1.19q3.27,0,6.09,4.46a18,18,0,0,1,2.82,9.8q0,3.56-6.69,20.35t-15,33.72l-3.42,6.83q-2.23,4.46-3.42,5.35a5.35,5.35,0,0,1-3.27.89A6.78,6.78,0,0,1,1260.67,242.15Zm34.61-118.1q-5.79-6.09-5.79-12.63,0-1.48,3.57-6.83t3.57-5.94a15.4,15.4,0,0,1,7.13,1.49,47.61,47.61,0,0,0,8.32,12.18q1.78,2.38,3.27,4.46a6.56,6.56,0,0,1,1.49,3.57,33.77,33.77,0,0,1-.45,6.83,3.22,3.22,0,0,1-2.38,2.38,29,29,0,0,1-7.28.59Q1301.07,130.15,1295.28,124.06Z" fill="none"/>
    </clipPath>
  </defs>
  <desc id="light_name_description">Name: Light Yagami</desc>
  <g id="Light_name">
    <g id="L_MASK">
      <g clip-path="url(#Light-clip-path-1)">
        <path id="L1" d="M107.5,41.5C106,26,2.39,181.6,9.5,226.5c3.68,23.25,22,32,40,36s76-24,76-24" fill="none" stroke="#000" stroke-width="35"/>
      </g>
    </g>
    <g id="I_MASK">
      <g clip-path="url(#Light-clip-path-2)">
        <line id="I_2" x1="173" y1="121.35" x2="193.38" y2="90" fill="none" stroke="#000" stroke-width="32"/>
        <line id="I_1" x1="175.5" y1="145.5" x2="139.5" y2="258.5" fill="none" stroke="#000" stroke-miterlimit="10" stroke-width="27"/>
      </g>
    </g>
    <g id="G_MASK">
      <g clip-path="url(#Light-clip-path-3)">
        <path id="G_2" d="M182.5,258.5c13.21,30.48,28,52,43,52s37-90.53,51-147" fill="none" stroke="#000" stroke-width="34"/>
        <path id="G_1" d="M276.5,163.5c-4.78-20.59-20.1-23.87-41-18-13.67,14.49-24.3,35.23-31,64,5.95,11,13.08,18.39,24,14C250.61,212.82,265.87,191.69,276.5,163.5Z" fill="none" stroke="#000" stroke-width="36"/>
      </g>
    </g>
    <g id="H_MASK">
      <g clip-path="url(#Light-clip-path-4)">
        <path id="H_1" d="M389.5,35.5c-40.16,67.48-75,196.73-67,213,0,0,57-88,67-80s-15,65,0,69,32-6.66,49-22" fill="none" stroke="#000" stroke-width="31"/>
      </g>
    </g>
    <g id="T_MASK">
      <g clip-path="url(#Light-clip-path-5)">
        <path id="T_2" d="M570.5,126.5c-1,4.6-135,13-136,8" fill="none" stroke="#000" stroke-width="19"/>
        <path id="T_1" d="M546.81,58.22C513,125.4,480.92,191.74,468.5,248.5l28,10" fill="none" stroke="#000" stroke-width="41"/>
      </g>
    </g>
    <g id="y-mask">
      <g clip-path="url(#Light-clip-path-6)">
        <path id="y2" d="M643.5,39.5c-6,56.86-.71,100.78,20,127l-34,118" fill="none" stroke="#000" stroke-width="29"/>
        <path id="y1" d="M770.5,62.5c-40.8,45.42-79,85.31-107,104" fill="none" stroke="#000" stroke-width="28"/>
      </g>
    </g>
    <g id="a1_mask">
      <g clip-path="url(#Light-clip-path-7)">
        <path id="a2" d="M808.5,170.5c-6.12,37.13-2.13,66.74,36,71" fill="none" stroke="#000" stroke-width="26"/>
        <path id="a1" d="M808.5,170.5a58.61,58.61,0,0,0-3.48-5.27A43.66,43.66,0,0,0,780.5,148.5c-22,19.5-40.7,47-56,83,2.58,7.34,7.17,12.49,16,13C763,228.52,785.74,201.48,808.5,170.5Z" fill="none" stroke="#000" stroke-width="26"/>
      </g>
    </g>
    <g id="g_mask-2" data-name="g_mask">
      <g clip-path="url(#Light-clip-path-8)">
        <path id="g1" d="M926.5,176.5c-1.75-15.31-10.62-23.44-25-26-19.24,11.82-34.09,31.08-45,57,2.91,12.39,8.79,20.1,19,21C899.22,217.6,917.13,201.14,926.5,176.5Z" fill="none" stroke="#000" stroke-width="25"/>
        <path id="g2" d="M926.5,176.5c-14.73,55.11-29.35,111.05-49,131-19.84-1.5-30.11-16.22-36-37" fill="none" stroke="#000" stroke-width="23"/>
      </g>
    </g>
    <g id="a2_mask">
      <g clip-path="url(#Light-clip-path-9)">
        <path id="a22" d="M1035.5,167.5c-4.1,26.42-2.37,48.55,3,68,8.07,2,19.49-2.82,34-14" fill="none" stroke="#000" stroke-width="27"/>
        <path id="a21" d="M1035.5,168.5c-.59-13.18-9.14-17.45-21-18-24.76,16.82-40.49,44.32-51,78,3.7,10,9.85,15.33,20,13C1008.45,224.19,1025.67,199.75,1035.5,168.5Z" fill="none" stroke="#000" stroke-width="20"/>
      </g>
    </g>
    <g id="m_mask">
      <g clip-path="url(#Light-clip-path-10)">
        <path id="m" d="M1079.5,167.5s37-24,41-14-21.12,62.2-41,96c0,0,76-102,82-79s-18,79-18,79c-3.45-3,42.51-79.92,56-73,8.44,4.33,0,72,0,72l50-40" fill="none" stroke="#000" stroke-width="27"/>
      </g>
    </g>
    <g id="I_mask-2" data-name="I_mask">
      <g clip-path="url(#Light-clip-path-11)">
        <line id="i_dot" x1="1286.5" y1="95.5" x2="1318.5" y2="134.5" fill="none" stroke="#000" stroke-width="28"/>
        <line id="i-2" data-name="i" x1="1294.5" y1="155.5" x2="1254.5" y2="246.5" fill="none" stroke="#000" stroke-width="24"/>
      </g>
    </g>
  </g>
</svg>
