<svg xmlns="http://www.w3.org/2000/svg" xmlns:xlink="http://www.w3.org/1999/xlink" width="1110" height="300" viewBox="0 50 1110 300"  aria-labelledby="lins_name_description">
<svg id="Layer_1" data-name="Layer 1" xmlns="http://www.w3.org/2000/svg" xmlns:xlink="http://www.w3.org/1999/xlink" width="1116.68" height="385" viewBox="0 0 1116.68 385">
  <defs>
    <clipPath id="clip-path">
      <path d="M19.66,263Q11.34,255.37,9,246.78a131.82,131.82,0,0,1-1-17.43q0-6.24.78-7,.78-.53.78-3.12c-.17-1,.43-3.9,1.82-8.59,1.21-3.12,1.55-5.81,1-8.07l.91-1.82a14.86,14.86,0,0,1,1.69-2.6,4.45,4.45,0,0,0,1.43-2.73,4.11,4.11,0,0,0-.13-2v-.26a8.32,8.32,0,0,1,.65-2.73,11.29,11.29,0,0,1,1.43-2.73,8,8,0,0,0,1.43-2.08l.91-1.82q.26-1.81,4-11.58t5.07-11.84v-.52a33.39,33.39,0,0,1,2.86-5.46q.52-3.65,3.64-10.15a265.1,265.1,0,0,1,16.78-30.57q10.79-17.3,17-23.29a27.57,27.57,0,0,1,4.29-4,5.79,5.79,0,0,1,3.25-1.17q2.34,0,6,3.64a11.24,11.24,0,0,1,3.12,8.33c0,1.91-.35,2.86-1,2.86q-3.34,2.34-13.5,17a289.73,289.73,0,0,0-16.39,26q-3.37,7.26-5.82,12.2l-3.25,6.5-1,2.34A298.43,298.43,0,0,0,34,192.67a7.86,7.86,0,0,0-1.69,3.25,13.63,13.63,0,0,0-.39,2.21c-.35-.17-.65.31-.91,1.43a21.14,21.14,0,0,1-.91,3q-1.82,1.56-1.82,7.54a85.14,85.14,0,0,0-4.68,17.69q-1.82,10.67-1.3,15.87,1,8.59,14.31,13.79,6,2.34,8.85,2.34a22.26,22.26,0,0,0,5.59-.26q3.77-.52,8.72-1.3h-.26q1.31-.25,14.31-3.12a46.43,46.43,0,0,0,10.41-2.34q7.81-2.34,10.15-2.34a3,3,0,0,1,2.08.52,4.7,4.7,0,0,1,2.08,3.9L98,257.19q-.78,2.08-8.33,6.24a73.52,73.52,0,0,1-14.57,6.24,59,59,0,0,1-12.62,3.64,78.29,78.29,0,0,1-13.92,1.3q-7,0-10.41-1.3A42.75,42.75,0,0,1,19.66,263Z" fill="none"/>
    </clipPath>
    <clipPath id="clip-path-2">
      <path d="M120.34,244.7a13.86,13.86,0,0,1,1.3-6.24,11.39,11.39,0,0,1,.52-3.12,11.65,11.65,0,0,0,.52-2.34q-.25-1.56,2.08-8.59,4.68-10.4,12.49-36.68a2.84,2.84,0,0,1,1-2.21,5.72,5.72,0,0,1,3.12-1.17,14.55,14.55,0,0,1,2.86-.52A3.75,3.75,0,0,1,147,185a31.61,31.61,0,0,1,3.25,4.29,6.36,6.36,0,0,1,1.56,4.68q0,5-3.38,12A60.78,60.78,0,0,0,144,219a113.91,113.91,0,0,0-4.94,13q-.52,1.56-1.56,6.24a23.71,23.71,0,0,1-2.86,7.54,55.88,55.88,0,0,1-2.86,10.15c-.87,1.91-1.82,2.87-2.86,2.86q-1.82,0-4.94-3.64Q120.33,251.48,120.34,244.7ZM146.1,143.24q-1.31-4.43,0-4.42,2.09-.25,4.81-4.55t2.47-7.15a3,3,0,0,1,.78-2A3.46,3.46,0,0,1,156,124a7.13,7.13,0,0,1,3.64-1.3q4.43,0,8.06,6.24a14.6,14.6,0,0,1,1.56,6,10.25,10.25,0,0,1-1.3,4.81,37.43,37.43,0,0,1-4.68,6.37q-4.42,6-8.33,6-2.59,0-5.72-2.6Q147.39,147.66,146.1,143.24Z" fill="none"/>
    </clipPath>
    <clipPath id="clip-path-3">
      <path d="M253.28,249.25q-3.37-2.2-5.72-7.41a61.31,61.31,0,0,1-2.34-16.65,13.37,13.37,0,0,1,.78-5.46c.67-.67,1-2.18.91-4.55s-.1-4.06-.13-5.07c-.17-4-1.39-6-3.64-6a10,10,0,0,0-5.2,1.82q-14.56,9.1-24.46,15.61a168.72,168.72,0,0,0-19,14.57A48.75,48.75,0,0,0,189,243.4q-1.81,3.12-2.6,4.29a2.4,2.4,0,0,1-2.08,1.17,8.35,8.35,0,0,1-2.08.52,5.46,5.46,0,0,1-3.12-1.43,23.63,23.63,0,0,1-2.34-2c-.67-.67-1.79-1.84-3.38-3.51s-2.45-2.84-2.6-3.51a60.48,60.48,0,0,1,1.69-9.63q1.69-7.55,2.73-9.63c.52,0,1.3-1.08,2.34-3.25a35.08,35.08,0,0,1,2.86-5.07q.78-3.9,6.76-18A61.34,61.34,0,0,0,192.27,183a44,44,0,0,0,2-10.41v-.52a2.09,2.09,0,0,1,.78-1.69,2.51,2.51,0,0,1,1.56-.65,6,6,0,0,1,3.38-1.3c2.25,0,4.51,1.39,6.76,4.16a16.55,16.55,0,0,1,3.9,10.41q0,6.76-8.59,21.33c-.52,1.21-1.26,2.95-2.21,5.2a15,15,0,0,0-1.43,4.68L213,204.38q2.08-2.34,11.19-8.33t12.75-6.76q6.24-2.86,7.8-2.86,3.12,0,8.46,4.68t6.37,7.81a12,12,0,0,0,.52,4.16,57,57,0,0,1,.65,20.69c-.43,2.51-1,3.94-1.69,4.29a2,2,0,0,0,.26.78,1,1,0,0,0,1,.52v1.3c-1.39,0-1.57,1.47-.52,4.42a16,16,0,0,0,4.16,6.76,7.5,7.5,0,0,1,2.6,5.2q0,3.12-4.68,4.42A15.43,15.43,0,0,1,253.28,249.25Z" fill="none"/>
    </clipPath>
    <clipPath id="clip-path-4">
      <path d="M347.2,258.23a35,35,0,0,1-4.29-6.37,13.55,13.55,0,0,1-1.17-5.85,34.87,34.87,0,0,1,.26-4.68l1-12c-.35-.35-1-.26-2,.26a14.63,14.63,0,0,0-2.6,1.82c-.78.7-1.52,1.3-2.21,1.82l-4.42,3.64q-11.44,13-19.9,18.47t-15.74,5.46l-2.86-.26a9.68,9.68,0,0,1-8.06-5.33q-2.59-4.82-2.6-12.36a43.73,43.73,0,0,1,.26-5.72,72.73,72.73,0,0,1,3.9-16.91,84.32,84.32,0,0,1,8.85-16.91,57.86,57.86,0,0,1,12.88-15.09,52,52,0,0,1,16.78-10.15,42.48,42.48,0,0,1,14.57-2.86,31.18,31.18,0,0,1,8.85,1.3,12.13,12.13,0,0,0,4.94,1.56c1.39,0,2.43-.87,3.12-2.6a25,25,0,0,0,2.34-5.72,63.24,63.24,0,0,1,3.38-8.06l5.72-16.91,6.8-16.11L382.59,111q5.21-10.4,8.85-10.41c1.39,0,3,1,4.94,2.86a8.36,8.36,0,0,1,2.34,5.72,19.9,19.9,0,0,1-1.43,6.5q-1.43,3.9-3.51,9.11a109.72,109.72,0,0,0-6.76,13l-3.9,8.85q-7,16.65-8.33,20l-2.08,7a115.15,115.15,0,0,0-3.38,12.49q-2.08,11.19-3.64,11.19-4.68,5-8.85,30.7-1,6.24-1,23.94a40.06,40.06,0,0,1-.39,7.42,1.8,1.8,0,0,1-2,1.43Q349,260.83,347.2,258.23Zm-38.9-17.56A156.15,156.15,0,0,0,322,229.35q7-6.76,16.91-21.07t9.89-16.65c0-.67-.87-1.27-2.6-1.82a19.79,19.79,0,0,0-5.72-.78,17.18,17.18,0,0,0-4.16.52,31.06,31.06,0,0,0-11.58,5.33,66.56,66.56,0,0,0-11.84,11.58,93.29,93.29,0,0,0-12,19.25q-4.68,10.15-4.68,15.61c0,2.08.61,3.12,1.82,3.12q5,0,10.27-3.77Z" fill="none"/>
    </clipPath>
    <clipPath id="clip-path-5">
      <path d="M483.53,272.8a24.47,24.47,0,0,1-5.59-.65c-1.82-.43-3.42-.87-4.81-1.3s-2.43-.74-3.12-.91a48.18,48.18,0,0,1-6.11-4.42q-2.73-2.34-3.77-3.12a3.27,3.27,0,0,0-.52-1.82,8.39,8.39,0,0,0-.78-1c-.67,0-1.23-1.39-1.69-4.16a67.59,67.59,0,0,1-.65-10.15,94.64,94.64,0,0,1,.78-12.36q.78-5.85,1.82-7.67a14.43,14.43,0,0,1,.65-3.38,15.05,15.05,0,0,0,.65-3.12,15.39,15.39,0,0,1,.26-3.25c.17-.78.52-1.17,1-1.17a2,2,0,0,0,.78-.26.84.84,0,0,0,.52-.78,16.77,16.77,0,0,1,1-4.42q1-3.12,1.56-4.94a94.64,94.64,0,0,0,4.16-10.67,76.54,76.54,0,0,1,2.86-8.07q.78-3.9,4.68-14l2.34-6.5q3.65-6.24,3.64-9.37,1.81-5.2,15-30.7t17-30.7q3.9-4.93,6-6.37A8.09,8.09,0,0,1,525.94,86q2.09.78,5.46,4.29t3.6,5.6q0,1-4.55,7.67a93,93,0,0,1-8.72,11.06,6.51,6.51,0,0,0-.78,1.56,4.33,4.33,0,0,0-.26,1q-1.82,3.12-6.63,12.1t-5.33,12.1q-3.12,3.65-12.23,25.5-4.15,9.63-4.68,10.15a8.37,8.37,0,0,1-1.3,4.94q-.52,1.31-2.73,8.07a107.14,107.14,0,0,1-5.33,13.27,101.41,101.41,0,0,1-4.29,13.4c-1.65,4.08-3,6.64-4,7.67a13.14,13.14,0,0,0-.91,2.6c-.09.52.22.7.91.52.52-.52.87-.78,1-.78s.26.17.26.52a7.22,7.22,0,0,1-1.3,2.86,36.21,36.21,0,0,0-2.6,13q.53,8.6,2.34,11.45c1.21,1.91,3.82,2.86,7.81,2.86q12.22,0,29.66-4.16a45.63,45.63,0,0,1,14.31-2.6q7,0,9.63,3.38a17.29,17.29,0,0,1,1.69,3.25,9.52,9.52,0,0,1,.39,3q-1.56,2.34-18.73,6.76t-26,4.94A76.91,76.91,0,0,1,483.53,272.8Z" fill="none"/>
    </clipPath>
    <clipPath id="clip-path-6">
      <path d="M656.28,269.94a9,9,0,0,1-6.63-2.73q-2.73-2.73-2.73-9.24,0-9.38,6-25l2.86-8.59q13-38,16.91-43.71a16.87,16.87,0,0,0,1.3-6.5,10,10,0,0,1,1.3-3.9l2.08-4.16c2.08-3.81,3.12-6.68,3.12-8.59q0-1,3.12-10.54a67.2,67.2,0,0,1,6.24-14.44c.35-.67,1.47-3.27,3.38-7.8q3.12-7,3.12-8.59,0-.53-6.24-.52-8.6,0-21.46.78t-16.78,1.82q-5.46,1.3-6.5,1a7.59,7.59,0,0,1-2.47-3,10,10,0,0,1-1.43-5.07,4.77,4.77,0,0,1,2.6-4.68,28.38,28.38,0,0,1,7.68-3.12,56.29,56.29,0,0,1,9.24-1,95.13,95.13,0,0,0,10.93-.78,76.81,76.81,0,0,0,10.28-.65q4.81-.65,5.59-.65a22.32,22.32,0,0,0,5.2-.78,68.66,68.66,0,0,1,9.89-1.3,34.24,34.24,0,0,0,7.28-.78c2.77-.35,4.59-.52,5.46-.52h16.13a57.74,57.74,0,0,0,9.37-1q6-1,10.67-2.08A76.75,76.75,0,0,1,765.29,92q10.94,0,14,8.33.53,3.65-3.12,5.85t-12.36,3.38q-8.71,1.17-25.11,2.21-2.34.26-9,.78t-8.59,1.3c-1.33.52-2,1.3-2,2.34a4.22,4.22,0,0,1-1.43,3,16.16,16.16,0,0,0-2,2.21q-2.08.78-7.41,14.83t-5.33,16.91l-1,2.08a6.06,6.06,0,0,0-.78,2.34,113.61,113.61,0,0,1-5.72,12q-7.82,20.55-9.89,25.5l-2.86,7q-5.73,19-8.33,25.76a10,10,0,0,1-2,2.34,3.63,3.63,0,0,0-1.17,2.86q0,1.3-5.59,18.86t-6.37,17.82A14.57,14.57,0,0,1,656.28,269.94Z" fill="none"/>
    </clipPath>
    <clipPath id="clip-path-7">
      <path d="M726.13,250.82c-1.13-1.13-1.69-1.86-1.69-2.21a6.72,6.72,0,0,0-1.3-4.42,3.51,3.51,0,0,1-.52-2.34q0-4.15,4-14.18A195,195,0,0,1,737.16,206a34,34,0,0,0,4-5.46q2.48-3.9,3.25-4.42a3,3,0,0,1,.78-2,2.34,2.34,0,0,1,1.82-.91V191.6q0-2.34,8.59-11.32t14-12.36a23.37,23.37,0,0,1,13.4-4.39,12.88,12.88,0,0,1,8.07,2.6q1.3,1.56,12,11.19l9.63,8.59-4.68,13a40.48,40.48,0,0,0-2.34,12.75,35.14,35.14,0,0,0,5.72,19,13.86,13.86,0,0,0,5.2,5.46,18.44,18.44,0,0,0,7.8,3.12c3.81.67,5.72,2.57,5.72,5.72q0,5.21-4.68,6.24a14.2,14.2,0,0,1-3.12.26q-15.35,0-26.54-21.59a35.71,35.71,0,0,1-2.73-5.72,33.15,33.15,0,0,1-2-5.72c-1,1.39-2.34,3-3.9,4.94s-3,3.55-4.42,4.94Q754.37,256.68,738,256.67a17.22,17.22,0,0,1-9.37-2.6A13,13,0,0,0,726.13,250.82Zm14.57-10.54a26.06,26.06,0,0,0,6.76-2.6,47.74,47.74,0,0,0,8.2-5.46Q778,213,787.92,198.65l5.72-9.37a24.25,24.25,0,0,0-5.46-7.93c-1.91-1.65-3.65-2.47-5.2-2.47q-5.46,0-17.17,13.66a169,169,0,0,0-21.33,32.13,92.79,92.79,0,0,0-4.16,9L738,239.5q0,1.31,2.7.78Z" fill="none"/>
    </clipPath>
    <clipPath id="clip-path-8">
      <path d="M847.11,250.43a23.79,23.79,0,0,1-3.51-9.89q1-9.89,1.56-14,2.08-9.61,6.63-26.41t5.59-18.86a2.56,2.56,0,0,1,2.34-1.3,7,7,0,0,1,3.38,1,14.89,14.89,0,0,1,3.12,2.34,10.77,10.77,0,0,1,2.08,6.5q0,5.46-5.2,22.89-3.65,13-4.68,18.47a51.07,51.07,0,0,0-.78,11.71c-.17,1.21-.48,3.25-.91,6.11a24.29,24.29,0,0,1-1.17,5.33,1.67,1.67,0,0,1-1.56,1Q850.1,255.37,847.11,250.43Zm34.73-98.08a7.6,7.6,0,0,1-3.38-1.56q-2.6-.25-6.89-4.55t-4.29-5.59a26,26,0,0,1,1.56-11.19q2.08-6,7.54-6.24a7.73,7.73,0,0,1,2.08.39q1.31.39,4.42,1.69l2.21,4.42a39.18,39.18,0,0,1,2.6,6.5,20.53,20.53,0,0,1,.91,5.72,10.81,10.81,0,0,1-5.2,9.63,2.26,2.26,0,0,1-1.56.77Z" fill="none"/>
    </clipPath>
    <clipPath id="clip-path-9">
      <path d="M894.33,263.69q-4.16,0-6.5-4.16t-2.34-11.45A70.91,70.91,0,0,1,887,234.3q2.87-7.55,2.86-10.93.78-4.94,5.33-17.82T901,190.07c.69,0,1.3-.56,1.82-1.69a8.88,8.88,0,0,0,.78-3.77,13.68,13.68,0,0,1,.91-4.81,9.89,9.89,0,0,1,2-3.51,11.64,11.64,0,0,1,.65-2.86,12.11,12.11,0,0,0,.65-2.86,6.1,6.1,0,0,1,.65-2,5.94,5.94,0,0,0,.65-2.21q4.15-8.06,14.57-36.29t10.41-31.35q0-4.16,4.16-4.16a5.72,5.72,0,0,1,4.16-1.3l4.16,4.16a8.59,8.59,0,0,1,2.34,3.77,24.46,24.46,0,0,1,.52,5.85,19.91,19.91,0,0,1-1,6.76q-1,2.86-5.2,11.71-.78,1.81-2.08,4.29c-.87,1.65-1.83,3.71-2.89,6.2q-.52,1.31-4.16,9.37-2.6,5.2-2.6,6a11.56,11.56,0,0,1-1,3.25,51,51,0,0,0-1.82,5.07q-2.09,4.16-6.63,14.7T917.54,186a5.72,5.72,0,0,1-1.3,4.16c-.52,0-.87.39-1,1.17A8.74,8.74,0,0,0,915,193q0,2.59-4.16,13.79l-2.34,7.54q-5,16.91-6.89,24.72a56.2,56.2,0,0,0-2,13.27,52.71,52.71,0,0,1-.39,8.33A4.3,4.3,0,0,1,897,263.5,9.14,9.14,0,0,1,894.33,263.69Z" fill="none"/>
    </clipPath>
    <clipPath id="clip-path-10">
      <path d="M954.29,261.48a27.6,27.6,0,0,1-5.59-3q-11.19-9.11-10.93-18a8,8,0,0,0,.26-2.34,9.79,9.79,0,0,0-.26-2.47,5.82,5.82,0,0,1-.26-1.17,3.45,3.45,0,0,1-1.17-1.17,1,1,0,0,1,.26-.91,6.59,6.59,0,0,0,.65-1c.69-.17,1-.52,1-1a4.16,4.16,0,0,0-.52-1.82c-.52-1.39-.22-4.55.91-9.5a76.55,76.55,0,0,1,4.55-13.92,117.6,117.6,0,0,1,6.63-12.75,75.22,75.22,0,0,1,18.47-21.59,39,39,0,0,1,10.54-5.46q5.46-2.34,7.54-2.34,2.6,0,6.5,3.12a21.94,21.94,0,0,1,9.5,5.07q3.25,3.26,5.07,10a44.28,44.28,0,0,1,1.56,12.23q0,14.56-9.11,32a69.76,69.76,0,0,1-9.11,14.44,126.6,126.6,0,0,1-12.23,11.84,77.15,77.15,0,0,1-9.5,6.76,30,30,0,0,1-9.76,3.38A13,13,0,0,1,954.29,261.48Zm34.21-45.27a78.42,78.42,0,0,0,4.68-16.52,21.44,21.44,0,0,0,.26-4.16,45.67,45.67,0,0,0-1-9.89c-.67-3.12-1.53-4.77-2.6-4.94a11.06,11.06,0,0,0-3.9-.78q-6,0-12.75,7a70.68,70.68,0,0,0-10.8,17.56,212.61,212.61,0,0,0-9,25.11,36.15,36.15,0,0,0-1.3,8.33,13.19,13.19,0,0,0,1.82,7.41,5.88,5.88,0,0,0,5.2,2.73q4.15,0,9.63-4.29t11.45-12.88a91.18,91.18,0,0,0,8.32-14.68Z" fill="none"/>
    </clipPath>
    <clipPath id="clip-path-11">
      <path d="M1035.86,254.33a11.31,11.31,0,0,1-3.64-1.82,8.22,8.22,0,0,1-2.6-6q0-5.72,5.72-13.79,1.56-3.12,7.8-21.59l5.2-14.31c.35-2.95.17-5.07-.52-6.37s-2.17-2-4.42-2.21h-1.56c-1.56,0-2.6-.3-3.12-.91s-.78-2.21-.78-4.81a8.28,8.28,0,0,1,1.56-4.68,21.17,21.17,0,0,1,4.42-3.64,19,19,0,0,1,8.59-2.08q4.15,0,6.24,1.82c1,.67,1.78,2.18,2.21,4.55a49.53,49.53,0,0,1,.78,7.29,47.59,47.59,0,0,0,.39,5.33c.87-.87,3-2.64,6.37-5.33a102.41,102.41,0,0,0,8.72-7.67,78.43,78.43,0,0,1,10.15-6q5.72-2.87,8.06-2.86a12.68,12.68,0,0,1,5.72,1.43,8.31,8.31,0,0,1,3.9,3.51,15.74,15.74,0,0,1,2.34,7.54,11.72,11.72,0,0,1-2.86,7.29,18.85,18.85,0,0,1-11.2,6q-1.56,0-3.9-2.34t-2.6-3.9q0-1-6.63,4a106.89,106.89,0,0,0-10.28,8.72,75.1,75.1,0,0,0-8.46,13q-4.29,8.07-12.62,24.46-.78,1.81-3.64,8.85a28.71,28.71,0,0,1-2.34,5.85,3,3,0,0,1-2.6,1.69A14.15,14.15,0,0,1,1035.86,254.33Z" fill="none"/>
    </clipPath>
  </defs>
  <desc id="lins_name_description">Name: Lind L. Taylor</desc>
  <g id="Lind_name" data-name="Lind name">
    <g clip-path="url(#clip-path)">
      <path id="Lind_l" data-name="Lind l" d="M98.5,71.5c-49.52,60.35-85,121.85-76,187,25.59,11.94,53.61,7.15,83-7" fill="none" stroke="#000" stroke-width="31"/>
    </g>
    <g clip-path="url(#clip-path-2)">
      <g>
        <line id="Lind_i1" data-name="Lind i1" x1="149.5" y1="175.5" x2="122.5" y2="260.5" fill="none" stroke="#000" stroke-width="22"/>
        <line id="Lind_i2" data-name="Lind i2" x1="170.5" y1="119.5" x2="147.5" y2="152.5" fill="none" stroke="#000" stroke-width="25"/>
      </g>
    </g>
    <g clip-path="url(#clip-path-3)">
      <path id="Lind_n" data-name="Lind n" d="M207.5,161.5l-33,93c24.86-31.63,50.52-48,83-69-10.86,29.71-7.27,48.2,9,75" fill="none" stroke="#000" stroke-width="25"/>
    </g>
    <g clip-path="url(#clip-path-4)">
      <path id="Lind_d" data-name="Lind d" d="M359.5,185.5c-25.16-11.69-53.8,11.55-73,59a19,19,0,0,0,14,11c46.5-43.3,77.28-99.41,101-159-33.67,62-57.63,121-53,171" fill="none" stroke="#000" stroke-width="25"/>
    </g>
    <g clip-path="url(#clip-path-5)">
      <path id="Lind_l2" data-name="Lind l2" d="M534.5,81.5s-100,171-65,181,82-10,82-10" fill="none" stroke="#000" stroke-width="27"/>
    </g>
    <g clip-path="url(#clip-path-6)">
      <g>
        <line id="Lind_t1" data-name="Lind t1" x1="631.5" y1="113.5" x2="788.5" y2="97.5" fill="none" stroke="#000" stroke-width="21"/>
        <line id="Lind_t2" data-name="Lind t2" x1="649.5" y1="271.5" x2="715.5" y2="91.5" fill="none" stroke="#000" stroke-width="27"/>
      </g>
    </g>
    <g clip-path="url(#clip-path-7)">
      <path id="Lind_a" data-name="Lind a" d="M802.5,183.5l-23-14c-20.81,19.49-38.6,42.29-51,71l14,10c29.46-15.88,49.44-42,63-75-13.58,37.82-8.38,65.14,28,75" fill="none" stroke="#000" stroke-width="25"/>
    </g>
    <g clip-path="url(#clip-path-8)">
      <g>
        <line id="Lind_i4" data-name="Lind i4" x1="867.5" y1="116.5" x2="888.5" y2="157.5" fill="none" stroke="#000" stroke-width="26"/>
        <line id="Lind_i3" data-name="Lind i3" x1="865.5" y1="173.5" x2="846.5" y2="259.5" fill="none" stroke="#000" stroke-width="20"/>
      </g>
    </g>
    <g clip-path="url(#clip-path-9)">
      <path id="Lind_l3" data-name="Lind l3" d="M947,88c-26.81,58-44.6,118.24-56,180" fill="none" stroke="#000" stroke-width="27"/>
    </g>
    <g clip-path="url(#clip-path-10)">
      <path id="Lind_o" data-name="Lind o" d="M1002.5,184.5c-4.14-8.65-12.39-12.6-22-15-16.36,11.5-29.28,34.56-40,65,7.3,15.45,16.12,25,29,19C985.06,228.54,1003.37,202.39,1002.5,184.5Z" fill="none" stroke="#000" stroke-width="25"/>
    </g>
    <g clip-path="url(#clip-path-11)">
      <path id="Lind_r" data-name="Lind r" d="M1037,181.5h25c11.58,11.42-11.55,49.41-25,80,27.19-53.25,52-88.56,71-80" fill="none" stroke="#000" stroke-width="37"/>
    </g>
  </g>
</svg>
