<svg xmlns="http://www.w3.org/2000/svg" xmlns:xlink="http://www.w3.org/1999/xlink" width="407" height="185" viewBox="0 0 407 185" aria-labelledby="mello_name_description">
  <defs>
    <clipPath id="Mello-clip-path">
      <path id="Mello_m_clip" d="M139.77,165.7a5.65,5.65,0,0,1-2.66-.89,6.44,6.44,0,0,1-2.43-2.43,21.82,21.82,0,0,1-1.77-9.3l.22-9.08q6.85-40.27,16.16-81,3.09-10.85,5.2-20.59T157,30c0-.44-.41-.26-1.22.55a18.83,18.83,0,0,0-2.33,2.88c-.74,1.11-1,1.88-.88,2.32L147.08,44q-1.34,1.34-6.2,10.18a87.83,87.83,0,0,1-6,11.07l-6.2,11.73q-6.85,12.63-8.41,15.28c-1.47,2.21-3.62,6.05-6.42,11.51a56.8,56.8,0,0,1-8,12.61,61.84,61.84,0,0,0-3.43,5.32c-1.1,1.92-1.81,3.17-2.1,3.76q0,1.11-4.54,7.53a118.14,118.14,0,0,1-8.3,10.62,62.11,62.11,0,0,1-8.41,7.64,11,11,0,0,1-6.2,2.32q-3.77,0-8.19-4.2A17.83,17.83,0,0,1,60.64,142a38,38,0,0,1-1.22-10.4A182.66,182.66,0,0,1,61,113q.22-1.1,4.21-23.68,4.2-22.8,5.09-25a20,20,0,0,0,.22-3.1c0-1.33-.22-2-.67-2s-1.25,1-2.43,2.87q-.66.9-7.86,12.4a261.29,261.29,0,0,0-15.38,29.44q-12.84,23.69-19,35.53T16,156.4q-3.77,7.31-4.43,8-3.31,0-8.41-5.54a5.38,5.38,0,0,1-.67-2.43A15.93,15.93,0,0,1,4,151.31q1.44-3.54,4.1-9.3,6.86-13.5,9.07-15.27a15.44,15.44,0,0,0,3.1-7.75,123.61,123.61,0,0,0,8.19-14.39q3.33-5.31,7.86-13.28t8.08-15.27l6.2-10.85Q59.2,50.16,64.4,42t7.86-10.85q3.54-4.2,3.54-6.64A19.34,19.34,0,0,1,77.68,16c1.25-2.58,2.55-3.72,3.88-3.43a14.16,14.16,0,0,1,4.31.55,8,8,0,0,1,3.43,2.77c.3.44.78,1.15,1.44,2.1A12.33,12.33,0,0,1,92.29,21a13.12,13.12,0,0,1,.55,4.1,42,42,0,0,1-.66,6.64Q92,34.66,90.41,44.84a51.45,51.45,0,0,0-.89,6Q83.78,68.3,79.23,94.53t-4.54,36.86a8.27,8.27,0,0,0,.45,3.32,2.19,2.19,0,0,0,2.76.22q1.21-.88,3.66-5.76a94.59,94.59,0,0,1,9.74-13.72q.44-.66,8.63-14.61,20.35-33.42,39.62-67.07l5.75-9.07q3.33-5.32,6.42-9.85A27.25,27.25,0,0,1,156.59,9a6.88,6.88,0,0,1,4.21-1.77q4.2,0,7.53,5.09c2.21,3.4,3.32,7.67,3.32,12.84q0,6-2.44,18.26a221.54,221.54,0,0,1-6.42,24.68q-1.32,6.19-3.76,15.5t-5.09,16.82a94.46,94.46,0,0,1-1.77,9.52c-.15.74-.56,3-1.22,6.75s-.85,6.31-.55,7.63q-3.33,6-3.32,23.91l-.67,5.09q-.45,6.19-.88,8.41c-.3,1.47-.74,2.14-1.33,2a3.07,3.07,0,0,0-1.33-.22c-1,0-1.55.44-1.55,1.33C141.32,165.4,140.8,165.7,139.77,165.7Z" fill="none"/>
    </clipPath>
    <clipPath id="Mello-clip-path-2">
      <path id="Mello_e_clip" d="M202.19,151.31a22.06,22.06,0,0,1-10.52-2.66,23.93,23.93,0,0,1-8.3-7.3,22.86,22.86,0,0,1-4.2-8,38,38,0,0,1-1.33-10.85q0-2.2.44-8.85a43.65,43.65,0,0,1,5.43-17.05,65.52,65.52,0,0,1,11.84-15.82q7.08-7,13.94-9.63A12.44,12.44,0,0,1,215.91,69a21.55,21.55,0,0,1,3.1.22c1,.15,2.14.29,3.32.44a26.05,26.05,0,0,1,7.42,1.88,11.39,11.39,0,0,1,4.31,3.65A17.62,17.62,0,0,1,239.6,88q-.89,5.31-6.87,12.18a46.33,46.33,0,0,1-14.38,11.06,28.58,28.58,0,0,1-9.08,1.33q-6.86,0-11.07-2.88a10.63,10.63,0,0,0-3.09-.66c-1.33,0-2.33.89-3,2.66a48.39,48.39,0,0,0-1.88,9.74,32.71,32.71,0,0,0-.23,4.42q0,11.29,7.53,12.4a39.41,39.41,0,0,0,7.3,1.11,12.84,12.84,0,0,0,6-1.78l4.21-2.43a9.33,9.33,0,0,0,2.43-1.77l2-2c.3-.3.74-.78,1.33-1.44a4.9,4.9,0,0,1,1.66-1.33,3.72,3.72,0,0,1,1.44-.33,3.18,3.18,0,0,1,2,1,16.08,16.08,0,0,0,1.77,1.44c1.33,0,1.63.93.89,2.77a20.78,20.78,0,0,1-4.76,6.42,45.75,45.75,0,0,1-8.3,6.53A19.41,19.41,0,0,1,202.19,151.31ZM222.88,94c2.58-2.66,3.88-4.87,3.88-6.64a5.71,5.71,0,0,0-2-4.43,8.07,8.07,0,0,0-5.54-1.77,13.57,13.57,0,0,0-4,.44q-3.1.89-7.31,4.76a64.34,64.34,0,0,0-7.3,7.86q-3.1,4-2.44,4.65,1.11,2,8.64,2a22.78,22.78,0,0,0,8.41-1.33A23.39,23.39,0,0,0,222.88,94Z" fill="none"/>
    </clipPath>
    <clipPath id="Mello-clip-path-3">
      <path id="Mello_l1_clip" d="M255.09,154.41a6.11,6.11,0,0,1-5.53-3.54q-2-3.54-2-9.74a61.18,61.18,0,0,1,1.33-11.74c1.62-4.27,2.44-7.37,2.44-9.29q.66-4.2,4.53-15.16t5-13.18c.59,0,1.11-.47,1.55-1.43a7.47,7.47,0,0,0,.67-3.21,11.77,11.77,0,0,1,.77-4.1,8.58,8.58,0,0,1,1.66-3,10.08,10.08,0,0,1,.56-2.43,10.36,10.36,0,0,0,.55-2.44,5.17,5.17,0,0,1,.55-1.66,5,5,0,0,0,.56-1.88q3.53-6.86,12.39-30.88T289,14.07q0-3.54,3.54-3.54A4.81,4.81,0,0,1,296,9.42L299.58,13a7.29,7.29,0,0,1,2,3.21,20.49,20.49,0,0,1,.45,5,16.84,16.84,0,0,1-.89,5.76q-.88,2.43-4.43,10c-.44,1-1,2.25-1.77,3.65s-1.55,3.14-2.43,5.2q-.45,1.11-3.54,8c-1.48,3-2.22,4.65-2.22,5.09a9.85,9.85,0,0,1-.88,2.77,42.63,42.63,0,0,0-1.55,4.32q-1.77,3.54-5.65,12.5t-3.87,9.85a4.81,4.81,0,0,1-1.11,3.54c-.44,0-.74.34-.88,1a7.37,7.37,0,0,0-.22,1.44q0,2.22-3.55,11.73l-2,6.42q-4.2,14.39-5.86,21a47.7,47.7,0,0,0-1.66,11.29,43.27,43.27,0,0,1-.34,7.08,3.62,3.62,0,0,1-1.88,2.44A8,8,0,0,1,255.09,154.41Z" fill="none"/>
    </clipPath>
    <clipPath id="Mello-clip-path-4">
      <path id="Mello_l2_clip" d="M288.18,141.13a6.22,6.22,0,0,1-1-3.77q0-4.43,2.66-14.16a90.32,90.32,0,0,1,1.44-9,23,23,0,0,1,2.76-6.75q.88-3.32,3.1-10Q302,82,303.78,73.61c1.18-3.24,2.22-6.12,3.1-8.63s1.7-4.79,2.44-6.86q-.45,1.32,5.53-15,1.77-5.31,2.44-8.19,2.43-10,5.53-15.05a32,32,0,0,0,2.33-3.77,16.11,16.11,0,0,1,1.43-2.43c0-.3.23-.56.67-.78a3.44,3.44,0,0,1,1.55-.33,6,6,0,0,1,4.42,1.77c.74-.29,1.66.59,2.77,2.66s1.59,3.69,1.44,4.87a9.71,9.71,0,0,1-1.55,5.31,12.25,12.25,0,0,0-2,3.21c-.74,1.55-1.41,2.84-2,3.87-.3,1-.78,2.77-1.44,5.21s-1.3,4.46-1.88,6.08q-1.11,2.66-2.11,5c-.66,1.55-1.21,2.92-1.66,4.1q-.88,2.88-3.1,8.63a102.32,102.32,0,0,0-4.2,11.73c-.3.89-.81,2.73-1.55,5.54q-3.1,11.07-6,16.15a21.16,21.16,0,0,0-2.54,7.75q-.78,4.88-1,6-3.31,10-3.32,11.73c-.3,1.33-.81,3.91-1.55,7.75A53.54,53.54,0,0,1,298.92,140c-.3,3.4-1.41,5.09-3.33,5.09a7.87,7.87,0,0,1-4-1.33A10.49,10.49,0,0,1,288.18,141.13Z" fill="none"/>
    </clipPath>
    <clipPath id="Mello-clip-path-5">
      <path id="Mello_o_clip" d="M343.85,146.44a4.11,4.11,0,0,1-2.22-.56,14.71,14.71,0,0,1-2.43-2.1,18.33,18.33,0,0,1-7.64-7c-1.84-3-2.62-5.72-2.32-8.08a77.43,77.43,0,0,1,5.86-22.36A99.22,99.22,0,0,1,347,84.9q6.85-9.29,13.28-11.51a19.18,19.18,0,0,1,6.64-1.55q5.31,0,7.52,4.43a12,12,0,0,1,1.55,4.65q0,2.65-3.1,3.54a2.75,2.75,0,0,0-1.55.66,1.8,1.8,0,0,0-.88,1.33,4.4,4.4,0,0,0,2,.22,48.64,48.64,0,0,0,9.3-1.1c3.68-.74,6.05-1.55,7.08-2.44a5.25,5.25,0,0,1,2.21-.66l3.1.44q3.77,1.11,3.77,2.66a2.52,2.52,0,0,0,.66,1.66,2,2,0,0,0,1.55.77c.89.15.77.74-.33,1.77s-3.21,2.73-6.31,5.09c-.74.45-1.81,1.11-3.21,2a6,6,0,0,0-2.43,2.21,3.89,3.89,0,0,0,.11,2.43,12.18,12.18,0,0,1,.88,4.87q0,7.3-6.31,16.16A65.21,65.21,0,0,1,366.76,138q-9.42,6.63-18,7.74A27.44,27.44,0,0,1,343.85,146.44Zm7.74-13.06a15.19,15.19,0,0,1,4.65-3.54c1,0,2.44-.78,4.21-2.33a77.81,77.81,0,0,0,8.19-9.4,75.37,75.37,0,0,0,6.31-8.19,12.07,12.07,0,0,0,2.1-6.42,7.06,7.06,0,0,0-.22-2,2.48,2.48,0,0,0-1.44-1.21c-.81-.37-1.59-.7-2.32-1a6.94,6.94,0,0,1-3.66-1,50.66,50.66,0,0,1-4.76-3.43l-3.54-4.42-3.76,3.76Q352,99.51,346.5,111.58t-6.19,18.7q-.22,3.1,1,4.32A5.75,5.75,0,0,0,345,136Q346.29,136,351.59,133.38Z" fill="none"/>
    </clipPath>
  </defs>
  <desc id="mello_name_description">Name: Mello</desc>
  <g id="Mello_name">
    <g id="Mello_m_mask">
      <g clip-path="url(#Mello-clip-path)">
        <path id="Mello_m" d="M2.5,165.5c23.24-48,54.78-99.67,90-153-14.23,52.71-26.75,103.3-20,130,17.36-12.2,52-75,91-128-11.67,62.42-19.59,114.38-22,151" fill="none" stroke="#000" stroke-miterlimit="10" stroke-width="27"/>
      </g>
    </g>
    <g id="Mello_e_mask">
      <g clip-path="url(#Mello-clip-path-2)">
        <path id="Mello_e" d="M192.5,102.5a37,37,0,0,0,24,4c9.68-5.75,14.83-13.86,18-23-5.59-8.3-13-10.14-21-10-20.62,22.25-37.1,44.3-25,65,13,13.39,27.79,4.83,43-9" fill="none" stroke="#000" stroke-miterlimit="10" stroke-width="21"/>
      </g>
    </g>
    <g id="Mello_l1_mask">
      <g clip-path="url(#Mello-clip-path-3)">
        <path id="Mello_l1" d="M299.5,7.5c-25.66,60.45-44.89,113.44-50,150" fill="none" stroke="#000" stroke-miterlimit="10" stroke-width="22"/>
      </g>
    </g>
    <g id="Mello_l2_mask">
      <g clip-path="url(#Mello-clip-path-4)">
        <path id="Mello_l2" d="M336,12c-20.5,45.76-36.31,91.17-44,136" fill="none" stroke="#000" stroke-miterlimit="10" stroke-width="20"/>
      </g>
    </g>
    <g id="Mello_o_mask">
      <g clip-path="url(#Mello-clip-path-5)">
        <path id="Mello_o" d="M402,84c-18.49,6.56-34.38,10.31-40,3l17-14c-30.51,4.68-45.61,44.55-44.5,58.5.87,11,8.32,9.33,16,9,13.11-1.15,24-16.7,34-34-.93-5.77-3-9-6-10Z" fill="none" stroke="#000" stroke-miterlimit="10" stroke-width="21"/>
      </g>
    </g>
  </g>
</svg>
