<svg xmlns="http://www.w3.org/2000/svg" xmlns:xlink="http://www.w3.org/1999/xlink" width="1368" height="250" viewBox="0 50 1368 250" aria-labelledby="misa_name_description">
  <defs>
    <clipPath id="Misa-clip-path-1">
      <path d="M1202.48,260.86a29.35,29.35,0,0,1-14-3.54,31.84,31.84,0,0,1-11.06-9.73A30.55,30.55,0,0,1,1171.8,237a50.89,50.89,0,0,1-1.77-14.45q0-2.95.59-11.8.88-10.91,7.23-22.71a87.58,87.58,0,0,1,15.78-21.09q9.44-9.29,18.58-12.83,4.72-2.94,8.55-2.95a29.56,29.56,0,0,1,4.13.29q2.06.3,4.42.59a34.87,34.87,0,0,1,9.88,2.51,15.22,15.22,0,0,1,5.75,4.87,23.49,23.49,0,0,1,7.37,17.11q-1.18,7.08-9.14,16.22A61.7,61.7,0,0,1,1224,207.47a38.19,38.19,0,0,1-12.09,1.77q-9.15,0-14.75-3.83a14.16,14.16,0,0,0-4.13-.88q-2.65,0-4,3.54t-2.51,13a44.38,44.38,0,0,0-.29,5.9q0,15,10,16.52a52.4,52.4,0,0,0,9.73,1.48,17.23,17.23,0,0,0,8-2.36l5.6-3.25a12.43,12.43,0,0,0,3.25-2.36l2.65-2.66q.59-.59,1.77-1.92a6.62,6.62,0,0,1,2.21-1.77,4.89,4.89,0,0,1,1.92-.44,4.24,4.24,0,0,1,2.65,1.33,22.28,22.28,0,0,0,2.36,1.92q2.65,0,1.18,3.69t-6.34,8.55a60.79,60.79,0,0,1-11.06,8.7A25.88,25.88,0,0,1,1202.48,260.86Zm27.58-76.4q5.16-5.31,5.16-8.85a7.57,7.57,0,0,0-2.66-5.9,10.73,10.73,0,0,0-7.37-2.36,18,18,0,0,0-5.31.59q-4.13,1.18-9.73,6.34a86.36,86.36,0,0,0-9.73,10.47q-4.14,5.31-3.25,6.2,1.47,2.65,11.5,2.65a30.46,30.46,0,0,0,11.21-1.77A31.19,31.19,0,0,0,1230.06,184.46Z" fill="none"/>
    </clipPath>
    <clipPath id="Misa-clip-path-2">
      <path d="M1046.58,250.24a23.91,23.91,0,0,1-3.69-3,8.44,8.44,0,0,1-2.51-4.42,79.27,79.27,0,0,1-.44-10.91,63,63,0,0,1,3.69-20.06q3.69-10.91,13.13-31.56l9.73-20.65a27.33,27.33,0,0,1,4.13-5.9h3q2.06,0,4.57,2.66a16.56,16.56,0,0,1,3.69,6.19,28.75,28.75,0,0,1-1.33,8.85q-1.33,4.14-6.93,11.5a72.17,72.17,0,0,0-5.6,11.21,77.6,77.6,0,0,0-4.42,13,34.12,34.12,0,0,0-2.21,5q-1.33,3.54-3.1,7.38l-1.48,6.49,19.76-20.35q13-13,21.09-18.88t13.42-5.9q6.19,0,10,8a42.1,42.1,0,0,1,3.54,6.93,25.28,25.28,0,0,1,.89,7.82q0,1.77-.59,10V232a39.55,39.55,0,0,0,7.52-2.36q3.39-1.47,5.16-2.06a45.75,45.75,0,0,1,15-3.54,26.15,26.15,0,0,1-4.42,10.91,36.22,36.22,0,0,1-9.44,9.88q-5.61,4-10.92,4-4.13,0-8.7-3.83a23.41,23.41,0,0,1-6.64-8.55,25.77,25.77,0,0,1-1.33-8q-.15-4.72-.15-13.27V204.22c0-2-.59-3-1.77-3q-1.18,0-5.6,3.54-5.9,5.31-19.17,19.17a212,212,0,0,1-22,20.5q-9.29,7.23-12.83,7.23A7.25,7.25,0,0,1,1046.58,250.24Z" fill="none"/>
    </clipPath>
    <clipPath id="Misa-clip-path-3">
      <path d="M921.37,251.71q-6.19-4.43-7.37-9.73a17.52,17.52,0,0,1-.29-3.83q0-10.91,8.41-28.17a158.59,158.59,0,0,1,20.5-31.86q12.09-14.6,22.12-18.44,6.19-3.24,8-3.25t8,3.25a20.84,20.84,0,0,1,6.2,2.65,28.13,28.13,0,0,1,5.31,5.9,65.1,65.1,0,0,1,5.6,18.88,37.52,37.52,0,0,1,1.77,8.85,5.66,5.66,0,0,1-1.77,4.13c-.2.2-.54.59-1,1.18a2.57,2.57,0,0,0-.74,1.33c0,.29.19.44.59.44a6.87,6.87,0,0,1-.29,1.33,17.61,17.61,0,0,1-1.18,2.8q-3.54,11.21-3.54,19.17a28.35,28.35,0,0,0,.59,5.61q2.95,7.67,10,7.67,5.9,0,11.21-5.31,4.72-3.24,6.93-4.57c1.48-.88,2.21-.64,2.21.74a8.37,8.37,0,0,0,1.18.89,3.15,3.15,0,0,0,1.77.59c1.37,0,2.07.88,2.07,2.65a11.27,11.27,0,0,1-2.07,5.9,44.57,44.57,0,0,0-3.24,3.54,4.33,4.33,0,0,0-1.18,2.36l-4.42,4.13a26,26,0,0,1-13.27,3.25q-8,0-12.68-3.25a40.17,40.17,0,0,1-13-18.58l-1.48-3-8.55,5.6a86.57,86.57,0,0,1-6.78,6q-3.84,3.1-5,4.28-2.36,3-4.13,2.95h-3q0,2.07-5.75,4.57A26,26,0,0,1,932.87,255Q927.56,256.14,921.37,251.71Zm25.07-22q13.27-9.29,16.81-13.72l8.55-8.85a42.52,42.52,0,0,0,7.52-12.09,32.78,32.78,0,0,0,2.8-12.39q0-5-1.48-7.08-1.18-3.54-3.54-3.54-1.18,0-6.79,2.07-5.61,3.54-15.78,16.22a226.54,226.54,0,0,0-18.14,26.11q-8,13.43-8,19.62a3.15,3.15,0,0,0,.59,1.77,8.31,8.31,0,0,0,.88,1.18Q933.16,239,946.44,229.74Z" fill="none"/>
    </clipPath>
    <clipPath id="Misa-clip-path-4">
      <path d="M739.95,247.88q0-2.36-1.47-2.36-1.77-1.77,6.78-20.21T760,197.14a5.32,5.32,0,0,0,1.77-2.51c.39-1.08.39-1.62,0-1.62q.59-.88,1.77-3a27.65,27.65,0,0,1,2.36-3.54q5-9.74,4.13-15.63a2.64,2.64,0,0,0-2.51-.88,4,4,0,0,0-1.62.59,25.5,25.5,0,0,1-3.1,1,15.72,15.72,0,0,0-4.28,1.92Q751.74,178,750,178a3.83,3.83,0,0,1-3.1-1.77,23.58,23.58,0,0,1-2.8-5.9,14,14,0,0,1-.88-3.83q0-2.06,2.36-4.13a13,13,0,0,1,4.28-2.8,22.13,22.13,0,0,0,3.39-1.62q6.19-3.54,8.85-4.13a33.78,33.78,0,0,1,8.55-1.47q8.85,0,12.39,8.26a17.6,17.6,0,0,1,4.13,11.5q0,5.61-4.13,14.46l-3,4.42a7.13,7.13,0,0,0-.88,2.36c0,.4.1.59.29.59q1.17,0,2.65-2.06,1.47-1.47,3.83-3.69t3.25-2.21a1.82,1.82,0,0,0,.88-.44c.39-.29.59-1,.59-2.21l3-2.66q1.17,0,7.08-5l5.61-4.42a10.37,10.37,0,0,1,5.9-2.36,9,9,0,0,1,2.66-.29q5.6,0,9.14,6t3.54,15.49L821.37,206,832,193a60,60,0,0,1,7.08-7.08,3.36,3.36,0,0,1,1.62-2.21,4.78,4.78,0,0,1,1.33-.44,1.43,1.43,0,0,0,.74-.29,1,1,0,0,0,.44-.88q1.17-.89,3.1-2.21a10,10,0,0,0,2.51-2.21,14.4,14.4,0,0,1,5.9-1.18q6.19,0,10.32,8a19.51,19.51,0,0,1,2.21,5.75,55,55,0,0,1,.44,8.41q-1.18,6.49-2.06,13.57,0,1.18-.59,5.9-1.48,3.25-1.48,10a19.22,19.22,0,0,0,.44,5.31q.44,1.18,2.21,1.18a54.51,54.51,0,0,0,11.65-4.28q7.22-3.39,10.47-6.64,4.43-4.43,8-4.42,3.24,0,4.13,3.54.88,1.77-4.57,9.44t-7.52,7.67q-.59,0-2.21,1.77a16.19,16.19,0,0,1-2.51,2.36q-5,5.61-8.26,5.61a9.23,9.23,0,0,0-3.1.74,9.61,9.61,0,0,1-3.39.74,8.61,8.61,0,0,1-3,.29,17,17,0,0,1-8.55-2.36A10.82,10.82,0,0,1,852,242q-2.36-5.9-2.36-16.52,0-2.65.59-8.55l1.47-9.14q.59-5.6,1.18-6.78v-2.66q0-5-.88-5-2.36,0-15.63,15.19a241,241,0,0,0-20.35,26.11,45.52,45.52,0,0,0-4.57,7.82q-2.51,5.17-3.1,5.46a3.67,3.67,0,0,1-2.65,1.18,6.11,6.11,0,0,1-3.83-1.77,15.89,15.89,0,0,1-3.54-4.42,13.33,13.33,0,0,1-1.18-4.42q0-2.06,1.77-8.11t5-16.08q3.24-9.74,5.46-16.81t2.8-9.44q0-2.06-14.75,10.62-3,3.54-6.79,7.38-6.79,7.08-15.19,16.52a231.63,231.63,0,0,0-14.6,18q-6.49,8.85-9.59,12.39t-5.16,3.54q-1.48,0-3.83-2.65A9.42,9.42,0,0,1,739.95,247.88Z" fill="none"/>
    </clipPath>
    <clipPath id="Misa-clip-path-5">
      <path d="M576.82,274.43a17.71,17.71,0,0,1-4.57-3.25,5.52,5.52,0,0,1-1.33-3.83q0-3,2.51-8.41t8.7-17.26q1.77-3.83,6.78-13.57Q606,195.37,606,192.42a4.08,4.08,0,0,1-.29-1.77q0-2.94,4.72-5.31a69.71,69.71,0,0,0,11.21-14.45q2.94-6.48,8-15.49T642,134q3.54-6.19,10.62-18a400.07,400.07,0,0,1,28-42.48q6.78-9.14,11.21-8.85,5.6,0,12.54,5.16A27.94,27.94,0,0,1,714,81.51q1.18,2.07,1.18,8.85,0,9.15-2.06,31-.59,3.84-1.18,12.09-.88,13.27-2.66,28.32-3.25,33-4.72,51.62t-1.47,34.81q0,8.26.29,12.09v2.06l-.29,6.79a7.21,7.21,0,0,1-5.31,1.77,17.6,17.6,0,0,1-8-1.92Q686,267,685.38,264.4a3.62,3.62,0,0,0-.88-.59c-.4-.19-.59-1.08-.59-2.66l.29-6.49.89-16.52,1.47-47.79-3.83.29q-5.9,0-26.25,2.36t-25.37,3.83q-2.66,0-6.49,3.54a33.5,33.5,0,0,0-6.78,9.14,42.16,42.16,0,0,1-4.13,8.41q-3.25,5.46-3.25,6.34a11.65,11.65,0,0,0-3.1,3.1,28.17,28.17,0,0,0-1.62,2.51q0,3.25-6,16.52a159.82,159.82,0,0,1-11.95,22.12L581.54,278Zm68.73-96.31a98.09,98.09,0,0,1,10.62-1.33q21.24-5,26-5a8.46,8.46,0,0,1,3.83.88,5.17,5.17,0,0,0,3.25,2.07q.59-1.77,3.69-32t3.39-40.27l.88-14.75q-1.77,0-7.67,6.79A180.07,180.07,0,0,0,676.38,112a198.93,198.93,0,0,0-12.83,22q-3,5.31-5.75,9.88t-4,4.57q-2.07,2.07-9.73,15.93t-6.2,15Q639.65,179.15,645.55,178.12Z" fill="none"/>
    </clipPath>
    <clipPath id="Misa-clip-path-6">
      <path d="M416.06,256.73A31.84,31.84,0,0,1,409,256c-2.17-.49-3.24-1.13-3.24-1.92a1.18,1.18,0,0,0-1.48-1.48q-.3-.29-1.77-1.47a15.49,15.49,0,0,0-3.54-2.06,16.07,16.07,0,0,1-2.65-8.85q0-5,2.65-15.63.88-9.44,8.85-23.6a170.78,170.78,0,0,1,18.73-26.84q10.77-12.68,19.32-17.7A15.18,15.18,0,0,1,457.06,152a20.15,20.15,0,0,1,10,2.65,33.29,33.29,0,0,1,8.7,8,52.13,52.13,0,0,1,7.23,11.5,33.31,33.31,0,0,1,1.18,8.55A125.6,125.6,0,0,1,483,196.55a97.87,97.87,0,0,0-2.51,13,101,101,0,0,0-1,13.27,11.7,11.7,0,0,0,.59,6.64q1.18,2.51,3.25,2.51a7.34,7.34,0,0,0,3.25-.89,14.32,14.32,0,0,1,6.49-1.47,7.87,7.87,0,0,1,5.31,1.77,6.62,6.62,0,0,1,2.07,5.31q0,5.31-7.23,10.62t-13.72,5.31q-4.43,0-8.11-6.93a112.34,112.34,0,0,1-7.23-17.85L462.37,221l-12.68,12.09-6.78,6.78a71.26,71.26,0,0,0-5.31,5.61q-3.25,5.61-16.22,10.62A27.12,27.12,0,0,1,416.06,256.73Zm23.6-32.45a162.74,162.74,0,0,0,17.11-19.76q9.14-12.09,11.5-23.89a25.15,25.15,0,0,0-3.83-7.08q-2.66-3.54-4.72-3.83-5.9,0-12.39,6.78A193,193,0,0,0,432,195.37l-9.74,14.45q-1.77,2.36-6.19,12.54t-4.42,12.24q0,6.49,3.83,6.49a13.38,13.38,0,0,0,6.78-2.36Q429.34,234.61,439.66,224.28Z" fill="none"/>
    </clipPath>
    <clipPath id="Misa-clip-path-7">
      <path d="M303.38,259.83q-5-4-6.78-6.93v-2.06a1.93,1.93,0,0,1,.88-1.92,8.1,8.1,0,0,1,3.25-.44q5,0,15.93,1.18A77.37,77.37,0,0,0,331.4,248q8.25-1.62,9.14-3.69c.59,0,.88-.1.88-.29q0-.59-2.36-2.95a8.53,8.53,0,0,1-2.65-1,8.73,8.73,0,0,0-2.66-1q0-1.17-2.66-3.1a34.53,34.53,0,0,0-5.9-3.39q-8.56-7.08-12.09-10.47t-2.65-4.87v-1.47q-2.07,0-4.57-5.75a27,27,0,0,1-2.51-10.77q0-5.31,4.57-14.75a55.94,55.94,0,0,1,10.47-15.34,160.32,160.32,0,0,1,21.39-16.22q13.12-8.55,20.8-10.91a26.2,26.2,0,0,1,10-2.07,14.58,14.58,0,0,1,8,2.07,31.7,31.7,0,0,1,7.52,6.78,25.93,25.93,0,0,1,4.87,8,58.29,58.29,0,0,1-1.33,12.54q-1.33,6-4,6a2.31,2.31,0,0,0-.89.29c-.4.2-.59.69-.59,1.47a6.49,6.49,0,0,1-1.18,3.1,15.92,15.92,0,0,1-3.25,3.69q-6.49,4.72-10.62,4.72a3.94,3.94,0,0,1-4.13-3.25,6.68,6.68,0,0,1-1.18-1.77c-.4-.78-.88-1.18-1.48-1.18-.2,0-.54-.34-1-1a4.72,4.72,0,0,1-.74-2.8,3.37,3.37,0,0,1,.74-1.92,12.75,12.75,0,0,1,1-1.33q1.77,0,5.9-6.93t4.13-9.29c0-1.18-.15-1.87-.44-2.06a7.3,7.3,0,0,0-2.8-.29q-23,10.33-28.61,15.63a18,18,0,0,1-1.33,2.36,1.91,1.91,0,0,1-1.62.59q0-2.65-15.63,20.06a9.47,9.47,0,0,0-1.33,3.54,21.21,21.21,0,0,0-.74,5,23.93,23.93,0,0,0-.59,2.66,3.58,3.58,0,0,0,1,2.36,18.23,18.23,0,0,0,2.8,2.51q1.77,1.33,3.54,2.8,15.34,11.5,21.39,17.26t7.23,9.59q3.83,5.9,3.83,10.62a8.49,8.49,0,0,1-2.66,6.19,26.46,26.46,0,0,1-8,5q-3.25,1.48-10.91,2.51a113.07,113.07,0,0,1-15,1,71.8,71.8,0,0,1-8.85-.59A39.74,39.74,0,0,1,303.38,259.83Z" fill="none"/>
    </clipPath>
    <clipPath id="Misa-clip-path-8">
      <path d="M239.66,243.45a15.65,15.65,0,0,1,1.47-7.08,13.11,13.11,0,0,1,.59-3.54,13.33,13.33,0,0,0,.59-2.66q-.3-1.77,2.36-9.73,5.31-11.79,14.16-41.59a3.22,3.22,0,0,1,1.18-2.51,6.54,6.54,0,0,1,3.54-1.33,16.37,16.37,0,0,1,3.24-.59,4.24,4.24,0,0,1,3.1,1.33,35.29,35.29,0,0,1,3.69,4.87,7.21,7.21,0,0,1,1.77,5.31q0,5.61-3.83,13.57a68.61,68.61,0,0,0-5,14.75A129.2,129.2,0,0,0,260.9,229q-.59,1.77-1.77,7.08a26.94,26.94,0,0,1-3.25,8.55,63.61,63.61,0,0,1-3.25,11.5q-1.48,3.25-3.24,3.25-2.07,0-5.6-4.13Q239.66,251.13,239.66,243.45Zm29.2-115q-1.48-5,0-5,2.36-.29,5.46-5.16t2.8-8.11a3.36,3.36,0,0,1,.88-2.21,4,4,0,0,1,2.06-1.33,8.12,8.12,0,0,1,4.13-1.48q5,0,9.14,7.08a16.56,16.56,0,0,1,1.77,6.78,11.69,11.69,0,0,1-1.48,5.46,42.06,42.06,0,0,1-5.31,7.23q-5,6.79-9.44,6.79-3,0-6.49-3Q270.34,133.43,268.87,128.41Z" fill="none"/>
    </clipPath>
    <clipPath id="Misa-clip-path-9">
      <path d="M188.64,280a7.47,7.47,0,0,1-3.54-1.18,8.57,8.57,0,0,1-3.25-3.25,29,29,0,0,1-2.36-12.39l.29-12.09q9.14-53.69,21.53-108,4.13-14.45,6.93-27.43t3.39-16.52c0-.59-.54-.34-1.62.74a25,25,0,0,0-3.1,3.83q-1.48,2.21-1.18,3.1l-7.37,10.91q-1.77,1.77-8.26,13.57a117,117,0,0,1-8,14.75l-8.26,15.63q-9.15,16.81-11.21,20.35a175.23,175.23,0,0,0-8.55,15.34q-3,7.08-10.62,16.81a80.33,80.33,0,0,0-4.57,7.08q-2.21,3.84-2.8,5,0,1.48-6,10A159.74,159.74,0,0,1,119,250.53a82.69,82.69,0,0,1-11.21,10.18q-4.42,3.1-8.26,3.1-5,0-10.91-5.6a23.76,23.76,0,0,1-5.46-9.74,50.52,50.52,0,0,1-1.62-13.86q0-7.37,2.06-24.78.29-1.47,5.6-31.56,5.6-30.38,6.78-33.33a25.75,25.75,0,0,0,.29-4.13q0-2.65-.89-2.65T92.18,142q-.88,1.18-10.47,16.52T61.2,197.73Q44.09,229.3,35.83,245.08T23.74,267.64q-5,9.73-5.9,10.62-4.42,0-11.21-7.37a7.35,7.35,0,0,1-.89-3.24q0-2.07,1.92-6.79t5.46-12.39q9.14-18,12.09-20.35a20.55,20.55,0,0,0,4.13-10.32q3.83-5.31,10.91-19.17,4.42-7.08,10.47-17.7T61.5,160.56l8.26-14.45q11.5-20.06,18.44-31t10.47-14.46q4.72-5.6,4.72-8.85a25.63,25.63,0,0,1,2.51-11.36q2.5-5.16,5.16-4.57a18.69,18.69,0,0,1,5.75.74,10.67,10.67,0,0,1,4.57,3.69q.59.88,1.92,2.8a16.37,16.37,0,0,1,2.06,4.13,17.55,17.55,0,0,1,.74,5.46,55.64,55.64,0,0,1-.88,8.85q-.3,3.84-2.36,17.4a67.22,67.22,0,0,0-1.18,8Q114,150.24,108,185.19t-6,49.12a11.08,11.08,0,0,0,.59,4.42q2.06,1.48,3.69.29t4.87-7.67q3.83-7.08,13-18.29.59-.88,11.5-19.47,27.14-44.54,52.8-89.38L196,92.13Q200.44,85,204.57,79t6.49-7.82a9.15,9.15,0,0,1,5.6-2.36q5.6,0,10,6.79t4.42,17.11q0,8-3.24,24.34a295.34,295.34,0,0,1-8.55,32.89q-1.77,8.26-5,20.65T207.52,193a122.57,122.57,0,0,1-2.36,12.68q-.3,1.48-1.62,9t-.74,10.18q-4.42,8-4.42,31.86l-.88,6.79a109.69,109.69,0,0,1-1.18,11.21q-.59,2.95-1.77,2.66a4.1,4.1,0,0,0-1.77-.29q-2.07,0-2.06,1.77C190.7,279.64,190,280,188.64,280Z" fill="none"/>
    </clipPath>
  </defs>
  <desc id="misa_name_description">Name: Misa Amane</desc>
  <g id="Misa_name">
    <g id="Misa_mask_e">
      <g clip-path="url(#Misa-clip-path-1)">
        <path id="Misa_e2" d="M1183.5,193.5c-8.78,28.26-5.36,50,16,62,13.36-1.34,29.32-10.92,47-26" fill="none" stroke="#000" stroke-width="24"/>
        <path id="Misa_e1" d="M1183.5,193.5c12.52,8.8,25.82,12,40,9,12.43-6.57,18.3-16.48,23-27-2.74-11.72-11.15-17.64-24-19C1209.19,164,1196.21,176.51,1183.5,193.5Z" fill="none" stroke="#000" stroke-width="23"/>
      </g>
    </g>
    <g id="Misa_mask_n">
      <g clip-path="url(#Misa-clip-path-2)">
        <path id="Misa_n" d="M1086.5,146.5a570.15,570.15,0,0,0-47,105,521.33,521.33,0,0,1,72-59c7.66,13.63,9.79,31.14,10,50l36-17" fill="none" stroke="#000" stroke-width="29"/>
      </g>
    </g>
    <g id="Misa_mask_a_third">
      <g clip-path="url(#Misa-clip-path-3)">
        <path id="Misa_a_5" d="M991.5,192.5c-1.95-17.55-10.13-25.78-21-30-21.31,19.23-38.38,43.19-52,71-.13,9.91,6.3,15,17,17C959.84,235.11,977.43,215,991.5,192.5Z" fill="none" stroke="#000" stroke-width="26"/>
        <path id="Misa_a_4" d="M991.5,192.5q-14.8,39.07,3,56c13.29.45,25.34-7.92,37-19" fill="none" stroke="#000" stroke-width="26"/>
      </g>
    </g>
    <g id="Misa_mask_m">
      <g clip-path="url(#Misa-clip-path-4)">
        <path id="Misa_m" d="M738.5,174.5l37-12c1,22.1-16,58.45-37,98,25.27-42.36,50.89-71,77-81,4.23,22.62-2.68,48.92-15,77,19.11-35.81,38.07-67.25,56-70a246.53,246.53,0,0,1,0,69l48-39" fill="none" stroke="#000" stroke-width="28"/>
      </g>
    </g>
    <g id="Misa_mask_a_second">
      <g clip-path="url(#Misa-clip-path-5)">
        <path id="Misa_a_3" d="M570.5,277.5c44.49-86.86,93.79-169.32,138-213l-16,213" fill="none" stroke="#000" stroke-width="30"/>
        <line id="Misa_a_4-2" data-name="Misa_a_4" x1="699.5" y1="179.5" x2="620.5" y2="186.5" fill="none" stroke="#000" stroke-width="21"/>
      </g>
    </g>
    <g id="Misa_mask_a_first">
      <g clip-path="url(#Misa-clip-path-6)">
        <path id="Misa_a_2" d="M475.5,174.5c.77,24.41-7.48,66,0,69,12.39,5,33-13,33-13" fill="none" stroke="#000" stroke-width="27"/>
        <path id="Misa_a_1" d="M475.5,174.5c-3.76-10.86-10.83-16.19-20-18-19.35,20.56-37.47,47.32-54,82,5.09,6.12,12,10.53,22,12C443.77,233.07,460.48,206.05,475.5,174.5Z" fill="none" stroke="#000" stroke-width="21"/>
      </g>
    </g>
    <g id="Misa_mask_s">
      <g clip-path="url(#Misa-clip-path-7)">
        <path id="Misa_s" d="M371.5,192.5s16-29,9-44-81,37-69,56,40,37,38,48-57,11-57,11" fill="none" stroke="#000" stroke-width="36"/>
      </g>
    </g>
    <g id="Misa_mask_i">
      <g clip-path="url(#Misa-clip-path-8)">
        <line id="misa_i_2" x1="272.5" y1="166.5" x2="239.5" y2="263.5" fill="none" stroke="#000" stroke-width="27"/>
        <line id="misa_i_1" x1="296.5" y1="101.5" x2="268.5" y2="138.5" fill="none" stroke="#000" stroke-width="28"/>
      </g>
    </g>
    <g id="Misa_mask_m-2" data-name="Misa_mask_m">
      <g clip-path="url(#Misa-clip-path-9)">
        <path id="Misa_M-2" data-name="Misa_M" d="M5.5,285.5C46,208,85.71,136.7,124.5,73.5c-20.15,58.21-30.65,127-31,207q63.62-112.11,135-216l-43,221" fill="none" stroke="#000" stroke-width="26"/>
      </g>
    </g>
  </g>
</svg>
