<svg id="Assets" xmlns="http://www.w3.org/2000/svg" width="617" height="528" viewBox="0 0 617 528">
  <defs>
    <filter id="dropshadow">
      <feGaussianBlur in="SourceAlpha" stdDeviation="10"/>
      <feOffset dx="10" dy="10" result="offsetblur"/>
      <feComponentTransfer>
        <feFuncA type="linear" slope=".5"/>
      </feComponentTransfer>
      <feMerge>
        <feMergeNode/>
        <feMergeNode in="SourceGraphic"/>
      </feMerge>
    </filter>
  </defs>

  <title>Music_knap_on</title>
  <g>
    <path style="filter: url('#dropshadow')" d="M222.55,349.21a2.54,2.54,0,0,1-1.2-.4,2.9,2.9,0,0,1-1.1-1.1,9.83,9.83,0,0,1-.8-4.2l.1-4.1q3.1-18.2,7.3-36.6,1.4-4.9,2.35-9.3t1.15-5.6c0-.2-.18-.12-.55.25a8.47,8.47,0,0,0-1.05,1.3q-.5.75-.4,1l-2.5,3.7a31.7,31.7,0,0,0-2.8,4.6,39.64,39.64,0,0,1-2.7,5l-2.8,5.3q-3.1,5.7-3.8,6.9a59.49,59.49,0,0,0-2.9,5.2,25.82,25.82,0,0,1-3.6,5.7,27.28,27.28,0,0,0-1.55,2.4q-.75,1.3-1,1.7,0,.5-2,3.4a54.26,54.26,0,0,1-3.75,4.8,28.07,28.07,0,0,1-3.8,3.45,5,5,0,0,1-2.8,1,5.66,5.66,0,0,1-3.7-1.9,8,8,0,0,1-1.85-3.3,17.12,17.12,0,0,1-.55-4.7,82,82,0,0,1,.7-8.4q.1-.5,1.9-10.7t2.3-11.3a8.76,8.76,0,0,0,.1-1.4q0-.9-.3-.9t-1.1,1.3q-.3.4-3.55,5.6a118,118,0,0,0-7,13.3q-5.8,10.7-8.6,16t-4.1,7.65a30.66,30.66,0,0,1-2,3.6q-1.5,0-3.8-2.5a2.48,2.48,0,0,1-.3-1.1,7.16,7.16,0,0,1,.65-2.3q.65-1.6,1.85-4.2,3.1-6.1,4.1-6.9a7,7,0,0,0,1.4-3.5,56,56,0,0,0,3.7-6.5q1.5-2.4,3.55-6t3.65-6.9l2.8-4.9q3.9-6.8,6.25-10.5a32.49,32.49,0,0,1,3.55-4.9,5.47,5.47,0,0,0,1.6-3,8.7,8.7,0,0,1,.85-3.85q.85-1.75,1.75-1.55a6.32,6.32,0,0,1,2,.25,3.61,3.61,0,0,1,1.55,1.25l.65,1a5.54,5.54,0,0,1,.7,1.4,6,6,0,0,1,.25,1.85,19,19,0,0,1-.3,3q-.1,1.3-.8,5.9a22.86,22.86,0,0,0-.4,2.7,141.7,141.7,0,0,0-4.65,19.75q-2.05,11.85-2,16.65a3.75,3.75,0,0,0,.2,1.5,1,1,0,0,0,1.25.1,8.77,8.77,0,0,0,1.65-2.6,43.05,43.05,0,0,1,4.4-6.2q.2-.3,3.9-6.6,9.2-15.1,17.9-30.3l2.6-4.1q1.5-2.4,2.9-4.45a12.19,12.19,0,0,1,2.2-2.65,3.1,3.1,0,0,1,1.9-.8q1.9,0,3.4,2.3a10.42,10.42,0,0,1,1.5,5.8,47.17,47.17,0,0,1-1.1,8.25,100,100,0,0,1-2.9,11.15q-.6,2.8-1.7,7t-2.3,7.6a41.3,41.3,0,0,1-.8,4.3q-.1.5-.55,3a10.67,10.67,0,0,0-.25,3.45q-1.5,2.7-1.5,10.8l-.3,2.3a37.26,37.26,0,0,1-.4,3.8q-.2,1-.6.9a1.39,1.39,0,0,0-.6-.1q-.7,0-.7.6C223.25,349.08,223,349.21,222.55,349.21Z" fill="#fff"/>
    <path style="filter: url('#dropshadow')" d="M258.45,337a7.5,7.5,0,0,1-.2-2.1v-2.1a6.39,6.39,0,0,1-2.2,2.7,17,17,0,0,1-4.6,3.4q-3.5,2.3-5.7,2.3A5,5,0,0,1,242,339a8.86,8.86,0,0,1-2-2.2,5.22,5.22,0,0,1-.65-2.7,10.72,10.72,0,0,1,.3-2.4,37.5,37.5,0,0,1,1-7.1,54,54,0,0,1,3.25-8.7q3.2-6.3,4.6-8.4a3.55,3.55,0,0,1,1.3-.2,2.34,2.34,0,0,1,1.65.6,2.42,2.42,0,0,1,.75,1.6,1.8,1.8,0,0,1,.3,1.1q0,2.5-3,8.2-3.9,9.4-3.9,13,0,2.1,1.2,2.5a2.1,2.1,0,0,0,1.1.3q2.5,0,6-3.4t6.7-10.9a23.4,23.4,0,0,0,1.7-7,3,3,0,0,1-.1-.9,3.3,3.3,0,0,1,1.8-2.9,2.78,2.78,0,0,1,1.1-1q.7-.35.9,0l1.6-.1q.3-.1.6.55a2,2,0,0,0,.6.85,2.81,2.81,0,0,1,.7,2.2q0,3.3-2.9,10.1a48.21,48.21,0,0,0-2.55,6.15,17.23,17.23,0,0,0-.75,4.15,8,8,0,0,0,2.9,6.3,2.75,2.75,0,0,1,1.2,1.5,7.39,7.39,0,0,1,.1,2.2A2.23,2.23,0,0,1,266.4,344a4,4,0,0,1-2,.55,3.91,3.91,0,0,1-2.3-.7A14.3,14.3,0,0,1,258.45,337Z" fill="#fff"/>
    <path style="filter: url('#dropshadow')" d="M277.75,342.36a9.8,9.8,0,0,1-2.3-2.35v-.7a.65.65,0,0,1,.3-.65,2.74,2.74,0,0,1,1.1-.15q1.7,0,5.4.4a26.22,26.22,0,0,0,5-.55q2.8-.55,3.1-1.25c.2,0,.3,0,.3-.1s-.27-.47-.8-1a2.88,2.88,0,0,1-.9-.35,3,3,0,0,0-.9-.35q0-.4-.9-1a11.78,11.78,0,0,0-2-1.15q-2.9-2.4-4.1-3.55t-.9-1.65v-.5q-.7,0-1.55-2a9.16,9.16,0,0,1-.85-3.65,12.6,12.6,0,0,1,1.55-5,19,19,0,0,1,3.55-5.2,54.35,54.35,0,0,1,7.25-5.5,31,31,0,0,1,7-3.7,8.88,8.88,0,0,1,3.4-.7,4.94,4.94,0,0,1,2.7.7,10.74,10.74,0,0,1,2.55,2.3,8.78,8.78,0,0,1,1.65,2.7,19.71,19.71,0,0,1-.45,4.25q-.45,2.05-1.35,2a.78.78,0,0,0-.3.1c-.13.07-.2.23-.2.5a2.2,2.2,0,0,1-.4,1,5.37,5.37,0,0,1-1.1,1.25,6.76,6.76,0,0,1-3.6,1.6,1.34,1.34,0,0,1-1.4-1.1,2.25,2.25,0,0,1-.4-.6c-.13-.27-.3-.4-.5-.4s-.18-.12-.35-.35a1.6,1.6,0,0,1-.25-1,1.14,1.14,0,0,1,.25-.65,4.38,4.38,0,0,1,.35-.45q.6,0,2-2.35a8.46,8.46,0,0,0,1.4-3.15c0-.4,0-.63-.15-.7a2.48,2.48,0,0,0-.95-.1q-7.8,3.5-9.7,5.3a6.18,6.18,0,0,1-.45.8.65.65,0,0,1-.55.2q0-.9-5.3,6.8a3.19,3.19,0,0,0-.45,1.2,7.2,7.2,0,0,0-.25,1.7,8,8,0,0,0-.2.9,1.21,1.21,0,0,0,.35.8,6.22,6.22,0,0,0,1,.85q.6.45,1.2,1a90.85,90.85,0,0,1,7.25,5.85,8.79,8.79,0,0,1,2.45,3.25,6.82,6.82,0,0,1,1.3,3.6,2.88,2.88,0,0,1-.9,2.1,9,9,0,0,1-2.7,1.7,14.53,14.53,0,0,1-3.7.85,38.38,38.38,0,0,1-5.1.35,24.35,24.35,0,0,1-3-.2A13.49,13.49,0,0,1,277.75,342.36Z" fill="#fff"/>
    <path style="filter: url('#dropshadow')" d="M311.8,339a9.17,9.17,0,0,1-1.35-3.8q.4-3.8.6-5.4.8-3.7,2.55-10.15t2.15-7.25a1,1,0,0,1,.9-.5,2.66,2.66,0,0,1,1.3.4,5.75,5.75,0,0,1,1.2.9,4.15,4.15,0,0,1,.8,2.5q0,2.1-2,8.8-1.4,5-1.8,7.1a19.61,19.61,0,0,0-.3,4.5q-.1.7-.35,2.35a9.25,9.25,0,0,1-.45,2,.64.64,0,0,1-.6.4A3.22,3.22,0,0,1,311.8,339Zm13.35-37.7a2.92,2.92,0,0,1-1.3-.6A5.25,5.25,0,0,1,321.2,299q-1.65-1.65-1.65-2.15a10,10,0,0,1,.6-4.3,3.12,3.12,0,0,1,2.9-2.4,3,3,0,0,1,.8.15q.5.15,1.7.65l.85,1.7a15.2,15.2,0,0,1,1,2.5,8,8,0,0,1,.35,2.2,4.16,4.16,0,0,1-2,3.7A.86.86,0,0,1,325.15,301.31Z" fill="#fff"/>
    <path style="filter: url('#dropshadow')" d="M334.35,341.36a7.08,7.08,0,0,1-2.3-1.55,11.67,11.67,0,0,0-2-3,10.25,10.25,0,0,1-.4-3.3,27.54,27.54,0,0,1,.6-5.45,34.67,34.67,0,0,1,1.6-5.55,13.87,13.87,0,0,0,.65-1.5q.25-.7.35-.9,0-.7,2.55-4.35a34.56,34.56,0,0,1,4-5,9.58,9.58,0,0,1,2.15-1.7,14.13,14.13,0,0,1,2.55-1.3,14.89,14.89,0,0,1,4.9-1,5.93,5.93,0,0,1,4.9,2.7,6.79,6.79,0,0,1,2.2,4.9,9.17,9.17,0,0,1-.3,2.2q-1,4-2.9,4a3.3,3.3,0,0,1-2.5-1.5,4.79,4.79,0,0,1-.4-1.3,9.84,9.84,0,0,1,.4-1.7,8.47,8.47,0,0,0,.2-1.4,5.15,5.15,0,0,0-.4-2.1q-.4-.9-1.1-.9-2.3,0-6,4a40.1,40.1,0,0,0-3.35,4.4,30.82,30.82,0,0,0-3,5.4q-1,3-1.6,4.9t-.8,2.4a1.92,1.92,0,0,0,.25.7,2,2,0,0,1,.25.8,1.79,1.79,0,0,0,.3,1.1,3.08,3.08,0,0,0,1.1.8,4.29,4.29,0,0,0,2.6.8,8.82,8.82,0,0,0,3.7-1,19.25,19.25,0,0,0,3.7-2.6l2.4-1.8q.7-.5,1.25-.85c.37-.23.65-.4.85-.5s.3-.08.3,0,.1.4.3.4a1.1,1.1,0,0,0,.7-.4,2.76,2.76,0,0,1,2.3-1.2c.53,0,.8.1.8.3l-.1.5a1.43,1.43,0,0,0,.5,1,3.11,3.11,0,0,1-.25,1,3,3,0,0,1-.65,1.05,11.7,11.7,0,0,1-2,2.15q-1.45,1.25-2,1.65h-.1q-.5,0-1.4.9a4.19,4.19,0,0,1-2.6,1.4l-.9.45c-.33.17-.5.35-.5.55a5.06,5.06,0,0,1-2.4,1.35,19.21,19.21,0,0,1-4.3.35A15.05,15.05,0,0,1,334.35,341.36Z" fill="#fff"/>
    <path style="filter: url('#dropshadow')" d="M390.15,341.76a7.65,7.65,0,0,1-1.3-3.85,10.79,10.79,0,0,1-.1-1.8,61,61,0,0,1,.5-7q.5-4.2,1-6.7a1.8,1.8,0,0,0,.45-1.2,2.62,2.62,0,0,0,0-1,12.55,12.55,0,0,1,.5-2,57.27,57.27,0,0,0,1.7-6.2,86.3,86.3,0,0,1,5.3-13.1,71.42,71.42,0,0,1,5.8-9.2q4.3-4.4,6.75-6.45a24.86,24.86,0,0,1,5.45-3.45q3.9-2.3,5.6-2.3a3.2,3.2,0,0,1,.9.2q5.6,1.2,8.4,4.55t4.1,10.35a69,69,0,0,1,.9,9.2,30.19,30.19,0,0,1-1.8,10.1,72.22,72.22,0,0,1-6.5,12.8,55.67,55.67,0,0,1-12.75,17q-7.35,6.4-13.85,6.4a10.66,10.66,0,0,1-6.4-2.1A24,24,0,0,1,390.15,341.76Zm17.45-1.3a51,51,0,0,0,7.55-7.45q3.9-4.5,5.55-6.8a26.59,26.59,0,0,0,3-5.5q1.3-3.2,3.2-9.8a66.59,66.59,0,0,0,1.45-6.55,39,39,0,0,0,.35-5.65l-.1-6.5a14.25,14.25,0,0,0-.7-3.55,7.78,7.78,0,0,0-1.4-2.75,5,5,0,0,0-3.9-1.7,6.42,6.42,0,0,0-2.9.7q-1.9.8-5.6,4.65a75.76,75.76,0,0,0-6.65,7.9q-3,4.05-3,5.25a5.08,5.08,0,0,1-.1.6,2.18,2.18,0,0,1-.4.9q-1.7,1.8-3.8,7.3a104.05,104.05,0,0,0-3.7,11.9,56.43,56.43,0,0,0-1.8,10.7l-.2,3.4a5.12,5.12,0,0,0,.15,1.4,3.74,3.74,0,0,0,.65,1.15,12.25,12.25,0,0,1,.9,1.35,3.52,3.52,0,0,0,1.6,1.3,5.48,5.48,0,0,0,2.3.5,4.72,4.72,0,0,0,1.1-.1A13.4,13.4,0,0,0,407.6,340.46Z" fill="#fff"/>
    <path style="filter: url('#dropshadow')" d="M440.6,339.11a8,8,0,0,1-1.25-1,2.86,2.86,0,0,1-.85-1.5,26.74,26.74,0,0,1-.15-3.7,21.38,21.38,0,0,1,1.25-6.8q1.25-3.7,4.45-10.7l3.3-7a9.26,9.26,0,0,1,1.4-2h1a2.32,2.32,0,0,1,1.55.9,5.63,5.63,0,0,1,1.25,2.1,9.76,9.76,0,0,1-.45,3,14.92,14.92,0,0,1-2.35,3.9,24.38,24.38,0,0,0-1.9,3.8,26.31,26.31,0,0,0-1.5,4.4,11.48,11.48,0,0,0-.75,1.7q-.45,1.2-1,2.5l-.5,2.2,6.7-6.9a65.71,65.71,0,0,1,7.15-6.4q2.75-2,4.55-2,2.1,0,3.4,2.7a14.29,14.29,0,0,1,1.2,2.35,8.57,8.57,0,0,1,.3,2.65q0,.6-.2,3.4v6.2a13.37,13.37,0,0,0,2.55-.8c.77-.33,1.35-.57,1.75-.7a15.49,15.49,0,0,1,5.1-1.2,8.87,8.87,0,0,1-1.5,3.7,12.28,12.28,0,0,1-3.2,3.35,6.41,6.41,0,0,1-3.7,1.35,4.69,4.69,0,0,1-3-1.3,7.94,7.94,0,0,1-2.25-2.9,8.73,8.73,0,0,1-.45-2.7q-.05-1.6-.05-4.5v-3.7q0-1-.6-1a5.25,5.25,0,0,0-1.9,1.2q-2,1.8-6.5,6.5a71.9,71.9,0,0,1-7.45,7q-3.15,2.45-4.35,2.45A2.45,2.45,0,0,1,440.6,339.11Z" fill="#fff"/>
  </g>
  <path style="filter: url('#dropshadow')" id="Apple_1" d="M283.09,158c-40.14-16.85-84.58-5.38-125.68,18.77-39.84,17-70.4,70.4-70.4,129.33s37,112.12,54,127.51,77.44,63.36,129.33,68.84,84.78.36,126.2-13c34.2-12.95,66.69-31.45,96-60.49,24.89-21.15,39.67-53.74,46.41-95.44,7.12-24.89,6.52-55,0-83.44s-22.16-54.5-49.54-75.1-47.58-28.56-72-32.33c-34.87-1.66-67.44,1.07-95.89,17.45l10-88.82a.23.23,0,0,0-.46-.07l-6.5,38.05c-48-49-103.51-52.91-106.65-50.33" fill="none" stroke="#fff" stroke-miterlimit="10" stroke-width="19"/>
  <path style="filter: url('#dropshadow')" id="Apple_2" d="M278,102c.87,5.73-56.18,24.85-87.93-4.48s-56.27-21.21-77.91-49.06c41.69-20.49,103-28.92,131.25-24.5s52.86,36,52.86,36" fill="none" stroke="#fff" stroke-miterlimit="10" stroke-width="15"/>
</svg>
