<svg id="Assets" xmlns="http://www.w3.org/2000/svg" width="150" height="150" viewBox="0 0 617 528" aria-labelledby="music_name_description">
  <desc id="music_name_description">Toggle music button</desc>
  <path id="Apple_1" d="M283.09,158c-40.14-16.85-84.58-5.38-125.68,18.77-39.84,17-70.4,70.4-70.4,129.33s37,112.12,54,127.51,77.44,63.36,129.33,68.84,84.78.36,126.2-13c34.2-12.95,66.69-31.45,96-60.49,24.89-21.15,39.67-53.74,46.41-95.44,7.12-24.89,6.52-55,0-83.44s-22.16-54.5-49.54-75.1-47.58-28.56-72-32.33c-34.87-1.66-67.44,1.07-95.89,17.45l10-88.82a.23.23,0,0,0-.46-.07l-6.5,38.05c-48-49-103.51-52.91-106.65-50.33" fill="none" stroke="#fff" stroke-miterlimit="10" stroke-width="19"/>
  <path id="Apple_2" d="M278,102c.87,5.73-56.18,24.85-87.93-4.48s-56.27-21.21-77.91-49.06c41.69-20.49,103-28.92,131.25-24.5s52.86,36,52.86,36" fill="none" stroke="#fff" stroke-miterlimit="10" stroke-width="15"/>
  <g>
    <path d="M244,358.35a4.51,4.51,0,0,1-2.14-.71,5.17,5.17,0,0,1-2-2,17.51,17.51,0,0,1-1.42-7.48l.18-7.31q5.52-32.43,13-65.22,2.49-8.73,4.19-16.57t2-10c0-.36-.33-.21-1,.45a15.07,15.07,0,0,0-1.87,2.32q-.9,1.34-.71,1.87l-4.46,6.59q-1.07,1.07-5,8.2a70.55,70.55,0,0,1-4.81,8.91l-5,9.45q-5.53,10.16-6.77,12.3a105.59,105.59,0,0,0-5.17,9.27,46,46,0,0,1-6.42,10.16,48.33,48.33,0,0,0-2.76,4.28q-1.34,2.32-1.69,3,0,.89-3.65,6.06a96.56,96.56,0,0,1-6.68,8.55,49.9,49.9,0,0,1-6.77,6.15,8.86,8.86,0,0,1-5,1.87q-3,0-6.59-3.39a14.35,14.35,0,0,1-3.3-5.88,30.51,30.51,0,0,1-1-8.37,146.13,146.13,0,0,1,1.25-15q.18-.89,3.39-19.07,3.38-18.35,4.1-20.14a15.64,15.64,0,0,0,.18-2.5q0-1.6-.53-1.6t-2,2.32q-.53.71-6.33,10A210.57,210.57,0,0,0,167,308.63q-10.34,19.07-15.33,28.6t-7.31,13.63a54.79,54.79,0,0,1-3.56,6.42q-2.67,0-6.77-4.46a4.44,4.44,0,0,1-.54-2,12.77,12.77,0,0,1,1.16-4.1q1.16-2.85,3.3-7.49,5.52-10.87,7.31-12.3a12.41,12.41,0,0,0,2.5-6.24,100,100,0,0,0,6.59-11.58q2.67-4.28,6.33-10.69t6.5-12.3l5-8.73q7-12.12,11.14-18.71a58,58,0,0,1,6.33-8.73q2.85-3.38,2.85-5.35A15.48,15.48,0,0,1,194,237.8q1.51-3.12,3.12-2.76a11.3,11.3,0,0,1,3.48.45,6.46,6.46,0,0,1,2.76,2.23l1.16,1.69a9.85,9.85,0,0,1,1.25,2.5,10.6,10.6,0,0,1,.45,3.3,33.59,33.59,0,0,1-.54,5.35q-.18,2.32-1.42,10.51a40.48,40.48,0,0,0-.71,4.81,252.29,252.29,0,0,0-8.29,35.2q-3.65,21.12-3.65,29.67a6.7,6.7,0,0,0,.36,2.67,1.77,1.77,0,0,0,2.23.18q1-.71,2.94-4.63a76.76,76.76,0,0,1,7.84-11q.35-.53,6.95-11.76,16.39-26.91,31.9-54l4.63-7.31q2.67-4.28,5.17-7.93a21.72,21.72,0,0,1,3.92-4.72,5.53,5.53,0,0,1,3.39-1.43q3.38,0,6.06,4.1a18.57,18.57,0,0,1,2.67,10.34,84,84,0,0,1-2,14.7,178.31,178.31,0,0,1-5.17,19.87q-1.07,5-3,12.47t-4.1,13.54a74,74,0,0,1-1.42,7.66q-.18.89-1,5.44t-.45,6.15q-2.67,4.81-2.67,19.25l-.53,4.1a66.2,66.2,0,0,1-.71,6.77q-.36,1.78-1.07,1.6a2.47,2.47,0,0,0-1.07-.18q-1.25,0-1.25,1.07C245.28,358.12,244.86,358.35,244,358.35Z" fill="#fff"/>
    <path d="M308,336.61a13.3,13.3,0,0,1-.36-3.74v-3.74a11.39,11.39,0,0,1-3.92,4.81,30.29,30.29,0,0,1-8.2,6.06q-6.24,4.1-10.16,4.1-3.57,0-6.77-3.92a15.76,15.76,0,0,1-3.48-3.92,9.29,9.29,0,0,1-1.16-4.81,19.14,19.14,0,0,1,.54-4.28,66.82,66.82,0,0,1,1.87-12.65,96.31,96.31,0,0,1,5.79-15.5q5.7-11.23,8.2-15a6.34,6.34,0,0,1,2.32-.36,4.17,4.17,0,0,1,2.94,1.07,4.32,4.32,0,0,1,1.34,2.85,3.21,3.21,0,0,1,.53,2q0,4.46-5.35,14.61-7,16.75-7,23.17,0,3.74,2.14,4.46a3.74,3.74,0,0,0,2,.54q4.45,0,10.69-6.06t11.94-19.42a41.66,41.66,0,0,0,3-12.47,5.36,5.36,0,0,1-.18-1.6,5.88,5.88,0,0,1,3.21-5.17,5,5,0,0,1,2-1.69q1.25-.62,1.6.09l2.85-.18q.53-.18,1.07,1a3.64,3.64,0,0,0,1.07,1.51q1.25,1.07,1.25,3.92,0,5.88-5.17,18a86.24,86.24,0,0,0-4.54,11,30.73,30.73,0,0,0-1.34,7.4,14.18,14.18,0,0,0,5.17,11.23,4.9,4.9,0,0,1,2.14,2.67,13.16,13.16,0,0,1,.18,3.92,4,4,0,0,1-2,2.58,7.2,7.2,0,0,1-3.65,1,7,7,0,0,1-4.1-1.25Q310.15,344.63,308,336.61Z" fill="#fff"/>
    <path d="M342.4,346.15a17.45,17.45,0,0,1-4.1-4.19v-1.25a1.17,1.17,0,0,1,.53-1.16,4.9,4.9,0,0,1,2-.27q3,0,9.62.71a46.72,46.72,0,0,0,8.91-1q5-1,5.52-2.23c.36,0,.53-.06.53-.18s-.48-.83-1.42-1.78a5.15,5.15,0,0,1-1.6-.62,5.27,5.27,0,0,0-1.6-.62q0-.71-1.6-1.87a20.85,20.85,0,0,0-3.56-2q-5.17-4.28-7.31-6.33t-1.6-2.94v-.89q-1.25,0-2.76-3.48a16.32,16.32,0,0,1-1.51-6.5q0-3.21,2.76-8.91a33.81,33.81,0,0,1,6.33-9.27,96.85,96.85,0,0,1,12.92-9.8q7.93-5.17,12.56-6.59a15.82,15.82,0,0,1,6.06-1.25,8.81,8.81,0,0,1,4.81,1.25,19.15,19.15,0,0,1,4.54,4.1,15.68,15.68,0,0,1,2.94,4.81,35.23,35.23,0,0,1-.8,7.57q-.8,3.65-2.41,3.65a1.38,1.38,0,0,0-.53.18c-.24.12-.36.42-.36.89a3.92,3.92,0,0,1-.71,1.87,9.63,9.63,0,0,1-2,2.23q-3.92,2.85-6.42,2.85a2.38,2.38,0,0,1-2.5-2,4.09,4.09,0,0,1-.71-1.07c-.24-.47-.53-.71-.89-.71-.12,0-.33-.21-.62-.62a2.85,2.85,0,0,1-.45-1.69,2,2,0,0,1,.45-1.16,7.52,7.52,0,0,1,.62-.8q1.07,0,3.56-4.19t2.5-5.61c0-.71-.09-1.13-.27-1.25a4.42,4.42,0,0,0-1.69-.18q-13.9,6.24-17.29,9.45a10.9,10.9,0,0,1-.8,1.42,1.15,1.15,0,0,1-1,.36q0-1.6-9.45,12.12a5.73,5.73,0,0,0-.8,2.14,12.82,12.82,0,0,0-.45,3A14.48,14.48,0,0,0,352,314a2.16,2.16,0,0,0,.62,1.43,11.09,11.09,0,0,0,1.69,1.51q1.07.8,2.14,1.69A162,162,0,0,1,369.4,329q3.65,3.47,4.37,5.79a12.14,12.14,0,0,1,2.32,6.42,5.13,5.13,0,0,1-1.6,3.74,16,16,0,0,1-4.81,3,25.82,25.82,0,0,1-6.59,1.51,68.26,68.26,0,0,1-9.09.62,43.44,43.44,0,0,1-5.35-.36A24,24,0,0,1,342.4,346.15Z" fill="#fff"/>
    <path d="M403.08,340.18a16.33,16.33,0,0,1-2.41-6.77q.71-6.77,1.07-9.62,1.42-6.59,4.54-18.09t3.83-12.92a1.75,1.75,0,0,1,1.6-.89,4.74,4.74,0,0,1,2.32.71,10.2,10.2,0,0,1,2.14,1.6,7.39,7.39,0,0,1,1.43,4.46q0,3.74-3.56,15.68-2.5,8.91-3.21,12.65a34.92,34.92,0,0,0-.54,8q-.18,1.25-.62,4.19a16.46,16.46,0,0,1-.8,3.65,1.14,1.14,0,0,1-1.07.71Q405.13,343.56,403.08,340.18ZM426.87,273a5.2,5.2,0,0,1-2.32-1.07q-1.78-.17-4.72-3.12T416.89,265a17.82,17.82,0,0,1,1.07-7.66q1.42-4.1,5.17-4.28a5.26,5.26,0,0,1,1.43.27q.89.27,3,1.16l1.51,3a27,27,0,0,1,1.78,4.46,14.14,14.14,0,0,1,.62,3.92,7.41,7.41,0,0,1-3.56,6.59A1.54,1.54,0,0,1,426.87,273Z" fill="#fff"/>
    <path d="M443.26,344.37a12.63,12.63,0,0,1-4.1-2.76,20.86,20.86,0,0,0-3.56-5.35,18.21,18.21,0,0,1-.71-5.88,49,49,0,0,1,1.07-9.71,61.82,61.82,0,0,1,2.85-9.89A24.63,24.63,0,0,0,440,308.1q.44-1.25.62-1.6,0-1.24,4.54-7.75a61.58,61.58,0,0,1,7.22-9,17.13,17.13,0,0,1,3.83-3,25.32,25.32,0,0,1,4.54-2.32,26.57,26.57,0,0,1,8.73-1.78q5.17,0,8.73,4.81a12.1,12.1,0,0,1,3.92,8.73,16.26,16.26,0,0,1-.54,3.92q-1.78,7.13-5.17,7.13-2.32,0-4.46-2.67a8.58,8.58,0,0,1-.71-2.32,17.65,17.65,0,0,1,.71-3,15,15,0,0,0,.36-2.49,9.17,9.17,0,0,0-.71-3.74q-.71-1.6-2-1.6-4.1,0-10.69,7.13a71.17,71.17,0,0,0-6,7.84,54.94,54.94,0,0,0-5.44,9.62q-1.78,5.35-2.85,8.73T443.26,329a3.42,3.42,0,0,0,.45,1.25,3.49,3.49,0,0,1,.45,1.43,3.2,3.2,0,0,0,.53,2,5.5,5.5,0,0,0,2,1.43,7.65,7.65,0,0,0,4.63,1.43,15.72,15.72,0,0,0,6.59-1.78,34.36,34.36,0,0,0,6.59-4.63l4.28-3.21q1.24-.89,2.23-1.52c.65-.41,1.16-.71,1.51-.89s.53-.15.53.09c0,.48.18.71.54.71a2,2,0,0,0,1.25-.71,4.91,4.91,0,0,1,4.1-2.14c.95,0,1.43.18,1.43.54l-.18.89a2.55,2.55,0,0,0,.89,1.78,5.57,5.57,0,0,1-.45,1.87,5.29,5.29,0,0,1-1.16,1.87,20.76,20.76,0,0,1-3.65,3.83q-2.59,2.23-3.48,2.94h-.18q-.89,0-2.5,1.6-2.67,2.5-4.63,2.5l-1.6.8c-.6.3-.89.62-.89,1a9,9,0,0,1-4.28,2.41,34.22,34.22,0,0,1-7.66.62Q445,345,443.26,344.37Z" fill="#fff"/>
  </g>
</svg>
