<svg xmlns="http://www.w3.org/2000/svg" xmlns:xlink="http://www.w3.org/1999/xlink" width="1368" height="280" viewBox="0 50 1368 280" aria-labelledby="naomi_name_description">
  <defs>
    <clipPath id="Naomi-clip-path-1">
      <path d="M8,272.76a21.57,21.57,0,0,1,1-5.44q1-3.49,1.54-5.44a106.49,106.49,0,0,1,6.7-18.7q2.23-5.3,4.47-11.72a95.85,95.85,0,0,0,3.63-14q5.58-12.84,9.91-25T40.65,177q.27-1.39,6.14-13.68,4.74-9.21,8.65-17.58,1.39-3.91,7-20.65,3.91-12.56,7-20.1a96.77,96.77,0,0,1,7.82-15.07q5-8.37,12-8.37a9.43,9.43,0,0,1,6,2.09,13,13,0,0,1,4,6.28,57.93,57.93,0,0,1,3.49,13q1.26,7.68,1.81,25.82.27,5.59.28,16.47v26.52q0,14.24.56,23.45a73,73,0,0,0,2.51,15.91q2.23,12.84,6.14,27.77t6.14,14.93q3.35,0,11.17-20t19.82-68.52q1.68-5.58,3.91-16.19t3.35-20.66q3.07-11.44,6-23.86t2.93-13.54a27.29,27.29,0,0,1,.14-2.79,14.4,14.4,0,0,0-.14-3.35q1.11,0,2.37-3.63a20.57,20.57,0,0,0,1.26-6.7q0-8.09,3.91-12,.84-1.95,4.19-2a13.2,13.2,0,0,1,6.56,1.81A9.72,9.72,0,0,1,190,66.77q.84,5.86-7.82,42.71,0,3.35-3.91,20.1-2.51,9.49-3.91,18.14a122.08,122.08,0,0,1-2.65,14q-1.54,5.86-2.65,5.58-11.45,49.13-29.31,89.88-8.1,19.26-17.86,19.26-6.7,0-13.68-8.93a60.16,60.16,0,0,1-10.47-19.82q-2.93-10-7.68-35.17Q85.31,199.36,85.31,182a229.13,229.13,0,0,1,1.4-23.45l1.12-19.26q-.28-11.16-.7-15.49t-1.54-4.33q-1.12,0-3.35,5t-6.42,17q-4.47,11.17-12.28,29.59L56.28,189a96.56,96.56,0,0,0-7.54,20.38Q37,239.83,29.21,265.23L26.7,273q-4.19,11.16-8.09,11.17-2.79,0-6.42-3.91Q8,276.11,8,272.76Z" fill="none"/>
    </clipPath>
    <clipPath id="Naomi-clip-path-2">
      <path d="M325.35,253.22a5.16,5.16,0,0,1-2.79-.7,19.42,19.42,0,0,1-3.07-2.65,23.13,23.13,0,0,1-9.63-8.79q-3.49-5.72-2.93-10.19,1.11-12.83,7.4-28.19a125.17,125.17,0,0,1,14.93-27.07q8.65-11.72,16.75-14.51a24.19,24.19,0,0,1,8.37-2q6.7,0,9.49,5.58,1.95,3.91,2,5.86,0,3.35-3.91,4.47a3.44,3.44,0,0,0-2,.84,2.24,2.24,0,0,0-1.12,1.67,5.57,5.57,0,0,0,2.51.28,61.4,61.4,0,0,0,11.72-1.4q7-1.39,8.93-3.07a6.59,6.59,0,0,1,2.79-.84l3.91.56q4.74,1.4,4.75,3.35a3.16,3.16,0,0,0,.84,2.09,2.5,2.5,0,0,0,2,1q1.67.28-.42,2.23t-8,6.42q-1.4.84-4,2.51t-3.07,2.79a5,5,0,0,0,.14,3.07A15.14,15.14,0,0,1,382,202.7q0,9.21-8,20.38a82.41,82.41,0,0,1-19.82,19.54q-11.87,8.37-22.75,9.77A35.16,35.16,0,0,1,325.35,253.22Zm9.77-16.47q3.62-3.62,5.86-4.47,1.95,0,5.3-2.93t10.33-11.86a92.76,92.76,0,0,0,8-10.33,15.16,15.16,0,0,0,2.65-8.09,8.57,8.57,0,0,0-.28-2.51,3.12,3.12,0,0,0-1.81-1.54q-1.54-.69-2.93-1.26a8.79,8.79,0,0,1-4.61-1.26,64.06,64.06,0,0,1-6-4.33l-4.47-5.58-4.74,4.75q-6.7,6.7-13.68,21.91t-7.82,23.59q-.28,3.91,1.26,5.44a7.19,7.19,0,0,0,4.61,1.81Q328.42,240.1,335.12,236.75Z" fill="none"/>
    </clipPath>
    <clipPath id="Naomi-clip-path-3">
      <path d="M519.2,244.43q-3.49-5.44-3.49-17.72l.28-12.84a18.61,18.61,0,0,0-.42-4.75c-.28-.93-.79-1.4-1.54-1.4q-3.63,0-15.49,9.49a212.62,212.62,0,0,0-23.86,22.61q-1.4,1.4-3.77,4a22.38,22.38,0,0,1-4.33,3.91A6.82,6.82,0,0,1,463,249a7.1,7.1,0,0,1-4.75-2l-3.07-2.51a5,5,0,0,1-2-3.91l.56-2.51,6.42-18.42q6.14-14.24,7.26-18t-.28-3.49a21.67,21.67,0,0,0-7,2.65q-4.47,2.37-5.58,4.61-.56,0-3.63,2.93a35.23,35.23,0,0,1-5.3,4.33q-2.51,3.63-12.28,13.12l-6.7,6.42q-4.19,3.35-11.72,13.68-3.91,5-4.47,5-8.66,0-10.89-8.37a10.68,10.68,0,0,1-1.12-5.3q0-4.46,3.35-18.42,2.51-9.49,2.79-11.72l1.4-5.58a42.24,42.24,0,0,1,2.51-8.65q1.95-5,6.7-15.91Q418,169.21,418,165.3a7.05,7.05,0,0,1,2.51-5.72,8.5,8.5,0,0,1,5.58-2.09,8.75,8.75,0,0,1,6.7,3.07,11.58,11.58,0,0,1,2.79,8.09,24,24,0,0,1-2.23,9.77L430.3,186a136.46,136.46,0,0,0-5.72,14.38q-3.49,9.91-3.49,11c.18.56.84.42,2-.42s2.42-1.91,3.91-3.21a54.62,54.62,0,0,1,5.86-5,131.77,131.77,0,0,1,20-15.07q11.58-7.26,17.72-9.21a11.88,11.88,0,0,1,5.44,1,17.18,17.18,0,0,1,4,3.35q2.23,2.37,3.35,3.49,2.51,2.51,2.51,7.26a15.74,15.74,0,0,1-.56,3.63q-1.12,3.91-2.93,9.49t-2.65,8.09q1.95-1.67,7-5.86t9.21-7.82q14-10.89,22.05-10.89,5.86,0,10,6.14a10.5,10.5,0,0,1,3.07,5.16,36.14,36.14,0,0,1,.56,7.12v7a55.17,55.17,0,0,1,.28,6.7q.27,2.24.7,8.65t1.26,7.26q1.39,1.67,9.49,3.07,5,.84,5,4.47,0,2.51-3.63,5a16.73,16.73,0,0,1-8.93,2.23,24.59,24.59,0,0,1-9.21-1.67Q522.69,249.88,519.2,244.43Z" fill="none"/>
    </clipPath>
    <clipPath id="Naomi-clip-path-4">
      <path d="M560.09,248.76q-1.4-.56-2-.84a11.25,11.25,0,0,0-.7-2.93,11.92,11.92,0,0,1-.7-2.65c-1.49-.74-2.23-1.67-2.23-2.79a13.4,13.4,0,0,1,.84-3.91q3.62-6.42,12.84-29.17t10.33-26.94a6.59,6.59,0,0,1,.84-2.79,10.62,10.62,0,0,1,2-2.79,3.47,3.47,0,0,1,2.51-1.12q3.07,0,5.72,4.19a16.88,16.88,0,0,1,2.65,9.21q0,3.35-6.28,19.12T571.81,237l-3.21,6.42q-2.09,4.19-3.21,5a5,5,0,0,1-3.07.84A6.36,6.36,0,0,1,560.09,248.76Zm32.52-111q-5.44-5.72-5.44-11.86,0-1.39,3.35-6.42t3.35-5.58a14.48,14.48,0,0,1,6.7,1.4,44.69,44.69,0,0,0,7.82,11.44q1.68,2.24,3.07,4.19a6.16,6.16,0,0,1,1.4,3.35,31.73,31.73,0,0,1-.42,6.42,3,3,0,0,1-2.23,2.23,27.26,27.26,0,0,1-6.84.56Q598,143.53,592.61,137.81Z" fill="none"/>
    </clipPath>
    <clipPath id="Naomi-clip-path-5">
      <path d="M831.67,266.9q-1.4-1.67-3.91-5-3.35-8.37-3.35-25.12,0-5.86.28-9.21a24.59,24.59,0,0,1-.28-4.75q0-11.16,3.21-33.63t6.28-34.47q1.11-17.3,2.23-24.14t1.12-8q-.56-1.11-5.3,5.44a183.3,183.3,0,0,0-10.33,16.33q-4.19,7-10.61,15.91a91.35,91.35,0,0,0-5.3,10l-7.82,16.19q-15.07,23.17-21.49,30.84T765,225a8.42,8.42,0,0,1-2.51-.28q-8.1-1.95-11-6.56t-3.49-16.89q-.28-5-.28-20.66a12.28,12.28,0,0,0,.56-5.58,16.09,16.09,0,0,1,0-4.47,36.19,36.19,0,0,1,1.12-4.61,42.79,42.79,0,0,0,1.4-6.84q.84-6.42,1.54-14.51t.7-13.4q0-5.3-.56-5.58v.28q0,1.4-3.35,6.42a71.23,71.23,0,0,0-7.68,12.42q-4,8-11.86,24.14L718.91,191a74,74,0,0,1-4.61,15.49,186.4,186.4,0,0,1-8,17.72q-2.79,7.54-6.42,15.91t-6.14,11.72A67.75,67.75,0,0,1,689.18,262q-1.82,2.93-4,2.93-2,0-6.14-2.79a43.55,43.55,0,0,1-4.33-4.88,7.6,7.6,0,0,1-1.54-4.61,14.12,14.12,0,0,1,2.23-6.7q3.62-4.19,8.23-14.37t4.33-11.86q-.28-1.11,1.4-3.77t5-7.68q-.28-1.11,2.51-8.23t7.26-16q2.51-4.46,2.23-6.7a22.9,22.9,0,0,0,1.54-3.07,6.41,6.41,0,0,1,2.37-3.07,33.8,33.8,0,0,1,2-5.3,34,34,0,0,1,1.12-3.35,24.72,24.72,0,0,0,1.12-3.63,42,42,0,0,1,4.47-8.09,15.68,15.68,0,0,0,1.81-2.79,15.22,15.22,0,0,1,2.09-3.07A51.74,51.74,0,0,1,728,134.6q4-6.7,8.79-14l3.35-5.3a45.86,45.86,0,0,0,2.93-5.72,34.63,34.63,0,0,1,4-6.84l2.37-3.63q1.81-2.79,4-6.7,1.39-1.95,5-7.68t5-5.72q2.51-.56,8.79,4.88t6.28,8.79a82.63,82.63,0,0,1-1.54,10.61,153.28,153.28,0,0,1-3.49,15.07q-.28,4.47-1.26,11.58t-1.54,10.47q-2.79,15.35-3.35,23.17A75.3,75.3,0,0,1,765,178.7q-2,7-2.51,8.93a17.32,17.32,0,0,1,1.4,6.7v6.14L774.45,189a45.05,45.05,0,0,1,2.51-3.91,46.09,46.09,0,0,0,2.51-3.91,143,143,0,0,0,8.65-13.12,8.18,8.18,0,0,1,1.4-3.49,22.39,22.39,0,0,0,2-4,9.34,9.34,0,0,0,3.35-3.49,7.24,7.24,0,0,0,1.12-4.61q11.44-16.75,27.35-38.38t20.38-25.26q4.74-3.35,8.65-3.35,4.74,0,8.93,4.47,4.19,4.75,4.19,8.93a24.19,24.19,0,0,1-2,8.37l-4.19,13.4q-5.86,16.75-5.58,21.21a47.4,47.4,0,0,0-2.51,12,22.24,22.24,0,0,0-1.54,4.47q-.7,2.79-1.81,3.63a21,21,0,0,0,.56,3.77,23,23,0,0,1,.56,4.61,9.87,9.87,0,0,1-.28,2.79q-6.14,37.68-6.14,56.94,0,18.15,5.58,19.54h.28q.84,0,.84,1.67a47,47,0,0,1-.84,6.14,15.94,15.94,0,0,1-.56,5.72,13.77,13.77,0,0,1-1.67,4.33,12.87,12.87,0,0,1-2.23,2.23,4.09,4.09,0,0,1-2.51.84,77.36,77.36,0,0,1-8.09-1.4A16.2,16.2,0,0,0,831.67,266.9Z" fill="none"/>
    </clipPath>
    <clipPath id="Naomi-clip-path-6">
      <path d="M876.88,242.9a14.81,14.81,0,0,1,1.4-6.7,12.41,12.41,0,0,1,.56-3.35,12.62,12.62,0,0,0,.56-2.51q-.28-1.67,2.23-9.21,5-11.16,13.4-39.36a3,3,0,0,1,1.12-2.37,6.18,6.18,0,0,1,3.35-1.26,15.54,15.54,0,0,1,3.07-.56,4,4,0,0,1,2.93,1.26,33.33,33.33,0,0,1,3.49,4.61,6.82,6.82,0,0,1,1.67,5q0,5.31-3.63,12.84a64.82,64.82,0,0,0-4.75,14,122.05,122.05,0,0,0-5.3,14q-.56,1.67-1.67,6.7a25.46,25.46,0,0,1-3.07,8.09,60.31,60.31,0,0,1-3.07,10.89q-1.4,3.07-3.07,3.07-2,0-5.3-3.91Q876.88,250.16,876.88,242.9ZM904.52,134q-1.4-4.74,0-4.75,2.23-.28,5.16-4.88t2.65-7.68a3.17,3.17,0,0,1,.84-2.09,3.76,3.76,0,0,1,2-1.26A7.69,7.69,0,0,1,919,112q4.74,0,8.65,6.7a15.68,15.68,0,0,1,1.67,6.42,11.06,11.06,0,0,1-1.4,5.16,39.82,39.82,0,0,1-5,6.84q-4.75,6.42-8.93,6.42-2.79,0-6.14-2.79Q905.91,138.79,904.52,134Z" fill="none"/>
    </clipPath>
    <clipPath id="Naomi-clip-path-7">
      <path d="M935.78,256.85a18.87,18.87,0,0,1-9.21-10.61,39.09,39.09,0,0,1-2-5.58,2.7,2.7,0,0,1,2-2.51,9,9,0,0,1,4.61,1.67,21.36,21.36,0,0,0,4.33,2.23q4.19,3.91,11.44,3.91a23,23,0,0,0,10.19-2.23q4.61-2.23,5.16-5.3,0-1.39-2.79-9.77a88.56,88.56,0,0,1-10.75-20.51Q945,197.68,945,190.42a22.51,22.51,0,0,1,3.07-10.89,29.15,29.15,0,0,1,8.37-9.49,79.07,79.07,0,0,1,16.89-13.12,75.8,75.8,0,0,1,18-8.09,50.13,50.13,0,0,1,8.23.84,23,23,0,0,1,6.84,2q3.07,1.12,5.86,6.14a19.68,19.68,0,0,1,2.79,9.49q0,4.47-4.75,12.28a33.46,33.46,0,0,1-2.23,5.3,14.69,14.69,0,0,0-1.67,4.19q-1.12,2.79-3.63,2.79a6.94,6.94,0,0,1-4.88-2.37,17.44,17.44,0,0,1-3.77-5.72,24.6,24.6,0,0,1-.84-5.86,12,12,0,0,1,2.23-6.7q3.07-3.07,3.07-4.19c0-.74-1-1.12-3.07-1.12q-3.35,0-12.84,5.3a63.39,63.39,0,0,0-15.07,11.16q-5,4.75-6.14,7.12a17.41,17.41,0,0,0-1.12,7.12,33.45,33.45,0,0,0,1.81,9.91q1.81,5.72,3.77,7.68l2.37,4.75a45.43,45.43,0,0,0,4.33,7q5.58,12.56,5.58,19.54,0,8.1-6.28,11.72t-19.68,3.63A33.12,33.12,0,0,1,935.78,256.85Z" fill="none"/>
    </clipPath>
    <clipPath id="Naomi-clip-path-8">
      <path d="M1048.26,253.22a5.16,5.16,0,0,1-2.79-.7,19.42,19.42,0,0,1-3.07-2.65,23.13,23.13,0,0,1-9.63-8.79q-3.49-5.72-2.93-10.19,1.11-12.83,7.4-28.19a125.17,125.17,0,0,1,14.93-27.07q8.65-11.72,16.75-14.51a24.19,24.19,0,0,1,8.37-2q6.7,0,9.49,5.58,1.95,3.91,2,5.86,0,3.35-3.91,4.47a3.44,3.44,0,0,0-2,.84,2.24,2.24,0,0,0-1.12,1.67,5.57,5.57,0,0,0,2.51.28,61.4,61.4,0,0,0,11.72-1.4q7-1.39,8.93-3.07a6.59,6.59,0,0,1,2.79-.84l3.91.56q4.74,1.4,4.75,3.35a3.16,3.16,0,0,0,.84,2.09,2.5,2.5,0,0,0,2,1q1.67.28-.42,2.23t-8,6.42q-1.4.84-4,2.51t-3.07,2.79a5,5,0,0,0,.14,3.07,15.14,15.14,0,0,1,1.12,6.14q0,9.21-8,20.38a82.41,82.41,0,0,1-19.82,19.54q-11.87,8.37-22.75,9.77A35.16,35.16,0,0,1,1048.26,253.22Zm9.77-16.47q3.62-3.62,5.86-4.47,1.95,0,5.3-2.93t10.33-11.86a92.76,92.76,0,0,0,8-10.33,15.16,15.16,0,0,0,2.65-8.09,8.57,8.57,0,0,0-.28-2.51A3.12,3.12,0,0,0,1088,195q-1.54-.69-2.93-1.26a8.79,8.79,0,0,1-4.61-1.26,64.06,64.06,0,0,1-6-4.33l-4.47-5.58-4.74,4.75q-6.7,6.7-13.68,21.91t-7.82,23.59q-.28,3.91,1.26,5.44a7.19,7.19,0,0,0,4.61,1.81Q1051.33,240.1,1058,236.75Z" fill="none"/>
    </clipPath>
    <clipPath id="Naomi-clip-path-9">
      <path d="M1134.79,258.53a6.66,6.66,0,0,1-3.49-1.12,17.05,17.05,0,0,1-2.09-1.4q-4.19,0-5.3-4.47a6.89,6.89,0,0,1-.28-2.51q0-3.62,3.35-14.24l2-8.93q2.79-12.28,5-20.65.84-1.39,3.35-9.49a71.84,71.84,0,0,1,4.47-12,98.86,98.86,0,0,1,10.61-24.84,12.3,12.3,0,0,1,2.23-2.23,4.9,4.9,0,0,1,2.51-1.4,5.07,5.07,0,0,1,3.63-1.67q1.95,0,5,2.51,2.79,3.35,2.79,6.42,0,5.31-7,15.91l-4.47,10.89q-.56,1.4-2.79,6.56a35.77,35.77,0,0,0-2.79,9.35q3.62-5,13.12-14.51a85.17,85.17,0,0,1,9.21-8.23q3.62-2.65,10.61-7.12a48.43,48.43,0,0,1,8.93-5.3,21.73,21.73,0,0,1,8.65-1.67,21.4,21.4,0,0,1,3.91.28q3.91-.27,6.14,3.91a28.25,28.25,0,0,1,2.79,10.89,33.7,33.7,0,0,0-4.75-.56,21.3,21.3,0,0,0-9.91,2.23,50.8,50.8,0,0,0-7.12,4.33q-2.79,2.09-3.63,2.65-15.07,9.77-23.45,18.42-8.66,9.49-12.14,14a34,34,0,0,0-5.16,8.93q-.84,2-4.75,11.58t-6.42,11.58A3.24,3.24,0,0,1,1134.79,258.53Z" fill="none"/>
    </clipPath>
    <clipPath id="Naomi-clip-path-10">
      <path d="M1230.52,250.71q-5.86-4.19-7-9.21a16.53,16.53,0,0,1-.28-3.63q0-10.32,8-26.66a150.1,150.1,0,0,1,19.4-30.15q11.44-13.82,20.93-17.44,5.86-3.07,7.54-3.07t7.54,3.07a19.7,19.7,0,0,1,5.86,2.51,26.61,26.61,0,0,1,5,5.58,61.58,61.58,0,0,1,5.3,17.86,35.46,35.46,0,0,1,1.67,8.37,5.35,5.35,0,0,1-1.67,3.91c-.19.19-.51.56-1,1.12a2.43,2.43,0,0,0-.7,1.26c0,.28.18.42.56.42a6.47,6.47,0,0,1-.28,1.26,16.65,16.65,0,0,1-1.12,2.65q-3.35,10.61-3.35,18.14a26.83,26.83,0,0,0,.56,5.3q2.79,7.26,9.49,7.26,5.58,0,10.61-5,4.46-3.07,6.56-4.33t2.09.7a7.83,7.83,0,0,0,1.12.84,3,3,0,0,0,1.67.56c1.3,0,2,.84,2,2.51a10.67,10.67,0,0,1-2,5.58,42.13,42.13,0,0,0-3.07,3.35,4.09,4.09,0,0,0-1.12,2.23l-4.19,3.91a24.61,24.61,0,0,1-12.56,3.07q-7.54,0-12-3.07A38,38,0,0,1,1283.83,232l-1.4-2.79-8.09,5.3a82,82,0,0,1-6.42,5.72q-3.63,2.93-4.75,4-2.24,2.79-3.91,2.79h-2.79q0,2-5.44,4.33a24.58,24.58,0,0,1-9.63,2.37Q1236.38,254.9,1230.52,250.71Zm23.73-20.79q12.56-8.79,15.91-13l8.09-8.37a40.23,40.23,0,0,0,7.12-11.44A31,31,0,0,0,1288,185.4q0-4.74-1.4-6.7-1.12-3.35-3.35-3.35-1.12,0-6.42,2-5.31,3.35-14.93,15.35a214.08,214.08,0,0,0-17.17,24.7q-7.54,12.7-7.54,18.56a3,3,0,0,0,.56,1.67,7.9,7.9,0,0,0,.84,1.12Q1241.68,238.71,1254.25,229.92Z" fill="none"/>
    </clipPath>
    <clipPath id="Naomi-clip-path-11">
      <path d="M179.51,249.46c-1.21-1.21-1.81-2-1.81-2.37a7.23,7.23,0,0,0-1.4-4.75,3.77,3.77,0,0,1-.56-2.51q0-4.46,4.33-15.21a209.85,209.85,0,0,1,11.3-23.31,36.67,36.67,0,0,0,4.33-5.86q2.65-4.19,3.49-4.75a3.18,3.18,0,0,1,.84-2.09,2.51,2.51,0,0,1,2-1V186q0-2.51,9.21-12.14t15.07-13.26a25.06,25.06,0,0,1,14.23-4.75,13.79,13.79,0,0,1,8.65,2.79q1.39,1.67,12.84,12l10.33,9.21-5,14a43.68,43.68,0,0,0-2.51,13.68,37.72,37.72,0,0,0,6.14,20.38,14.86,14.86,0,0,0,5.58,5.86,19.8,19.8,0,0,0,8.37,3.35q6.14,1.12,6.14,6.14,0,5.59-5,6.7a14.82,14.82,0,0,1-3.35.28q-16.47,0-28.47-23.17a38.41,38.41,0,0,1-2.93-6.14,35.29,35.29,0,0,1-2.09-6.14q-1.67,2.24-4.19,5.3t-4.75,5.3q-30.43,30.43-48,30.42a18.55,18.55,0,0,1-10-2.79A13.91,13.91,0,0,0,179.51,249.46Zm15.63-11.3a28,28,0,0,0,7.26-2.79,51.53,51.53,0,0,0,8.79-5.86q24-20.65,34.61-36l6.14-10q-2.79-5.86-5.86-8.51t-5.58-2.65q-5.86,0-18.42,14.65a181.79,181.79,0,0,0-22.89,34.47,99.65,99.65,0,0,0-4.47,9.63l-2.51,6.28Q192.21,238.71,195.14,238.15Z" fill="none"/>
    </clipPath>
  </defs>
  <desc id="naomi_name_description">Name: Naomi Misora</desc>
  <g id="Naomi_name">
    <g clip-path="url(#Naomi-clip-path-1)">
      <path id="Naomi_n" d="M7.5,288.5c26.91-72.08,54.5-138.68,83-198,6.73,86.3,12.44,151.56,32,176,21.86-32.18,43.45-119,65-212" fill="none" stroke="#000" stroke-width="33"/>
    </g>
    <g clip-path="url(#Naomi-clip-path-2)">
      <path id="Naomi_o" d="M401,172l-2.52.26C381,182.41,362,183.25,342,178l29-19c-27.44,11.43-47.78,35.82-60,75l17,15c20.14-11.83,41.92-21.59,48.5-50.5l-7-11Z" fill="none" stroke="#000" stroke-width="30"/>
    </g>
    <g clip-path="url(#Naomi-clip-path-3)">
      <path id="Naomi_m1" d="M429.5,143.5l-29,106c26.87-30.71,55.36-56.88,86-77l-28,81c21.16-28.6,45.09-52.78,74-69-5.94,20.83-8.86,41-6,60l22,1" fill="none" stroke="#000" stroke-width="31"/>
    </g>
    <g clip-path="url(#Naomi-clip-path-4)">
      <line id="Naomi_i2" x1="587.5" y1="111.5" x2="612.5" y2="147.5" fill="none" stroke="#000" stroke-width="25"/>
      <line id="Naomi_i1" x1="592.5" y1="169.5" x2="554.5" y2="251.5" fill="none" stroke="#000" stroke-width="24"/>
    </g>
    <g clip-path="url(#Naomi-clip-path-5)">
      <path id="Naomi_m2" d="M668,271,774,73c-12.31,55.11-21.14,109.57-19,162,34.44-60.77,71.37-111.74,110-156-17.86,57.47-30.48,115.34-33,174l17,18" fill="none" stroke="#000" stroke-width="31"/>
    </g>
    <g clip-path="url(#Naomi-clip-path-6)">
      <line id="Naomi_i5" x1="880.5" y1="264.5" x2="908.5" y2="172.5" fill="none" stroke="#000" stroke-width="26"/>
      <line id="Naomi_i4" x1="929.5" y1="105.5" x2="908.5" y2="143.5" fill="none" stroke="#000" stroke-width="27"/>
    </g>
    <g clip-path="url(#Naomi-clip-path-7)">
      <path id="Naomi_s" d="M1000.5,196.5l5-37c-19.18-3-37.28,10.58-55,30l23,62c-11.22,5.79-31.37.69-52-5" fill="none" stroke="#000" stroke-width="26"/>
    </g>
    <g clip-path="url(#Naomi-clip-path-8)">
      <path id="Naomi_o2" d="M1124,175c-30.93,9.48-50.43,10.8-53,0l25-16c-30.7,11.3-47.87,39.4-59,75l14,14c24.26-15.35,46.55-30.62,48-45l-11.5-16.5Z" fill="none" stroke="#000" stroke-width="28"/>
    </g>
    <g clip-path="url(#Naomi-clip-path-9)">
      <path id="Naomi_r" d="M1166.5,146.5l-43,114c25.88-48.13,58.74-80.52,100-94" fill="none" stroke="#000" stroke-width="26"/>
    </g>
    <g clip-path="url(#Naomi-clip-path-10)">
      <path id="Naomi_a2" d="M1299.5,181.5,1276,166c-18.68,19.6-36.66,40-48,68,2.19,7.44,7.69,10.17,16.5,15.5,26.82-24.1,43.08-48.21,60-76-24.64,54.14-22.56,93.55,30,58" fill="none" stroke="#000" stroke-width="27"/>
    </g>
    <g clip-path="url(#Naomi-clip-path-11)">
      <path id="Naomi_a1" d="M263.5,178.5l-27-16c-21.5,19.81-39.77,44.57-55,74l19,13c29.27-24.21,57.89-48.68,67-81-15.34,38.55-13.52,70,28,85" fill="none" stroke="#0d0300" stroke-width="24"/>
    </g>
  </g>
</svg>
