<svg id="Assets" xmlns="http://www.w3.org/2000/svg" width="398.83" height="386.33" viewBox="0 0 398.83 386.33">
  <title>Noose</title>
  <g>
    <path d="M208.32,3.4H343.66q0,192,0,384H71.49q0-192,0-384H200.88c.24,22.33.6,44.65.7,67,.12,28.67,0,57.35,0,85.45-2.57,1.08-3.68,1.59-4.82,2-13.73,5.18-15,10.71-4.83,21.38a17.09,17.09,0,0,1,1.22,1.6c-6.06,6.1-6.33,6.16-4.11,15.18,2.55,10.36,5.44,20.66,8.58,30.87,1.27,4.14,3.61,8,5.47,12l1.91-.65c-1.15,22-13.81,36.41-34.51,48.47-8.31,4.84-16.35,10.14-24.1,15.75-6.09,4.41-9.4,16.3-5.61,21.8,4.6,6.66,9.74,13.38,16.07,18.52,16.28,13.22,43.79,10.62,56.94-5.22,17.9-21.54,21.47-46.21,16.14-72.44-1.87-9.22-4.06-18.39-6.12-27.69,6.77-1.14,9.09-3.89,6.28-9.26-.39-.75-.94-1.8-.67-2.43,3.48-8.22-1.17-15.89-1.73-23.82a107.43,107.43,0,0,0-2.43-18.44c-.65-2.61-3.5-5.26-6.1-6.74-2-1.14-5.16-.47-8.91-.67-.85-12.95-2.42-25.63-2.36-38.31.09-20.09,1.79-40.17,1.83-60.25C209.8,52.78,208.84,28.09,208.32,3.4Z" fill="#fff"/>
    <path d="M208.32,3.4c.52,24.69,1.48,49.39,1.44,74.08,0,20.08-1.74,40.16-1.83,60.25-.05,12.68,1.51,25.36,2.36,38.31,3.74.19,6.91-.47,8.91.67,2.6,1.48,5.45,4.13,6.1,6.74a107.43,107.43,0,0,1,2.43,18.44c.57,7.93,5.21,15.61,1.73,23.82-.27.63.28,1.68.67,2.43,2.81,5.37.49,8.12-6.28,9.26,2.07,9.3,4.25,18.47,6.12,27.69,5.32,26.23,1.76,50.9-16.14,72.44-13.16,15.83-40.66,18.43-56.94,5.22-6.33-5.14-11.48-11.86-16.07-18.52-3.79-5.49-.48-17.39,5.61-21.8,7.74-5.61,15.79-10.91,24.1-15.75,20.7-12.07,33.36-26.49,34.51-48.47l-1.91.65c-1.85-4-4.2-7.83-5.47-12-3.14-10.22-6-20.51-8.58-30.87-2.22-9-2-9.08,4.11-15.18a17.09,17.09,0,0,0-1.22-1.6c-10.15-10.67-8.9-16.2,4.83-21.38,1.15-.43,2.26-.94,4.82-2,0-28.1.09-56.77,0-85.45-.09-22.33-.46-44.65-.7-67Zm8.83,235-2.83-.58a37.73,37.73,0,0,0-2.17,6.07c-3.3,18.63-12.67,33.63-29.47,44.36-10.12,6.46-20.51,12.63-30,19.87-3,2.29-5.55,8.28-4.5,11.47,7.25,22.12,33.34,30.87,52.12,18.78,19.54-12.57,24.91-32.84,24-53.73C223.75,269.2,219.69,253.85,217.14,238.44Z"/>
    <path d="M217.14,238.44c2.54,15.41,6.61,30.76,7.25,46.24.87,20.89-4.51,41.17-24,53.73-18.78,12.08-44.87,3.33-52.12-18.78-1-3.2,1.51-9.18,4.5-11.47,9.45-7.24,19.83-13.41,30-19.87,16.8-10.72,26.17-25.73,29.47-44.36a37.73,37.73,0,0,1,2.17-6.07Z" fill="#fff"/>
  </g>
</svg>
