<svg id="Layer_1" data-name="Layer 1" xmlns="http://www.w3.org/2000/svg" xmlns:xlink="http://www.w3.org/1999/xlink" width="568.47" height="278.99" viewBox="0 0 568.47 278.99">
  <defs>
    <linearGradient id="New_Gradient_Swatch_2" data-name="New Gradient Swatch 2" x1="28.41" y1="141.18" x2="535.78" y2="141.18" gradientUnits="userSpaceOnUse">
      <stop offset="0" stop-color="#f7efa4"/>
      <stop offset="0.07" stop-color="#f9f3b9"/>
      <stop offset="0.18" stop-color="#fcf8d7"/>
      <stop offset="0.3" stop-color="#fdfced"/>
      <stop offset="0.41" stop-color="#fffefb"/>
      <stop offset="0.51" stop-color="#fff"/>
      <stop offset="0.6" stop-color="#fefef7"/>
      <stop offset="0.76" stop-color="#fcf9e0"/>
      <stop offset="0.95" stop-color="#f9f3bb"/>
      <stop offset="1" stop-color="#f8f1b1"/>
    </linearGradient>
  </defs>
  <title>paper</title>
  <path id="Right_side" d="M534.23,20.14c3.09,2.79.61,11.31.44,16l1.11,229.32a.37.37,0,0,1,0,.21c-2.11,2.93-7.43.2-17.33,1.31-10.67-7-24.64-5.05-39.69-.16-6.28-6.31-14.88-5.54-25-.1l-26.21-.11c-7.18-12.75-15.55-5.77-23.83-.09-9.06-4.47-17.52-6.79-23.49-.1-10.75,2.26-19.26,2.17-25.7-.1l-38.13-.16c-14.07-10.49-25-8.45-34.25-.13a182.09,182.09,0,0,1-55.88-.23c-4.42-3.95-11.23-11.33-13.78-6s-11.07,1.95-16.86,5.87a178,178,0,0,0-55.57-.23c-10.13-6.87-20.58-6.53-31.32-.12-17.24-2.71-30.41-3.76-32.08-.13l-35.19-.14c-9-2.52-12.21-6.35-13-10.69,8.28-6.08,11.16-13.29,1.16-23.21,11.59-14,13.67-17.47,1.08-21.61C29.94,199,32.35,191,31.92,184c14.63-16.25,5.25-28.83,1.63-32.64,11.77-5.22,12-12.45,1.07-21.61,6.43-5.77,7.32-12.32,1-19.86A121.49,121.49,0,0,0,37,81.2c13,.54,12.36-8.53,1.41-28.23,5.89-10.21,11.29-20.4,1.48-29.75,3.77-7.71,12-9.36,21.82-8.87C145.38,21.43,531.49,17.66,534.23,20.14Z" stroke="#000" stroke-miterlimit="3.33" stroke-width="2" fill="url(#New_Gradient_Swatch_2)"/>
</svg>
