<svg xmlns="http://www.w3.org/2000/svg" xmlns:xlink="http://www.w3.org/1999/xlink" width="1300" height="300" viewBox="0 40 1300 300" aria-labelledby="raye_name_description">
  <defs>
    <clipPath id="Raye-clip-path-1">
      <path d="M174.58,105.17a39.68,39.68,0,0,1-3.22,14.93q-4.69,11.71-23.72,27.67t-35.43,23q-6.44,2.93-14.93,5.86t-16.69,5.56a39.69,39.69,0,0,1-11.71,1.17l.59.59q6.73,14.93,26.06,36.31,9.07,10.54,24.89,24.16t27.23,19.18a4.78,4.78,0,0,1,1.17,3.51,12.45,12.45,0,0,1-1.61,5.71q-1.61,3.07-2.78,3.37a12.47,12.47,0,0,1-1.46.59,6.61,6.61,0,0,1-2,.29q-4.1,0-11.71-5a194.65,194.65,0,0,1-26.64-19.18,269.86,269.86,0,0,1-28.11-28.55,145.23,145.23,0,0,1-10.69-13.91,106.39,106.39,0,0,1-8.35-16.25l-.59,1.76q-8.78,29.87-26.64,77-1.47,3.51-4.39,3.51-3.23,0-7.91-3.81l-2-2a12.79,12.79,0,0,1-2-2.49,4.34,4.34,0,0,1-.59-2.2q0-2.64,4.68-13.18l3.51-7.91q1.76-10.54,8.49-24.3,2-7,23.72-59.73l5.27-12.88,3.22-7.61Q68,120.4,81.47,90.82a25.38,25.38,0,0,0,1.46-5.56q0-3.8-5-3.81-3.23-3.8-3.22-7A4.35,4.35,0,0,1,77.66,70l15.23-6.15a89.32,89.32,0,0,1,19.91-2.34A75.43,75.43,0,0,1,148.52,70Q174.58,85.56,174.58,105.17Zm-34,28q16.69-14.49,15.81-28.25,0-5.56-5.86-11.71t-12-7.91q-17.86-4.1-24-4.1-5.27,0-8.34,2.2A11.48,11.48,0,0,0,102,90.24q0,.88-3.81,8.49-8.5,18.45-10.83,25.18l-6.73,13.76q-9.37,18.74-11.27,23.42t-.44,6.15q12-.88,34-10A156.94,156.94,0,0,0,140.61,133.13Z" fill="none"/>
    </clipPath>
    <clipPath id="Raye-clip-path-2">
      <path data-name="Raye_clip" d="M170,241.17c-1.27-1.27-1.9-2.1-1.9-2.49a7.58,7.58,0,0,0-1.46-5,4,4,0,0,1-.59-2.64q0-4.68,4.54-16a220,220,0,0,1,11.86-24.45,38.48,38.48,0,0,0,4.54-6.15q2.78-4.39,3.66-5a3.33,3.33,0,0,1,.88-2.2,2.64,2.64,0,0,1,2-1v-1.76q0-2.64,9.66-12.74t15.81-13.91a26.29,26.29,0,0,1,14.93-5,14.47,14.47,0,0,1,9.08,2.93q1.46,1.76,13.47,12.59l10.83,9.66-5.27,14.64a45.82,45.82,0,0,0-2.64,14.35,39.57,39.57,0,0,0,6.44,21.37q1.46,3.22,5.86,6.15a20.76,20.76,0,0,0,8.78,3.51q6.44,1.17,6.44,6.44,0,5.86-5.27,7a15.53,15.53,0,0,1-3.51.29q-17.28,0-29.87-24.3a40.37,40.37,0,0,1-3.07-6.44,37.12,37.12,0,0,1-2.2-6.44q-1.76,2.35-4.39,5.56t-5,5.56q-31.92,31.92-50.36,31.92a19.45,19.45,0,0,1-10.54-2.93A14.61,14.61,0,0,0,170,241.17Zm16.4-11.86a29.43,29.43,0,0,0,7.61-2.93,54,54,0,0,0,9.22-6.15q25.18-21.66,36.31-37.77L246,171.93q-2.93-6.15-6.15-8.93T234,160.21q-6.15,0-19.32,15.37a190.64,190.64,0,0,0-24,36.16,104.65,104.65,0,0,0-4.69,10.1l-2.63,6.59Q183.36,229.91,186.44,229.32Z" fill="none"/>
    </clipPath>
    <clipPath id="Raye-clip-path-3">
      <path data-name="Raye_clip" d="M383.05,157q0,5.27-7,18.45A125.82,125.82,0,0,1,370.9,188a42.59,42.59,0,0,1-4.25,7.61l-6.73,15.52q-4.39,9.66-10.83,22.55Q341.18,250.11,338,258l-3.81,6.15Q319.51,287.58,311.61,297q-16.11,14.34-24.89,16.69a31.19,31.19,0,0,1-9.08,1.17,41,41,0,0,1-18.3-4.25q-8.63-4.25-9.81-9.81a6,6,0,0,1,1.46-4.39q1.76-2.35,3.81-2.34a2.78,2.78,0,0,1,2.34,1.17,26.55,26.55,0,0,0,6.88,3.37,29.18,29.18,0,0,0,9.81,1.61,36.1,36.1,0,0,0,5.56-.59q5.85-1.17,12.3-7a92.19,92.19,0,0,0,11.71-12.88,368.85,368.85,0,0,0,21.37-36.6q-4.1-1.17-7.91-5.71a39.68,39.68,0,0,1-6-9.52q-2.2-5-1.61-7.32v-3.22q-2.64,0-4.25-10a146.24,146.24,0,0,1-1.61-23.13q0-5,.59-12.59a53.56,53.56,0,0,0,1.32-11.57q.14-6.88.15-8.93V150a12,12,0,0,1,.73-5,7,7,0,0,1,2.49-2.64,10.42,10.42,0,0,1,4.68-1.17q8.19,0,8.2,21.67,0,3.23-.59,12.59-.3,4.1-.29,12.3a123.48,123.48,0,0,0,2.63,26.94q2.64,11.71,7.91,16.1l1.76-4.1q3.22-8.49,5-10.83,4.1-8.49,4.69-10.83a37.39,37.39,0,0,1,3.22-6.73l3.81-7.91q.58-1.76,3.81-11.27a97.21,97.21,0,0,1,6.44-15.37q1.17-2.34,3.51-6.88a57.67,57.67,0,0,1,3.81-6.59,6.71,6.71,0,0,1,3.22-2.64q2.34-2,3.81-2,1.17,0,4.1,1.76Q383,152,383.05,157Z" fill="none"/>
    </clipPath>
    <clipPath id="Raye-clip-path-4">
      <path data-name="Raye_clip" d="M400,246.88q-8.2-9.37-8.2-23.42t6.3-30.89a123.27,123.27,0,0,1,16.25-30.3q10-13.46,20.2-18.15a26.89,26.89,0,0,1,13.18-3.22,30.79,30.79,0,0,1,12.59,3.22,20.7,20.7,0,0,1,7.61,5q2.64,2.93,4.68,9.08a53,53,0,0,1,.88,7.32,42,42,0,0,1-1.46,7.61,60.68,60.68,0,0,1-9.22,18.3,49.79,49.79,0,0,1-14.79,12.74,21.71,21.71,0,0,1-11.71,2.93,30.48,30.48,0,0,1-11.57-2.2,17.68,17.68,0,0,1-8.35-6.59l-2-2.34-.88,2.34q-6.15,15.81-6.15,26.94,0,7.62,2.93,12.3,2,3.23,10,3.22,5.85,0,8.49-1.17a33.56,33.56,0,0,0,7.76-3.66q3.36-2.2,6.59-4.54l1.17-.59H444q3.51-1.76,5.86-3.22t3.22-2a2.6,2.6,0,0,0,1.17-.29,3.33,3.33,0,0,0,1.17-1.17q2.64-1.17,6.15.88t3.51,5.27q-.59,2.35-5.27,7.61t-7,5.56a9.24,9.24,0,0,0-2,.88,9.86,9.86,0,0,0-2.34,1.46h.29q-2.64,3.51-5.27,3.51H441q-1.17,2.35-7.76,4.69a37.24,37.24,0,0,1-12.44,2.34A26.4,26.4,0,0,1,400,246.88Zm50.07-65q7-9.37,7-18.74,0-5-2-7a7.3,7.3,0,0,0-3.22-.88,24,24,0,0,0-5,.88q-3.81.88-11.71,8.05a77,77,0,0,0-11.71,12.74l-3.81,6.15a16,16,0,0,1,4.54-1c1.46-.1,2.29.05,2.49.44a10.63,10.63,0,0,0,2,6.73,6.38,6.38,0,0,0,5.27,2.64Q442.78,191.84,450.1,181.88Z" fill="none"/>
    </clipPath>
    <clipPath id="Raye-clip-path-5">
      <path data-name="Raye_clip" d="M567.8,259.77q-3.23-2.93-3.22-6.15a18.64,18.64,0,0,0-.29-2.34,12.45,12.45,0,0,0-1.17-3.51,38,38,0,0,1,1.46-11.71,31.44,31.44,0,0,1,.88-7,28.23,28.23,0,0,1,2-6.15,23.5,23.5,0,0,1,1.17-6.29q1.17-4,1.46-5.42L571.9,205l5-14.93a43.53,43.53,0,0,0,2-5.86,18.22,18.22,0,0,0,.59-4.39q1.76-5.85,4.39-14.93t4.39-15.81a6,6,0,0,0,1.46-4.39q.58-1.76,2.64-8.35t4.68-13.91q4.39-12.88,6.73-21.08t2.34-11.42a8.81,8.81,0,0,0-.73-3.66c-.49-1.07-.83-1.8-1-2.2a16.08,16.08,0,0,1-1.17-3.51,3.38,3.38,0,0,1,1.17-2.34,11.33,11.33,0,0,0,1.9-2.49c.48-.88.83-1.51,1-1.9q0-.88,12.15-5t21.81-7h12a60.73,60.73,0,0,1,16.1,4.69,43.19,43.19,0,0,1,13.18,8.78,45.89,45.89,0,0,1,6.3,7.91A126,126,0,0,1,696,97.26a37.16,37.16,0,0,0,.73,5.12,38.76,38.76,0,0,1,.73,6.88q0,13.18-9.66,28.11t-27.23,29.28a77.82,77.82,0,0,1-20.35,11.71,56.78,56.78,0,0,1-20.35,4.1,39,39,0,0,1-8.2-.88q-3.23-1.17-5.12-6t-.44-6.29a39.47,39.47,0,0,1,6.44-.29q5.27,0,15.52-3.81a61.42,61.42,0,0,0,12.3-5.56q17.86-11.12,27.52-26.94a95.42,95.42,0,0,0,7.91-16.1q3.8-9.66,3.81-14.93a24.75,24.75,0,0,0,.59-4.39,12,12,0,0,0-5.12-9.81q-5.13-4-14.49-4.83a10.39,10.39,0,0,0-2.93-.29q-6.44,0-17.28,2.78t-13.76,4.83c-.59,0-1.08.69-1.46,2a22.23,22.23,0,0,1-1.46,3.81q0,2.35-1.9,8.78t-4,12l-3.81,11.13a145.31,145.31,0,0,0-5.27,15.23,79.9,79.9,0,0,1-2.34,8.05q-1.47,4.25-2,5.42a34.85,34.85,0,0,1-1.76,5.27q-1.76,4.69-2.64,7.91a131.48,131.48,0,0,1-7.32,25.18q-6.74,22-6.73,30.74a9.46,9.46,0,0,0,.88,4.69q2.64,0,2.64,3.22,0,4.69-5.56,15.81-2.93,7.62-4.25,10.25t-2.34,2.93a17.46,17.46,0,0,1-4,.29Q571,262.7,567.8,259.77Z" fill="none"/>
    </clipPath>
    <clipPath id="Raye-clip-path-6">
      <path  data-name="Raye_clip" d="M698.39,238.54q-3.81-6-3.81-16.84a100.78,100.78,0,0,1,.88-12.3l.59-10.54a11.44,11.44,0,0,0-.59-4.1,9.16,9.16,0,0,0-2.64-3.22l-2.93-2.93q-2.35-2.34-2-3.81l-.29-1.46a9.77,9.77,0,0,1,.73-3.81c.48-1.17,1-1.76,1.61-1.76a8.66,8.66,0,0,0,2.34-.44,5,5,0,0,1,2.64-.15q4.1,0,4.1,1.76,1.17,2.35,4,.44t5.42-7.47a67.46,67.46,0,0,1,12.15-13.62,80.73,80.73,0,0,1,13.32-10.1,25.77,25.77,0,0,1,6.73-2.2,39.11,39.11,0,0,1,8.2-1,17.77,17.77,0,0,1,9.22,2.34,37.43,37.43,0,0,1,8.05,6.73q5.56,4.1,5.56,12.88a30.34,30.34,0,0,1-2.93,12.59q-1.17,4.39-9.22,11.13T744.65,200a77.48,77.48,0,0,1-18.74,2q-7,0-9.08-1.17-3.51-2-5,15.81a41.1,41.1,0,0,0-.29,5.56,17.79,17.79,0,0,0,1.46,7.91c.19.2.88.93,2,2.2a15,15,0,0,0,4.39,3.22,12.27,12.27,0,0,0,5.56,1.32,11.34,11.34,0,0,0,4.1-.59,16,16,0,0,0,6.15-3.37q2.92-2.48,8.2-7.76,4.68-4.68,6.73-6.44,1.46-2.64,5.86-2.64a24.89,24.89,0,0,1,4.1.59q2.64,2.05,2.64,4.39t-2.93,8.78q-1.47,2.93-7.17,8.05A91.91,91.91,0,0,1,742.6,246a37.44,37.44,0,0,1-18.15,5,38.75,38.75,0,0,1-12.88-2.64Q702.19,244.55,698.39,238.54Zm38.94-51.09a18.52,18.52,0,0,0,9.22-4q3.66-3.07,8.64-10.69a13.25,13.25,0,0,0,.88-4.68q0-4.39-1.76-6.15a6.46,6.46,0,0,0-4.69-2q-4.1,0-8.49,3.51-2.93.88-8.64,6.44a98.32,98.32,0,0,0-9.81,11q-4.1,5.42-2.64,6.3c-.39.59.59,1,2.93,1.32a48.65,48.65,0,0,0,5.86.44Q731.76,188.33,737.33,187.45Z" fill="none"/>
    </clipPath>
    <clipPath id="Raye-clip-path-7">
      <path data-name="Raye_clip" d="M868.07,245a24.6,24.6,0,0,1-4.54-13.62q0-4.68,2.2-16.84t5.42-23.86a27.83,27.83,0,0,0,1.76-7.61c0-1-.39-1.46-1.17-1.46s-3.12,1.17-7,3.51q-9.37,5-12.88,9.08-1.47,1.17-4.68,4.1a51.12,51.12,0,0,1-5.86,4.69q-5.56,4.39-14.79,12.74t-15.08,14.2a5.45,5.45,0,0,1-5,3.22,9.18,9.18,0,0,1-2.64-.59,11.78,11.78,0,0,1-6.15-4A10,10,0,0,1,795,222q0-4.39,5.12-18.45t12.74-30.74a22.33,22.33,0,0,0,2-6,34.49,34.49,0,0,0,.88-7.47,15.06,15.06,0,0,1,.88-4.68,9.77,9.77,0,0,1,2-3.81,2.88,2.88,0,0,1,2.64-1.46q3.8,0,6.44,4.39a14.61,14.61,0,0,1,4.69,11.13q0,5.57-3.22,14.35-2.05,4.1-3.07,6.59t-1.32,3.37q.88,0,7.61-4.1l7.32-4.39L848.6,174q6.73-5.27,7.61-5.27a6.91,6.91,0,0,0,2.93-.88,11.13,11.13,0,0,0,2.93-2,5.1,5.1,0,0,1,1.61-1.17,3.42,3.42,0,0,1,1-.29,8.73,8.73,0,0,0,1.46-.29,4.33,4.33,0,0,0,2-1.17q1.17-1.17,4.1-1.17a15.07,15.07,0,0,1,8.2,2.64q4.1,2.63,4.1,5.86a2.5,2.5,0,0,0,.59,1.61,12.2,12.2,0,0,0,.88,1c.78,0,1.46,1,2,3.07a27.49,27.49,0,0,1,.88,7.47,34.64,34.64,0,0,1-1.46,10.83,37.41,37.41,0,0,1-1.17,8.2q-1.17,5-1.46,6.44l-1.76,7.61q-3.81,11.71-3.81,19.32,0,5.86,2.34,9.08a5.24,5.24,0,0,1,.59,2.34A4.71,4.71,0,0,1,881,250.4a5,5,0,0,1-4,1.46Q872.61,251.86,868.07,245Z" fill="none"/>
    </clipPath>
    <clipPath id="Raye-clip-path-8">
      <path data-name="Raye_clip" d="M1028.08,173.68q0,6.74-7.61,21.37A134.17,134.17,0,0,1,1009,212.48a122.38,122.38,0,0,1-12.3,13.91,35.6,35.6,0,0,0-5.12,3.81,41.56,41.56,0,0,0-5.42,5.56A47,47,0,0,1,970,245.27a55.53,55.53,0,0,1-18.59,3.37,31.46,31.46,0,0,1-12-2,11.68,11.68,0,0,1-6.73-6.15,18.28,18.28,0,0,0-.44-3.81,6.19,6.19,0,0,1-.15-2.93q-6.74-.58-7-2.34.29-8.78,2-12,0-1.46,2.34-7.91a59.22,59.22,0,0,0,2.34-7.32q.58-2.34,2.64-13.32a99,99,0,0,1,6.15-20.64q7.61-26.94,12.59-38.36a205.59,205.59,0,0,1,7.17-23.13q3.36-8.49,8.93-20.5l4.39-9.08q.88-1.76,4.39-12.3a5.19,5.19,0,0,1,2.34-2.49,7.43,7.43,0,0,1,3.81-1A8.12,8.12,0,0,1,990,65.93q3.51,3.51,3.51,6.44t-4.68,14.05L984.45,97q-2.35,2.93-5.27,11.13t-3.81,10.83q-6.74,16.11-12,32.5-3.81,15.81-8.78,31.62l8.2-8.78a121,121,0,0,1,24-16q13.46-6.88,21.37-6.88a11.1,11.1,0,0,1,3.51.59q3.8,1.17,8.93,6.3t6,9.22A16.4,16.4,0,0,1,1028.08,173.68Zm-20.64,10q4-8.78,4-13.76,0-2.64-1.46-2.64t-10.25,3.51q-8.78,3.51-10.83,5.56c0,.59-.49,1.13-1.46,1.61l-2,1q-16.4,12.3-23.13,20.79-5.86,7.91-15.52,22.84a33.61,33.61,0,0,1-7.91,10.25l4.39.29A88.14,88.14,0,0,0,958.83,230a62.47,62.47,0,0,0,13.91-6.88q17-13.18,25.77-24.3A75.41,75.41,0,0,0,1007.44,183.64Z" fill="none"/>
    </clipPath>
    <clipPath id="Raye-clip-path-9">
      <path data-name="Raye_clip" d="M1079.32,251.57a29.14,29.14,0,0,1-13.91-3.51,31.62,31.62,0,0,1-11-9.66,30.32,30.32,0,0,1-5.56-10.54,50.51,50.51,0,0,1-1.76-14.35q0-2.92.59-11.71.88-10.83,7.17-22.55a86.9,86.9,0,0,1,15.67-20.94q9.37-9.22,18.45-12.74,4.68-2.92,8.49-2.93a29.42,29.42,0,0,1,4.1.29q2,.3,4.39.59a34.6,34.6,0,0,1,9.81,2.49,15.1,15.1,0,0,1,5.71,4.83,23.32,23.32,0,0,1,7.32,17q-1.17,7-9.08,16.1a61.24,61.24,0,0,1-19,14.64,37.89,37.89,0,0,1-12,1.76q-9.08,0-14.64-3.81a14.06,14.06,0,0,0-4.1-.88q-2.64,0-4,3.51T1063.51,212a44,44,0,0,0-.29,5.86q0,14.93,10,16.4a52,52,0,0,0,9.66,1.46,17.11,17.11,0,0,0,7.91-2.34l5.56-3.22a12.33,12.33,0,0,0,3.22-2.34l2.64-2.63q.58-.58,1.76-1.9a6.58,6.58,0,0,1,2.2-1.76,4.85,4.85,0,0,1,1.9-.44,4.21,4.21,0,0,1,2.64,1.32,22.06,22.06,0,0,0,2.34,1.9q2.64,0,1.17,3.66t-6.29,8.49a60.32,60.32,0,0,1-11,8.64A25.69,25.69,0,0,1,1079.32,251.57Zm27.38-75.83q5.12-5.27,5.12-8.78a7.52,7.52,0,0,0-2.64-5.86,10.65,10.65,0,0,0-7.32-2.34,17.82,17.82,0,0,0-5.27.59q-4.1,1.17-9.66,6.3a85.85,85.85,0,0,0-9.66,10.39q-4.1,5.27-3.22,6.15,1.46,2.64,11.42,2.64a30.22,30.22,0,0,0,11.13-1.76A31,31,0,0,0,1106.7,175.73Z" fill="none"/>
    </clipPath>
    <clipPath id="Raye-clip-path-10">
      <path data-name="Raye_clip" d="M1142.86,241.91a8.7,8.7,0,0,1-.88-4.39,27.24,27.24,0,0,1,.29-4.39,138.92,138.92,0,0,1,4.39-23.13l1.46-5.86q.88-7.32,10.25-30.74t15.23-31.92a9.25,9.25,0,0,1,5-1.46,8.77,8.77,0,0,1,6.44,2.64q1.76,1.17,1.76,4.39,0,2.93-2.2,8.64t-7.47,16.84q-1.17,2.35-4,8.78t-2.78,7.61c0,.39.1.59.29.59a2,2,0,0,0,1.17-.44,7.63,7.63,0,0,1,1.17-.73q3.22-5.56,15.67-15.23t17.13-12a34.88,34.88,0,0,1,5.27-2.34q3.22-1.17,4.39-1.76a24.62,24.62,0,0,1,11.13-2.34,18.1,18.1,0,0,1,7.17,1.32,7.72,7.72,0,0,1,4.25,4,5.08,5.08,0,0,0,1.61,3.22,10.58,10.58,0,0,0,1.9,1.46,1.14,1.14,0,0,1,1.17.73,3.5,3.5,0,0,1,.29,1q0,2.05-2.34,2.49a72.38,72.38,0,0,1-8.49.73,30.11,30.11,0,0,0-6.73,1.46,53.83,53.83,0,0,0-7,2.93q-16.4,9.37-24.45,14.64A85.18,85.18,0,0,0,1177.7,203q-3.23,3.51-8.49,12.59-2.05,2.05-4.25,10.69t-2.2,10.69c-.2.59-.59,1.71-1.17,3.37a18.06,18.06,0,0,1-2.64,4.83q-3.51,4.69-5.86,4.69-2.64,0-7-4.69A12.3,12.3,0,0,1,1142.86,241.91Z" fill="none"/>
    </clipPath>
  </defs>
  <desc id="raye_name_description">Name: Raye Penber</desc>
  <g id="Raye_name">
    <g id="Raye_r_mask">
      <g clip-path="url(#Raye-clip-path-1)">
        <path id="Raye_r" d="M11.5,281.5l84-208-30,8c47.92-16.73,85-13.2,101,23-15.75,37.05-50,61.65-110,69,13.37,44.2,46.52,79,98,105" fill="none" stroke="#000" stroke-width="28"/>
      </g>
    </g>
    <g id="Raye_a_mask">
      <g clip-path="url(#Raye-clip-path-2)">
        <path id="Raye_a" d="M255.5,169.5c-4.78-12.63-14.46-17-25-20-20.85,13.45-41.09,41.66-61,78,4.92,7.67,10.15,14.07,17,14,26.8-8.57,50-41.41,73-75-16.29,34.78-9.64,61,32,74" fill="none" stroke="#000" stroke-width="28"/>
      </g>
    </g>
    <g id="Raye_y_mask">
      <g clip-path="url(#Raye-clip-path-3)">
        <path id="Raye_y" d="M312,128c-2,51-.85,97.76,21.5,116.5l50-103c-26.91,66-57.34,124.35-96,165-12.64,3.05-30.2-3.73-48-11" fill="none" stroke="#000" stroke-width="29"/>
      </g>
    </g>
    <g id="Raye_e1_mask">
      <g clip-path="url(#Raye-clip-path-4)">
        <path id="Raye_e1" d="M410.5,185.5c8.78,9.61,21,13.74,35,15,9.77-8.7,17.74-23.63,25-41-9.23-10.46-19.33-14-30-13-24.67,24.73-52.42,63.17-34,101,15.73-1.51,20.41,11.11,64-26" fill="none" stroke="#000" stroke-width="30"/>
      </g>
    </g>
    <g id="Raye_p_mask">
      <g clip-path="url(#Raye-clip-path-5)">
        <path id="Raye_p" d="M593,252l-18.5-14.5,41-157c19.4-7.89,39.71-9,61-3,7.21,8.88,13.31,19.51,15,37-20.22,35.16-45.8,62.39-88,65" fill="none" stroke="#000" stroke-width="48"/>
      </g>
    </g>
    <g id="Raye_e2_mask">
      <g clip-path="url(#Raye-clip-path-6)">
        <path id="Raye_e2" d="M679.5,172.5c18.58,12.35,36.53,23.25,50,24,21.48-.48,30.45-14,38-29-3.89-11.14-11.48-16.15-21-18-39.59,13.71-41.69,50.8-42,89,9.08,6.15,18.85,7.84,29,7,12.67-5.22,22-19.1,31-34" fill="none" stroke="#000" stroke-width="27"/>
      </g>
    </g>
    <g id="Raye_n_mask">
      <g clip-path="url(#Raye-clip-path-7)">
        <path id="Raye_n" d="M822.5,138.5c3.23,34.11-5.33,67-23,99,17.66-31.6,72-78,78-68s-4.89,60.9,0,90" fill="none" stroke="#000" stroke-width="31"/>
      </g>
    </g>
    <g id="Raye_b_mask">
      <g clip-path="url(#Raye-clip-path-8)">
        <path id="Raye_b" d="M994.5,50.5a1359.47,1359.47,0,0,0-65,179c27.35-40.49,55.31-70.24,85-69,4.33,12.26,5,26-8,45-16.34,17-33.21,32.94-56,38-9.89-2.45-16.78-8.67-22-17" fill="none" stroke="#000" stroke-width="29"/>
      </g>
    </g>
    <g id="Raye_e3_mask">
      <g clip-path="url(#Raye-clip-path-9)">
        <path id="Raye_e3" d="M1050.5,177.5a130.9,130.9,0,0,0,42,17c14-6.3,23.11-17.53,31-30-5.92-12.17-16.61-16.6-31-15-24.21,14.92-33.77,43.9-38,78,7.29,9.42,15.33,17,26,18,12.27-4.75,25.09-15.38,38-27" fill="none" stroke="#000" stroke-width="29"/>
      </g>
    </g>
    <g id="Raye_r_mask-2" data-name="Raye_r_mask">
      <g clip-path="url(#Raye-clip-path-10)">
        <path id="Raye_r-2" data-name="Raye_r" d="M1183.5,131.5a737.34,737.34,0,0,0-40,120c17.68-48,51.28-81.61,105-97" fill="none" stroke="#000" stroke-width="29"/>
      </g>
    </g>
  </g>
</svg>
