<svg xmlns="http://www.w3.org/2000/svg" xmlns:xlink="http://www.w3.org/1999/xlink" width="450" height="300" viewBox="0 50 450 300" aria-labelledby="rem_name_description">
  <defs>
    <clipPath id="Rem-clip-path-1">
      <path d="M184.21,120.28A41.68,41.68,0,0,1,180.83,136Q175.9,148.28,155.91,165t-37.22,24.15q-6.77,3.08-15.69,6.15t-17.54,5.84a41.69,41.69,0,0,1-12.31,1.23l.62.62q7.07,15.69,27.38,38.15,9.53,11.08,26.15,25.38t28.61,20.15a5,5,0,0,1,1.23,3.69,13.09,13.09,0,0,1-1.69,6q-1.69,3.23-2.92,3.54a12.89,12.89,0,0,1-1.54.62,6.92,6.92,0,0,1-2.15.31q-4.31,0-12.31-5.23a204.46,204.46,0,0,1-28-20.15,283.49,283.49,0,0,1-29.53-30,152.8,152.8,0,0,1-11.23-14.61A111.82,111.82,0,0,1,59,213.8l-.62,1.85q-9.23,31.38-28,80.91-1.54,3.69-4.61,3.69-3.39,0-8.31-4l-2.15-2.15a13.42,13.42,0,0,1-2.15-2.62,4.56,4.56,0,0,1-.62-2.31q0-2.77,4.92-13.84L21.17,267q1.85-11.07,8.92-25.53Q32.24,234.1,55,178.73l5.54-13.54,3.38-8q8.31-20.92,22.46-52a26.69,26.69,0,0,0,1.54-5.85q0-4-5.23-4-3.39-4-3.38-7.38a4.57,4.57,0,0,1,3.08-4.61l16-6.46a93.87,93.87,0,0,1,20.92-2.46,79.24,79.24,0,0,1,37.53,8.92Q184.21,99.67,184.21,120.28Zm-35.69,29.38q17.53-15.23,16.61-29.69,0-5.84-6.15-12.3t-12.61-8.31q-18.77-4.3-25.23-4.31-5.54,0-8.77,2.31a12.06,12.06,0,0,0-4.46,7.23q0,.92-4,8.92Q95,132.89,92.54,140l-7.08,14.46Q75.61,174.12,73.62,179t-.46,6.46q12.61-.92,35.69-10.46A164.87,164.87,0,0,0,148.53,149.66Z" fill="none"/>
    </clipPath>
    <clipPath id="Rem-clip-path-2">
      <path d="M215.9,274.09a30.61,30.61,0,0,1-14.61-3.69,33.23,33.23,0,0,1-11.54-10.15,31.85,31.85,0,0,1-5.84-11.07,53.07,53.07,0,0,1-1.85-15.07q0-3.07.62-12.31.92-11.38,7.54-23.69a91.32,91.32,0,0,1,16.46-22q9.84-9.69,19.38-13.38,4.92-3.07,8.92-3.08a31,31,0,0,1,4.31.31q2.15.31,4.62.62a36.35,36.35,0,0,1,10.31,2.62,15.86,15.86,0,0,1,6,5.08,24.5,24.5,0,0,1,7.69,17.84q-1.23,7.38-9.54,16.92a64.34,64.34,0,0,1-20,15.38,39.82,39.82,0,0,1-12.61,1.85q-9.54,0-15.38-4a14.77,14.77,0,0,0-4.31-.92q-2.77,0-4.15,3.69t-2.62,13.54a46.39,46.39,0,0,0-.31,6.15q0,15.69,10.46,17.23a54.65,54.65,0,0,0,10.15,1.54,18,18,0,0,0,8.31-2.46l5.84-3.38a13,13,0,0,0,3.38-2.46l2.77-2.77q.61-.61,1.85-2a6.92,6.92,0,0,1,2.31-1.85,5.1,5.1,0,0,1,2-.46,4.42,4.42,0,0,1,2.77,1.38,23.07,23.07,0,0,0,2.46,2q2.77,0,1.23,3.85t-6.61,8.92a63.31,63.31,0,0,1-11.54,9.07A27,27,0,0,1,215.9,274.09Zm28.76-79.68q5.38-5.54,5.38-9.23a7.9,7.9,0,0,0-2.77-6.15q-2.77-2.46-7.69-2.46a18.73,18.73,0,0,0-5.54.62q-4.31,1.23-10.15,6.61a90.27,90.27,0,0,0-10.15,10.92q-4.31,5.54-3.38,6.46,1.54,2.77,12,2.77A31.76,31.76,0,0,0,234,202.11,32.51,32.51,0,0,0,244.66,194.42Z" fill="none"/>
    </clipPath>
    <clipPath id="Rem-clip-path-3">
      <path d="M410.78,257.64q-3.85-6-3.84-19.54l.31-14.15a20.48,20.48,0,0,0-.46-5.23c-.31-1-.87-1.54-1.69-1.54q-4,0-17.07,10.46a234.47,234.47,0,0,0-26.3,24.92q-1.54,1.54-4.15,4.46a24.65,24.65,0,0,1-4.77,4.31,7.52,7.52,0,0,1-4,1.38,7.82,7.82,0,0,1-5.23-2.15l-3.38-2.77a5.53,5.53,0,0,1-2.15-4.31l.62-2.77,7.08-20.3q6.76-15.69,8-19.84t-.31-3.84a23.84,23.84,0,0,0-7.69,2.92q-4.92,2.62-6.15,5.08-.62,0-4,3.23a38.76,38.76,0,0,1-5.84,4.77q-2.77,4-13.54,14.46l-7.38,7.08q-4.61,3.69-12.92,15.07-4.31,5.54-4.92,5.54-9.54,0-12-9.23a11.78,11.78,0,0,1-1.23-5.84q0-4.92,3.69-20.3,2.77-10.45,3.08-12.92l1.54-6.15a46.54,46.54,0,0,1,2.77-9.54q2.15-5.54,7.38-17.54,3.07-8.61,3.08-12.92a7.77,7.77,0,0,1,2.77-6.31,9.37,9.37,0,0,1,6.15-2.31,9.65,9.65,0,0,1,7.38,3.38,12.77,12.77,0,0,1,3.08,8.92,26.43,26.43,0,0,1-2.46,10.77l-3.38,8.31A150.65,150.65,0,0,0,306.49,209q-3.85,10.92-3.84,12.15c.2.62.92.46,2.15-.46s2.66-2.1,4.31-3.54a60.24,60.24,0,0,1,6.46-5.54,145.28,145.28,0,0,1,22-16.61q12.76-8,19.53-10.15a13.09,13.09,0,0,1,6,1.08,18.94,18.94,0,0,1,4.46,3.69q2.46,2.62,3.69,3.85,2.77,2.77,2.77,8a17.35,17.35,0,0,1-.62,4q-1.23,4.31-3.23,10.46t-2.92,8.92q2.15-1.85,7.69-6.46t10.15-8.61q15.38-12,24.3-12,6.46,0,11.07,6.77a11.58,11.58,0,0,1,3.38,5.69,39.83,39.83,0,0,1,.62,7.84v7.69a60.73,60.73,0,0,1,.31,7.38q.3,2.47.77,9.54t1.38,8q1.54,1.85,10.46,3.38,5.54.92,5.54,4.92,0,2.77-4,5.54a18.43,18.43,0,0,1-9.84,2.46,27.1,27.1,0,0,1-10.15-1.85Q414.62,263.64,410.78,257.64Z" fill="none"/>
    </clipPath>
  </defs>
    <desc id="rem_name_description">Name: Rem</desc>
  <g id="Rem_name">
    <g clip-path="url(#Rem-clip-path-1)">
      <path id="Rem_r" d="M15.5,300.5C73.08,170,129.59,56.39,72.5,90.5c43.21-11.55,82.35-15.49,102,17,7.35,47.71-53.94,71.41-114,88,24.89,46.69,61.09,82.54,105,111" fill="none" stroke="#000" stroke-width="32"/>
    </g>
    <g clip-path="url(#Rem-clip-path-2)">
      <path id="Rem_e" d="M200,204s25.5,13.5,36,8,29.5-16.5,27-30-23-16-23-16c-40,7.92-56.12,77.57-46.5,89.5,5.61,7,13,12,25,12s37-29,37-29" fill="none" stroke="#000" stroke-width="27"/>
    </g>
    <g clip-path="url(#Rem-clip-path-3)">
      <path id="Rem_m" d="M311.5,152.5l-30,116c21.76-39.69,54.2-67.46,94-87-8.39,30.65-20.91,61.67-37,93,26.56-35.12,53.91-64.73,83-82-4.53,20.78-7.72,42,0,67l23-3" fill="none" stroke="#000" stroke-width="27"/>
    </g>
  </g>
</svg>
