<svg xmlns="http://www.w3.org/2000/svg" xmlns:xlink="http://www.w3.org/1999/xlink" width="1534" height="300" viewBox="0 0 1534 300" aria-labelledby="soichiro_name_description">
  <defs>
    <clipPath id="Soichiro-clip-path">
      <path id="Soichiro_s_clip" d="M36,221.56l.29-.85q0-2.84-4.83-3.12A40.93,40.93,0,0,1,20.86,208a41.35,41.35,0,0,1-6.38-10.49,48,48,0,0,1-2-4.83,1.64,1.64,0,0,1,1-1.41c.67-.38,1.47-.85,2.42-1.42a5.61,5.61,0,0,1,3.68-1.42,2.77,2.77,0,0,1,2.13,1.28,35.28,35.28,0,0,1,2.69,4.39q3.41,6,11.63,9.5a46.75,46.75,0,0,0,18.72,3.55A56,56,0,0,0,78.57,202c4.92-2.07,8.51-4.11,10.78-6.09a8.75,8.75,0,0,0,3.4-6.67q0-3.4-3.11-8.22a14.14,14.14,0,0,0-2.42-4.12,48.52,48.52,0,0,0-4.39-4.39c-1.14-.95-3.31-3-6.52-6.24A60.54,60.54,0,0,1,67,161.72l-6-2.84q-7.65-3.39-17.73-11.76T29.79,132.51a24.64,24.64,0,0,1-6.24-10.21,43,43,0,0,1-2.27-14.18A41.21,41.21,0,0,1,25.54,89.4q3.41-7.66,15-21.27T58.44,50.26l7.37-7.09c.19-.75.47-1.18.85-1.28a4.15,4.15,0,0,1,.85-.14,60.64,60.64,0,0,1,6-2.69,36.8,36.8,0,0,0,10.78-7.52A307.49,307.49,0,0,1,115.3,18.07Q127.08,14,134.73,14A30.83,30.83,0,0,1,153,20.62a24.35,24.35,0,0,1,8.94,16,17.47,17.47,0,0,1,.56,5.1q0,10.22-7.37,22T138.42,80.89Q131.32,84,128.49,84a2.71,2.71,0,0,1-2.69-1.42,8.81,8.81,0,0,1-.43-4.54,12.12,12.12,0,0,1,1.84-5.81q1.85-3.26,8.37-10.63,11.63-16.74,11.63-25,0-4.83-4.26-5.11-3.12-.86-15.74,1.42c-8.41,1.52-12.62,2.74-12.62,3.69a6.37,6.37,0,0,1-.14,1c-.1.47-.42.62-1,.43q-1.14-.28-21,11.76T72.05,63.31a5.72,5.72,0,0,1-2.13,3A18,18,0,0,1,65.53,69a34,34,0,0,0-9.93,9.07,155,155,0,0,0-10.78,17,46.93,46.93,0,0,0-5.53,10.5,29.59,29.59,0,0,0-2.12,10.21,15.23,15.23,0,0,0,.85,5.38q1.41,4.83,8.79,11.77a103,103,0,0,0,18.43,13.48,188.09,188.09,0,0,1,24.25,16q9.8,7.8,12.34,13.19a33.69,33.69,0,0,1,6.52,20.13,30.25,30.25,0,0,1-.85,7.38,32.9,32.9,0,0,1-7.09,9.5q-4.81,4.68-8.22,4.4a18.7,18.7,0,0,0-4.82,2.12A21.43,21.43,0,0,1,84,221q-3.12,2-14.89,3.26a133.11,133.11,0,0,1-21.69.71Z" fill="none"/>
    </clipPath>
    <clipPath id="Soichiro-clip-path-2">
      <path id="Soichiro_o_clip" d="M152.88,205.4a42.26,42.26,0,0,1-5.67-4.26q-9.36-9.91-9.36-18.15a9.88,9.88,0,0,1,.28-2.83,8.48,8.48,0,0,0,.71-4c-.1-1.33-.14-2.18-.14-2.56-.76-.75-1.13-1.27-1.13-1.56a1.14,1.14,0,0,1,.56-.85,2.75,2.75,0,0,0,.85-1c1.14,0,1.51-1,1.14-3.12q-.57-2.27,2.27-10.07a69,69,0,0,1,7.09-14.32A133.35,133.35,0,0,1,158.69,130a79.46,79.46,0,0,1,10.92-11.63,66.13,66.13,0,0,1,12.2-8.79,46.93,46.93,0,0,1,11.91-4.26,39.84,39.84,0,0,1,7.66-1.42,6.47,6.47,0,0,1,3.54,1A27.25,27.25,0,0,1,209,108.4q7.65,3.41,10.63,8.65t3,16.31q0,18.44-15,40a79.52,79.52,0,0,1-12.2,14.32,108.18,108.18,0,0,1-15,10.64,48.4,48.4,0,0,1-10.92,6.1,36.56,36.56,0,0,1-11.2,2.12A10.83,10.83,0,0,1,152.88,205.4ZM196.42,162a94.09,94.09,0,0,0,7.79-17.3,41.38,41.38,0,0,0,1.42-11.62c0-5.68-.75-8.89-2.27-9.65a12.65,12.65,0,0,0-5.67-1.42q-6.24,0-13,5.68a76.65,76.65,0,0,0-14.75,17.44,204.53,204.53,0,0,0-13.33,25.67,26.93,26.93,0,0,0-2.84,11.62,10.28,10.28,0,0,0,2.13,6.81,7.16,7.16,0,0,0,5.81,2.55q9.36,0,23.83-15.31A101.47,101.47,0,0,0,196.42,162Z" fill="none"/>
    </clipPath>
    <clipPath id="Soichiro-clip-path-3">
      <path id="Soichiro_i_clip" d="M246.05,196.61a25.86,25.86,0,0,1-3.83-10.78q1.13-10.79,1.7-15.32,2.27-10.48,7.23-28.78t6.1-20.57a2.79,2.79,0,0,1,2.55-1.41,7.58,7.58,0,0,1,3.69,1.13,16.5,16.5,0,0,1,3.4,2.55,11.81,11.81,0,0,1,2.27,7.09q0,6-5.67,25-4,14.19-5.11,20.14a56,56,0,0,0-.85,12.76q-.28,2-1,6.67a25.63,25.63,0,0,1-1.28,5.81,1.8,1.8,0,0,1-1.7,1.13Q249.32,202,246.05,196.61ZM283.91,89.68c-.76,0-2-.56-3.69-1.7q-2.84-.28-7.51-5T268,76.92a28.34,28.34,0,0,1,1.7-12.2q2.26-6.51,8.22-6.8a8.49,8.49,0,0,1,2.27.42c.95.29,2.55.9,4.82,1.85L287.45,65a42.44,42.44,0,0,1,2.84,7.09,22.5,22.5,0,0,1,1,6.24,11.78,11.78,0,0,1-5.67,10.49A2.44,2.44,0,0,1,283.91,89.68Z" fill="none"/>
    </clipPath>
    <clipPath id="Soichiro-clip-path-4">
      <path id="Soichiro_c_clip" d="M316.81,208.23q-10.5,0-17.3-6.52t-6.81-18.15q-1.14-12.48,5.53-30.91t16.88-30.92q7.08-8.22,12.19-13.33t9.36-6.81A33.53,33.53,0,0,1,350,99a32.07,32.07,0,0,1,10.07,4.26c3.3,2.08,5,4.16,5,6.24l1.42,1.41c1.13,0,2.17,1.38,3.12,4.12A27.36,27.36,0,0,1,371,124a15.15,15.15,0,0,1-1.42,6.81,26.07,26.07,0,0,1-3.83,9.36c-1.8,2.65-3.54,4-5.25,4-2.08,0-3.12.56-3.12,1.7a1,1,0,0,1-1.13,1.13,5.65,5.65,0,0,1-3.4-1.7,9.55,9.55,0,0,1-2.84-4,27.93,27.93,0,0,1,1.14-4.82c.75-2.65,1.51-5.58,2.26-8.79a24.9,24.9,0,0,0,.85-6c0-3.78-1.41-5.67-4.25-5.67a10.15,10.15,0,0,0-4.54,1.13q-11.34,6.24-20.13,19.86t-14.75,37.43a47.27,47.27,0,0,0-1.42,9.93,19.09,19.09,0,0,0,.43,4.54c.28,1.13.61,1.8,1,2a19.43,19.43,0,0,0,5.95.57q10.5,0,14.75-2.55a160.65,160.65,0,0,0,20.14-13c.75-.57,1.89-1.56,3.4-3a15.11,15.11,0,0,1,4.26-3q2-3.12,3.68-3.83a15.1,15.1,0,0,1,5.39-.71,17.67,17.67,0,0,1,6,3q2.26,1.85,0,3a1.15,1.15,0,0,0-1.14.57,2.19,2.19,0,0,0-.28.85q.57,1.42-4.54,7.09a93.52,93.52,0,0,1-11.34,10.64q-6.24,5-8.51,5a6.59,6.59,0,0,0-2,.28,1.33,1.33,0,0,0-.85,1.42q0,1.14-8.65,5.25a67.57,67.57,0,0,1-14,5.25A45.61,45.61,0,0,1,316.81,208.23Z" fill="none"/>
    </clipPath>
    <clipPath id="Soichiro-clip-path-5">
      <path id="Soichiro_h_clip" d="M472.79,204.26q-7.08,0-11.48-6.24t-4.4-16.73q0-4.81,2-16a124.36,124.36,0,0,1,4.53-18.58,23.56,23.56,0,0,0,.86-2.27,5.65,5.65,0,0,0,.42-2.41c-.1-.47-.33-.71-.71-.71q-1.42,0-5.1,3.69a171.81,171.81,0,0,0-17,17.16,157.07,157.07,0,0,0-15,19.85q-6,9.51-6,13.19a5.55,5.55,0,0,1-2.41,4.82,9.38,9.38,0,0,1-5.53,1.7,8.13,8.13,0,0,1-3.69-.85,14.6,14.6,0,0,1-5.81-5.67q-1.56-3.12-1.56-9.08,0-4.81.28-7.66A251.36,251.36,0,0,1,406.29,144q3-14.9,11.48-42.41.28-.84,5.39-14.46,8.79-24.94,9.93-27.23,2-2,5.81-12.33T442.73,35a9.58,9.58,0,0,1,2.84-7.09L448.4,25a11.71,11.71,0,0,1,6,2.13,9.07,9.07,0,0,1,4.25,5,16.53,16.53,0,0,1,2,7.94,26.68,26.68,0,0,1-2.41,9.78q-2.42,5.82-8.09,16.88a288.65,288.65,0,0,0-15.31,37.72q-3.12,9.07-8.65,28.22t-5.53,22.26a1.75,1.75,0,0,0,2,2c1.52,0,3.12-1.14,4.83-3.4q1.13-2.26,10.77-11.06,1.14-1.14,12.77-11.77T467.69,120a10.72,10.72,0,0,1,6.66,2.55,12.61,12.61,0,0,1,4.4,6,9.08,9.08,0,0,1,1.7,2.27,6.73,6.73,0,0,0,1.14,1.7c.37.38.56,1.51.56,3.4q0,9.93-6.24,28.65-4.82,18.72-4.82,22.4c0,1.7.47,2.55,1.42,2.55.57-.37,1.7-1,3.4-2s3.69-2.08,6-3.4q9.64-6.52,17-6.53c2.27,0,3.4.76,3.4,2.27a4.91,4.91,0,0,1-.85,2,4.82,4.82,0,0,0-.85,2.27v1.41q0,1.43-7.66,8.51T481.87,202A18.93,18.93,0,0,1,472.79,204.26Z" fill="none"/>
    </clipPath>
    <clipPath id="Soichiro-clip-path-6">
      <path id="Soichiro_i2_clip" d="M524.41,196.32c-.95-.37-1.61-.66-2-.85a11.45,11.45,0,0,0-.71-3,11.7,11.7,0,0,1-.71-2.69c-1.52-.76-2.27-1.7-2.27-2.84a13.52,13.52,0,0,1,.85-4q3.67-6.53,13-29.64T543.13,126a6.63,6.63,0,0,1,.85-2.84,11,11,0,0,1,2-2.84,3.56,3.56,0,0,1,2.56-1.13c2.08,0,4,1.42,5.81,4.25a17.14,17.14,0,0,1,2.7,9.36q0,3.41-6.39,19.43t-14.32,32.19c-.76,1.52-1.84,3.69-3.26,6.52s-2.51,4.54-3.26,5.11a5.09,5.09,0,0,1-3.12.85A6.47,6.47,0,0,1,524.41,196.32Zm33-112.74q-5.54-5.81-5.53-12c0-.94,1.13-3.12,3.4-6.52s3.41-5.29,3.41-5.67a17.59,17.59,0,0,1,3.4.28,18.67,18.67,0,0,1,3.41,1.13,45.32,45.32,0,0,0,7.93,11.63q1.71,2.28,3.13,4.26A6.26,6.26,0,0,1,578,80a32.54,32.54,0,0,1-.42,6.52,3.07,3.07,0,0,1-2.27,2.27,27.73,27.73,0,0,1-7,.57Q563,89.4,557.45,83.58Z" fill="none"/>
    </clipPath>
    <clipPath id="Soichiro-clip-path-7">
      <path id="Soichiro_r_clip" d="M585.67,206.25a6.73,6.73,0,0,1-3.54-1.14A16.18,16.18,0,0,1,580,203.7c-2.84,0-4.64-1.52-5.39-4.54a7.05,7.05,0,0,1-.28-2.55q0-3.69,3.4-14.47l2-9.07q2.84-12.48,5.11-21,.85-1.43,3.4-9.64a73.58,73.58,0,0,1,4.54-12.2A100.38,100.38,0,0,1,603.54,105a12.06,12.06,0,0,1,2.27-2.27,5,5,0,0,1,2.55-1.42,5.15,5.15,0,0,1,3.69-1.7q2,0,5.1,2.55,2.83,3.41,2.84,6.53,0,5.39-7.09,16.16l-4.54,11.06q-.57,1.43-2.84,6.67a36.21,36.21,0,0,0-2.83,9.5Q606.37,147,616,137.33a86.62,86.62,0,0,1,9.36-8.37q3.68-2.69,10.77-7.23a50,50,0,0,1,9.08-5.39A24.83,24.83,0,0,1,658,114.92c2.65-.18,4.73,1.14,6.24,4A28.65,28.65,0,0,1,667.07,130a34,34,0,0,0-4.82-.57,21.65,21.65,0,0,0-10.07,2.27,51,51,0,0,0-7.23,4.39c-1.9,1.42-3.12,2.32-3.69,2.7q-15.32,9.93-23.83,18.72-8.79,9.65-12.33,14.18a34.52,34.52,0,0,0-5.25,9.07q-.86,2-4.82,11.77t-6.52,11.77A3.3,3.3,0,0,1,585.67,206.25Z" fill="none"/>
    </clipPath>
    <clipPath id="Soichiro-clip-path-8">
      <path id="Soichiro_o2_clip" d="M690.6,205.4a42.92,42.92,0,0,1-5.67-4.26q-9.36-9.91-9.36-18.15a9.88,9.88,0,0,1,.28-2.83,8.36,8.36,0,0,0,.71-4c-.09-1.33-.14-2.18-.14-2.56-.76-.75-1.13-1.27-1.13-1.56a1.14,1.14,0,0,1,.56-.85,2.88,2.88,0,0,0,.86-1c1.13,0,1.51-1,1.13-3.12q-.57-2.27,2.27-10.07a69.49,69.49,0,0,1,7.09-14.32A132,132,0,0,1,696.42,130a78.4,78.4,0,0,1,10.92-11.63,65.77,65.77,0,0,1,12.19-8.79,46.93,46.93,0,0,1,11.91-4.26,40,40,0,0,1,7.66-1.42,6.53,6.53,0,0,1,3.55,1,27.28,27.28,0,0,1,4.11,3.54q7.65,3.41,10.63,8.65t3,16.31q0,18.44-15,40a79.52,79.52,0,0,1-12.2,14.32,108.18,108.18,0,0,1-15,10.64,48.4,48.4,0,0,1-10.92,6.1,36.56,36.56,0,0,1-11.2,2.12A10.83,10.83,0,0,1,690.6,205.4ZM734.14,162a94.05,94.05,0,0,0,7.8-17.3,41.78,41.78,0,0,0,1.41-11.62c0-5.68-.75-8.89-2.26-9.65a12.72,12.72,0,0,0-5.68-1.42q-6.24,0-13,5.68a76.91,76.91,0,0,0-14.75,17.44,204.53,204.53,0,0,0-13.33,25.67,26.93,26.93,0,0,0-2.84,11.62,10.28,10.28,0,0,0,2.13,6.81,7.17,7.17,0,0,0,5.81,2.55q9.36,0,23.83-15.31A100.72,100.72,0,0,0,734.14,162Z" fill="none"/>
    </clipPath>
    <clipPath id="Soichiro-clip-path-9">
      <path id="Soichiro_y_clip" d="M1009.1,40.62c-.19,1.13-1.14,2.51-2.84,4.11s-2.84,2.69-3.4,3.26q-6.24,5.4-19.86,19.57T961.45,91.67q-11.36,13-20.7,23.11t-13.62,14.33a74.71,74.71,0,0,1-5.67,5.95q-2.84,9.93-5.1,19.85l-5.68,18.44q-1.42,4.26-4,13.47t-4.25,13.47c-.57,2.27-1.14,4.5-1.7,6.67s-1.14,4.3-1.71,6.38q-1.69,6.53-3,10.78c-.85,2.83-1.66,4.68-2.41,5.53s-1.9,1-3.41.42q-1.14-.28-8.51-5.39-2.55-2.84-2.55-5.1a33.7,33.7,0,0,1,1.7-7.66l2.27-8.51a79.46,79.46,0,0,1,2.7-16.16,62.32,62.32,0,0,1,5.81-15.32q0-4.26,2.84-13.19t6-16.59l4.82-13.61-4.82-6A107.94,107.94,0,0,1,891.11,106a67.47,67.47,0,0,1-4.53-17.44,89,89,0,0,1-3.12-23.83q0-4,.56-22.12.29-12.18,2.84-17c1.7-3.22,2.64-5.11,2.84-5.68,1.13-1.13,2.07-1.7,2.83-1.7q3.12,0,5.53,7.09A47.64,47.64,0,0,1,900.19,42q1.69,62.1,14.18,70.05a16.91,16.91,0,0,0,2.84.57q3.1,0,6.66-3.27t14-14.6L944.15,88q4.53-4.82,24.11-27.23,11.34-13.32,18.29-21t10.92-9.93a6.58,6.58,0,0,1,2.27-2.27,10.2,10.2,0,0,1,2.41-1.13,6.45,6.45,0,0,1,1.27-.29,2.53,2.53,0,0,1,1.71,1.56,33.29,33.29,0,0,1,1.27,3.69,14.72,14.72,0,0,0,1.85,4.11A9.92,9.92,0,0,1,1009.1,40.62Z" fill="none"/>
    </clipPath>
    <clipPath id="Soichiro-clip-path-10">
      <path id="Soichiro_a_clip" d="M987.26,203.13a30.89,30.89,0,0,1-6.81-.71c-2.08-.47-3.12-1.09-3.12-1.84a1.65,1.65,0,0,0-.28-1.14,1.7,1.7,0,0,0-1.13-.28c-.19-.19-.76-.66-1.71-1.42a14.93,14.93,0,0,0-3.4-2,15.43,15.43,0,0,1-2.55-8.5q0-4.83,2.55-15,.86-9.06,8.51-22.68a163.18,163.18,0,0,1,18-25.81q10.35-12.19,18.58-17a14.56,14.56,0,0,1,10.77-4.25,19.4,19.4,0,0,1,9.65,2.55,31.93,31.93,0,0,1,8.36,7.66,50,50,0,0,1,7,11.06,32.14,32.14,0,0,1,1.14,8.22,121.82,121.82,0,0,1-1.14,13.33,93.75,93.75,0,0,0-2.41,12.48,97.82,97.82,0,0,0-1,12.76,11.23,11.23,0,0,0,.57,6.38c.75,1.61,1.79,2.41,3.11,2.41a7,7,0,0,0,3.12-.85,13.85,13.85,0,0,1,6.24-1.41,7.56,7.56,0,0,1,5.11,1.7,6.35,6.35,0,0,1,2,5.1q0,5.11-7,10.21t-13.19,5.11q-4.26,0-7.8-6.67a107.67,107.67,0,0,1-7-17.16l-1.7-6.52-12.2,11.63-6.52,6.52a69.2,69.2,0,0,0-5.11,5.39q-3.12,5.4-15.59,10.21A26.31,26.31,0,0,1,987.26,203.13Zm22.69-31.2a156.5,156.5,0,0,0,16.45-19q8.79-11.62,11.06-23a24.05,24.05,0,0,0-3.69-6.81q-2.55-3.41-4.53-3.69-5.68,0-11.92,6.53a185.32,185.32,0,0,0-14.74,18.15L993.22,158q-1.71,2.28-6,12.06T983,181.86c0,4.16,1.22,6.24,3.68,6.24a12.93,12.93,0,0,0,6.53-2.27Q1000,181.86,1010,171.93Z" fill="none"/>
    </clipPath>
    <clipPath id="Soichiro-clip-path-11">
      <path id="Soichiro_g_clip" d="M1164.8,131.66a13.69,13.69,0,0,1-3.4,8.51c-.57.94-1.61,2.41-3.12,4.39a48.19,48.19,0,0,0-4,6.1,26.39,26.39,0,0,0-2.55,7.09q-1.12,6.52-6.8,27.79l-3.12,11.07-4.54,17.58q-12.76,44-25.53,50.77a19.82,19.82,0,0,1-7.09,1.41,24.58,24.58,0,0,1-12.9-4.11,38,38,0,0,1-11.49-11.2q-2.83-4-5.53-12.62t-1-9.79a2.76,2.76,0,0,1,2-.56,8.79,8.79,0,0,1,4.26,1.27,5.69,5.69,0,0,1,2.83,3,37.48,37.48,0,0,0,4.83,8.23c2.45,3.4,4.25,5.19,5.38,5.38a17.86,17.86,0,0,0,7.66,2.27,7.86,7.86,0,0,0,4.82-1.7,32.55,32.55,0,0,0,7.8-9.5q3.26-5.82,7.23-18.58l2.27-8.22q6.81-25,9.93-32.33a38.13,38.13,0,0,1,2.84-7.09l-5.11,4.53q-3.4,3.13-7.09,6a35.74,35.74,0,0,1-7.66,4.54q-2,2.55-9.92,2.55a39.44,39.44,0,0,1-11.35-1.7q-6-3.12-7.37-4.82c-.95-1.14-2.27-3.78-4-7.94-.76-1.51-1.14-3.88-1.14-7.09q0-12.2,5.68-26.1,5.38-11.05,17-23.54t20.14-15a14.18,14.18,0,0,1,6.24-1.7,20.76,20.76,0,0,1,6.52,1.13,20.3,20.3,0,0,1,7.09,2,64.41,64.41,0,0,1,8.51,6.52,42.67,42.67,0,0,1,9.93,15A14.67,14.67,0,0,1,1164.8,131.66Zm-26.09,7.51a44.57,44.57,0,0,0,1.41-14.89,14.87,14.87,0,0,0-1.13-5.53,3.26,3.26,0,0,0-3.12-1.56q-5.38,0-12.48,5.11a69.23,69.23,0,0,0-13.61,13.33,51.16,51.16,0,0,0-7.09,13.61,54,54,0,0,0-3.41,17.87q0,6.24,2.27,7.09a30.06,30.06,0,0,0,16-5.11q7.23-4.82,14.32-15.88A41.19,41.19,0,0,0,1138.71,139.17Z" fill="none"/>
    </clipPath>
    <clipPath id="Soichiro-clip-path-12">
      <path id="Soichiro_a_clip-2" data-name="Soichiro_a_clip" d="M1189.19,198.31q-6-4.26-7.09-9.36a16.81,16.81,0,0,1-.29-3.69q0-10.48,8.09-27.08a152.08,152.08,0,0,1,19.71-30.63q11.63-14,21.27-17.73,6-3.12,7.66-3.12t7.65,3.12a20.11,20.11,0,0,1,6,2.55,27.42,27.42,0,0,1,5.11,5.67,62.63,62.63,0,0,1,5.38,18.16,35.86,35.86,0,0,1,1.71,8.5,5.41,5.41,0,0,1-1.71,4c-.19.2-.52.57-1,1.14a2.52,2.52,0,0,0-.71,1.27c0,.29.19.43.57.43a7,7,0,0,1-.28,1.28,16.74,16.74,0,0,1-1.14,2.69q-3.4,10.78-3.4,18.44a26.49,26.49,0,0,0,.57,5.38q2.82,7.38,9.64,7.38,5.67,0,10.78-5.11c3-2.07,5.24-3.54,6.66-4.39s2.13-.61,2.13.71a8.29,8.29,0,0,0,1.13.85,3,3,0,0,0,1.7.56c1.33,0,2,.86,2,2.56a10.77,10.77,0,0,1-2,5.67,45.1,45.1,0,0,0-3.12,3.4,4.2,4.2,0,0,0-1.13,2.27l-4.25,4a25,25,0,0,1-12.77,3.12c-5.1,0-9.17-1-12.19-3.12a38.51,38.51,0,0,1-12.48-17.87l-1.42-2.83-8.22,5.39a83.41,83.41,0,0,1-6.53,5.81q-3.69,3-4.82,4.11c-1.51,1.9-2.83,2.84-4,2.84h-2.84c0,1.33-1.84,2.79-5.53,4.4a24.93,24.93,0,0,1-9.78,2.41Q1195.15,202.56,1189.19,198.31Zm24.11-21.13q12.75-8.94,16.16-13.19l8.23-8.51a40.8,40.8,0,0,0,7.23-11.63,31.54,31.54,0,0,0,2.69-11.91q0-4.82-1.42-6.81c-.75-2.26-1.89-3.4-3.4-3.4-.76,0-2.93.67-6.52,2q-5.4,3.41-15.18,15.6a217.72,217.72,0,0,0-17.44,25.1q-7.65,12.9-7.65,18.86a3,3,0,0,0,.56,1.7,8.29,8.29,0,0,0,.85,1.13Q1200.53,186.11,1213.3,177.18Z" fill="none"/>
    </clipPath>
    <clipPath id="Soichiro-clip-path-13">
      <path id="Soichiro_m_clip" d="M1304.62,194.62c0-1.51-.48-2.27-1.42-2.27q-1.71-1.69,6.52-19.43t14.18-27.08a5.09,5.09,0,0,0,1.7-2.41q.57-1.56,0-1.56c.38-.57,1-1.51,1.7-2.84a28.2,28.2,0,0,1,2.27-3.4q4.83-9.36,4-15a2.51,2.51,0,0,0-2.41-.85,4,4,0,0,0-1.56.56,24.09,24.09,0,0,1-3,1,15.21,15.21,0,0,0-4.12,1.84q-6.52,4.26-8.22,4.25a3.66,3.66,0,0,1-3-1.7,22.48,22.48,0,0,1-2.69-5.67,13.35,13.35,0,0,1-.85-3.69q0-2,2.26-4a12.52,12.52,0,0,1,4.12-2.69,21.64,21.64,0,0,0,3.26-1.56q6-3.41,8.51-4a32.18,32.18,0,0,1,8.22-1.42q8.51,0,11.91,7.94a16.9,16.9,0,0,1,4,11.06q0,5.4-4,13.9l-2.83,4.25a6.8,6.8,0,0,0-.85,2.27c0,.38.09.57.28.57.75,0,1.6-.66,2.55-2,.95-.94,2.17-2.12,3.69-3.54s2.55-2.13,3.12-2.13a1.73,1.73,0,0,0,.85-.42q.57-.44.57-2.13l2.83-2.55q1.14,0,6.81-4.83l5.39-4.25a10,10,0,0,1,5.67-2.27,9,9,0,0,1,2.55-.28q5.38,0,8.8,5.81t3.4,14.89l-6,15.32,10.21-12.48a57.23,57.23,0,0,1,6.81-6.81,3.26,3.26,0,0,1,1.56-2.13,4.64,4.64,0,0,1,1.28-.42,1.35,1.35,0,0,0,.71-.29.94.94,0,0,0,.42-.85c.75-.56,1.75-1.27,3-2.12a9.48,9.48,0,0,0,2.41-2.13,13.9,13.9,0,0,1,5.67-1.13q6,0,9.93,7.65a19.2,19.2,0,0,1,2.13,5.53,53.65,53.65,0,0,1,.42,8.09q-1.14,6.24-2,13,0,1.14-.57,5.68-1.42,3.12-1.42,9.64a18.1,18.1,0,0,0,.43,5.1c.28.76,1,1.14,2.12,1.14a52.94,52.94,0,0,0,11.21-4.11c4.63-2.18,8-4.3,10.06-6.39q4.26-4.25,7.66-4.25,3.12,0,4,3.4.86,1.71-4.39,9.08t-7.24,7.37c-.38,0-1.09.57-2.12,1.7a15.21,15.21,0,0,1-2.41,2.27q-4.83,5.4-8,5.39a8.83,8.83,0,0,0-3,.71,9.39,9.39,0,0,1-3.27.71,8.28,8.28,0,0,1-2.83.28,16.31,16.31,0,0,1-8.23-2.27,10.38,10.38,0,0,1-5.1-6.8q-2.28-5.67-2.27-15.88c0-1.71.19-4.44.57-8.23l1.42-8.79c.37-3.59.75-5.77,1.13-6.52V147c0-3.21-.28-4.82-.85-4.82q-2.28,0-15,14.61a231,231,0,0,0-19.57,25.1,43.86,43.86,0,0,0-4.4,7.51q-2.42,5-3,5.25a3.48,3.48,0,0,1-2.55,1.13,5.88,5.88,0,0,1-3.69-1.7,15.24,15.24,0,0,1-3.4-4.25,12.75,12.75,0,0,1-1.13-4.26,34.83,34.83,0,0,1,1.7-7.79q1.7-5.82,4.82-15.46,3.12-9.36,5.25-16.17c1.42-4.54,2.31-7.56,2.69-9.07q0-2-14.18,10.21-2.84,3.41-6.52,7.09-6.53,6.79-14.61,15.88a222.27,222.27,0,0,0-14,17.3q-6.24,8.5-9.21,11.91t-5,3.4c-1,0-2.17-.85-3.69-2.55A9.08,9.08,0,0,1,1304.62,194.62Z" fill="none"/>
    </clipPath>
    <clipPath id="Soichiro-clip-path-14">
      <path id="Soichiro_i_clip-2" data-name="Soichiro_i_clip" d="M1471.67,190.37a15,15,0,0,1,1.41-6.81,12.64,12.64,0,0,1,.57-3.4,12.82,12.82,0,0,0,.57-2.56q-.29-1.69,2.27-9.36,5.1-11.34,13.61-40a3.12,3.12,0,0,1,1.13-2.41,6.31,6.31,0,0,1,3.41-1.27,15.51,15.51,0,0,1,3.12-.57,4.12,4.12,0,0,1,3,1.28,34.31,34.31,0,0,1,3.54,4.68,6.89,6.89,0,0,1,1.7,5.1c0,3.6-1.23,7.94-3.69,13.05a66.67,66.67,0,0,0-4.82,14.18,127,127,0,0,0-5.39,14.18c-.38,1.13-.94,3.4-1.7,6.81a25.72,25.72,0,0,1-3.12,8.22,60.29,60.29,0,0,1-3.12,11.06q-1.41,3.12-3.12,3.12c-1.32,0-3.12-1.32-5.38-4C1473,199.06,1471.67,195.29,1471.67,190.37Zm28.07-110.61q-1.42-4.83,0-4.83c1.51-.18,3.26-1.84,5.25-5s2.88-5.72,2.69-7.8a3.25,3.25,0,0,1,.86-2.13,3.75,3.75,0,0,1,2-1.27,7.86,7.86,0,0,1,4-1.42q4.82,0,8.79,6.81a15.82,15.82,0,0,1,1.7,6.52,11.31,11.31,0,0,1-1.41,5.25,40.49,40.49,0,0,1-5.11,6.95q-4.83,6.53-9.07,6.52c-1.9,0-4-.94-6.24-2.84C1501.82,85.24,1500.69,83,1499.74,79.76Z" fill="none"/>
    </clipPath>
  </defs>
  <desc id="soichiro_name_description">Name: Soichiro Yagami</desc>
  <g id="Soichiro_name">
    <g id="Soichiro_s_mask">
      <g clip-path="url(#Soichiro-clip-path)">
        <path id="Soichiro_s" d="M124.5,89.5c29.28-28.78,39.37-51.84,23-67-39.95.08-79.64,24.22-119,81-.48,20.77,10.87,36.83,32,49,24,7.5,34.48,24.08,40,44-14.43,11.76-31.22,20.87-56,21l-35-32" fill="none" stroke="#000" stroke-width="30"/>
      </g>
    </g>
    <g id="Soichiro_o_mask">
      <g clip-path="url(#Soichiro-clip-path-2)">
        <path id="Soichiro_o" d="M214,134c-4.86-20.46-15.16-23.23-27-21a199.6,199.6,0,0,0-43,65c2.46,12.82,8.67,20,19,21C193.57,180.8,213.24,159.82,214,134Z" fill="none" stroke="#000" stroke-width="26"/>
      </g>
    </g>
    <g id="Soichiro_i_mask">
      <g clip-path="url(#Soichiro-clip-path-3)">
        <path id="Soichiro_i1" d="M267,116c-8.2,29.6-15.53,60.15-22,91" fill="none" stroke="#000" stroke-width="29"/>
        <line id="Soichiro_i2" x1="266.5" y1="59.5" x2="293.5" y2="87.5" fill="none" stroke="#000" stroke-width="29"/>
      </g>
    </g>
    <g id="Soichiro_c_mask">
      <g clip-path="url(#Soichiro-clip-path-4)">
        <path id="Soichiro_c" d="M355.5,151.5c8.31-16.37,9.47-30.75,3-43-31.54,1.22-53.38,23.67-57,86,21.45,13,48.64-2.58,79-34" fill="none" stroke="#000" stroke-width="25"/>
      </g>
    </g>
    <g id="Soichiro_h_mask">
      <g clip-path="url(#Soichiro-clip-path-5)">
        <path id="Soichiro_h" d="M452.5,18.5c-22,65.43-39.42,127.87-46,186,15.15-31.79,34.73-58.13,62-75,4.62-5,4.42,19.23,0,69l39-22" fill="none" stroke="#000" stroke-width="33"/>
      </g>
    </g>
    <g id="Soichiro_i2_mask">
      <g clip-path="url(#Soichiro-clip-path-6)">
        <path id="Soichiro_i3" d="M557.5,114.5c-12.16,32.36-24.87,62.07-39,85" fill="none" stroke="#000" stroke-width="22"/>
        <path id="Soichiro_i4" d="M551.5,62.5a134.62,134.62,0,0,1,27,29" fill="none" stroke="#000" stroke-width="25"/>
      </g>
    </g>
    <g id="Soichiro_r_mask">
      <g clip-path="url(#Soichiro-clip-path-7)">
        <path id="Soichiro_r" d="M618.5,94.5c-17,34.19-32.11,74.11-46,118,32.5-67.09,67.32-88.59,103-93" fill="none" stroke="#000" stroke-width="24"/>
      </g>
    </g>
    <g id="Soichiro_o2_mask">
      <g clip-path="url(#Soichiro-clip-path-8)">
        <path id="Soichiro_o2" d="M728,113c13.57.37,23.34,5.15,27,17-6.9,39.3-29.12,61.21-62,71-6.29,1-11.09-7.23-15-21C698.74,141.65,714.19,124.09,728,113Z" fill="none" stroke="#000" stroke-width="27"/>
      </g>
    </g>
    <g id="Soichiro_y_mask">
      <g clip-path="url(#Soichiro-clip-path-9)">
        <path id="Soichiro_y" d="M893.5,8.5c-6.45,51.93-4.72,95.4,21,114,15.75-4,64.2-57,104-97-83.74,63.2-135.07,136.31-142,223" fill="none" stroke="#000" stroke-width="37"/>
      </g>
    </g>
    <g id="Soichiro_a_mask">
      <g clip-path="url(#Soichiro-clip-path-10)">
        <path id="Soichiro_a" d="M1048.5,123.5c-5.3-9.53-15.83-12.52-25-13-19.12,9.6-34.93,40.48-50,76,6.51,5.65,13.14,10,20,12,27.28-24.56,47.39-53.82,60-88-21.14,53.07-23,88.78,20,84" fill="none" stroke="#000" stroke-width="36"/>
      </g>
    </g>
    <g id="Soichiro_g_mask">
      <g clip-path="url(#Soichiro-clip-path-11)">
        <path id="Soichiro_g" d="M1152,124c-2.59-10.67-14.37-14.41-29-16-18.93,16.52-29,39.44-34,66,7.09,6.27,14.83,7.7,23,6,20.07-13.38,32.67-39.92,46.5-71.5C1143.77,164.2,1130.41,217,1110,257c-17.09,3.12-30.09-12.92-42-34" fill="none" stroke="#000" stroke-width="27"/>
      </g>
    </g>
    <g id="Soichiro_a_mask-2" data-name="Soichiro_a_mask">
      <g clip-path="url(#Soichiro-clip-path-12)">
        <path id="Soichiro_a2" d="M1256,141c.07-11.27-4.06-20.94-15-28-20.26,10.93-38.71,31.76-54,70,2.77,6.76,8.35,10.14,16,11,21.08-10.77,38.87-34.35,55.5-62.5-14.7,50.05-11.93,79.22,38,52" fill="none" stroke="#000" stroke-width="26"/>
      </g>
    </g>
    <g id="Soichiro_m_mask">
      <g clip-path="url(#Soichiro-clip-path-13)">
        <path id="Soichiro_m" d="M1303,122c15.77-8.49,29.72-14.41,37-11,6.08,9.81-11.14,45.41-41,95,24.94-37.05,51.44-65,80-81-.31,18.8-7,44.24-16.5,72.5,17.35-35.22,36.21-54.2,56-63v67l45-38" fill="none" stroke="#000" stroke-width="24"/>
      </g>
    </g>
    <g id="Soichiro_i3_mask">
      <g clip-path="url(#Soichiro-clip-path-14)">
        <path id="Soichiro_i5" data-name="Soichiro_i3" d="M1521.5,53.5q-9,20.5-20,41" fill="none" stroke="#000" stroke-width="25"/>
        <path id="Soichiro_i6" data-name="Soichiro_i4" d="M1504,120c-11.43,26.36-22,56.6-32,90" fill="none" stroke="#000" stroke-width="22"/>
      </g>
    </g>
  </g>
</svg>
