<svg xmlns="http://www.w3.org/2000/svg" xmlns:xlink="http://www.w3.org/1999/xlink" width="1226" height="250" viewBox="0 0 1226 250" aria-labelledby="teru_name_description">
  <defs>
    <clipPath id="Teru-clip-path">
      <path id="Teru_t_clip" d="M155.69,26.9a2.65,2.65,0,0,1-.74,1.94,4.11,4.11,0,0,1-1.64,1,3.11,3.11,0,0,0-1.19.6,37.17,37.17,0,0,1-10.74,2.08,19.3,19.3,0,0,1-6.85-1.49,18.06,18.06,0,0,0-7.16-3.87Q123.2,26,110.08,25.11a148.91,148.91,0,0,1-15.2.9A65.69,65.69,0,0,1,88,45.68a47,47,0,0,1-3.27,10.14c-1.4,4-2,6.26-1.79,6.85q-.9,1.2-5.67,15.06t-8.94,27q-3,9.24-4.47,13.41a85.59,85.59,0,0,0-3.73,9.39c-1.49,4.28-2.53,7.3-3.13,9.09l-7.45,20.57a111.83,111.83,0,0,0-5.81,14.16q-3.43,9.69-5.52,17.44l-3,10.43q-1.5,5.37-2.53,8.05c-.7,1.79-1.25,2.78-1.64,3a6.84,6.84,0,0,1-3,0c-1.6,0-3.33-1.24-5.22-3.72a12.13,12.13,0,0,1-2.83-7.31q0-6.55,4.62-22.06a203.86,203.86,0,0,1,8.79-24.74c.79-3.58,1.54-6.45,2.24-8.64S36.85,140,37.05,139a33.62,33.62,0,0,0,2.83-6.41q1.93-5.22,3.13-9.69.9-5.37,18.48-59.92l2.09-6.26a61.83,61.83,0,0,0,5.07-11.33Q71,43.9,71,39.12a4.67,4.67,0,0,1,1-2.38,4.83,4.83,0,0,0,1-2.09,8.33,8.33,0,0,0,1.34-2.83,8.55,8.55,0,0,1,1.94-3.43v-.3l-4.77.3L57,29.88l-6.56.6q-17.28,1.48-20,2.08-8.94.61-12.67-.89t-2.53-6A8.47,8.47,0,0,1,19,20.34q2.83-1.78,8.8-2.68,2.69-.6,10.43-1.79l8-1.49,10.14-1.19A342.52,342.52,0,0,1,93.09,9.61c5.37-.19,9.89-.45,13.57-.74s6.11-.55,7.3-.75q4.17.3,13.56,1.49a72,72,0,0,1,13.57,2.68q6.56,1.5,9.68,4.18a15.77,15.77,0,0,1,4.63,7.75A11.52,11.52,0,0,1,155.69,26.9Z" fill="none"/>
    </clipPath>
    <clipPath id="Teru-clip-path-2">
      <path id="Teru_e_clip" d="M138.1,193.24a29.74,29.74,0,0,1-14.16-3.57,32.27,32.27,0,0,1-11.17-9.84,30.85,30.85,0,0,1-5.67-10.73,51.58,51.58,0,0,1-1.79-14.61q0-3,.6-11.93.89-11,7.3-23a88.43,88.43,0,0,1,16-21.31q9.54-9.39,18.78-13,4.77-3,8.65-3a29.35,29.35,0,0,1,4.17.3c1.39.2,2.88.4,4.47.59a35.38,35.38,0,0,1,10,2.54A15.33,15.33,0,0,1,181,90.69,23.75,23.75,0,0,1,188.48,108q-1.18,7.15-9.24,16.4a62.42,62.42,0,0,1-19.37,14.91,38.72,38.72,0,0,1-12.23,1.78q-9.24,0-14.9-3.87a14.22,14.22,0,0,0-4.18-.9c-1.78,0-3.13,1.2-4,3.58S122.8,146.64,122,153a44.78,44.78,0,0,0-.3,6q0,15.21,10.13,16.69a52.65,52.65,0,0,0,9.84,1.49,17.42,17.42,0,0,0,8-2.38l5.66-3.28a12.55,12.55,0,0,0,3.28-2.38l2.69-2.69c.39-.39,1-1,1.78-1.94a6.68,6.68,0,0,1,2.24-1.78,4.9,4.9,0,0,1,1.94-.45,4.31,4.31,0,0,1,2.68,1.34,23,23,0,0,0,2.39,1.94q2.67,0,1.19,3.73t-6.41,8.64A61.46,61.46,0,0,1,156,186.68,26.12,26.12,0,0,1,138.1,193.24ZM166,116q5.21-5.36,5.21-8.94a7.64,7.64,0,0,0-2.68-6,10.84,10.84,0,0,0-7.45-2.39,18,18,0,0,0-5.37.6q-4.17,1.2-9.84,6.41A87.7,87.7,0,0,0,136,116.33q-4.19,5.37-3.28,6.26,1.48,2.68,11.62,2.68a30.84,30.84,0,0,0,11.33-1.78A31.53,31.53,0,0,0,166,116Z" fill="none"/>
    </clipPath>
    <clipPath id="Teru-clip-path-3">
      <path id="Teru_r_clip" d="M202.79,183.4a8.92,8.92,0,0,1-.89-4.47,27.69,27.69,0,0,1,.3-4.47,140.23,140.23,0,0,1,4.47-23.55l1.49-6q.89-7.45,10.43-31.3t15.5-32.49a9.35,9.35,0,0,1,5.07-1.49,8.92,8.92,0,0,1,6.56,2.68q1.78,1.19,1.79,4.47,0,3-2.24,8.79t-7.6,17.14q-1.2,2.4-4,9c-1.9,4.37-2.84,7-2.84,7.75,0,.4.1.59.3.59a2,2,0,0,0,1.19-.44,7.88,7.88,0,0,1,1.2-.75q3.27-5.66,15.94-15.5t17.44-12.22a36.17,36.17,0,0,1,5.37-2.39q3.27-1.18,4.47-1.78a25,25,0,0,1,11.33-2.39,18.47,18.47,0,0,1,7.3,1.34,7.84,7.84,0,0,1,4.32,4,5.19,5.19,0,0,0,1.64,3.27,11.26,11.26,0,0,0,1.94,1.5,1.16,1.16,0,0,1,1.19.74,3.48,3.48,0,0,1,.3,1c0,1.4-.79,2.24-2.38,2.54a72.58,72.58,0,0,1-8.65.74,30.62,30.62,0,0,0-6.85,1.49,54.43,54.43,0,0,0-7.16,3q-16.69,9.54-24.89,14.9a86.66,86.66,0,0,0-16.54,14.61q-3.28,3.57-8.65,12.82-2.09,2.08-4.32,10.88t-2.24,10.88c-.2.59-.59,1.74-1.19,3.42a18.28,18.28,0,0,1-2.68,4.92c-2.39,3.19-4.38,4.77-6,4.77-1.79,0-4.18-1.58-7.16-4.77A12.56,12.56,0,0,1,202.79,183.4Z" fill="none"/>
    </clipPath>
    <clipPath id="Teru-clip-path-4">
      <path id="Teru_u_clip" d="M372.26,195.63a26,26,0,0,1-6.71-6.26,19.14,19.14,0,0,1-2.83-8.05q-.45-4.17-.45-17.29c0-2-.4-3-1.19-3q-.9,0-4.17,2.83t-8.05,7.6a94.45,94.45,0,0,1-14.31,11.63Q328,187.28,323.82,187q-3.29,0-7-4.47A33.19,33.19,0,0,1,311,172.08a34.5,34.5,0,0,1-.9-8.35q0-12.53,5.22-30.41a158.47,158.47,0,0,1,12.22-30.85q7-13,12.37-13,4.48,0,8.35,9.84a7,7,0,0,1,.9,3c0,1.39-.8,2.79-2.39,4.17q-4.47,5.67-10.43,20.27A238.83,238.83,0,0,0,327,153.89q-3.43,12.53-1.34,12.52,4.17,0,9.83-3.28a60.88,60.88,0,0,0,11.33-8.64,90.32,90.32,0,0,0,10.14-12.07q4.47-6.42,11-17.44,12.51-20,13.71-23.26a96.57,96.57,0,0,1,6.41-10.88A9.49,9.49,0,0,1,393,87.42h4.17a8.55,8.55,0,0,1,4.17,2.68A4.54,4.54,0,0,1,403.86,92a7.3,7.3,0,0,1,.44,2.83l-4.76,11-2.69,6.26a51.93,51.93,0,0,1-3.28,6.85q-6.85,15.21-10.43,24.45a104.68,104.68,0,0,0-5.37,19.08,29.51,29.51,0,0,0-.29,5.07q0,8.94,1.78,12.52a26.06,26.06,0,0,0,5.37,7.75,3.23,3.23,0,0,1,1.49,2.38c0,1.39-1.15,2.79-3.43,4.17s-3.92,2.09-4.92,2.09C376.38,197.31,374.54,197,372.26,195.63Z" fill="none"/>
    </clipPath>
    <clipPath id="Teru-clip-path-5">
      <path id="Teru_m1_clip" d="M655.6,201.29q-1.5-1.78-4.17-5.37-3.58-8.94-3.58-26.82,0-6.27.3-9.84a26.21,26.21,0,0,1-.3-5.07q0-11.92,3.43-35.92T658,81.45q1.2-18.48,2.39-25.78t1.19-8.5Q661,46,655.9,53a197.42,197.42,0,0,0-11,17.44q-4.47,7.45-11.33,17a96.82,96.82,0,0,0-5.66,10.73l-8.35,17.29q-16.1,24.75-22.95,32.94t-12.23,8.2a9,9,0,0,1-2.68-.3q-8.65-2.09-11.77-7t-3.73-18q-.3-5.37-.3-22.06a13.16,13.16,0,0,0,.6-6,17.12,17.12,0,0,1,0-4.76,37.44,37.44,0,0,1,1.19-4.92,46,46,0,0,0,1.49-7.31q.9-6.85,1.64-15.5c.49-5.76.75-10.53.75-14.31s-.21-5.76-.6-6v.3c0,1-1.19,3.28-3.58,6.86a76.5,76.5,0,0,0-8.2,13.26q-4.32,8.5-12.67,25.79l-11.32,23.55q-.9,6.26-4.92,16.54a200.63,200.63,0,0,1-8.5,18.93q-3,8.06-6.85,17t-6.56,12.52a72.09,72.09,0,0,1-4.92,10.88q-1.95,3.13-4.32,3.13c-1.4,0-3.58-1-6.56-3a46,46,0,0,1-4.62-5.21,8.09,8.09,0,0,1-1.64-4.92,15.11,15.11,0,0,1,2.38-7.16q3.87-4.47,8.8-15.35c3.28-7.25,4.81-11.48,4.62-12.67q-.3-1.18,1.49-4t5.36-8.2c-.2-.79.7-3.73,2.69-8.79s4.57-10.78,7.75-17.15c1.79-3.17,2.58-5.56,2.38-7.15a24.62,24.62,0,0,0,1.64-3.28A6.87,6.87,0,0,1,525.92,99,36.9,36.9,0,0,1,528,93.38c.2-.79.6-2,1.19-3.58a26.08,26.08,0,0,0,1.2-3.88,44.57,44.57,0,0,1,4.77-8.64,17.21,17.21,0,0,0,1.93-3A16.41,16.41,0,0,1,539.34,71a55.29,55.29,0,0,1,5.51-11q4.32-7.16,9.4-14.91l3.57-5.66A48.53,48.53,0,0,0,561,33.31a37.3,37.3,0,0,1,4.32-7.3c.4-.6,1.24-1.89,2.54-3.88s2.73-4.37,4.32-7.15q1.49-2.09,5.37-8.2T582.86.67q2.68-.6,9.39,5.21T599,15.27a88,88,0,0,1-1.64,11.33,162,162,0,0,1-3.73,16.1q-.3,4.77-1.34,12.37t-1.64,11.18A248.14,248.14,0,0,0,587,91a80.16,80.16,0,0,1-2.69,16.1q-2.08,7.45-2.68,9.54a18.52,18.52,0,0,1,1.49,7.15v6.56l11.33-12.22a46.38,46.38,0,0,1,2.68-4.17,47.32,47.32,0,0,0,2.68-4.18,150.88,150.88,0,0,0,9.25-14A8.68,8.68,0,0,1,610.59,92a23.84,23.84,0,0,0,2.08-4.33A10,10,0,0,0,616.25,84a7.73,7.73,0,0,0,1.19-4.92q12.22-17.89,29.22-41t21.76-27q5.05-3.57,9.24-3.58c3.38,0,6.56,1.6,9.54,4.77,3,3.39,4.47,6.56,4.47,9.54a25.83,25.83,0,0,1-2.09,9l-4.47,14.3q-6.25,17.89-6,22.66a50.52,50.52,0,0,0-2.68,12.82,23.09,23.09,0,0,0-1.64,4.77c-.5,2-1.15,3.28-1.94,3.87a21.64,21.64,0,0,0,.6,4,24.87,24.87,0,0,1,.59,4.92,10.41,10.41,0,0,1-.3,3q-6.56,40.25-6.55,60.81,0,19.38,6,20.87h.3c.59,0,.89.59.89,1.79a51.27,51.27,0,0,1-.89,6.56,17.11,17.11,0,0,1-.6,6.11,14.75,14.75,0,0,1-1.79,4.62,13.69,13.69,0,0,1-2.38,2.38,4.36,4.36,0,0,1-2.69.9,83.21,83.21,0,0,1-8.64-1.49A16.71,16.71,0,0,0,655.6,201.29Z" fill="none"/>
    </clipPath>
    <clipPath id="Teru-clip-path-6">
      <path id="Teru_i1_clip" d="M708.06,181.91c-1-.39-1.69-.69-2.09-.89a12.07,12.07,0,0,0-.74-3.13,12.76,12.76,0,0,1-.75-2.83c-1.59-.79-2.38-1.79-2.38-3a14.47,14.47,0,0,1,.89-4.18q3.87-6.85,13.72-31.15t11-28.77a7,7,0,0,1,.89-3,11.44,11.44,0,0,1,2.09-3,3.7,3.7,0,0,1,2.68-1.19q3.27,0,6.11,4.47a18,18,0,0,1,2.83,9.84q0,3.57-6.7,20.42t-15.06,33.83c-.79,1.6-1.94,3.88-3.43,6.86s-2.63,4.77-3.43,5.37a5.38,5.38,0,0,1-3.27.89A6.82,6.82,0,0,1,708.06,181.91ZM742.79,63.42Q737,57.32,737,50.75q0-1.48,3.57-6.86t3.58-6a18.49,18.49,0,0,1,3.58.3,19.55,19.55,0,0,1,3.58,1.19,47.57,47.57,0,0,0,8.34,12.22q1.8,2.4,3.28,4.48a6.58,6.58,0,0,1,1.49,3.57,34.71,34.71,0,0,1-.44,6.86,3.23,3.23,0,0,1-2.39,2.38,29.06,29.06,0,0,1-7.3.6Q748.6,69.53,742.79,63.42Z" fill="none"/>
    </clipPath>
    <clipPath id="Teru-clip-path-7">
      <path id="Teru_k_clip" d="M815.08,129.15c-1.19,1-3,2.53-5.37,4.62a37.39,37.39,0,0,1-6.26,4.62,28.49,28.49,0,0,0,3.88,5.66l5.07,7.76q10.13,15.8,14.9,20.86t14.61,11a5.78,5.78,0,0,1,2.38,5.37c-.79,2.19-1.64,3.53-2.53,4s-3.53,1.25-7.9,2.24a17.33,17.33,0,0,1-6.71-1.49,98.67,98.67,0,0,1-9.39-6.56q-4.77-4.47-13.86-15.95t-16.54-21.91a4.7,4.7,0,0,1-2.39-3q-5.37,12.83-5.37,15.5a62.46,62.46,0,0,0-2.68,10.44q-2.08,9.24-4.47,13.71-.6,6.56-4.47,6.56-2.09,0-5.37-2.09a14.89,14.89,0,0,1-4.32-3.58,7.26,7.26,0,0,1-1.34-4.47,35.92,35.92,0,0,1,1.49-9.54q1.48-5.37,3.28-10.43a106.4,106.4,0,0,1,2.53-11.78,33.07,33.07,0,0,1,4.33-9.09q2.37-7.15,4.76-13.12,8.05-23,10.44-31.59,3.57-7.75,6.85-16.4,3.58-7.45,10.44-24.15L804.65,46q4.17-13.41,8.64-20c.6-.8,2.38-3.58,5.37-8.35.19-.79,1-1.19,2.38-1.19a10.15,10.15,0,0,1,3.88.74,6.36,6.36,0,0,1,2.68,1.94c1-.2,2.13,1.1,3.43,3.88s1.83,5,1.64,6.55a13.88,13.88,0,0,1-2.39,7.16,17.82,17.82,0,0,0-2.38,3.58c-1,1.78-2.19,3.68-3.58,5.66-.6,1.79-1.34,4.27-2.24,7.45a35.44,35.44,0,0,1-2.83,7.45c-.79,1.79-1.84,3.93-3.13,6.41a42.86,42.86,0,0,0-2.53,5.52c-1,2.58-2.68,6.46-5.07,11.62q-5.07,11.34-6.26,15.21-.6,2.08-3.28,10a115.9,115.9,0,0,1-6,14.46,15.13,15.13,0,0,1,2.09-2.23,8.17,8.17,0,0,0,1.49-1.64c.19-.79,1.34-2,3.42-3.58a47.44,47.44,0,0,0,4.33-3.58A244.92,244.92,0,0,0,826,97.7Q839.22,87.41,841.61,85a5.17,5.17,0,0,1,3.58-1.79,7.42,7.42,0,0,1,3.28.9c2.38.59,4,1.54,4.77,2.83s1.19,3.72,1.19,7.3c.59,2.19-.2,4.47-2.39,6.86a59.22,59.22,0,0,1-10.43,8.35,111.45,111.45,0,0,0-13.41,10.13A74.76,74.76,0,0,0,815.08,129.15Z" fill="none"/>
    </clipPath>
    <clipPath id="Teru-clip-path-8">
      <path id="Teru_a_clip" d="M868.59,182.66c-1.3-1.29-1.94-2.13-1.94-2.53a7.72,7.72,0,0,0-1.49-5.07,4,4,0,0,1-.6-2.68q0-4.77,4.62-16.25a225.54,225.54,0,0,1,12.07-24.89,39.58,39.58,0,0,0,4.63-6.26c1.88-3,3.13-4.67,3.72-5.07a3.4,3.4,0,0,1,.9-2.24,2.68,2.68,0,0,1,2.08-1v-1.79q0-2.69,9.84-13t16.1-14.16a26.78,26.78,0,0,1,15.2-5.06,14.68,14.68,0,0,1,9.24,3q1.49,1.78,13.71,12.82l11,9.83-5.36,14.91a46.58,46.58,0,0,0-2.68,14.6,40.33,40.33,0,0,0,6.55,21.77q1.5,3.28,6,6.26a21,21,0,0,0,8.94,3.57q6.55,1.2,6.56,6.56,0,6-5.37,7.16a16,16,0,0,1-3.58.29q-17.58,0-30.4-24.74a40.29,40.29,0,0,1-3.13-6.56,37.68,37.68,0,0,1-2.24-6.55q-1.79,2.38-4.47,5.66a74.39,74.39,0,0,1-5.07,5.66q-32.49,32.5-51.27,32.5a19.85,19.85,0,0,1-10.73-3A14.76,14.76,0,0,0,868.59,182.66Zm16.69-12.07a30.11,30.11,0,0,0,7.75-3,54.8,54.8,0,0,0,9.39-6.27q25.64-22.05,37-38.45l6.56-10.73c-2-4.18-4.07-7.2-6.26-9.09s-4.17-2.84-6-2.84q-6.26,0-19.67,15.65A194,194,0,0,0,889.6,152.7,106.9,106.9,0,0,0,884.83,163c-1.39,3.48-2.29,5.72-2.68,6.71C882.15,170.69,883.19,171,885.28,170.59Z" fill="none"/>
    </clipPath>
    <clipPath id="Teru-clip-path-9">
      <path id="Teru_m2_clip" d="M1142.09,173.87a6.92,6.92,0,0,1-1.34,4c-.89,1.29-1.74,1.94-2.53,1.94a20.88,20.88,0,0,1-10.88-3.13c-3.48-2.09-5.22-5.41-5.22-10V148.23q0-14-2.09-15.8-4.47-2.38-15.35,9.84a196.71,196.71,0,0,0-21,28.91q-3.29,5.37-5.37,8.35c-1.39,2-2.49,3-3.28,3a6.49,6.49,0,0,1-3-1.49q-9.24-2.69-9.24-10.43a25.5,25.5,0,0,1,.59-3.88q3-9.84,6-21.91t4.77-20.42a3.1,3.1,0,0,0-3-1.79c-2,0-4.27,1-6.85,3q-7.45,5.07-19.08,24.15-14.61,22.35-20.27,27.13a40.18,40.18,0,0,1-3.73,5.51c-1.09,1.3-2.13,1.94-3.13,1.94q-1.19,0-4.47-1.79-8.65-5.07-8.64-14.31,0-4.47,2.68-17.88t6-25a112.74,112.74,0,0,0,4.92-10.58q2.24-5.5,2.24-6.71,1.18-6.26,3-13.41t2.68-8a6.57,6.57,0,0,1,4.77-2.09c3,0,5.16,1.6,6.56,4.77a11.34,11.34,0,0,1,3.28,8.35q0,5.67-3.28,14.61-5.07,11-11,32.19a112.89,112.89,0,0,0,8.94-10.73A246.7,246.7,0,0,1,1054.15,111q9.24-10.14,20.87-10.14,13.71,2.39,15.8,23a79.16,79.16,0,0,1-.6,8.8c-.4,3.48-.7,5.71-.89,6.71q1.18-1.8,6.11-7.75a106.86,106.86,0,0,1,12.07-12.23q6.56-5.06,12.23-5.06a11,11,0,0,1,8.34,3.87,20.24,20.24,0,0,1,9,10q2.67,6.4,2.68,16.24c0,3.38-.1,6.07-.3,8.05q-.6,6-.6,7.45a32.57,32.57,0,0,0,2.09,11.33A3.16,3.16,0,0,1,1142.09,173.87Z" fill="none"/>
    </clipPath>
    <clipPath id="Teru-clip-path-10">
      <path id="Teru_i2_clip" d="M1174.14,182.21a27.31,27.31,0,0,1-4-11.33q1.2-11.32,1.79-16.09,2.38-11,7.6-30.26t6.41-21.61a2.92,2.92,0,0,1,2.69-1.49,7.93,7.93,0,0,1,3.87,1.19,17.33,17.33,0,0,1,3.58,2.68,12.35,12.35,0,0,1,2.38,7.45q0,6.27-6,26.24-4.17,14.91-5.36,21.16a58.28,58.28,0,0,0-.9,13.42q-.3,2.09-1,7a28.06,28.06,0,0,1-1.34,6.11,1.92,1.92,0,0,1-1.79,1.2Q1177.57,187.88,1174.14,182.21Zm39.79-112.38c-.79,0-2.08-.6-3.87-1.79q-3-.3-7.9-5.22c-3.28-3.28-4.92-5.41-4.92-6.41A29.88,29.88,0,0,1,1199,43.59q2.38-6.84,8.64-7.15a8.8,8.8,0,0,1,2.39.45c1,.3,2.68.94,5.07,1.94.39.79,1.24,2.48,2.53,5.06a45.43,45.43,0,0,1,3,7.46,23.4,23.4,0,0,1,1,6.55,12.39,12.39,0,0,1-6,11A2.55,2.55,0,0,1,1213.93,69.83Z" fill="none"/>
    </clipPath>
  </defs>
  <desc id="teru_name_description">Name: Teru Mikami</desc>
  <g id="Teru_name">
    <g id="Teru_t_mask">
      <g clip-path="url(#Teru-clip-path)">
        <path id="Teru_t" d="M8.5,24.5a1495.32,1495.32,0,0,1,170-5h-96l-59,191" fill="none" stroke="#000" stroke-width="31"/>
      </g>
    </g>
    <g id="Teru_e_mask">
      <g clip-path="url(#Teru-clip-path-2)">
        <path id="Teru_e" d="M123.5,125.5c9.15,6.45,20.14,9.17,34,6,12.4-8,20.32-17.8,25-29-7.5-12.78-17.73-16-30-12-21.07,17-39.95,36.37-37,79,14.56,23.59,34.21,22.3,60-9" fill="none" stroke="#000" stroke-width="23"/>
      </g>
    </g>
    <g id="Teru_r_mask">
      <g clip-path="url(#Teru-clip-path-3)">
        <path id="Teru_r" d="M244.5,77.5c-18.69,38.73-32.05,76.47-39,113,14.45-46.89,49.95-78.62,104-97" fill="none" stroke="#000" stroke-width="27"/>
      </g>
    </g>
    <g id="Teru_u_mask">
      <g clip-path="url(#Teru-clip-path-4)">
        <path id="Teru_u" d="M347.5,87.5c-21.3,34.14-35,65.86-25,90,28.55-7.31,55.44-47.4,82-94-31.85,49.49-46,92-26,121" fill="none" stroke="#000" stroke-width="28"/>
      </g>
    </g>
    <g id="Teru_m1_mask">
      <g clip-path="url(#Teru-clip-path-5)">
        <path id="Teru_m1" d="M488,199C525.29,115.56,559.53,48.79,589,8c-12.7,58.42-17.63,107.21-8,138,18.08-26.61,57.83-88.15,103.21-136.31C656.62,125.44,649.15,200.2,676,205" fill="none" stroke="#000" stroke-width="36"/>
      </g>
    </g>
    <g id="Teru_i1_mask">
      <g clip-path="url(#Teru-clip-path-6)">
        <line id="Teru_i1" x1="741" y1="100" x2="705" y2="184" fill="none" stroke="#000" stroke-width="21"/>
        <line id="Teru_i2" x1="736.5" y1="37.5" x2="768.5" y2="72.5" fill="none" stroke="#000" stroke-width="27"/>
      </g>
    </g>
    <g id="Teru_k_mask">
      <g clip-path="url(#Teru-clip-path-7)">
        <path id="Teru_k" d="M830.5,15.5c-27,55.93-50.72,113.63-69.83,173.87,8-38.12,40.87-71.15,89.83-100.87l-58,50a184.36,184.36,0,0,0,49,55" fill="none" stroke="#000" stroke-width="25"/>
      </g>
    </g>
    <g id="Teru_a_mask">
      <g clip-path="url(#Teru-clip-path-8)">
        <path id="Teru_a" d="M955.5,105.5c-6.66-10-15.54-15.54-27-16-18.51,15.32-36.83,43.69-55,81,1.79,7.33,8,11.16,18,12,27.8-21.61,51.79-53.42,74-90-24,47.94-12.37,76.65,24,92" fill="none" stroke="#000" stroke-width="24"/>
      </g>
    </g>
    <g id="Teru_m2_mask">
      <g clip-path="url(#Teru-clip-path-9)">
        <path id="Teru_m2" d="M1038,84a952.46,952.46,0,0,0-28,98c27.4-39.86,53.09-71.61,72-71,1.09,20.58-3.67,45.78-11,73,18.24-38.67,36.26-58.95,54-57,6.07,10.79,6.59,31.92,5,57" fill="none" stroke="#000" stroke-width="27"/>
      </g>
    </g>
    <g id="Teru_i2_mask">
      <g clip-path="url(#Teru-clip-path-10)">
        <line id="Teru_i3" x1="1198.5" y1="94.5" x2="1173.5" y2="192.5" fill="none" stroke="#000" stroke-width="25"/>
        <line id="Teru_i4" x1="1198.5" y1="36.5" x2="1220.5" y2="69.5" fill="none" stroke="#000" stroke-width="27"/>
      </g>
    </g>
  </g>
</svg>
