<svg xmlns="http://www.w3.org/2000/svg" xmlns:xlink="http://www.w3.org/1999/xlink" width="793" height="250" viewBox="0 50 793 250" aria-labelledby="watari_name_description">
  <defs>
    <clipPath id="Watari-clip-path-1">
      <path d="M109.07,285.77a10.41,10.41,0,0,1-4.38-5,27.13,27.13,0,0,1-3.93-5.44,21.47,21.47,0,0,1-2.72-7q-1.21-14.51-1.21-21.16,0-8.46.91-23a186.24,186.24,0,0,1,3.48-26.14q2.56-12.24,7.1-30.07,1.81-5.74,2.72-9.82t0-4.08q-1.52.3-5.44,7.71t-7.86,15.87q-1.81,3.33-3.48,7.1t-3.48,7.1q-8.46,18.74-31.13,56.82-2.72,3.33-7.56,10.58Q42.73,273.53,36.69,279q-7.56,7.25-15.11,7.25a12.3,12.3,0,0,1-9.07-3.63q-3.93-4.84-3.93-9.37a25.11,25.11,0,0,1,.6-4.23q-.91-7.55,1.66-31t5.29-39.14q2.11-14.51,9.37-47.75l6.65-32.64Q34,114,37.9,100.36l2.72-10q.3-5.44,2.42-8a6.44,6.44,0,0,1,5.14-2.57,8.94,8.94,0,0,1,7.25,3.93,18.92,18.92,0,0,1,4.84,13,31.34,31.34,0,0,1-2.72,12.39q-13.6,33.25-21.76,87.64-3,17.84-5.59,38.23t-1.36,20.7q2.42.61,6.65-3.78A41.56,41.56,0,0,0,43,240.29q20.55-34.15,48.05-87.64.6-.91,13.3-24.78l7.25-13.6q.91-1.81,2.27-4.08t2.87-4.68q6.64-12.39,10.43-18.43t5.89-7a16.51,16.51,0,0,1,8.46,2.57q3.32,2.27,5.74,7.71a14,14,0,0,1-.45,5,41.24,41.24,0,0,1-2,6.5q-.61,1.81-2.87,9.07t-3.78,14.51a175.67,175.67,0,0,0-8.46,29.32q-2.12,10.88-4.53,21.16-5.14,23.27-7.71,38.38a192.1,192.1,0,0,0-2.87,27.2q-.3,15.41,1.81,20.85.91,3,4.53,3a5.72,5.72,0,0,0,4.53-2.12q8.76-11.48,14.51-20.25t12.39-20.85q18.43-34.45,43.82-94.59,9.67-27.8,13.15-36.27t8-10.88A6.52,6.52,0,0,1,221,79.21a8.89,8.89,0,0,1,6,2.42,11.65,11.65,0,0,1,2.27,3.93,13.26,13.26,0,0,1,.76,6q-3,10.58-14.05,39.44T199,172.89q-1.21,2.12-4.83,8.16-.61.91-2.57,4.38t-2,5.29q0,3-15.87,31.58t-23.42,38.23q-10,12.69-20.1,19.79t-14.05,7.1A11.51,11.51,0,0,1,109.07,285.77Z" fill="none"/>
    </clipPath>
    <clipPath id="Watari-clip-path-2">
      <path d="M212.73,256.76c-1.31-1.31-2-2.16-2-2.57a7.82,7.82,0,0,0-1.51-5.14,4.08,4.08,0,0,1-.6-2.72q0-4.83,4.68-16.47a227,227,0,0,1,12.24-25.24,39.69,39.69,0,0,0,4.68-6.35q2.87-4.53,3.78-5.14a3.44,3.44,0,0,1,.91-2.27,2.72,2.72,0,0,1,2.12-1.06V188q0-2.72,10-13.15t16.32-14.36a27.13,27.13,0,0,1,15.41-5.14,14.94,14.94,0,0,1,9.37,3q1.51,1.81,13.9,13l11.18,10-5.44,15.11a47.29,47.29,0,0,0-2.72,14.81,40.84,40.84,0,0,0,6.65,22.06q1.51,3.33,6,6.35a21.44,21.44,0,0,0,9.07,3.63q6.64,1.21,6.65,6.65,0,6-5.44,7.25a16,16,0,0,1-3.63.3q-17.84,0-30.83-25.08a41.53,41.53,0,0,1-3.17-6.65,38.27,38.27,0,0,1-2.27-6.65q-1.81,2.42-4.53,5.74t-5.14,5.74q-32.94,32.94-52,32.94a20.08,20.08,0,0,1-10.88-3A15.07,15.07,0,0,0,212.73,256.76Zm16.92-12.24a30.39,30.39,0,0,0,7.86-3,55.83,55.83,0,0,0,9.52-6.35q26-22.36,37.47-39l6.65-10.88q-3-6.35-6.35-9.22t-6-2.87q-6.35,0-19.95,15.87A196.78,196.78,0,0,0,234,226.38a108,108,0,0,0-4.84,10.43l-2.72,6.8Q226.48,245.13,229.65,244.52Z" fill="none"/>
    </clipPath>
    <clipPath id="Watari-clip-path-3">
      <path d="M359.6,262.8q-5-5.59-6.5-10.43a2.3,2.3,0,0,0-.6-1.36q-.61-.75-.91-1.06-1.21-.91-1.21-10,0-7.25.76-15.11a89,89,0,0,1,2-12.69l5.44-16,4.23-12.09,8.16-17.53-12.09-3.32a5.11,5.11,0,0,1-3.48-2.12,5.71,5.71,0,0,1-1.36-3.32q0-2.42,2.57-5.89t4.08-3.48a21.6,21.6,0,0,0,4.84.3,75.09,75.09,0,0,0,13.6-.91,7.34,7.34,0,0,0,4.23-4.83q1.2-2.42,2.87-6t3.17-6.65q.91-1.81,2.87-5.59t5-8.61q.6-.91,2.72-4.38a22.36,22.36,0,0,1,5.14-5.89,7,7,0,0,1,5.14-2.12q3,0,7.86,3.93c.4.6,1,1.41,1.66,2.42a4.94,4.94,0,0,1,1.06,2.72q0,1.21-2.42,5.14-1.81,3.63-3.48,6.5t-2.87,5q-3.63,6-5.14,9.07-3,3.93-3,6t3.93,2.12a91.76,91.76,0,0,0,14.2-1.81,50,50,0,0,1,5.74-.6q10.57,0,11.48,8.76a26.42,26.42,0,0,1,.3,4.23q0,4.23-2.87,5.14t-12.84.91a128.69,128.69,0,0,1-19.95,1.51q-1.81,0-4.08.15a27.1,27.1,0,0,0-4.68.76,6.68,6.68,0,0,0-3.48,1.81,16,16,0,0,0-2.27,3.93q-.91.91-4.23,7-4.23,8.77-5.44,10.58a296.24,296.24,0,0,0-12.09,49.56q-.61,4.84-.6,6,0,4.53,3,6.35t10.28,1.81a66.58,66.58,0,0,0,17.83-2.12,123.25,123.25,0,0,0,13.6-6.65q2.72-1.51,5-2.87c1.51-.91,2.57-1.56,3.17-2q.91-1.81,2.12-1.81,2.42,0,4.23,4.83a16.52,16.52,0,0,1-2.12,8.46Q422,254.19,413.55,259,396,270.21,378.49,270.21a43.2,43.2,0,0,1-9.07-.91Q364.59,268.39,359.6,262.8Z" fill="none"/>
    </clipPath>
    <clipPath id="Watari-clip-path-4">
      <path d="M465.83,263.25a32.64,32.64,0,0,1-7.25-.75c-2.22-.5-3.32-1.16-3.32-2a1.21,1.21,0,0,0-1.51-1.51c-.2-.2-.81-.7-1.81-1.51a15.88,15.88,0,0,0-3.63-2.12,16.46,16.46,0,0,1-2.72-9.07q0-5.14,2.72-16,.91-9.67,9.07-24.18a175,175,0,0,1,19.19-27.5q11-13,19.79-18.13A15.55,15.55,0,0,1,507.84,156a20.64,20.64,0,0,1,10.28,2.72,34.11,34.11,0,0,1,8.92,8.16,53.41,53.41,0,0,1,7.4,11.79,34.12,34.12,0,0,1,1.21,8.76,128.62,128.62,0,0,1-1.21,14.2,100.19,100.19,0,0,0-2.57,13.3,103.51,103.51,0,0,0-1.06,13.6,12,12,0,0,0,.6,6.8q1.2,2.57,3.32,2.57a7.54,7.54,0,0,0,3.32-.91,14.67,14.67,0,0,1,6.65-1.51,8.07,8.07,0,0,1,5.44,1.81,6.78,6.78,0,0,1,2.12,5.44q0,5.44-7.4,10.88T530.81,259q-4.53,0-8.31-7.1a115.1,115.1,0,0,1-7.4-18.28l-1.81-7-13,12.39-7,7a72.84,72.84,0,0,0-5.44,5.74q-3.33,5.74-16.62,10.88A27.79,27.79,0,0,1,465.83,263.25ZM490,230a166.69,166.69,0,0,0,17.53-20.25q9.36-12.39,11.79-24.48A25.75,25.75,0,0,0,515.4,178q-2.72-3.63-4.83-3.93-6,0-12.69,7a197.72,197.72,0,0,0-15.71,19.34l-10,14.81q-1.81,2.42-6.35,12.84t-4.53,12.54q0,6.65,3.93,6.65a13.71,13.71,0,0,0,7-2.42Q479.43,240.59,490,230Z" fill="none"/>
    </clipPath>
    <clipPath id="Watari-clip-path-5">
      <path d="M579.46,260.84a13,13,0,0,1-4.23-2.12,9.54,9.54,0,0,1-3-7q0-6.64,6.65-16,1.81-3.63,9.07-25.08L594,194q.6-5.14-.6-7.4t-5.14-2.57h-1.81c-1.81,0-3-.35-3.63-1.06s-.91-2.57-.91-5.59a9.6,9.6,0,0,1,1.81-5.44,24.81,24.81,0,0,1,5.14-4.23,22.05,22.05,0,0,1,10-2.42q4.83,0,7.25,2.12,1.81,1.21,2.57,5.29a58.21,58.21,0,0,1,.91,8.46,53.79,53.79,0,0,0,.45,6.2q1.51-1.51,7.4-6.2a119.17,119.17,0,0,0,10.12-8.92,91.2,91.2,0,0,1,11.79-7q6.64-3.32,9.37-3.32a14.81,14.81,0,0,1,6.65,1.66,9.62,9.62,0,0,1,4.53,4.08,18.24,18.24,0,0,1,2.72,8.76,13.69,13.69,0,0,1-3.33,8.46,17.92,17.92,0,0,1-7,5.14q-4.24,1.81-6,1.81t-4.53-2.72q-2.72-2.72-3-4.53,0-1.2-7.71,4.68a123.47,123.47,0,0,0-11.94,10.12,87.44,87.44,0,0,0-9.82,15.11q-5,9.37-14.66,28.41-.91,2.12-4.23,10.28a33.33,33.33,0,0,1-2.72,6.8,3.51,3.51,0,0,1-3,2A16.38,16.38,0,0,1,579.46,260.84Z" fill="none"/>
    </clipPath>
    <clipPath id="Watari-clip-path-6">
      <path d="M678.89,256c-1-.4-1.71-.7-2.12-.91a12.18,12.18,0,0,0-.76-3.17,12.94,12.94,0,0,1-.76-2.87c-1.61-.8-2.42-1.81-2.42-3a14.5,14.5,0,0,1,.91-4.23q3.92-6.95,13.9-31.58t11.18-29.16a7.15,7.15,0,0,1,.91-3,11.5,11.5,0,0,1,2.12-3,3.76,3.76,0,0,1,2.72-1.21q3.32,0,6.2,4.53a18.28,18.28,0,0,1,2.87,10q0,3.63-6.8,20.7t-15.26,34.3l-3.48,7q-2.27,4.53-3.48,5.44a5.44,5.44,0,0,1-3.32.91A6.88,6.88,0,0,1,678.89,256Zm35.21-120.13q-5.89-6.19-5.89-12.84,0-1.51,3.63-7t3.63-6a15.68,15.68,0,0,1,7.25,1.51,48.44,48.44,0,0,0,8.46,12.39q1.81,2.42,3.32,4.53a6.68,6.68,0,0,1,1.51,3.63,34.38,34.38,0,0,1-.45,7,3.28,3.28,0,0,1-2.42,2.42,29.51,29.51,0,0,1-7.4.6Q720,142.07,714.09,135.87Z" fill="none"/>
    </clipPath>
  </defs>
  <desc id="watari_name_description">Name: Watari</desc>
  <g id="Watari_name">
    <g clip-path="url(#Watari-clip-path-1)">
      <path id="Watari_w" d="M60.5,64.5c-25.82,81-47.06,159.83-52,231C51,244,97.65,162.85,145.5,73.5c-7.73-8-63.68,208.42-40,222,23.2,13.31,134.51-220.43,128-224" fill="none" stroke="#000" stroke-width="37"/>
    </g>
    <g clip-path="url(#Watari-clip-path-2)">
      <path id="Watari_a1" d="M305.5,180.5l-34-17c-21.92,20.59-39.25,48.68-54,81l9,12q50.05-29.77,83-83c-21.15,40.91-15.1,70.13,29,83" fill="none" stroke="#000" stroke-width="29"/>
    </g>
    <g clip-path="url(#Watari-clip-path-3)">
      <path id="Watari_t1" d="M419.5,99.5c-35.52,45.58-58.72,96.05-58,156,17.49,12.3,41.63,4.53,70-16" fill="none" stroke="#000" stroke-width="40"/>
      <path id="Watari_t2" d="M346.5,150.5c33.37,5.85,67,7.49,101,3" fill="none" stroke="#000" stroke-width="21"/>
    </g>
    <g clip-path="url(#Watari-clip-path-4)">
      <path id="Watari_a2" d="M533.5,179.5,506,162c-22.21,17.71-40,45.84-54,83l17,10c24.68-16.05,49.26-32.5,66-80-19.66,76.07-9.91,93.23,23,64" fill="none" stroke="#000" stroke-width="28"/>
    </g>
    <g clip-path="url(#Watari-clip-path-5)">
      <path id="Watari_r" d="M572.5,172.5c13.1-.74,23.67.79,29,7-2,23.08-12.76,52.43-28,85,31.85-62.1,61.22-100.85,85-87" fill="none" stroke="#000" stroke-width="38"/>
    </g>
    <g clip-path="url(#Watari-clip-path-6)">
      <line id="Watari_i1" x1="713.5" y1="170.5" x2="672.5" y2="259.5" fill="none" stroke="#000" stroke-width="26"/>
      <line id="Watari_i2" x1="708.5" y1="108.5" x2="739.5" y2="145.5" fill="none" stroke="#000" stroke-width="31"/>
    </g>
  </g>
</svg>
