<svg xmlns="http://www.w3.org/2000/svg" xmlns:xlink="http://www.w3.org/1999/xlink" width="275" height="150" viewBox="0 0 275 150" aria-labelledby="wedy_name_description">
  <defs>
    <clipPath id="Wedy-clip-path">
      <path id="Wedy_w_clip" d="M60.87,113.8a5.15,5.15,0,0,1-2.19-2.48,14,14,0,0,1-2-2.71,10.61,10.61,0,0,1-1.36-3.47q-.6-7.23-.6-10.54,0-4.21.45-11.45a93.15,93.15,0,0,1,1.73-13q1.27-6.1,3.54-15c.6-1.9,1.06-3.54,1.36-4.89s.3-2,0-2q-.76.16-2.71,3.84c-1.31,2.47-2.62,5.1-3.92,7.91-.6,1.11-1.18,2.29-1.73,3.54S52.36,65.94,51.76,67q-4.23,9.34-15.52,28.31c-.9,1.11-2.16,2.86-3.76,5.27q-4.66,7.08-7.68,9.79Q21,114,17.27,114a6.1,6.1,0,0,1-4.52-1.81,7.48,7.48,0,0,1-2-4.67,12.86,12.86,0,0,1,.3-2.11q-.45-3.75.83-15.43T14.56,70.5q1-7.23,4.67-23.79l3.31-16.27c.6-1.5,1.55-4.52,2.86-9l1.36-5a6.77,6.77,0,0,1,1.2-4,3.19,3.19,0,0,1,2.56-1.28,4.47,4.47,0,0,1,3.62,1.95,9.46,9.46,0,0,1,2.4,6.48,15.61,15.61,0,0,1-1.35,6.17Q28.41,42.35,24.35,69.45q-1.52,8.89-2.79,19t-.68,10.32c.8.2,1.91-.43,3.32-1.89A20.78,20.78,0,0,0,28,91.14q10.24-17,23.95-43.68.3-.45,6.62-12.35l3.62-6.78c.3-.6.68-1.28,1.13-2s.92-1.53,1.43-2.33Q68,17.79,69.9,14.78t2.94-3.46a8.16,8.16,0,0,1,4.22,1.28,8.89,8.89,0,0,1,2.86,3.84,6.93,6.93,0,0,1-.23,2.48,20.14,20.14,0,0,1-1,3.24c-.2.6-.67,2.11-1.43,4.52S75.9,31.5,75.4,33.91a88,88,0,0,0-4.22,14.61q-1.05,5.41-2.26,10.54-2.55,11.6-3.84,19.12a96.62,96.62,0,0,0-1.43,13.56q-.15,7.68.91,10.39a2.09,2.09,0,0,0,2.26,1.51,2.86,2.86,0,0,0,2.26-1.06q4.36-5.72,7.22-10.09T82.48,82.1Q91.66,64.93,104.32,35q4.82-13.86,6.55-18.07t4-5.42a3.25,3.25,0,0,1,1.81-.61,4.46,4.46,0,0,1,3,1.21,5.84,5.84,0,0,1,1.13,2,6.59,6.59,0,0,1,.37,3q-1.5,5.27-7,19.65t-8.51,20.86q-.6,1.05-2.41,4.07c-.2.3-.63,1-1.28,2.18a6.16,6.16,0,0,0-1,2.64q0,1.5-7.9,15.74t-11.68,19a48.67,48.67,0,0,1-10,9.86q-5.05,3.54-7,3.54A5.73,5.73,0,0,1,60.87,113.8Z" fill="none"/>
    </clipPath>
    <clipPath id="Wedy-clip-path-2">
      <path id="Wedy_e_clip" d="M131.87,104.69a14.92,14.92,0,0,1-7.15-1.81,16.23,16.23,0,0,1-5.65-5,15.6,15.6,0,0,1-2.86-5.42,26.06,26.06,0,0,1-.9-7.38q0-1.5.3-6a29.66,29.66,0,0,1,3.69-11.6,44.87,44.87,0,0,1,8.06-10.77,28.72,28.72,0,0,1,9.48-6.55,8.5,8.5,0,0,1,4.37-1.5,15,15,0,0,1,2.11.15l2.26.3a17.66,17.66,0,0,1,5,1.28,7.68,7.68,0,0,1,2.94,2.48,12,12,0,0,1,3.77,8.74q-.62,3.62-4.67,8.28a31.5,31.5,0,0,1-9.79,7.53,19.61,19.61,0,0,1-6.18.9,13.15,13.15,0,0,1-7.53-2,7.18,7.18,0,0,0-2.11-.45c-.9,0-1.58.6-2,1.8a33.91,33.91,0,0,0-1.28,6.63,22.85,22.85,0,0,0-.15,3q0,7.68,5.12,8.43a26.44,26.44,0,0,0,5,.76,8.76,8.76,0,0,0,4.07-1.21l2.86-1.65a6.36,6.36,0,0,0,1.66-1.21l1.35-1.35c.2-.2.5-.53.9-1a3.46,3.46,0,0,1,1.13-.91,2.5,2.5,0,0,1,1-.22,2.15,2.15,0,0,1,1.36.68,11.3,11.3,0,0,0,1.2,1c.91,0,1.11.63.61,1.89a14.39,14.39,0,0,1-3.24,4.36,31.25,31.25,0,0,1-5.65,4.45A13.2,13.2,0,0,1,131.87,104.69Zm14.09-39c1.75-1.8,2.63-3.31,2.63-4.51a3.89,3.89,0,0,0-1.35-3,5.5,5.5,0,0,0-3.77-1.2,9.18,9.18,0,0,0-2.71.3,13.42,13.42,0,0,0-5,3.24,44.31,44.31,0,0,0-5,5.34c-1.41,1.81-2,2.87-1.66,3.17q.75,1.35,5.88,1.35a15.6,15.6,0,0,0,5.72-.9A15.88,15.88,0,0,0,146,65.68Z" fill="none"/>
    </clipPath>
    <clipPath id="Wedy-clip-path-3">
      <path id="Wedy_d_clip" d="M197.69,106.2a36.18,36.18,0,0,1-2.11-12.35,14.88,14.88,0,0,1,.15-2.56l.3-3.17-5.87,4.67a38.6,38.6,0,0,1-9.57,6.33,21.48,21.48,0,0,1-8.66,2.11A11.51,11.51,0,0,1,167,99a10.15,10.15,0,0,1-3.39-4.14,8.41,8.41,0,0,1-.6-3.61,36.69,36.69,0,0,1,3-13.18,41,41,0,0,1,7.53-12.58q6.48-9.78,14.46-9.79A14.59,14.59,0,0,1,195.58,58,22.84,22.84,0,0,0,200,59.51a1.47,1.47,0,0,0,1.35-.75,10.87,10.87,0,0,0,.91-2.71q1.65-6.93,3.16-11.6,3.31-9.95,5.72-16T217,15.23a13.83,13.83,0,0,1,2.64-4.14,3.15,3.15,0,0,1,2.49-.83q3.3,0,5.12,4.52a5.34,5.34,0,0,1,.45,2.11,6.92,6.92,0,0,1-.91,2.86q-3.92,6.78-9.63,22.14t-8.89,26.66a97,97,0,0,0-2.34,14.3,154.3,154.3,0,0,0-1,15.52,18,18,0,0,0,.3,3.91,16.4,16.4,0,0,1,.75,4.52,2.33,2.33,0,0,1-.75,2,5.18,5.18,0,0,1-2.41.68Q199,110.41,197.69,106.2Zm-11.9-17.93c.6-.39,2.06-1.45,4.37-3.16a20.63,20.63,0,0,0,5.27-5.42A19.75,19.75,0,0,0,198,73.21a10.74,10.74,0,0,0-.53-4.44,8.88,8.88,0,0,0-2.63-3.39,6.45,6.45,0,0,0-3.77-1,10.71,10.71,0,0,0-7.53,3.31A35.1,35.1,0,0,0,176.3,77a49.25,49.25,0,0,0-4.82,13.25q-.45,2.86,3,2.86a10.53,10.53,0,0,0,2.87-.3C179.66,92.29,182.48,90.79,185.79,88.27Z" fill="none"/>
    </clipPath>
    <clipPath id="Wedy-clip-path-4">
      <path id="Wedy_y_clip" d="M267,56.05a14.3,14.3,0,0,1-2.41,8.13,20.12,20.12,0,0,0-2.63,6.32,106.44,106.44,0,0,0-2.18,11.3q-1.37,5.73-3.32,17.62a62.15,62.15,0,0,0-3,9.49,21.2,21.2,0,0,1-1.43,3.76c-.85,1.91-1.53,3.41-2,4.52q-5.88,12.19-13.41,18.68a27.68,27.68,0,0,1-16.41,7.07c-1.61.2-2.56.31-2.87.31a6.63,6.63,0,0,1-2.48-.46,22.93,22.93,0,0,1-2.49-1.2,12.68,12.68,0,0,1-1.65-1.06,11.89,11.89,0,0,1-1.43-1.13,1.14,1.14,0,0,1-.38-.82,2,2,0,0,1,.9-1.51,4.48,4.48,0,0,1,2.87-.75,7.79,7.79,0,0,0,3.61.6c1.71,0,2.71-.2,3-.6a8,8,0,0,1,1.81-1,18.73,18.73,0,0,1,3.46-1.13,32.49,32.49,0,0,0,8.36-5.8,41,41,0,0,0,6.86-9,35.92,35.92,0,0,0,5-10.39,82.42,82.42,0,0,0,3.09-9.11c1.16-4,2.08-7.56,2.79-10.77l-2,1.81a16.15,16.15,0,0,1-3.76,2.63,13.28,13.28,0,0,1-3.62,1.73,1.35,1.35,0,0,0-.45.15.61.61,0,0,0-.3.61c0,.4-1.31,1-3.92,1.88a23.1,23.1,0,0,1-5,1.28,5,5,0,0,1-3.24-1.58,11.16,11.16,0,0,1-2.48-3.09,24.63,24.63,0,0,0-1.21-2.41,17,17,0,0,1-1.2-2.64,8.8,8.8,0,0,1-.45-2.93,11.55,11.55,0,0,1,.3-3q1.8-6.78,6.1-19.13t6.55-15.81A3.48,3.48,0,0,1,238.8,47a4.07,4.07,0,0,1,3.62,2.41,5.49,5.49,0,0,1,1.35,3A6.85,6.85,0,0,1,243,55c-.51,1.11-1.16,2.41-2,3.92-.4,1.1-.9,2.31-1.51,3.61a9.42,9.42,0,0,0-.9,2.41q-.15.6-.9,3.69c-.51,2.06-1,3.09-1.36,3.09-.7.6-1.46,2.91-2.26,6.93a51.34,51.34,0,0,0-1.2,9.33c0,1.11.15,1.66.45,1.66q8.88,0,19.28-13.25,1.35-6.63,2.41-11.15,1.95-7.68,3-13.7A8.44,8.44,0,0,1,259.43,49a3.43,3.43,0,0,1,2-.37A7.62,7.62,0,0,1,264,49a5,5,0,0,1,1.81,1.8A11.7,11.7,0,0,1,267,56.05Z" fill="none"/>
    </clipPath>
  </defs>
  <desc id="wedy_name_description">Name: Wedy</desc>
  <g id="Wedy_name">
    <g id="Wedy_w_mask">
      <g clip-path="url(#Wedy-clip-path)">
        <path id="Wedy_w" d="M33.5,4.5c-9.76,37.36-16.07,72.73-17,105,19.66-22.69,40.6-59.75,62-102-14.15,37.68-23.79,73.55-15,102,23-15.13,40.42-55.94,56-105" fill="none" stroke="#000" stroke-width="19"/>
      </g>
    </g>
    <g id="Wedy_e_mask">
      <g clip-path="url(#Wedy-clip-path-2)">
        <path id="Wedy_e" d="M122.5,71.5c10.14,5.45,20.42,4.64,31-9-.21-6.47-3.55-10.12-10-11-17.3,10.57-27.9,24.12-22,45,10.27,7.75,21.06,2,32-8" fill="none" stroke="#000" stroke-width="15"/>
      </g>
    </g>
    <g id="Wedy_d_mask">
      <g clip-path="url(#Wedy-clip-path-3)">
        <path id="Wedy_d" d="M227.5,8.5l-26,57c-19.46-11.18-29,1.81-34,26,11.22,10.81,23.23,1.73,36-26-4.46,12.85-4.75,27.69-1.59,44.17" fill="none" stroke="#000" stroke-width="17"/>
      </g>
    </g>
    <g id="Wedy_y_mask">
      <g clip-path="url(#Wedy-clip-path-4)">
        <path id="Wedy_y" d="M244.5,45.5c-11,19-19.1,36.73-13,48,16.93,2.81,26.41-21,35-48-7.21,34.15-14.95,66.5-27,84-7.76,8.62-20.6,9.72-34,10" fill="none" stroke="#000" stroke-width="17"/>
      </g>
    </g>
  </g>
</svg>
