<svg xmlns="http://www.w3.org/2000/svg" width="389.55" height="199.44" viewBox="0 0 389.55 199.44">
  <title>Artboard 4</title>
  <g id="Logo_ideas" data-name="Logo ideas">
    <g>
      <g>
        <g>
          <path d="M111.13,191.43h-85c-.71-17.24-3.26-27.18-10.31-51.26A254.81,254.81,0,0,0,5,110.39c-.2-.46.48-.82.87-.46Q13,116.5,20.23,123.67q7.66,7.59,14.55,15a1,1,0,0,0,1.5-.1c2.86-4.34,5.74-9,8.57-14,3-5.24,5.61-10.31,7.92-15.14a.55.55,0,0,1,1,0c1.73,4.55,3.78,9.39,6.23,14.45s5.14,10,7.76,14.35a1,1,0,0,0,1.59,0,139,139,0,0,0,8.34-14.38,133.91,133.91,0,0,0,6.19-14.29.55.55,0,0,1,1,0,140.33,140.33,0,0,0,6.92,15,146.12,146.12,0,0,0,8.53,14,1,1,0,0,0,1.52.07c4-4.64,8.52-9.5,13.55-14.46,5.47-5.4,10.88-10.26,16.09-14.61.39-.33,1,0,.86.45-4.36,12-8,22.33-10.29,30.66C115.53,164,112.46,173.52,111.13,191.43Z"/>
          <ellipse cx="68.7" cy="191.3" rx="42.82" ry="8.14"/>
          <ellipse cx="5.74" cy="109.79" rx="4.74" ry="4.7"/>
          <ellipse cx="52.93" cy="109.03" rx="4.74" ry="4.7"/>
          <ellipse cx="84.47" cy="109.03" rx="4.74" ry="4.7"/>
          <ellipse cx="132.42" cy="109.03" rx="4.74" ry="4.7"/>
        </g>
        <g>
          <path d="M1.34,96.69v-1q4.43,0,5.73-1.67c.88-1.1,1.31-3,1.31-5.69V11.24c0-2.73-.34-4.71-1-5.92S4.63,3.45,1.22,3.37v-1H26.5v1c-2.35,0-4,.3-4.93.89a4.38,4.38,0,0,0-1.86,2.12,20.24,20.24,0,0,0-.45,5.5V78.06q0,8.52,4.1,12t14,3.49H48.86q8.31,0,12.17-4.09T65.35,74h1V96.69Z"/>
          <path d="M85.48,3.5V2.41h59.27v13h-1q-1.92-7.23-3.23-8.51c-.88-.85-3-1.28-6.44-1.28H103V47.92h28.86c2.86,0,4.68-.27,5.44-.8a2.83,2.83,0,0,0,1.22-2.34h1v8.9h-1a3.24,3.24,0,0,0-1.5-2.5,10.24,10.24,0,0,0-4.39-.64H103V79.66q0,6.6,1.21,9.51a5.82,5.82,0,0,0,3.87,3.65,32.39,32.39,0,0,0,8,.73h16.62q7.92,0,10.13-.54a7.49,7.49,0,0,0,3.74-2.16q1.53-1.62,2.36-7.09h1V96.69H85.48v-1a10.63,10.63,0,0,0,5-1.25q1.69-1,1.7-5.47V12.9q0-5.19-.9-7.29T85.48,3.5Z"/>
          <path d="M165.39,2.41h25.35v1c-3.25,0-5.26.66-6.05,2s-1.19,3.46-1.19,6.4V92a139,139,0,0,1-.76,17.09,24.67,24.67,0,0,1-3.46,9.89,19.87,19.87,0,0,1-17.41,9.38,36.08,36.08,0,0,1-11.52-2l.13-1.09a17,17,0,0,0,5.12.58q8.31,0,12.67-6.08t4.35-20.8V12.14q0-5.84-1.45-7.3t-5.78-1.47Z"/>
          <path d="M261.75,1Q281.6,1,294.2,13.06t12.61,30.12q0,23.24-14.59,39.11T253.5,98.16q-19.59,0-32.07-12.8A42.44,42.44,0,0,1,209,54.64a57.94,57.94,0,0,1,6-24.84A50.45,50.45,0,0,1,233.08,9Q245.17,1,261.75,1Zm-.38,92.17A39.42,39.42,0,0,0,280.57,88a38.86,38.86,0,0,0,14.91-14.37,36.34,36.34,0,0,0,5.44-18.82,44.44,44.44,0,0,0-7.33-24.89,52,52,0,0,0-19-17.54Q262.91,6,253,6q-14,0-25.44,10.56a34.27,34.27,0,0,0-11.42,26.24q0,20,13.95,35.21T261.37,93.17Z"/>
          <path d="M371,3.62l4.48,11.78-.77.13s-1.18-1.3-3.55-3.78A24.45,24.45,0,0,0,352.74,4q-9.67,0-15.33,5.53a18,18,0,0,0-5.67,13.35A15.62,15.62,0,0,0,334.4,32q2.66,3.87,11.1,7.22,14.5,4.89,19.86,7.36a30.52,30.52,0,0,1,10.32,8.34q5,5.88,5,15.09a29.59,29.59,0,0,1-.89,7.32A24.58,24.58,0,0,1,376.87,84a29.83,29.83,0,0,1-4.77,5.88,22.26,22.26,0,0,1-5.67,4A30.42,30.42,0,0,1,357.34,96q-6.21.7-8.19.71H324V69.29h1q.12,13.63,6.4,19t19.52,5.38q12,0,18.27-5.7a17.88,17.88,0,0,0,6.24-13.69A15.12,15.12,0,0,0,373.22,66a20.42,20.42,0,0,0-6.08-6q-3.92-2.59-14.78-6.32T337.16,47a21.76,21.76,0,0,1-7.34-8.57,25.24,25.24,0,0,1-2.94-11.67A24.71,24.71,0,0,1,334.4,8.42Q341.92,1,354.14,1a52.64,52.64,0,0,1,10.24,1.09,47.66,47.66,0,0,1,6.15,1.41A1.19,1.19,0,0,0,371,3.62Z"/>
        </g>
        <g>
          <path d="M155.63,132.57h8.29v.53q-4.21.22-4.21,4.39a18.26,18.26,0,0,0,.22,2.46l5.52,39.78a10.34,10.34,0,0,0,1.12,3.8,3.59,3.59,0,0,0,2.59,1v.53h-11.8v-.53a2,2,0,0,0,2.36-2.27,18,18,0,0,0-.22-2.09l-5.39-38.56-18.82,43.45h-.35L116,141.69l-5.33,38.78a13.43,13.43,0,0,0-.14,2c0,1.36.8,2,2.4,2v.53h-8v-.53a4,4,0,0,0,2.34-.45,3,3,0,0,0,.8-1.42,14.3,14.3,0,0,0,.43-2.2l6-42.41c-1-2.35-1.95-3.77-2.93-4.24a6.38,6.38,0,0,0-2.82-.72v-.53h9.9l18.46,42.94Z"/>
          <path d="M172.22,133.17v-.6h33v7.23h-.54q-1.06-4-1.8-4.74c-.48-.47-1.68-.71-3.58-.71H182v23.56h16.07a6.42,6.42,0,0,0,3-.44,1.58,1.58,0,0,0,.68-1.31h.53v5h-.53a1.81,1.81,0,0,0-.84-1.39,5.65,5.65,0,0,0-2.44-.36H182v16.22a14.93,14.93,0,0,0,.67,5.29,3.24,3.24,0,0,0,2.16,2,18.08,18.08,0,0,0,4.46.41h9.26a31.45,31.45,0,0,0,5.64-.3,4.26,4.26,0,0,0,2.08-1.21c.57-.6,1-1.92,1.32-3.95h.53v7.2H172.22v-.53a5.84,5.84,0,0,0,2.76-.7c.63-.39,1-1.4,1-3V138.41a11.56,11.56,0,0,0-.5-4.06C175.1,133.57,174,133.17,172.22,133.17Z"/>
          <path d="M253.6,132.57v.53c-1.48-.16-2.78.56-3.92,2.18,0,0-.06,0-.11.1a.42.42,0,0,1-.11.18l-.28.39a.66.66,0,0,0-.18.29l-.36.35-13.36,18.78,16,23.11a24.23,24.23,0,0,0,4,5.08,3.88,3.88,0,0,0,2.67,1v.53h-13v-.53c1.11.07,1.66-.32,1.66-1.18a5,5,0,0,0-1.1-2.63l-14-20.1-14,19.71s-.28.42-.84,1.2a3.35,3.35,0,0,0-1,2c0,.72.6,1,1.79,1v.53h-7.84v-.53a4,4,0,0,0,3-1.32l.61-.64,17-23.78-15.71-22.63c0-.34-.46-.95-1.36-1.86a3.73,3.73,0,0,0-3-1.21v-.53h13.23v.53c-1.43,0-2.15.39-2.15,1.18a6,6,0,0,0,1.32,2.74L234,153.56l12.39-17.31s.2-.36.55-1a4.13,4.13,0,0,0,.52-1.22.75.75,0,0,0-.38-.77,4.55,4.55,0,0,0-1.46-.16v-.53Z"/>
          <path d="M274.84,132.57v.53a5.57,5.57,0,0,0-2.3.32,2.09,2.09,0,0,0-1.5,1.25,19.5,19.5,0,0,0-.23,3.88v40.29a16.64,16.64,0,0,0,.27,4,2.43,2.43,0,0,0,1,1.21,5.54,5.54,0,0,0,2.73.48v.53h-14v-.53c1.76,0,2.85-.34,3.28-1s.64-2.21.64-4.61V139c0-2.5-.23-4.13-.71-4.9s-1.54-1.11-3.21-1v-.53Z"/>
          <path d="M325.35,135.21l2,5.56h-.52a24.65,24.65,0,0,0-18-7.6q-10.72,0-17.33,6.38A20.7,20.7,0,0,0,284.89,155a35,35,0,0,0,2.94,12.87,27.35,27.35,0,0,0,9.29,11.95,25.1,25.1,0,0,0,15.36,4.69,36,36,0,0,0,11.6-1.91q5.69-1.91,8.47-5.11l.46.14-3.67,5.63q-8.91,1.94-11.56,2.29a57.94,57.94,0,0,1-7.12.35q-16.5,0-23.61-7.64a26,26,0,0,1-7.11-18.31,28.46,28.46,0,0,1,3.65-13.85,26.36,26.36,0,0,1,10.54-10.47,34.8,34.8,0,0,1,23.36-3,41.14,41.14,0,0,1,5.36,1.65l2.36.89A.34.34,0,0,1,325.35,135.21Z"/>
          <path d="M364.45,131.78q11.06,0,18.07,6.72a22.27,22.27,0,0,1,7,16.77q0,12.94-8.13,21.78t-21.57,8.84q-10.91,0-17.85-7.13a23.61,23.61,0,0,1-7-17.11,32.2,32.2,0,0,1,3.36-13.83,27.9,27.9,0,0,1,26.05-16Zm-.21,51.33a22,22,0,0,0,10.69-2.9,21.66,21.66,0,0,0,8.31-8,20.3,20.3,0,0,0,3-10.49,24.72,24.72,0,0,0-4.09-13.86,29.08,29.08,0,0,0-10.58-9.77,25.56,25.56,0,0,0-12-3.53,20.35,20.35,0,0,0-14.17,5.89A19.09,19.09,0,0,0,339,155.06a28.05,28.05,0,0,0,7.77,19.6Q354.58,183.12,364.24,183.11Z"/>
        </g>
        <g>
          <path d="M202.51,120.36a9.08,9.08,0,0,1-1.51,1,2.91,2.91,0,0,1-1.3.33,3.32,3.32,0,0,1-2.8-1.33,5.49,5.49,0,0,1-1-3.45,5.36,5.36,0,0,1,1.55-4,5.16,5.16,0,0,1,1.51-1,4.83,4.83,0,0,1,1.86-.33,3.53,3.53,0,0,1,.74.09l.71.19.3.1a.19.19,0,0,0,.21-.21v-2.87c0-.3,0-.55,0-.75a2.19,2.19,0,0,0-.1-.51,2.44,2.44,0,0,0-.14-.31.41.41,0,0,0-.24-.16,1.58,1.58,0,0,0-.31-.08l-.44,0h-.21a.6.6,0,0,1-.13-.32,1,1,0,0,1,0-.35,15.7,15.7,0,0,0,1.71-.26,9.11,9.11,0,0,0,1.44-.36c.2,0,.3.08.3.23a21.45,21.45,0,0,0-.1,2.36v10.18a1.83,1.83,0,0,0,.31,1.22,2,2,0,0,0,1.33.42.41.41,0,0,1,.1.31.38.38,0,0,1-.1.3,5.28,5.28,0,0,0-2.72.89.63.63,0,0,1-.43,0,4.63,4.63,0,0,1-.24-1.31c0-.06,0-.09,0-.1a.11.11,0,0,0-.11,0Zm.25-1.65v-4.27a2.56,2.56,0,0,0-.07-.73,1.56,1.56,0,0,0-.31-.49,2.33,2.33,0,0,0-1.82-.8,2.36,2.36,0,0,0-2.1,1.12,5.24,5.24,0,0,0-.65,3,5.4,5.4,0,0,0,.74,3.06,2.1,2.1,0,0,0,1.73,1.08,3.57,3.57,0,0,0,2.12-1.08,1.14,1.14,0,0,0,.3-.36A1.69,1.69,0,0,0,202.76,118.71Z"/>
          <path d="M215.05,119.41a.48.48,0,0,1,.47.35,4.65,4.65,0,0,1-3.83,1.95,4.29,4.29,0,0,1-3.43-1.43,4.92,4.92,0,0,1-1-3.33,5.83,5.83,0,0,1,.28-1.85,4.77,4.77,0,0,1,.74-1.48,5.28,5.28,0,0,1,1-1.07,4.38,4.38,0,0,1,1.21-.66,3.53,3.53,0,0,1,1.21-.22q3.8,0,3.8,3.89c0,.25-.14.38-.42.38h-6a5.84,5.84,0,0,0,.72,3.07,3.51,3.51,0,0,0,1.14,1.21,2.56,2.56,0,0,0,1.31.4,3.73,3.73,0,0,0,1.54-.27A4.3,4.3,0,0,0,215.05,119.41Zm-5.89-4.29h4.07c.22,0,.33-.11.33-.31a3.77,3.77,0,0,0-.17-1.18,1.73,1.73,0,0,0-.45-.74,1.68,1.68,0,0,0-.59-.36,2,2,0,0,0-.66-.11,2.09,2.09,0,0,0-.43,0,2.5,2.5,0,0,0-1.19.62,3,3,0,0,0-.53.8A4.4,4.4,0,0,0,209.16,115.12Z"/>
        </g>
      </g>
      <g>
        <path d="M110.13,190.43h-85c-.71-17.24-3.26-27.18-10.31-51.26A254.81,254.81,0,0,0,4,109.39c-.2-.46.48-.82.87-.46Q12,115.5,19.23,122.67q7.66,7.59,14.55,15a1,1,0,0,0,1.5-.1c2.86-4.34,5.74-9,8.57-14,3-5.24,5.61-10.31,7.92-15.14a.55.55,0,0,1,1,0c1.73,4.55,3.78,9.39,6.23,14.45s5.14,10,7.76,14.35a1,1,0,0,0,1.59,0,139,139,0,0,0,8.34-14.38,133.91,133.91,0,0,0,6.19-14.29.55.55,0,0,1,1,0,140.33,140.33,0,0,0,6.92,15,146.12,146.12,0,0,0,8.53,14,1,1,0,0,0,1.52.07c4-4.64,8.52-9.5,13.55-14.46,5.47-5.4,10.88-10.26,16.09-14.61.39-.33,1,0,.86.45-4.36,12-8,22.33-10.29,30.66C114.53,163,111.46,172.52,110.13,190.43Z" fill="#dda84a"/>
        <ellipse cx="67.7" cy="190.3" rx="42.82" ry="8.14" fill="#dd9936"/>
        <ellipse cx="4.74" cy="108.79" rx="4.74" ry="4.7" fill="#dda84a"/>
        <ellipse cx="51.93" cy="108.03" rx="4.74" ry="4.7" fill="#dda84a"/>
        <ellipse cx="83.47" cy="108.03" rx="4.74" ry="4.7" fill="#dda84a"/>
        <ellipse cx="131.42" cy="108.03" rx="4.74" ry="4.7" fill="#dda84a"/>
      </g>
      <g>
        <path d="M.34,95.69v-1q4.43,0,5.73-1.67c.88-1.1,1.31-3,1.31-5.69V10.24c0-2.73-.34-4.71-1-5.92S3.63,2.45.22,2.37v-1H25.5v1c-2.35,0-4,.3-4.93.89a4.38,4.38,0,0,0-1.86,2.12,20.24,20.24,0,0,0-.45,5.5V77.06q0,8.52,4.1,12t14,3.49H47.86q8.31,0,12.17-4.09T64.35,73h1V95.69Z" fill="#fffcd4"/>
        <path d="M84.48,2.5V1.41h59.27v13h-1q-1.92-7.23-3.23-8.51c-.88-.85-3-1.28-6.44-1.28H102V46.92h28.86c2.86,0,4.68-.27,5.44-.8a2.83,2.83,0,0,0,1.22-2.34h1v8.9h-1a3.24,3.24,0,0,0-1.5-2.5,10.24,10.24,0,0,0-4.39-.64H102V78.66q0,6.6,1.21,9.51a5.82,5.82,0,0,0,3.87,3.65,32.39,32.39,0,0,0,8,.73h16.62q7.92,0,10.13-.54a7.49,7.49,0,0,0,3.74-2.16q1.53-1.62,2.36-7.09h1V95.69H84.48v-1a10.63,10.63,0,0,0,5-1.25q1.69-1,1.7-5.47V11.9q0-5.19-.9-7.29T84.48,2.5Z" fill="#fffcd4"/>
        <path d="M164.39,1.41h25.35v1c-3.25,0-5.26.66-6.05,2s-1.19,3.46-1.19,6.4V91a139,139,0,0,1-.76,17.09,24.67,24.67,0,0,1-3.46,9.89,19.87,19.87,0,0,1-17.41,9.38,36.08,36.08,0,0,1-11.52-2l.13-1.09a17,17,0,0,0,5.12.58q8.31,0,12.67-6.08t4.35-20.8V11.14q0-5.84-1.45-7.3t-5.78-1.47Z" fill="#fffcd4"/>
        <path d="M260.75,0Q280.6,0,293.2,12.06t12.61,30.12q0,23.24-14.59,39.11T252.5,97.16q-19.59,0-32.07-12.8A42.44,42.44,0,0,1,208,53.64a57.94,57.94,0,0,1,6-24.84A50.45,50.45,0,0,1,232.08,8Q244.17,0,260.75,0Zm-.38,92.17A39.42,39.42,0,0,0,279.57,87a38.86,38.86,0,0,0,14.91-14.37,36.34,36.34,0,0,0,5.44-18.82,44.44,44.44,0,0,0-7.33-24.89,52,52,0,0,0-19-17.54Q261.91,5,252,5q-14,0-25.44,10.56a34.27,34.27,0,0,0-11.42,26.24q0,20,13.95,35.21T260.37,92.17Z" fill="#fffcd4"/>
        <path d="M370,2.62l4.48,11.78-.77.13s-1.18-1.3-3.55-3.78A24.45,24.45,0,0,0,351.74,3q-9.67,0-15.33,5.53a18,18,0,0,0-5.67,13.35A15.62,15.62,0,0,0,333.4,31q2.66,3.87,11.1,7.22,14.5,4.89,19.86,7.36a30.52,30.52,0,0,1,10.32,8.34q5,5.88,5,15.09a29.59,29.59,0,0,1-.89,7.32A24.58,24.58,0,0,1,375.87,83a29.83,29.83,0,0,1-4.77,5.88,22.26,22.26,0,0,1-5.67,4A30.42,30.42,0,0,1,356.34,95q-6.21.7-8.19.71H323V68.29h1q.12,13.63,6.4,19t19.52,5.38q12,0,18.27-5.7a17.88,17.88,0,0,0,6.24-13.69A15.12,15.12,0,0,0,372.22,65a20.42,20.42,0,0,0-6.08-6q-3.92-2.59-14.78-6.32T336.16,46a21.76,21.76,0,0,1-7.34-8.57,25.24,25.24,0,0,1-2.94-11.67A24.71,24.71,0,0,1,333.4,7.42Q340.92,0,353.14,0a52.64,52.64,0,0,1,10.24,1.09,47.66,47.66,0,0,1,6.15,1.41A1.19,1.19,0,0,0,370,2.62Z" fill="#fffcd4"/>
      </g>
      <g>
        <path d="M154.63,131.57h8.29v.53q-4.21.22-4.21,4.39a18.26,18.26,0,0,0,.22,2.46l5.52,39.78a10.34,10.34,0,0,0,1.12,3.8,3.59,3.59,0,0,0,2.59,1v.53h-11.8v-.53a2,2,0,0,0,2.36-2.27,18,18,0,0,0-.22-2.09l-5.39-38.56-18.82,43.45h-.35L115,140.69l-5.33,38.78a13.43,13.43,0,0,0-.14,2c0,1.36.8,2,2.4,2v.53h-8v-.53a4,4,0,0,0,2.34-.45,3,3,0,0,0,.8-1.42,14.3,14.3,0,0,0,.43-2.2l6-42.41c-1-2.35-1.95-3.77-2.93-4.24a6.38,6.38,0,0,0-2.82-.72v-.53h9.9l18.46,42.94Z" fill="#fffcd4"/>
        <path d="M171.22,132.17v-.6h33v7.23h-.54q-1.06-4-1.8-4.74c-.48-.47-1.68-.71-3.58-.71H181v23.56h16.07a6.42,6.42,0,0,0,3-.44,1.58,1.58,0,0,0,.68-1.31h.53v5h-.53a1.81,1.81,0,0,0-.84-1.39,5.65,5.65,0,0,0-2.44-.36H181v16.22a14.93,14.93,0,0,0,.67,5.29,3.24,3.24,0,0,0,2.16,2,18.08,18.08,0,0,0,4.46.41h9.26a31.45,31.45,0,0,0,5.64-.3,4.26,4.26,0,0,0,2.08-1.21c.57-.6,1-1.92,1.32-3.95h.53v7.2H171.22v-.53a5.84,5.84,0,0,0,2.76-.7c.63-.39,1-1.4,1-3V137.41a11.56,11.56,0,0,0-.5-4.06C174.1,132.57,173,132.17,171.22,132.17Z" fill="#fffcd4"/>
        <path d="M252.6,131.57v.53c-1.48-.16-2.78.56-3.92,2.18,0,0-.06,0-.11.1a.42.42,0,0,1-.11.18l-.28.39a.66.66,0,0,0-.18.29l-.36.35-13.36,18.78,16,23.11a24.23,24.23,0,0,0,4,5.08,3.88,3.88,0,0,0,2.67,1v.53h-13v-.53c1.11.07,1.66-.32,1.66-1.18a5,5,0,0,0-1.1-2.63l-14-20.1-14,19.71s-.28.42-.84,1.2a3.35,3.35,0,0,0-1,2c0,.72.6,1,1.79,1v.53h-7.84v-.53a4,4,0,0,0,3-1.32l.61-.64,17-23.78-15.71-22.63c0-.34-.46-.95-1.36-1.86a3.73,3.73,0,0,0-3-1.21v-.53h13.23v.53c-1.43,0-2.15.39-2.15,1.18a6,6,0,0,0,1.32,2.74L233,152.56l12.39-17.31s.2-.36.55-1a4.13,4.13,0,0,0,.52-1.22.75.75,0,0,0-.38-.77,4.55,4.55,0,0,0-1.46-.16v-.53Z" fill="#fffcd4"/>
        <path d="M273.84,131.57v.53a5.57,5.57,0,0,0-2.3.32,2.09,2.09,0,0,0-1.5,1.25,19.5,19.5,0,0,0-.23,3.88v40.29a16.64,16.64,0,0,0,.27,4,2.43,2.43,0,0,0,1,1.21,5.54,5.54,0,0,0,2.73.48v.53h-14v-.53c1.76,0,2.85-.34,3.28-1s.64-2.21.64-4.61V138c0-2.5-.23-4.13-.71-4.9s-1.54-1.11-3.21-1v-.53Z" fill="#fffcd4"/>
        <path d="M324.35,134.21l2,5.56h-.52a24.65,24.65,0,0,0-18-7.6q-10.72,0-17.33,6.38A20.7,20.7,0,0,0,283.89,154a35,35,0,0,0,2.94,12.87,27.35,27.35,0,0,0,9.29,11.95,25.1,25.1,0,0,0,15.36,4.69,36,36,0,0,0,11.6-1.91q5.69-1.91,8.47-5.11l.46.14-3.67,5.63q-8.91,1.94-11.56,2.29a57.94,57.94,0,0,1-7.12.35q-16.5,0-23.61-7.64a26,26,0,0,1-7.11-18.31,28.46,28.46,0,0,1,3.65-13.85,26.36,26.36,0,0,1,10.54-10.47,34.8,34.8,0,0,1,23.36-3,41.14,41.14,0,0,1,5.36,1.65l2.36.89A.34.34,0,0,1,324.35,134.21Z" fill="#fffcd4"/>
        <path d="M363.45,130.78q11.06,0,18.07,6.72a22.27,22.27,0,0,1,7,16.77q0,12.94-8.13,21.78t-21.57,8.84q-10.91,0-17.85-7.13a23.61,23.61,0,0,1-7-17.11,32.2,32.2,0,0,1,3.36-13.83,27.9,27.9,0,0,1,26.05-16Zm-.21,51.33a22,22,0,0,0,10.69-2.9,21.66,21.66,0,0,0,8.31-8,20.3,20.3,0,0,0,3-10.49,24.72,24.72,0,0,0-4.09-13.86,29.08,29.08,0,0,0-10.58-9.77,25.56,25.56,0,0,0-12-3.53,20.35,20.35,0,0,0-14.17,5.89A19.09,19.09,0,0,0,338,154.06a28.05,28.05,0,0,0,7.77,19.6Q353.58,182.12,363.24,182.11Z" fill="#fffcd4"/>
      </g>
      <g>
        <path d="M201.51,119.36a9.08,9.08,0,0,1-1.51,1,2.91,2.91,0,0,1-1.3.33,3.32,3.32,0,0,1-2.8-1.33,5.49,5.49,0,0,1-1-3.45,5.36,5.36,0,0,1,1.55-4,5.16,5.16,0,0,1,1.51-1,4.83,4.83,0,0,1,1.86-.33,3.53,3.53,0,0,1,.74.09l.71.19.3.1a.19.19,0,0,0,.21-.21v-2.87c0-.3,0-.55,0-.75a2.19,2.19,0,0,0-.1-.51,2.44,2.44,0,0,0-.14-.31.41.41,0,0,0-.24-.16,1.58,1.58,0,0,0-.31-.08l-.44,0h-.21a.6.6,0,0,1-.13-.32,1,1,0,0,1,0-.35,15.7,15.7,0,0,0,1.71-.26,9.11,9.11,0,0,0,1.44-.36c.2,0,.3.08.3.23a21.45,21.45,0,0,0-.1,2.36v10.18a1.83,1.83,0,0,0,.31,1.22,2,2,0,0,0,1.33.42.41.41,0,0,1,.1.31.38.38,0,0,1-.1.3,5.28,5.28,0,0,0-2.72.89.63.63,0,0,1-.43,0,4.63,4.63,0,0,1-.24-1.31c0-.06,0-.09,0-.1a.11.11,0,0,0-.11,0Zm.25-1.65v-4.27a2.56,2.56,0,0,0-.07-.73,1.56,1.56,0,0,0-.31-.49,2.33,2.33,0,0,0-1.82-.8,2.36,2.36,0,0,0-2.1,1.12,5.24,5.24,0,0,0-.65,3,5.4,5.4,0,0,0,.74,3.06,2.1,2.1,0,0,0,1.73,1.08,3.57,3.57,0,0,0,2.12-1.08,1.14,1.14,0,0,0,.3-.36A1.69,1.69,0,0,0,201.76,117.71Z" fill="#fffcd4"/>
        <path d="M214.05,118.41a.48.48,0,0,1,.47.35,4.65,4.65,0,0,1-3.83,1.95,4.29,4.29,0,0,1-3.43-1.43,4.92,4.92,0,0,1-1-3.33,5.83,5.83,0,0,1,.28-1.85,4.77,4.77,0,0,1,.74-1.48,5.28,5.28,0,0,1,1-1.07,4.38,4.38,0,0,1,1.21-.66,3.53,3.53,0,0,1,1.21-.22q3.8,0,3.8,3.89c0,.25-.14.38-.42.38h-6a5.84,5.84,0,0,0,.72,3.07,3.51,3.51,0,0,0,1.14,1.21,2.56,2.56,0,0,0,1.31.4,3.73,3.73,0,0,0,1.54-.27A4.3,4.3,0,0,0,214.05,118.41Zm-5.89-4.29h4.07c.22,0,.33-.11.33-.31a3.77,3.77,0,0,0-.17-1.18,1.73,1.73,0,0,0-.45-.74,1.68,1.68,0,0,0-.59-.36,2,2,0,0,0-.66-.11,2.09,2.09,0,0,0-.43,0,2.5,2.5,0,0,0-1.19.62,3,3,0,0,0-.53.8A4.4,4.4,0,0,0,208.16,114.12Z" fill="#fffcd4"/>
      </g>
    </g>
  </g>
</svg>
