<svg xmlns="http://www.w3.org/2000/svg" width="434.47" height="293.01" viewBox="0 0 434.47 293.01">
  <title>logo_crown</title>
  <g id="Logo_ideas" data-name="Logo ideas">
    <g>
      <path d="M339.25,268.33h-262c-2.2-53.11-10-83.72-31.76-157.9A781.53,781.53,0,0,0,12.35,18.7c-.61-1.42,1.49-2.53,2.69-1.42Q36.89,37.52,59.25,59.6,82.85,83,104.07,105.65a3,3,0,0,0,4.6-.32c8.83-13.36,17.7-27.7,26.41-43,9.19-16.14,17.27-31.75,24.41-46.65a1.71,1.71,0,0,1,3,.1c5.32,14,11.64,28.94,19.19,44.52,7.75,16,15.84,30.76,23.9,44.21a3,3,0,0,0,4.92.09,434,434,0,0,0,25.68-44.3,417.3,417.3,0,0,0,19.07-44,1.69,1.69,0,0,1,3,0,430.63,430.63,0,0,0,21.34,46.08,449.44,449.44,0,0,0,26.28,43,3.06,3.06,0,0,0,4.65.2C323,91.19,336.83,76.24,352.32,61c16.85-16.64,33.53-31.62,49.57-45,1.19-1,3.15,0,2.65,1.41-13.44,36.9-24.56,68.77-31.7,94.45C352.81,183.83,343.38,213.16,339.25,268.33Z" fill="#dda84a"/>
      <ellipse cx="208.55" cy="267.94" rx="131.92" ry="25.07" fill="#dd9936"/>
      <ellipse cx="14.61" cy="16.84" rx="14.61" ry="14.49" fill="#dda84a"/>
      <ellipse cx="159.96" cy="14.49" rx="14.61" ry="14.49" fill="#dda84a"/>
      <ellipse cx="257.13" cy="14.49" rx="14.61" ry="14.49" fill="#dda84a"/>
      <ellipse cx="404.85" cy="14.49" rx="14.61" ry="14.49" fill="#dda84a"/>
    </g>
  </g>
</svg>
