<svg xmlns="http://www.w3.org/2000/svg" viewBox="0 0 199.78 199.95"><defs><style>.cls-1{fill:#8a9cbe;}.cls-2{fill:#b5c0d6;}.cls-3{fill:#3e5c93;}</style></defs><title>facebook_icon</title><g id="Layer_2" data-name="Layer 2"><g id="Layer_1-2" data-name="Layer 1"><path class="cls-1" d="M106.82,200H10.75a.25.25,0,0,1,.12-.33,4.65,4.65,0,0,1,2-.18h91.24c2.38,0,2.16.18,2.16-2.18q0-36.39,0-72.78a3,3,0,0,1,.27-1.91c.5,0,.46.38.52.67a6.82,6.82,0,0,1,0,1.28v73.54a5.12,5.12,0,0,1-.11,1.56A1.08,1.08,0,0,1,106.82,200Z"/><path class="cls-1" d="M189.14,200H137.86a1.94,1.94,0,0,1-.21-.34,4.76,4.76,0,0,1-.11-1.46q0-36.9,0-73.81c0-.62-.33-1.41.5-1.82.44.5.31,1.12.31,1.69q0,9.57,0,19.14v54.2c0,1.88,0,1.88,1.88,1.88h46.93a4.07,4.07,0,0,1,1.83.18A.25.25,0,0,1,189.14,200Z"/><path class="cls-2" d="M10.73,199.78c0,.06,0,.11,0,.17h-1a1,1,0,0,0,0-.17A.63.63,0,0,1,10.73,199.78Z"/><path class="cls-3" d="M190.14,199.78h-1l-1.27,0H139.17c-.77,0-1.15-.06-1.15-1q0-38.12,0-76.21c.47-.41,1-.28,1.6-.28h22.49c1.45,0,1.48,0,1.66-1.42.66-5.33,1.37-10.65,2-16,.46-3.6.94-7.2,1.39-10.81.18-1.43.16-1.44-1.27-1.44H139.75c-2.14,0-2.19,0-2.19-2.21,0-5.89,0-11.78,0-17.67a21.77,21.77,0,0,1,1.08-7.25,9.81,9.81,0,0,1,6.09-6.13,20.66,20.66,0,0,1,5.95-1.16c5.5-.35,11-.08,16.49-.17,1.37,0,1.41,0,1.41-1.46V33.17c0-1.46-.09-1.55-1.52-1.67q-7.14-.62-14.3-.85c-2.68-.08-5.36-.18-8-.13a42.09,42.09,0,0,0-19.4,4.61,31.86,31.86,0,0,0-13.41,13.4,42.93,42.93,0,0,0-4.65,16.62c-.26,2.88-.13,5.76-.15,8.63,0,5.67,0,11.33,0,17,0,1.64-.16,1.8-1.79,1.81H82.45c-1.4,0-1.45.06-1.46,1.42v26.62c0,1.61,0,1.61,1.65,1.61H105c.54,0,1.12-.13,1.59.28q0,38.11,0,76.21c0,1.1-.53,1-1.26,1H12c-.43,0-.85,0-1.28,0h-1C4.05,199,.13,194.53,0,188.56c0-.16,0-.33,0-.49Q0,100,0,11.87c0-4.47,1.66-8,5.56-10.36a11.48,11.48,0,0,1,6-1.5H188c4.46,0,8,1.62,10.38,5.51a10.61,10.61,0,0,1,1.43,4.25v1c0,.36,0,.72,0,1.08V188.08c0,.36,0,.72,0,1.08v1A11,11,0,0,1,190.14,199.78Z"/></g></g></svg>