<svg id="Layer_1" data-name="Layer 1" xmlns="http://www.w3.org/2000/svg" width="1920" height="861" viewBox="0 0 1920 861">
  <title>splash_full</title>
  <rect y="2" width="1920" height="861" fill="#8c9eb4"/>
  <polygon points="1775 612.51 608 651.74 622 161.42 1759 132 1775 612.51" fill="#fff"/>
  <g>
    <path d="M80,132.37a12.64,12.64,0,0,1-4.47,10.12A17.38,17.38,0,0,1,64,147.08l-19.25.74-.1-2.49,3.44-.13L44.56,53.62l-3.44.13L41,51.26l19.25-.74a17.48,17.48,0,0,1,11.88,3.7A12.64,12.64,0,0,1,77.39,64ZM53.59,145,50.08,53.41l-2.76.11,3.51,91.57Zm15.61-6.12L66.11,58.33A5.5,5.5,0,0,0,60.38,53l-4.78.18,3.51,91.57,4.78-.18a5.53,5.53,0,0,0,5.31-5.73Zm5.37-4.05L71.78,62a9.74,9.74,0,0,0-5.24-8.5A10,10,0,0,1,69,60.17l2.94,76.7a10.14,10.14,0,0,1-1.9,6.81A9.82,9.82,0,0,0,74.57,134.81Z"/>
    <path d="M122.77,144.83l-14.21.54-.07-2a11.74,11.74,0,0,1-7.85,2.93q-11.79.45-12.27-12.21L86.18,76.91,82.74,77l-.09-2.49L96.86,74l2.46,64.37q.21,5.25,4.24,5.09a6.94,6.94,0,0,0,4.83-2.54l-2.48-64.78-3.44.14-.09-2.5,14.2-.54,2.66,69.22,3.43-.13Zm-26-.83a9.85,9.85,0,0,1-2.9-7.17L91.56,76.7l-2.76.11,2.25,58.58Q91.34,142.8,96.77,144Zm17.08-1.33L111.29,76l-2.76.1,2.56,66.73Z"/>
    <path d="M183,142.52l-14.21.54-2.46-64.37q-.21-5.25-4.18-5.1a7,7,0,0,0-4.89,2.55l2.48,64.77,3.5-.13.1,2.49-17.71.68-.1-2.49,3.51-.14-3.51-91.57-3.5.14-.1-2.5,14.21-.54,1,26.8a11.78,11.78,0,0,1,7.92-2.93q11.71-.45,12.2,12.2l2.19,57.24,3.44-.13Zm-28.64-1.4-3.51-91.57-2.76.1,3.51,91.58Zm19.72-.76-2.28-59.59q-.22-5.79-4.94-7.49,2,1.81,2.13,6.39l2.33,60.8Z"/>
    <path d="M220.2,141.09l-14.21.55-.07-1.95a11.46,11.46,0,0,1-7.65,2.92q-11.45.44-11.93-12.22l-.61-15.89q-.51-13.34,15.38-13.94l3.3-.13-.89-23.16c-.14-3.68-1.55-5.47-4.25-5.37s-3.9,2-3.76,5.67l.56,14.62-10.77.41L185,84.05a13.54,13.54,0,0,1,3.61-10.39q3.87-4,10.6-4.25t10.92,3.42a13.6,13.6,0,0,1,4.36,10.09l2.14,55.82,3.5-.14ZM191.79,73.81a10.15,10.15,0,0,0-4.23,9.13l.27,7.07,2.76-.11-.33-8.69A12.78,12.78,0,0,1,191.79,73.81Zm3,66.44a9.89,9.89,0,0,1-2.9-7.17L191,111.93a12.34,12.34,0,0,1,1.54-7.2q-4.48,2.53-4.24,9l.69,17.91Q189.31,139,194.74,140.25Zm11.08-3.06-1.31-34.27-3.17.12c-3.5.14-5.18,2-5,5.66l1,25.92c.14,3.5,1.44,5.21,3.91,5.11A6.76,6.76,0,0,0,205.82,137.19Zm5.46,1.75L209,80.49a9.76,9.76,0,0,0-5.18-8.63q2.17,2.28,2.35,6.79l2.31,60.4Z"/>
    <path d="M252.9,90l-10.77.41-.56-14.61c-.14-3.5-1.3-5.21-3.5-5.13q-2.16.09-4.22,2.53L236.33,138l3.5-.13.1,2.49-17.71.68-.1-2.5,3.51-.13-2.56-66.73-3.5.14-.1-2.49,14.21-.55.07,1.95a11.23,11.23,0,0,1,7.51-2.91Q252,67.38,252.52,80ZM231,138.18l-2.56-66.72-2.76.1,2.56,66.73Zm16.41-50.46L247,77.89q-.22-5.79-4.73-7.37c1.16,1,1.8,3.12,1.93,6.27l.42,11Z"/>
    <path d="M315.75,137.43l-13.94.54L291.5,103.16l1.26,32.66,3.5-.14.09,2.49-17.71.68-.09-2.49,3.5-.13-3.51-91.58-3.5.14-.1-2.49,14.21-.55,2.17,56.7L304,68.56l-3.57.14-.09-2.49,10.5-.41.1,2.49-3.5.14L298.12,90.9,312,135.08l3.7-.14ZM287.37,136l-3.51-91.57-2.76.11,3.51,91.57Zm19.32-.74-11.37-38.2-1.53,4,10.14,34.27Z"/>
    <path d="M354.33,136l-14.21.55-.07-2a11.75,11.75,0,0,1-7.85,2.94q-11.79.45-12.27-12.21L317.74,68l-3.44.14-.09-2.5,14.21-.54,2.46,64.37c.14,3.5,1.55,5.2,4.25,5.1a7,7,0,0,0,4.82-2.55l-2.48-64.77-3.44.13-.09-2.49,14.21-.55,2.65,69.22,3.43-.13Zm-26-.82a9.89,9.89,0,0,1-2.9-7.17l-2.3-60.13-2.77.1,2.25,58.58Q322.9,133.92,328.33,135.13Zm17.08-1.33-2.56-66.73-2.76.11,2.56,66.73Z"/>
    <path d="M394.19,134.42l-14.14.55L377.58,70.6c-.13-3.51-1.55-5.2-4.24-5.1a7,7,0,0,0-4.89,2.55l2.48,64.77,3.5-.13.1,2.49-17.71.68-.1-2.49,3.5-.14L357.67,66.5l-3.5.14-.1-2.49,14.21-.55.07,2a11.83,11.83,0,0,1,7.91-2.94q11.73-.45,12.21,12.21l2.19,57.23,3.43-.13ZM365.61,133,363.05,66.3l-2.76.1,2.56,66.73Zm19.66-.76L383,72.68q-.23-5.79-4.94-7.5,1.95,1.81,2.13,6.4l2.33,60.8Z"/>
    <path d="M449.7,118.88a13.09,13.09,0,0,1-4,10.17,17.33,17.33,0,0,1-22.32.85,13,13,0,0,1-4.83-9.83L416.8,75.16A13.05,13.05,0,0,1,420.86,65a17.33,17.33,0,0,1,22.32-.85A13.11,13.11,0,0,1,448,74l.9,23.56-20.4.79,1,27.4c.14,3.68,1.82,5.46,5.06,5.34s4.71-2,4.57-5.71l-.56-14.61,10.77-.41Zm-23.61,10.48a12,12,0,0,1-2.08-6.87l-1.92-50.16a12,12,0,0,1,1.55-7,9.9,9.9,0,0,0-4.25,8.73l1.8,46.93A9.88,9.88,0,0,0,426.09,129.36ZM438,95.46l-1-27.14c-.14-3.68-1.81-5.46-5-5.34s-4.78,2-4.64,5.71l1,27.13Zm7.61-58.29L432,57.05l-3,.11,4.86-20.95,11.72-.45Zm-6.43,1.19-3.16.12L431,55l.54,0Zm4.21,56.89L442.5,72a9.9,9.9,0,0,0-5.32-8.63q2.31,2.28,2.49,6.78l1,25.25Zm1,26.06-.32-8.29-2.76.11.39,10.24c.12,3-.54,5.32-2,6.95A9.94,9.94,0,0,0,444.4,121.31Z"/>
    <path d="M477.21,131.24l-3.43.13a15.66,15.66,0,0,1-11.3-3.68,13.1,13.1,0,0,1-4.8-9.79l-2.11-55.15-3.5.14-.1-2.5,3.51-.13-.77-20L465.23,35l.95,24.85,7.74-.3L474,62l-7.74.3,2.34,61.21q.21,5.52,5.06,5.33l3.44-.13Zm-12-4.12a11.64,11.64,0,0,1-2.09-6.8L460,40.46l-2.71,1.39,2.95,76.89A9.78,9.78,0,0,0,465.19,127.12Z"/>
    <path d="M537.74,128.92l-14.2.55L521.07,65.1c-.13-3.5-1.53-5.2-4.17-5.1a7,7,0,0,0-4.9,2.54l2.49,64.78,3.5-.13.09,2.49-17.71.67-.09-2.49,3.5-.13-3.51-91.57-3.5.13-.1-2.49,14.21-.55,1,26.8a11.81,11.81,0,0,1,7.91-2.93q11.71-.45,12.2,12.21l2.2,57.23,3.43-.13Zm-28.64-1.39L505.59,36l-2.76.11,3.51,91.57Zm19.73-.76-2.29-59.59q-.21-5.79-4.94-7.5,2,1.82,2.14,6.39l2.33,60.81Z"/>
    <path d="M572.58,114.17a13.09,13.09,0,0,1-4,10.17,15.77,15.77,0,0,1-11,4.5,16,16,0,0,1-11.34-3.65,13.06,13.06,0,0,1-4.82-9.83l-1.73-44.91a13.09,13.09,0,0,1,4.06-10.17,17.35,17.35,0,0,1,22.33-.85,13.1,13.1,0,0,1,4.79,9.83ZM549,124.65a12,12,0,0,1-2.09-6.87L545,67.62a12,12,0,0,1,1.55-7,9.9,9.9,0,0,0-4.25,8.73l1.8,46.93A9.89,9.89,0,0,0,549,124.65Zm13.06-4-2.19-57q-.21-5.52-5-5.34c-3.23.13-4.78,2-4.63,5.71l2.18,57q.21,5.52,5.06,5.34T562,120.64Zm5.24-4-1.89-49.36a9.94,9.94,0,0,0-5.32-8.63q2.31,2.28,2.48,6.78l2,53.27q.18,4.5-2,7A9.92,9.92,0,0,0,567.28,116.6Z"/>
    <path d="M609.56,56.85l-3.43.13-6.44,69.57-9.9.38L578,58.06l-3.43.13-.1-2.49L593,55l.1,2.49-3.51.14L598,113.46l4.58-56.34-3.43.13-.1-2.49,10.44-.4Zm-14.68,67.39-11.24-66.4-2.76.11,11.24,66.39Z"/>
    <path d="M647.05,111.31a13.09,13.09,0,0,1-4,10.17,15.75,15.75,0,0,1-11,4.5,16,16,0,0,1-11.34-3.64,13.06,13.06,0,0,1-4.82-9.83L614.15,67.6a13.06,13.06,0,0,1,4.07-10.17,17.35,17.35,0,0,1,22.32-.86,13.11,13.11,0,0,1,4.79,9.83l.9,23.57-20.4.78,1,27.41q.21,5.52,5.06,5.33t4.57-5.7L636,103.18l10.77-.42Zm-23.6,10.48a11.94,11.94,0,0,1-2.09-6.86l-1.92-50.17a12,12,0,0,1,1.55-7,9.9,9.9,0,0,0-4.25,8.73l1.8,46.93A9.88,9.88,0,0,0,623.45,121.79Zm11.91-33.9-1-27.13c-.14-3.69-1.8-5.46-5-5.34s-4.77,2-4.63,5.7l1,27.14Zm5.39-.21-.89-23.29a9.94,9.94,0,0,0-5.32-8.63Q636.85,58,637,62.54l1,25.25Zm1,26.06-.32-8.28-2.76.11.39,10.23q.18,4.52-1.95,7A9.9,9.9,0,0,0,641.75,113.74Z"/>
    <path d="M688.5,123.14l-14.2.55-.08-2a11.85,11.85,0,0,1-7.91,2.93q-11.71.45-12.2-12.21l-1.83-47.74q-.48-12.66,11.23-13.11a11.85,11.85,0,0,1,8.11,2.32l-.93-24.31-3.43.14-.1-2.5,14.21-.54L685,120.78l3.43-.13Zm-26-.82a9.81,9.81,0,0,1-2.9-7.17l-2.05-53.53a9.82,9.82,0,0,1,2.34-7.37q-5.32,1.62-5,9l1.94,50.44Q657.08,121.11,662.51,122.32Zm11.62-3.07-2.41-62.83a7,7,0,0,0-5.07-2.16q-4,.15-3.78,5.4l2.19,57c.13,3.5,1.53,5.2,4.17,5.1A7,7,0,0,0,674.13,119.25Zm5.46,1.74-3.51-91.57-2.76.1,3.51,91.58Z"/>
    <path d="M704.18,108.18l-6.81,22.92-5.11.19,1.27-24.93,10.57-.4Zm-5.38.21-2.77.1L694.53,129l1.07,0Z"/>
    <path d="M762,108.32q.5,12.66-11.23,13.11a11.76,11.76,0,0,1-8.11-2.32l.07,2-14.2.55-.1-2.49L732,119l-3.51-91.57-3.5.13-.09-2.49,14.2-.54,1,26.8A11.81,11.81,0,0,1,748,48.37q11.72-.45,12.2,12.21Zm-24.75,10.46-3.51-91.57-2.76.1,3.51,91.58Zm14.16-5.4-2.19-57q-.19-5.25-4.17-5.1a7,7,0,0,0-4.89,2.55l2.4,62.82a7.09,7.09,0,0,0,5.08,2.17C750.33,118.68,751.58,116.88,751.45,113.38Zm5.3-2.49-2-52.46q-.22-5.79-4.94-7.49,2,1.8,2.13,6.39L754,112.2c.12,3.06-.43,5.24-1.63,6.54Q757,116.67,756.75,110.89Z"/>
    <path d="M798.1,69.11l-10.77.41-.56-14.61c-.14-3.5-1.3-5.21-3.5-5.12q-2.16.08-4.22,2.52l2.48,64.77L785,117l.1,2.49-17.71.68-.1-2.49,3.51-.14-2.56-66.72-3.5.13-.1-2.49,14.21-.54.07,2a11.24,11.24,0,0,1,7.51-2.92q10.77-.4,11.26,12.25Zm-21.89,48.18-2.56-66.73-2.76.11,2.56,66.72Zm16.41-50.46L792.24,57q-.22-5.79-4.73-7.38,1.74,1.56,1.93,6.27l.42,11Z"/>
    <path d="M840.14,117.33l-14.21.55-.07-2a11.69,11.69,0,0,1-7.85,2.93q-11.78.47-12.27-12.2l-2.19-57.24-3.43.14-.1-2.5,14.21-.54,2.47,64.37q.19,5.25,4.24,5.1a7,7,0,0,0,4.82-2.55l-2.48-64.77-3.43.13-.1-2.49L834,45.75,836.61,115l3.43-.13Zm-26-.82a9.86,9.86,0,0,1-2.91-7.17l-2.3-60.13-2.76.1,2.24,58.58Q808.71,115.3,814.15,116.51Zm17.07-1.33-2.55-66.73-2.76.11,2.55,66.73Z"/>
    <path d="M876.14,46.63l-3.44.13,2.88,75.15a13.45,13.45,0,0,1-3.79,10.16,14.88,14.88,0,0,1-10.68,4.49,15.78,15.78,0,0,1-11-3.73,12.9,12.9,0,0,1-5-9.75l-.1-2.49,10.78-.42.33,8.55c.14,3.68,1.78,5.47,4.92,5.34,2.83-.1,4.17-2,4-5.68l-.59-15.28a11.84,11.84,0,0,1-7.91,2.93q-11.71.45-12.2-12.28l-1.78-46.32q-.48-12.66,11.23-13.11a11.77,11.77,0,0,1,8.12,2.32l-.08-2L876,44.14Zm-23.4,67.05a10,10,0,0,1-2.9-7.24l-2-52.11A9.82,9.82,0,0,1,850.19,47q-5.34,1.62-5.05,9L847,105.07Q847.31,112.41,852.74,113.68Zm-.09,18.61a11.58,11.58,0,0,1-2.08-6.79l-.1-2.63-2.76.11,0,.94A9.77,9.77,0,0,0,852.65,132.29Zm11.71-21.69L862,49.13A7.05,7.05,0,0,0,856.93,47c-2.65.1-3.91,1.91-3.77,5.41l2.13,55.68q.21,5.25,4.18,5.1A7,7,0,0,0,864.36,110.6Zm5.92,13.74-3-77.37-2.76.11,3,79.32q.18,4.44-1.82,6.94A9.88,9.88,0,0,0,870.28,124.34Z"/>
    <path d="M938,113.58l-14.2.54-.08-2a11.76,11.76,0,0,1-7.91,2.93q-11.72.45-12.2-12.2l-1.83-47.74q-.5-12.66,11.23-13.11a11.76,11.76,0,0,1,8.11,2.32l-.93-24.31-3.43.13-.1-2.49,14.21-.54,3.6,94.06,3.44-.13Zm-26-.82a9.82,9.82,0,0,1-2.9-7.18l-2.06-53.53a9.89,9.89,0,0,1,2.35-7.37q-5.34,1.62-5.05,9l1.93,50.43Q906.61,111.55,912.05,112.76Zm11.62-3.08-2.41-62.82a7.09,7.09,0,0,0-5.08-2.17c-2.65.1-3.9,1.91-3.77,5.41l2.19,57q.2,5.25,4.17,5.1A7.07,7.07,0,0,0,923.67,109.68Zm5.46,1.75-3.51-91.58-2.76.11,3.51,91.57Z"/>
    <path d="M973.22,98.81a13.13,13.13,0,0,1-4,10.17,17.35,17.35,0,0,1-22.32.86A13.05,13.05,0,0,1,942,100L940.32,55.1a13.05,13.05,0,0,1,4.06-10.17,17.32,17.32,0,0,1,22.32-.86,13.06,13.06,0,0,1,4.79,9.83l.91,23.57-20.4.78,1,27.4c.14,3.69,1.82,5.46,5.06,5.34s4.71-2,4.56-5.7l-.56-14.62,10.78-.41Zm-23.61,10.48a11.94,11.94,0,0,1-2.08-6.86L945.6,52.26a12,12,0,0,1,1.56-7A9.89,9.89,0,0,0,942.91,54l1.8,46.93A9.87,9.87,0,0,0,949.61,109.29Zm11.92-33.9-1-27.14c-.14-3.68-1.81-5.46-5-5.33s-4.78,2-4.64,5.7l1,27.14Zm5.39-.21L966,51.89a9.91,9.91,0,0,0-5.32-8.63Q963,45.53,963.19,50l1,25.25Zm1,26.06L967.6,93l-2.76.1.39,10.24q.16,4.52-2,7A9.9,9.9,0,0,0,967.91,101.24Z"/>
    <path d="M1000.73,111.18l-3.43.13a15.74,15.74,0,0,1-11.3-3.68,13.12,13.12,0,0,1-4.8-9.8l-2.11-55.14-3.5.13-.1-2.49,3.5-.14-.76-20,10.52-5.26,1,24.84,7.74-.29.1,2.49-7.75.3,2.35,61.2q.21,5.52,5.06,5.34l3.43-.13Zm-12-4.13a11.69,11.69,0,0,1-2.08-6.8L983.56,20.4l-2.71,1.38,2.95,76.9A9.77,9.77,0,0,0,988.7,107.05Z"/>
    <path d="M1016.24,53.13,1014.15,90l-4.11.16-4.84-36.57-1.51-39.18,11-.43ZM1012,87.55l-2.72-70.9-2.76.1,1.41,36.7,3.4,34.12Zm6.41,23-11,.42-.64-16.56,11-.43Zm-5.61-2-.46-12.12-2.76.1.46,12.12Z"/>
  </g>
  <g>
    <rect x="448.5" y="191.86" width="378" height="460.64" fill="#8c9eb4"/>
    <path d="M813,205.36V639H462V205.36H813m27-27H435V666H840V178.36Z" fill="#d6d84f"/>
  </g>
  <g>
    <path d="M220.12,389.52q0,8.66-7.24,14.84a26.06,26.06,0,0,1-17.5,6.19H166.61v-3.73h5.13V270h-5.13v-3.72h28.77a26.05,26.05,0,0,1,17.5,6.18q7.25,6.19,7.24,14.84v27.86q0,13.49-14.38,19.11,14.38,6,14.38,19.21ZM180,406.82V270h-4.13V406.82Zm23.64-82.58v-46a8.25,8.25,0,0,0-8.25-8.24h-7.14v62.46h7.14a8.25,8.25,0,0,0,8.25-8.25Zm0,74.34V344.46a8.26,8.26,0,0,0-8.25-8.25h-7.14v70.61h7.14a8.25,8.25,0,0,0,8.25-8.24Zm8.24-80.07v-34.4q0-8.36-7.34-13,3.22,3.72,3.22,10.06v40.14q0,6.33-3.22,10.15Q211.86,326.76,211.87,318.51Zm0,74.33V350.19q0-8.24-7.34-13,3.22,3.82,3.22,10.06v48.48q0,6.24-3.22,10.06Q211.86,401.1,211.87,392.84Z"/>
    <path d="M288.12,410.55H281q-14.49,0-14.49-15.09v-51a8.25,8.25,0,0,0-8.25-8.25H251.1v70.61h5.13v3.73H229.48v-3.73h5.13V270h-5.13v-3.72h28.76a26.08,26.08,0,0,1,17.51,6.18q7.23,6.19,7.24,14.84v27.86q0,13.49-14.39,19.11,14.38,6,14.39,19.21v47.78q0,5.54,4.72,5.53h.41Zm-45.27-3.73V270h-4.12V406.82Zm23.64-82.58v-46a8.23,8.23,0,0,0-8.25-8.24H251.1v62.46h7.14a8.23,8.23,0,0,0,8.25-8.25Zm8.25-5.73v-34.4q0-8.36-7.34-13,3.21,3.72,3.22,10.06v40.14q0,6.33-3.22,10.15Q274.74,326.76,274.74,318.51Zm4.12,89.32q-4.12-2.31-4.12-8.85V350.19q0-8.24-7.34-13,3.21,3.82,3.22,10.06v49.89Q270.62,406.42,278.86,407.83Z"/>
    <path d="M352,270h-5.13v120.5q0,8.66-7.24,14.84a27.74,27.74,0,0,1-34.91,0q-7.23-6.19-7.24-14.84V270h-5.23v-3.72H319.1V270H314V399.58a8,8,0,0,0,2.41,5.84,7.87,7.87,0,0,0,5.74,2.41,8.23,8.23,0,0,0,8.24-8.25V270h-5.13v-3.72H352ZM308.33,404.41a17.63,17.63,0,0,1-2.61-10V270H301.6V392Q301.6,399.67,308.33,404.41Zm30.28-10.56V270h-4.12V396.77c0,4.15-1.08,7.51-3.22,10.05Q338.61,402.1,338.61,393.85Z"/>
    <path d="M409.73,390.53q0,8.66-7.25,14.84a27.8,27.8,0,0,1-35,0q-7.29-6.19-7.29-14.84V286.32q0-8.64,7.29-14.83a27.76,27.76,0,0,1,35,0q7.25,6.18,7.25,14.83v23.24h-16.5V277.27a8.25,8.25,0,0,0-16.5,0V399.58a8.25,8.25,0,1,0,16.5,0V336.21H385v-3.72h24.75ZM371.2,404.41a17.11,17.11,0,0,1-2.71-10v-112a16.93,16.93,0,0,1,2.71-9.86q-6.84,4.63-6.84,12.37V392Q364.36,399.67,371.2,404.41Zm30.28-98.47V283q0-8.25-7.45-13,3.33,3.83,3.32,10.16v25.75Zm0,87.91V336.21h-4.13v60.56c0,4.15-1.1,7.51-3.32,10.05Q401.49,402.1,401.48,393.85Z"/>
    <path d="M509.61,410.55H482.75v-3.73H488V336.21H471.49v70.61h5.13v3.73H449.86v-3.73H455V270h-5.13v-3.72h26.76V270h-5.13v62.46H488V270h-5.23v-3.72h26.86V270h-5.23V406.82h5.23Zm-46.37-3.73V270h-4.13V406.82Zm33,0V270h-4.12V406.82Z"/>
    <path d="M567.24,270h-5.13V392.64a16.79,16.79,0,0,1-6.23,13.28q-6.54,5.63-16.5,5.63T523,405.92a16.77,16.77,0,0,1-6.24-13.28V367.29h16.5v33.2q0,7.33,6.13,7.34t6.24-7.34V270h-5.23v-3.72h26.85ZM527.71,404.61a13.8,13.8,0,0,1-2.71-8.85V371h-4.13v22.43Q520.87,400.59,527.71,404.61Zm26.16-9.35V270h-4.13V397.77q0,5.73-3.32,9.05Q553.86,402.8,553.87,395.26Z"/>
    <path d="M623.87,410.55h-51.5v-3.73h5.13V270h-5.13v-3.72h51.5v43.25H607.38V270H594v62.46h19.51v3.72H594v70.61h13.38V367.29h16.49Zm-38.12-3.73V270h-4.12V406.82Zm29.88-100.88V270H611.5v35.91Zm0,100.88V371H611.5v35.8Z"/>
    <path d="M682.51,410.55H632.12v-3.73h5.13V270h-5.13v-3.72h26.76V270h-5.13V406.82h12.37V367.29h16.39Zm-37-3.73V270h-4.12V406.82Zm28.87,0V371h-4.13v35.8Z"/>
    <path d="M759,410.55H732.2v-3.73h5.13V308.55l-11.56,102H712.59L699,308.55v98.27h5.13v3.73H688.75v-3.73h5.13V270h-5.13v-3.72h21.83l14.18,112.35,12.37-112.35H759V270h-5.13V406.82H759Zm-37.52-3.73L702.53,270H698l18.92,136.79Zm24.14,0V270h-4.12V406.82Z"/>
    <path d="M786.42,324.85l-5.23,54.82h-6.14l-5.13-54.82V266.31h16.5Zm0,85.7h-16.5V385.8h16.5Zm-8.25-34.61V270h-4.12v54.82l3.12,51.09Zm0,31.29V389.12h-4.12v18.11Z"/>
  </g>
  <path d="M913.6,739l7.36,5.83-384.43-5.68-.17-.15H913.6m9.4-27H466l60,54,474,7-77-61Z" fill="#d6d84f"/>
  <polygon points="1017 791 545 791 587 843 1080 843 1017 791 1017 791" fill="#d6d84f"/>
  <g>
    <rect x="346.2" y="473.35" width="18.45" height="381.65" rx="8.11" fill="#fff"/>
    <rect x="323.87" y="430" width="58.27" height="161.2" rx="11.65" fill="#fff"/>
    <ellipse cx="351.69" cy="460.98" rx="16.92" ry="16.71" transform="translate(-227.37 490.56) rotate(-55.58)" fill="#a22c29"/>
    <ellipse cx="351.69" cy="510.51" rx="16.92" ry="16.71" transform="matrix(0.57, -0.82, 0.82, 0.57, -268.23, 512.09)" fill="#efe66c"/>
    <ellipse cx="351.69" cy="510.51" rx="16.92" ry="16.71" transform="matrix(0.57, -0.82, 0.82, 0.57, -268.23, 512.09)" opacity="0.27"/>
    <ellipse cx="351.69" cy="460.98" rx="16.92" ry="16.71" transform="translate(-227.37 490.56) rotate(-55.58)" opacity="0.27"/>
    <ellipse cx="352.67" cy="560.04" rx="16.92" ry="16.71" transform="translate(-308.67 534.42) rotate(-55.58)" fill="#35a02a"/>
  </g>
  <g>
    <path d="M1056.19,653.59l-9.82-5.72c-6.43,1.5-12.91,5.46-14.4-1l-7.9-69.67-3.63-16.34-42-103.55a12,12,0,0,1,9-14.4l9.82-2.28a12,12,0,0,1,14.4,9L1047,558l10.17,81.19C1058.12,643.27,1052.5,654.45,1056.19,653.59Z"/>
    <g id="sykkel">
      <path d="M904.7,521c47.8,0,86.69,37.4,86.69,83.37s-38.89,83.36-86.69,83.36S818,650.34,818,604.37,856.89,521,904.7,521m0-18C846.87,503,800,548.38,800,604.37s46.87,101.36,104.7,101.36,104.69-45.38,104.69-101.36S962.52,503,904.7,503Z" fill="#6a3937"/>
      <circle cx="1177.5" cy="614.5" r="11.5" fill="none" stroke="#6a3937" stroke-miterlimit="10" stroke-width="3"/>
      <circle cx="904.5" cy="602.5" r="11.5" fill="none" stroke="#6a3937" stroke-miterlimit="10" stroke-width="3"/>
      <g>
        <line x1="904.5" y1="521.5" x2="904.5" y2="589.5" fill="none" stroke="#d6d84f" stroke-miterlimit="10" stroke-width="3"/>
        <line x1="931.62" y1="525.87" x2="909.57" y2="590.53" fill="none" stroke="#d6d84f" stroke-miterlimit="10"/>
        <line x1="900.62" y1="614.87" x2="878.57" y2="679.53" fill="none" stroke="#d6d84f" stroke-miterlimit="10"/>
        <line x1="892.46" y1="597.49" x2="828.73" y2="572.9" fill="none" stroke="#d6d84f" stroke-miterlimit="10"/>
        <line x1="980.46" y1="631.49" x2="916.73" y2="606.9" fill="none" stroke="#d6d84f" stroke-miterlimit="10"/>
        <line x1="940.5" y1="675.5" x2="909.52" y2="614.62" fill="none" stroke="#d6d84f" stroke-miterlimit="10"/>
        <line x1="899.08" y1="590.18" x2="870.94" y2="527.94" fill="none" stroke="#d6d84f" stroke-miterlimit="10"/>
        <line x1="976.82" y1="566.55" x2="916.67" y2="596.75" fill="none" stroke="#d6d84f" stroke-miterlimit="10"/>
        <line x1="892.52" y1="608.03" x2="830.97" y2="635.27" fill="none" stroke="#d6d84f" stroke-miterlimit="10"/>
        <line x1="957.52" y1="541.1" x2="913.48" y2="592.9" fill="none" stroke="#d6d84f" stroke-miterlimit="10" stroke-width="3"/>
        <line x1="895.52" y1="612.1" x2="851.48" y2="663.9" fill="none" stroke="#d6d84f" stroke-miterlimit="10" stroke-width="3"/>
        <line x1="894.85" y1="592.66" x2="844.15" y2="547.34" fill="none" stroke="#d6d84f" stroke-miterlimit="10" stroke-width="3"/>
        <line x1="964.85" y1="656.66" x2="914.15" y2="611.34" fill="none" stroke="#d6d84f" stroke-miterlimit="10" stroke-width="3"/>
        <line x1="986" y1="602.5" x2="918" y2="602.5" fill="none" stroke="#d6d84f" stroke-miterlimit="10" stroke-width="3"/>
        <line x1="891" y1="602.5" x2="823" y2="602.5" fill="none" stroke="#d6d84f" stroke-miterlimit="10" stroke-width="3"/>
        <line x1="904.5" y1="616" x2="904.5" y2="684" fill="none" stroke="#d6d84f" stroke-miterlimit="10" stroke-width="3"/>
      </g>
      <g>
        <line x1="1177.5" y1="533.5" x2="1177.5" y2="601.5" fill="none" stroke="#d6d84f" stroke-miterlimit="10" stroke-width="3"/>
        <line x1="1204.62" y1="537.87" x2="1182.57" y2="602.53" fill="none" stroke="#d6d84f" stroke-miterlimit="10"/>
        <line x1="1173.62" y1="626.87" x2="1151.57" y2="691.53" fill="none" stroke="#d6d84f" stroke-miterlimit="10"/>
        <line x1="1165.46" y1="609.49" x2="1101.73" y2="584.9" fill="none" stroke="#d6d84f" stroke-miterlimit="10"/>
        <line x1="1253.46" y1="643.49" x2="1189.73" y2="618.9" fill="none" stroke="#d6d84f" stroke-miterlimit="10"/>
        <line x1="1213.5" y1="687.5" x2="1182.52" y2="626.62" fill="none" stroke="#d6d84f" stroke-miterlimit="10"/>
        <line x1="1172.08" y1="602.18" x2="1143.94" y2="539.94" fill="none" stroke="#d6d84f" stroke-miterlimit="10"/>
        <line x1="1249.82" y1="578.55" x2="1189.67" y2="608.75" fill="none" stroke="#d6d84f" stroke-miterlimit="10"/>
        <line x1="1165.52" y1="620.03" x2="1103.97" y2="647.27" fill="none" stroke="#d6d84f" stroke-miterlimit="10"/>
        <line x1="1230.52" y1="553.1" x2="1186.48" y2="604.9" fill="none" stroke="#d6d84f" stroke-miterlimit="10" stroke-width="3"/>
        <line x1="1168.52" y1="624.1" x2="1124.48" y2="675.9" fill="none" stroke="#d6d84f" stroke-miterlimit="10" stroke-width="3"/>
        <line x1="1167.85" y1="604.66" x2="1117.15" y2="559.34" fill="none" stroke="#d6d84f" stroke-miterlimit="10" stroke-width="3"/>
        <line x1="1237.85" y1="668.66" x2="1187.15" y2="623.34" fill="none" stroke="#d6d84f" stroke-miterlimit="10" stroke-width="3"/>
        <line x1="1259" y1="614.5" x2="1191" y2="614.5" fill="none" stroke="#d6d84f" stroke-miterlimit="10" stroke-width="3"/>
        <line x1="1164" y1="614.5" x2="1096" y2="614.5" fill="none" stroke="#d6d84f" stroke-miterlimit="10" stroke-width="3"/>
        <line x1="1177.5" y1="628" x2="1177.5" y2="696" fill="none" stroke="#d6d84f" stroke-miterlimit="10" stroke-width="3"/>
      </g>
      <path d="M1177,528.27c46.9,0,85,38.74,85,86.36S1223.85,701,1177,701s-85-38.74-85-86.37,38.15-86.36,85-86.36m0-15c-55.26,0-100,45.38-100,101.36S1121.69,716,1177,716s100-45.38,100-101.37-44.79-101.36-100-101.36Z" fill="#6a3937"/>
      <g>
        <line x1="1142.5" y1="395.5" x2="1177" y2="608" fill="none" stroke="#a22c29" stroke-miterlimit="10" stroke-width="5"/>
        <line x1="905.5" y1="602.5" x2="1001.5" y2="490.5" fill="none" stroke="#a22c29" stroke-miterlimit="10" stroke-width="5"/>
        <line x1="1155.5" y1="484.49" x2="1001.5" y2="490.49" fill="none" stroke="#a22c29" stroke-miterlimit="10" stroke-width="5"/>
        <line x1="1054.5" y1="602.5" x2="979.5" y2="444.5" fill="none" stroke="#a22c29" stroke-miterlimit="10" stroke-width="5"/>
        <path d="M904,601.5h149.5c.37-9.61,26.14-47.13,44.5-72,19.81-26.83,48.54-36.22,57.5-39" fill="none" stroke="#a22c29" stroke-miterlimit="10" stroke-width="5"/>
      </g>
      <g>
        <path d="M1051.75,592a8.75,8.75,0,1,1-8.75,8.75,8.77,8.77,0,0,1,8.75-8.75m0-3a11.75,11.75,0,1,0,11.75,11.75A11.75,11.75,0,0,0,1051.75,589Z" fill="#d6d84f"/>
        <line x1="1047.5" y1="571.5" x2="1050" y2="591" fill="none" stroke="#d6d84f" stroke-miterlimit="10" stroke-width="2"/>
        <line x1="1053" y1="570" x2="1053" y2="591" fill="none" stroke="#d6d84f" stroke-miterlimit="10" stroke-width="2"/>
        <line x1="1053" y1="582" x2="1053" y2="583" fill="none" stroke="#d6d84f" stroke-miterlimit="10" stroke-width="2"/>
        <line x1="1054.16" y1="612.07" x2="1056.84" y2="632.93" fill="none" stroke="#d6d84f" stroke-miterlimit="10" stroke-width="2"/>
        <line x1="1050" y1="632" x2="1051" y2="611" fill="none" stroke="#d6d84f" stroke-miterlimit="10" stroke-width="2"/>
        <line x1="1043" y1="599" x2="1023.14" y2="597.33" fill="none" stroke="#d6d84f" stroke-miterlimit="10" stroke-width="2"/>
        <line x1="1023" y1="605" x2="1041" y2="603" fill="none" stroke="#d6d84f" stroke-miterlimit="10" stroke-width="2"/>
        <line x1="1062" y1="598" x2="1081" y2="597" fill="none" stroke="#d6d84f" stroke-miterlimit="10" stroke-width="2"/>
        <line x1="1063" y1="603" x2="1080" y2="603" fill="none" stroke="#d6d84f" stroke-miterlimit="10" stroke-width="2"/>
        <path d="M1051.5,571.5c14.89,0,27,13.46,27,30s-12.11,30-27,30-27-13.46-27-30,12.11-30,27-30m0-3c-16.57,0-30,14.77-30,33s13.43,33,30,33,30-14.77,30-33-13.43-33-30-33Z" fill="#d6d84f"/>
      </g>
      <line x1="1122.43" y1="368.95" x2="1175.57" y2="434.05" fill="none" stroke="#a22c29" stroke-miterlimit="10" stroke-width="5"/>
    </g>
    <g>
      <path d="M1030.5,433c0,13.53-16.13,20.5-38.5,20.5s-40.5-11-40.5-24.5,18.13-24.5,40.5-24.5c9.81,0,17.42,3.88,24,8.26C1024.42,418.36,1030.5,425.4,1030.5,433Z"/>
      <path d="M1098.45,491.61l-84.19-37c-6.12-2.48-9.1-6.51-6.63-12.63l7.49-18.54c2.48-6.12,1.51-9.1,7.62-6.63l92.19,45c6.12,2.47,14.11,10.5,11.64,16.62l-12.5,6.54A12,12,0,0,1,1098.45,491.61Z"/>
      <path d="M1051.29,581l7.12,3.71a12,12,0,0,0,16.19-5.09L1125,482.91a12,12,0,0,0-5.1-16.19l-7.12-3.71a12,12,0,0,0-16.18,5.1l-42.39,96.65C1051.14,570.62,1045.44,577.9,1051.29,581Z"/>
      <ellipse cx="1057" cy="658" rx="29" ry="10"/>
      <ellipse cx="1066" cy="597" rx="10" ry="29" transform="translate(15.98 1221.68) rotate(-60)"/>
      <path d="M969.7,428.66l21.76,7.42c6.25,2.13,15.1-1.24,17.23-7.48l10.68-70.83,35.42-70.2a12,12,0,0,0-7.49-15.23l-31.76,11.58c-12.54,4.08-17.1,7.24-19.23,13.48l-27.83,59.89-8.27,56.14C958.08,419.67,963.45,426.53,969.7,428.66Z"/>
      <ellipse cx="1079.5" cy="248.5" rx="24.5" ry="44.5"/>
      <polygon points="1089.42 366.69 1075.83 374.91 1017.77 305.58 1043.17 290.22 1089.42 366.69"/>
      <circle cx="1155" cy="413" r="9"/>
      <polygon points="1150.98 407.24 1146.03 414.54 1074.41 375.21 1083.67 361.57 1150.98 407.24"/>
    </g>
    <path d="M1048.88,251.39c-5.48-16.51,6.63-48,19.92-52.39,17.08-5.67,33.4-4.13,38.88,12.39" fill="#902923"/>
  </g>
  <g>
    <path d="M1660,711c1.69,5.26-3.69,6.63-18.94,11.52s-29,6.6-30.67,1.34,9.3-13.49,24.55-18.38S1658.31,705.74,1660,711Z"/>
    <path d="M1635.68,720.84l-9-6.58c-5.2,1.51-10.12,5.76-12.2-1.41l-15.6-77.53-4.15-24.22-58.54-118.92c-2.08-7.17,9.47-5.28,14.67-6.78l7.95-2.31c5.2-1.51,11.15,3.13,13.23,10.3l43.6,109.12,14,102.36C1631,709.42,1632.69,721.71,1635.68,720.84Z"/>
    <g id="sykkel-2" data-name="sykkel">
      <ellipse cx="1466.99" cy="676.38" rx="116.99" ry="118.61" fill="none" stroke="#3b0d11" stroke-miterlimit="10" stroke-width="11"/>
      <ellipse cx="1771.82" cy="688.24" rx="12.85" ry="13.46" fill="none" stroke="#6a3937" stroke-miterlimit="10" stroke-width="3"/>
      <ellipse cx="1466.77" cy="674.2" rx="12.85" ry="13.46" fill="none" stroke="#6a3937" stroke-miterlimit="10" stroke-width="3"/>
      <g>
        <line x1="1466.77" y1="579.42" x2="1466.77" y2="658.98" fill="none" stroke="#d6d84f" stroke-miterlimit="10" stroke-width="3"/>
        <line x1="1497.08" y1="584.53" x2="1472.44" y2="660.18" fill="none" stroke="#d6d84f" stroke-miterlimit="10"/>
        <line x1="1462.44" y1="688.67" x2="1437.8" y2="764.32" fill="none" stroke="#d6d84f" stroke-miterlimit="10"/>
        <line x1="1453.32" y1="668.34" x2="1382.11" y2="639.56" fill="none" stroke="#d6d84f" stroke-miterlimit="10"/>
        <line x1="1551.65" y1="708.12" x2="1480.44" y2="679.35" fill="none" stroke="#d6d84f" stroke-miterlimit="10"/>
        <line x1="1506.99" y1="759.61" x2="1472.38" y2="688.38" fill="none" stroke="#d6d84f" stroke-miterlimit="10"/>
        <line x1="1460.71" y1="659.78" x2="1429.27" y2="586.95" fill="none" stroke="#d6d84f" stroke-miterlimit="10"/>
        <line x1="1547.58" y1="632.13" x2="1480.37" y2="667.46" fill="none" stroke="#d6d84f" stroke-miterlimit="10"/>
        <line x1="1453.38" y1="680.66" x2="1384.61" y2="712.54" fill="none" stroke="#d6d84f" stroke-miterlimit="10"/>
        <line x1="1526.02" y1="602.35" x2="1476.8" y2="662.97" fill="none" stroke="#d6d84f" stroke-miterlimit="10" stroke-width="3"/>
        <line x1="1456.74" y1="685.43" x2="1407.52" y2="746.04" fill="none" stroke="#d6d84f" stroke-miterlimit="10" stroke-width="3"/>
        <line x1="1455.98" y1="662.68" x2="1399.33" y2="609.65" fill="none" stroke="#d6d84f" stroke-miterlimit="10" stroke-width="3"/>
        <line x1="1534.2" y1="737.57" x2="1477.55" y2="684.54" fill="none" stroke="#d6d84f" stroke-miterlimit="10" stroke-width="3"/>
        <line x1="1557.84" y1="674.2" x2="1481.85" y2="674.2" fill="none" stroke="#d6d84f" stroke-miterlimit="10" stroke-width="3"/>
        <line x1="1451.68" y1="674.2" x2="1375.7" y2="674.2" fill="none" stroke="#d6d84f" stroke-miterlimit="10" stroke-width="3"/>
        <line x1="1466.77" y1="689.99" x2="1466.77" y2="769.56" fill="none" stroke="#d6d84f" stroke-miterlimit="10" stroke-width="3"/>
      </g>
      <g>
        <line x1="1771.82" y1="593.46" x2="1771.82" y2="673.02" fill="none" stroke="#d6d84f" stroke-miterlimit="10" stroke-width="3"/>
        <line x1="1802.13" y1="598.57" x2="1777.49" y2="674.22" fill="none" stroke="#d6d84f" stroke-miterlimit="10"/>
        <line x1="1767.49" y1="702.71" x2="1742.85" y2="778.36" fill="none" stroke="#d6d84f" stroke-miterlimit="10"/>
        <line x1="1758.37" y1="682.38" x2="1687.16" y2="653.61" fill="none" stroke="#d6d84f" stroke-miterlimit="10"/>
        <line x1="1856.7" y1="722.16" x2="1785.49" y2="693.39" fill="none" stroke="#d6d84f" stroke-miterlimit="10"/>
        <line x1="1812.05" y1="773.65" x2="1777.43" y2="702.42" fill="none" stroke="#d6d84f" stroke-miterlimit="10"/>
        <line x1="1765.76" y1="673.82" x2="1734.32" y2="600.99" fill="none" stroke="#d6d84f" stroke-miterlimit="10"/>
        <line x1="1852.63" y1="646.17" x2="1785.42" y2="681.5" fill="none" stroke="#d6d84f" stroke-miterlimit="10"/>
        <line x1="1758.43" y1="694.71" x2="1689.66" y2="726.58" fill="none" stroke="#d6d84f" stroke-miterlimit="10"/>
        <line x1="1831.07" y1="616.39" x2="1781.85" y2="677.01" fill="none" stroke="#d6d84f" stroke-miterlimit="10" stroke-width="3"/>
        <line x1="1761.79" y1="699.47" x2="1712.57" y2="760.08" fill="none" stroke="#d6d84f" stroke-miterlimit="10" stroke-width="3"/>
        <line x1="1761.04" y1="676.72" x2="1704.38" y2="623.7" fill="none" stroke="#d6d84f" stroke-miterlimit="10" stroke-width="3"/>
        <line x1="1839.25" y1="751.61" x2="1782.6" y2="698.58" fill="none" stroke="#d6d84f" stroke-miterlimit="10" stroke-width="3"/>
        <line x1="1862.89" y1="688.24" x2="1786.9" y2="688.24" fill="none" stroke="#d6d84f" stroke-miterlimit="10" stroke-width="3"/>
        <line x1="1756.73" y1="688.24" x2="1680.75" y2="688.24" fill="none" stroke="#d6d84f" stroke-miterlimit="10" stroke-width="3"/>
        <line x1="1771.82" y1="704.03" x2="1771.82" y2="783.6" fill="none" stroke="#d6d84f" stroke-miterlimit="10" stroke-width="3"/>
      </g>
      <ellipse cx="1771.2" cy="688.39" rx="111.8" ry="118.61" fill="none" stroke="#3b0d11" stroke-miterlimit="10" stroke-width="9"/>
      <g>
        <line x1="1713.75" y1="421" x2="1772" y2="684" fill="none" stroke="#243e54" stroke-miterlimit="10" stroke-width="6"/>
        <line x1="1466.77" y1="674.54" x2="1575.16" y2="543.15" fill="none" stroke="#243e54" stroke-miterlimit="10" stroke-width="6"/>
        <line x1="1740.65" y1="536.12" x2="1575.16" y2="543.14" fill="none" stroke="#243e54" stroke-miterlimit="10" stroke-width="6"/>
        <line x1="1632.38" y1="673.2" x2="1550.57" y2="489.32" fill="none" stroke="#243e54" stroke-miterlimit="10" stroke-width="6"/>
        <path d="M1466.5,673.51l164.88-3.31c.42-11.25,17.68-44.13,38.2-73.23s73.36-44.63,76.45-45.63" fill="none" stroke="#243e54" stroke-miterlimit="10" stroke-width="6"/>
      </g>
      <g>
        <path d="M1631.31,661.4c5.58,0,10.13,4.82,10.13,10.75s-4.55,10.75-10.13,10.75-10.13-4.83-10.13-10.75,4.54-10.75,10.13-10.75m0-3c-7.26,0-13.13,6.15-13.13,13.75s5.87,13.75,13.13,13.75,13.13-6.16,13.13-13.75-5.88-13.75-13.13-13.75Z" fill="#d6d84f"/>
        <line x1="1626.56" y1="637.92" x2="1629.35" y2="660.74" fill="none" stroke="#d6d84f" stroke-miterlimit="10" stroke-width="2"/>
        <line x1="1632.7" y1="636.17" x2="1632.7" y2="660.74" fill="none" stroke="#d6d84f" stroke-miterlimit="10" stroke-width="2"/>
        <line x1="1632.7" y1="650.21" x2="1632.7" y2="651.38" fill="none" stroke="#d6d84f" stroke-miterlimit="10" stroke-width="2"/>
        <line x1="1634" y1="685.4" x2="1636.99" y2="709.8" fill="none" stroke="#d6d84f" stroke-miterlimit="10" stroke-width="2"/>
        <line x1="1629.35" y1="708.71" x2="1630.47" y2="684.14" fill="none" stroke="#d6d84f" stroke-miterlimit="10" stroke-width="2"/>
        <line x1="1621.53" y1="670.1" x2="1599.33" y2="668.15" fill="none" stroke="#d6d84f" stroke-miterlimit="10" stroke-width="2"/>
        <line x1="1599.18" y1="677.12" x2="1619.29" y2="674.78" fill="none" stroke="#d6d84f" stroke-miterlimit="10" stroke-width="2"/>
        <line x1="1642.76" y1="668.93" x2="1663.99" y2="667.76" fill="none" stroke="#d6d84f" stroke-miterlimit="10" stroke-width="2"/>
        <line x1="1643.88" y1="674.78" x2="1662.87" y2="674.78" fill="none" stroke="#d6d84f" stroke-miterlimit="10" stroke-width="2"/>
        <path d="M1631,637.41c16.83,0,30.52,16,30.52,35.61s-13.69,35.62-30.52,35.62-30.53-16-30.53-35.62,13.7-35.61,30.53-35.61m0-3c-18.52,0-33.53,17.29-33.53,38.61s15,38.62,33.53,38.62,33.52-17.29,33.52-38.62-15-38.61-33.52-38.61Z" fill="#d6d84f"/>
      </g>
      <line x1="1693" y1="389" x2="1745" y2="467" fill="none" stroke="#243e54" stroke-miterlimit="10" stroke-width="6"/>
    </g>
    <g>
      <path d="M1603.14,470.25c0,14-19.17,25.28-42.82,25.28s-42.82-11.32-42.82-25.28S1536.67,445,1560.32,445a60.84,60.84,0,0,1,30,8.25C1598.24,457.81,1603.14,463.19,1603.14,470.25Z"/>
      <path d="M1668.64,534.85l-89-38.19c-6.47-2.55-9.63-6.71-7-13l7.92-19.13c2.61-6.32,4.76-9.39,11.23-6.84l94.3,46.44c6.47,2.55,14.91,10.83,12.29,17.15l-13.2,6.75A12.84,12.84,0,0,1,1668.64,534.85Z"/>
      <path d="M1622.36,628.43,1630,632c6.32,2.89,9.91.22,12.88-5.94l53-101.78a12.29,12.29,0,0,0-6.09-16.47l-7.68-3.52a12.86,12.86,0,0,0-16.88,5.94l-40.55,101.44C1621.75,617.78,1616,625.53,1622.36,628.43Z"/>
      <path d="M1668.11,658.53c-2.92,4.94-17.17-.76-31.84-9s-24.18-16-21.26-20.9,17.17-2.23,31.83,6S1671,653.6,1668.11,658.53Z"/>
      <path d="M1534.62,469.9l23,7.66c6.6,2.2,19.14-1.28,21.39-7.72l6-73.07,39.57-72.42a12.36,12.36,0,0,0-7.91-15.72l-33.59,11.95c-13.25,4.21-18.08,7.46-20.33,13.91l-28.87,43.94-6.12,75.76C1525.51,460.63,1528,467.7,1534.62,469.9Z"/>
      <path d="M1670.23,278.72c1.18,25.33-12.42,51.67-21.64,46.91-12.64-6.52-31-19.2-32.22-44.53s11.57-46.47,25.86-47.1S1669.06,253.39,1670.23,278.72Z"/>
      <polygon points="1668.13 404.92 1648.81 414.19 1590.33 339.5 1626.46 322.18 1668.13 404.92"/>
      <ellipse cx="1729.48" cy="442.4" rx="9.52" ry="9.29"/>
      <polygon points="1730.01 444.47 1723.87 453.3 1647.37 413.85 1658.84 397.35 1730.01 444.47"/>
    </g>
    <path d="M1610,286c-5.48-16.51,9.51-49.59,22.8-54,17.08-5.67,33.4-4.13,38.88,12.39" fill="#a22c29"/>
  </g>
</svg>
