<?xml version="1.0" standalone="no"?>
<!DOCTYPE svg PUBLIC "-//W3C//DTD SVG 20010904//EN"
 "http://www.w3.org/TR/2001/REC-SVG-20010904/DTD/svg10.dtd">
<svg version="1.0" xmlns="http://www.w3.org/2000/svg"
 width="512.000000pt" height="512.000000pt" viewBox="0 0 512.000000 512.000000"
 preserveAspectRatio="xMidYMid meet">
<metadata>
Created by potrace 1.11, written by Peter Selinger 2001-2013
</metadata>
<g transform="translate(0.000000,512.000000) scale(0.100000,-0.100000)"
fill="#000000" stroke="none">
<path d="M183 5075 l-31 -31 0 -2489 0 -2489 26 -27 25 -27 2363 0 2362 0 25
26 c24 27 25 30 25 203 l1 176 -1005 1004 -1004 1004 0 134 0 133 1004 1004
1004 1004 0 174 c-1 170 -1 175 -25 200 -13 14 -27 27 -31 27 -4 1 -1064 2
-2357 3 l-2350 2 -32 -31z"/>
</g>
</svg>
