<svg id="Layer_1" data-name="Layer 1" xmlns="http://www.w3.org/2000/svg" width="1920" height="1080" viewBox="0 0 1920 1080"><defs><style>.cls-1{fill:#152230;}.cls-2{fill:#fff;}</style></defs><title>Artboard 5</title><rect class="cls-1" x="33" y="21" width="1833" height="988"/><path class="cls-2" d="M860.87,314.14h-30l-7.81,17h-11.4l34.7-74.52,33.46,74.52H868.22Zm-4.32-9.95-10.39-23.84-10.9,23.84Z"/><path class="cls-2" d="M898.15,254.47v37.6q6.14-6.36,13.9-6.36a19.13,19.13,0,0,1,14.89,6.68q6,6.63,5.95,16.53,0,10.21-6,16.89a19.63,19.63,0,0,1-28.74.73v4.63H887.93v-76.7Zm24.29,54.9A15.26,15.26,0,0,0,919,299a11,11,0,0,0-8.76-4.09,11.76,11.76,0,0,0-9.17,3.95,14.65,14.65,0,0,0-3.5,10.17q0,6.45,3.45,10.31a11.46,11.46,0,0,0,9.08,3.95,11.24,11.24,0,0,0,8.81-3.95A14.5,14.5,0,0,0,922.44,309.37Z"/><path class="cls-2" d="M941.61,308.74a22,22,0,0,1,6.85-16.31,24.2,24.2,0,0,1,33.52.05,23.67,23.67,0,0,1-.05,33.28A23.44,23.44,0,0,1,965,332.44a22.46,22.46,0,0,1-16.66-6.81A22.9,22.9,0,0,1,941.61,308.74Zm10.44.18q0,6.63,3.54,10.49a13.78,13.78,0,0,0,19.17,0q3.59-3.85,3.58-10.31t-3.58-10.3a13.59,13.59,0,0,0-19.08,0A14.2,14.2,0,0,0,952.05,308.92Z"/><path class="cls-2" d="M1009.81,286.94v25.38q0,11,8.68,11t8.67-11V286.94h10.22v25.61a28.41,28.41,0,0,1-1.32,9.17,15.46,15.46,0,0,1-4.4,6.22c-3.45,3-7.85,4.5-13.17,4.5s-9.68-1.5-13.13-4.5a15.61,15.61,0,0,1-4.49-6.22c-.85-2.06-1.27-5.11-1.27-9.17V286.94Z"/><path class="cls-2" d="M1060.81,296.47v34.7h-10.22v-34.7h-4.36v-9.53h4.36V270.73h10.22v16.21h8v9.53Z"/></svg>
