<svg id="Layer_1" data-name="Layer 1" xmlns="http://www.w3.org/2000/svg" xmlns:xlink="http://www.w3.org/1999/xlink" width="440" height="160" viewBox="0 0 440 160"><defs><style>.cls-1{fill:none;}.cls-2{fill:gray;stroke:#000;stroke-miterlimit:10;stroke-width:2px;}.cls-3{clip-path:url(#clip-path);}.cls-4{fill:#fff;}.cls-5{fill:#db868b;}.cls-6{fill:#72acc8;}.cls-7{fill:#f2f2f0;}</style><clipPath id="clip-path"><path class="cls-1" d="M366.82,139.31H73.18A69,69,0,0,1,4.38,70.5h0A69,69,0,0,1,73.18,1.69H366.82a69,69,0,0,1,68.8,68.81h0A69,69,0,0,1,366.82,139.31Z"/></clipPath></defs><title>americaplaybutton</title><rect class="cls-2" x="4.38" y="20.69" width="431.25" height="137.61" rx="68.81"/><g class="cls-3"><rect class="cls-4" x="-0.58" y="-71.52" width="456.05" height="260.07"/><rect class="cls-5" x="-0.5" y="16.88" width="456.05" height="22.29"/><rect class="cls-5" x="-0.5" y="62.39" width="456.05" height="22.29"/><rect class="cls-5" x="-0.5" y="105.12" width="456.05" height="22.29"/><rect class="cls-5" x="-0.5" y="147.85" width="456.05" height="22.29"/><rect class="cls-6" x="-0.5" y="-72.29" width="208.06" height="144.9"/><polygon class="cls-7" points="27.35 30.91 19.2 30.39 14.15 36.81 12.12 28.9 4.45 26.09 11.35 21.71 11.66 13.55 17.95 18.76 25.81 16.53 22.8 24.12 27.35 30.91"/><polygon class="cls-7" points="70.08 30.91 61.92 30.39 56.88 36.81 54.85 28.9 47.18 26.09 54.08 21.71 54.38 13.55 60.68 18.76 68.54 16.53 65.53 24.12 70.08 30.91"/><polygon class="cls-7" points="111.87 30.91 103.72 30.39 98.67 36.81 96.64 28.9 88.97 26.09 95.87 21.71 96.18 13.55 102.47 18.76 110.33 16.53 107.32 24.12 111.87 30.91"/><polygon class="cls-7" points="153.67 30.91 145.52 30.39 140.47 36.81 138.44 28.9 130.77 26.09 137.67 21.71 137.98 13.55 144.27 18.76 152.13 16.53 149.12 24.12 153.67 30.91"/><polygon class="cls-7" points="194.54 29.05 186.38 28.53 181.34 34.96 179.31 27.04 171.64 24.23 178.54 19.85 178.85 11.69 185.14 16.9 193 14.67 189.99 22.26 194.54 29.05"/><polygon class="cls-7" points="27.35 64.34 19.2 63.83 14.15 70.25 12.12 62.34 4.45 59.52 11.35 55.15 11.66 46.98 17.95 52.19 25.81 49.96 22.8 57.56 27.35 64.34"/><polygon class="cls-7" points="67.29 64.34 59.14 63.83 54.09 70.25 52.06 62.34 44.39 59.52 51.29 55.15 51.6 46.98 57.89 52.19 65.75 49.96 62.74 57.56 67.29 64.34"/><polygon class="cls-7" points="110.02 62.49 101.86 61.97 96.81 68.39 94.79 60.48 87.12 57.67 94.02 53.29 94.32 45.13 100.62 50.34 108.47 48.11 105.47 55.7 110.02 62.49"/><polygon class="cls-7" points="149.96 60.63 141.8 60.11 136.75 66.54 134.72 58.62 127.06 55.81 133.96 51.43 134.26 43.27 140.56 48.48 148.41 46.25 145.41 53.84 149.96 60.63"/><polygon class="cls-7" points="194.54 60.63 186.38 60.11 181.34 66.54 179.31 58.62 171.64 55.81 178.54 51.43 178.85 43.27 185.14 48.48 193 46.25 189.99 53.84 194.54 60.63"/></g><path d="M168.38,98.63H135.82V95.4h3.74V47.87h-3.74V44.64h29.92q8.76,0,10.76.6c1.33.4,2.62.82,3.87,1.27a8,8,0,0,1,2.93,1.75,30.35,30.35,0,0,1,2.3,2.63,10.46,10.46,0,0,1,1.82,3.62,36.83,36.83,0,0,1,1,4.8,39.87,39.87,0,0,1,.43,6.16,40.73,40.73,0,0,1-.43,6.21,33.51,33.51,0,0,1-1.06,4.89,11,11,0,0,1-1.87,3.65,30.68,30.68,0,0,1-2.29,2.64,7.85,7.85,0,0,1-2.94,1.74c-1.25.46-2.31.81-3.19,1.07a18.9,18.9,0,0,1-3.69.55c-2.39.17-5,.25-7.91.25h-7.65V95.4h10.54Zm2.21-18.28V50.59H157.84V80.35Z"/><path d="M194.4,36.65H214V95.4h3.4v3.23H194.4V95.4h3.4V39.88h-3.4Z"/><path d="M229,66.41l-2-13.27a74.92,74.92,0,0,1,19.3-2.55q11,0,15.9,3.32a10,10,0,0,1,3.4,3.7,11.6,11.6,0,0,1,1.36,5.74V95.4h3.4v3.23H259.86l-3.4-6.46h-1.1q-1.71,4.93-4.17,6.33a13.86,13.86,0,0,1-6.84,1.41q-4.38,0-5.91-.09c-1,0-2.41-.2-4.17-.42a10.31,10.31,0,0,1-4.08-1.24,18.4,18.4,0,0,1-3.06-2.42q-3-2.8-3-9.86,0-8.85,5.53-11.73a19.27,19.27,0,0,1,5.57-1.83,43.83,43.83,0,0,1,6.93-.47h8.58V57h-9.69l-2.29,9.44Zm21.76,25.76V78.23H239.12V92.17Z"/><path d="M306.62,51.87H322L313.09,96q-2,9.51-7.7,14.37a20.93,20.93,0,0,1-14,4.84,45,45,0,0,1-8.93-.68l1.7-13.35h10.37v-4.5a2.37,2.37,0,0,0-.42-1.53,2.72,2.72,0,0,0-2.13-.68h-7.23L279.16,55.1h-3.31V51.87h20.49l4.08,42.6h6.2Z"/><path d="M363.7,2.69A69,69,0,0,1,432.5,71.5h0a69,69,0,0,1-68.8,68.81H75.62A69,69,0,0,1,6.81,71.5h0A69,69,0,0,1,75.62,2.69H363.7m0-2H75.62a70.72,70.72,0,0,0-50,120.82,70.31,70.31,0,0,0,50,20.8H363.7a70.72,70.72,0,0,0,50-120.82,70.3,70.3,0,0,0-50-20.8Z"/></svg>
