<svg xmlns="http://www.w3.org/2000/svg" width="524.25" height="122.5" viewBox="0 0 524.25 122.5"><defs><style>.cls-1{fill:#2a303b;}.cls-2{fill:#fd9128;}.cls-3{fill:#fff;}.cls-4{opacity:0.9;}.cls-5{fill:#f2902c;}</style></defs><title>back_button</title><g id="Settings"><rect class="cls-1" width="524.25" height="122.5" rx="20" ry="20"/><rect class="cls-2" x="58.69" y="87.45" width="157.48" height="3.96" rx="1.98" ry="1.98"/><path class="cls-3" d="M124.17,40.6V67.24h-6.24V40.6h-7.2V35.22h20.64V40.6Z"/><path class="cls-3" d="M137.37,34.17a3.51,3.51,0,1,1-3.51,3.5A3.52,3.52,0,0,1,137.37,34.17Zm2.92,12.29V67.24h-5.85V46.46Z"/><path class="cls-3" d="M151.72,32.25v35h-5.86v-35Z"/><path class="cls-3" d="M163.14,49.15a8.08,8.08,0,0,1,6.77-3.37c6.14,0,10.22,4.76,10.22,11s-4.22,11.08-10.36,11.08a7.86,7.86,0,0,1-6.63-3.36v2.69h-5.86v-35h5.86Zm-.57,7.68A5.76,5.76,0,1,0,168.33,51,5.69,5.69,0,0,0,162.57,56.83Z"/><path class="cls-3" d="M200.58,46.46h5.86V67.24h-5.86V64.55a7.43,7.43,0,0,1-6.38,3.36c-6.39,0-10.61-5-10.61-11.08s4.17-11,10.32-11a7.53,7.53,0,0,1,6.67,3.37ZM189.64,56.83A5.76,5.76,0,1,0,195.4,51,5.69,5.69,0,0,0,189.64,56.83Z"/><path class="cls-3" d="M227.85,46.46h5.85V66.28c0,3.17-.29,6.48-2.88,9.07-1.44,1.45-3.93,2.93-8.21,2.93-4,0-6.43-1.2-7.77-2.4a11.46,11.46,0,0,1-3.36-6.19h6.33a5,5,0,0,0,1.44,2.5,5.19,5.19,0,0,0,3.55,1.1,4.9,4.9,0,0,0,3.56-1.3c1.34-1.29,1.49-2.92,1.49-4.6V64.46a7.3,7.3,0,0,1-6.39,3.45,9.84,9.84,0,0,1-7.2-2.83A11.38,11.38,0,0,1,211,56.83a11.59,11.59,0,0,1,3.21-8.26,10.18,10.18,0,0,1,7.16-2.79,7.33,7.33,0,0,1,6.53,3.37Zm-9,5.95A5.7,5.7,0,0,0,217,56.83a5.81,5.81,0,0,0,1.53,4.08,5.72,5.72,0,0,0,4.23,1.82,5.91,5.91,0,0,0,3.89-1.44,6.11,6.11,0,0,0,1.87-4.46,5.94,5.94,0,0,0-1.68-4.18A5.33,5.33,0,0,0,222.76,51,5.63,5.63,0,0,0,218.87,52.41Z"/><path class="cls-3" d="M259.67,61.43c-.63,1.54-3,6.48-10.23,6.48a10.88,10.88,0,0,1-8-2.92,10.47,10.47,0,0,1-3.27-8.12,11.08,11.08,0,0,1,3.17-8.16,10.65,10.65,0,0,1,7.82-2.93c4.23,0,6.68,1.69,8.12,3.41a12.41,12.41,0,0,1,2.49,8.16v.48H244.26a6.16,6.16,0,0,0,1,3.51,5,5,0,0,0,4.17,2,5.36,5.36,0,0,0,4.85-2.74Zm-5.38-7.34a5,5,0,0,0-9.84,0Z"/><g id="Back" class="cls-4"><path class="cls-5" d="M96.47,44.54c-1.43-.4-20.79.39-20.79.39-.05-4.51-.16-8.24-.32-9.45-.46-3.51-1.85-3.57-3-2.89S61.22,45,59.63,48.39a6,6,0,0,0,0,5.78C60.81,56.89,70.56,68.65,72.34,70s2.56.34,3-2.89c.17-1.13.27-4.89.32-9.47,0,0,19.87.8,21.2,0,.83-.49,1-1.18,1.22-2.37a65.2,65.2,0,0,0,0-7.93C98,45.33,97.29,44.76,96.47,44.54Z"/></g></g></svg>
