<svg xmlns="http://www.w3.org/2000/svg" width="473.69" height="191.3" viewBox="0 0 473.69 191.3"><defs><style>.cls-1{fill:#f2902c;}.cls-2{fill:#fff;}</style></defs><title>bubble_10</title><g id="Tekster"><path class="cls-1" d="M0,172.21c0,9.57,4,15.85,12.05,18.87,1.58,0,3.17.1,4.74.1H437.24c.22,0,.44,0,.68,0,7,.19,14,.12,20.95,0,.27,0,.53,0,.79,0,8.08-.58,13.94-8.48,13.93-18.81,0-50.49-.19-101,.1-151.48C473.76,8,466.42,0,457,0Q236.14.32,15.26.15C6.18.15,0,7.88,0,19.32Q0,95.76,0,172.21Z"/><path class="cls-2" d="M67.62,55.18V71.37c0,2.13-.15,5.48-2.81,7.28a7.37,7.37,0,0,1-3.92,1.08,7.91,7.91,0,0,1-5.51-2.24l2.84-3.42a2.78,2.78,0,0,0,2.34,1.3,2.06,2.06,0,0,0,1.84-.83c.57-.83.54-2.41.54-3.89V55.18Z"/><path class="cls-2" d="M87.74,74.83c-.47,1.15-2.23,4.86-7.67,4.86a8.13,8.13,0,0,1-6-2.2,7.84,7.84,0,0,1-2.45-6.08A8.29,8.29,0,0,1,74,65.29a8,8,0,0,1,5.86-2.19A7.48,7.48,0,0,1,86,65.65a9.35,9.35,0,0,1,1.87,6.12v.36H76.19a4.64,4.64,0,0,0,.75,2.63,3.71,3.71,0,0,0,3.13,1.47,4,4,0,0,0,3.64-2Zm-4-5.51a3.74,3.74,0,0,0-7.38,0Z"/><path class="cls-2" d="M103.11,63.6h4.39V78.47c0,2.37-.21,4.86-2.15,6.8a8.3,8.3,0,0,1-6.16,2.19c-3,0-4.82-.9-5.83-1.8A8.55,8.55,0,0,1,90.84,81h4.75a3.76,3.76,0,0,0,1.08,1.87,3.88,3.88,0,0,0,2.66.83,3.73,3.73,0,0,0,2.67-1,4.39,4.39,0,0,0,1.11-3.46V77.1a5.46,5.46,0,0,1-4.78,2.59,7.4,7.4,0,0,1-5.4-2.12,9,9,0,0,1-.07-12.39,7.6,7.6,0,0,1,5.36-2.08,5.47,5.47,0,0,1,4.89,2.52Zm-6.73,4.46A4.43,4.43,0,0,0,99.3,75.8a4.36,4.36,0,0,0,2.91-1.08,4.61,4.61,0,0,0,1.41-3.35,4.46,4.46,0,0,0-1.26-3.13A4,4,0,0,0,99.3,67,4.24,4.24,0,0,0,96.38,68.06Z"/><path class="cls-2" d="M120.07,52.94h4.39V65.62a5.72,5.72,0,0,1,4.83-2.52,6,6,0,0,1,4.6,1.9,6.58,6.58,0,0,1,1.23,4.39v9.8h-4.4v-8.5a4.48,4.48,0,0,0-.82-3.06,2.82,2.82,0,0,0-2.06-.79,3,3,0,0,0-2.69,1.37,5.33,5.33,0,0,0-.69,3v8h-4.39Z"/><path class="cls-2" d="M151.24,63.6h4.4V79.19h-4.4v-2a5.58,5.58,0,0,1-4.78,2.52c-4.79,0-8-3.74-8-8.32s3.13-8.27,7.74-8.27a5.62,5.62,0,0,1,5,2.52ZM143,71.37A4.32,4.32,0,1,0,147.36,67,4.27,4.27,0,0,0,143,71.37Z"/><path class="cls-2" d="M159.81,63.6h4.4v2.34a5.2,5.2,0,0,1,1.94-2.16,4.79,4.79,0,0,1,2.59-.68,5.35,5.35,0,0,1,1.87.36l-.57,4.1A3.31,3.31,0,0,0,168,67a3.58,3.58,0,0,0-2.91,1.26,5.36,5.36,0,0,0-.86,3.46v7.49h-4.4Z"/><path class="cls-2" d="M189.66,67.31a3.68,3.68,0,0,0-2.56-1c-1,0-1.69.51-1.69,1.26,0,.4.18,1,1.4,1.41l1.05.32c1.22.4,3.06,1,3.95,2.23a4.53,4.53,0,0,1,.8,2.59,5.17,5.17,0,0,1-1.73,4,6.51,6.51,0,0,1-4.68,1.66,7.89,7.89,0,0,1-6-2.59l2.31-2.67a4.82,4.82,0,0,0,3.45,1.8c1.23,0,2.16-.61,2.16-1.69A1.73,1.73,0,0,0,186.7,73l-1-.36a8.42,8.42,0,0,1-3.35-1.87,4.2,4.2,0,0,1-1.19-3,4.64,4.64,0,0,1,1.62-3.53,6.44,6.44,0,0,1,4.07-1.11,7.76,7.76,0,0,1,5,1.65Z"/><path class="cls-2" d="M200.1,52.94V79.19h-4.4V52.94Z"/><path class="cls-2" d="M219.57,74.83c-.47,1.15-2.23,4.86-7.67,4.86a8.12,8.12,0,0,1-6-2.2,7.84,7.84,0,0,1-2.45-6.08,8.29,8.29,0,0,1,2.38-6.12,8,8,0,0,1,5.86-2.19,7.48,7.48,0,0,1,6.09,2.55,9.35,9.35,0,0,1,1.87,6.12v.36H208a4.64,4.64,0,0,0,.76,2.63,3.71,3.71,0,0,0,3.13,1.47,4,4,0,0,0,3.64-2Zm-4-5.51a3.74,3.74,0,0,0-7.38,0Z"/><path class="cls-2" d="M227.46,67.34V79.19h-4.4V67.34h-1.72V63.6h1.72V58.27h4.4V63.6h3v3.74Z"/><path class="cls-2" d="M243.37,54.38A2.63,2.63,0,1,1,240.74,57,2.64,2.64,0,0,1,243.37,54.38Zm2.19,9.22V79.19h-4.39V63.6Z"/><path class="cls-2" d="M254.13,52.94V69.29L260,63.6h5.69l-7.31,6.84,7.88,8.75h-5.83l-5.79-6.66-.47.43v6.23h-4.39V52.94Z"/><path class="cls-2" d="M272.56,52.94V69.29l5.83-5.69h5.69l-7.31,6.84,7.89,8.75h-5.84L273,72.53l-.47.43v6.23h-4.39V52.94Z"/><path class="cls-2" d="M301.5,74.83c-.46,1.15-2.23,4.86-7.66,4.86a8.16,8.16,0,0,1-6-2.2,7.84,7.84,0,0,1-2.45-6.08,8.29,8.29,0,0,1,2.38-6.12,8,8,0,0,1,5.87-2.19,7.47,7.47,0,0,1,6.08,2.55,9.3,9.3,0,0,1,1.87,6.12v.36H290a4.57,4.57,0,0,0,.76,2.63,3.69,3.69,0,0,0,3.13,1.47,4,4,0,0,0,3.63-2Zm-4-5.51a3.74,3.74,0,0,0-7.38,0Z"/><path class="cls-2" d="M317.78,52.94V79.19h-4.39V52.94Z"/><path class="cls-2" d="M327.35,76.85,319.94,63.6h5.11l4.82,8.85,4.32-8.85h5L326.6,87.43h-5Z"/><path class="cls-2" d="M349.46,67.31a3.68,3.68,0,0,0-2.56-1c-1,0-1.69.51-1.69,1.26,0,.4.18,1,1.4,1.41l1.05.32c1.22.4,3.06,1,4,2.23a4.6,4.6,0,0,1,.79,2.59,5.17,5.17,0,0,1-1.73,4A6.51,6.51,0,0,1,346,79.69,7.91,7.91,0,0,1,340,77.1l2.31-2.67a4.82,4.82,0,0,0,3.45,1.8c1.23,0,2.16-.61,2.16-1.69A1.73,1.73,0,0,0,346.5,73l-1-.36a8.49,8.49,0,0,1-3.35-1.87,4.2,4.2,0,0,1-1.19-3,4.64,4.64,0,0,1,1.62-3.53,6.45,6.45,0,0,1,4.07-1.11,7.78,7.78,0,0,1,5,1.65Z"/><path class="cls-2" d="M359.9,67.34V79.19h-4.39V67.34h-1.73V63.6h1.73V58.27h4.39V63.6h3v3.74Z"/><path class="cls-2" d="M378,67.34V79.19h-4.39V67.34h-1.72V63.6h1.72V58.27H378V63.6h3v3.74Z"/><path class="cls-2" d="M385.53,54.38A2.63,2.63,0,1,1,382.9,57,2.65,2.65,0,0,1,385.53,54.38Zm2.19,9.22V79.19h-4.39V63.6Z"/><path class="cls-2" d="M396.29,52.94V79.19H391.9V52.94Z"/><path class="cls-2" d="M70.35,106.8h4.4v15.58h-4.4v-2a5.58,5.58,0,0,1-4.78,2.52c-4.79,0-8-3.74-8-8.32s3.13-8.27,7.74-8.27a5.63,5.63,0,0,1,5,2.51Zm-8.2,7.77a4.32,4.32,0,1,0,4.32-4.39A4.27,4.27,0,0,0,62.15,114.57Z"/><path class="cls-2" d="M83.31,110.54v11.84H78.92V110.54H77.2V106.8h1.72v-5.33h4.39v5.33h3v3.74Z"/><path class="cls-2" d="M101.42,110.54v11.84H97V110.54H95.3V106.8H97v-5.33h4.39v5.33h3v3.74Z"/><path class="cls-2" d="M118.7,106.8h4.39v15.58H118.7v-2a5.58,5.58,0,0,1-4.79,2.52c-4.78,0-8-3.74-8-8.32s3.13-8.27,7.74-8.27a5.65,5.65,0,0,1,5,2.51Zm-8.21,7.77a4.32,4.32,0,1,0,4.32-4.39A4.27,4.27,0,0,0,110.49,114.57Z"/><path class="cls-2" d="M139.15,106.8h4.39v14.87c0,2.37-.22,4.85-2.16,6.8a8.28,8.28,0,0,1-6.16,2.19c-3,0-4.82-.9-5.83-1.8a8.65,8.65,0,0,1-2.52-4.64h4.75a3.7,3.7,0,0,0,1.09,1.87,3.88,3.88,0,0,0,2.66.83,3.68,3.68,0,0,0,2.66-1,4.39,4.39,0,0,0,1.12-3.46V120.3a5.47,5.47,0,0,1-4.79,2.59,7.4,7.4,0,0,1-5.4-2.12,8.6,8.6,0,0,1-2.48-6.2,8.7,8.7,0,0,1,2.41-6.19,7.64,7.64,0,0,1,5.36-2.08,5.49,5.49,0,0,1,4.9,2.51Zm-6.73,4.46a4.43,4.43,0,0,0,2.91,7.74,4.4,4.4,0,0,0,2.92-1.08,4.6,4.6,0,0,0,1.4-3.35,4.46,4.46,0,0,0-1.26-3.13,4,4,0,0,0-3.06-1.26A4.23,4.23,0,0,0,132.42,111.26Z"/><path class="cls-2" d="M163,118c-.47,1.15-2.24,4.86-7.67,4.86a8.16,8.16,0,0,1-6-2.2,7.86,7.86,0,0,1-2.44-6.08,8.33,8.33,0,0,1,2.37-6.12,8,8,0,0,1,5.87-2.19,7.42,7.42,0,0,1,6.08,2.55,9.3,9.3,0,0,1,1.87,6.12v.36H151.46a4.57,4.57,0,0,0,.76,2.63,3.69,3.69,0,0,0,3.13,1.47,4,4,0,0,0,3.63-2.05Zm-4-5.51a3.73,3.73,0,0,0-7.37,0Z"/><path class="cls-2" d="M177.09,97.58a2.63,2.63,0,1,1-2.62,2.63A2.65,2.65,0,0,1,177.09,97.58Zm2.2,9.22v15.58H174.9V106.8Z"/><path class="cls-2" d="M200.35,110.51a3.64,3.64,0,0,0-2.56-1.05c-1,0-1.69.51-1.69,1.26,0,.4.18,1,1.4,1.41l1.05.32c1.22.4,3.06,1,4,2.23a4.6,4.6,0,0,1,.79,2.59,5.17,5.17,0,0,1-1.73,4,6.55,6.55,0,0,1-4.68,1.66,7.91,7.91,0,0,1-6-2.59l2.31-2.67a4.82,4.82,0,0,0,3.45,1.8c1.23,0,2.16-.61,2.16-1.69a1.73,1.73,0,0,0-1.36-1.58l-1-.36a8.49,8.49,0,0,1-3.35-1.87,4.2,4.2,0,0,1-1.19-3,4.64,4.64,0,0,1,1.62-3.53,6.45,6.45,0,0,1,4.07-1.11,7.78,7.78,0,0,1,5,1.65Z"/><path class="cls-2" d="M210.79,96.14v16.35l5.83-5.69h5.69L215,113.64l7.88,8.74h-5.83l-5.79-6.65-.47.43v6.22H206.4V96.14Z"/><path class="cls-2" d="M238.51,108.49a8.41,8.41,0,0,1,0,12.2,10.12,10.12,0,0,1-12.6,0,8.39,8.39,0,0,1,0-12.2,10.16,10.16,0,0,1,12.6,0Zm-1.91,6.12a4.39,4.39,0,1,0-4.39,4.39A4.35,4.35,0,0,0,236.6,114.61Z"/><path class="cls-2" d="M248.91,96.14v26.24h-4.39V96.14Z"/><path class="cls-2" d="M268.39,118c-.47,1.15-2.24,4.86-7.67,4.86a8.16,8.16,0,0,1-6-2.2,7.86,7.86,0,0,1-2.44-6.08,8.33,8.33,0,0,1,2.37-6.12,8,8,0,0,1,5.87-2.19,7.42,7.42,0,0,1,6.08,2.55,9.3,9.3,0,0,1,1.87,6.12v.36H256.83a4.57,4.57,0,0,0,.76,2.63,3.69,3.69,0,0,0,3.13,1.47,4,4,0,0,0,3.63-2.05Zm-4-5.51a3.73,3.73,0,0,0-7.37,0Z"/><path class="cls-2" d="M282.46,97.58a2.63,2.63,0,1,1-2.62,2.63A2.65,2.65,0,0,1,282.46,97.58Zm2.2,9.22v15.58h-4.39V106.8Z"/><path class="cls-2" d="M309.17,96.14h4.39v26.24h-4.39v-2a5.58,5.58,0,0,1-4.78,2.52c-4.79,0-8-3.74-8-8.32s3.13-8.27,7.74-8.27a5.63,5.63,0,0,1,5,2.51ZM301,114.57a4.32,4.32,0,1,0,4.32-4.39A4.27,4.27,0,0,0,301,114.57Z"/><path class="cls-2" d="M329.69,106.8h4.39v15.58h-4.39v-2a5.58,5.58,0,0,1-4.78,2.52c-4.79,0-8-3.74-8-8.32s3.13-8.27,7.74-8.27a5.63,5.63,0,0,1,5,2.51Zm-8.2,7.77a4.32,4.32,0,1,0,4.31-4.39A4.26,4.26,0,0,0,321.49,114.57Z"/><path class="cls-2" d="M350.14,106.8h4.39v14.87c0,2.37-.21,4.85-2.16,6.8a8.28,8.28,0,0,1-6.15,2.19c-3,0-4.83-.9-5.83-1.8a8.59,8.59,0,0,1-2.52-4.64h4.75a3.69,3.69,0,0,0,1.08,1.87,3.88,3.88,0,0,0,2.66.83,3.68,3.68,0,0,0,2.66-1,4.39,4.39,0,0,0,1.12-3.46V120.3a5.47,5.47,0,0,1-4.79,2.59,7.4,7.4,0,0,1-5.4-2.12,8.6,8.6,0,0,1-2.48-6.2,8.7,8.7,0,0,1,2.41-6.19,7.65,7.65,0,0,1,5.37-2.08,5.49,5.49,0,0,1,4.89,2.51Zm-6.73,4.46a4.43,4.43,0,0,0,2.91,7.74,4.4,4.4,0,0,0,2.92-1.08,4.6,4.6,0,0,0,1.4-3.35,4.42,4.42,0,0,0-1.26-3.13,4,4,0,0,0-3.06-1.26A4.23,4.23,0,0,0,343.41,111.26Z"/><path class="cls-2" d="M362.67,117.24a2.81,2.81,0,1,1-2.81,2.81A2.77,2.77,0,0,1,362.67,117.24Z"/></g></svg>
