<svg xmlns="http://www.w3.org/2000/svg" width="473.69" height="191.3" viewBox="0 0 473.69 191.3"><defs><style>.cls-1{fill:#f2902c;}.cls-2{fill:#fff;}</style></defs><title>bubble_9</title><g id="Oversigt"><g id="bobler-højre_copy" data-name="bobler-højre copy"><path class="cls-1" d="M0,172.21c0,9.57,4,15.85,12.05,18.87,1.58,0,3.17.1,4.74.1H437.24c.22,0,.44,0,.68,0,7,.19,14,.12,20.95,0,.27,0,.53,0,.79,0,8.08-.58,13.94-8.48,13.93-18.81,0-50.49-.19-101,.1-151.48C473.76,8,466.42,0,457,0Q236.14.32,15.26.15C6.18.15,0,7.88,0,19.32Q0,95.76,0,172.21Z"/></g></g><g id="Tekster"><path class="cls-2" d="M76.77,59.24v16.2c0,2.12-.14,5.47-2.8,7.27A7.43,7.43,0,0,1,70,83.79a7.91,7.91,0,0,1-5.51-2.24l2.85-3.41a2.78,2.78,0,0,0,2.34,1.29,2,2,0,0,0,1.83-.83c.58-.82.54-2.41.54-3.88V59.24Z"/><path class="cls-2" d="M96.9,78.89c-.47,1.15-2.23,4.86-7.67,4.86a8.16,8.16,0,0,1-6-2.2,7.86,7.86,0,0,1-2.44-6.08,8.34,8.34,0,0,1,2.37-6.12,8,8,0,0,1,5.87-2.19,7.45,7.45,0,0,1,6.08,2.55A9.31,9.31,0,0,1,97,75.83v.36H85.34a4.55,4.55,0,0,0,.76,2.63,3.71,3.71,0,0,0,3.13,1.48,4,4,0,0,0,3.63-2.06Zm-4-5.51a3.73,3.73,0,0,0-7.37,0Z"/><path class="cls-2" d="M112.27,67.66h4.39V82.53c0,2.37-.22,4.86-2.16,6.8a8.28,8.28,0,0,1-6.16,2.2c-3,0-4.82-.9-5.83-1.8A8.68,8.68,0,0,1,100,85.08h4.76A3.62,3.62,0,0,0,105.83,87a3.83,3.83,0,0,0,2.66.83,3.68,3.68,0,0,0,2.66-1,4.39,4.39,0,0,0,1.12-3.46V81.16a5.47,5.47,0,0,1-4.79,2.59,7.4,7.4,0,0,1-5.4-2.12,8.59,8.59,0,0,1-2.48-6.19,8.7,8.7,0,0,1,2.41-6.2,7.64,7.64,0,0,1,5.36-2.08,5.48,5.48,0,0,1,4.9,2.52Zm-6.73,4.46a4.3,4.3,0,0,0-1.41,3.32,4.35,4.35,0,0,0,1.16,3.06,4.27,4.27,0,0,0,3.16,1.36,4.4,4.4,0,0,0,2.92-1.08,4.56,4.56,0,0,0,1.4-3.34,4.47,4.47,0,0,0-1.26-3.14A4,4,0,0,0,108.45,71,4.23,4.23,0,0,0,105.54,72.12Z"/><path class="cls-2" d="M133.69,71.4V83.25H129.3V71.4h-1.66V67.66h1.66V63.77a6.7,6.7,0,0,1,1.15-4.6c1.15-1.55,3.24-2.6,6.23-2.6,2,0,4.86.44,6.3,2.6a7.43,7.43,0,0,1,1.08,4.6v1h-4.4v-.94a3.89,3.89,0,0,0-.46-2.16,3.23,3.23,0,0,0-5,0,4.21,4.21,0,0,0-.5,2.16v3.78h4V71.4Zm10.37-3.74V83.25h-4.4V67.66Z"/><path class="cls-2" d="M152.62,57V73.35l5.84-5.69h5.68l-7.3,6.84,7.88,8.75h-5.83l-5.8-6.66-.47.43v6.23h-4.39V57Z"/><path class="cls-2" d="M179.51,71.4V83.25h-4.39V71.4h-1.65V67.66h1.65V63.38c0-1.44.11-3.89,2.06-5.51a5.83,5.83,0,0,1,3.85-1.3,5.66,5.66,0,0,1,2.52.54v4a3.06,3.06,0,0,0-2-.65,1.77,1.77,0,0,0-1.59.79,5.19,5.19,0,0,0-.47,2.7v3.71h4V71.4Z"/><path class="cls-2" d="M200,69.35a8.39,8.39,0,0,1,0,12.2,10.12,10.12,0,0,1-12.6,0,8.39,8.39,0,0,1,0-12.2,10.16,10.16,0,0,1,12.6,0Zm-1.91,6.12a4.39,4.39,0,1,0-4.39,4.39A4.35,4.35,0,0,0,198.09,75.47Z"/><path class="cls-2" d="M206,67.66h4.39V70a5.27,5.27,0,0,1,1.95-2.16,4.76,4.76,0,0,1,2.59-.68,5.4,5.4,0,0,1,1.87.36l-.58,4.1a3.26,3.26,0,0,0-2-.58,3.57,3.57,0,0,0-2.91,1.26,5.37,5.37,0,0,0-.87,3.46v7.49H206Z"/><path class="cls-2" d="M219,67.66h4.39V70a5.27,5.27,0,0,1,1.95-2.16,4.76,4.76,0,0,1,2.59-.68,5.45,5.45,0,0,1,1.87.36l-.58,4.1a3.26,3.26,0,0,0-2.05-.58,3.57,3.57,0,0,0-2.91,1.26,5.37,5.37,0,0,0-.87,3.46v7.49H219Z"/><path class="cls-2" d="M246.47,78.89c-.47,1.15-2.23,4.86-7.67,4.86a8.13,8.13,0,0,1-6-2.2,7.84,7.84,0,0,1-2.45-6.08,8.31,8.31,0,0,1,2.38-6.12,8,8,0,0,1,5.86-2.19,7.48,7.48,0,0,1,6.09,2.55,9.35,9.35,0,0,1,1.87,6.12v.36H234.92a4.61,4.61,0,0,0,.75,2.63,3.71,3.71,0,0,0,3.13,1.48,4,4,0,0,0,3.64-2.06Zm-4-5.51a3.74,3.74,0,0,0-7.38,0Z"/><path class="cls-2" d="M258.46,71.37a3.66,3.66,0,0,0-2.55-1.05c-1,0-1.7.51-1.7,1.26,0,.4.18,1,1.41,1.41l1,.32c1.22.4,3.06,1,4,2.23a4.53,4.53,0,0,1,.79,2.6,5.17,5.17,0,0,1-1.73,4A6.5,6.5,0,0,1,255,83.75a7.87,7.87,0,0,1-6-2.59l2.3-2.66a4.85,4.85,0,0,0,3.46,1.8c1.22,0,2.16-.62,2.16-1.7A1.74,1.74,0,0,0,255.51,77l-1-.36a8.49,8.49,0,0,1-3.35-1.87,4.19,4.19,0,0,1-1.18-3,4.61,4.61,0,0,1,1.62-3.53,6.41,6.41,0,0,1,4.06-1.11,7.78,7.78,0,0,1,5,1.65Z"/><path class="cls-2" d="M268.9,71.4V83.25h-4.39V71.4h-1.73V67.66h1.73V62.33h4.39v5.33h3V71.4Z"/><path class="cls-2" d="M289.53,78.89c-.47,1.15-2.23,4.86-7.67,4.86a8.16,8.16,0,0,1-6-2.2,7.86,7.86,0,0,1-2.44-6.08,8.34,8.34,0,0,1,2.37-6.12,8,8,0,0,1,5.87-2.19,7.45,7.45,0,0,1,6.08,2.55,9.31,9.31,0,0,1,1.88,6.12v.36H278a4.55,4.55,0,0,0,.76,2.63,3.71,3.71,0,0,0,3.13,1.48,4,4,0,0,0,3.64-2.06Zm-4-5.51a3.74,3.74,0,0,0-7.38,0Z"/><path class="cls-2" d="M293,67.66h4.39v2a5.72,5.72,0,0,1,4.83-2.52,6,6,0,0,1,4.6,1.9,6.59,6.59,0,0,1,1.23,4.4v9.79h-4.4v-8.5a4.48,4.48,0,0,0-.82-3.06,2.82,2.82,0,0,0-2.05-.79,3,3,0,0,0-2.7,1.37,5.35,5.35,0,0,0-.69,3v8H293Z"/><path class="cls-2" d="M326.75,63.27H323.3v-4h8.13v24h-4.68Z"/><path class="cls-2" d="M337.41,71.22c0-8.24,4.5-12.52,9.28-12.52S356,63,356,71.26s-4.5,12.53-9.29,12.53S337.41,79.5,337.41,71.22Zm4.68,0c0,6.27,2.55,8.54,4.6,8.54s4.61-2.27,4.61-8.54-2.59-8.49-4.61-8.49S342.09,65,342.09,71.22Z"/><path class="cls-2" d="M371.86,71.4V83.25h-4.39V71.4h-1.66V67.66h1.66V63.38c0-1.44.11-3.89,2-5.51a5.83,5.83,0,0,1,3.85-1.3,5.66,5.66,0,0,1,2.52.54v4a3,3,0,0,0-2-.65,1.75,1.75,0,0,0-1.58.79,5.19,5.19,0,0,0-.47,2.7v3.71h4V71.4Z"/><path class="cls-2" d="M392.34,69.35a8.39,8.39,0,0,1,0,12.2,10.12,10.12,0,0,1-12.6,0,8.39,8.39,0,0,1,0-12.2,10.16,10.16,0,0,1,12.6,0Zm-1.91,6.12A4.39,4.39,0,1,0,386,79.86,4.35,4.35,0,0,0,390.43,75.47Z"/><path class="cls-2" d="M398.35,67.66h4.4V70a5.27,5.27,0,0,1,1.94-2.16,4.79,4.79,0,0,1,2.59-.68,5.35,5.35,0,0,1,1.87.36l-.57,4.1a3.3,3.3,0,0,0-2.05-.58,3.59,3.59,0,0,0-2.92,1.26,5.36,5.36,0,0,0-.86,3.46v7.49h-4.4Z"/><path class="cls-2" d="M67.56,110.86H72v1.76a5.74,5.74,0,0,1,4.64-2.26,5.14,5.14,0,0,1,4.93,2.84,5.76,5.76,0,0,1,5-2.84,5,5,0,0,1,4.21,1.9c1,1.34,1.08,2.67,1.08,4.4v9.79H87.43V118a4.79,4.79,0,0,0-.72-3.06,2.21,2.21,0,0,0-1.8-.79,2.56,2.56,0,0,0-2.41,1.37,5.87,5.87,0,0,0-.62,3v8H77.49V118a4.72,4.72,0,0,0-.72-3.06,2.19,2.19,0,0,0-1.8-.79,2.58,2.58,0,0,0-2.41,1.37,6,6,0,0,0-.61,3v8H67.56Z"/><path class="cls-2" d="M98.19,101.65a2.63,2.63,0,1,1-2.62,2.62A2.64,2.64,0,0,1,98.19,101.65Zm2.2,9.21v15.59H96V110.86Z"/><path class="cls-2" d="M104.57,110.86H109v2a5.69,5.69,0,0,1,4.82-2.52,6,6,0,0,1,4.61,1.9,6.58,6.58,0,0,1,1.22,4.4v9.79h-4.39V118a4.49,4.49,0,0,0-.83-3.06,2.8,2.8,0,0,0-2-.79,3,3,0,0,0-2.7,1.37,5.33,5.33,0,0,0-.68,3v8h-4.39Z"/><path class="cls-2" d="M144.13,100.21h4.39v26.24h-4.39v-2a5.6,5.6,0,0,1-4.79,2.52c-4.79,0-8-3.74-8-8.31s3.14-8.28,7.74-8.28a5.64,5.64,0,0,1,5,2.52Zm-8.21,18.43a4.32,4.32,0,1,0,4.32-4.4A4.26,4.26,0,0,0,135.92,118.64Z"/><path class="cls-2" d="M154.89,101.65a2.63,2.63,0,1,1-2.63,2.62A2.64,2.64,0,0,1,154.89,101.65Zm2.2,9.21v15.59H152.7V110.86Z"/><path class="cls-2" d="M165.66,100.21v16.34l5.83-5.69h5.68l-7.3,6.84,7.88,8.75h-5.83l-5.8-6.66-.46.43v6.23h-4.4V100.21Z"/><path class="cls-2" d="M184.09,114.6v11.85h-4.4V114.6H178v-3.74h1.72v-5.33h4.4v5.33h3v3.74Z"/><path class="cls-2" d="M201.36,110.86h4.4v15.59h-4.4v-2a5.58,5.58,0,0,1-4.78,2.52c-4.79,0-8-3.74-8-8.31s3.14-8.28,7.74-8.28a5.62,5.62,0,0,1,5,2.52Zm-8.2,7.78a4.32,4.32,0,1,0,4.32-4.4A4.26,4.26,0,0,0,193.16,118.64Z"/><path class="cls-2" d="M214.33,114.6v11.85h-4.4V114.6h-1.72v-3.74h1.72v-5.33h4.4v5.33h3v3.74Z"/><path class="cls-2" d="M230.24,101.65a2.63,2.63,0,1,1-2.63,2.62A2.63,2.63,0,0,1,230.24,101.65Zm2.19,9.21v15.59H228V110.86Z"/><path class="cls-2" d="M249.46,114.6v11.85h-4.39V114.6h-1.66v-3.74h1.66v-4.28c0-1.44.11-3.89,2.05-5.51a5.85,5.85,0,0,1,3.85-1.3,5.63,5.63,0,0,1,2.52.54v4a3,3,0,0,0-2-.65,1.73,1.73,0,0,0-1.58.79,5.19,5.19,0,0,0-.47,2.7v3.71h4v3.74Z"/><path class="cls-2" d="M255.51,110.86h4.39v2.34a5.27,5.27,0,0,1,1.94-2.16,4.81,4.81,0,0,1,2.59-.68,5.46,5.46,0,0,1,1.88.36l-.58,4.1a3.26,3.26,0,0,0-2.05-.58,3.6,3.6,0,0,0-2.92,1.26,5.42,5.42,0,0,0-.86,3.46v7.49h-4.39Z"/><path class="cls-2" d="M283,122.09c-.47,1.15-2.23,4.86-7.67,4.86a8.13,8.13,0,0,1-6-2.2,7.82,7.82,0,0,1-2.45-6.08,8.31,8.31,0,0,1,2.38-6.12,8,8,0,0,1,5.86-2.19,7.48,7.48,0,0,1,6.09,2.55,9.35,9.35,0,0,1,1.87,6.12v.36H271.46a4.61,4.61,0,0,0,.75,2.63,3.71,3.71,0,0,0,3.13,1.47,4,4,0,0,0,3.64-2Zm-4-5.51a3.74,3.74,0,0,0-7.38,0Z"/><path class="cls-2" d="M298.45,100.21h4.4v26.24h-4.4v-2a5.58,5.58,0,0,1-4.78,2.52c-4.79,0-8-3.74-8-8.31s3.13-8.28,7.74-8.28a5.62,5.62,0,0,1,5,2.52Zm-8.2,18.43a4.32,4.32,0,1,0,4.32-4.4A4.26,4.26,0,0,0,290.25,118.64Z"/><path class="cls-2" d="M319,110.86h4.4v15.59H319v-2a5.58,5.58,0,0,1-4.78,2.52c-4.79,0-8-3.74-8-8.31s3.13-8.28,7.74-8.28a5.62,5.62,0,0,1,5,2.52Zm-8.2,7.78a4.32,4.32,0,1,0,4.32-4.4A4.26,4.26,0,0,0,310.77,118.64Z"/><path class="cls-2" d="M339.42,110.86h4.39v14.87c0,2.37-.21,4.86-2.16,6.8a8.28,8.28,0,0,1-6.15,2.19c-3,0-4.83-.89-5.83-1.79a8.62,8.62,0,0,1-2.52-4.65h4.75a3.76,3.76,0,0,0,1.08,1.87,3.83,3.83,0,0,0,2.66.83,3.73,3.73,0,0,0,2.67-1,4.42,4.42,0,0,0,1.11-3.46v-2.19a5.47,5.47,0,0,1-4.79,2.59,7.39,7.39,0,0,1-5.39-2.12,8.53,8.53,0,0,1-2.49-6.19,8.7,8.7,0,0,1,2.41-6.2,7.65,7.65,0,0,1,5.37-2.08,5.47,5.47,0,0,1,4.89,2.52Zm-6.73,4.46a4.63,4.63,0,0,0-.25,6.37,4.25,4.25,0,0,0,3.17,1.37,4.36,4.36,0,0,0,2.91-1.08,4.59,4.59,0,0,0,1.4-3.34,4.46,4.46,0,0,0-1.25-3.14,4,4,0,0,0-3.06-1.26A4.24,4.24,0,0,0,332.69,115.32Z"/><path class="cls-2" d="M356.49,114.57a3.68,3.68,0,0,0-2.56-1c-1,0-1.69.51-1.69,1.26,0,.4.18,1,1.4,1.41l1.05.32c1.22.4,3.06,1,4,2.23a4.61,4.61,0,0,1,.79,2.6,5.17,5.17,0,0,1-1.73,4A6.51,6.51,0,0,1,353,127a7.91,7.91,0,0,1-6-2.59l2.31-2.67a4.82,4.82,0,0,0,3.45,1.8c1.23,0,2.16-.61,2.16-1.69a1.73,1.73,0,0,0-1.37-1.58l-1-.36a8.49,8.49,0,0,1-3.35-1.87,4.2,4.2,0,0,1-1.19-3,4.64,4.64,0,0,1,1.62-3.53,6.45,6.45,0,0,1,4.07-1.11,7.78,7.78,0,0,1,5,1.65Z"/><path class="cls-2" d="M365,121.3a2.81,2.81,0,1,1-2.81,2.81A2.76,2.76,0,0,1,365,121.3Z"/></g></svg>
