<svg xmlns="http://www.w3.org/2000/svg" width="473.69" height="191.3" viewBox="0 0 473.69 191.3"><defs><style>.cls-1{fill:#f2902c;}.cls-2{fill:#fff;}</style></defs><title>bubble_11</title><g id="Tekster"><path class="cls-1" d="M0,172.21c0,9.57,4,15.85,12.05,18.87,1.58,0,3.17.1,4.74.1H437.24c.22,0,.44,0,.68,0,7,.19,14,.12,20.95,0,.27,0,.53,0,.79,0,8.08-.58,13.94-8.48,13.93-18.81,0-50.49-.19-101,.1-151.48C473.76,8,466.42,0,457,0Q236.14.32,15.26.15C6.18.15,0,7.88,0,19.32Q0,95.76,0,172.21Z"/><path class="cls-2" d="M62.29,35.88h3.38l6.38,15.27,6.66-15.27h3.38l4,24H81.37L79.21,45.1,72.77,59.89H71.18L65,45.1,62.58,59.89H57.83Z"/><path class="cls-2" d="M101.67,44.31h4.4V59.89h-4.4v-2a5.58,5.58,0,0,1-4.78,2.52c-4.79,0-8-3.75-8-8.32s3.13-8.28,7.74-8.28a5.64,5.64,0,0,1,5,2.52Zm-8.2,7.77a4.32,4.32,0,1,0,4.32-4.39A4.27,4.27,0,0,0,93.47,52.08Z"/><path class="cls-2" d="M114.63,33.65V59.89h-4.39V33.65Z"/><path class="cls-2" d="M123.2,48.05V59.89h-4.39V48.05h-1.73V44.31h1.73V39h4.39v5.33h3v3.74Z"/><path class="cls-2" d="M128.53,33.65h4.39V46.32a5.74,5.74,0,0,1,4.83-2.52,6,6,0,0,1,4.6,1.91,6.57,6.57,0,0,1,1.23,4.39v9.79h-4.4V51.4a4.46,4.46,0,0,0-.82-3.06,2.82,2.82,0,0,0-2.06-.79,3,3,0,0,0-2.69,1.36,5.38,5.38,0,0,0-.69,3v8h-4.39Z"/><path class="cls-2" d="M162.66,55.54c-.47,1.15-2.24,4.86-7.67,4.86a8.16,8.16,0,0,1-6-2.2,7.86,7.86,0,0,1-2.44-6.08A8.31,8.31,0,0,1,148.94,46a8,8,0,0,1,5.87-2.2,7.43,7.43,0,0,1,6.08,2.56,9.3,9.3,0,0,1,1.87,6.12v.36H151.1a4.59,4.59,0,0,0,.76,2.63A3.73,3.73,0,0,0,155,56.94a4,4,0,0,0,3.63-2Zm-4-5.51a3.73,3.73,0,0,0-7.37,0Z"/><path class="cls-2" d="M174.54,33.65h4.39V46.32a5.72,5.72,0,0,1,4.82-2.52,6,6,0,0,1,4.61,1.91,6.56,6.56,0,0,1,1.22,4.39v9.79h-4.39V51.4a4.42,4.42,0,0,0-.83-3.06,2.79,2.79,0,0,0-2.05-.79,3,3,0,0,0-2.7,1.36,5.45,5.45,0,0,0-.68,3v8h-4.39Z"/><path class="cls-2" d="M205.71,44.31h4.39V59.89h-4.39v-2a5.58,5.58,0,0,1-4.79,2.52c-4.78,0-7.95-3.75-7.95-8.32s3.13-8.28,7.74-8.28a5.64,5.64,0,0,1,5,2.52Zm-8.21,7.77a4.32,4.32,0,1,0,4.32-4.39A4.27,4.27,0,0,0,197.5,52.08Z"/><path class="cls-2" d="M214.28,44.31h4.39v2.34a5.27,5.27,0,0,1,2-2.16,4.76,4.76,0,0,1,2.59-.69,5.4,5.4,0,0,1,1.87.36l-.58,4.11a3.26,3.26,0,0,0-2.05-.58A3.57,3.57,0,0,0,219.54,49a5.35,5.35,0,0,0-.87,3.46v7.48h-4.39Z"/><path class="cls-2" d="M247.58,33.65H252V59.89h-4.39v-2a5.59,5.59,0,0,1-4.79,2.52c-4.79,0-7.95-3.75-7.95-8.32s3.13-8.28,7.74-8.28a5.66,5.66,0,0,1,5,2.52Zm-8.21,18.43a4.32,4.32,0,1,0,4.32-4.39A4.27,4.27,0,0,0,239.37,52.08Z"/><path class="cls-2" d="M271.45,55.54c-.47,1.15-2.24,4.86-7.67,4.86a8.16,8.16,0,0,1-6-2.2,7.86,7.86,0,0,1-2.44-6.08A8.31,8.31,0,0,1,257.73,46a8,8,0,0,1,5.87-2.2,7.43,7.43,0,0,1,6.08,2.56,9.3,9.3,0,0,1,1.87,6.12v.36H259.89a4.59,4.59,0,0,0,.76,2.63,3.72,3.72,0,0,0,3.13,1.47,4,4,0,0,0,3.63-2Zm-4-5.51A3.73,3.73,0,0,0,260,50Z"/><path class="cls-2" d="M279.33,33.65V59.89h-4.39V33.65Z"/><path class="cls-2" d="M287.9,48.05V59.89h-4.39V48.05h-1.73V44.31h1.73V39h4.39v5.33h3v3.74Z"/><path class="cls-2" d="M306,46.32a6,6,0,0,1,5.07-2.52c4.61,0,7.67,3.57,7.67,8.28S315.58,60.4,311,60.4a5.88,5.88,0,0,1-5-2.52v2h-4.4V33.65H306Zm-.44,5.76a4.32,4.32,0,1,0,4.32-4.39A4.27,4.27,0,0,0,305.57,52.08Z"/><path class="cls-2" d="M324.33,35.09a2.63,2.63,0,1,1-2.63,2.63A2.65,2.65,0,0,1,324.33,35.09Zm2.2,9.22V59.89h-4.4V44.31Z"/><path class="cls-2" d="M335.09,33.65V59.89H330.7V33.65Z"/><path class="cls-2" d="M343.66,33.65V59.89h-4.39V33.65Z"/><path class="cls-2" d="M363.13,55.54c-.46,1.15-2.23,4.86-7.66,4.86a8.16,8.16,0,0,1-6-2.2A7.84,7.84,0,0,1,347,52.12,8.27,8.27,0,0,1,349.42,46a8,8,0,0,1,5.87-2.2,7.44,7.44,0,0,1,6.08,2.56,9.3,9.3,0,0,1,1.87,6.12v.36H351.58a4.66,4.66,0,0,0,.75,2.63,3.75,3.75,0,0,0,3.14,1.47,4,4,0,0,0,3.63-2Zm-4-5.51a3.74,3.74,0,0,0-7.38,0Z"/><path class="cls-2" d="M378.58,33.65H383V59.89h-4.39v-2a5.59,5.59,0,0,1-4.79,2.52c-4.79,0-8-3.75-8-8.32s3.13-8.28,7.74-8.28a5.66,5.66,0,0,1,5,2.52Zm-8.21,18.43a4.32,4.32,0,1,0,4.32-4.39A4.27,4.27,0,0,0,370.37,52.08Z"/><path class="cls-2" d="M402.45,55.54c-.47,1.15-2.24,4.86-7.67,4.86a8.16,8.16,0,0,1-6-2.2,7.86,7.86,0,0,1-2.44-6.08A8.31,8.31,0,0,1,388.73,46a8,8,0,0,1,5.87-2.2,7.43,7.43,0,0,1,6.08,2.56,9.3,9.3,0,0,1,1.87,6.12v.36H390.89a4.59,4.59,0,0,0,.76,2.63,3.72,3.72,0,0,0,3.13,1.47,4,4,0,0,0,3.63-2Zm-4-5.51A3.73,3.73,0,0,0,391,50Z"/><path class="cls-2" d="M405.94,44.31h4.39v2.34a5.27,5.27,0,0,1,1.94-2.16,4.82,4.82,0,0,1,2.6-.69,5.45,5.45,0,0,1,1.87.36l-.58,4.11a3.26,3.26,0,0,0-2.05-.58A3.6,3.6,0,0,0,411.19,49a5.41,5.41,0,0,0-.86,3.46v7.48h-4.39Z"/><path class="cls-2" d="M70.35,87.51h4.4v15.58h-4.4v-2a5.6,5.6,0,0,1-4.78,2.52c-4.79,0-8-3.75-8-8.32S60.74,87,65.35,87a5.64,5.64,0,0,1,5,2.52Zm-8.2,7.77a4.32,4.32,0,1,0,4.32-4.39A4.27,4.27,0,0,0,62.15,95.28Z"/><path class="cls-2" d="M83.39,91.25v11.84H79V91.25H77.34V87.51H79V83.22c0-1.44.1-3.88,2-5.5a5.78,5.78,0,0,1,3.85-1.3,5.66,5.66,0,0,1,2.52.54v4a3,3,0,0,0-2-.65,1.74,1.74,0,0,0-1.59.79,5.16,5.16,0,0,0-.46,2.7v3.71h4v3.74Z"/><path class="cls-2" d="M110.28,84.56a4.69,4.69,0,0,0-3.93-2.06c-2.52,0-3.31,1.59-3.31,2.81a2,2,0,0,0,.76,1.62,8.14,8.14,0,0,0,2.88,1.37,14,14,0,0,1,4.86,2.41,6.52,6.52,0,0,1,2,5c0,4.68-3.39,7.88-8.35,7.88A9.89,9.89,0,0,1,97,99.1L100,96.18a5.64,5.64,0,0,0,5,3.21c2.12,0,3.7-1.3,3.7-3.32a2.79,2.79,0,0,0-.93-2.16,10.93,10.93,0,0,0-3.71-1.76,11.47,11.47,0,0,1-4-2.09,5.54,5.54,0,0,1-1.91-4.46c0-3.53,2.37-7.06,7.7-7.06a9.22,9.22,0,0,1,6.8,2.81Z"/><path class="cls-2" d="M129,87.51h4.39v15.58H129v-2a5.62,5.62,0,0,1-4.79,2.52c-4.79,0-8-3.75-8-8.32S119.39,87,124,87a5.67,5.67,0,0,1,5,2.52Zm-8.21,7.77a4.32,4.32,0,1,0,4.32-4.39A4.27,4.27,0,0,0,120.79,95.28Z"/><path class="cls-2" d="M142,89.52A6,6,0,0,1,147,87c4.61,0,7.67,3.57,7.67,8.28s-3.17,8.32-7.78,8.32a5.89,5.89,0,0,1-5-2.52v2h-4.39V76.85H142Zm-.44,5.76a4.32,4.32,0,1,0,4.32-4.39A4.27,4.27,0,0,0,141.52,95.28Z"/><path class="cls-2" d="M158.08,87.51h4.4v2.34a5.2,5.2,0,0,1,1.94-2.16A4.7,4.7,0,0,1,167,87a5.35,5.35,0,0,1,1.87.36l-.57,4.11a3.28,3.28,0,0,0-2.05-.58,3.59,3.59,0,0,0-2.92,1.26,5.35,5.35,0,0,0-.86,3.46v7.48h-4.4Z"/><path class="cls-2" d="M173.24,78.29a2.63,2.63,0,1,1-2.63,2.63A2.65,2.65,0,0,1,173.24,78.29Zm2.2,9.22v15.58H171V87.51Z"/><path class="cls-2" d="M179.61,87.51H184v2A5.74,5.74,0,0,1,188.83,87a6,6,0,0,1,4.6,1.91,6.57,6.57,0,0,1,1.23,4.39v9.79h-4.39V94.6a4.47,4.47,0,0,0-.83-3.06,2.82,2.82,0,0,0-2.05-.79,3,3,0,0,0-2.7,1.36,5.38,5.38,0,0,0-.69,3v8h-4.39Z"/><path class="cls-2" d="M210.79,87.51h4.39v15.58h-4.39v-2A5.63,5.63,0,0,1,206,103.6c-4.79,0-8-3.75-8-8.32S201.17,87,205.78,87a5.67,5.67,0,0,1,5,2.52Zm-8.21,7.77a4.32,4.32,0,1,0,4.32-4.39A4.27,4.27,0,0,0,202.58,95.28Z"/><path class="cls-2" d="M236.24,91.21a3.66,3.66,0,0,0-2.56-1c-1,0-1.69.5-1.69,1.26,0,.4.18,1,1.4,1.4l1.05.33c1.22.39,3.06,1,4,2.23a4.57,4.57,0,0,1,.79,2.59,5.17,5.17,0,0,1-1.73,4,6.55,6.55,0,0,1-4.68,1.66,7.88,7.88,0,0,1-6.05-2.6L229,98.34a4.82,4.82,0,0,0,3.45,1.8c1.23,0,2.16-.61,2.16-1.69a1.73,1.73,0,0,0-1.36-1.58l-1-.37a8.25,8.25,0,0,1-3.35-1.87,4.15,4.15,0,0,1-1.19-3,4.61,4.61,0,0,1,1.62-3.53A6.46,6.46,0,0,1,233.43,87a7.8,7.8,0,0,1,5,1.66Z"/><path class="cls-2" d="M256.72,89.2a8.39,8.39,0,0,1,0,12.2,10.12,10.12,0,0,1-12.6,0,8.39,8.39,0,0,1,0-12.2,10.12,10.12,0,0,1,12.6,0Zm-1.91,6.12a4.39,4.39,0,1,0-4.39,4.39A4.35,4.35,0,0,0,254.81,95.32Z"/><path class="cls-2" d="M262.73,87.51h4.39v1.76A5.74,5.74,0,0,1,271.77,87a5.15,5.15,0,0,1,4.93,2.85,5.73,5.73,0,0,1,5-2.85,5,5,0,0,1,4.21,1.91c1,1.33,1.08,2.66,1.08,4.39v9.79H282.6V94.6a4.68,4.68,0,0,0-.72-3.06,2.2,2.2,0,0,0-1.8-.79,2.59,2.59,0,0,0-2.41,1.36,6,6,0,0,0-.61,3v8h-4.39V94.6a4.74,4.74,0,0,0-.72-3.06,2.21,2.21,0,0,0-1.8-.79,2.57,2.57,0,0,0-2.41,1.36,5.92,5.92,0,0,0-.62,3v8h-4.39Z"/><path class="cls-2" d="M299.56,76.85H304V89.52A5.74,5.74,0,0,1,308.78,87a6,6,0,0,1,4.6,1.91,6.57,6.57,0,0,1,1.23,4.39v9.79h-4.4V94.6a4.46,4.46,0,0,0-.82-3.06,2.82,2.82,0,0,0-2.06-.79,3,3,0,0,0-2.69,1.36,5.38,5.38,0,0,0-.69,3v8h-4.39Z"/><path class="cls-2" d="M344.38,98.74a7.93,7.93,0,0,1-7.67,4.86,6.75,6.75,0,0,1-6-2.95,7.53,7.53,0,0,1-6.26,2.95c-4.32,0-6.41-2.42-6.41-5a4.65,4.65,0,0,1,1.59-3.6,7.28,7.28,0,0,1,5-1.62,7.93,7.93,0,0,1,4,1.08l0-.76a2.9,2.9,0,0,0-1.33-2.55,5.55,5.55,0,0,0-2.92-.65,15.57,15.57,0,0,0-4,.61V87.58a18.12,18.12,0,0,1,4.32-.58c1.87,0,4.39.18,5.94,2.63A7,7,0,0,1,336.57,87a7.46,7.46,0,0,1,6,2.56,9.3,9.3,0,0,1,1.87,6.12V96H332.82a4.14,4.14,0,0,0,.76,2.62,3.65,3.65,0,0,0,3.13,1.48,4,4,0,0,0,3.64-2ZM325.3,100.5c2.45,0,3.31-1.33,3.31-2.19s-.72-1.88-3.35-1.88c-2.34,0-3,1.12-3,1.95S323,100.5,325.3,100.5Zm15.05-7.27a3.74,3.74,0,0,0-7.38,0Z"/><path class="cls-2" d="M350.39,87.51l4.11,8.78,4.1-8.78h4.89l-7.84,15.58h-2.31L345.5,87.51Z"/><path class="cls-2" d="M365.66,87.51h4.39v2A5.71,5.71,0,0,1,374.87,87a6,6,0,0,1,4.61,1.91,6.56,6.56,0,0,1,1.22,4.39v9.79h-4.39V94.6a4.47,4.47,0,0,0-.83-3.06,2.8,2.8,0,0,0-2.05-.79,3,3,0,0,0-2.7,1.36,5.36,5.36,0,0,0-.68,3v8h-4.39Z"/><path class="cls-2" d="M386.75,98.13l4,.46-5.07,9.54-2.77-.32Z"/><path class="cls-2" d="M62.87,134.45v11.84H58.48V134.45H56.82v-3.74h1.66v-4.29c0-1.44.1-3.88,2.05-5.5a5.78,5.78,0,0,1,3.85-1.3,5.66,5.66,0,0,1,2.52.54v4a3,3,0,0,0-2-.65,1.74,1.74,0,0,0-1.59.79,5.18,5.18,0,0,0-.46,2.7v3.71h4v3.74Z"/><path class="cls-2" d="M83.35,132.4a8.39,8.39,0,0,1,0,12.2,8.94,8.94,0,0,1-6.3,2.2,8.94,8.94,0,0,1-6.3-2.2,8.39,8.39,0,0,1,0-12.2,8.94,8.94,0,0,1,6.3-2.2A8.94,8.94,0,0,1,83.35,132.4Zm-1.91,6.12a4.39,4.39,0,1,0-4.39,4.39A4.35,4.35,0,0,0,81.44,138.52Z"/><path class="cls-2" d="M89.36,130.71h4.39v2.34a5.2,5.2,0,0,1,2-2.16,4.7,4.7,0,0,1,2.59-.69,5.4,5.4,0,0,1,1.87.36l-.58,4.11a3.26,3.26,0,0,0-2-.58,3.58,3.58,0,0,0-2.91,1.26,5.35,5.35,0,0,0-.87,3.46v7.48H89.36Z"/><path class="cls-2" d="M113.88,120.05h4.39v26.24h-4.39v-2a5.63,5.63,0,0,1-4.79,2.52c-4.79,0-8-3.75-8-8.32s3.14-8.28,7.74-8.28a5.67,5.67,0,0,1,5,2.52Zm-8.21,18.43a4.32,4.32,0,1,0,4.32-4.39A4.27,4.27,0,0,0,105.67,138.48Z"/><path class="cls-2" d="M124.64,121.49a2.63,2.63,0,1,1-2.63,2.63A2.65,2.65,0,0,1,124.64,121.49Zm2.2,9.22v15.58h-4.39V130.71Z"/><path class="cls-2" d="M139.4,120.05h4.39v12.67a5.74,5.74,0,0,1,4.83-2.52,6,6,0,0,1,4.6,1.91,6.57,6.57,0,0,1,1.23,4.39v9.79h-4.4V137.8a4.46,4.46,0,0,0-.82-3.06,2.82,2.82,0,0,0-2.06-.79,3,3,0,0,0-2.69,1.36,5.38,5.38,0,0,0-.69,3v7.95H139.4Z"/><path class="cls-2" d="M162.62,130.71v8.82a3.48,3.48,0,0,0,.94,2.73,3.2,3.2,0,0,0,5.4-2.73v-8.82h4.39v9.54a5.87,5.87,0,0,1-1.91,4.78,9.9,9.9,0,0,1-11.3,0,5.87,5.87,0,0,1-1.91-4.78v-9.54Z"/><path class="cls-2" d="M177.52,130.71h4.4v2a5.71,5.71,0,0,1,4.82-2.52,6,6,0,0,1,4.61,1.91,6.56,6.56,0,0,1,1.22,4.39v9.79h-4.39V137.8a4.47,4.47,0,0,0-.83-3.06,2.8,2.8,0,0,0-2-.79,3,3,0,0,0-2.7,1.36,5.36,5.36,0,0,0-.68,3v7.95h-4.4Z"/><path class="cls-2" d="M213.63,134.41a3.64,3.64,0,0,0-2.55-1c-1.05,0-1.7.5-1.7,1.26,0,.4.18,1,1.41,1.4l1,.33c1.22.39,3.06,1,4,2.23a4.5,4.5,0,0,1,.79,2.59,5.19,5.19,0,0,1-1.73,4,6.55,6.55,0,0,1-4.68,1.66,7.85,7.85,0,0,1-6-2.6l2.3-2.66a4.82,4.82,0,0,0,3.46,1.8c1.22,0,2.16-.61,2.16-1.69a1.74,1.74,0,0,0-1.37-1.58l-1-.36a8.39,8.39,0,0,1-3.35-1.88,4.15,4.15,0,0,1-1.18-3,4.63,4.63,0,0,1,1.62-3.53,6.42,6.42,0,0,1,4.06-1.12,7.8,7.8,0,0,1,5,1.66Z"/><path class="cls-2" d="M224.07,120.05v26.24h-4.39V120.05Z"/><path class="cls-2" d="M242.68,132.4a8.39,8.39,0,0,1,0,12.2,10.12,10.12,0,0,1-12.6,0,8.41,8.41,0,0,1,0-12.2,10.12,10.12,0,0,1,12.6,0Zm-1.91,6.12a4.39,4.39,0,1,0-4.39,4.39A4.35,4.35,0,0,0,240.77,138.52Z"/><path class="cls-2" d="M260.57,130.71H265v14.86c0,2.38-.21,4.86-2.16,6.81a8.28,8.28,0,0,1-6.15,2.19c-3,0-4.82-.9-5.83-1.8a8.59,8.59,0,0,1-2.52-4.64h4.75a3.76,3.76,0,0,0,1.08,1.87,3.88,3.88,0,0,0,2.66.83,3.73,3.73,0,0,0,2.67-1,4.44,4.44,0,0,0,1.11-3.46v-2.2a5.45,5.45,0,0,1-4.78,2.6,7.36,7.36,0,0,1-5.4-2.13,8.51,8.51,0,0,1-2.49-6.19,8.68,8.68,0,0,1,2.41-6.19,7.65,7.65,0,0,1,5.37-2.09,5.49,5.49,0,0,1,4.89,2.52Zm-6.73,4.46a4.43,4.43,0,0,0,2.92,7.74,4.41,4.41,0,0,0,2.91-1.08,4.61,4.61,0,0,0,1.41-3.35,4.46,4.46,0,0,0-1.26-3.13,4,4,0,0,0-3.06-1.26A4.24,4.24,0,0,0,253.84,135.17Z"/><path class="cls-2" d="M292,132.4a8.39,8.39,0,0,1,0,12.2,10.11,10.11,0,0,1-12.59,0,8.39,8.39,0,0,1,0-12.2,10.11,10.11,0,0,1,12.59,0Zm-1.9,6.12a4.4,4.4,0,1,0-4.4,4.39A4.36,4.36,0,0,0,290.06,138.52Z"/><path class="cls-2" d="M302.37,154.54H298V130.71h4.39v2a5.92,5.92,0,0,1,5.07-2.52,7.47,7.47,0,0,1,5.33,2.09,8.42,8.42,0,0,1,2.34,6.19,8.32,8.32,0,0,1-2.45,6.3,7.59,7.59,0,0,1-5.29,2,5.91,5.91,0,0,1-5-2.52Zm1-19.41a4.14,4.14,0,0,0-1.47,3.35,4.43,4.43,0,0,0,1.44,3.39,4.27,4.27,0,0,0,2.88,1,4.17,4.17,0,0,0,2.95-1.12,4.59,4.59,0,0,0,1.37-3.31,4.65,4.65,0,0,0-1.34-3.27,4.58,4.58,0,0,0-3-1.12A4,4,0,0,0,303.41,135.13Z"/><path class="cls-2" d="M322.42,141.15a2.81,2.81,0,1,1-2.81,2.8A2.77,2.77,0,0,1,322.42,141.15Z"/></g></svg>
