<svg xmlns="http://www.w3.org/2000/svg" width="473.69" height="191.3" viewBox="0 0 473.69 191.3"><defs><style>.cls-1{fill:#f2902c;}.cls-2{fill:#fff;}</style></defs><title>bubble_1</title><g id="Oversigt"><g id="bobler-højre_copy" data-name="bobler-højre copy"><path class="cls-1" d="M0,172.21c0,9.57,4,15.85,12.05,18.87,1.58,0,3.17.1,4.74.1H437.24c.22,0,.44,0,.68,0,7,.19,14,.12,20.95,0,.27,0,.53,0,.79,0,8.08-.58,13.94-8.48,13.93-18.81,0-50.49-.19-101,.1-151.48C473.76,8,466.42,0,457,0Q236.14.32,15.26.15C6.18.15,0,7.88,0,19.32Q0,95.76,0,172.21Z"/></g></g><g id="Tekster"><path class="cls-2" d="M68.55,41.31v16.2c0,2.12-.15,5.47-2.81,7.27a7.37,7.37,0,0,1-3.92,1.08,7.94,7.94,0,0,1-5.51-2.23l2.84-3.42a2.79,2.79,0,0,0,2.34,1.29,2.06,2.06,0,0,0,1.84-.83c.57-.82.54-2.41.54-3.88V41.31Z"/><path class="cls-2" d="M88.67,61c-.47,1.15-2.23,4.86-7.67,4.86a8.17,8.17,0,0,1-6-2.19,7.86,7.86,0,0,1-2.45-6.09A8.31,8.31,0,0,1,75,51.42a8,8,0,0,1,5.86-2.19,7.48,7.48,0,0,1,6.09,2.55,9.35,9.35,0,0,1,1.87,6.12v.36H77.12a4.61,4.61,0,0,0,.75,2.63A3.71,3.71,0,0,0,81,62.37a4,4,0,0,0,3.64-2.06Zm-4-5.51a3.74,3.74,0,0,0-7.38,0Z"/><path class="cls-2" d="M104,49.73h4.39V64.6c0,2.37-.21,4.86-2.15,6.8a8.3,8.3,0,0,1-6.16,2.2c-3,0-4.82-.9-5.83-1.8a8.62,8.62,0,0,1-2.52-4.65h4.75a3.38,3.38,0,0,0,3.74,2.7,3.73,3.73,0,0,0,2.67-1A4.37,4.37,0,0,0,104,65.43v-2.2a5.46,5.46,0,0,1-4.78,2.59,7.4,7.4,0,0,1-5.4-2.12,9,9,0,0,1-.07-12.38,7.57,7.57,0,0,1,5.36-2.09A5.47,5.47,0,0,1,104,51.75ZM97.31,54.2a4.25,4.25,0,0,0-1.4,3.31,4.35,4.35,0,0,0,1.15,3.06,4.29,4.29,0,0,0,3.17,1.36,4.36,4.36,0,0,0,2.91-1.08,4.57,4.57,0,0,0,1.41-3.34,4.47,4.47,0,0,0-1.26-3.14,4,4,0,0,0-3.06-1.26A4.2,4.2,0,0,0,97.31,54.2Z"/><path class="cls-2" d="M121,39.08h4.39V51.75a5.74,5.74,0,0,1,4.83-2.52,5.92,5.92,0,0,1,4.6,1.91,6.55,6.55,0,0,1,1.23,4.39v9.79h-4.4v-8.5a4.48,4.48,0,0,0-.82-3.06,2.82,2.82,0,0,0-2.06-.79,3,3,0,0,0-2.7,1.37,5.42,5.42,0,0,0-.68,3v8H121Z"/><path class="cls-2" d="M152.17,49.73h4.39V65.32h-4.39v-2a5.58,5.58,0,0,1-4.78,2.52c-4.79,0-8-3.74-8-8.31s3.13-8.28,7.74-8.28a5.62,5.62,0,0,1,5,2.52ZM144,57.51a4.32,4.32,0,1,0,4.32-4.4A4.26,4.26,0,0,0,144,57.51Z"/><path class="cls-2" d="M160.74,49.73h4.39v2.34a5.27,5.27,0,0,1,2-2.16,4.79,4.79,0,0,1,2.59-.68,5.35,5.35,0,0,1,1.87.36l-.57,4.1a3.31,3.31,0,0,0-2.06-.58A3.58,3.58,0,0,0,166,54.37a5.37,5.37,0,0,0-.87,3.46v7.49h-4.39Z"/><path class="cls-2" d="M185,49.73l4.1,8.78,4.11-8.78h4.89l-7.85,15.59h-2.3l-7.85-15.59Z"/><path class="cls-2" d="M225.47,61a7.91,7.91,0,0,1-7.67,4.86,6.73,6.73,0,0,1-6.05-2.95,7.5,7.5,0,0,1-6.26,2.95c-4.32,0-6.41-2.41-6.41-5a4.65,4.65,0,0,1,1.59-3.6,7.26,7.26,0,0,1,5-1.62,8,8,0,0,1,4,1.08l0-.75a2.91,2.91,0,0,0-1.34-2.56,5.59,5.59,0,0,0-2.91-.65,15.57,15.57,0,0,0-4,.61V49.8a17.8,17.8,0,0,1,4.32-.57c1.87,0,4.39.18,5.94,2.63a7,7,0,0,1,5.9-2.63,7.49,7.49,0,0,1,6,2.55,9.3,9.3,0,0,1,1.87,6.12v.36H213.91a4.17,4.17,0,0,0,.76,2.63,3.64,3.64,0,0,0,3.13,1.48,4,4,0,0,0,3.64-2.06Zm-19.08,1.77c2.45,0,3.31-1.34,3.31-2.2s-.72-1.87-3.35-1.87c-2.34,0-3,1.11-3,1.94S204.08,62.73,206.39,62.73Zm15.05-7.28a3.75,3.75,0,0,0-7.39,0Z"/><path class="cls-2" d="M229,49.73h4.39v2.34a5.27,5.27,0,0,1,2-2.16,4.76,4.76,0,0,1,2.59-.68,5.4,5.4,0,0,1,1.87.36l-.58,4.1a3.26,3.26,0,0,0-2.05-.58,3.57,3.57,0,0,0-2.91,1.26,5.37,5.37,0,0,0-.87,3.46v7.49H229Z"/><path class="cls-2" d="M256.46,61c-.47,1.15-2.23,4.86-7.66,4.86a8.19,8.19,0,0,1-6-2.19,7.86,7.86,0,0,1-2.45-6.09,8.31,8.31,0,0,1,2.38-6.12,8,8,0,0,1,5.87-2.19,7.47,7.47,0,0,1,6.08,2.55,9.35,9.35,0,0,1,1.87,6.12v.36H244.91a4.61,4.61,0,0,0,.75,2.63,3.72,3.72,0,0,0,3.14,1.48,4,4,0,0,0,3.63-2.06Zm-4-5.51a3.74,3.74,0,0,0-7.38,0Z"/><path class="cls-2" d="M264.35,53.48V65.32H260V53.48h-1.73V49.73H260V44.4h4.39v5.33h3v3.75Z"/><path class="cls-2" d="M278.06,49.73h4.4v1.76a5.73,5.73,0,0,1,4.64-2.26A5.15,5.15,0,0,1,292,52.07a5.74,5.74,0,0,1,5-2.84,4.91,4.91,0,0,1,4.21,1.91c1,1.33,1.08,2.66,1.08,4.39v9.79h-4.39v-8.5a4.72,4.72,0,0,0-.72-3.06,2.19,2.19,0,0,0-1.8-.79A2.58,2.58,0,0,0,293,54.34a6,6,0,0,0-.61,3v8H288v-8.5a4.79,4.79,0,0,0-.72-3.06,2.21,2.21,0,0,0-1.8-.79,2.57,2.57,0,0,0-2.41,1.37,5.85,5.85,0,0,0-.61,3v8h-4.4Z"/><path class="cls-2" d="M321.8,61c-.47,1.15-2.23,4.86-7.67,4.86a8.18,8.18,0,0,1-6-2.19,7.86,7.86,0,0,1-2.45-6.09,8.31,8.31,0,0,1,2.38-6.12A8,8,0,0,1,314,49.23,7.47,7.47,0,0,1,320,51.78a9.35,9.35,0,0,1,1.87,6.12v.36H310.25a4.61,4.61,0,0,0,.75,2.63,3.71,3.71,0,0,0,3.13,1.48,4,4,0,0,0,3.64-2.06Zm-4-5.51a3.74,3.74,0,0,0-7.38,0Z"/><path class="cls-2" d="M337.25,39.08h4.39V65.32h-4.39v-2a5.6,5.6,0,0,1-4.79,2.52c-4.79,0-8-3.74-8-8.31s3.13-8.28,7.74-8.28a5.64,5.64,0,0,1,5,2.52ZM329,57.51a4.32,4.32,0,1,0,4.32-4.4A4.26,4.26,0,0,0,329,57.51Z"/><path class="cls-2" d="M358.59,53.48V65.32H354.2V53.48h-1.73V49.73h1.73V44.4h4.39v5.33h3v3.75Z"/><path class="cls-2" d="M366.12,40.52a2.63,2.63,0,1,1-2.63,2.62A2.64,2.64,0,0,1,366.12,40.52Zm2.19,9.21V65.32h-4.39V49.73Z"/><path class="cls-2" d="M376.88,39.08V65.32h-4.39V39.08Z"/><path class="cls-2" d="M401.39,49.73h4.4V65.32h-4.4v-2a5.58,5.58,0,0,1-4.78,2.52c-4.79,0-8-3.74-8-8.31s3.14-8.28,7.74-8.28a5.62,5.62,0,0,1,5,2.52Zm-8.2,7.78a4.32,4.32,0,1,0,4.32-4.4A4.26,4.26,0,0,0,393.19,57.51Z"/><path class="cls-2" d="M414.36,53.48V65.32H410V53.48h-1.73V49.73H410V44.4h4.39v5.33h3v3.75Z"/><path class="cls-2" d="M71.28,82.28h4.39v26.24H71.28v-2A5.58,5.58,0,0,1,66.5,109c-4.79,0-8-3.74-8-8.31s3.13-8.28,7.74-8.28a5.62,5.62,0,0,1,5,2.52Zm-8.2,18.43a4.32,4.32,0,1,0,4.31-4.4A4.26,4.26,0,0,0,63.08,100.71Z"/><path class="cls-2" d="M95.15,104.16c-.47,1.15-2.23,4.86-7.67,4.86a8.12,8.12,0,0,1-6-2.2,7.82,7.82,0,0,1-2.45-6.08,8.31,8.31,0,0,1,2.38-6.12,8,8,0,0,1,5.86-2.19A7.48,7.48,0,0,1,93.39,95a9.35,9.35,0,0,1,1.87,6.12v.36H83.6a4.61,4.61,0,0,0,.75,2.63,3.71,3.71,0,0,0,3.13,1.48,4,4,0,0,0,3.64-2.06Zm-4-5.51a3.74,3.74,0,0,0-7.38,0Z"/><path class="cls-2" d="M103,82.28v26.24h-4.4V82.28Z"/><path class="cls-2" d="M122.51,104.16c-.47,1.15-2.23,4.86-7.67,4.86a8.12,8.12,0,0,1-6-2.2,7.82,7.82,0,0,1-2.45-6.08,8.31,8.31,0,0,1,2.38-6.12,8,8,0,0,1,5.86-2.19A7.48,7.48,0,0,1,120.75,95a9.35,9.35,0,0,1,1.87,6.12v.36H111a4.61,4.61,0,0,0,.75,2.63,3.71,3.71,0,0,0,3.13,1.48,4,4,0,0,0,3.64-2.06Zm-4-5.51a3.74,3.74,0,0,0-7.38,0Z"/><path class="cls-2" d="M138.78,95a6.06,6.06,0,0,1,5.08-2.52c4.61,0,7.67,3.56,7.67,8.28s-3.17,8.31-7.78,8.31a5.89,5.89,0,0,1-5-2.52v2h-4.39V82.28h4.39Zm-.43,5.76a4.32,4.32,0,1,0,4.32-4.4A4.26,4.26,0,0,0,138.35,100.71Z"/><path class="cls-2" d="M157.11,83.72a2.63,2.63,0,1,1-2.63,2.62A2.63,2.63,0,0,1,157.11,83.72Zm2.19,9.21v15.59h-4.39V92.93Z"/><path class="cls-2" d="M167.87,82.28v26.24h-4.39V82.28Z"/><path class="cls-2" d="M176.44,82.28v26.24h-4.39V82.28Z"/><path class="cls-2" d="M195.91,104.16c-.47,1.15-2.23,4.86-7.67,4.86a8.13,8.13,0,0,1-6-2.2,7.82,7.82,0,0,1-2.45-6.08,8.31,8.31,0,0,1,2.38-6.12,8,8,0,0,1,5.86-2.19A7.48,7.48,0,0,1,194.15,95,9.35,9.35,0,0,1,196,101.1v.36H184.36a4.61,4.61,0,0,0,.75,2.63,3.71,3.71,0,0,0,3.13,1.48,4,4,0,0,0,3.64-2.06Zm-4-5.51a3.74,3.74,0,0,0-7.38,0Z"/><path class="cls-2" d="M211.36,82.28h4.39v26.24h-4.39v-2a5.6,5.6,0,0,1-4.79,2.52c-4.79,0-8-3.74-8-8.31s3.13-8.28,7.74-8.28a5.64,5.64,0,0,1,5,2.52Zm-8.21,18.43a4.32,4.32,0,1,0,4.32-4.4A4.26,4.26,0,0,0,203.15,100.71Z"/><path class="cls-2" d="M235.22,104.16c-.47,1.15-2.23,4.86-7.67,4.86a8.15,8.15,0,0,1-6-2.2,7.82,7.82,0,0,1-2.45-6.08,8.31,8.31,0,0,1,2.38-6.12,8,8,0,0,1,5.87-2.19A7.47,7.47,0,0,1,233.46,95a9.35,9.35,0,0,1,1.87,6.12v.36H223.67a4.61,4.61,0,0,0,.75,2.63,3.71,3.71,0,0,0,3.13,1.48,4,4,0,0,0,3.64-2.06Zm-4-5.51a3.74,3.74,0,0,0-7.38,0Z"/><path class="cls-2" d="M238.72,92.93h4.39v2.34a5.27,5.27,0,0,1,1.94-2.16,4.79,4.79,0,0,1,2.59-.68,5.46,5.46,0,0,1,1.88.36l-.58,4.1a3.28,3.28,0,0,0-2.05-.58A3.6,3.6,0,0,0,244,97.57a5.36,5.36,0,0,0-.86,3.46v7.49h-4.39Z"/><path class="cls-2" d="M272,92.93h4.4v15.59H272v-2a5.58,5.58,0,0,1-4.78,2.52c-4.79,0-8-3.74-8-8.31s3.13-8.28,7.74-8.28A5.62,5.62,0,0,1,272,95Zm-8.2,7.78a4.32,4.32,0,1,0,4.32-4.4A4.26,4.26,0,0,0,263.81,100.71Z"/><path class="cls-2" d="M285.05,96.67v11.85h-4.39V96.67H279V92.93h1.66V88.65c0-1.44.1-3.89,2-5.51a5.83,5.83,0,0,1,3.85-1.3,5.66,5.66,0,0,1,2.52.54v4a3,3,0,0,0-2-.65,1.74,1.74,0,0,0-1.58.79,5.09,5.09,0,0,0-.47,2.7v3.71h4v3.74Z"/><path class="cls-2" d="M306.07,84.51c1.33,0,3.92,0,5.87,1.51a6.25,6.25,0,0,1,2.23,5,5.12,5.12,0,0,1-2.7,4.71,5.67,5.67,0,0,1,3.13,1.51,6.13,6.13,0,0,1,1.73,4.5,6.42,6.42,0,0,1-2.05,4.86,8.8,8.8,0,0,1-6.09,2h-8.06v-24Zm-1.26,10h1.33c.72,0,3.64-.07,3.64-3.13,0-2.2-1.69-3-3.6-3h-1.37Zm0,10.22h2a6.29,6.29,0,0,0,3.2-.65,3.09,3.09,0,0,0,1.48-2.77,2.88,2.88,0,0,0-1.77-2.73,7.58,7.58,0,0,0-3.2-.47h-1.73Z"/><path class="cls-2" d="M335.3,104.16c-.47,1.15-2.23,4.86-7.67,4.86a8.13,8.13,0,0,1-6-2.2,7.82,7.82,0,0,1-2.45-6.08,8.31,8.31,0,0,1,2.38-6.12,8,8,0,0,1,5.86-2.19A7.48,7.48,0,0,1,333.54,95a9.35,9.35,0,0,1,1.87,6.12v.36H323.75a4.61,4.61,0,0,0,.75,2.63,3.71,3.71,0,0,0,3.13,1.48,4,4,0,0,0,3.64-2.06Zm-4-5.51a3.74,3.74,0,0,0-7.38,0Z"/><path class="cls-2" d="M343.19,82.28v26.24H338.8V82.28Z"/><path class="cls-2" d="M349.56,83.72a2.63,2.63,0,1,1-2.63,2.62A2.64,2.64,0,0,1,349.56,83.72Zm2.19,9.21v15.59h-4.39V92.93Z"/><path class="cls-2" d="M355.93,92.93h4.39v2a5.71,5.71,0,0,1,4.82-2.52,6,6,0,0,1,4.61,1.9,6.58,6.58,0,0,1,1.22,4.4v9.79h-4.39V100a4.48,4.48,0,0,0-.82-3.06,2.82,2.82,0,0,0-2.06-.79,3,3,0,0,0-2.7,1.37,5.42,5.42,0,0,0-.68,3v8h-4.39Z"/><path class="cls-2" d="M387.1,82.28h4.39v26.24H387.1v-2a5.58,5.58,0,0,1-4.78,2.52c-4.79,0-8-3.74-8-8.31s3.13-8.28,7.74-8.28a5.62,5.62,0,0,1,5,2.52Zm-8.2,18.43a4.32,4.32,0,1,0,4.32-4.4A4.26,4.26,0,0,0,378.9,100.71Z"/><path class="cls-2" d="M407.62,92.93H412v15.59h-4.39v-2a5.58,5.58,0,0,1-4.78,2.52c-4.79,0-8-3.74-8-8.31s3.13-8.28,7.74-8.28a5.62,5.62,0,0,1,5,2.52Zm-8.2,7.78a4.32,4.32,0,1,0,4.31-4.4A4.26,4.26,0,0,0,399.42,100.71Z"/><path class="cls-2" d="M63.72,136.13V145a3.54,3.54,0,0,0,.94,2.74,3.54,3.54,0,0,0,4.46,0,3.5,3.5,0,0,0,.94-2.74v-8.82h4.39v9.54a5.89,5.89,0,0,1-1.91,4.79,9.95,9.95,0,0,1-11.3,0,5.89,5.89,0,0,1-1.91-4.79v-9.54Z"/><path class="cls-2" d="M90.58,125.48H95v26.24H90.58v-2a5.59,5.59,0,0,1-4.79,2.52c-4.79,0-8-3.74-8-8.31s3.13-8.28,7.74-8.28a5.64,5.64,0,0,1,5,2.52Zm-8.21,18.43a4.32,4.32,0,1,0,4.32-4.39A4.26,4.26,0,0,0,82.37,143.91Z"/><path class="cls-2" d="M114.45,147.36c-.47,1.15-2.23,4.86-7.67,4.86a8.19,8.19,0,0,1-6-2.19,7.89,7.89,0,0,1-2.44-6.09,8.34,8.34,0,0,1,2.37-6.12,8,8,0,0,1,5.87-2.19,7.45,7.45,0,0,1,6.08,2.55,9.3,9.3,0,0,1,1.87,6.12v.36H102.89a4.55,4.55,0,0,0,.76,2.63,3.71,3.71,0,0,0,3.13,1.48,4,4,0,0,0,3.63-2.06Zm-4-5.5a3.73,3.73,0,0,0-7.37,0Z"/><path class="cls-2" d="M117.94,136.13h4.39v2a5.72,5.72,0,0,1,4.82-2.52,6,6,0,0,1,4.61,1.9,6.59,6.59,0,0,1,1.23,4.4v9.79h-4.4v-8.5a4.48,4.48,0,0,0-.82-3.06,2.82,2.82,0,0,0-2-.79,3,3,0,0,0-2.7,1.37,5.35,5.35,0,0,0-.69,3v8h-4.39Z"/><path class="cls-2" d="M145.55,125.48h4.39v12.67a5.74,5.74,0,0,1,4.83-2.52,6,6,0,0,1,4.6,1.9,6.59,6.59,0,0,1,1.23,4.4v9.79h-4.39v-8.5a4.49,4.49,0,0,0-.83-3.06,2.82,2.82,0,0,0-2-.79,3,3,0,0,0-2.7,1.37,5.35,5.35,0,0,0-.69,3v8h-4.39Z"/><path class="cls-2" d="M179.68,147.36c-.47,1.15-2.23,4.86-7.67,4.86a8.15,8.15,0,0,1-6-2.19,7.86,7.86,0,0,1-2.45-6.09,8.34,8.34,0,0,1,2.37-6.12,8,8,0,0,1,5.87-2.19,7.45,7.45,0,0,1,6.08,2.55,9.31,9.31,0,0,1,1.88,6.12v.36H168.12a4.62,4.62,0,0,0,.76,2.63,3.71,3.71,0,0,0,3.13,1.48,4,4,0,0,0,3.64-2.06Zm-4-5.5a3.74,3.74,0,0,0-7.38,0Z"/><path class="cls-2" d="M183.17,136.13h4.39v2a5.74,5.74,0,0,1,4.83-2.52,6,6,0,0,1,4.6,1.9,6.59,6.59,0,0,1,1.23,4.4v9.79h-4.39v-8.5a4.49,4.49,0,0,0-.83-3.06,2.82,2.82,0,0,0-2.05-.79,3,3,0,0,0-2.7,1.37,5.35,5.35,0,0,0-.69,3v8h-4.39Z"/><path class="cls-2" d="M214.35,125.48h4.39v26.24h-4.39v-2a5.6,5.6,0,0,1-4.79,2.52c-4.79,0-8-3.74-8-8.31s3.13-8.28,7.74-8.28a5.64,5.64,0,0,1,5,2.52Zm-8.21,18.43a4.32,4.32,0,1,0,4.32-4.39A4.26,4.26,0,0,0,206.14,143.91Z"/><path class="cls-2" d="M238.21,147.36c-.47,1.15-2.23,4.86-7.66,4.86a8.19,8.19,0,0,1-6-2.19,7.86,7.86,0,0,1-2.45-6.09,8.31,8.31,0,0,1,2.38-6.12,8,8,0,0,1,5.87-2.19,7.47,7.47,0,0,1,6.08,2.55,9.35,9.35,0,0,1,1.87,6.12v.36H226.66a4.61,4.61,0,0,0,.75,2.63,3.72,3.72,0,0,0,3.14,1.48,4,4,0,0,0,3.63-2.06Zm-4-5.5a3.74,3.74,0,0,0-7.38,0Z"/><path class="cls-2" d="M250.2,139.84a3.66,3.66,0,0,0-2.55-1.05c-1.05,0-1.7.51-1.7,1.27,0,.39.18,1,1.41,1.4l1,.32c1.23.4,3.06,1,4,2.23a4.53,4.53,0,0,1,.79,2.6,5.19,5.19,0,0,1-1.72,4,6.56,6.56,0,0,1-4.68,1.65,7.89,7.89,0,0,1-6.05-2.59L243,147a4.87,4.87,0,0,0,3.46,1.8c1.22,0,2.16-.62,2.16-1.7a1.74,1.74,0,0,0-1.37-1.58l-1-.36a8.55,8.55,0,0,1-3.35-1.87,4.19,4.19,0,0,1-1.18-3,4.64,4.64,0,0,1,1.62-3.53,6.41,6.41,0,0,1,4.06-1.11,7.77,7.77,0,0,1,5,1.65Z"/><path class="cls-2" d="M269,139.87v11.85h-4.39V139.87h-1.73v-3.74h1.73V130.8H269v5.33h3v3.74Z"/><path class="cls-2" d="M276.55,126.92a2.63,2.63,0,1,1-2.62,2.62A2.64,2.64,0,0,1,276.55,126.92Zm2.2,9.21v15.59h-4.39V136.13Z"/><path class="cls-2" d="M287.32,125.48v26.24h-4.39V125.48Z"/><path class="cls-2" d="M295.88,125.48v26.24h-4.39V125.48Z"/><path class="cls-2" d="M312,136.13h4.39v15.59H312v-2a5.58,5.58,0,0,1-4.79,2.52c-4.78,0-8-3.74-8-8.31s3.13-8.28,7.74-8.28a5.62,5.62,0,0,1,5,2.52Zm-8.21,7.78a4.32,4.32,0,1,0,4.32-4.39A4.26,4.26,0,0,0,303.8,143.91Z"/><path class="cls-2" d="M332.53,125.48h4.39v26.24h-4.39v-2a5.58,5.58,0,0,1-4.79,2.52c-4.78,0-7.95-3.74-7.95-8.31s3.13-8.28,7.74-8.28a5.63,5.63,0,0,1,5,2.52Zm-8.21,18.43a4.32,4.32,0,1,0,4.32-4.39A4.26,4.26,0,0,0,324.32,143.91Z"/><path class="cls-2" d="M356.4,147.36c-.47,1.15-2.23,4.86-7.67,4.86a8.19,8.19,0,0,1-6-2.19,7.89,7.89,0,0,1-2.44-6.09,8.34,8.34,0,0,1,2.37-6.12,8,8,0,0,1,5.87-2.19,7.45,7.45,0,0,1,6.08,2.55,9.31,9.31,0,0,1,1.88,6.12v.36H344.84a4.55,4.55,0,0,0,.76,2.63,3.71,3.71,0,0,0,3.13,1.48,4,4,0,0,0,3.64-2.06Zm-4-5.5a3.74,3.74,0,0,0-7.38,0Z"/><path class="cls-2" d="M364.28,125.48v26.24h-4.39V125.48Z"/><path class="cls-2" d="M377,139.84a3.65,3.65,0,0,0-2.55-1.05c-1,0-1.69.51-1.69,1.27,0,.39.18,1,1.4,1.4l1,.32c1.23.4,3.06,1,4,2.23a4.53,4.53,0,0,1,.79,2.6,5.19,5.19,0,0,1-1.72,4,6.55,6.55,0,0,1-4.68,1.65,7.89,7.89,0,0,1-6.05-2.59l2.3-2.66a4.87,4.87,0,0,0,3.46,1.8c1.22,0,2.16-.62,2.16-1.7a1.74,1.74,0,0,0-1.37-1.58l-1-.36a8.45,8.45,0,0,1-3.34-1.87,4.2,4.2,0,0,1-1.19-3,4.64,4.64,0,0,1,1.62-3.53,6.44,6.44,0,0,1,4.07-1.11,7.76,7.76,0,0,1,5,1.65Z"/><path class="cls-2" d="M398.3,147.36c-.47,1.15-2.23,4.86-7.67,4.86a8.17,8.17,0,0,1-6-2.19,7.86,7.86,0,0,1-2.45-6.09,8.31,8.31,0,0,1,2.38-6.12,8,8,0,0,1,5.86-2.19,7.48,7.48,0,0,1,6.09,2.55,9.35,9.35,0,0,1,1.87,6.12v.36H386.75a4.61,4.61,0,0,0,.75,2.63,3.71,3.71,0,0,0,3.13,1.48,4,4,0,0,0,3.64-2.06Zm-4-5.5a3.74,3.74,0,0,0-7.38,0Z"/><path class="cls-2" d="M405.36,146.57a2.81,2.81,0,1,1-2.81,2.81A2.76,2.76,0,0,1,405.36,146.57Z"/></g></svg>
