<svg xmlns="http://www.w3.org/2000/svg" width="473.69" height="191.3" viewBox="0 0 473.69 191.3"><defs><style>.cls-1{fill:#f2902c;}.cls-2{fill:#fff;}</style></defs><title>bubble_5</title><g id="Oversigt"><g id="bobler-højre_copy" data-name="bobler-højre copy"><path class="cls-1" d="M0,172.21c0,9.57,4,15.85,12.05,18.87,1.58,0,3.17.1,4.74.1H437.24c.22,0,.44,0,.68,0,7,.19,14,.12,20.95,0,.27,0,.53,0,.79,0,8.08-.58,13.94-8.48,13.93-18.81,0-50.49-.19-101,.1-151.48C473.76,8,466.42,0,457,0Q236.14.32,15.26.15C6.18.15,0,7.88,0,19.32Q0,95.76,0,172.21Z"/></g></g><g id="Tekster"><path class="cls-2" d="M80,67.86a4.7,4.7,0,0,0-3.93-2c-2.52,0-3.31,1.58-3.31,2.8a2,2,0,0,0,.76,1.62,8.14,8.14,0,0,0,2.88,1.37A14.18,14.18,0,0,1,81.22,74a6.56,6.56,0,0,1,2,5c0,4.68-3.38,7.89-8.35,7.89a9.87,9.87,0,0,1-8.28-4.54l3.06-2.91a5.64,5.64,0,0,0,5,3.2c2.12,0,3.71-1.3,3.71-3.31a2.77,2.77,0,0,0-.94-2.16,10.76,10.76,0,0,0-3.71-1.77,11.43,11.43,0,0,1-4-2.08A5.58,5.58,0,0,1,67.9,68.9c0-3.53,2.37-7.05,7.7-7.05a9.26,9.26,0,0,1,6.81,2.81Z"/><path class="cls-2" d="M91.12,60.16V76.5L97,70.81h5.69l-7.31,6.84,7.88,8.75H97.38l-5.79-6.66-.47.43V86.4H86.73V60.16Z"/><path class="cls-2" d="M117.11,70.81h4.39V86.4h-4.39v-2a5.59,5.59,0,0,1-4.79,2.52c-4.79,0-7.95-3.74-7.95-8.32s3.13-8.27,7.74-8.27a5.64,5.64,0,0,1,5,2.52Zm-8.21,7.77a4.32,4.32,0,1,0,4.32-4.39A4.27,4.27,0,0,0,108.9,78.58Z"/><path class="cls-2" d="M130.07,60.16V86.4h-4.39V60.16Z"/><path class="cls-2" d="M156,66.42H148v5.36h7.56v4H148V86.4h-4.68v-24H156Z"/><path class="cls-2" d="M163,70.81v8.82a3.51,3.51,0,0,0,.94,2.73,3.51,3.51,0,0,0,4.46,0,3.47,3.47,0,0,0,.94-2.73V70.81h4.39v9.54a5.9,5.9,0,0,1-1.91,4.79,9.95,9.95,0,0,1-11.3,0,5.9,5.9,0,0,1-1.91-4.79V70.81Z"/><path class="cls-2" d="M182.34,74.55V86.4H178V74.55h-1.73V70.81H178V65.48h4.39v5.33h3v3.74Z"/><path class="cls-2" d="M193.17,74.55V86.4h-4.39V74.55h-1.72V70.81h1.72V65.48h4.39v5.33h3v3.74Z"/><path class="cls-2" d="M213.8,82c-.47,1.15-2.23,4.86-7.67,4.86a8.13,8.13,0,0,1-6-2.2,7.84,7.84,0,0,1-2.45-6.08,8.31,8.31,0,0,1,2.38-6.12A8,8,0,0,1,206,70.31,7.48,7.48,0,0,1,212,72.86,9.35,9.35,0,0,1,213.91,79v.36H202.25A4.64,4.64,0,0,0,203,82a3.71,3.71,0,0,0,3.13,1.47,4,4,0,0,0,3.64-2Zm-4-5.51a3.74,3.74,0,0,0-7.38,0Z"/><path class="cls-2" d="M227.88,61.6a2.63,2.63,0,1,1-2.63,2.62A2.64,2.64,0,0,1,227.88,61.6Zm2.2,9.21V86.4h-4.4V70.81Z"/><path class="cls-2" d="M238.64,60.16V76.5l5.83-5.69h5.69l-7.31,6.84,7.89,8.75h-5.83l-5.8-6.66-.47.43V86.4h-4.39V60.16Z"/><path class="cls-2" d="M257.07,60.16V76.5l5.84-5.69h5.68l-7.31,6.84,7.89,8.75h-5.83l-5.8-6.66-.47.43V86.4h-4.39V60.16Z"/><path class="cls-2" d="M286,82c-.47,1.15-2.24,4.86-7.67,4.86a8.16,8.16,0,0,1-6-2.2,7.86,7.86,0,0,1-2.44-6.08,8.34,8.34,0,0,1,2.37-6.12,8,8,0,0,1,5.87-2.19,7.45,7.45,0,0,1,6.08,2.55A9.3,9.3,0,0,1,286.12,79v.36H274.46a4.57,4.57,0,0,0,.76,2.63,3.69,3.69,0,0,0,3.13,1.47,4,4,0,0,0,3.64-2Zm-4-5.51a3.74,3.74,0,0,0-7.38,0Z"/><path class="cls-2" d="M306.39,74.52a3.65,3.65,0,0,0-2.55-1c-1,0-1.69.51-1.69,1.26,0,.4.18,1,1.4,1.41l1,.32c1.23.4,3.06,1,4,2.23a4.52,4.52,0,0,1,.79,2.59,5.16,5.16,0,0,1-1.72,4,6.53,6.53,0,0,1-4.68,1.66,7.89,7.89,0,0,1-6.05-2.59l2.3-2.67a4.84,4.84,0,0,0,3.46,1.8c1.22,0,2.16-.61,2.16-1.69a1.73,1.73,0,0,0-1.37-1.58l-1-.36a8.45,8.45,0,0,1-3.34-1.87,4.2,4.2,0,0,1-1.19-3,4.64,4.64,0,0,1,1.62-3.53,6.44,6.44,0,0,1,4.07-1.11,7.76,7.76,0,0,1,5,1.65Z"/><path class="cls-2" d="M312.44,70.81h4.39v2a5.72,5.72,0,0,1,4.83-2.52,6,6,0,0,1,4.6,1.9,6.59,6.59,0,0,1,1.23,4.4V86.4H323.1V77.9a4.49,4.49,0,0,0-.83-3.06,2.8,2.8,0,0,0-2-.79,3,3,0,0,0-2.7,1.37,5.35,5.35,0,0,0-.69,3v8h-4.39Z"/><path class="cls-2" d="M343.62,70.81H348V86.4h-4.39v-2a5.6,5.6,0,0,1-4.79,2.52c-4.79,0-8-3.74-8-8.32s3.14-8.27,7.74-8.27a5.64,5.64,0,0,1,5,2.52Zm-8.21,7.77a4.32,4.32,0,1,0,4.32-4.39A4.27,4.27,0,0,0,335.41,78.58Z"/><path class="cls-2" d="M352.18,70.81h4.4v2.34A5.27,5.27,0,0,1,358.52,71a4.79,4.79,0,0,1,2.59-.68,5.35,5.35,0,0,1,1.87.36l-.57,4.1a3.28,3.28,0,0,0-2.05-.58,3.59,3.59,0,0,0-2.92,1.26,5.36,5.36,0,0,0-.86,3.46V86.4h-4.4Z"/><path class="cls-2" d="M370.65,74.55V86.4h-4.39V74.55h-1.73V70.81h1.73V65.48h4.39v5.33h3v3.74Z"/><path class="cls-2" d="M388.76,74.55V86.4h-4.39V74.55h-1.73V70.81h1.73V65.48h4.39v5.33h3v3.74Z"/><path class="cls-2" d="M396.28,61.6a2.63,2.63,0,1,1-2.62,2.62A2.64,2.64,0,0,1,396.28,61.6Zm2.2,9.21V86.4h-4.39V70.81Z"/><path class="cls-2" d="M407.05,60.16V86.4h-4.39V60.16Z"/><path class="cls-2" d="M67.5,103.36h4.4V116a5.69,5.69,0,0,1,4.82-2.52,6,6,0,0,1,4.61,1.9,6.56,6.56,0,0,1,1.22,4.39v9.8H78.16v-8.5a4.49,4.49,0,0,0-.83-3.06,2.8,2.8,0,0,0-2-.79,3,3,0,0,0-2.7,1.37,5.32,5.32,0,0,0-.68,3v8H67.5Z"/><path class="cls-2" d="M90.72,114v8.82a3.47,3.47,0,0,0,.94,2.73,3.51,3.51,0,0,0,4.46,0,3.47,3.47,0,0,0,.94-2.73V114h4.39v9.54a5.9,5.9,0,0,1-1.91,4.79,9.95,9.95,0,0,1-11.3,0,5.9,5.9,0,0,1-1.91-4.79V114Z"/><path class="cls-2" d="M105.63,114H110v2a5.7,5.7,0,0,1,4.82-2.52,6,6,0,0,1,4.61,1.9,6.56,6.56,0,0,1,1.22,4.39v9.8h-4.39v-8.5a4.44,4.44,0,0,0-.83-3.06,2.79,2.79,0,0,0-2-.79,3,3,0,0,0-2.7,1.37,5.4,5.4,0,0,0-.68,3v8h-4.39Z"/><path class="cls-2" d="M136.8,103.36h4.39V129.6H136.8v-2A5.58,5.58,0,0,1,132,130.1c-4.78,0-7.95-3.74-7.95-8.32s3.13-8.27,7.74-8.27a5.62,5.62,0,0,1,5,2.52Zm-8.21,18.42a4.32,4.32,0,1,0,4.32-4.39A4.27,4.27,0,0,0,128.59,121.78Z"/><path class="cls-2" d="M160.67,125.24c-.47,1.15-2.23,4.86-7.67,4.86a8.12,8.12,0,0,1-6-2.2,7.84,7.84,0,0,1-2.45-6.08A8.34,8.34,0,0,1,147,115.7a8,8,0,0,1,5.87-2.19,7.48,7.48,0,0,1,6.09,2.55,9.35,9.35,0,0,1,1.87,6.12v.36H149.11a4.64,4.64,0,0,0,.76,2.63,3.71,3.71,0,0,0,3.13,1.47,4,4,0,0,0,3.64-2Zm-4-5.51a3.74,3.74,0,0,0-7.38,0Z"/><path class="cls-2" d="M168.63,117.75V129.6h-4.39V117.75h-1.66V114h1.66v-4.28c0-1.44.1-3.89,2-5.51a5.83,5.83,0,0,1,3.85-1.3,5.66,5.66,0,0,1,2.52.54v4a3,3,0,0,0-2-.65,1.74,1.74,0,0,0-1.59.79,5.21,5.21,0,0,0-.46,2.7V114h4v3.74Z"/><path class="cls-2" d="M174.67,114h4.4v2.34a5.2,5.2,0,0,1,1.94-2.16,4.79,4.79,0,0,1,2.59-.68,5.35,5.35,0,0,1,1.87.36l-.57,4.1a3.29,3.29,0,0,0-2.06-.58,3.58,3.58,0,0,0-2.91,1.26,5.36,5.36,0,0,0-.86,3.46v7.49h-4.4Z"/><path class="cls-2" d="M189.83,104.79a2.63,2.63,0,1,1-2.63,2.63A2.65,2.65,0,0,1,189.83,104.79ZM192,114V129.6h-4.39V114Z"/><path class="cls-2" d="M204.7,117.72a3.64,3.64,0,0,0-2.56-1c-1,0-1.69.51-1.69,1.26,0,.4.18,1,1.4,1.41l1.05.32c1.22.4,3.06,1,3.95,2.23a4.53,4.53,0,0,1,.8,2.59,5.17,5.17,0,0,1-1.73,4,6.51,6.51,0,0,1-4.68,1.66,7.91,7.91,0,0,1-6.05-2.59l2.31-2.67a4.82,4.82,0,0,0,3.45,1.8c1.22,0,2.16-.61,2.16-1.69a1.73,1.73,0,0,0-1.37-1.58l-1-.36a8.49,8.49,0,0,1-3.35-1.87,4.2,4.2,0,0,1-1.19-3,4.64,4.64,0,0,1,1.62-3.53,6.44,6.44,0,0,1,4.07-1.11,7.74,7.74,0,0,1,5,1.65Z"/><path class="cls-2" d="M211.86,127a8.36,8.36,0,0,1-1.76-5.18,8.26,8.26,0,0,1,2.62-6.12,9.06,9.06,0,0,1,6.3-2.19,9.2,9.2,0,0,1,5,1.29l2.45-2.45,2,1.84-2.38,2.38a8.48,8.48,0,0,1,1.8,5.25,8.17,8.17,0,0,1-2.63,6.08,8.93,8.93,0,0,1-6.3,2.2,9.06,9.06,0,0,1-5.11-1.33l-2.37,2.37-2-1.8Zm9.14-9.14a3.82,3.82,0,0,0-1.87-.47,4.57,4.57,0,0,0-3.27,1.3,4.62,4.62,0,0,0-1.23,3.17,4.93,4.93,0,0,0,.43,1.94Zm-4,7.85a4.27,4.27,0,0,0,2.09.5,4,4,0,0,0,3.13-1.29,4.38,4.38,0,0,0,1.23-3.17,3.52,3.52,0,0,0-.51-2Z"/><path class="cls-2" d="M231.48,114h4.39v2.34a5.27,5.27,0,0,1,1.95-2.16,4.76,4.76,0,0,1,2.59-.68,5.45,5.45,0,0,1,1.87.36l-.58,4.1a3.26,3.26,0,0,0-2-.58,3.57,3.57,0,0,0-2.91,1.26,5.37,5.37,0,0,0-.87,3.46v7.49h-4.39Z"/><path class="cls-2" d="M248.08,122.29v-7.06a5.67,5.67,0,0,0,1.4.15,4.76,4.76,0,0,0,3.38-1.23,3.55,3.55,0,0,0,.94-2.41,2.85,2.85,0,0,0-.76-2.09,2.51,2.51,0,0,0-1.87-.72,2.55,2.55,0,0,0-1.83.65,3,3,0,0,0-.8,2.34h-4.68a7.59,7.59,0,0,1,1.8-4.86c1-1,2.67-2,5.69-2a7.16,7.16,0,0,1,5.26,1.83,6.67,6.67,0,0,1,1.87,5,6.15,6.15,0,0,1-1.84,4.64,7.14,7.14,0,0,1-4.1,2v3.78Zm2.23,2.23a2.81,2.81,0,1,1-2.81,2.81A2.76,2.76,0,0,1,250.31,124.52Z"/></g></svg>
