<svg xmlns="http://www.w3.org/2000/svg" width="473.69" height="191.3" viewBox="0 0 473.69 191.3"><defs><style>.cls-1{fill:#f2902c;}.cls-2{fill:#fff;}</style></defs><title>bubble_16</title><g id="Oversigt"><g id="bobler-højre_copy" data-name="bobler-højre copy"><path class="cls-1" d="M0,172.21c0,9.57,4,15.85,12.05,18.87,1.58,0,3.17.1,4.74.1H437.24c.22,0,.44,0,.68,0,7,.19,14,.12,20.95,0,.27,0,.53,0,.79,0,8.08-.58,13.94-8.48,13.93-18.81,0-50.49-.19-101,.1-151.48C473.76,8,466.42,0,457,0Q236.14.32,15.26.15C6.18.15,0,7.88,0,19.32Q0,95.76,0,172.21Z"/></g></g><g id="Tekster"><path class="cls-2" d="M53.61,69.62v-24h3.24l14.61,16v-16h4.68v24H72.9L58.29,53.57V69.62Z"/><path class="cls-2" d="M95.4,55.73a8.39,8.39,0,0,1,0,12.2,10.11,10.11,0,0,1-12.59,0,8.39,8.39,0,0,1,0-12.2,10.11,10.11,0,0,1,12.59,0Zm-1.9,6.12a4.4,4.4,0,1,0-4.4,4.39A4.36,4.36,0,0,0,93.5,61.85Z"/><path class="cls-2" d="M113.29,54h4.4V68.9c0,2.38-.22,4.86-2.16,6.81a8.28,8.28,0,0,1-6.16,2.19c-3,0-4.82-.9-5.83-1.8A8.65,8.65,0,0,1,101,71.46h4.75a3.76,3.76,0,0,0,1.08,1.87,3.9,3.9,0,0,0,2.67.83,3.7,3.7,0,0,0,2.66-1,4.4,4.4,0,0,0,1.11-3.46v-2.2a5.44,5.44,0,0,1-4.78,2.6,7.36,7.36,0,0,1-5.4-2.13A9,9,0,0,1,103,55.62a7.61,7.61,0,0,1,5.36-2.09,5.48,5.48,0,0,1,4.89,2.52Zm-6.73,4.46a4.43,4.43,0,0,0,2.92,7.74,4.45,4.45,0,0,0,2.92-1.08,4.64,4.64,0,0,0,1.4-3.35,4.46,4.46,0,0,0-1.26-3.13,4,4,0,0,0-3.06-1.26A4.26,4.26,0,0,0,106.56,58.5Z"/><path class="cls-2" d="M137.16,65.27c-.47,1.15-2.23,4.86-7.66,4.86a8.16,8.16,0,0,1-6-2.2,7.84,7.84,0,0,1-2.45-6.08,8.27,8.27,0,0,1,2.38-6.12,8,8,0,0,1,5.87-2.2,7.44,7.44,0,0,1,6.08,2.56,9.35,9.35,0,0,1,1.87,6.12v.36H125.61a4.66,4.66,0,0,0,.75,2.63,3.74,3.74,0,0,0,3.14,1.47,4,4,0,0,0,3.63-2Zm-4-5.51a3.74,3.74,0,0,0-7.38,0Z"/><path class="cls-2" d="M140.66,54h4.39v2a5.71,5.71,0,0,1,4.82-2.52,6,6,0,0,1,4.61,1.91,6.56,6.56,0,0,1,1.22,4.39v9.79h-4.39V61.13a4.47,4.47,0,0,0-.83-3.06,2.8,2.8,0,0,0-2-.79,3,3,0,0,0-2.7,1.36,5.36,5.36,0,0,0-.68,3v8h-4.39Z"/><path class="cls-2" d="M172.73,57.78V69.62h-4.39V57.78h-1.66V54h1.66V49.75c0-1.44.11-3.88,2-5.5a5.8,5.8,0,0,1,3.85-1.3,5.63,5.63,0,0,1,2.52.54v4a3.07,3.07,0,0,0-2-.64,1.73,1.73,0,0,0-1.58.79,5.17,5.17,0,0,0-.47,2.7V54h4v3.74Z"/><path class="cls-2" d="M178.78,54h4.39v2.34a5.2,5.2,0,0,1,1.94-2.16,4.74,4.74,0,0,1,2.6-.69,5.45,5.45,0,0,1,1.87.36L189,58a3.26,3.26,0,0,0-2.05-.58A3.6,3.6,0,0,0,184,58.68a5.41,5.41,0,0,0-.86,3.46v7.48h-4.39Z"/><path class="cls-2" d="M203.33,54h4.39V69.62h-4.39v-2a5.61,5.61,0,0,1-4.79,2.52c-4.78,0-7.95-3.75-7.95-8.32s3.13-8.28,7.74-8.28a5.66,5.66,0,0,1,5,2.52Zm-8.21,7.77a4.32,4.32,0,1,0,4.32-4.39A4.27,4.27,0,0,0,195.12,61.81Z"/><path class="cls-2" d="M224.68,43.38V59.72L230.51,54h5.69l-7.31,6.84,7.88,8.74h-5.83L225.15,63l-.47.43v6.23h-4.39V43.38Z"/><path class="cls-2" d="M243.11,43.38V69.62h-4.39V43.38Z"/><path class="cls-2" d="M259.24,54h4.39V69.62h-4.39v-2a5.62,5.62,0,0,1-4.79,2.52c-4.79,0-8-3.75-8-8.32s3.14-8.28,7.74-8.28a5.67,5.67,0,0,1,5,2.52ZM251,61.81a4.32,4.32,0,1,0,4.32-4.39A4.27,4.27,0,0,0,251,61.81Z"/><path class="cls-2" d="M276.3,57.74a3.64,3.64,0,0,0-2.55-1c-1.05,0-1.7.5-1.7,1.26,0,.4.18,1,1.41,1.4l1,.33c1.22.39,3.06,1,4,2.23a4.5,4.5,0,0,1,.79,2.59,5.19,5.19,0,0,1-1.73,4,6.55,6.55,0,0,1-4.68,1.66,7.85,7.85,0,0,1-6-2.6l2.3-2.66a4.82,4.82,0,0,0,3.46,1.8c1.22,0,2.16-.61,2.16-1.69a1.76,1.76,0,0,0-1.37-1.59l-1-.35A8.39,8.39,0,0,1,269,61.16a4.15,4.15,0,0,1-1.18-3,4.61,4.61,0,0,1,1.62-3.53,6.42,6.42,0,0,1,4.06-1.12,7.8,7.8,0,0,1,5,1.66Z"/><path class="cls-2" d="M290.12,57.74a3.63,3.63,0,0,0-2.55-1c-1,0-1.69.5-1.69,1.26,0,.4.18,1,1.4,1.4l1.05.33c1.22.39,3.05,1,3.95,2.23a4.5,4.5,0,0,1,.8,2.59,5.19,5.19,0,0,1-1.73,4,6.55,6.55,0,0,1-4.68,1.66,7.86,7.86,0,0,1-6.05-2.6l2.31-2.66a4.8,4.8,0,0,0,3.45,1.8c1.22,0,2.16-.61,2.16-1.69a1.75,1.75,0,0,0-1.37-1.59l-1-.35a8.32,8.32,0,0,1-3.35-1.88,4.15,4.15,0,0,1-1.19-3,4.61,4.61,0,0,1,1.62-3.53,6.45,6.45,0,0,1,4.07-1.12,7.78,7.78,0,0,1,5,1.66Z"/><path class="cls-2" d="M311.47,65.27c-.47,1.15-2.23,4.86-7.67,4.86a8.15,8.15,0,0,1-6-2.2,7.84,7.84,0,0,1-2.45-6.08,8.27,8.27,0,0,1,2.38-6.12,8,8,0,0,1,5.86-2.2,7.45,7.45,0,0,1,6.09,2.56,9.35,9.35,0,0,1,1.87,6.12v.36H299.92a4.66,4.66,0,0,0,.75,2.63,3.73,3.73,0,0,0,3.13,1.47,4,4,0,0,0,3.64-2Zm-4-5.51a3.74,3.74,0,0,0-7.38,0Z"/><path class="cls-2" d="M315,54h4.39v2a5.71,5.71,0,0,1,4.82-2.52,6,6,0,0,1,4.61,1.91A6.56,6.56,0,0,1,330,59.83v9.79h-4.39V61.13a4.47,4.47,0,0,0-.83-3.06,2.8,2.8,0,0,0-2.05-.79,3,3,0,0,0-2.7,1.36,5.36,5.36,0,0,0-.68,3v8H315Z"/><path class="cls-2" d="M342.58,43.38H347V56.05a5.72,5.72,0,0,1,4.82-2.52,6,6,0,0,1,4.61,1.91,6.56,6.56,0,0,1,1.22,4.39v9.79h-4.39V61.13a4.42,4.42,0,0,0-.83-3.06,2.8,2.8,0,0,0-2-.79,3,3,0,0,0-2.7,1.36,5.36,5.36,0,0,0-.68,3v8h-4.39Z"/><path class="cls-2" d="M373.75,54h4.39V69.62h-4.39v-2A5.61,5.61,0,0,1,369,70.13c-4.78,0-7.95-3.75-7.95-8.32s3.13-8.28,7.74-8.28a5.64,5.64,0,0,1,5,2.52Zm-8.21,7.77a4.32,4.32,0,1,0,4.32-4.39A4.27,4.27,0,0,0,365.54,61.81Z"/><path class="cls-2" d="M382.32,54h4.39v2.34a5.2,5.2,0,0,1,2-2.16,4.68,4.68,0,0,1,2.59-.69,5.4,5.4,0,0,1,1.87.36L392.54,58a3.26,3.26,0,0,0-2.05-.58,3.57,3.57,0,0,0-2.91,1.26,5.35,5.35,0,0,0-.87,3.46v7.48h-4.39Z"/><path class="cls-2" d="M57.35,101v11.84H53V101H51.23V97.24H53V91.91h4.39v5.33h3V101Z"/><path class="cls-2" d="M74.63,97.24H79v15.58H74.63v-2a5.61,5.61,0,0,1-4.79,2.52c-4.78,0-8-3.75-8-8.32s3.13-8.28,7.74-8.28a5.64,5.64,0,0,1,5,2.52ZM66.42,105a4.32,4.32,0,1,0,4.32-4.39A4.27,4.27,0,0,0,66.42,105Z"/><path class="cls-2" d="M95.08,97.24h4.39V112.1c0,2.38-.22,4.86-2.16,6.8a8.27,8.27,0,0,1-6.15,2.2c-3,0-4.83-.9-5.83-1.8a8.66,8.66,0,0,1-2.53-4.64h4.76a3.69,3.69,0,0,0,1.08,1.87,3.88,3.88,0,0,0,2.66.83,3.68,3.68,0,0,0,2.66-1,4.41,4.41,0,0,0,1.12-3.46v-2.2a5.46,5.46,0,0,1-4.79,2.6,7.36,7.36,0,0,1-5.4-2.13A8.57,8.57,0,0,1,82.41,105a8.68,8.68,0,0,1,2.41-6.19,7.65,7.65,0,0,1,5.36-2.09,5.5,5.5,0,0,1,4.9,2.52Zm-6.73,4.46a4.43,4.43,0,0,0,2.91,7.74,4.45,4.45,0,0,0,2.92-1.08,4.6,4.6,0,0,0,1.4-3.35,4.42,4.42,0,0,0-1.26-3.13,4,4,0,0,0-3.06-1.26A4.23,4.23,0,0,0,88.35,101.7Z"/><path class="cls-2" d="M119,108.47c-.47,1.15-2.23,4.86-7.67,4.86a8.16,8.16,0,0,1-6-2.2,7.88,7.88,0,0,1-2.44-6.08,8.31,8.31,0,0,1,2.37-6.12,8,8,0,0,1,5.87-2.2,7.43,7.43,0,0,1,6.08,2.56,9.31,9.31,0,0,1,1.88,6.12v.36H107.39a4.54,4.54,0,0,0,.76,2.62,3.71,3.71,0,0,0,3.13,1.48,4,4,0,0,0,3.64-2.05Zm-4-5.51a3.74,3.74,0,0,0-7.38,0Z"/><path class="cls-2" d="M126.83,101v11.84h-4.39V101h-1.73V97.24h1.73V91.91h4.39v5.33h3V101Z"/><path class="cls-2" d="M144.94,99.25A6,6,0,0,1,150,96.73c4.6,0,7.66,3.57,7.66,8.28s-3.17,8.32-7.77,8.32a5.89,5.89,0,0,1-5-2.52v2h-4.39V86.58h4.39Zm-.43,5.76a4.32,4.32,0,1,0,4.32-4.39A4.27,4.27,0,0,0,144.51,105Z"/><path class="cls-2" d="M163.26,88a2.63,2.63,0,1,1-2.62,2.63A2.65,2.65,0,0,1,163.26,88Zm2.2,9.22v15.58h-4.39V97.24Z"/><path class="cls-2" d="M174,86.58v26.24h-4.39V86.58Z"/><path class="cls-2" d="M182.59,86.58v26.24H178.2V86.58Z"/><path class="cls-2" d="M202.07,108.47c-.47,1.15-2.23,4.86-7.67,4.86a8.12,8.12,0,0,1-6-2.2,7.85,7.85,0,0,1-2.45-6.08,8.31,8.31,0,0,1,2.37-6.12,8,8,0,0,1,5.87-2.2,7.43,7.43,0,0,1,6.08,2.56,9.31,9.31,0,0,1,1.88,6.12v.36H190.51a4.61,4.61,0,0,0,.76,2.62,3.71,3.71,0,0,0,3.13,1.48,4,4,0,0,0,3.64-2.05ZM198,103a3.74,3.74,0,0,0-7.38,0Z"/><path class="cls-2" d="M217.51,86.58h4.39v26.24h-4.39v-2a5.6,5.6,0,0,1-4.78,2.52c-4.79,0-8-3.75-8-8.32s3.13-8.28,7.74-8.28a5.64,5.64,0,0,1,5,2.52ZM209.31,105a4.32,4.32,0,1,0,4.31-4.39A4.27,4.27,0,0,0,209.31,105Z"/><path class="cls-2" d="M241.38,108.47c-.47,1.15-2.23,4.86-7.67,4.86a8.13,8.13,0,0,1-6-2.2,7.85,7.85,0,0,1-2.45-6.08,8.27,8.27,0,0,1,2.38-6.12,8,8,0,0,1,5.86-2.2,7.45,7.45,0,0,1,6.09,2.56,9.35,9.35,0,0,1,1.87,6.12v.36H229.83a4.6,4.6,0,0,0,.75,2.62,3.71,3.71,0,0,0,3.13,1.48,4,4,0,0,0,3.64-2.05Zm-4-5.51a3.74,3.74,0,0,0-7.38,0Z"/><path class="cls-2" d="M244.87,97.24h4.4v2.34a5.13,5.13,0,0,1,1.94-2.16,4.7,4.7,0,0,1,2.59-.69,5.35,5.35,0,0,1,1.87.36l-.57,4.11a3.31,3.31,0,0,0-2.06-.58,3.58,3.58,0,0,0-2.91,1.26,5.33,5.33,0,0,0-.86,3.45v7.49h-4.4Z"/><path class="cls-2" d="M278.17,97.24h4.39v15.58h-4.39v-2a5.61,5.61,0,0,1-4.79,2.52c-4.78,0-7.95-3.75-7.95-8.32s3.13-8.28,7.74-8.28a5.64,5.64,0,0,1,5,2.52ZM270,105a4.32,4.32,0,1,0,4.32-4.39A4.27,4.27,0,0,0,270,105Z"/><path class="cls-2" d="M291.2,101v11.84h-4.39V101h-1.65V97.24h1.65V93c0-1.44.11-3.89,2.05-5.5a5.83,5.83,0,0,1,3.86-1.3,5.66,5.66,0,0,1,2.52.54v4a3.12,3.12,0,0,0-2-.64,1.73,1.73,0,0,0-1.58.79,5.14,5.14,0,0,0-.47,2.7v3.71h4V101Z"/><path class="cls-2" d="M305.64,97.24H310V99a5.74,5.74,0,0,1,4.64-2.27,5.16,5.16,0,0,1,4.94,2.85,5.71,5.71,0,0,1,5-2.85,5,5,0,0,1,4.21,1.91c1,1.33,1.08,2.66,1.08,4.39v9.79h-4.39v-8.49a4.74,4.74,0,0,0-.72-3.06,2.21,2.21,0,0,0-1.8-.79,2.58,2.58,0,0,0-2.41,1.36,5.91,5.91,0,0,0-.61,3v7.95h-4.4v-8.49a4.68,4.68,0,0,0-.72-3.06,2.19,2.19,0,0,0-1.8-.79,2.59,2.59,0,0,0-2.41,1.36,6,6,0,0,0-.61,3v7.95h-4.39Z"/><path class="cls-2" d="M336.27,88a2.63,2.63,0,1,1-2.62,2.63A2.65,2.65,0,0,1,336.27,88Zm2.2,9.22v15.58h-4.39V97.24Z"/><path class="cls-2" d="M354.52,97.24h4.4V112.1c0,2.38-.22,4.86-2.16,6.8a8.3,8.3,0,0,1-6.16,2.2c-3,0-4.82-.9-5.83-1.8a8.65,8.65,0,0,1-2.52-4.64H347a3.76,3.76,0,0,0,1.08,1.87,3.9,3.9,0,0,0,2.67.83,3.72,3.72,0,0,0,2.66-1,4.4,4.4,0,0,0,1.11-3.46v-2.2a5.45,5.45,0,0,1-4.78,2.6,7.36,7.36,0,0,1-5.4-2.13,9,9,0,0,1-.07-12.38,7.61,7.61,0,0,1,5.36-2.09,5.49,5.49,0,0,1,4.89,2.52Zm-6.73,4.46a4.43,4.43,0,0,0,2.92,7.74,4.41,4.41,0,0,0,2.91-1.08A4.61,4.61,0,0,0,355,105a4.46,4.46,0,0,0-1.26-3.13,4,4,0,0,0-3.06-1.26A4.26,4.26,0,0,0,347.79,101.7Z"/><path class="cls-2" d="M373.68,88a2.63,2.63,0,1,1-2.63,2.63A2.65,2.65,0,0,1,373.68,88Zm2.19,9.22v15.58h-4.39V97.24Z"/><path class="cls-2" d="M67.4,142.13a8.41,8.41,0,0,1,0,12.2,9,9,0,0,1-6.3,2.2,8.94,8.94,0,0,1-6.3-2.2,8.39,8.39,0,0,1,0-12.2,8.94,8.94,0,0,1,6.3-2.2A9,9,0,0,1,67.4,142.13Zm-1.91,6.12a4.39,4.39,0,1,0-4.39,4.39A4.35,4.35,0,0,0,65.49,148.25Z"/><path class="cls-2" d="M73.41,140.44H77.8v1.76a5.74,5.74,0,0,1,4.64-2.27,5.13,5.13,0,0,1,4.93,2.85,5.75,5.75,0,0,1,5-2.85,5,5,0,0,1,4.21,1.91c1,1.33,1.08,2.66,1.08,4.39V156H93.28v-8.49a4.74,4.74,0,0,0-.72-3.06,2.21,2.21,0,0,0-1.8-.79A2.58,2.58,0,0,0,88.35,145a5.91,5.91,0,0,0-.61,3v8h-4.4v-8.49a4.68,4.68,0,0,0-.72-3.06,2.19,2.19,0,0,0-1.8-.79A2.59,2.59,0,0,0,78.41,145a6,6,0,0,0-.61,3v8H73.41Z"/><path class="cls-2" d="M106.24,129.78v16.34l5.83-5.68h5.69l-7.31,6.84,7.88,8.74H112.5l-5.79-6.66-.47.44V156h-4.39V129.78Z"/><path class="cls-2" d="M124.67,129.78V156h-4.39V129.78Z"/><path class="cls-2" d="M154.44,151.67a7.93,7.93,0,0,1-7.67,4.86,6.7,6.7,0,0,1-6-3,7.54,7.54,0,0,1-6.27,3c-4.32,0-6.4-2.42-6.4-5a4.64,4.64,0,0,1,1.58-3.6,7.3,7.3,0,0,1,5-1.62,7.93,7.93,0,0,1,4,1.08l0-.76a2.9,2.9,0,0,0-1.33-2.55,5.55,5.55,0,0,0-2.92-.65,15.5,15.5,0,0,0-4,.61v-3.49a18,18,0,0,1,4.32-.58c1.87,0,4.39.18,5.94,2.63a7,7,0,0,1,5.9-2.63,7.48,7.48,0,0,1,6.05,2.56,9.35,9.35,0,0,1,1.87,6.12V149H142.89a4.13,4.13,0,0,0,.75,2.62,3.66,3.66,0,0,0,3.13,1.48,4,4,0,0,0,3.64-2Zm-19.08,1.76c2.45,0,3.31-1.33,3.31-2.2s-.72-1.87-3.34-1.87c-2.34,0-3,1.12-3,1.95S133.06,153.43,135.36,153.43Zm15-7.27a3.74,3.74,0,0,0-7.38,0Z"/><path class="cls-2" d="M169.89,129.78h4.39V156h-4.39v-2a5.63,5.63,0,0,1-4.79,2.52c-4.79,0-8-3.75-8-8.32s3.14-8.28,7.74-8.28a5.67,5.67,0,0,1,5,2.52Zm-8.21,18.43a4.32,4.32,0,1,0,4.32-4.39A4.27,4.27,0,0,0,161.68,148.21Z"/><path class="cls-2" d="M178.46,140.44h4.39v2a5.71,5.71,0,0,1,4.82-2.52,6,6,0,0,1,4.61,1.91,6.56,6.56,0,0,1,1.22,4.39V156h-4.39v-8.49a4.47,4.47,0,0,0-.83-3.06,2.8,2.8,0,0,0-2.05-.79,3,3,0,0,0-2.7,1.36,5.36,5.36,0,0,0-.68,3v8h-4.39Z"/><path class="cls-2" d="M199.87,131.22a2.63,2.63,0,1,1-2.62,2.63A2.65,2.65,0,0,1,199.87,131.22Zm2.2,9.22V156h-4.39V140.44Z"/><path class="cls-2" d="M206.25,140.44h4.39v2a5.71,5.71,0,0,1,4.82-2.52,6,6,0,0,1,4.61,1.91,6.56,6.56,0,0,1,1.22,4.39V156H216.9v-8.49a4.47,4.47,0,0,0-.83-3.06,2.8,2.8,0,0,0-2-.79,3,3,0,0,0-2.7,1.36,5.36,5.36,0,0,0-.68,3v8h-4.39Z"/><path class="cls-2" d="M237.35,140.44h4.39V155.3c0,2.38-.22,4.86-2.16,6.81a8.28,8.28,0,0,1-6.16,2.19c-3,0-4.82-.9-5.83-1.8a8.65,8.65,0,0,1-2.52-4.64h4.76a3.62,3.62,0,0,0,1.08,1.87,3.88,3.88,0,0,0,2.66.83,3.68,3.68,0,0,0,2.66-1,4.41,4.41,0,0,0,1.12-3.46v-2.2a5.46,5.46,0,0,1-4.79,2.6,7.36,7.36,0,0,1-5.4-2.13,8.57,8.57,0,0,1-2.48-6.19,8.68,8.68,0,0,1,2.41-6.19,7.65,7.65,0,0,1,5.36-2.09,5.5,5.5,0,0,1,4.9,2.52Zm-6.73,4.46a4.43,4.43,0,0,0,2.91,7.74,4.45,4.45,0,0,0,2.92-1.08,4.6,4.6,0,0,0,1.4-3.35,4.44,4.44,0,0,0-1.26-3.13,4,4,0,0,0-3.06-1.26A4.19,4.19,0,0,0,230.62,144.9Z"/><path class="cls-2" d="M261.21,151.67c-.46,1.15-2.23,4.86-7.66,4.86a8.16,8.16,0,0,1-6-2.2,7.84,7.84,0,0,1-2.45-6.08,8.27,8.27,0,0,1,2.38-6.12,8,8,0,0,1,5.87-2.2,7.43,7.43,0,0,1,6.08,2.56,9.3,9.3,0,0,1,1.87,6.12V149H249.66a4.54,4.54,0,0,0,.76,2.62,3.69,3.69,0,0,0,3.13,1.48,4,4,0,0,0,3.63-2Zm-4-5.51a3.74,3.74,0,0,0-7.38,0Z"/><path class="cls-2" d="M264.71,140.44h4.39v2a5.72,5.72,0,0,1,4.82-2.52,6,6,0,0,1,4.61,1.91,6.56,6.56,0,0,1,1.22,4.39V156h-4.39v-8.49a4.46,4.46,0,0,0-.82-3.06,2.82,2.82,0,0,0-2.06-.79,3,3,0,0,0-2.7,1.36,5.45,5.45,0,0,0-.68,3v8h-4.39Z"/><path class="cls-2" d="M286.38,150.88a2.81,2.81,0,1,1-2.81,2.8A2.77,2.77,0,0,1,286.38,150.88Z"/></g></svg>
