<svg xmlns="http://www.w3.org/2000/svg" width="473.69" height="191.3" viewBox="0 0 473.69 191.3"><defs><style>.cls-1{fill:#f2902c;}.cls-2{fill:#fff;}</style></defs><title>bubble_4</title><g id="Oversigt"><g id="bobler-højre_copy" data-name="bobler-højre copy"><path class="cls-1" d="M0,172.21c0,9.57,4,15.85,12.05,18.87,1.58,0,3.17.1,4.74.1H437.24c.22,0,.44,0,.68,0,7,.19,14,.12,20.95,0,.27,0,.53,0,.79,0,8.08-.58,13.94-8.48,13.93-18.81,0-50.49-.19-101,.1-151.48C473.76,8,466.42,0,457,0Q236.14.32,15.26.15C6.18.15,0,7.88,0,19.32Q0,95.76,0,172.21Z"/></g></g><g id="Tekster"><path class="cls-2" d="M83.72,59v16.2c0,2.12-.14,5.47-2.81,7.27A7.37,7.37,0,0,1,77,83.59a7.94,7.94,0,0,1-5.51-2.23l2.85-3.42a2.76,2.76,0,0,0,2.34,1.29,2.06,2.06,0,0,0,1.83-.83c.58-.82.54-2.41.54-3.88V59Z"/><path class="cls-2" d="M103.84,78.69c-.46,1.15-2.23,4.86-7.66,4.86a8.19,8.19,0,0,1-6-2.19,7.86,7.86,0,0,1-2.45-6.09,8.31,8.31,0,0,1,2.38-6.12A8,8,0,0,1,96,67a7.47,7.47,0,0,1,6.08,2.55A9.3,9.3,0,0,1,104,75.63V76H92.29A4.61,4.61,0,0,0,93,78.62a3.73,3.73,0,0,0,3.14,1.48A4,4,0,0,0,99.81,78Zm-4-5.5a3.74,3.74,0,0,0-7.38,0Z"/><path class="cls-2" d="M119.22,67.46h4.39V82.33c0,2.37-.22,4.86-2.16,6.8a8.28,8.28,0,0,1-6.16,2.2c-3,0-4.82-.9-5.83-1.8a8.68,8.68,0,0,1-2.52-4.65h4.75a3.83,3.83,0,0,0,1.08,1.88,3.9,3.9,0,0,0,2.67.82,3.7,3.7,0,0,0,2.66-1,4.37,4.37,0,0,0,1.12-3.45V81a5.48,5.48,0,0,1-4.79,2.59,7.4,7.4,0,0,1-5.4-2.12A9.06,9.06,0,0,1,109,69.05,7.59,7.59,0,0,1,114.32,67a5.49,5.49,0,0,1,4.9,2.52Zm-6.73,4.47a4.22,4.22,0,0,0-1.41,3.31,4.39,4.39,0,0,0,1.15,3.06,4.3,4.3,0,0,0,3.17,1.36,4.4,4.4,0,0,0,2.92-1.08,4.56,4.56,0,0,0,1.4-3.34,4.42,4.42,0,0,0-1.26-3.13,4,4,0,0,0-3.06-1.26A4.17,4.17,0,0,0,112.49,71.93Z"/><path class="cls-2" d="M144.67,71.17a3.66,3.66,0,0,0-2.56-1c-1,0-1.69.5-1.69,1.26,0,.39.18,1,1.4,1.4l1.05.32c1.22.4,3.06,1,4,2.23a4.61,4.61,0,0,1,.79,2.6,5.2,5.2,0,0,1-1.73,4,6.55,6.55,0,0,1-4.68,1.65,7.87,7.87,0,0,1-6-2.59l2.3-2.66a4.85,4.85,0,0,0,3.45,1.8c1.23,0,2.16-.62,2.16-1.7a1.74,1.74,0,0,0-1.36-1.58l-1-.36a8.36,8.36,0,0,1-3.35-1.87,4.2,4.2,0,0,1-1.19-3,4.64,4.64,0,0,1,1.62-3.53A6.45,6.45,0,0,1,141.86,67a7.78,7.78,0,0,1,5,1.65Z"/><path class="cls-2" d="M155.11,56.81V73.15l5.83-5.69h5.69l-7.31,6.84,7.88,8.75h-5.83l-5.79-6.66-.47.43v6.23h-4.39V56.81Z"/><path class="cls-2" d="M181.1,67.46h4.39V83.05H181.1V81a5.59,5.59,0,0,1-4.79,2.52c-4.79,0-7.95-3.74-7.95-8.31S171.49,67,176.09,67a5.64,5.64,0,0,1,5,2.52Zm-8.21,7.78a4.32,4.32,0,1,0,4.32-4.39A4.26,4.26,0,0,0,172.89,75.24Z"/><path class="cls-2" d="M194.06,56.81V83.05h-4.39V56.81Z"/><path class="cls-2" d="M206.62,56.81H211V69.48A5.74,5.74,0,0,1,215.84,67a5.92,5.92,0,0,1,4.6,1.91,6.55,6.55,0,0,1,1.23,4.39v9.79h-4.39v-8.5a4.49,4.49,0,0,0-.83-3.06,2.82,2.82,0,0,0-2-.79,3,3,0,0,0-2.7,1.37,5.35,5.35,0,0,0-.69,3v8h-4.39Z"/><path class="cls-2" d="M237.8,67.46h4.39V83.05H237.8V81A5.6,5.6,0,0,1,233,83.55c-4.79,0-8-3.74-8-8.31S228.19,67,232.79,67a5.64,5.64,0,0,1,5,2.52Zm-8.21,7.78a4.32,4.32,0,1,0,4.32-4.39A4.26,4.26,0,0,0,229.59,75.24Z"/><path class="cls-2" d="M249.25,67.46l4.1,8.78,4.1-8.78h4.9L254.5,83.05h-2.3l-7.85-15.59Z"/><path class="cls-2" d="M279.45,78.69c-.47,1.15-2.23,4.86-7.67,4.86a8.15,8.15,0,0,1-6-2.19,7.86,7.86,0,0,1-2.45-6.09,8.34,8.34,0,0,1,2.37-6.12A8,8,0,0,1,271.6,67a7.45,7.45,0,0,1,6.08,2.55,9.31,9.31,0,0,1,1.88,6.12V76H267.89a4.62,4.62,0,0,0,.76,2.63,3.71,3.71,0,0,0,3.13,1.48A4,4,0,0,0,275.42,78Zm-4-5.5a3.74,3.74,0,0,0-7.38,0Z"/><path class="cls-2" d="M295.72,56.81V73.15l5.83-5.69h5.69l-7.31,6.84,7.89,8.75H302l-5.79-6.66-.47.43v6.23h-4.39V56.81Z"/><path class="cls-2" d="M310.12,80.46a8.41,8.41,0,0,1-1.76-5.19A8.23,8.23,0,0,1,311,69.15,9,9,0,0,1,317.28,67a9.18,9.18,0,0,1,5,1.29l2.45-2.44,2,1.83L324.41,70a8.44,8.44,0,0,1,1.8,5.25,8.21,8.21,0,0,1-2.63,6.09,9,9,0,0,1-6.3,2.19,9.08,9.08,0,0,1-5.11-1.33L309.8,84.6l-2-1.8Zm9.14-9.15a3.81,3.81,0,0,0-1.87-.46,4.31,4.31,0,0,0-4.5,4.46,4.75,4.75,0,0,0,.44,1.94Zm-4,7.85a4.27,4.27,0,0,0,2.09.5,4,4,0,0,0,3.13-1.29,4.37,4.37,0,0,0,1.22-3.17,3.51,3.51,0,0,0-.5-2Z"/><path class="cls-2" d="M334.13,69.48A6.06,6.06,0,0,1,339.21,67c4.61,0,7.66,3.56,7.66,8.28s-3.16,8.31-7.77,8.31a5.89,5.89,0,0,1-5-2.52v2h-4.39V56.81h4.39Zm-.43,5.76A4.32,4.32,0,1,0,338,70.85,4.26,4.26,0,0,0,333.7,75.24Z"/><path class="cls-2" d="M354.65,71.21V83.05h-4.39V71.21h-1.73V67.46h1.73V62.13h4.39v5.33h3v3.75Z"/><path class="cls-2" d="M383.67,78.69c-.47,1.15-2.24,4.86-7.67,4.86a8.19,8.19,0,0,1-6-2.19,7.89,7.89,0,0,1-2.44-6.09A8.34,8.34,0,0,1,370,69.15,8,8,0,0,1,375.82,67a7.45,7.45,0,0,1,6.08,2.55,9.3,9.3,0,0,1,1.87,6.12V76H372.11a4.55,4.55,0,0,0,.76,2.63A3.71,3.71,0,0,0,376,80.1,4,4,0,0,0,379.63,78Zm-4-5.5a3.73,3.73,0,0,0-7.37,0Z"/><path class="cls-2" d="M387.16,67.46h4.39v2A5.72,5.72,0,0,1,396.37,67,5.93,5.93,0,0,1,401,68.87a6.55,6.55,0,0,1,1.23,4.39v9.79h-4.4v-8.5a4.48,4.48,0,0,0-.82-3.06,2.82,2.82,0,0,0-2.06-.79,3,3,0,0,0-2.69,1.37,5.35,5.35,0,0,0-.69,3v8h-4.39Z"/><path class="cls-2" d="M74.51,110.66H78.9v2a5.71,5.71,0,0,1,4.82-2.52,5.94,5.94,0,0,1,4.61,1.91,6.56,6.56,0,0,1,1.22,4.39v9.79H85.16v-8.5a4.49,4.49,0,0,0-.83-3.06,2.8,2.8,0,0,0-2-.79,3,3,0,0,0-2.7,1.37,5.33,5.33,0,0,0-.68,3v8H74.51Z"/><path class="cls-2" d="M98.41,123.91,91,110.66H96.1l4.83,8.86,4.32-8.86h5L97.65,134.49h-5Z"/><path class="cls-2" d="M123.65,110.66l4.1,8.78,4.1-8.78h4.9l-7.85,15.59h-2.3l-7.85-15.59Z"/><path class="cls-2" d="M141.1,101.45a2.63,2.63,0,1,1-2.62,2.62A2.64,2.64,0,0,1,141.1,101.45Zm2.2,9.21v15.59h-4.39V110.66Z"/><path class="cls-2" d="M147.48,110.66h4.39v2a5.71,5.71,0,0,1,4.82-2.52,5.93,5.93,0,0,1,4.61,1.91,6.56,6.56,0,0,1,1.22,4.39v9.79h-4.39v-8.5a4.49,4.49,0,0,0-.83-3.06,2.8,2.8,0,0,0-2.05-.79,3,3,0,0,0-2.7,1.37,5.33,5.33,0,0,0-.68,3v8h-4.39Z"/><path class="cls-2" d="M171.09,100v16.34l5.83-5.69h5.69l-7.31,6.84,7.88,8.75h-5.83l-5.79-6.66-.47.43v6.23H166.7V100Z"/><path class="cls-2" d="M200,121.89c-.46,1.15-2.23,4.86-7.66,4.86a8.19,8.19,0,0,1-6-2.19,7.86,7.86,0,0,1-2.45-6.09,8.31,8.31,0,0,1,2.38-6.12,8,8,0,0,1,5.87-2.19,7.47,7.47,0,0,1,6.08,2.55,9.35,9.35,0,0,1,1.87,6.12v.36H188.48a4.55,4.55,0,0,0,.76,2.63,3.68,3.68,0,0,0,3.13,1.48,4,4,0,0,0,3.63-2.06Zm-4-5.51a3.74,3.74,0,0,0-7.38,0Z"/><path class="cls-2" d="M207.92,100v26.24h-4.39V100Z"/><path class="cls-2" d="M212.09,110.66h4.4v1.77a5.72,5.72,0,0,1,4.64-2.27,5.14,5.14,0,0,1,4.93,2.84,5.75,5.75,0,0,1,5-2.84,4.92,4.92,0,0,1,4.21,1.91,6.58,6.58,0,0,1,1.08,4.39v9.79H232v-8.5a4.81,4.81,0,0,0-.71-3.06,2.22,2.22,0,0,0-1.81-.79,2.58,2.58,0,0,0-2.41,1.37,6,6,0,0,0-.61,3v8H222v-8.5a4.79,4.79,0,0,0-.72-3.06,2.21,2.21,0,0,0-1.8-.79,2.57,2.57,0,0,0-2.41,1.37,5.85,5.85,0,0,0-.61,3v8h-4.4Z"/><path class="cls-2" d="M252.49,110.66h4.39v15.59h-4.39v-2a5.6,5.6,0,0,1-4.79,2.52c-4.79,0-8-3.74-8-8.31s3.13-8.28,7.74-8.28a5.64,5.64,0,0,1,5,2.52Zm-8.21,7.78a4.32,4.32,0,1,0,4.32-4.4A4.26,4.26,0,0,0,244.28,118.44Zm4.35-17.17a3.38,3.38,0,1,1-3.38,3.38A3.42,3.42,0,0,1,248.63,101.27Zm0,4.78a1.4,1.4,0,1,0-1.4-1.4A1.34,1.34,0,0,0,248.63,106.05Z"/><path class="cls-2" d="M265.45,100v26.24h-4.4V100Z"/><path class="cls-2" d="M284.92,121.89c-.47,1.15-2.23,4.86-7.67,4.86a8.17,8.17,0,0,1-6-2.19,7.86,7.86,0,0,1-2.45-6.09,8.31,8.31,0,0,1,2.38-6.12,8,8,0,0,1,5.86-2.19,7.48,7.48,0,0,1,6.09,2.55,9.35,9.35,0,0,1,1.87,6.12v.36H273.36a4.62,4.62,0,0,0,.76,2.63,3.71,3.71,0,0,0,3.13,1.48,4,4,0,0,0,3.64-2.06Zm-4-5.51a3.74,3.74,0,0,0-7.38,0Z"/><path class="cls-2" d="M288.41,110.66h4.4V113a5.2,5.2,0,0,1,1.94-2.16,4.79,4.79,0,0,1,2.59-.68,5.35,5.35,0,0,1,1.87.36l-.57,4.1a3.36,3.36,0,0,0-2.05-.58,3.6,3.6,0,0,0-2.92,1.27,5.32,5.32,0,0,0-.86,3.45v7.49h-4.4Z"/><path class="cls-2" d="M302,121.1a2.81,2.81,0,1,1-2.81,2.81A2.77,2.77,0,0,1,302,121.1Z"/></g></svg>
