<svg xmlns="http://www.w3.org/2000/svg" width="473.69" height="191.3" viewBox="0 0 473.69 191.3"><defs><style>.cls-1{fill:#f2902c;}.cls-2{fill:#fff;}</style></defs><title>bubble_3</title><g id="Oversigt"><g id="bobler-højre_copy" data-name="bobler-højre copy"><path class="cls-1" d="M.83,172.21c0,9.57,4,15.85,12.06,18.87,1.58,0,3.16.1,4.74.1H438.08c.21,0,.43,0,.67,0,7,.19,14,.12,21,0l.78,0c8.09-.58,13.94-8.48,13.93-18.81,0-50.49-.19-101,.1-151.48C474.59,8,467.25,0,457.87,0Q237,.32,16.09.15C7,.15.87,7.88.87,19.32Q.87,95.76.83,172.21Z"/></g></g><g id="Tekster"><path class="cls-2" d="M74.53,64.18v-24h3.24l14.61,16v-16h4.68v24H93.82L79.21,48.12V64.18Z"/><path class="cls-2" d="M116.32,50.28a8.39,8.39,0,0,1,0,12.2,10.12,10.12,0,0,1-12.6,0,8.41,8.41,0,0,1,0-12.2,10.16,10.16,0,0,1,12.6,0Zm-1.91,6.12A4.39,4.39,0,1,0,110,60.79,4.35,4.35,0,0,0,114.41,56.4Z"/><path class="cls-2" d="M134.21,48.59h4.39V63.46c0,2.37-.21,4.86-2.15,6.8a8.3,8.3,0,0,1-6.16,2.2c-3,0-4.82-.9-5.83-1.8A8.68,8.68,0,0,1,121.94,66h4.75a3.38,3.38,0,0,0,3.74,2.7,3.73,3.73,0,0,0,2.67-1,4.37,4.37,0,0,0,1.11-3.45v-2.2a5.46,5.46,0,0,1-4.78,2.59,7.4,7.4,0,0,1-5.4-2.12,8.57,8.57,0,0,1-2.49-6.19,8.67,8.67,0,0,1,2.42-6.2,7.6,7.6,0,0,1,5.36-2.08,5.47,5.47,0,0,1,4.89,2.52Zm-6.73,4.46a4.29,4.29,0,0,0-1.4,3.32,4.35,4.35,0,0,0,1.15,3.06,4.29,4.29,0,0,0,3.17,1.36,4.36,4.36,0,0,0,2.91-1.08,4.57,4.57,0,0,0,1.41-3.34,4.47,4.47,0,0,0-1.26-3.14A4,4,0,0,0,130.4,52,4.24,4.24,0,0,0,127.48,53.05Z"/><path class="cls-2" d="M158.08,59.82c-.47,1.15-2.23,4.86-7.67,4.86a8.13,8.13,0,0,1-6-2.2A7.82,7.82,0,0,1,142,56.4a8.31,8.31,0,0,1,2.38-6.12,8,8,0,0,1,5.86-2.19,7.48,7.48,0,0,1,6.09,2.55,9.35,9.35,0,0,1,1.87,6.12v.36H146.53a4.61,4.61,0,0,0,.75,2.63,3.71,3.71,0,0,0,3.13,1.47,4,4,0,0,0,3.64-2Zm-4-5.51a3.74,3.74,0,0,0-7.38,0Z"/><path class="cls-2" d="M161.57,48.59H166v2a5.71,5.71,0,0,1,4.82-2.52A6,6,0,0,1,175.4,50a6.58,6.58,0,0,1,1.22,4.4v9.79h-4.39v-8.5a4.49,4.49,0,0,0-.83-3.06,2.8,2.8,0,0,0-2.05-.79,3,3,0,0,0-2.7,1.37,5.33,5.33,0,0,0-.68,3v8h-4.4Z"/><path class="cls-2" d="M189.19,37.94h4.39V50.61a5.72,5.72,0,0,1,4.82-2.52A6,6,0,0,1,203,50a6.58,6.58,0,0,1,1.22,4.4v9.79h-4.39v-8.5a4.49,4.49,0,0,0-.83-3.06,2.8,2.8,0,0,0-2-.79,3,3,0,0,0-2.7,1.37,5.33,5.33,0,0,0-.68,3v8h-4.39Z"/><path class="cls-2" d="M220.36,48.59h4.39V64.18h-4.39v-2a5.58,5.58,0,0,1-4.79,2.52c-4.78,0-7.95-3.74-7.95-8.31s3.13-8.28,7.74-8.28a5.64,5.64,0,0,1,5,2.52Zm-8.21,7.78a4.32,4.32,0,1,0,4.32-4.4A4.26,4.26,0,0,0,212.15,56.37Z"/><path class="cls-2" d="M228.93,48.59h4.39v2.34a5.27,5.27,0,0,1,1.94-2.16,4.82,4.82,0,0,1,2.6-.68,5.45,5.45,0,0,1,1.87.36l-.58,4.1A3.28,3.28,0,0,0,237.1,52a3.6,3.6,0,0,0-2.92,1.26,5.42,5.42,0,0,0-.86,3.46v7.49h-4.39Z"/><path class="cls-2" d="M253.16,48.59l4.1,8.78,4.1-8.78h4.9l-7.85,15.59h-2.3l-7.85-15.59Z"/><path class="cls-2" d="M270.61,39.38A2.63,2.63,0,1,1,268,42,2.63,2.63,0,0,1,270.61,39.38Zm2.2,9.21V64.18h-4.39V48.59Z"/><path class="cls-2" d="M285.48,52.3a3.66,3.66,0,0,0-2.55-1c-1.05,0-1.7.51-1.7,1.26,0,.4.18,1,1.41,1.41l1,.32c1.23.4,3.06,1,4,2.23a4.53,4.53,0,0,1,.79,2.6,5.19,5.19,0,0,1-1.72,4A6.56,6.56,0,0,1,282,64.68a7.89,7.89,0,0,1-6-2.59l2.3-2.66a4.86,4.86,0,0,0,3.46,1.79c1.22,0,2.16-.61,2.16-1.69A1.74,1.74,0,0,0,282.53,58l-1-.36a8.55,8.55,0,0,1-3.35-1.87,4.19,4.19,0,0,1-1.18-3,4.64,4.64,0,0,1,1.62-3.53,6.41,6.41,0,0,1,4.06-1.11,7.78,7.78,0,0,1,5,1.65Z"/><path class="cls-2" d="M295.92,52.33V64.18h-4.39V52.33H289.8V48.59h1.73V43.26h4.39v5.33h3v3.74Z"/><path class="cls-2" d="M311.83,39.38A2.63,2.63,0,1,1,309.21,42,2.64,2.64,0,0,1,311.83,39.38Zm2.2,9.21V64.18h-4.39V48.59Z"/><path class="cls-2" d="M318.21,48.59h4.39v2a5.71,5.71,0,0,1,4.82-2.52A6,6,0,0,1,332,50a6.58,6.58,0,0,1,1.22,4.4v9.79h-4.39v-8.5a4.49,4.49,0,0,0-.83-3.06,2.8,2.8,0,0,0-2-.79,3,3,0,0,0-2.7,1.37,5.33,5.33,0,0,0-.68,3v8h-4.39Z"/><path class="cls-2" d="M341.82,52.33V64.18h-4.39V52.33H335.7V48.59h1.73V43.26h4.39v5.33h3v3.74Z"/><path class="cls-2" d="M349.34,39.38A2.63,2.63,0,1,1,346.72,42,2.64,2.64,0,0,1,349.34,39.38Zm2.2,9.21V64.18h-4.39V48.59Z"/><path class="cls-2" d="M355.72,48.59h4.39v1.76a5.74,5.74,0,0,1,4.64-2.26,5.14,5.14,0,0,1,4.93,2.84,5.76,5.76,0,0,1,5-2.84A5,5,0,0,1,378.9,50c1,1.34,1.08,2.67,1.08,4.4v9.79h-4.4v-8.5a4.81,4.81,0,0,0-.71-3.06,2.21,2.21,0,0,0-1.8-.79,2.59,2.59,0,0,0-2.42,1.37,6,6,0,0,0-.61,3v8h-4.39v-8.5a4.79,4.79,0,0,0-.72-3.06,2.21,2.21,0,0,0-1.8-.79,2.57,2.57,0,0,0-2.41,1.37,5.85,5.85,0,0,0-.61,3v8h-4.39Z"/><path class="cls-2" d="M399.45,59.82c-.46,1.15-2.23,4.86-7.66,4.86a8.16,8.16,0,0,1-6-2.2,7.82,7.82,0,0,1-2.45-6.08,8.31,8.31,0,0,1,2.38-6.12,8,8,0,0,1,5.87-2.19,7.47,7.47,0,0,1,6.08,2.55,9.35,9.35,0,0,1,1.87,6.12v.36H387.9a4.55,4.55,0,0,0,.76,2.63,3.68,3.68,0,0,0,3.13,1.47,4,4,0,0,0,3.63-2Zm-4-5.51a3.74,3.74,0,0,0-7.38,0Z"/><path class="cls-2" d="M78.27,93.81a6,6,0,0,1,5.08-2.52c4.6,0,7.66,3.56,7.66,8.28s-3.16,8.31-7.77,8.31a5.89,5.89,0,0,1-5-2.52v2H73.88V81.14h4.39Zm-.43,5.76a4.32,4.32,0,1,0,4.32-4.4A4.26,4.26,0,0,0,77.84,99.57Z"/><path class="cls-2" d="M96.59,82.58A2.63,2.63,0,1,1,94,85.2,2.63,2.63,0,0,1,96.59,82.58Zm2.2,9.21v15.59H94.4V91.79Z"/><path class="cls-2" d="M107.36,81.14v26.24H103V81.14Z"/><path class="cls-2" d="M115.93,81.14v26.24h-4.4V81.14Z"/><path class="cls-2" d="M135.4,103c-.47,1.15-2.23,4.86-7.67,4.86a8.13,8.13,0,0,1-6-2.2,7.84,7.84,0,0,1-2.45-6.08,8.31,8.31,0,0,1,2.38-6.12,8,8,0,0,1,5.86-2.19,7.48,7.48,0,0,1,6.09,2.55,9.35,9.35,0,0,1,1.87,6.12v.36H123.84a4.62,4.62,0,0,0,.76,2.63,3.71,3.71,0,0,0,3.13,1.48,4,4,0,0,0,3.64-2.06Zm-4-5.51a3.74,3.74,0,0,0-7.38,0Z"/><path class="cls-2" d="M150.84,81.14h4.4v26.24h-4.4v-2a5.58,5.58,0,0,1-4.78,2.52c-4.79,0-8-3.74-8-8.31s3.13-8.28,7.74-8.28a5.62,5.62,0,0,1,5,2.52Zm-8.2,18.43a4.32,4.32,0,1,0,4.32-4.4A4.26,4.26,0,0,0,142.64,99.57Z"/><path class="cls-2" d="M174.71,103c-.47,1.15-2.23,4.86-7.67,4.86a8.13,8.13,0,0,1-6-2.2,7.84,7.84,0,0,1-2.45-6.08A8.31,8.31,0,0,1,161,93.48a8,8,0,0,1,5.86-2.19A7.48,7.48,0,0,1,173,93.84a9.35,9.35,0,0,1,1.87,6.12v.36H163.16a4.61,4.61,0,0,0,.75,2.63,3.71,3.71,0,0,0,3.13,1.48,4,4,0,0,0,3.64-2.06Zm-4-5.51a3.74,3.74,0,0,0-7.38,0Z"/><path class="cls-2" d="M178.21,91.79h4.39v2.34A5.27,5.27,0,0,1,184.54,92a4.79,4.79,0,0,1,2.59-.68,5.35,5.35,0,0,1,1.87.36l-.57,4.1a3.28,3.28,0,0,0-2.05-.58,3.59,3.59,0,0,0-2.92,1.26,5.36,5.36,0,0,0-.86,3.46v7.49h-4.39Z"/><path class="cls-2" d="M211.5,91.79h4.4v15.59h-4.4v-2a5.58,5.58,0,0,1-4.78,2.52c-4.79,0-8-3.74-8-8.31s3.13-8.28,7.74-8.28a5.62,5.62,0,0,1,5,2.52Zm-8.2,7.78a4.32,4.32,0,1,0,4.32-4.4A4.26,4.26,0,0,0,203.3,99.57Z"/><path class="cls-2" d="M224.54,95.53v11.85h-4.39V95.53h-1.66V91.79h1.66V87.51c0-1.44.1-3.89,2-5.51a5.83,5.83,0,0,1,3.85-1.3,5.66,5.66,0,0,1,2.52.54v4a3,3,0,0,0-2-.65,1.77,1.77,0,0,0-1.59.79,5.21,5.21,0,0,0-.46,2.7v3.71h4v3.74Z"/><path class="cls-2" d="M253.84,102.34h-9.68l-2.13,5H237l10.33-24H251l10,24h-5Zm-1.37-3.82-3.42-8.64-3.42,8.64Z"/><path class="cls-2" d="M267.56,81.14v26.24h-4.4V81.14Z"/><path class="cls-2" d="M287,103c-.47,1.15-2.23,4.86-7.67,4.86a8.12,8.12,0,0,1-6-2.2,7.84,7.84,0,0,1-2.45-6.08,8.31,8.31,0,0,1,2.38-6.12,8,8,0,0,1,5.86-2.19,7.45,7.45,0,0,1,6.08,2.55,9.31,9.31,0,0,1,1.88,6.12v.36H275.47a4.62,4.62,0,0,0,.76,2.63,3.71,3.71,0,0,0,3.13,1.48,4,4,0,0,0,3.64-2.06Zm-4-5.51a3.74,3.74,0,0,0-7.38,0Z"/><path class="cls-2" d="M295.17,98.88l-6-7.09h5.54l3.17,4,3.24-4h5.54l-6.08,7.09,7.38,8.5h-5.61l-4.47-5.44-4.53,5.44h-5.62Z"/><path class="cls-2" d="M322.92,115.62h-4.39V91.79h4.39v2A5.93,5.93,0,0,1,328,91.29a7.43,7.43,0,0,1,5.32,2.08,9.37,9.37,0,0,1-.1,12.5,7.68,7.68,0,0,1-5.3,2,5.91,5.91,0,0,1-5-2.52ZM324,96.22a4.12,4.12,0,0,0-1.48,3.35,4.44,4.44,0,0,0,1.44,3.38,4.27,4.27,0,0,0,2.88,1,4.17,4.17,0,0,0,2.95-1.11,4.57,4.57,0,0,0,1.37-3.31,4.71,4.71,0,0,0-1.33-3.28,4.62,4.62,0,0,0-3-1.12A4,4,0,0,0,324,96.22Z"/><path class="cls-2" d="M351,91.79h4.39v15.59H351v-2a5.58,5.58,0,0,1-4.79,2.52c-4.78,0-7.95-3.74-7.95-8.31s3.13-8.28,7.74-8.28a5.64,5.64,0,0,1,5,2.52Zm-8.21,7.78a4.32,4.32,0,1,0,4.32-4.4A4.26,4.26,0,0,0,342.79,99.57Zm4.36-17.17a3.38,3.38,0,1,1-3.39,3.38A3.41,3.41,0,0,1,347.15,82.4Zm0,4.78a1.4,1.4,0,1,0-1.41-1.4A1.33,1.33,0,0,0,347.15,87.18Z"/><path class="cls-2" d="M82.38,138.7a3.68,3.68,0,0,0-2.56-1c-1,0-1.69.51-1.69,1.26,0,.4.18,1,1.4,1.41l1,.32c1.23.4,3.07,1,4,2.23a4.53,4.53,0,0,1,.8,2.6,5.2,5.2,0,0,1-1.73,4,6.55,6.55,0,0,1-4.68,1.65,7.89,7.89,0,0,1-6-2.59l2.31-2.66a4.83,4.83,0,0,0,3.45,1.8c1.22,0,2.16-.62,2.16-1.7a1.73,1.73,0,0,0-1.37-1.58l-1-.36a8.45,8.45,0,0,1-3.34-1.87,4.2,4.2,0,0,1-1.19-3,4.64,4.64,0,0,1,1.62-3.53,6.44,6.44,0,0,1,4.07-1.11,7.74,7.74,0,0,1,5,1.65Z"/><path class="cls-2" d="M92.82,138.73v11.85h-4.4V138.73H86.7V135h1.72v-5.33h4.4V135h3v3.74Z"/><path class="cls-2" d="M112.58,136.68a8.4,8.4,0,0,1,0,12.21,10.16,10.16,0,0,1-12.6,0,8.4,8.4,0,0,1,0-12.21,10.16,10.16,0,0,1,12.6,0Zm-1.91,6.12a4.39,4.39,0,1,0-4.39,4.39A4.34,4.34,0,0,0,110.67,142.8Z"/><path class="cls-2" d="M118.59,135H123v2.34a5.27,5.27,0,0,1,2-2.16,4.76,4.76,0,0,1,2.59-.68,5.4,5.4,0,0,1,1.87.36l-.58,4.1a3.26,3.26,0,0,0-2-.57,3.54,3.54,0,0,0-2.91,1.26,5.33,5.33,0,0,0-.87,3.45v7.49h-4.39Z"/><path class="cls-2" d="M139.65,138.7a3.67,3.67,0,0,0-2.56-1c-1,0-1.69.51-1.69,1.26,0,.4.18,1,1.41,1.41l1,.32c1.22.4,3.06,1,4,2.23a4.53,4.53,0,0,1,.79,2.6,5.2,5.2,0,0,1-1.73,4,6.55,6.55,0,0,1-4.68,1.65,7.87,7.87,0,0,1-6-2.59l2.3-2.66a4.85,4.85,0,0,0,3.46,1.8c1.22,0,2.16-.62,2.16-1.7a1.74,1.74,0,0,0-1.37-1.58l-1-.36a8.49,8.49,0,0,1-3.35-1.87,4.19,4.19,0,0,1-1.18-3,4.64,4.64,0,0,1,1.61-3.53,6.45,6.45,0,0,1,4.07-1.11,7.78,7.78,0,0,1,5,1.65Z"/><path class="cls-2" d="M150.09,124.34v16.34l5.83-5.69h5.69l-7.31,6.84,7.88,8.75h-5.83l-5.79-6.66-.47.43v6.23H145.7V124.34Z"/><path class="cls-2" d="M189.72,146.22a7.89,7.89,0,0,1-7.66,4.86,6.7,6.7,0,0,1-6.05-3,7.52,7.52,0,0,1-6.27,3c-4.31,0-6.4-2.41-6.4-5a4.64,4.64,0,0,1,1.58-3.6,7.3,7.3,0,0,1,5-1.62,8.09,8.09,0,0,1,4,1.08l0-.75a2.91,2.91,0,0,0-1.33-2.56,5.62,5.62,0,0,0-2.92-.65,15.5,15.5,0,0,0-4,.61v-3.49a17.8,17.8,0,0,1,4.32-.57c1.87,0,4.39.18,5.94,2.63a7,7,0,0,1,5.9-2.63A7.49,7.49,0,0,1,188,137a9.35,9.35,0,0,1,1.87,6.12v.36H178.17a4.16,4.16,0,0,0,.75,2.63,3.67,3.67,0,0,0,3.14,1.48,4,4,0,0,0,3.63-2.06ZM170.65,148c2.44,0,3.31-1.33,3.31-2.19s-.72-1.87-3.35-1.87c-2.34,0-3,1.11-3,1.94S168.34,148,170.65,148Zm15-7.26a3.74,3.74,0,0,0-7.38,0Z"/><path class="cls-2" d="M193.22,135h4.39v2.34a5.27,5.27,0,0,1,1.94-2.16,4.82,4.82,0,0,1,2.6-.68,5.45,5.45,0,0,1,1.87.36l-.58,4.1a3.28,3.28,0,0,0-2.05-.57,3.57,3.57,0,0,0-2.92,1.26,5.38,5.38,0,0,0-.86,3.45v7.49h-4.39Z"/><path class="cls-2" d="M206.18,135h4.39v1.76a5.75,5.75,0,0,1,4.64-2.26,5.14,5.14,0,0,1,4.93,2.84,5.76,5.76,0,0,1,5-2.84,5,5,0,0,1,4.21,1.9c1,1.34,1.08,2.67,1.08,4.4v9.79h-4.39v-8.5a4.79,4.79,0,0,0-.72-3.06,2.21,2.21,0,0,0-1.8-.79,2.56,2.56,0,0,0-2.41,1.37,5.87,5.87,0,0,0-.62,3v8h-4.39v-8.5a4.72,4.72,0,0,0-.72-3.06,2.2,2.2,0,0,0-1.8-.79,2.58,2.58,0,0,0-2.41,1.37,6,6,0,0,0-.61,3v8h-4.39Z"/><path class="cls-2" d="M249.91,146.22c-.46,1.15-2.23,4.86-7.66,4.86a8.19,8.19,0,0,1-6-2.19,7.89,7.89,0,0,1-2.45-6.09,8.31,8.31,0,0,1,2.38-6.12,8,8,0,0,1,5.87-2.19,7.45,7.45,0,0,1,6.08,2.55,9.3,9.3,0,0,1,1.87,6.12v.36H238.36a4.55,4.55,0,0,0,.76,2.63,3.69,3.69,0,0,0,3.13,1.48,4,4,0,0,0,3.63-2.06Zm-4-5.5a3.74,3.74,0,0,0-7.38,0Z"/><path class="cls-2" d="M253.41,135h4.39v2a5.72,5.72,0,0,1,4.82-2.52,6,6,0,0,1,4.61,1.9,6.59,6.59,0,0,1,1.23,4.4v9.79h-4.4v-8.5a4.48,4.48,0,0,0-.82-3.06,2.82,2.82,0,0,0-2.06-.79,3,3,0,0,0-2.69,1.37,5.35,5.35,0,0,0-.69,3v8h-4.39Z"/><path class="cls-2" d="M283.22,125.78a2.63,2.63,0,1,1-2.63,2.62A2.63,2.63,0,0,1,283.22,125.78Zm2.19,9.21v15.59H281V135Z"/><path class="cls-2" d="M306.47,138.7a3.67,3.67,0,0,0-2.56-1c-1,0-1.69.51-1.69,1.26,0,.4.18,1,1.41,1.41l1,.32c1.23.4,3.06,1,4,2.23a4.53,4.53,0,0,1,.79,2.6,5.2,5.2,0,0,1-1.73,4,6.55,6.55,0,0,1-4.68,1.65,7.89,7.89,0,0,1-6-2.59l2.3-2.66a4.87,4.87,0,0,0,3.46,1.8c1.22,0,2.16-.62,2.16-1.7a1.74,1.74,0,0,0-1.37-1.58l-1-.36a8.55,8.55,0,0,1-3.35-1.87,4.19,4.19,0,0,1-1.18-3,4.64,4.64,0,0,1,1.62-3.53,6.41,6.41,0,0,1,4.06-1.11,7.77,7.77,0,0,1,5,1.65Z"/><path class="cls-2" d="M316.91,124.34v16.34l5.83-5.69h5.69l-7.31,6.84,7.88,8.75h-5.83l-5.79-6.66-.47.43v6.23h-4.39V124.34Z"/><path class="cls-2" d="M344.63,136.68a8.4,8.4,0,0,1,0,12.21,10.16,10.16,0,0,1-12.6,0,8.4,8.4,0,0,1,0-12.21,10.16,10.16,0,0,1,12.6,0Zm-1.91,6.12a4.39,4.39,0,1,0-4.39,4.39A4.34,4.34,0,0,0,342.72,142.8Z"/><path class="cls-2" d="M355,124.34v26.24h-4.39V124.34Z"/><path class="cls-2" d="M374.51,146.22c-.47,1.15-2.23,4.86-7.67,4.86a8.15,8.15,0,0,1-6-2.19,7.86,7.86,0,0,1-2.45-6.09,8.34,8.34,0,0,1,2.37-6.12,8,8,0,0,1,5.87-2.19,7.45,7.45,0,0,1,6.08,2.55,9.31,9.31,0,0,1,1.88,6.12v.36H363a4.62,4.62,0,0,0,.76,2.63,3.71,3.71,0,0,0,3.13,1.48,4,4,0,0,0,3.64-2.06Zm-4-5.5a3.74,3.74,0,0,0-7.38,0Z"/><path class="cls-2" d="M378,135h4.39v2a5.74,5.74,0,0,1,4.83-2.52,6,6,0,0,1,4.6,1.9,6.54,6.54,0,0,1,1.23,4.4v9.79h-4.39v-8.5a4.49,4.49,0,0,0-.83-3.06,2.8,2.8,0,0,0-2.05-.79,3,3,0,0,0-2.7,1.37,5.35,5.35,0,0,0-.69,3v8H378Z"/><path class="cls-2" d="M399.67,145.43a2.81,2.81,0,1,1-2.8,2.81A2.76,2.76,0,0,1,399.67,145.43Z"/></g></svg>
