<svg xmlns="http://www.w3.org/2000/svg" width="473.69" height="191.3" viewBox="0 0 473.69 191.3"><defs><style>.cls-1{fill:#f2902c;}.cls-2{fill:#fff;}</style></defs><title>bubble_15</title><g id="Tekster"><path class="cls-1" d="M0,172.21c0,9.57,4,15.85,12.05,18.87,1.58,0,3.17.1,4.74.1H437.24c.22,0,.44,0,.68,0,7,.19,14,.12,20.95,0,.27,0,.53,0,.79,0,8.08-.58,13.94-8.48,13.93-18.81,0-50.49-.19-101,.1-151.48C473.76,8,466.42,0,457,0Q236.14.32,15.26.15C6.18.15,0,7.88,0,19.32Q0,95.76,0,172.21Z"/><path class="cls-2" d="M65,35.88c1.33,0,3.92,0,5.87,1.52a6.25,6.25,0,0,1,2.23,5,5.13,5.13,0,0,1-2.7,4.72,5.6,5.6,0,0,1,3.13,1.51,6.13,6.13,0,0,1,1.73,4.5,6.45,6.45,0,0,1-2,4.86,8.84,8.84,0,0,1-6.09,1.94H59.05v-24Zm-1.26,10h1.33c.72,0,3.64-.07,3.64-3.13,0-2.19-1.69-3-3.6-3H63.73Zm0,10.23h2a6.4,6.4,0,0,0,3.2-.65,3.1,3.1,0,0,0,1.48-2.77,2.89,2.89,0,0,0-1.77-2.74,7.58,7.58,0,0,0-3.2-.47H63.73Z"/><path class="cls-2" d="M93.36,46a8.41,8.41,0,0,1,0,12.2,10.12,10.12,0,0,1-12.6,0,8.39,8.39,0,0,1,0-12.2,10.12,10.12,0,0,1,12.6,0Zm-1.91,6.12a4.39,4.39,0,1,0-4.39,4.39A4.35,4.35,0,0,0,91.45,52.12Z"/><path class="cls-2" d="M112.15,46.32a6,6,0,0,1,5.07-2.52c4.61,0,7.67,3.57,7.67,8.28s-3.17,8.32-7.77,8.32a5.89,5.89,0,0,1-5-2.52v2h-4.39V33.65h4.39Zm-.43,5.76A4.32,4.32,0,1,0,116,47.69,4.27,4.27,0,0,0,111.72,52.08Z"/><path class="cls-2" d="M140.23,44.31h4.39V59.89h-4.39v-2a5.63,5.63,0,0,1-4.79,2.52c-4.79,0-8-3.75-8-8.32s3.14-8.28,7.74-8.28a5.67,5.67,0,0,1,5,2.52ZM132,52.08a4.32,4.32,0,1,0,4.32-4.39A4.27,4.27,0,0,0,132,52.08Z"/><path class="cls-2" d="M160.75,33.65h4.39V59.89h-4.39v-2A5.63,5.63,0,0,1,156,60.4c-4.79,0-8-3.75-8-8.32s3.14-8.28,7.74-8.28a5.67,5.67,0,0,1,5,2.52Zm-8.21,18.43a4.32,4.32,0,1,0,4.32-4.39A4.27,4.27,0,0,0,152.54,52.08Z"/><path class="cls-2" d="M177.7,44.31h4.4v1.76a5.72,5.72,0,0,1,4.64-2.27,5.15,5.15,0,0,1,4.93,2.85,5.73,5.73,0,0,1,5-2.85,5,5,0,0,1,4.22,1.91A6.58,6.58,0,0,1,202,50.1v9.79h-4.4V51.4a4.68,4.68,0,0,0-.72-3.06,2.2,2.2,0,0,0-1.8-.79,2.59,2.59,0,0,0-2.41,1.36,6,6,0,0,0-.61,3v8h-4.39V51.4a4.74,4.74,0,0,0-.72-3.06,2.21,2.21,0,0,0-1.8-.79,2.57,2.57,0,0,0-2.41,1.36,5.91,5.91,0,0,0-.61,3v8h-4.4Z"/><path class="cls-2" d="M208.34,35.09a2.63,2.63,0,1,1-2.63,2.63A2.65,2.65,0,0,1,208.34,35.09Zm2.2,9.22V59.89h-4.4V44.31Z"/><path class="cls-2" d="M226.59,44.31H231V59.17c0,2.38-.22,4.86-2.16,6.81a8.28,8.28,0,0,1-6.15,2.19c-3,0-4.83-.9-5.84-1.8a8.65,8.65,0,0,1-2.52-4.64h4.76a3.69,3.69,0,0,0,1.08,1.87,3.88,3.88,0,0,0,2.66.83,3.68,3.68,0,0,0,2.66-1A4.41,4.41,0,0,0,226.59,60V57.81a5.47,5.47,0,0,1-4.79,2.59,7.36,7.36,0,0,1-5.4-2.13,8.57,8.57,0,0,1-2.48-6.19,8.68,8.68,0,0,1,2.41-6.19,7.65,7.65,0,0,1,5.36-2.09,5.5,5.5,0,0,1,4.9,2.52Zm-6.73,4.46a4.43,4.43,0,0,0,2.91,7.74,4.45,4.45,0,0,0,2.92-1.08,4.6,4.6,0,0,0,1.4-3.35A4.42,4.42,0,0,0,225.83,49a4,4,0,0,0-3.06-1.26A4.23,4.23,0,0,0,219.86,48.77Z"/><path class="cls-2" d="M255.5,44.31h4.39V59.89H255.5v-2a5.63,5.63,0,0,1-4.79,2.52c-4.79,0-8-3.75-8-8.32s3.14-8.28,7.74-8.28a5.67,5.67,0,0,1,5,2.52Zm-8.21,7.77a4.32,4.32,0,1,0,4.32-4.39A4.27,4.27,0,0,0,247.29,52.08Z"/><path class="cls-2" d="M268.46,48.05V59.89h-4.39V48.05h-1.73V44.31h1.73V39h4.39v5.33h3v3.74Z"/><path class="cls-2" d="M290.67,48a3.65,3.65,0,0,0-2.56-1c-1,0-1.69.5-1.69,1.26,0,.4.18,1,1.4,1.4l1.05.33c1.22.39,3.06,1,4,2.23a4.5,4.5,0,0,1,.79,2.59,5.19,5.19,0,0,1-1.73,4,6.55,6.55,0,0,1-4.68,1.66,7.87,7.87,0,0,1-6-2.59l2.3-2.67a4.82,4.82,0,0,0,3.45,1.8c1.23,0,2.16-.61,2.16-1.69a1.73,1.73,0,0,0-1.36-1.58l-1-.36a8.39,8.39,0,0,1-3.35-1.88,4.15,4.15,0,0,1-1.19-3,4.63,4.63,0,0,1,1.62-3.53,6.46,6.46,0,0,1,4.07-1.12,7.8,7.8,0,0,1,5,1.66Z"/><path class="cls-2" d="M312,55.54c-.47,1.15-2.24,4.86-7.67,4.86a8.16,8.16,0,0,1-6-2.2,7.83,7.83,0,0,1-2.44-6.08A8.31,8.31,0,0,1,298.3,46a8,8,0,0,1,5.87-2.2,7.43,7.43,0,0,1,6.08,2.56,9.3,9.3,0,0,1,1.87,6.12v.36H300.46a4.59,4.59,0,0,0,.76,2.63,3.72,3.72,0,0,0,3.13,1.47,4,4,0,0,0,3.63-2ZM308,50a3.73,3.73,0,0,0-7.37,0Z"/><path class="cls-2" d="M315.51,44.31h4.39v2a5.74,5.74,0,0,1,4.82-2.52,6,6,0,0,1,4.61,1.91,6.56,6.56,0,0,1,1.22,4.39v9.79h-4.39V51.4a4.46,4.46,0,0,0-.82-3.06,2.82,2.82,0,0,0-2.06-.79,3,3,0,0,0-2.7,1.36,5.45,5.45,0,0,0-.68,3v8h-4.39Z"/><path class="cls-2" d="M346.68,33.65h4.39V59.89h-4.39v-2a5.6,5.6,0,0,1-4.78,2.52c-4.79,0-8-3.75-8-8.32s3.13-8.28,7.74-8.28a5.64,5.64,0,0,1,5,2.52Zm-8.2,18.43a4.32,4.32,0,1,0,4.32-4.39A4.27,4.27,0,0,0,338.48,52.08Z"/><path class="cls-2" d="M370.55,55.54c-.47,1.15-2.23,4.86-7.67,4.86a8.13,8.13,0,0,1-6-2.2,7.84,7.84,0,0,1-2.45-6.08A8.27,8.27,0,0,1,356.84,46a8,8,0,0,1,5.86-2.2,7.45,7.45,0,0,1,6.09,2.56,9.35,9.35,0,0,1,1.87,6.12v.36H359a4.66,4.66,0,0,0,.75,2.63,3.73,3.73,0,0,0,3.13,1.47,4,4,0,0,0,3.64-2Zm-4-5.51a3.74,3.74,0,0,0-7.38,0Z"/><path class="cls-2" d="M397.73,55.54c-.47,1.15-2.23,4.86-7.67,4.86a8.13,8.13,0,0,1-6-2.2,7.84,7.84,0,0,1-2.45-6.08A8.27,8.27,0,0,1,384,46a8,8,0,0,1,5.86-2.2A7.45,7.45,0,0,1,396,46.36a9.35,9.35,0,0,1,1.87,6.12v.36H386.18a4.66,4.66,0,0,0,.75,2.63,3.73,3.73,0,0,0,3.13,1.47,4,4,0,0,0,3.64-2Zm-4-5.51a3.74,3.74,0,0,0-7.38,0Z"/><path class="cls-2" d="M405.62,48.05V59.89h-4.4V48.05H399.5V44.31h1.72V39h4.4v5.33h3v3.74Z"/><path class="cls-2" d="M58.4,87.51h4.4v2A5.71,5.71,0,0,1,67.62,87a6,6,0,0,1,4.6,1.91,6.57,6.57,0,0,1,1.23,4.39v9.79H69.06V94.6a4.47,4.47,0,0,0-.83-3.06,2.8,2.8,0,0,0-2-.79,3,3,0,0,0-2.7,1.36,5.36,5.36,0,0,0-.68,3v8H58.4Z"/><path class="cls-2" d="M78.74,100.5A8.42,8.42,0,0,1,77,95.32a8.19,8.19,0,0,1,2.63-6.12A9,9,0,0,1,85.9,87a9.24,9.24,0,0,1,5,1.3l2.44-2.45,2,1.84L93,90.06a8.46,8.46,0,0,1,1.8,5.26,8.2,8.2,0,0,1-2.62,6.08,10.26,10.26,0,0,1-11.42.86l-2.37,2.38-2-1.8Zm9.15-9.14A3.78,3.78,0,0,0,86,90.89a4.33,4.33,0,0,0-4.5,4.46,4.8,4.8,0,0,0,.44,2Zm-4,7.84a4.2,4.2,0,0,0,2.09.51,4,4,0,0,0,3.13-1.3,4.37,4.37,0,0,0,1.23-3.16,3.5,3.5,0,0,0-.51-2Z"/><path class="cls-2" d="M110.24,87.51h4.39v14.86c0,2.38-.21,4.86-2.16,6.81a8.28,8.28,0,0,1-6.15,2.19c-3,0-4.83-.9-5.83-1.8A8.59,8.59,0,0,1,98,104.93h4.75a3.69,3.69,0,0,0,1.08,1.87,3.88,3.88,0,0,0,2.66.83,3.73,3.73,0,0,0,2.67-1,4.44,4.44,0,0,0,1.11-3.46V101a5.47,5.47,0,0,1-4.79,2.59,7.38,7.38,0,0,1-5.4-2.13,8.55,8.55,0,0,1-2.48-6.19A8.68,8.68,0,0,1,100,89.09,7.65,7.65,0,0,1,105.35,87a5.49,5.49,0,0,1,4.89,2.52ZM103.51,92a4.43,4.43,0,0,0,2.91,7.74,4.45,4.45,0,0,0,2.92-1.08,4.6,4.6,0,0,0,1.4-3.35,4.42,4.42,0,0,0-1.26-3.13,4,4,0,0,0-3.06-1.26A4.23,4.23,0,0,0,103.51,92Z"/><path class="cls-2" d="M134.11,98.74c-.47,1.15-2.23,4.86-7.67,4.86a8.12,8.12,0,0,1-6-2.2A7.85,7.85,0,0,1,118,95.32a8.31,8.31,0,0,1,2.37-6.12,8,8,0,0,1,5.87-2.2,7.43,7.43,0,0,1,6.08,2.56,9.31,9.31,0,0,1,1.88,6.12V96H122.55a4.59,4.59,0,0,0,.76,2.63,3.73,3.73,0,0,0,3.13,1.47,4,4,0,0,0,3.64-2Zm-4-5.51a3.74,3.74,0,0,0-7.38,0Z"/><path class="cls-2" d="M137.6,87.51H142v2A5.74,5.74,0,0,1,146.82,87a6,6,0,0,1,4.6,1.91,6.57,6.57,0,0,1,1.23,4.39v9.79h-4.39V94.6a4.47,4.47,0,0,0-.83-3.06,2.82,2.82,0,0,0-2.05-.79,3,3,0,0,0-2.7,1.36,5.38,5.38,0,0,0-.69,3v8H137.6Z"/><path class="cls-2" d="M161.22,89.52A6,6,0,0,1,166.29,87c4.61,0,7.67,3.57,7.67,8.28s-3.17,8.32-7.78,8.32a5.89,5.89,0,0,1-5-2.52v2h-4.4V76.85h4.4Zm-.44,5.76a4.32,4.32,0,1,0,4.32-4.39A4.27,4.27,0,0,0,160.78,95.28Z"/><path class="cls-2" d="M179.54,78.29a2.63,2.63,0,1,1-2.63,2.63A2.65,2.65,0,0,1,179.54,78.29Zm2.2,9.22v15.58h-4.4V87.51Z"/><path class="cls-2" d="M190.3,76.85v26.24h-4.39V76.85Z"/><path class="cls-2" d="M198.87,76.85v26.24h-4.39V76.85Z"/><path class="cls-2" d="M218.34,98.74c-.46,1.15-2.23,4.86-7.66,4.86a8.16,8.16,0,0,1-6-2.2,7.85,7.85,0,0,1-2.45-6.08,8.27,8.27,0,0,1,2.38-6.12A8,8,0,0,1,210.5,87a7.44,7.44,0,0,1,6.08,2.56,9.3,9.3,0,0,1,1.87,6.12V96H206.79a4.59,4.59,0,0,0,.76,2.63,3.72,3.72,0,0,0,3.13,1.47,4,4,0,0,0,3.63-2Zm-4-5.51a3.74,3.74,0,0,0-7.38,0Z"/><path class="cls-2" d="M233.79,76.85h4.39v26.24h-4.39v-2A5.58,5.58,0,0,1,229,103.6c-4.78,0-7.95-3.75-7.95-8.32S224.18,87,228.79,87a5.66,5.66,0,0,1,5,2.52Zm-8.21,18.43a4.32,4.32,0,1,0,4.32-4.39A4.27,4.27,0,0,0,225.58,95.28Z"/><path class="cls-2" d="M257.66,98.74c-.47,1.15-2.24,4.86-7.67,4.86a8.16,8.16,0,0,1-6-2.2,7.88,7.88,0,0,1-2.44-6.08,8.31,8.31,0,0,1,2.37-6.12,8,8,0,0,1,5.87-2.2,7.43,7.43,0,0,1,6.08,2.56,9.3,9.3,0,0,1,1.87,6.12V96H246.1a4.59,4.59,0,0,0,.76,2.63,3.72,3.72,0,0,0,3.13,1.47,4,4,0,0,0,3.64-2Zm-4-5.51a3.74,3.74,0,0,0-7.38,0Z"/><path class="cls-2" d="M281.49,87.51h4.39v15.58h-4.39v-2a5.59,5.59,0,0,1-4.79,2.52c-4.79,0-7.95-3.75-7.95-8.32S271.88,87,276.48,87a5.67,5.67,0,0,1,5,2.52Zm-8.21,7.77a4.32,4.32,0,1,0,4.32-4.39A4.27,4.27,0,0,0,273.28,95.28Z"/><path class="cls-2" d="M294.52,91.25v11.84h-4.39V91.25h-1.66V87.51h1.66V83.22c0-1.44.11-3.88,2.05-5.5a5.8,5.8,0,0,1,3.85-1.3,5.63,5.63,0,0,1,2.52.54v4a3,3,0,0,0-2-.65,1.73,1.73,0,0,0-1.58.79,5.17,5.17,0,0,0-.47,2.7v3.71h4v3.74Z"/><path class="cls-2" d="M317.16,83.11v20h-4.68v-20h-5.4v-4h15.48v4Z"/><path class="cls-2" d="M323.36,76.85h4.39V89.52A5.71,5.71,0,0,1,332.57,87a6,6,0,0,1,4.61,1.91,6.56,6.56,0,0,1,1.22,4.39v9.79H334V94.6a4.47,4.47,0,0,0-.83-3.06,2.8,2.8,0,0,0-2.05-.79,3,3,0,0,0-2.7,1.36,5.36,5.36,0,0,0-.68,3v8h-4.39Z"/><path class="cls-2" d="M357.48,98.74c-.47,1.15-2.23,4.86-7.67,4.86a8.15,8.15,0,0,1-6-2.2,7.85,7.85,0,0,1-2.45-6.08,8.27,8.27,0,0,1,2.38-6.12,8,8,0,0,1,5.87-2.2,7.44,7.44,0,0,1,6.08,2.56,9.35,9.35,0,0,1,1.87,6.12V96H345.93a4.66,4.66,0,0,0,.75,2.63,3.73,3.73,0,0,0,3.13,1.47,4,4,0,0,0,3.64-2Zm-4-5.51a3.74,3.74,0,0,0-7.38,0Z"/><path class="cls-2" d="M373.29,87.51h4.39v15.58h-4.39v-2a5.6,5.6,0,0,1-4.79,2.52c-4.79,0-8-3.75-8-8.32S363.68,87,368.28,87a5.67,5.67,0,0,1,5,2.52Zm-8.21,7.77a4.32,4.32,0,1,0,4.32-4.39A4.27,4.27,0,0,0,365.08,95.28Z"/><path class="cls-2" d="M383.73,98.13l4,.46-5.08,9.54-2.77-.32Z"/><path class="cls-2" d="M72.84,132.4a8.39,8.39,0,0,1,0,12.2,8.94,8.94,0,0,1-6.3,2.2,8.94,8.94,0,0,1-6.3-2.2,8.39,8.39,0,0,1,0-12.2,9,9,0,0,1,6.3-2.2A9,9,0,0,1,72.84,132.4Zm-1.91,6.12a4.39,4.39,0,1,0-4.39,4.39A4.35,4.35,0,0,0,70.93,138.52Z"/><path class="cls-2" d="M90.73,130.71h4.39v14.86c0,2.38-.22,4.86-2.16,6.81a8.28,8.28,0,0,1-6.16,2.19c-3,0-4.82-.9-5.83-1.8a8.65,8.65,0,0,1-2.52-4.64h4.76A3.69,3.69,0,0,0,84.29,150a3.88,3.88,0,0,0,2.66.83,3.68,3.68,0,0,0,2.66-1,4.41,4.41,0,0,0,1.12-3.46v-2.2a5.46,5.46,0,0,1-4.79,2.6,7.36,7.36,0,0,1-5.4-2.13,8.55,8.55,0,0,1-2.48-6.19,8.68,8.68,0,0,1,2.41-6.19,7.65,7.65,0,0,1,5.36-2.09,5.5,5.5,0,0,1,4.9,2.52ZM84,135.17a4.43,4.43,0,0,0,2.91,7.74,4.45,4.45,0,0,0,2.92-1.08,4.6,4.6,0,0,0,1.4-3.35A4.46,4.46,0,0,0,90,135.35a4,4,0,0,0-3.06-1.26A4.23,4.23,0,0,0,84,135.17Z"/><path class="cls-2" d="M109.88,121.49a2.63,2.63,0,1,1-2.63,2.63A2.65,2.65,0,0,1,109.88,121.49Zm2.2,9.22v23.83h-4.39V130.71Z"/><path class="cls-2" d="M131.55,141.94c-.47,1.15-2.23,4.86-7.67,4.86a8.13,8.13,0,0,1-6-2.2,7.84,7.84,0,0,1-2.45-6.08,8.27,8.27,0,0,1,2.38-6.12,8,8,0,0,1,5.86-2.2,7.45,7.45,0,0,1,6.09,2.56,9.35,9.35,0,0,1,1.87,6.12v.36H120a4.6,4.6,0,0,0,.75,2.62,3.71,3.71,0,0,0,3.13,1.48,4,4,0,0,0,3.64-2.05Zm-4-5.51a3.74,3.74,0,0,0-7.38,0Z"/><path class="cls-2" d="M146.92,130.71h4.39v14.86c0,2.38-.21,4.86-2.16,6.81a8.28,8.28,0,0,1-6.15,2.19c-3,0-4.82-.9-5.83-1.8a8.59,8.59,0,0,1-2.52-4.64h4.75a3.76,3.76,0,0,0,1.08,1.87,3.88,3.88,0,0,0,2.66.83,3.73,3.73,0,0,0,2.67-1,4.44,4.44,0,0,0,1.11-3.46v-2.2a5.45,5.45,0,0,1-4.78,2.6,7.36,7.36,0,0,1-5.4-2.13,8.51,8.51,0,0,1-2.49-6.19,8.68,8.68,0,0,1,2.41-6.19A7.65,7.65,0,0,1,142,130.2a5.49,5.49,0,0,1,4.89,2.52Zm-6.73,4.46a4.43,4.43,0,0,0,2.92,7.74,4.41,4.41,0,0,0,2.91-1.08,4.61,4.61,0,0,0,1.41-3.35,4.46,4.46,0,0,0-1.26-3.13,4,4,0,0,0-3.06-1.26A4.24,4.24,0,0,0,140.19,135.17Z"/><path class="cls-2" d="M175.76,130.71h4.39v14.86c0,2.38-.22,4.86-2.16,6.81a8.28,8.28,0,0,1-6.15,2.19c-3,0-4.83-.9-5.84-1.8a8.65,8.65,0,0,1-2.52-4.64h4.76a3.69,3.69,0,0,0,1.08,1.87,3.88,3.88,0,0,0,2.66.83,3.68,3.68,0,0,0,2.66-1,4.41,4.41,0,0,0,1.12-3.46v-2.2a5.46,5.46,0,0,1-4.79,2.6,7.36,7.36,0,0,1-5.4-2.13,8.55,8.55,0,0,1-2.48-6.19,8.68,8.68,0,0,1,2.41-6.19,7.65,7.65,0,0,1,5.36-2.09,5.5,5.5,0,0,1,4.9,2.52ZM169,135.17a4.43,4.43,0,0,0,2.91,7.74,4.45,4.45,0,0,0,2.92-1.08,4.6,4.6,0,0,0,1.4-3.35,4.42,4.42,0,0,0-1.26-3.13,4,4,0,0,0-3.06-1.26A4.23,4.23,0,0,0,169,135.17Z"/><path class="cls-2" d="M186.52,121.49a2.63,2.63,0,1,1-2.62,2.63A2.64,2.64,0,0,1,186.52,121.49Zm2.2,9.22v23.83h-4.39V130.71Z"/><path class="cls-2" d="M207.33,132.4a8.39,8.39,0,0,1,0,12.2,10.12,10.12,0,0,1-12.6,0,8.39,8.39,0,0,1,0-12.2,10.12,10.12,0,0,1,12.6,0Zm-1.91,6.12a4.39,4.39,0,1,0-4.39,4.39A4.35,4.35,0,0,0,205.42,138.52Z"/><path class="cls-2" d="M213.34,130.71h4.4v2.34a5.2,5.2,0,0,1,1.94-2.16,4.7,4.7,0,0,1,2.59-.69,5.35,5.35,0,0,1,1.87.36l-.57,4.11a3.3,3.3,0,0,0-2-.58,3.59,3.59,0,0,0-2.92,1.26,5.35,5.35,0,0,0-.86,3.46v7.48h-4.4Z"/><path class="cls-2" d="M237.86,120.05h4.39v26.24h-4.39v-2a5.62,5.62,0,0,1-4.79,2.52c-4.79,0-7.95-3.75-7.95-8.32s3.13-8.28,7.74-8.28a5.66,5.66,0,0,1,5,2.52Zm-8.21,18.43a4.32,4.32,0,1,0,4.32-4.39A4.27,4.27,0,0,0,229.65,138.48Z"/><path class="cls-2" d="M261.72,141.94c-.46,1.15-2.23,4.86-7.66,4.86a8.16,8.16,0,0,1-6-2.2,7.86,7.86,0,0,1-2.44-6.08A8.27,8.27,0,0,1,248,132.4a8,8,0,0,1,5.87-2.2,7.43,7.43,0,0,1,6.08,2.56,9.3,9.3,0,0,1,1.87,6.12v.36H250.17a4.54,4.54,0,0,0,.76,2.62,3.69,3.69,0,0,0,3.13,1.48,4,4,0,0,0,3.63-2.05Zm-4-5.51a3.74,3.74,0,0,0-7.38,0Z"/><path class="cls-2" d="M285.56,120.05H290v26.24h-4.39v-2a5.62,5.62,0,0,1-4.79,2.52c-4.79,0-8-3.75-8-8.32s3.14-8.28,7.74-8.28a5.67,5.67,0,0,1,5,2.52Zm-8.21,18.43a4.32,4.32,0,1,0,4.32-4.39A4.27,4.27,0,0,0,277.35,138.48Z"/><path class="cls-2" d="M309.42,141.94c-.46,1.15-2.23,4.86-7.66,4.86a8.16,8.16,0,0,1-6-2.2,7.84,7.84,0,0,1-2.45-6.08,8.27,8.27,0,0,1,2.38-6.12,8,8,0,0,1,5.87-2.2,7.44,7.44,0,0,1,6.08,2.56,9.3,9.3,0,0,1,1.87,6.12v.36H297.87a4.54,4.54,0,0,0,.76,2.62,3.69,3.69,0,0,0,3.13,1.48,4,4,0,0,0,3.63-2.05Zm-4-5.51a3.74,3.74,0,0,0-7.38,0Z"/><path class="cls-2" d="M317.31,134.45v11.84h-4.39V134.45h-1.73v-3.74h1.73v-5.33h4.39v5.33h3v3.74Z"/><path class="cls-2" d="M325.09,141.15a2.81,2.81,0,1,1-2.81,2.8A2.76,2.76,0,0,1,325.09,141.15Z"/></g></svg>
