<svg xmlns="http://www.w3.org/2000/svg" width="480" height="260" viewBox="0 0 480 260"><defs><style>.cls-1{fill:#f2902c;}</style></defs><title>bubble_right</title><g id="Oversigt"><g id="bobler-højre"><path class="cls-1" d="M169.83,190.29c-3.77,0-6.94.56-10.07,3.19-6.35,5.35-13.4,9.87-19.78,15.18-4.5,3.79-10.19,6.29-13.5,11.53-4.47,1.52-7.59,5-11.21,7.76-12.77,9.6-25.41,19.39-38.12,29.08-1,.77-1.92,2.25-3.36,1.67-1.8-.73-1.09-2.59-1.09-4,0-19.66-.2-39.33.08-59,.06-4.14-1.12-5.28-4.43-5.41Z"/><path class="cls-1" d="M476.84,172.37c0,9.58-4,15.85-12,18.88-1.58,0-3.16.09-4.74.09H38.92c-7,.19-14,.12-21,0-.26,0-.52,0-.79,0-8.08-.57-13.93-8.48-13.93-18.81,0-50.49.2-101-.09-151.47C3.08,8.16,10.42.15,19.81.17Q240.7.49,461.59.31c9.07,0,15.22,7.74,15.22,19.17Q476.81,95.94,476.84,172.37Z"/></g></g></svg>
