<svg xmlns="http://www.w3.org/2000/svg" width="473.69" height="191.3" viewBox="0 0 473.69 191.3"><defs><style>.cls-1{fill:#f2902c;}.cls-2{fill:#fff;}</style></defs><title>bubble_8</title><g id="Oversigt"><g id="bobler-højre_copy" data-name="bobler-højre copy"><path class="cls-1" d="M0,172.21c0,9.57,4,15.85,12.05,18.87,1.58,0,3.17.1,4.74.1H437.24c.22,0,.44,0,.68,0,7,.19,14,.12,20.95,0,.27,0,.53,0,.79,0,8.08-.58,13.94-8.48,13.93-18.81,0-50.49-.19-101,.1-151.48C473.76,8,466.42,0,457,0Q236.14.32,15.26.15C6.18.15,0,7.88,0,19.32Q0,95.76,0,172.21Z"/></g></g><g id="Tekster"><path class="cls-2" d="M68.56,36.25,75,52.38l6.41-16.13h5.11l-10.15,24H73.53l-10.08-24Z"/><path class="cls-2" d="M90.85,35.46a2.63,2.63,0,1,1-2.63,2.63A2.65,2.65,0,0,1,90.85,35.46Zm2.2,9.21V60.26h-4.4V44.67Z"/><path class="cls-2" d="M114.1,48.38a3.63,3.63,0,0,0-2.55-1c-1,0-1.69.5-1.69,1.26,0,.39.18,1,1.4,1.4l1,.33c1.23.39,3.06,1,4,2.23a4.47,4.47,0,0,1,.79,2.59,5.17,5.17,0,0,1-1.72,4,6.56,6.56,0,0,1-4.68,1.65,7.86,7.86,0,0,1-6.05-2.59l2.3-2.66a4.84,4.84,0,0,0,3.46,1.8c1.22,0,2.16-.61,2.16-1.69A1.75,1.75,0,0,0,111.15,54l-1-.36a8.33,8.33,0,0,1-3.34-1.87,4.18,4.18,0,0,1-1.19-3,4.61,4.61,0,0,1,1.62-3.52,6.39,6.39,0,0,1,4.07-1.12,7.72,7.72,0,0,1,5,1.66Z"/><path class="cls-2" d="M124.54,34V50.36l5.84-5.69h5.68l-7.31,6.84,7.89,8.75h-5.83L125,53.6l-.47.43v6.23h-4.39V34Z"/><path class="cls-2" d="M150.53,44.67h4.4V60.26h-4.4v-2a5.58,5.58,0,0,1-4.78,2.52c-4.79,0-8-3.74-8-8.31s3.13-8.28,7.74-8.28a5.64,5.64,0,0,1,5,2.52Zm-8.2,7.78a4.32,4.32,0,1,0,4.32-4.39A4.27,4.27,0,0,0,142.33,52.45Z"/><path class="cls-2" d="M163.49,34V60.26H159.1V34Z"/><path class="cls-2" d="M180.45,68.5h-4.39V44.67h4.39v2a5.92,5.92,0,0,1,5.08-2.52,7.42,7.42,0,0,1,5.32,2.09,8.4,8.4,0,0,1,2.34,6.19,8.34,8.34,0,0,1-2.45,6.3,7.63,7.63,0,0,1-5.29,2,5.91,5.91,0,0,1-5-2.52Zm1-19.4A4.14,4.14,0,0,0,180,52.45a4.39,4.39,0,0,0,1.44,3.38,4.22,4.22,0,0,0,2.88,1.05,4.17,4.17,0,0,0,2.95-1.12,4.59,4.59,0,0,0,1.37-3.31,4.69,4.69,0,0,0-1.34-3.28,4.57,4.57,0,0,0-3-1.11A4,4,0,0,0,181.49,49.1Z"/><path class="cls-2" d="M208.53,44.67h4.39V60.26h-4.39v-2a5.59,5.59,0,0,1-4.79,2.52c-4.79,0-8-3.74-8-8.31s3.13-8.28,7.74-8.28a5.66,5.66,0,0,1,5,2.52Zm-8.21,7.78a4.32,4.32,0,1,0,4.32-4.39A4.27,4.27,0,0,0,200.32,52.45Zm4.36-17.17a3.39,3.39,0,1,1-3.39,3.38A3.43,3.43,0,0,1,204.68,35.28Zm0,4.79a1.41,1.41,0,1,0-1.41-1.41A1.35,1.35,0,0,0,204.68,40.07Z"/><path class="cls-2" d="M229.88,48.42V60.26h-4.4V48.42h-1.72V44.67h1.72V39.35h4.4v5.32h3v3.75Z"/><path class="cls-2" d="M239.6,44.67v8.82a3.52,3.52,0,0,0,.93,2.74,3.56,3.56,0,0,0,4.47,0,3.52,3.52,0,0,0,.93-2.74V44.67h4.39v9.54A5.88,5.88,0,0,1,248.41,59a9.95,9.95,0,0,1-11.3,0,5.87,5.87,0,0,1-1.9-4.79V44.67Z"/><path class="cls-2" d="M254.5,44.67h4.39V47a5.27,5.27,0,0,1,1.95-2.16,4.76,4.76,0,0,1,2.59-.68,5.4,5.4,0,0,1,1.87.36l-.58,4.1a3.32,3.32,0,0,0-2.05-.57,3.57,3.57,0,0,0-2.91,1.26,5.33,5.33,0,0,0-.87,3.45v7.49H254.5Z"/><path class="cls-2" d="M280.24,48.42V60.26h-4.39V48.42h-1.73V44.67h1.73V39.35h4.39v5.32h3v3.75Z"/><path class="cls-2" d="M287.76,35.46a2.63,2.63,0,1,1-2.63,2.63A2.65,2.65,0,0,1,287.76,35.46Zm2.2,9.21V60.26h-4.39V44.67Z"/><path class="cls-2" d="M298.53,34V60.26h-4.4V34Z"/><path class="cls-2" d="M72.06,79.45c1.33,0,3.92,0,5.86,1.51a6.22,6.22,0,0,1,2.23,5,5.14,5.14,0,0,1-2.69,4.72,5.64,5.64,0,0,1,3.13,1.51,6.12,6.12,0,0,1,1.72,4.5,6.41,6.41,0,0,1-2,4.86,8.81,8.81,0,0,1-6.08,1.94H66.12v-24Zm-1.26,10h1.33c.72,0,3.63-.07,3.63-3.13,0-2.2-1.69-3-3.6-3H70.8Zm0,10.22h2A6.42,6.42,0,0,0,76,99a3.1,3.1,0,0,0,1.47-2.77,2.87,2.87,0,0,0-1.76-2.74A7.63,7.63,0,0,0,72.52,93H70.8Z"/><path class="cls-2" d="M86,87.87h4.39v2.34a5.27,5.27,0,0,1,1.94-2.16,4.82,4.82,0,0,1,2.6-.68,5.45,5.45,0,0,1,1.87.36l-.58,4.1a3.34,3.34,0,0,0-2-.57,3.6,3.6,0,0,0-2.92,1.26A5.38,5.38,0,0,0,90.38,96v7.49H86Z"/><path class="cls-2" d="M99.7,100.87a8.44,8.44,0,0,1-1.76-5.18,8.19,8.19,0,0,1,2.63-6.12,9,9,0,0,1,6.3-2.2,9.2,9.2,0,0,1,5,1.3l2.44-2.45,2,1.83L114,90.43a8.46,8.46,0,0,1,1.81,5.26,8.2,8.2,0,0,1-2.63,6.08,10.3,10.3,0,0,1-11.41.86L99.38,105l-2-1.8Zm9.15-9.14a3.78,3.78,0,0,0-1.88-.47,4.3,4.3,0,0,0-4.49,4.46,4.76,4.76,0,0,0,.43,1.94Zm-4,7.84a4.24,4.24,0,0,0,2.08.51,4.08,4.08,0,0,0,3.14-1.3,4.41,4.41,0,0,0,1.22-3.17,3.52,3.52,0,0,0-.51-2Z"/><path class="cls-2" d="M119.32,87.87h4.4v2a5.71,5.71,0,0,1,4.82-2.52,6,6,0,0,1,4.61,1.91,6.56,6.56,0,0,1,1.22,4.39v9.79H130V95a4.45,4.45,0,0,0-.83-3,2.82,2.82,0,0,0-2.05-.8,3,3,0,0,0-2.7,1.37,5.35,5.35,0,0,0-.68,3v8h-4.4Z"/><path class="cls-2" d="M150.5,77.22h4.39v26.24H150.5v-2a5.59,5.59,0,0,1-4.79,2.52c-4.79,0-8-3.74-8-8.31s3.13-8.28,7.73-8.28a5.67,5.67,0,0,1,5,2.52Zm-8.21,18.43a4.32,4.32,0,1,0,4.32-4.39A4.27,4.27,0,0,0,142.29,95.65Z"/><path class="cls-2" d="M163.46,89.89a6,6,0,0,1,5.07-2.52c4.61,0,7.67,3.56,7.67,8.28S173,104,168.43,104a5.89,5.89,0,0,1-5-2.52v2h-4.39V77.22h4.39ZM163,95.65a4.32,4.32,0,1,0,4.32-4.39A4.27,4.27,0,0,0,163,95.65Z"/><path class="cls-2" d="M184.63,101.12l-7.42-13.25h5.11l4.82,8.86,4.33-8.86h5L183.87,111.7h-5Z"/><path class="cls-2" d="M207,87.87h4.39v1.77A5.74,5.74,0,0,1,216,87.37,5.17,5.17,0,0,1,221,90.21a5.73,5.73,0,0,1,5-2.84,5,5,0,0,1,4.21,1.91c1,1.33,1.08,2.66,1.08,4.39v9.79h-4.39V95a4.66,4.66,0,0,0-.72-3,2.23,2.23,0,0,0-1.8-.8,2.57,2.57,0,0,0-2.41,1.37,5.89,5.89,0,0,0-.61,3v8h-4.39V95a4.73,4.73,0,0,0-.72-3,2.23,2.23,0,0,0-1.8-.8A2.59,2.59,0,0,0,212,92.48a6,6,0,0,0-.61,3v8H207Z"/><path class="cls-2" d="M250.72,99.1c-.47,1.16-2.23,4.86-7.67,4.86a8.17,8.17,0,0,1-6-2.19,7.85,7.85,0,0,1-2.45-6.08A8.27,8.27,0,0,1,237,89.57a8,8,0,0,1,5.86-2.2A7.45,7.45,0,0,1,249,89.93,9.33,9.33,0,0,1,250.83,96v.37H239.16a4.61,4.61,0,0,0,.76,2.62,3.71,3.71,0,0,0,3.13,1.48,4,4,0,0,0,3.64-2.05Zm-4-5.5a3.74,3.74,0,0,0-7.38,0Z"/><path class="cls-2" d="M266.16,77.22h4.39v26.24h-4.39v-2a5.58,5.58,0,0,1-4.78,2.52c-4.79,0-8-3.74-8-8.31s3.13-8.28,7.74-8.28a5.64,5.64,0,0,1,5,2.52ZM258,95.65a4.32,4.32,0,1,0,4.32-4.39A4.27,4.27,0,0,0,258,95.65Z"/><path class="cls-2" d="M287.51,77.22V93.56l5.83-5.69H299l-7.31,6.84,7.89,8.75h-5.83L288,96.8l-.47.43v6.23h-4.39V77.22Z"/><path class="cls-2" d="M305.94,77.22v26.24h-4.39V77.22Z"/><path class="cls-2" d="M322.07,87.87h4.39v15.59h-4.39v-2a5.58,5.58,0,0,1-4.79,2.52c-4.78,0-7.95-3.74-7.95-8.31s3.13-8.28,7.74-8.28a5.66,5.66,0,0,1,5,2.52Zm-8.21,7.78a4.32,4.32,0,1,0,4.32-4.39A4.27,4.27,0,0,0,313.86,95.65Z"/><path class="cls-2" d="M339.13,91.58a3.63,3.63,0,0,0-2.55-1c-1,0-1.69.5-1.69,1.26,0,.39.18,1,1.4,1.4l1,.33c1.23.39,3.06,1,4,2.23a4.5,4.5,0,0,1,.8,2.59,5.19,5.19,0,0,1-1.73,4,6.55,6.55,0,0,1-4.68,1.65,7.86,7.86,0,0,1-6.05-2.59l2.31-2.66a4.8,4.8,0,0,0,3.45,1.8c1.22,0,2.16-.61,2.16-1.69a1.74,1.74,0,0,0-1.37-1.59l-1-.36A8.33,8.33,0,0,1,331.83,95a4.2,4.2,0,0,1-1.19-3,4.61,4.61,0,0,1,1.62-3.52,6.39,6.39,0,0,1,4.07-1.12,7.72,7.72,0,0,1,5,1.66Z"/><path class="cls-2" d="M353,91.58a3.66,3.66,0,0,0-2.56-1c-1,0-1.69.5-1.69,1.26,0,.39.18,1,1.41,1.4l1,.33c1.22.39,3.06,1,4,2.23a4.5,4.5,0,0,1,.79,2.59,5.19,5.19,0,0,1-1.73,4A6.55,6.55,0,0,1,349.5,104a7.83,7.83,0,0,1-6-2.59l2.3-2.66a4.82,4.82,0,0,0,3.46,1.8c1.22,0,2.16-.61,2.16-1.69A1.75,1.75,0,0,0,350,97.23l-1-.36A8.36,8.36,0,0,1,345.65,95a4.2,4.2,0,0,1-1.19-3,4.61,4.61,0,0,1,1.62-3.52,6.4,6.4,0,0,1,4.07-1.12,7.74,7.74,0,0,1,5,1.66Z"/><path class="cls-2" d="M374.3,99.1c-.46,1.16-2.23,4.86-7.66,4.86a8.19,8.19,0,0,1-6-2.19,7.88,7.88,0,0,1-2.44-6.08,8.27,8.27,0,0,1,2.37-6.12,8,8,0,0,1,5.87-2.2,7.43,7.43,0,0,1,6.08,2.56A9.27,9.27,0,0,1,374.41,96v.37H362.75a4.54,4.54,0,0,0,.76,2.62,3.69,3.69,0,0,0,3.13,1.48,4,4,0,0,0,3.63-2.05Zm-4-5.5a3.74,3.74,0,0,0-7.38,0Z"/><path class="cls-2" d="M377.8,87.87h4.39v2A5.72,5.72,0,0,1,387,87.37a6,6,0,0,1,4.61,1.91,6.57,6.57,0,0,1,1.23,4.39v9.79h-4.4V95a4.44,4.44,0,0,0-.82-3,2.84,2.84,0,0,0-2.06-.8,3,3,0,0,0-2.69,1.37,5.36,5.36,0,0,0-.69,3v8H377.8Z"/><path class="cls-2" d="M407.61,78.66A2.63,2.63,0,1,1,405,81.29,2.64,2.64,0,0,1,407.61,78.66Zm2.19,9.21v15.59h-4.39V87.87Z"/><path class="cls-2" d="M77.42,120.42h4.39v26.24H77.42v-2a5.58,5.58,0,0,1-4.79,2.52c-4.78,0-7.95-3.74-7.95-8.31s3.13-8.28,7.74-8.28a5.66,5.66,0,0,1,5,2.52Zm-8.21,18.43a4.32,4.32,0,1,0,4.32-4.39A4.27,4.27,0,0,0,69.21,138.85Z"/><path class="cls-2" d="M97.94,131.07h4.39v15.59H97.94v-2a5.58,5.58,0,0,1-4.79,2.52c-4.78,0-8-3.74-8-8.31s3.13-8.28,7.74-8.28a5.66,5.66,0,0,1,5,2.52Zm-8.21,7.78a4.32,4.32,0,1,0,4.32-4.39A4.27,4.27,0,0,0,89.73,138.85Z"/><path class="cls-2" d="M118.39,131.07h4.39v14.87c0,2.38-.22,4.86-2.16,6.8a8.28,8.28,0,0,1-6.16,2.2c-3,0-4.82-.9-5.83-1.8a8.65,8.65,0,0,1-2.52-4.64h4.75a3.76,3.76,0,0,0,1.08,1.87,3.91,3.91,0,0,0,2.67.83,3.68,3.68,0,0,0,2.66-1,4.37,4.37,0,0,0,1.12-3.45v-2.2a5.45,5.45,0,0,1-4.79,2.59,7.36,7.36,0,0,1-5.4-2.12,8.57,8.57,0,0,1-2.48-6.19,8.66,8.66,0,0,1,2.41-6.19,7.63,7.63,0,0,1,5.36-2.09,5.48,5.48,0,0,1,4.9,2.52Zm-6.73,4.47a4.27,4.27,0,0,0-1.41,3.31,4.37,4.37,0,0,0,1.15,3.06,4.28,4.28,0,0,0,3.17,1.37,4.45,4.45,0,0,0,2.92-1.08,4.6,4.6,0,0,0,1.4-3.35,4.42,4.42,0,0,0-1.26-3.13,4,4,0,0,0-3.06-1.26A4.19,4.19,0,0,0,111.66,135.54Z"/><path class="cls-2" d="M130.91,141.51a2.81,2.81,0,1,1-2.8,2.81A2.77,2.77,0,0,1,130.91,141.51Z"/></g></svg>
