<svg xmlns="http://www.w3.org/2000/svg" width="473.69" height="191.3" viewBox="0 0 473.69 191.3"><defs><style>.cls-1{fill:#f2902c;}.cls-2{fill:#fff;}</style></defs><title>bubble_14</title><g id="Tekster"><path class="cls-1" d="M0,172.21c0,9.57,4,15.85,12.05,18.87,1.58,0,3.17.1,4.74.1H437.24c.22,0,.44,0,.68,0,7,.19,14,.12,20.95,0,.27,0,.53,0,.79,0,8.08-.58,13.94-8.48,13.93-18.81,0-50.49-.19-101,.1-151.48C473.76,8,466.42,0,457,0Q236.14.32,15.26.15C6.18.15,0,7.88,0,19.32Q0,95.76,0,172.21Z"/><path class="cls-2" d="M65.31,35.88c3.35,0,6.27.36,8.93,2.34a11.89,11.89,0,0,1,4.61,9.69A11.46,11.46,0,0,1,74,57.59c-2.81,2-5.44,2.3-8.79,2.3H59.05v-24Zm-1.58,20h1.44A10.06,10.06,0,0,0,71,54.28a7.81,7.81,0,0,0,3-6.37,8,8,0,0,0-3-6.41,9.75,9.75,0,0,0-5.9-1.58H63.73Z"/><path class="cls-2" d="M97.82,55.54c-.47,1.15-2.23,4.86-7.67,4.86a8.13,8.13,0,0,1-6-2.2,7.84,7.84,0,0,1-2.45-6.08A8.27,8.27,0,0,1,84.11,46,8,8,0,0,1,90,43.8a7.45,7.45,0,0,1,6.09,2.56,9.35,9.35,0,0,1,1.87,6.12v.36H86.27A4.66,4.66,0,0,0,87,55.47a3.73,3.73,0,0,0,3.13,1.47,4,4,0,0,0,3.64-2Zm-4-5.51a3.74,3.74,0,0,0-7.38,0Z"/><path class="cls-2" d="M101.31,44.31h4.4v2.34a5.2,5.2,0,0,1,1.94-2.16,4.79,4.79,0,0,1,2.59-.69,5.35,5.35,0,0,1,1.87.36l-.57,4.11a3.3,3.3,0,0,0-2.05-.58A3.59,3.59,0,0,0,106.57,49a5.35,5.35,0,0,0-.86,3.46v7.48h-4.4Z"/><path class="cls-2" d="M138,55.54c-.47,1.15-2.23,4.86-7.67,4.86a8.13,8.13,0,0,1-6-2.2,7.84,7.84,0,0,1-2.45-6.08A8.27,8.27,0,0,1,124.25,46a8,8,0,0,1,5.86-2.2,7.45,7.45,0,0,1,6.09,2.56,9.35,9.35,0,0,1,1.87,6.12v.36H126.4a4.67,4.67,0,0,0,.76,2.63,3.73,3.73,0,0,0,3.13,1.47,4,4,0,0,0,3.64-2Zm-4-5.51a3.74,3.74,0,0,0-7.38,0Z"/><path class="cls-2" d="M141.45,44.31h4.4v2.34a5.13,5.13,0,0,1,1.94-2.16,4.79,4.79,0,0,1,2.59-.69,5.35,5.35,0,0,1,1.87.36l-.57,4.11a3.3,3.3,0,0,0-2.05-.58A3.59,3.59,0,0,0,146.71,49a5.35,5.35,0,0,0-.86,3.46v7.48h-4.4Z"/><path class="cls-2" d="M178.1,55.54c-.47,1.15-2.23,4.86-7.67,4.86a8.12,8.12,0,0,1-6-2.2A7.84,7.84,0,0,1,162,52.12,8.31,8.31,0,0,1,164.38,46a8,8,0,0,1,5.87-2.2,7.43,7.43,0,0,1,6.08,2.56,9.31,9.31,0,0,1,1.88,6.12v.36H166.54a4.67,4.67,0,0,0,.76,2.63,3.73,3.73,0,0,0,3.13,1.47,4,4,0,0,0,3.64-2Zm-4-5.51a3.74,3.74,0,0,0-7.38,0Z"/><path class="cls-2" d="M181.59,44.31H186v2a5.74,5.74,0,0,1,4.83-2.52,6,6,0,0,1,4.6,1.91,6.57,6.57,0,0,1,1.23,4.39v9.79h-4.39V51.4a4.47,4.47,0,0,0-.83-3.06,2.82,2.82,0,0,0-2-.79,3,3,0,0,0-2.7,1.36,5.38,5.38,0,0,0-.69,3v8h-4.39Z"/><path class="cls-2" d="M209.2,44.31h4.4v1.76a5.72,5.72,0,0,1,4.64-2.27,5.15,5.15,0,0,1,4.93,2.85,5.73,5.73,0,0,1,5-2.85,5,5,0,0,1,4.21,1.91c1,1.33,1.08,2.66,1.08,4.39v9.79h-4.39V51.4a4.68,4.68,0,0,0-.72-3.06,2.2,2.2,0,0,0-1.8-.79,2.59,2.59,0,0,0-2.41,1.36,6,6,0,0,0-.61,3v8h-4.39V51.4a4.74,4.74,0,0,0-.72-3.06,2.21,2.21,0,0,0-1.8-.79,2.57,2.57,0,0,0-2.41,1.36,5.91,5.91,0,0,0-.61,3v8h-4.4Z"/><path class="cls-2" d="M249.59,44.31H254V59.89h-4.39v-2a5.58,5.58,0,0,1-4.78,2.52c-4.79,0-8-3.75-8-8.32s3.13-8.28,7.74-8.28a5.64,5.64,0,0,1,5,2.52Zm-8.2,7.77a4.32,4.32,0,1,0,4.32-4.39A4.27,4.27,0,0,0,241.39,52.08Z"/><path class="cls-2" d="M262.55,68.14h-4.39V44.31h4.39v2a6,6,0,0,1,5.08-2.52A7.48,7.48,0,0,1,273,45.89a8.42,8.42,0,0,1,2.34,6.19,8.32,8.32,0,0,1-2.45,6.3,7.63,7.63,0,0,1-5.29,2,5.92,5.92,0,0,1-5-2.52Zm1.05-19.41a4.15,4.15,0,0,0-1.48,3.35,4.46,4.46,0,0,0,1.44,3.39,4.29,4.29,0,0,0,2.88,1,4.15,4.15,0,0,0,2.95-1.12,4.55,4.55,0,0,0,1.37-3.31,4.68,4.68,0,0,0-1.33-3.27,4.6,4.6,0,0,0-3-1.12A4,4,0,0,0,263.6,48.73Z"/><path class="cls-2" d="M283.07,68.14h-4.39V44.31h4.39v2a6,6,0,0,1,5.08-2.52,7.48,7.48,0,0,1,5.33,2.09,8.42,8.42,0,0,1,2.34,6.19,8.32,8.32,0,0,1-2.45,6.3,7.63,7.63,0,0,1-5.29,2,5.92,5.92,0,0,1-5-2.52Zm1.05-19.41a4.12,4.12,0,0,0-1.48,3.35,4.46,4.46,0,0,0,1.44,3.39,4.29,4.29,0,0,0,2.88,1,4.15,4.15,0,0,0,3-1.12,4.55,4.55,0,0,0,1.37-3.31A4.68,4.68,0,0,0,290,48.81a4.6,4.6,0,0,0-3-1.12A4,4,0,0,0,284.12,48.73Z"/><path class="cls-2" d="M314.5,55.54c-.47,1.15-2.23,4.86-7.67,4.86a8.12,8.12,0,0,1-6-2.2,7.84,7.84,0,0,1-2.45-6.08A8.27,8.27,0,0,1,300.79,46a8,8,0,0,1,5.86-2.2,7.45,7.45,0,0,1,6.09,2.56,9.35,9.35,0,0,1,1.87,6.12v.36H303a4.66,4.66,0,0,0,.75,2.63,3.73,3.73,0,0,0,3.13,1.47,4,4,0,0,0,3.64-2Zm-4-5.51a3.74,3.74,0,0,0-7.38,0Z"/><path class="cls-2" d="M326.38,44.31h4.39v1.76a5.74,5.74,0,0,1,4.65-2.27,5.15,5.15,0,0,1,4.93,2.85,5.71,5.71,0,0,1,5-2.85,5,5,0,0,1,4.21,1.91c1,1.33,1.08,2.66,1.08,4.39v9.79h-4.39V51.4a4.68,4.68,0,0,0-.72-3.06,2.2,2.2,0,0,0-1.8-.79,2.58,2.58,0,0,0-2.41,1.36,5.91,5.91,0,0,0-.61,3v8h-4.39V51.4a4.74,4.74,0,0,0-.72-3.06,2.21,2.21,0,0,0-1.8-.79,2.6,2.6,0,0,0-2.42,1.36,6,6,0,0,0-.61,3v8h-4.39Z"/><path class="cls-2" d="M370.12,55.54c-.47,1.15-2.23,4.86-7.67,4.86a8.12,8.12,0,0,1-6-2.2A7.84,7.84,0,0,1,354,52.12,8.31,8.31,0,0,1,356.4,46a8,8,0,0,1,5.87-2.2,7.45,7.45,0,0,1,6.09,2.56,9.35,9.35,0,0,1,1.87,6.12v.36H358.56a4.67,4.67,0,0,0,.76,2.63,3.73,3.73,0,0,0,3.13,1.47,4,4,0,0,0,3.64-2Zm-4-5.51a3.74,3.74,0,0,0-7.38,0Z"/><path class="cls-2" d="M385.56,33.65H390V59.89h-4.4v-2a5.58,5.58,0,0,1-4.78,2.52c-4.79,0-8-3.75-8-8.32s3.13-8.28,7.74-8.28a5.64,5.64,0,0,1,5,2.52Zm-8.2,18.43a4.32,4.32,0,1,0,4.32-4.39A4.27,4.27,0,0,0,377.36,52.08Z"/><path class="cls-2" d="M58.4,87.51h4.4v2A5.71,5.71,0,0,1,67.62,87a6,6,0,0,1,4.6,1.91,6.57,6.57,0,0,1,1.23,4.39v9.79H69.06V94.6a4.47,4.47,0,0,0-.83-3.06,2.8,2.8,0,0,0-2-.79,3,3,0,0,0-2.7,1.36,5.36,5.36,0,0,0-.68,3v8H58.4Z"/><path class="cls-2" d="M78.74,100.5A8.42,8.42,0,0,1,77,95.32a8.19,8.19,0,0,1,2.63-6.12A9,9,0,0,1,85.9,87a9.24,9.24,0,0,1,5,1.3l2.44-2.45,2,1.84L93,90.06a8.46,8.46,0,0,1,1.8,5.26,8.2,8.2,0,0,1-2.62,6.08,10.26,10.26,0,0,1-11.42.86l-2.37,2.38-2-1.8Zm9.14-9.14A3.71,3.71,0,0,0,86,90.89a4.33,4.33,0,0,0-4.5,4.46,4.8,4.8,0,0,0,.44,2Zm-4,7.84a4.31,4.31,0,0,0,2.09.51,4,4,0,0,0,3.13-1.3,4.37,4.37,0,0,0,1.23-3.16,3.5,3.5,0,0,0-.51-2Z"/><path class="cls-2" d="M110.24,87.51h4.39v14.86c0,2.38-.21,4.86-2.16,6.81a8.28,8.28,0,0,1-6.15,2.19c-3,0-4.83-.9-5.83-1.8A8.66,8.66,0,0,1,98,104.93h4.76a3.69,3.69,0,0,0,1.08,1.87,3.88,3.88,0,0,0,2.66.83,3.73,3.73,0,0,0,2.67-1,4.44,4.44,0,0,0,1.11-3.46V101a5.46,5.46,0,0,1-4.79,2.6,7.38,7.38,0,0,1-5.4-2.13,8.55,8.55,0,0,1-2.48-6.19A8.68,8.68,0,0,1,100,89.09,7.65,7.65,0,0,1,105.35,87a5.49,5.49,0,0,1,4.89,2.52ZM103.51,92a4.43,4.43,0,0,0,2.91,7.74,4.45,4.45,0,0,0,2.92-1.08,4.6,4.6,0,0,0,1.4-3.35,4.42,4.42,0,0,0-1.26-3.13,4,4,0,0,0-3.06-1.26A4.23,4.23,0,0,0,103.51,92Z"/><path class="cls-2" d="M134.11,98.74c-.47,1.15-2.23,4.86-7.67,4.86a8.16,8.16,0,0,1-6-2.2A7.86,7.86,0,0,1,118,95.32a8.31,8.31,0,0,1,2.37-6.12,8,8,0,0,1,5.87-2.2,7.43,7.43,0,0,1,6.08,2.56,9.3,9.3,0,0,1,1.87,6.12V96H122.55a4.59,4.59,0,0,0,.76,2.63,3.73,3.73,0,0,0,3.13,1.47,4,4,0,0,0,3.64-2Zm-4-5.51a3.74,3.74,0,0,0-7.38,0Z"/><path class="cls-2" d="M137.6,87.51H142v2A5.74,5.74,0,0,1,146.82,87a6,6,0,0,1,4.6,1.91,6.57,6.57,0,0,1,1.23,4.39v9.79h-4.39V94.6a4.47,4.47,0,0,0-.83-3.06,2.82,2.82,0,0,0-2.05-.79,3,3,0,0,0-2.7,1.36,5.38,5.38,0,0,0-.69,3v8H137.6Z"/><path class="cls-2" d="M161.22,89.52A6,6,0,0,1,166.29,87c4.61,0,7.67,3.57,7.67,8.28s-3.17,8.32-7.78,8.32a5.89,5.89,0,0,1-5-2.52v2h-4.4V76.85h4.4Zm-.44,5.76a4.32,4.32,0,1,0,4.32-4.39A4.27,4.27,0,0,0,160.78,95.28Z"/><path class="cls-2" d="M179.54,78.29a2.63,2.63,0,1,1-2.63,2.63A2.65,2.65,0,0,1,179.54,78.29Zm2.2,9.22v15.58h-4.4V87.51Z"/><path class="cls-2" d="M190.3,76.85v26.24h-4.39V76.85Z"/><path class="cls-2" d="M198.87,76.85v26.24h-4.39V76.85Z"/><path class="cls-2" d="M218.34,98.74c-.46,1.15-2.23,4.86-7.66,4.86a8.16,8.16,0,0,1-6-2.2,7.84,7.84,0,0,1-2.45-6.08,8.27,8.27,0,0,1,2.38-6.12A8,8,0,0,1,210.5,87a7.44,7.44,0,0,1,6.08,2.56,9.3,9.3,0,0,1,1.87,6.12V96H206.79a4.59,4.59,0,0,0,.76,2.63,3.72,3.72,0,0,0,3.13,1.47,4,4,0,0,0,3.63-2Zm-4-5.51a3.74,3.74,0,0,0-7.38,0Z"/><path class="cls-2" d="M233.79,76.85h4.39v26.24h-4.39v-2A5.61,5.61,0,0,1,229,103.6c-4.79,0-7.95-3.75-7.95-8.32S224.18,87,228.79,87a5.66,5.66,0,0,1,5,2.52Zm-8.21,18.43a4.32,4.32,0,1,0,4.32-4.39A4.27,4.27,0,0,0,225.58,95.28Z"/><path class="cls-2" d="M257.66,98.74c-.47,1.15-2.24,4.86-7.67,4.86a8.16,8.16,0,0,1-6-2.2,7.86,7.86,0,0,1-2.44-6.08,8.31,8.31,0,0,1,2.37-6.12,8,8,0,0,1,5.87-2.2,7.43,7.43,0,0,1,6.08,2.56,9.3,9.3,0,0,1,1.87,6.12V96H246.1a4.59,4.59,0,0,0,.76,2.63,3.72,3.72,0,0,0,3.13,1.47,4,4,0,0,0,3.64-2Zm-4-5.51a3.74,3.74,0,0,0-7.38,0Z"/><path class="cls-2" d="M261.15,87.51h4.39v2.34a5.2,5.2,0,0,1,1.94-2.16,4.74,4.74,0,0,1,2.6-.69,5.4,5.4,0,0,1,1.87.36l-.58,4.11a3.26,3.26,0,0,0-2.05-.58,3.6,3.6,0,0,0-2.92,1.26,5.39,5.39,0,0,0-.86,3.45v7.49h-4.39Z"/><path class="cls-2" d="M291,91.21a3.64,3.64,0,0,0-2.55-1c-1.05,0-1.7.5-1.7,1.26,0,.4.19,1,1.41,1.4l1,.33c1.23.39,3.06,1,4,2.23a4.5,4.5,0,0,1,.79,2.59,5.16,5.16,0,0,1-1.72,4,6.55,6.55,0,0,1-4.68,1.66,7.86,7.86,0,0,1-6.05-2.6l2.3-2.66a4.84,4.84,0,0,0,3.46,1.8c1.22,0,2.16-.61,2.16-1.69A1.73,1.73,0,0,0,288,96.87l-1-.36a8.48,8.48,0,0,1-3.34-1.88,4.11,4.11,0,0,1-1.19-3,4.61,4.61,0,0,1,1.62-3.53A6.45,6.45,0,0,1,288.19,87a7.78,7.78,0,0,1,5,1.66Z"/><path class="cls-2" d="M311.47,89.2a8.39,8.39,0,0,1,0,12.2,10.11,10.11,0,0,1-12.59,0,8.39,8.39,0,0,1,0-12.2,10.11,10.11,0,0,1,12.59,0Zm-1.9,6.12a4.39,4.39,0,1,0-4.39,4.39A4.35,4.35,0,0,0,309.57,95.32Z"/><path class="cls-2" d="M317.49,87.51h4.39v1.76A5.74,5.74,0,0,1,326.52,87a5.16,5.16,0,0,1,4.94,2.85,5.71,5.71,0,0,1,5-2.85,5,5,0,0,1,4.21,1.91c1,1.33,1.08,2.66,1.08,4.39v9.79h-4.39V94.6a4.74,4.74,0,0,0-.72-3.06,2.21,2.21,0,0,0-1.8-.79,2.57,2.57,0,0,0-2.41,1.36,5.92,5.92,0,0,0-.62,3v8h-4.39V94.6a4.68,4.68,0,0,0-.72-3.06,2.19,2.19,0,0,0-1.8-.79,2.59,2.59,0,0,0-2.41,1.36,6,6,0,0,0-.61,3v8h-4.39Z"/><path class="cls-2" d="M62.8,132.72a6,6,0,0,1,5.07-2.52c4.61,0,7.67,3.57,7.67,8.28s-3.17,8.32-7.78,8.32a5.88,5.88,0,0,1-5-2.52v2H58.4V120.05h4.4Zm-.44,5.76a4.32,4.32,0,1,0,4.32-4.39A4.27,4.27,0,0,0,62.36,138.48Z"/><path class="cls-2" d="M83.31,120.05v26.24H78.92V120.05Z"/><path class="cls-2" d="M89.69,121.49a2.63,2.63,0,1,1-2.63,2.63A2.64,2.64,0,0,1,89.69,121.49Zm2.19,9.22v15.58H87.49V130.71Z"/><path class="cls-2" d="M98.94,130.71l4.1,8.78,4.1-8.78H112l-7.85,15.58h-2.3L94,130.71Z"/><path class="cls-2" d="M129.14,141.94c-.47,1.15-2.23,4.86-7.67,4.86a8.13,8.13,0,0,1-6-2.2,7.84,7.84,0,0,1-2.45-6.08,8.27,8.27,0,0,1,2.38-6.12,8,8,0,0,1,5.86-2.2,7.45,7.45,0,0,1,6.09,2.56,9.35,9.35,0,0,1,1.87,6.12v.36H117.58a4.61,4.61,0,0,0,.76,2.62,3.71,3.71,0,0,0,3.13,1.48,4,4,0,0,0,3.64-2.05Zm-4-5.51a3.74,3.74,0,0,0-7.38,0Z"/><path class="cls-2" d="M132.63,130.71H137v2.34a5.13,5.13,0,0,1,1.94-2.16,4.7,4.7,0,0,1,2.59-.69,5.35,5.35,0,0,1,1.87.36l-.57,4.11a3.31,3.31,0,0,0-2.06-.58,3.58,3.58,0,0,0-2.91,1.26,5.35,5.35,0,0,0-.86,3.46v7.48h-4.4Z"/><path class="cls-2" d="M165.93,120.05h4.39v26.24h-4.39v-2a5.61,5.61,0,0,1-4.79,2.52c-4.78,0-7.95-3.75-7.95-8.32s3.13-8.28,7.74-8.28a5.64,5.64,0,0,1,5,2.52Zm-8.21,18.43a4.32,4.32,0,1,0,4.32-4.39A4.27,4.27,0,0,0,157.72,138.48Z"/><path class="cls-2" d="M189.8,141.94c-.47,1.15-2.23,4.86-7.67,4.86a8.16,8.16,0,0,1-6-2.2,7.86,7.86,0,0,1-2.44-6.08,8.31,8.31,0,0,1,2.37-6.12,8,8,0,0,1,5.87-2.2,7.43,7.43,0,0,1,6.08,2.56,9.31,9.31,0,0,1,1.88,6.12v.36H178.24a4.54,4.54,0,0,0,.76,2.62,3.71,3.71,0,0,0,3.13,1.48,4,4,0,0,0,3.64-2.05Zm-4-5.51a3.74,3.74,0,0,0-7.38,0Z"/><path class="cls-2" d="M197.68,120.05v26.24h-4.39V120.05Z"/><path class="cls-2" d="M206.25,134.45v11.84h-4.39V134.45h-1.73v-3.74h1.73v-5.33h4.39v5.33h3v3.74Z"/><path class="cls-2" d="M224.36,154.54H220V130.71h4.39v2a5.92,5.92,0,0,1,5.07-2.52,7.47,7.47,0,0,1,5.33,2.09,8.42,8.42,0,0,1,2.34,6.19,8.32,8.32,0,0,1-2.45,6.3,7.63,7.63,0,0,1-5.29,2,5.91,5.91,0,0,1-5-2.52Zm1-19.41a4.14,4.14,0,0,0-1.47,3.35,4.39,4.39,0,0,0,1.44,3.38,4.46,4.46,0,0,0,5.83-.07,4.58,4.58,0,0,0,1.36-3.31,4.64,4.64,0,0,0-1.33-3.27,4.58,4.58,0,0,0-3-1.12A4,4,0,0,0,225.4,135.13Z"/><path class="cls-2" d="M252.44,130.71h4.39v15.58h-4.39v-2a5.63,5.63,0,0,1-4.79,2.52c-4.79,0-8-3.75-8-8.32s3.14-8.28,7.74-8.28a5.67,5.67,0,0,1,5,2.52Zm-8.21,7.77a4.32,4.32,0,1,0,4.32-4.39A4.27,4.27,0,0,0,244.23,138.48Zm4.35-17.17a3.39,3.39,0,1,1-3.38,3.38A3.43,3.43,0,0,1,248.58,121.31Zm0,4.79a1.41,1.41,0,1,0-1.4-1.41A1.35,1.35,0,0,0,248.58,126.1Z"/><path class="cls-2" d="M277.89,134.41a3.66,3.66,0,0,0-2.56-1c-1,0-1.69.5-1.69,1.26,0,.4.18,1,1.41,1.4l1,.33c1.22.39,3.06,1,4,2.23a4.5,4.5,0,0,1,.79,2.59,5.19,5.19,0,0,1-1.73,4,6.55,6.55,0,0,1-4.68,1.66,7.88,7.88,0,0,1-6.05-2.6l2.31-2.66a4.82,4.82,0,0,0,3.45,1.8c1.23,0,2.16-.61,2.16-1.69a1.75,1.75,0,0,0-1.36-1.59l-1-.35a8.39,8.39,0,0,1-3.35-1.88,4.15,4.15,0,0,1-1.19-3,4.61,4.61,0,0,1,1.62-3.53,6.46,6.46,0,0,1,4.07-1.12,7.8,7.8,0,0,1,5,1.66Z"/><path class="cls-2" d="M288.33,120.05v16.34l5.83-5.68h5.69l-7.31,6.84,7.88,8.74h-5.83l-5.79-6.66-.47.43v6.23h-4.39V120.05Z"/><path class="cls-2" d="M316.05,132.4a8.41,8.41,0,0,1,0,12.2,10.12,10.12,0,0,1-12.6,0,8.39,8.39,0,0,1,0-12.2,10.12,10.12,0,0,1,12.6,0Zm-1.91,6.12a4.39,4.39,0,1,0-4.39,4.39A4.35,4.35,0,0,0,314.14,138.52Z"/><path class="cls-2" d="M326.45,120.05v26.24h-4.39V120.05Z"/><path class="cls-2" d="M345.93,141.94c-.47,1.15-2.23,4.86-7.67,4.86a8.16,8.16,0,0,1-6-2.2,7.86,7.86,0,0,1-2.44-6.08,8.31,8.31,0,0,1,2.37-6.12,8,8,0,0,1,5.87-2.2,7.43,7.43,0,0,1,6.08,2.56,9.31,9.31,0,0,1,1.88,6.12v.36H334.37a4.54,4.54,0,0,0,.76,2.62,3.71,3.71,0,0,0,3.13,1.48,4,4,0,0,0,3.63-2.05Zm-4-5.51a3.73,3.73,0,0,0-7.37,0Z"/><path class="cls-2" d="M349.42,130.71h4.39v2a5.74,5.74,0,0,1,4.82-2.52,6,6,0,0,1,4.61,1.91,6.57,6.57,0,0,1,1.23,4.39v9.79h-4.4V137.8a4.46,4.46,0,0,0-.82-3.06,2.82,2.82,0,0,0-2.05-.79,3,3,0,0,0-2.7,1.36,5.38,5.38,0,0,0-.69,3v7.95h-4.39Z"/><path class="cls-2" d="M371.09,141.15a2.81,2.81,0,1,1-2.81,2.8A2.76,2.76,0,0,1,371.09,141.15Z"/></g></svg>
