<svg xmlns="http://www.w3.org/2000/svg" width="473.69" height="191.3" viewBox="0 0 473.69 191.3"><defs><style>.cls-1{fill:#f2902c;}.cls-2{fill:#fff;}</style></defs><title>bubble_2</title><g id="Oversigt"><g id="bobler-højre_copy" data-name="bobler-højre copy"><path class="cls-1" d="M.67,172.2c0,9.58,4,15.85,12.05,18.88,1.58,0,3.16.09,4.74.09H438.59c7,.19,14,.12,21,0a7.09,7.09,0,0,0,.79,0c8.08-.57,13.93-8.48,13.93-18.8,0-50.5-.2-101,.09-151.48C474.43,8,467.09,0,457.7,0Q236.81.32,15.92.14C6.85.14.7,7.88.7,19.31Q.7,95.77.67,172.2Z"/></g></g><g id="Tekster"><path class="cls-2" d="M80.55,37.42c3.35,0,6.26.36,8.93,2.34a11.9,11.9,0,0,1,4.61,9.68,11.43,11.43,0,0,1-4.83,9.68c-2.8,2-5.43,2.31-8.78,2.31H74.29v-24ZM79,57.4h1.44a10.08,10.08,0,0,0,5.87-1.59,7.82,7.82,0,0,0,3-6.37,8,8,0,0,0-3-6.41,9.75,9.75,0,0,0-5.9-1.58H79Z"/><path class="cls-2" d="M113.06,57.07c-.47,1.15-2.23,4.86-7.67,4.86a8.17,8.17,0,0,1-6-2.19A7.86,7.86,0,0,1,97,53.65a8.31,8.31,0,0,1,2.38-6.12,8,8,0,0,1,5.86-2.19,7.48,7.48,0,0,1,6.09,2.55A9.35,9.35,0,0,1,113.17,54v.36H101.5a4.62,4.62,0,0,0,.76,2.63,3.71,3.71,0,0,0,3.13,1.48A4,4,0,0,0,109,56.42Zm-4-5.51a3.74,3.74,0,0,0-7.38,0Z"/><path class="cls-2" d="M116.55,45.84H121v2.34A5.2,5.2,0,0,1,122.89,46a4.79,4.79,0,0,1,2.59-.68,5.35,5.35,0,0,1,1.87.36l-.57,4.1a3.37,3.37,0,0,0-2.06-.58,3.61,3.61,0,0,0-2.91,1.26,5.36,5.36,0,0,0-.86,3.46v7.49h-4.4Z"/><path class="cls-2" d="M153.2,57.07c-.47,1.15-2.23,4.86-7.67,4.86a8.15,8.15,0,0,1-6-2.19,7.86,7.86,0,0,1-2.45-6.09,8.34,8.34,0,0,1,2.37-6.12,8,8,0,0,1,5.87-2.19,7.45,7.45,0,0,1,6.08,2.55A9.31,9.31,0,0,1,153.31,54v.36H141.64A4.55,4.55,0,0,0,142.4,57a3.71,3.71,0,0,0,3.13,1.48,4,4,0,0,0,3.64-2.06Zm-4-5.51a3.74,3.74,0,0,0-7.38,0Z"/><path class="cls-2" d="M156.69,45.84h4.39v2.34A5.27,5.27,0,0,1,163,46a4.76,4.76,0,0,1,2.59-.68,5.35,5.35,0,0,1,1.87.36l-.58,4.1a3.32,3.32,0,0,0-2-.58A3.61,3.61,0,0,0,162,50.48a5.37,5.37,0,0,0-.87,3.46v7.49h-4.39Z"/><path class="cls-2" d="M193.34,57.07c-.47,1.15-2.23,4.86-7.67,4.86a8.19,8.19,0,0,1-6-2.19,7.89,7.89,0,0,1-2.44-6.09,8.34,8.34,0,0,1,2.37-6.12,8,8,0,0,1,5.87-2.19,7.45,7.45,0,0,1,6.08,2.55A9.31,9.31,0,0,1,193.45,54v.36H181.78a4.55,4.55,0,0,0,.76,2.63,3.71,3.71,0,0,0,3.13,1.48,4,4,0,0,0,3.64-2.06Zm-4-5.51a3.74,3.74,0,0,0-7.38,0Z"/><path class="cls-2" d="M196.83,45.84h4.39v2a5.74,5.74,0,0,1,4.83-2.52,5.92,5.92,0,0,1,4.6,1.91,6.55,6.55,0,0,1,1.23,4.39v9.79h-4.4v-8.5a4.48,4.48,0,0,0-.82-3.06,2.82,2.82,0,0,0-2-.79,3,3,0,0,0-2.7,1.37,5.35,5.35,0,0,0-.69,3v8h-4.39Z"/><path class="cls-2" d="M236.39,35.19h4.39V61.43h-4.39v-2a5.58,5.58,0,0,1-4.78,2.52c-4.79,0-8-3.74-8-8.31s3.13-8.28,7.74-8.28a5.62,5.62,0,0,1,5,2.52Zm-8.2,18.43a4.32,4.32,0,1,0,4.31-4.4A4.26,4.26,0,0,0,228.19,53.62Z"/><path class="cls-2" d="M245,45.84h4.39v2.34a5.27,5.27,0,0,1,2-2.16,4.76,4.76,0,0,1,2.59-.68,5.4,5.4,0,0,1,1.87.36l-.58,4.1a3.32,3.32,0,0,0-2.05-.58,3.61,3.61,0,0,0-2.91,1.26,5.37,5.37,0,0,0-.87,3.46v7.49H245Z"/><path class="cls-2" d="M272.46,57.07c-.47,1.15-2.23,4.86-7.66,4.86a8.19,8.19,0,0,1-6-2.19,7.86,7.86,0,0,1-2.45-6.09,8.31,8.31,0,0,1,2.38-6.12,8,8,0,0,1,5.87-2.19,7.47,7.47,0,0,1,6.08,2.55A9.35,9.35,0,0,1,272.57,54v.36H260.91a4.61,4.61,0,0,0,.75,2.63,3.72,3.72,0,0,0,3.14,1.48,4,4,0,0,0,3.63-2.06Zm-4-5.51a3.74,3.74,0,0,0-7.38,0Z"/><path class="cls-2" d="M276,45.84h4.39v2a5.72,5.72,0,0,1,4.82-2.52,5.93,5.93,0,0,1,4.61,1.91A6.54,6.54,0,0,1,291,51.64v9.79h-4.39v-8.5a4.49,4.49,0,0,0-.83-3.06,2.8,2.8,0,0,0-2-.79,3,3,0,0,0-2.7,1.37,5.42,5.42,0,0,0-.68,3v8H276Z"/><path class="cls-2" d="M307.06,45.84h4.39V60.71c0,2.37-.22,4.86-2.16,6.8a8.27,8.27,0,0,1-6.15,2.2c-3,0-4.83-.9-5.83-1.8a8.63,8.63,0,0,1-2.53-4.65h4.76a3.69,3.69,0,0,0,1.08,1.87,3.83,3.83,0,0,0,2.66.83,3.68,3.68,0,0,0,2.66-1,4.38,4.38,0,0,0,1.12-3.45v-2.2a5.47,5.47,0,0,1-4.79,2.59,7.4,7.4,0,0,1-5.4-2.12,8.57,8.57,0,0,1-2.48-6.19,8.7,8.7,0,0,1,2.41-6.2,7.64,7.64,0,0,1,5.36-2.08,5.48,5.48,0,0,1,4.9,2.52Zm-6.73,4.46a4.3,4.3,0,0,0-1.41,3.32,4.35,4.35,0,0,0,1.16,3.06A4.27,4.27,0,0,0,303.24,58,4.4,4.4,0,0,0,306.16,57a4.56,4.56,0,0,0,1.4-3.34,4.47,4.47,0,0,0-1.26-3.14,4,4,0,0,0-3.06-1.26A4.23,4.23,0,0,0,300.33,50.3Z"/><path class="cls-2" d="M326.21,36.63a2.63,2.63,0,1,1-2.63,2.62A2.64,2.64,0,0,1,326.21,36.63Zm2.2,9.21V61.43H324V45.84Z"/><path class="cls-2" d="M78,78.39V94.73L83.86,89h5.69l-7.31,6.84,7.89,8.75H84.3L78.5,98,78,98.4v6.23H73.64V78.39Z"/><path class="cls-2" d="M96.47,78.39v26.24h-4.4V78.39Z"/><path class="cls-2" d="M112.59,89H117v15.59h-4.39v-2a5.58,5.58,0,0,1-4.79,2.52c-4.78,0-8-3.74-8-8.31s3.13-8.28,7.74-8.28a5.62,5.62,0,0,1,5,2.52Zm-8.21,7.78a4.32,4.32,0,1,0,4.32-4.4A4.26,4.26,0,0,0,104.38,96.82Z"/><path class="cls-2" d="M129.65,92.75a3.65,3.65,0,0,0-2.55-1c-1,0-1.69.51-1.69,1.26,0,.4.18,1,1.4,1.41l1,.32c1.22.4,3,1,4,2.23a4.53,4.53,0,0,1,.8,2.6,5.2,5.2,0,0,1-1.73,4,6.55,6.55,0,0,1-4.68,1.65,7.89,7.89,0,0,1-6-2.59l2.31-2.66a4.84,4.84,0,0,0,3.45,1.79c1.23,0,2.16-.61,2.16-1.69a1.74,1.74,0,0,0-1.37-1.58l-1-.36a8.42,8.42,0,0,1-3.35-1.87,4.2,4.2,0,0,1-1.19-3,4.64,4.64,0,0,1,1.62-3.53,6.44,6.44,0,0,1,4.07-1.11,7.76,7.76,0,0,1,5,1.65Z"/><path class="cls-2" d="M143.48,92.75a3.67,3.67,0,0,0-2.56-1c-1,0-1.69.51-1.69,1.26,0,.4.18,1,1.41,1.41l1,.32c1.22.4,3.06,1,4,2.23a4.53,4.53,0,0,1,.79,2.6,5.2,5.2,0,0,1-1.73,4,6.55,6.55,0,0,1-4.68,1.65,7.87,7.87,0,0,1-6-2.59l2.3-2.66a4.84,4.84,0,0,0,3.45,1.79c1.23,0,2.16-.61,2.16-1.69a1.74,1.74,0,0,0-1.36-1.58l-1-.36a8.49,8.49,0,0,1-3.35-1.87,4.2,4.2,0,0,1-1.19-3,4.64,4.64,0,0,1,1.62-3.53,6.45,6.45,0,0,1,4.07-1.11,7.78,7.78,0,0,1,5,1.65Z"/><path class="cls-2" d="M164.83,100.27c-.47,1.15-2.24,4.86-7.67,4.86a8.16,8.16,0,0,1-6-2.2,7.85,7.85,0,0,1-2.44-6.08,8.34,8.34,0,0,1,2.37-6.12A8,8,0,0,1,157,88.54a7.45,7.45,0,0,1,6.08,2.55,9.3,9.3,0,0,1,1.87,6.12v.36H153.27a4.55,4.55,0,0,0,.76,2.63,3.69,3.69,0,0,0,3.13,1.47,4,4,0,0,0,3.64-2Zm-4-5.51a3.74,3.74,0,0,0-7.38,0Z"/><path class="cls-2" d="M168.32,89h4.39v2a5.74,5.74,0,0,1,4.83-2.52,6,6,0,0,1,4.6,1.9,6.59,6.59,0,0,1,1.23,4.4v9.79H179v-8.5a4.48,4.48,0,0,0-.82-3.06,2.82,2.82,0,0,0-2.06-.79,3,3,0,0,0-2.7,1.37,5.42,5.42,0,0,0-.68,3v8h-4.39Z"/><path class="cls-2" d="M189.42,99.66l4,.47-5.08,9.54-2.77-.33Z"/><path class="cls-2" d="M216.23,92.75a3.65,3.65,0,0,0-2.55-1c-1,0-1.69.51-1.69,1.26,0,.4.18,1,1.4,1.41l1,.32c1.23.4,3.06,1,4,2.23a4.53,4.53,0,0,1,.8,2.6,5.2,5.2,0,0,1-1.73,4,6.55,6.55,0,0,1-4.68,1.65,7.89,7.89,0,0,1-6.05-2.59L209,99.88a4.82,4.82,0,0,0,3.45,1.79c1.22,0,2.16-.61,2.16-1.69a1.74,1.74,0,0,0-1.37-1.58l-1-.36a8.45,8.45,0,0,1-3.34-1.87,4.2,4.2,0,0,1-1.19-3,4.64,4.64,0,0,1,1.62-3.53,6.44,6.44,0,0,1,4.07-1.11,7.76,7.76,0,0,1,5,1.65Z"/><path class="cls-2" d="M236.72,90.73a8.41,8.41,0,0,1,0,12.2,10.12,10.12,0,0,1-12.6,0,8.39,8.39,0,0,1,0-12.2,10.16,10.16,0,0,1,12.6,0Zm-1.91,6.12a4.39,4.39,0,1,0-4.39,4.39A4.35,4.35,0,0,0,234.81,96.85Z"/><path class="cls-2" d="M242.73,89h4.39V90.8a5.76,5.76,0,0,1,4.65-2.26,5.17,5.17,0,0,1,4.93,2.84,5.73,5.73,0,0,1,5-2.84,5,5,0,0,1,4.21,1.9c1,1.34,1.08,2.67,1.08,4.4v9.79H262.6v-8.5a4.79,4.79,0,0,0-.72-3.06,2.21,2.21,0,0,0-1.8-.79,2.57,2.57,0,0,0-2.41,1.37,5.85,5.85,0,0,0-.61,3v8h-4.4v-8.5a4.81,4.81,0,0,0-.71-3.06,2.22,2.22,0,0,0-1.81-.79,2.58,2.58,0,0,0-2.41,1.37,6,6,0,0,0-.61,3v8h-4.39Z"/><path class="cls-2" d="M279.56,78.39H284V91.06a5.72,5.72,0,0,1,4.82-2.52,6,6,0,0,1,4.61,1.9,6.58,6.58,0,0,1,1.22,4.4v9.79h-4.39v-8.5a4.44,4.44,0,0,0-.83-3.06,2.8,2.8,0,0,0-2.05-.79,3,3,0,0,0-2.7,1.37,5.33,5.33,0,0,0-.68,3v8h-4.39Z"/><path class="cls-2" d="M310.73,89h4.39v15.59h-4.39v-2a5.58,5.58,0,0,1-4.79,2.52c-4.78,0-7.95-3.74-7.95-8.31s3.13-8.28,7.74-8.28a5.62,5.62,0,0,1,5,2.52Zm-8.21,7.78a4.32,4.32,0,1,0,4.32-4.4A4.26,4.26,0,0,0,302.52,96.82Z"/><path class="cls-2" d="M319.3,89h4.39v2.34a5.27,5.27,0,0,1,1.95-2.16,4.76,4.76,0,0,1,2.59-.68,5.4,5.4,0,0,1,1.87.36l-.58,4.1a3.26,3.26,0,0,0-2-.58,3.57,3.57,0,0,0-2.91,1.26,5.37,5.37,0,0,0-.87,3.46v7.49H319.3Z"/><path class="cls-2" d="M352.6,78.39H357v26.24H352.6v-2a5.59,5.59,0,0,1-4.79,2.52c-4.79,0-7.95-3.74-7.95-8.31s3.13-8.28,7.73-8.28a5.64,5.64,0,0,1,5,2.52Zm-8.21,18.43a4.32,4.32,0,1,0,4.32-4.4A4.26,4.26,0,0,0,344.39,96.82Z"/><path class="cls-2" d="M376.47,100.27c-.47,1.15-2.24,4.86-7.67,4.86a8.16,8.16,0,0,1-6-2.2,7.82,7.82,0,0,1-2.44-6.08,8.34,8.34,0,0,1,2.37-6.12,8,8,0,0,1,5.87-2.19,7.45,7.45,0,0,1,6.08,2.55,9.3,9.3,0,0,1,1.87,6.12v.36H364.91a4.55,4.55,0,0,0,.76,2.63,3.69,3.69,0,0,0,3.13,1.47,4,4,0,0,0,3.63-2Zm-4-5.51a3.73,3.73,0,0,0-7.37,0Z"/><path class="cls-2" d="M384.35,78.39v26.24H380V78.39Z"/><path class="cls-2" d="M392.92,92.78v11.85h-4.39V92.78H386.8V89h1.73V83.71h4.39V89h3v3.74Z"/><path class="cls-2" d="M73.64,132.24H78v2a5.74,5.74,0,0,1,4.83-2.52,6,6,0,0,1,4.6,1.9,6.59,6.59,0,0,1,1.23,4.4v9.79H84.3v-8.5a4.49,4.49,0,0,0-.83-3.06,2.82,2.82,0,0,0-2-.79,3,3,0,0,0-2.7,1.37,5.35,5.35,0,0,0-.69,3v8H73.64Z"/><path class="cls-2" d="M94,145.24a8.41,8.41,0,0,1-1.76-5.19,8.26,8.26,0,0,1,2.62-6.12,9.06,9.06,0,0,1,6.3-2.19,9.2,9.2,0,0,1,5,1.29l2.45-2.45,2,1.84-2.38,2.38a8.5,8.5,0,0,1,1.8,5.25,8.21,8.21,0,0,1-2.63,6.09A10.3,10.3,0,0,1,96,147l-2.37,2.38-2-1.8Zm9.14-9.15a3.81,3.81,0,0,0-1.87-.46,4.31,4.31,0,0,0-4.5,4.46,4.93,4.93,0,0,0,.43,1.94Zm-4,7.85a4.27,4.27,0,0,0,2.09.5,4,4,0,0,0,3.13-1.29,4.38,4.38,0,0,0,1.23-3.17,3.52,3.52,0,0,0-.51-2Z"/><path class="cls-2" d="M125.48,132.24h4.39v14.87c0,2.37-.22,4.86-2.16,6.8a8.27,8.27,0,0,1-6.15,2.2c-3,0-4.83-.9-5.84-1.8a8.68,8.68,0,0,1-2.52-4.65H118a3.76,3.76,0,0,0,1.08,1.88,3.86,3.86,0,0,0,2.66.82,3.68,3.68,0,0,0,2.66-1,4.37,4.37,0,0,0,1.12-3.45v-2.2a5.47,5.47,0,0,1-4.79,2.59,7.4,7.4,0,0,1-5.4-2.12,8.57,8.57,0,0,1-2.48-6.19,8.66,8.66,0,0,1,2.41-6.19,7.6,7.6,0,0,1,5.36-2.09,5.48,5.48,0,0,1,4.9,2.52Zm-6.73,4.46a4.3,4.3,0,0,0-1.41,3.32,4.35,4.35,0,0,0,1.16,3.06,4.27,4.27,0,0,0,3.16,1.36,4.4,4.4,0,0,0,2.92-1.08A4.56,4.56,0,0,0,126,140a4.47,4.47,0,0,0-1.26-3.14,4,4,0,0,0-3.06-1.25A4.23,4.23,0,0,0,118.75,136.7Z"/><path class="cls-2" d="M149.35,143.47c-.47,1.15-2.24,4.86-7.67,4.86a8.19,8.19,0,0,1-6-2.19,7.85,7.85,0,0,1-2.44-6.09,8.34,8.34,0,0,1,2.37-6.12,8,8,0,0,1,5.87-2.19,7.45,7.45,0,0,1,6.08,2.55,9.3,9.3,0,0,1,1.87,6.12v.36H137.79a4.55,4.55,0,0,0,.76,2.63,3.69,3.69,0,0,0,3.13,1.48,4,4,0,0,0,3.63-2.06Zm-4-5.51a3.73,3.73,0,0,0-7.37,0Z"/><path class="cls-2" d="M152.84,132.24h4.39v2a5.74,5.74,0,0,1,4.83-2.52,6,6,0,0,1,4.6,1.9,6.59,6.59,0,0,1,1.23,4.4v9.79h-4.4v-8.5a4.48,4.48,0,0,0-.82-3.06,2.82,2.82,0,0,0-2.06-.79,3,3,0,0,0-2.7,1.37,5.42,5.42,0,0,0-.68,3v8h-4.39Z"/><path class="cls-2" d="M176.46,134.26a6,6,0,0,1,5.07-2.52c4.61,0,7.67,3.56,7.67,8.28s-3.17,8.31-7.78,8.31a5.88,5.88,0,0,1-5-2.52v2h-4.4V121.59h4.4ZM176,140a4.32,4.32,0,1,0,4.32-4.39A4.26,4.26,0,0,0,176,140Z"/><path class="cls-2" d="M194.78,123a2.63,2.63,0,1,1-2.63,2.62A2.64,2.64,0,0,1,194.78,123Zm2.19,9.21v15.59h-4.39V132.24Z"/><path class="cls-2" d="M205.54,121.59v26.24h-4.39V121.59Z"/><path class="cls-2" d="M214.11,121.59v26.24h-4.39V121.59Z"/><path class="cls-2" d="M233.58,143.47c-.46,1.15-2.23,4.86-7.66,4.86a8.19,8.19,0,0,1-6-2.19,7.86,7.86,0,0,1-2.45-6.09,8.31,8.31,0,0,1,2.38-6.12,8,8,0,0,1,5.87-2.19,7.47,7.47,0,0,1,6.08,2.55,9.35,9.35,0,0,1,1.87,6.12v.36H222a4.61,4.61,0,0,0,.75,2.63,3.72,3.72,0,0,0,3.14,1.48,4,4,0,0,0,3.63-2.06Zm-4-5.51a3.74,3.74,0,0,0-7.38,0Z"/><path class="cls-2" d="M249,121.59h4.39v26.24H249v-2a5.59,5.59,0,0,1-4.79,2.52c-4.79,0-8-3.74-8-8.31s3.13-8.28,7.73-8.28a5.64,5.64,0,0,1,5,2.52ZM240.82,140a4.32,4.32,0,1,0,4.32-4.39A4.26,4.26,0,0,0,240.82,140Z"/><path class="cls-2" d="M272.89,143.47c-.46,1.15-2.23,4.86-7.66,4.86a8.19,8.19,0,0,1-6-2.19,7.85,7.85,0,0,1-2.44-6.09,8.3,8.3,0,0,1,2.37-6.12,8,8,0,0,1,5.87-2.19,7.45,7.45,0,0,1,6.08,2.55,9.3,9.3,0,0,1,1.87,6.12v.36H261.34a4.55,4.55,0,0,0,.76,2.63,3.69,3.69,0,0,0,3.13,1.48,4,4,0,0,0,3.63-2.06Zm-4-5.51a3.74,3.74,0,0,0-7.38,0Z"/><path class="cls-2" d="M276.39,132.24h4.39v2.34a5.27,5.27,0,0,1,1.94-2.16,4.81,4.81,0,0,1,2.59-.68,5.46,5.46,0,0,1,1.88.36l-.58,4.1a3.26,3.26,0,0,0-2.05-.57,3.59,3.59,0,0,0-2.92,1.25,5.42,5.42,0,0,0-.86,3.46v7.49h-4.39Z"/><path class="cls-2" d="M309.69,132.24h4.39v15.59h-4.39v-2a5.6,5.6,0,0,1-4.79,2.52c-4.79,0-8-3.74-8-8.31s3.14-8.28,7.74-8.28a5.64,5.64,0,0,1,5,2.52ZM301.48,140a4.32,4.32,0,1,0,4.32-4.39A4.26,4.26,0,0,0,301.48,140Z"/><path class="cls-2" d="M322.72,136v11.85h-4.39V136h-1.66v-3.74h1.66V128c0-1.44.11-3.89,2.05-5.51a5.83,5.83,0,0,1,3.85-1.3,5.66,5.66,0,0,1,2.52.54v4a3,3,0,0,0-2-.65,1.75,1.75,0,0,0-1.58.79,5.19,5.19,0,0,0-.47,2.7v3.71h4V136Z"/><path class="cls-2" d="M337.15,132.24h4.4V134a5.73,5.73,0,0,1,4.64-2.26,5.15,5.15,0,0,1,4.93,2.84,5.75,5.75,0,0,1,5-2.84,5,5,0,0,1,4.21,1.9,6.63,6.63,0,0,1,1.08,4.4v9.79H357v-8.5a4.81,4.81,0,0,0-.71-3.06,2.22,2.22,0,0,0-1.81-.79,2.58,2.58,0,0,0-2.41,1.37,6,6,0,0,0-.61,3v8h-4.39v-8.5a4.79,4.79,0,0,0-.72-3.06,2.21,2.21,0,0,0-1.8-.79,2.57,2.57,0,0,0-2.41,1.37,5.85,5.85,0,0,0-.61,3v8h-4.4Z"/><path class="cls-2" d="M367.79,123a2.63,2.63,0,1,1-2.63,2.62A2.64,2.64,0,0,1,367.79,123Zm2.2,9.21v15.59h-4.4V132.24Z"/><path class="cls-2" d="M386,132.24h4.39v14.87c0,2.37-.21,4.86-2.16,6.8a8.27,8.27,0,0,1-6.15,2.2c-3,0-4.83-.9-5.83-1.8a8.62,8.62,0,0,1-2.52-4.65h4.75a3.76,3.76,0,0,0,1.08,1.88,3.86,3.86,0,0,0,2.66.82,3.68,3.68,0,0,0,2.66-1,4.37,4.37,0,0,0,1.12-3.45v-2.2a5.47,5.47,0,0,1-4.79,2.59,7.41,7.41,0,0,1-5.4-2.12,8.57,8.57,0,0,1-2.48-6.19,8.66,8.66,0,0,1,2.41-6.19,7.6,7.6,0,0,1,5.36-2.09,5.48,5.48,0,0,1,4.9,2.52Zm-6.73,4.46A4.3,4.3,0,0,0,377.9,140a4.35,4.35,0,0,0,1.16,3.06,4.27,4.27,0,0,0,3.16,1.36,4.36,4.36,0,0,0,2.92-1.08,4.56,4.56,0,0,0,1.4-3.34,4.42,4.42,0,0,0-1.26-3.14,4,4,0,0,0-3.06-1.25A4.23,4.23,0,0,0,379.31,136.7Z"/><path class="cls-2" d="M398.57,142.68a2.81,2.81,0,1,1-2.81,2.81A2.77,2.77,0,0,1,398.57,142.68Z"/></g></svg>
