<svg xmlns="http://www.w3.org/2000/svg" width="473.69" height="191.3" viewBox="0 0 473.69 191.3"><defs><style>.cls-1{fill:#f2902c;}.cls-2{fill:#fff;}</style></defs><title>bubble_7</title><g id="Oversigt"><g id="bobler-højre_copy" data-name="bobler-højre copy"><path class="cls-1" d="M0,172.21c0,9.57,4,15.85,12.05,18.87,1.58,0,3.17.1,4.74.1H437.24c.22,0,.44,0,.68,0,7,.19,14,.12,20.95,0,.27,0,.53,0,.79,0,8.08-.58,13.94-8.48,13.93-18.81,0-50.49-.19-101,.1-151.48C473.76,8,466.42,0,457,0Q236.14.32,15.26.15C6.18.15,0,7.88,0,19.32Q0,95.76,0,172.21Z"/></g></g><g id="Tekster"><path class="cls-2" d="M70.15,62.91v16.2c0,2.12-.14,5.47-2.8,7.27a7.43,7.43,0,0,1-3.93,1.08,7.9,7.9,0,0,1-5.5-2.23l2.84-3.42A2.78,2.78,0,0,0,63.1,83.1a2,2,0,0,0,1.83-.83c.58-.82.54-2.41.54-3.88V62.91Z"/><path class="cls-2" d="M90.28,82.56c-.47,1.15-2.23,4.86-7.67,4.86a8.19,8.19,0,0,1-6-2.19,7.89,7.89,0,0,1-2.44-6.09A8.34,8.34,0,0,1,76.56,73a8,8,0,0,1,5.87-2.19,7.45,7.45,0,0,1,6.08,2.55,9.31,9.31,0,0,1,1.88,6.12v.36H78.72a4.55,4.55,0,0,0,.76,2.63A3.71,3.71,0,0,0,82.61,84a4,4,0,0,0,3.64-2.06Zm-4-5.51a3.74,3.74,0,0,0-7.38,0Z"/><path class="cls-2" d="M105.65,71.33H110V86.2c0,2.37-.21,4.86-2.16,6.8a8.27,8.27,0,0,1-6.15,2.2c-3,0-4.83-.9-5.83-1.8a8.69,8.69,0,0,1-2.53-4.65h4.76a3.76,3.76,0,0,0,1.08,1.88,3.86,3.86,0,0,0,2.66.82,3.68,3.68,0,0,0,2.66-1A4.37,4.37,0,0,0,105.65,87v-2.2a5.47,5.47,0,0,1-4.79,2.59,7.4,7.4,0,0,1-5.4-2.12A8.57,8.57,0,0,1,93,79.11a8.66,8.66,0,0,1,2.41-6.19,7.61,7.61,0,0,1,5.37-2.09,5.47,5.47,0,0,1,4.89,2.52ZM98.92,75.8a4.26,4.26,0,0,0-1.41,3.31,4.35,4.35,0,0,0,1.16,3.06,4.27,4.27,0,0,0,3.16,1.36,4.4,4.4,0,0,0,2.92-1.08,4.56,4.56,0,0,0,1.4-3.34A4.42,4.42,0,0,0,104.89,76a4,4,0,0,0-3.06-1.25A4.19,4.19,0,0,0,98.92,75.8Z"/><path class="cls-2" d="M122.61,60.68H127V73.35a5.72,5.72,0,0,1,4.82-2.52,5.94,5.94,0,0,1,4.61,1.91,6.54,6.54,0,0,1,1.22,4.39v9.79h-4.39v-8.5a4.49,4.49,0,0,0-.83-3.06,2.8,2.8,0,0,0-2.05-.79,3,3,0,0,0-2.7,1.37,5.33,5.33,0,0,0-.68,3v8h-4.39Z"/><path class="cls-2" d="M153.78,71.33h4.39V86.92h-4.39v-2A5.58,5.58,0,0,1,149,87.42c-4.78,0-8-3.74-8-8.31s3.13-8.28,7.74-8.28a5.64,5.64,0,0,1,5,2.52Zm-8.21,7.78a4.32,4.32,0,1,0,4.32-4.39A4.26,4.26,0,0,0,145.57,79.11Z"/><path class="cls-2" d="M162.35,71.33h4.39v2.34a5.27,5.27,0,0,1,1.94-2.16,4.82,4.82,0,0,1,2.6-.68,5.45,5.45,0,0,1,1.87.36l-.58,4.1a3.26,3.26,0,0,0-2-.57A3.59,3.59,0,0,0,167.6,76a5.42,5.42,0,0,0-.86,3.46v7.49h-4.39Z"/><path class="cls-2" d="M192.19,75a3.64,3.64,0,0,0-2.55-1c-1,0-1.7.5-1.7,1.26,0,.39.18,1,1.41,1.4l1,.32c1.22.4,3.06,1,4,2.23a4.53,4.53,0,0,1,.79,2.6,5.22,5.22,0,0,1-1.72,4,6.56,6.56,0,0,1-4.68,1.65,7.89,7.89,0,0,1-6.05-2.59l2.3-2.66a4.85,4.85,0,0,0,3.46,1.8c1.22,0,2.16-.62,2.16-1.7a1.74,1.74,0,0,0-1.37-1.58l-1-.36a8.49,8.49,0,0,1-3.35-1.87,4.19,4.19,0,0,1-1.18-3,4.64,4.64,0,0,1,1.62-3.53,6.41,6.41,0,0,1,4.06-1.11,7.78,7.78,0,0,1,5,1.65Z"/><path class="cls-2" d="M202.63,60.68V86.92h-4.39V60.68Z"/><path class="cls-2" d="M218.76,71.33h4.39V86.92h-4.39v-2A5.59,5.59,0,0,1,214,87.42c-4.79,0-8-3.74-8-8.31s3.14-8.28,7.75-8.28a5.64,5.64,0,0,1,5,2.52Zm-8.21,7.78a4.32,4.32,0,1,0,4.32-4.39A4.26,4.26,0,0,0,210.55,79.11Zm4.36-17.17a3.38,3.38,0,1,1-3.39,3.38A3.42,3.42,0,0,1,214.91,61.94Zm0,4.78a1.4,1.4,0,1,0-1.41-1.4A1.34,1.34,0,0,0,214.91,66.72Z"/><path class="cls-2" d="M242.62,82.56c-.46,1.15-2.23,4.86-7.66,4.86a8.19,8.19,0,0,1-6-2.19,7.89,7.89,0,0,1-2.45-6.09A8.31,8.31,0,0,1,228.91,73a8,8,0,0,1,5.87-2.19,7.47,7.47,0,0,1,6.08,2.55,9.3,9.3,0,0,1,1.87,6.12v.36H231.07a4.55,4.55,0,0,0,.76,2.63A3.69,3.69,0,0,0,235,84a4,4,0,0,0,3.63-2.06Zm-4-5.51a3.74,3.74,0,0,0-7.38,0Z"/><path class="cls-2" d="M250.51,75.08V86.92h-4.39V75.08h-1.73V71.33h1.73V66h4.39v5.33h3v3.75Z"/><path class="cls-2" d="M264.23,71.33h4.39v1.76a5.74,5.74,0,0,1,4.64-2.26,5.14,5.14,0,0,1,4.93,2.84,5.76,5.76,0,0,1,5-2.84,4.92,4.92,0,0,1,4.21,1.91c1,1.33,1.08,2.66,1.08,4.39v9.79h-4.4v-8.5a4.81,4.81,0,0,0-.71-3.06,2.21,2.21,0,0,0-1.8-.79,2.59,2.59,0,0,0-2.42,1.37,6,6,0,0,0-.61,3v8h-4.39v-8.5a4.79,4.79,0,0,0-.72-3.06,2.21,2.21,0,0,0-1.8-.79,2.57,2.57,0,0,0-2.41,1.37,5.87,5.87,0,0,0-.61,3v8h-4.39Z"/><path class="cls-2" d="M294.86,62.12a2.63,2.63,0,1,1-2.63,2.62A2.64,2.64,0,0,1,294.86,62.12Zm2.2,9.21V86.92h-4.39V71.33Z"/><path class="cls-2" d="M301.23,71.33h4.39v2a5.74,5.74,0,0,1,4.83-2.52,5.94,5.94,0,0,1,4.61,1.91,6.54,6.54,0,0,1,1.22,4.39v9.79h-4.39v-8.5a4.49,4.49,0,0,0-.83-3.06,2.8,2.8,0,0,0-2.05-.79,3,3,0,0,0-2.7,1.37,5.35,5.35,0,0,0-.69,3v8h-4.39Z"/><path class="cls-2" d="M333.24,75.08V86.92h-4.4V75.08h-1.72V71.33h1.72V66h4.4v5.33h3v3.75Z"/><path class="cls-2" d="M340.76,62.12a2.63,2.63,0,1,1-2.63,2.62A2.64,2.64,0,0,1,340.76,62.12Zm2.2,9.21V86.92h-4.4V71.33Z"/><path class="cls-2" d="M359.08,60.68h4.39V86.92h-4.39v-2a5.58,5.58,0,0,1-4.79,2.52c-4.78,0-8-3.74-8-8.31s3.13-8.28,7.74-8.28a5.62,5.62,0,0,1,5,2.52Zm-8.21,18.43a4.32,4.32,0,1,0,4.32-4.39A4.26,4.26,0,0,0,350.87,79.11Z"/><path class="cls-2" d="M372,60.68V86.92h-4.39V60.68Z"/><path class="cls-2" d="M378.41,62.12a2.63,2.63,0,1,1-2.62,2.62A2.64,2.64,0,0,1,378.41,62.12Zm2.2,9.21V86.92h-4.39V71.33Z"/><path class="cls-2" d="M396.66,71.33h4.4V86.2c0,2.37-.22,4.86-2.16,6.8a8.3,8.3,0,0,1-6.16,2.2c-3,0-4.82-.9-5.83-1.8a8.62,8.62,0,0,1-2.52-4.65h4.75a3.83,3.83,0,0,0,1.08,1.88,3.87,3.87,0,0,0,2.66.82,3.73,3.73,0,0,0,2.67-1A4.37,4.37,0,0,0,396.66,87v-2.2a5.46,5.46,0,0,1-4.78,2.59,7.4,7.4,0,0,1-5.4-2.12,9,9,0,0,1-.07-12.38,7.57,7.57,0,0,1,5.36-2.09,5.47,5.47,0,0,1,4.89,2.52Zm-6.73,4.47a4.25,4.25,0,0,0-1.4,3.31,4.35,4.35,0,0,0,1.15,3.06,4.29,4.29,0,0,0,3.17,1.36,4.36,4.36,0,0,0,2.91-1.08,4.57,4.57,0,0,0,1.41-3.34A4.47,4.47,0,0,0,395.91,76a4,4,0,0,0-3.06-1.25A4.2,4.2,0,0,0,389.93,75.8Z"/><path class="cls-2" d="M405,76.62h9.35v4H405Z"/><path class="cls-2" d="M76.24,125.76c-.47,1.15-2.23,4.86-7.67,4.86a8.19,8.19,0,0,1-6-2.19,7.89,7.89,0,0,1-2.44-6.09,8.34,8.34,0,0,1,2.37-6.12A8,8,0,0,1,68.39,114a7.45,7.45,0,0,1,6.08,2.55,9.3,9.3,0,0,1,1.87,6.12v.36H64.68a4.55,4.55,0,0,0,.76,2.63,3.71,3.71,0,0,0,3.13,1.48,4,4,0,0,0,3.64-2.06Zm-4-5.51a3.74,3.74,0,0,0-7.38,0Z"/><path class="cls-2" d="M79.73,114.53h4.39v2.34a5.27,5.27,0,0,1,1.95-2.16,4.76,4.76,0,0,1,2.59-.68,5.4,5.4,0,0,1,1.87.36l-.58,4.1a3.26,3.26,0,0,0-2-.58A3.55,3.55,0,0,0,85,119.18a5.33,5.33,0,0,0-.87,3.45v7.49H79.73Z"/><path class="cls-2" d="M107.23,125.76c-.47,1.15-2.23,4.86-7.66,4.86a8.19,8.19,0,0,1-6-2.19,7.86,7.86,0,0,1-2.45-6.09,8.31,8.31,0,0,1,2.38-6.12A8,8,0,0,1,99.39,114a7.47,7.47,0,0,1,6.08,2.55,9.35,9.35,0,0,1,1.87,6.12v.36H95.68a4.61,4.61,0,0,0,.75,2.63,3.72,3.72,0,0,0,3.14,1.48,4,4,0,0,0,3.63-2.06Zm-4-5.51a3.74,3.74,0,0,0-7.38,0Z"/><path class="cls-2" d="M119.11,114.53h4.4v2.34a5.27,5.27,0,0,1,1.94-2.16A4.79,4.79,0,0,1,128,114a5.35,5.35,0,0,1,1.87.36l-.57,4.1a3.3,3.3,0,0,0-2-.58,3.57,3.57,0,0,0-2.92,1.27,5.32,5.32,0,0,0-.86,3.45v7.49h-4.4Z"/><path class="cls-2" d="M146.62,125.76c-.47,1.15-2.24,4.86-7.67,4.86a8.19,8.19,0,0,1-6-2.19,7.89,7.89,0,0,1-2.44-6.09,8.34,8.34,0,0,1,2.37-6.12,8,8,0,0,1,5.87-2.19,7.45,7.45,0,0,1,6.08,2.55,9.3,9.3,0,0,1,1.87,6.12v.36H135.06a4.55,4.55,0,0,0,.76,2.63,3.69,3.69,0,0,0,3.13,1.48,4,4,0,0,0,3.64-2.06Zm-4-5.51a3.74,3.74,0,0,0-7.38,0Z"/><path class="cls-2" d="M154.5,103.88v16.34l5.83-5.69H166l-7.31,6.84,7.88,8.75h-5.83L155,123.46l-.47.43v6.23h-4.39V103.88Z"/><path class="cls-2" d="M182.22,116.22a8.4,8.4,0,0,1,0,12.21,10.16,10.16,0,0,1-12.6,0,8.4,8.4,0,0,1,0-12.21,10.16,10.16,0,0,1,12.6,0Zm-1.91,6.12a4.39,4.39,0,1,0-4.39,4.39A4.35,4.35,0,0,0,180.31,122.34Z"/><path class="cls-2" d="M188.23,114.53h4.4v2.34a5.27,5.27,0,0,1,1.94-2.16,4.79,4.79,0,0,1,2.59-.68,5.35,5.35,0,0,1,1.87.36l-.57,4.1a3.3,3.3,0,0,0-2.05-.58,3.57,3.57,0,0,0-2.92,1.27,5.32,5.32,0,0,0-.86,3.45v7.49h-4.4Z"/><path class="cls-2" d="M212.75,103.88h4.39v26.24h-4.39v-2a5.59,5.59,0,0,1-4.79,2.52c-4.79,0-8-3.74-8-8.31s3.13-8.28,7.74-8.28a5.64,5.64,0,0,1,5,2.52Zm-8.21,18.43a4.32,4.32,0,1,0,4.32-4.4A4.26,4.26,0,0,0,204.54,122.31Z"/><path class="cls-2" d="M231.9,105.32a2.63,2.63,0,1,1-2.63,2.62A2.64,2.64,0,0,1,231.9,105.32Zm2.2,9.21v15.59h-4.4V114.53Z"/><path class="cls-2" d="M254.29,106.11c2.7,0,4.57.29,6.34,1.83a8.17,8.17,0,0,1,.46,11.16,8.23,8.23,0,0,1-6.08,2.13h-3v8.89h-4.68v-24ZM252,117.19h1.91a4.79,4.79,0,0,0,3-.75,3.56,3.56,0,0,0,1.3-2.81,3.3,3.3,0,0,0-1.33-2.73,5.59,5.59,0,0,0-3.31-.76H252Z"/><path class="cls-2" d="M277.47,114.53h4.4v15.59h-4.4v-2a5.58,5.58,0,0,1-4.78,2.52c-4.79,0-8-3.74-8-8.31s3.13-8.28,7.74-8.28a5.62,5.62,0,0,1,5,2.52Zm-8.2,7.78a4.32,4.32,0,1,0,4.32-4.4A4.26,4.26,0,0,0,269.27,122.31Z"/><path class="cls-2" d="M297.78,119.28a5.09,5.09,0,0,0-3.6-1.37,4.19,4.19,0,0,0-4.39,4.4,4.33,4.33,0,0,0,4.53,4.42,5.09,5.09,0,0,0,3.46-1.36v4.28a8.94,8.94,0,0,1-4,1,8.79,8.79,0,0,1-6-2.27,8,8,0,0,1-2.49-6,8,8,0,0,1,8.32-8.35,9.32,9.32,0,0,1,4.21.93Z"/><path class="cls-2" d="M301.09,114.53h4.39v1.77a5.74,5.74,0,0,1,4.65-2.27,5.17,5.17,0,0,1,4.93,2.84,5.73,5.73,0,0,1,5-2.84,5,5,0,0,1,4.21,1.9c1,1.34,1.08,2.67,1.08,4.4v9.79H321v-8.5a4.72,4.72,0,0,0-.72-3.06,2.2,2.2,0,0,0-1.8-.79,2.57,2.57,0,0,0-2.41,1.37,5.85,5.85,0,0,0-.61,3v8H311v-8.5a4.79,4.79,0,0,0-.72-3.06,2.21,2.21,0,0,0-1.8-.79,2.59,2.59,0,0,0-2.42,1.37,6,6,0,0,0-.61,3v8h-4.39Z"/><path class="cls-2" d="M341.48,114.53h4.39v15.59h-4.39v-2a5.58,5.58,0,0,1-4.79,2.52c-4.78,0-7.95-3.74-7.95-8.31s3.13-8.28,7.74-8.28a5.62,5.62,0,0,1,5,2.52Zm-8.21,7.78a4.32,4.32,0,1,0,4.32-4.4A4.26,4.26,0,0,0,333.27,122.31Z"/><path class="cls-2" d="M350.05,114.53h4.39v2a5.71,5.71,0,0,1,4.82-2.52,6,6,0,0,1,4.61,1.9,6.59,6.59,0,0,1,1.23,4.4v9.79h-4.4v-8.5a4.48,4.48,0,0,0-.82-3.06,2.82,2.82,0,0,0-2.05-.79,3,3,0,0,0-2.7,1.37,5.35,5.35,0,0,0-.69,3v8h-4.39Z"/><path class="cls-2" d="M371.72,125a2.81,2.81,0,1,1-2.81,2.81A2.76,2.76,0,0,1,371.72,125Z"/></g></svg>
