<svg xmlns="http://www.w3.org/2000/svg" width="473.69" height="191.3" viewBox="0 0 473.69 191.3"><defs><style>.cls-1{fill:#f2902c;}.cls-2{fill:#fff;}</style></defs><title>bubble_13</title><g id="Tekster"><path class="cls-1" d="M0,172.21c0,9.57,4,15.85,12.05,18.87,1.58,0,3.17.1,4.74.1H437.24c.22,0,.44,0,.68,0,7,.19,14,.12,20.95,0,.27,0,.53,0,.79,0,8.08-.58,13.94-8.48,13.93-18.81,0-50.49-.19-101,.1-151.48C473.76,8,466.42,0,457,0Q236.14.32,15.26.15C6.18.15,0,7.88,0,19.32Q0,95.76,0,172.21Z"/><path class="cls-2" d="M65.31,35.88c3.35,0,6.27.36,8.93,2.34a11.89,11.89,0,0,1,4.61,9.69A11.46,11.46,0,0,1,74,57.59c-2.81,2-5.44,2.3-8.79,2.3H59.05v-24Zm-1.58,20h1.44A10.06,10.06,0,0,0,71,54.28a7.81,7.81,0,0,0,3-6.37,8,8,0,0,0-3-6.41,9.77,9.77,0,0,0-5.9-1.59H63.73Z"/><path class="cls-2" d="M97.82,55.54c-.47,1.15-2.23,4.86-7.67,4.86a8.13,8.13,0,0,1-6-2.2,7.84,7.84,0,0,1-2.45-6.08A8.27,8.27,0,0,1,84.11,46,8,8,0,0,1,90,43.8a7.45,7.45,0,0,1,6.09,2.56,9.35,9.35,0,0,1,1.87,6.12v.36H86.27A4.66,4.66,0,0,0,87,55.47a3.73,3.73,0,0,0,3.13,1.47,4,4,0,0,0,3.64-2Zm-4-5.51a3.74,3.74,0,0,0-7.38,0Z"/><path class="cls-2" d="M101.32,44.31h4.39v2.34a5.27,5.27,0,0,1,1.94-2.16,4.79,4.79,0,0,1,2.59-.69,5.35,5.35,0,0,1,1.87.36l-.57,4.11a3.28,3.28,0,0,0-2.05-.58A3.59,3.59,0,0,0,106.57,49a5.35,5.35,0,0,0-.86,3.46v7.48h-4.39Z"/><path class="cls-2" d="M138,55.54c-.47,1.15-2.23,4.86-7.67,4.86a8.13,8.13,0,0,1-6-2.2,7.84,7.84,0,0,1-2.45-6.08A8.27,8.27,0,0,1,124.25,46a8,8,0,0,1,5.86-2.2,7.45,7.45,0,0,1,6.09,2.56,9.35,9.35,0,0,1,1.87,6.12v.36H126.41a4.66,4.66,0,0,0,.75,2.63,3.73,3.73,0,0,0,3.13,1.47,4,4,0,0,0,3.64-2Zm-4-5.51a3.74,3.74,0,0,0-7.38,0Z"/><path class="cls-2" d="M141.45,44.31h4.4v2.34a5.2,5.2,0,0,1,1.94-2.16,4.79,4.79,0,0,1,2.59-.69,5.35,5.35,0,0,1,1.87.36l-.57,4.11a3.31,3.31,0,0,0-2.06-.58A3.58,3.58,0,0,0,146.71,49a5.35,5.35,0,0,0-.86,3.46v7.48h-4.4Z"/><path class="cls-2" d="M167.19,33.65V50L173,44.31h5.69l-7.31,6.84,7.89,8.74h-5.84l-5.79-6.66-.47.44v6.22H162.8V33.65Z"/><path class="cls-2" d="M194.91,46a8.39,8.39,0,0,1,0,12.2,10.12,10.12,0,0,1-12.6,0,8.39,8.39,0,0,1,0-12.2,10.12,10.12,0,0,1,12.6,0ZM193,52.12a4.39,4.39,0,1,0-4.39,4.39A4.35,4.35,0,0,0,193,52.12Z"/><path class="cls-2" d="M200.92,44.31h4.4v2a5.71,5.71,0,0,1,4.82-2.52,6,6,0,0,1,4.61,1.91A6.56,6.56,0,0,1,216,50.1v9.79h-4.39V51.4a4.47,4.47,0,0,0-.83-3.06,2.8,2.8,0,0,0-2.05-.79,3,3,0,0,0-2.7,1.36,5.36,5.36,0,0,0-.68,3v8h-4.4Z"/><path class="cls-2" d="M224.54,33.65V50l5.83-5.68h5.69l-7.31,6.84,7.88,8.74H230.8L225,53.23l-.47.44v6.22h-4.39V33.65Z"/><path class="cls-2" d="M242.58,44.31v8.82a3.51,3.51,0,0,0,.93,2.73,3.56,3.56,0,0,0,4.47,0,3.51,3.51,0,0,0,.93-2.73V44.31h4.39v9.54a5.87,5.87,0,0,1-1.91,4.78,9.9,9.9,0,0,1-11.3,0,5.87,5.87,0,0,1-1.91-4.78V44.31Z"/><path class="cls-2" d="M257.48,44.31h4.39v2.34a5.27,5.27,0,0,1,1.95-2.16,4.76,4.76,0,0,1,2.59-.69,5.4,5.4,0,0,1,1.87.36l-.58,4.11a3.26,3.26,0,0,0-2.05-.58A3.57,3.57,0,0,0,262.74,49a5.35,5.35,0,0,0-.87,3.46v7.48h-4.39Z"/><path class="cls-2" d="M270.44,44.31h4.39v2.34a5.27,5.27,0,0,1,1.94-2.16,4.82,4.82,0,0,1,2.6-.69,5.45,5.45,0,0,1,1.87.36l-.58,4.11a3.26,3.26,0,0,0-2.05-.58A3.6,3.6,0,0,0,275.69,49a5.41,5.41,0,0,0-.86,3.46v7.48h-4.39Z"/><path class="cls-2" d="M297.94,55.54c-.47,1.15-2.23,4.86-7.67,4.86a8.13,8.13,0,0,1-6-2.2,7.84,7.84,0,0,1-2.45-6.08A8.27,8.27,0,0,1,284.23,46a8,8,0,0,1,5.86-2.2,7.45,7.45,0,0,1,6.09,2.56,9.35,9.35,0,0,1,1.87,6.12v.36H286.39a4.66,4.66,0,0,0,.75,2.63,3.73,3.73,0,0,0,3.13,1.47,4,4,0,0,0,3.64-2Zm-4-5.51a3.74,3.74,0,0,0-7.38,0Z"/><path class="cls-2" d="M301.43,44.31h4.4v2a5.71,5.71,0,0,1,4.82-2.52,6,6,0,0,1,4.61,1.91,6.56,6.56,0,0,1,1.22,4.39v9.79h-4.39V51.4a4.47,4.47,0,0,0-.83-3.06,2.8,2.8,0,0,0-2.05-.79,3,3,0,0,0-2.7,1.36,5.36,5.36,0,0,0-.68,3v8h-4.4Z"/><path class="cls-2" d="M332.39,49.06a5,5,0,0,0-3.6-1.37,4.19,4.19,0,0,0-4.39,4.39,4.34,4.34,0,0,0,4.54,4.43,5.08,5.08,0,0,0,3.45-1.37v4.28a9,9,0,0,1-10-1.29,8,8,0,0,1-2.48-6,8,8,0,0,1,8.31-8.35,9.32,9.32,0,0,1,4.21.94Z"/><path class="cls-2" d="M351,55.54c-.46,1.15-2.23,4.86-7.66,4.86a8.16,8.16,0,0,1-6-2.2,7.84,7.84,0,0,1-2.45-6.08A8.27,8.27,0,0,1,337.29,46a8,8,0,0,1,5.87-2.2,7.44,7.44,0,0,1,6.08,2.56,9.3,9.3,0,0,1,1.87,6.12v.36H339.45a4.66,4.66,0,0,0,.75,2.63,3.75,3.75,0,0,0,3.14,1.47,4,4,0,0,0,3.63-2ZM347,50a3.74,3.74,0,0,0-7.38,0Z"/><path class="cls-2" d="M365.08,35.09a2.63,2.63,0,1,1-2.63,2.63A2.65,2.65,0,0,1,365.08,35.09Zm2.2,9.22V59.89h-4.39V44.31Z"/><path class="cls-2" d="M62.79,76.85V93.19l5.84-5.68h5.68L67,94.35l7.88,8.74H69.06l-5.8-6.66-.47.44v6.22H58.4V76.85Z"/><path class="cls-2" d="M81.23,76.85v26.24h-4.4V76.85Z"/><path class="cls-2" d="M97.35,87.51h4.39v15.58H97.35v-2a5.6,5.6,0,0,1-4.78,2.52c-4.79,0-8-3.75-8-8.32S87.74,87,92.35,87a5.64,5.64,0,0,1,5,2.52Zm-8.2,7.77a4.32,4.32,0,1,0,4.31-4.39A4.26,4.26,0,0,0,89.15,95.28Z"/><path class="cls-2" d="M114.42,91.21a3.66,3.66,0,0,0-2.56-1c-1,0-1.69.5-1.69,1.26,0,.4.18,1,1.4,1.4l1.05.33c1.22.39,3.06,1,4,2.23a4.57,4.57,0,0,1,.79,2.59,5.17,5.17,0,0,1-1.73,4A6.55,6.55,0,0,1,111,103.6a7.88,7.88,0,0,1-6-2.6l2.31-2.66a4.82,4.82,0,0,0,3.45,1.8c1.23,0,2.16-.61,2.16-1.69a1.73,1.73,0,0,0-1.37-1.58l-1-.37a8.25,8.25,0,0,1-3.35-1.87,4.15,4.15,0,0,1-1.19-3,4.61,4.61,0,0,1,1.62-3.53A6.46,6.46,0,0,1,111.61,87a7.8,7.8,0,0,1,5,1.66Z"/><path class="cls-2" d="M128.24,91.21a3.64,3.64,0,0,0-2.55-1c-1,0-1.7.5-1.7,1.26,0,.4.18,1,1.41,1.4l1,.33c1.22.39,3.06,1,4,2.23a4.5,4.5,0,0,1,.79,2.59,5.17,5.17,0,0,1-1.73,4,6.55,6.55,0,0,1-4.68,1.66,7.85,7.85,0,0,1-6-2.6l2.3-2.66a4.84,4.84,0,0,0,3.46,1.8c1.22,0,2.16-.61,2.16-1.69a1.73,1.73,0,0,0-1.37-1.58l-1-.37a8.25,8.25,0,0,1-3.35-1.87,4.15,4.15,0,0,1-1.18-3,4.61,4.61,0,0,1,1.62-3.53A6.42,6.42,0,0,1,125.43,87a7.8,7.8,0,0,1,5,1.66Z"/><path class="cls-2" d="M149.59,98.74c-.47,1.15-2.23,4.86-7.67,4.86a8.12,8.12,0,0,1-6-2.2,7.84,7.84,0,0,1-2.45-6.08,8.31,8.31,0,0,1,2.37-6.12,8,8,0,0,1,5.87-2.2,7.43,7.43,0,0,1,6.08,2.56,9.31,9.31,0,0,1,1.88,6.12V96H138a4.54,4.54,0,0,0,.76,2.62,3.71,3.71,0,0,0,3.13,1.48,4,4,0,0,0,3.64-2Zm-4-5.51a3.74,3.74,0,0,0-7.38,0Z"/><path class="cls-2" d="M153.08,87.51h4.39v2A5.74,5.74,0,0,1,162.3,87a6,6,0,0,1,4.6,1.91,6.57,6.57,0,0,1,1.23,4.39v9.79h-4.39V94.6a4.47,4.47,0,0,0-.83-3.06,2.82,2.82,0,0,0-2-.79,3,3,0,0,0-2.7,1.36,5.38,5.38,0,0,0-.69,3v8h-4.39Z"/><path class="cls-2" d="M195.13,89.2a8.41,8.41,0,0,1,0,12.2,10.12,10.12,0,0,1-12.6,0,8.39,8.39,0,0,1,0-12.2,10.12,10.12,0,0,1,12.6,0Zm-1.91,6.12a4.39,4.39,0,1,0-4.39,4.39A4.35,4.35,0,0,0,193.22,95.32Z"/><path class="cls-2" d="M201.14,87.51h4.39v1.76A5.74,5.74,0,0,1,210.18,87a5.15,5.15,0,0,1,4.93,2.85,5.71,5.71,0,0,1,5-2.85,5,5,0,0,1,4.21,1.91c1,1.33,1.08,2.66,1.08,4.39v9.79H221V94.6a4.74,4.74,0,0,0-.72-3.06,2.21,2.21,0,0,0-1.8-.79,2.58,2.58,0,0,0-2.41,1.36,5.91,5.91,0,0,0-.61,3v8h-4.39V94.6a4.74,4.74,0,0,0-.72-3.06,2.21,2.21,0,0,0-1.8-.79,2.6,2.6,0,0,0-2.42,1.36,6,6,0,0,0-.61,3v8h-4.39Z"/><path class="cls-2" d="M249.92,87.51h4.39v15.58h-4.39v-2a5.62,5.62,0,0,1-4.79,2.52c-4.79,0-7.95-3.75-7.95-8.32S240.31,87,244.91,87a5.67,5.67,0,0,1,5,2.52Zm-8.21,7.77A4.32,4.32,0,1,0,246,90.89,4.27,4.27,0,0,0,241.71,95.28Z"/><path class="cls-2" d="M262.88,91.25v11.84h-4.39V91.25h-1.73V87.51h1.73V82.18h4.39v5.33h3v3.74Z"/><path class="cls-2" d="M285.09,91.21a3.65,3.65,0,0,0-2.56-1c-1,0-1.69.5-1.69,1.26,0,.4.18,1,1.41,1.4l1,.33c1.22.39,3.06,1,4,2.23A4.5,4.5,0,0,1,288,98a5.17,5.17,0,0,1-1.73,4,6.55,6.55,0,0,1-4.68,1.66,7.83,7.83,0,0,1-6-2.6l2.3-2.66a4.82,4.82,0,0,0,3.46,1.8c1.22,0,2.16-.61,2.16-1.69a1.74,1.74,0,0,0-1.37-1.58l-1-.37a8.25,8.25,0,0,1-3.35-1.87,4.15,4.15,0,0,1-1.19-3,4.61,4.61,0,0,1,1.62-3.53A6.46,6.46,0,0,1,282.28,87a7.8,7.8,0,0,1,5,1.66Z"/><path class="cls-2" d="M306.44,98.74c-.47,1.15-2.24,4.86-7.67,4.86a8.16,8.16,0,0,1-6-2.2,7.86,7.86,0,0,1-2.44-6.08,8.31,8.31,0,0,1,2.37-6.12,8,8,0,0,1,5.87-2.2,7.43,7.43,0,0,1,6.08,2.56,9.3,9.3,0,0,1,1.87,6.12V96H294.88a4.54,4.54,0,0,0,.76,2.62,3.71,3.71,0,0,0,3.13,1.48,4,4,0,0,0,3.64-2Zm-4-5.51a3.74,3.74,0,0,0-7.38,0Z"/><path class="cls-2" d="M309.93,87.51h4.39v2A5.74,5.74,0,0,1,319.15,87a6,6,0,0,1,4.6,1.91A6.57,6.57,0,0,1,325,93.3v9.79h-4.4V94.6a4.46,4.46,0,0,0-.82-3.06,2.82,2.82,0,0,0-2.06-.79A3,3,0,0,0,315,92.11a5.38,5.38,0,0,0-.69,3v8h-4.39Z"/><path class="cls-2" d="M341.1,76.85h4.4v26.24h-4.4v-2a5.6,5.6,0,0,1-4.78,2.52c-4.79,0-8-3.75-8-8.32S331.49,87,336.1,87a5.64,5.64,0,0,1,5,2.52Zm-8.2,18.43a4.32,4.32,0,1,0,4.32-4.39A4.27,4.27,0,0,0,332.9,95.28Z"/><path class="cls-2" d="M365,98.74c-.47,1.15-2.23,4.86-7.67,4.86a8.13,8.13,0,0,1-6-2.2,7.84,7.84,0,0,1-2.45-6.08,8.27,8.27,0,0,1,2.38-6.12,8,8,0,0,1,5.86-2.2,7.45,7.45,0,0,1,6.09,2.56,9.35,9.35,0,0,1,1.87,6.12V96H353.42a4.6,4.6,0,0,0,.75,2.62,3.71,3.71,0,0,0,3.13,1.48,4,4,0,0,0,3.64-2Zm-4-5.51a3.74,3.74,0,0,0-7.38,0Z"/><path class="cls-2" d="M62.87,134.45v11.84H58.48V134.45H56.82v-3.74h1.66v-3.89a6.72,6.72,0,0,1,1.15-4.61c1.15-1.55,3.24-2.59,6.22-2.59,2,0,4.86.43,6.3,2.59a7.4,7.4,0,0,1,1.08,4.61v19.47H68.84V126.93a3.8,3.8,0,0,0-.47-2.16,3.22,3.22,0,0,0-5,0,4.09,4.09,0,0,0-.5,2.16v3.78h4v3.74Z"/><path class="cls-2" d="M92.71,141.94c-.47,1.15-2.23,4.86-7.67,4.86a8.12,8.12,0,0,1-6-2.2,7.84,7.84,0,0,1-2.45-6.08A8.31,8.31,0,0,1,79,132.4a8,8,0,0,1,5.87-2.2A7.45,7.45,0,0,1,91,132.76a9.35,9.35,0,0,1,1.87,6.12v.36H81.15a4.61,4.61,0,0,0,.76,2.62A3.71,3.71,0,0,0,85,143.34a4,4,0,0,0,3.64-2.05Zm-4-5.51a3.74,3.74,0,0,0-7.38,0Z"/><path class="cls-2" d="M104.7,134.41a3.66,3.66,0,0,0-2.56-1c-1,0-1.69.5-1.69,1.26,0,.4.18,1,1.4,1.4l1.05.33c1.22.39,3.06,1,4,2.23a4.5,4.5,0,0,1,.79,2.59,5.19,5.19,0,0,1-1.73,4,6.55,6.55,0,0,1-4.68,1.66,7.83,7.83,0,0,1-6-2.6l2.3-2.66a4.82,4.82,0,0,0,3.45,1.8c1.23,0,2.16-.61,2.16-1.69a1.73,1.73,0,0,0-1.36-1.58l-1-.36a8.39,8.39,0,0,1-3.35-1.88,4.15,4.15,0,0,1-1.19-3,4.61,4.61,0,0,1,1.62-3.53,6.46,6.46,0,0,1,4.07-1.12,7.8,7.8,0,0,1,5,1.66Z"/><path class="cls-2" d="M115.14,134.45v11.84h-4.39V134.45H109v-3.74h1.73v-5.33h4.39v5.33h3v3.74Z"/><path class="cls-2" d="M128.85,130.71h4.4v2a5.71,5.71,0,0,1,4.82-2.52,6,6,0,0,1,4.61,1.91,6.56,6.56,0,0,1,1.22,4.39v9.79h-4.39V137.8a4.47,4.47,0,0,0-.83-3.06,2.8,2.8,0,0,0-2.05-.79,3,3,0,0,0-2.7,1.36,5.36,5.36,0,0,0-.68,3v7.95h-4.4Z"/><path class="cls-2" d="M149.19,143.7a8.42,8.42,0,0,1-1.76-5.18,8.19,8.19,0,0,1,2.63-6.12,9,9,0,0,1,6.3-2.2,9.2,9.2,0,0,1,5,1.3l2.44-2.45,2,1.84-2.38,2.37a8.46,8.46,0,0,1,1.8,5.26,8.2,8.2,0,0,1-2.62,6.08,10.26,10.26,0,0,1-11.42.86l-2.37,2.38-2-1.8Zm9.15-9.14a3.78,3.78,0,0,0-1.88-.47,4.31,4.31,0,0,0-4.49,4.46,4.81,4.81,0,0,0,.43,1.95Zm-4,7.84a4.14,4.14,0,0,0,2.08.51,4,4,0,0,0,3.13-1.3,4.37,4.37,0,0,0,1.23-3.16,3.5,3.5,0,0,0-.51-2Z"/><path class="cls-2" d="M180.69,130.71h4.39v14.86c0,2.38-.21,4.86-2.16,6.81a8.28,8.28,0,0,1-6.15,2.19c-3,0-4.82-.9-5.83-1.8a8.59,8.59,0,0,1-2.52-4.64h4.75a3.69,3.69,0,0,0,1.08,1.87,3.88,3.88,0,0,0,2.66.83,3.73,3.73,0,0,0,2.67-1,4.44,4.44,0,0,0,1.11-3.46v-2.2a5.46,5.46,0,0,1-4.79,2.6,7.4,7.4,0,0,1-5.4-2.13,8.55,8.55,0,0,1-2.48-6.19,8.68,8.68,0,0,1,2.41-6.19,7.65,7.65,0,0,1,5.37-2.09,5.49,5.49,0,0,1,4.89,2.52ZM174,135.17a4.43,4.43,0,0,0,2.92,7.74,4.41,4.41,0,0,0,2.91-1.08,4.61,4.61,0,0,0,1.41-3.35,4.46,4.46,0,0,0-1.26-3.13,4,4,0,0,0-3.06-1.26A4.24,4.24,0,0,0,174,135.17Z"/><path class="cls-2" d="M204.56,141.94c-.47,1.15-2.23,4.86-7.67,4.86a8.12,8.12,0,0,1-6-2.2,7.84,7.84,0,0,1-2.45-6.08,8.31,8.31,0,0,1,2.37-6.12,8,8,0,0,1,5.87-2.2,7.43,7.43,0,0,1,6.08,2.56,9.31,9.31,0,0,1,1.88,6.12v.36H193a4.61,4.61,0,0,0,.76,2.62,3.71,3.71,0,0,0,3.13,1.48,4,4,0,0,0,3.64-2.05Zm-4-5.51a3.74,3.74,0,0,0-7.38,0Z"/><path class="cls-2" d="M208.05,130.71h4.39v2a5.74,5.74,0,0,1,4.83-2.52,5.94,5.94,0,0,1,4.6,1.91,6.57,6.57,0,0,1,1.23,4.39v9.79h-4.39V137.8a4.47,4.47,0,0,0-.83-3.06,2.8,2.8,0,0,0-2-.79,3,3,0,0,0-2.7,1.36,5.38,5.38,0,0,0-.69,3v7.95h-4.39Z"/><path class="cls-2" d="M231.67,132.72a6,6,0,0,1,5.07-2.52c4.61,0,7.67,3.57,7.67,8.28s-3.17,8.32-7.78,8.32a5.89,5.89,0,0,1-5-2.52v2h-4.39V120.05h4.39Zm-.43,5.76a4.32,4.32,0,1,0,4.32-4.39A4.26,4.26,0,0,0,231.24,138.48Z"/><path class="cls-2" d="M250,121.49a2.63,2.63,0,1,1-2.63,2.63A2.65,2.65,0,0,1,250,121.49Zm2.2,9.22v15.58H247.8V130.71Z"/><path class="cls-2" d="M260.75,120.05v26.24h-4.39V120.05Z"/><path class="cls-2" d="M269.32,120.05v26.24h-4.39V120.05Z"/><path class="cls-2" d="M288.8,141.94c-.47,1.15-2.24,4.86-7.67,4.86a8.16,8.16,0,0,1-6-2.2,7.86,7.86,0,0,1-2.44-6.08,8.31,8.31,0,0,1,2.37-6.12,8,8,0,0,1,5.87-2.2,7.43,7.43,0,0,1,6.08,2.56,9.3,9.3,0,0,1,1.87,6.12v.36H277.24a4.54,4.54,0,0,0,.76,2.62,3.69,3.69,0,0,0,3.13,1.48,4,4,0,0,0,3.63-2.05Zm-4-5.51a3.73,3.73,0,0,0-7.37,0Z"/><path class="cls-2" d="M304.24,120.05h4.39v26.24h-4.39v-2a5.61,5.61,0,0,1-4.79,2.52c-4.78,0-7.95-3.75-7.95-8.32s3.13-8.28,7.74-8.28a5.66,5.66,0,0,1,5,2.52ZM296,138.48a4.32,4.32,0,1,0,4.32-4.39A4.27,4.27,0,0,0,296,138.48Z"/><path class="cls-2" d="M328.11,141.94c-.47,1.15-2.23,4.86-7.67,4.86a8.16,8.16,0,0,1-6-2.2,7.86,7.86,0,0,1-2.44-6.08,8.31,8.31,0,0,1,2.37-6.12,8,8,0,0,1,5.87-2.2,7.43,7.43,0,0,1,6.08,2.56,9.31,9.31,0,0,1,1.88,6.12v.36H316.55a4.54,4.54,0,0,0,.76,2.62,3.71,3.71,0,0,0,3.13,1.48,4,4,0,0,0,3.64-2.05Zm-4-5.51a3.74,3.74,0,0,0-7.38,0Z"/><path class="cls-2" d="M331.6,130.71H336v2.34a5.2,5.2,0,0,1,1.95-2.16,4.68,4.68,0,0,1,2.59-.69,5.4,5.4,0,0,1,1.87.36l-.58,4.11a3.26,3.26,0,0,0-2.05-.58,3.57,3.57,0,0,0-2.91,1.26,5.35,5.35,0,0,0-.87,3.46v7.48H331.6Z"/><path class="cls-2" d="M345.14,141.15a2.81,2.81,0,1,1-2.81,2.8A2.77,2.77,0,0,1,345.14,141.15Z"/></g></svg>
