<svg xmlns="http://www.w3.org/2000/svg" width="473.69" height="191.3" viewBox="0 0 473.69 191.3"><defs><style>.cls-1{fill:#f2902c;}.cls-2{fill:#fff;}</style></defs><title>bubble_6</title><g id="Oversigt"><g id="bobler-højre_copy" data-name="bobler-højre copy"><path class="cls-1" d="M0,172.21c0,9.57,4,15.85,12.05,18.87,1.58,0,3.17.1,4.74.1H437.24c.22,0,.44,0,.68,0,7,.19,14,.12,20.95,0,.27,0,.53,0,.79,0,8.08-.58,13.94-8.48,13.93-18.81,0-50.49-.19-101,.1-151.48C473.76,8,466.42,0,457,0Q236.14.32,15.26.15C6.18.15,0,7.88,0,19.32Q0,95.76,0,172.21Z"/></g></g><g id="Tekster"><path class="cls-2" d="M68.85,68.31H79V59h4.68V83H79V72.34H68.85V83H64.17V59h4.68Z"/><path class="cls-2" d="M92.9,67.44v8.82A3.52,3.52,0,0,0,93.83,79a3.56,3.56,0,0,0,4.47,0,3.52,3.52,0,0,0,.93-2.74V67.44h4.4V77a5.88,5.88,0,0,1-1.91,4.79,10,10,0,0,1-11.31,0A5.9,5.9,0,0,1,88.51,77V67.44Z"/><path class="cls-2" d="M116.3,71.15a3.66,3.66,0,0,0-2.56-1c-1,0-1.69.5-1.69,1.26,0,.39.18,1,1.41,1.4l1,.33c1.22.39,3.06,1,4,2.23a4.5,4.5,0,0,1,.79,2.59,5.19,5.19,0,0,1-1.73,4,6.55,6.55,0,0,1-4.68,1.65,7.83,7.83,0,0,1-6-2.59l2.3-2.66a4.82,4.82,0,0,0,3.45,1.8c1.23,0,2.17-.61,2.17-1.69a1.75,1.75,0,0,0-1.37-1.59l-1-.36A8.36,8.36,0,0,1,109,74.57a4.18,4.18,0,0,1-1.19-3,4.61,4.61,0,0,1,1.62-3.52,6.4,6.4,0,0,1,4.07-1.12,7.74,7.74,0,0,1,5,1.66Z"/><path class="cls-2" d="M126.74,56.79V73.13l5.83-5.69h5.69L131,74.28,138.83,83H133l-5.79-6.66-.47.43V83h-4.39V56.79Z"/><path class="cls-2" d="M161.12,67.44h4.39V83h-4.39V81a5.59,5.59,0,0,1-4.79,2.52c-4.79,0-8-3.74-8-8.31s3.13-8.28,7.73-8.28a5.67,5.67,0,0,1,5,2.52Zm-8.21,7.78a4.32,4.32,0,1,0,4.32-4.39A4.27,4.27,0,0,0,152.91,75.22Z"/><path class="cls-2" d="M174.08,71.19V83h-4.39V71.19H168V67.44h1.73V62.12h4.39v5.32h3v3.75Z"/><path class="cls-2" d="M191.68,59h3.38l6.38,15.26L208.1,59h3.38l4,24h-4.75L208.6,68.24,202.16,83h-1.59l-6.15-14.79L192,83h-4.75Z"/><path class="cls-2" d="M234.41,78.67c-.47,1.16-2.23,4.86-7.67,4.86a8.17,8.17,0,0,1-6-2.19,7.86,7.86,0,0,1-2.45-6.09,8.26,8.26,0,0,1,2.38-6.11,8,8,0,0,1,5.86-2.2,7.45,7.45,0,0,1,6.09,2.56,9.33,9.33,0,0,1,1.87,6.11V76H222.86a4.6,4.6,0,0,0,.75,2.62,3.71,3.71,0,0,0,3.13,1.48,4,4,0,0,0,3.64-2Zm-4-5.5a3.74,3.74,0,0,0-7.38,0Z"/><path class="cls-2" d="M242.3,71.19V83h-4.39V71.19h-1.73V67.44h1.73V62.12h4.39v5.32h3v3.75Z"/><path class="cls-2" d="M253.13,71.19V83h-4.39V71.19H247V67.44h1.73V62.12h4.39v5.32h3v3.75Z"/><path class="cls-2" d="M273.76,78.67c-.47,1.16-2.23,4.86-7.67,4.86a8.15,8.15,0,0,1-6-2.19,7.86,7.86,0,0,1-2.45-6.09,8.26,8.26,0,0,1,2.38-6.11,8,8,0,0,1,5.86-2.2A7.43,7.43,0,0,1,272,69.5a9.29,9.29,0,0,1,1.88,6.11V76H262.2A4.61,4.61,0,0,0,263,78.6a3.71,3.71,0,0,0,3.13,1.48,4,4,0,0,0,3.64-2Zm-4-5.5a3.74,3.74,0,0,0-7.38,0Z"/><path class="cls-2" d="M290,56.79V73.13l5.83-5.69h5.69l-7.31,6.84L302.13,83H296.3l-5.8-6.66-.47.43V83h-4.39V56.79Z"/><path class="cls-2" d="M317.75,69.14a8.39,8.39,0,0,1,0,12.2,10.16,10.16,0,0,1-12.6,0,8.39,8.39,0,0,1,0-12.2,10.12,10.12,0,0,1,12.6,0Zm-1.91,6.11a4.39,4.39,0,1,0-4.39,4.4A4.35,4.35,0,0,0,315.84,75.25Z"/><path class="cls-2" d="M323.76,67.44h4.4v1.77a5.72,5.72,0,0,1,4.64-2.27,5.17,5.17,0,0,1,4.93,2.84,5.74,5.74,0,0,1,5-2.84A5,5,0,0,1,347,68.85,6.58,6.58,0,0,1,348,73.24V83h-4.4v-8.5a4.66,4.66,0,0,0-.72-3,2.2,2.2,0,0,0-1.8-.8,2.58,2.58,0,0,0-2.41,1.37,6,6,0,0,0-.61,3v8H333.7v-8.5a4.73,4.73,0,0,0-.72-3,2.23,2.23,0,0,0-1.8-.8,2.56,2.56,0,0,0-2.41,1.37,5.89,5.89,0,0,0-.61,3v8h-4.4Z"/><path class="cls-2" d="M352.2,67.44h4.4v1.77a5.72,5.72,0,0,1,4.64-2.27,5.17,5.17,0,0,1,4.93,2.84,5.74,5.74,0,0,1,5-2.84,5,5,0,0,1,4.21,1.91c1,1.33,1.09,2.66,1.09,4.39V83h-4.4v-8.5a4.66,4.66,0,0,0-.72-3,2.21,2.21,0,0,0-1.8-.8,2.58,2.58,0,0,0-2.41,1.37,6,6,0,0,0-.61,3v8h-4.39v-8.5a4.73,4.73,0,0,0-.72-3,2.23,2.23,0,0,0-1.8-.8,2.56,2.56,0,0,0-2.41,1.37,5.89,5.89,0,0,0-.61,3v8h-4.4Z"/><path class="cls-2" d="M395.94,78.67c-.47,1.16-2.23,4.86-7.67,4.86a8.17,8.17,0,0,1-6-2.19,7.86,7.86,0,0,1-2.45-6.09,8.26,8.26,0,0,1,2.38-6.11,8,8,0,0,1,5.86-2.2,7.45,7.45,0,0,1,6.09,2.56,9.33,9.33,0,0,1,1.87,6.11V76H384.39a4.6,4.6,0,0,0,.75,2.62,3.71,3.71,0,0,0,3.13,1.48,4,4,0,0,0,3.64-2Zm-4-5.5a3.74,3.74,0,0,0-7.38,0Z"/><path class="cls-2" d="M399.44,67.44h4.39v2.34a5.27,5.27,0,0,1,1.94-2.16,4.79,4.79,0,0,1,2.59-.68,5.35,5.35,0,0,1,1.87.36l-.57,4.1a3.34,3.34,0,0,0-2.05-.57,3.59,3.59,0,0,0-2.92,1.26,5.32,5.32,0,0,0-.86,3.45V83h-4.39Z"/><path class="cls-2" d="M67.92,134.47h-4.4V110.64h4.4v2A5.92,5.92,0,0,1,73,110.14a7.44,7.44,0,0,1,5.33,2.09,9.34,9.34,0,0,1-.11,12.49,7.67,7.67,0,0,1-5.29,2,5.9,5.9,0,0,1-5-2.52Zm1-19.4a4.15,4.15,0,0,0-1.48,3.35,4.42,4.42,0,0,0,1.44,3.38,4.26,4.26,0,0,0,2.88,1,4.15,4.15,0,0,0,3-1.12,4.55,4.55,0,0,0,1.37-3.31,4.72,4.72,0,0,0-1.33-3.28,4.57,4.57,0,0,0-3-1.11A4,4,0,0,0,69,115.07Z"/><path class="cls-2" d="M96,110.64h4.39v15.59H96v-2a5.58,5.58,0,0,1-4.78,2.52c-4.79,0-8-3.74-8-8.31s3.13-8.28,7.74-8.28a5.64,5.64,0,0,1,5,2.52Zm-8.2,7.78A4.32,4.32,0,1,0,92.11,114,4.27,4.27,0,0,0,87.79,118.42Zm4.35-17.17a3.39,3.39,0,1,1-3.38,3.38A3.43,3.43,0,0,1,92.14,101.25Zm0,4.79a1.41,1.41,0,1,0,0-2.81,1.41,1.41,0,0,0,0,2.81Z"/><path class="cls-2" d="M117.34,112.66a6.06,6.06,0,0,1,5.08-2.52c4.61,0,7.66,3.56,7.66,8.28s-3.16,8.31-7.77,8.31a5.89,5.89,0,0,1-5-2.52v2H113V100h4.39Zm-.43,5.76a4.32,4.32,0,1,0,4.32-4.39A4.27,4.27,0,0,0,116.91,118.42Z"/><path class="cls-2" d="M148.77,121.87c-.47,1.16-2.23,4.86-7.67,4.86a8.15,8.15,0,0,1-6-2.19,7.86,7.86,0,0,1-2.45-6.09,8.3,8.3,0,0,1,2.37-6.11,8,8,0,0,1,5.87-2.2A7.43,7.43,0,0,1,147,112.7a9.28,9.28,0,0,1,1.88,6.12v.35H137.21a4.62,4.62,0,0,0,.76,2.63,3.71,3.71,0,0,0,3.13,1.48,4,4,0,0,0,3.64-2Zm-4-5.5a3.74,3.74,0,0,0-7.38,0Z"/><path class="cls-2" d="M160.76,114.35a3.66,3.66,0,0,0-2.56-1c-1,0-1.69.5-1.69,1.26,0,.39.18,1,1.4,1.4l1.05.33c1.22.39,3.06,1,4,2.23a4.55,4.55,0,0,1,.79,2.59,5.19,5.19,0,0,1-1.73,4,6.55,6.55,0,0,1-4.68,1.65,7.88,7.88,0,0,1-6.05-2.59l2.31-2.66a4.82,4.82,0,0,0,3.45,1.8c1.23,0,2.16-.61,2.16-1.69A1.74,1.74,0,0,0,157.8,120l-1-.36a8.36,8.36,0,0,1-3.35-1.87,4.2,4.2,0,0,1-1.19-3,4.61,4.61,0,0,1,1.62-3.52,6.4,6.4,0,0,1,4.07-1.12,7.74,7.74,0,0,1,5,1.66Z"/><path class="cls-2" d="M167.92,123.64a8.39,8.39,0,0,1-1.76-5.19,8.19,8.19,0,0,1,2.63-6.11,9,9,0,0,1,6.29-2.2,9.24,9.24,0,0,1,5,1.3l2.44-2.45,2,1.83-2.38,2.38a8.44,8.44,0,0,1,1.8,5.25,8.21,8.21,0,0,1-2.63,6.09,9,9,0,0,1-6.3,2.19A9.08,9.08,0,0,1,170,125.4l-2.37,2.38-2-1.8Zm9.14-9.15a3.81,3.81,0,0,0-1.87-.46,4.31,4.31,0,0,0-4.5,4.46,4.75,4.75,0,0,0,.44,1.94Zm-4,7.85a4.31,4.31,0,0,0,2.09.51,4,4,0,0,0,3.13-1.3,4.38,4.38,0,0,0,1.23-3.17,3.52,3.52,0,0,0-.51-2Z"/><path class="cls-2" d="M199.42,110.64h4.39v14.87c0,2.38-.21,4.86-2.16,6.8a8.27,8.27,0,0,1-6.15,2.2c-3,0-4.83-.9-5.83-1.8a8.7,8.7,0,0,1-2.53-4.64h4.76a3.73,3.73,0,0,0,1.08,1.87,3.88,3.88,0,0,0,2.66.83,3.68,3.68,0,0,0,2.66-1,4.37,4.37,0,0,0,1.12-3.45v-2.2a5.45,5.45,0,0,1-4.79,2.59,7.37,7.37,0,0,1-5.4-2.12,8.57,8.57,0,0,1-2.48-6.19,8.66,8.66,0,0,1,2.41-6.19,7.65,7.65,0,0,1,5.37-2.09,5.47,5.47,0,0,1,4.89,2.52Zm-6.73,4.47a4.25,4.25,0,0,0-1.4,3.31,4.33,4.33,0,0,0,1.15,3.06,4.24,4.24,0,0,0,3.16,1.37,4.45,4.45,0,0,0,2.92-1.08,4.6,4.6,0,0,0,1.4-3.35,4.38,4.38,0,0,0-1.26-3.13A4,4,0,0,0,195.6,114,4.19,4.19,0,0,0,192.69,115.11Z"/><path class="cls-2" d="M218.57,101.43a2.63,2.63,0,1,1-2.62,2.63A2.65,2.65,0,0,1,218.57,101.43Zm2.2,9.21v15.59h-4.39V110.64Z"/><path class="cls-2" d="M245.28,110.64h4.39v15.59h-4.39v-2a5.58,5.58,0,0,1-4.79,2.52c-4.78,0-8-3.74-8-8.31s3.13-8.28,7.74-8.28a5.64,5.64,0,0,1,5,2.52Zm-8.21,7.78a4.32,4.32,0,1,0,8.64,0,4.32,4.32,0,1,0-8.64,0Z"/><path class="cls-2" d="M258.31,114.39v11.84h-4.39V114.39h-1.65v-3.75h1.65v-4.28c0-1.44.11-3.89,2.05-5.51a5.88,5.88,0,0,1,3.86-1.29,5.66,5.66,0,0,1,2.52.54v4a3.06,3.06,0,0,0-2-.65,1.75,1.75,0,0,0-1.59.8,5.14,5.14,0,0,0-.47,2.7v3.7h4v3.75Z"/><path class="cls-2" d="M270,114.39v11.84h-4.39V114.39h-1.73v-3.75h1.73v-5.32H270v5.32h3v3.75Z"/><path class="cls-2" d="M290.64,121.87c-.47,1.16-2.23,4.86-7.67,4.86a8.17,8.17,0,0,1-6-2.19,7.86,7.86,0,0,1-2.45-6.09,8.26,8.26,0,0,1,2.38-6.11,8,8,0,0,1,5.86-2.2,7.45,7.45,0,0,1,6.09,2.56,9.32,9.32,0,0,1,1.87,6.12v.35H279.09a4.61,4.61,0,0,0,.75,2.63,3.71,3.71,0,0,0,3.13,1.48,4,4,0,0,0,3.64-2Zm-4-5.5a3.74,3.74,0,0,0-7.38,0Z"/><path class="cls-2" d="M294.13,110.64h4.4v2a5.71,5.71,0,0,1,4.82-2.52,6,6,0,0,1,4.61,1.91,6.56,6.56,0,0,1,1.22,4.39v9.79h-4.39v-8.49a4.5,4.5,0,0,0-.83-3.07,2.84,2.84,0,0,0-2-.79,3,3,0,0,0-2.7,1.37,5.33,5.33,0,0,0-.68,3v8h-4.4Z"/><path class="cls-2" d="M315.8,121.08a2.81,2.81,0,1,1-2.8,2.81A2.77,2.77,0,0,1,315.8,121.08Z"/></g></svg>
