<svg xmlns="http://www.w3.org/2000/svg" width="473.69" height="191.3" viewBox="0 0 473.69 191.3"><defs><style>.cls-1{fill:#f2902c;}.cls-2{fill:#fff;}</style></defs><title>bubble_12</title><g id="Tekster"><path class="cls-1" d="M0,172.21c0,9.57,4,15.85,12.05,18.87,1.58,0,3.17.1,4.74.1H437.24c.22,0,.44,0,.68,0,7,.19,14,.12,20.95,0,.27,0,.53,0,.79,0,8.08-.58,13.94-8.48,13.93-18.81,0-50.49-.19-101,.1-151.48C473.76,8,466.42,0,457,0Q236.14.32,15.26.15C6.18.15,0,7.88,0,19.32Q0,95.76,0,172.21Z"/><path class="cls-2" d="M67.62,35.88v16.2c0,2.13-.15,5.47-2.81,7.27a7.28,7.28,0,0,1-3.92,1.08,7.9,7.9,0,0,1-5.51-2.23l2.84-3.42a2.78,2.78,0,0,0,2.34,1.3,2.06,2.06,0,0,0,1.84-.83c.57-.83.54-2.41.54-3.89V35.88Z"/><path class="cls-2" d="M87.74,55.54c-.47,1.15-2.23,4.86-7.67,4.86a8.13,8.13,0,0,1-6-2.2,7.84,7.84,0,0,1-2.45-6.08A8.27,8.27,0,0,1,74,46a8,8,0,0,1,5.86-2.2A7.45,7.45,0,0,1,86,46.36a9.35,9.35,0,0,1,1.87,6.12v.36H76.19a4.66,4.66,0,0,0,.75,2.63,3.73,3.73,0,0,0,3.13,1.47,4,4,0,0,0,3.64-2Zm-4-5.51a3.74,3.74,0,0,0-7.38,0Z"/><path class="cls-2" d="M103.11,44.31h4.39V59.17c0,2.38-.21,4.86-2.15,6.81a8.3,8.3,0,0,1-6.16,2.19c-3,0-4.82-.9-5.83-1.8a8.59,8.59,0,0,1-2.52-4.64h4.75a3.76,3.76,0,0,0,1.08,1.87,3.88,3.88,0,0,0,2.66.83,3.73,3.73,0,0,0,2.67-1A4.4,4.4,0,0,0,103.11,60V57.81a5.46,5.46,0,0,1-4.78,2.59,7.36,7.36,0,0,1-5.4-2.13,8.55,8.55,0,0,1-2.49-6.19,8.64,8.64,0,0,1,2.42-6.19,7.61,7.61,0,0,1,5.36-2.09,5.49,5.49,0,0,1,4.89,2.52Zm-6.73,4.46a4.43,4.43,0,0,0,2.92,7.74,4.41,4.41,0,0,0,2.91-1.08,4.61,4.61,0,0,0,1.41-3.35A4.46,4.46,0,0,0,102.36,49a4,4,0,0,0-3.06-1.26A4.24,4.24,0,0,0,96.38,48.77Z"/><path class="cls-2" d="M120.07,33.65h4.39V46.32a5.74,5.74,0,0,1,4.83-2.52,6,6,0,0,1,4.6,1.91,6.57,6.57,0,0,1,1.23,4.39v9.79h-4.4V51.4a4.46,4.46,0,0,0-.82-3.06,2.82,2.82,0,0,0-2.06-.79,3,3,0,0,0-2.69,1.36,5.38,5.38,0,0,0-.69,3v8h-4.39Z"/><path class="cls-2" d="M151.24,44.31h4.4V59.89h-4.4v-2a5.58,5.58,0,0,1-4.78,2.52c-4.79,0-8-3.75-8-8.32s3.13-8.28,7.74-8.28a5.64,5.64,0,0,1,5,2.52ZM143,52.08a4.32,4.32,0,1,0,4.32-4.39A4.27,4.27,0,0,0,143,52.08Z"/><path class="cls-2" d="M159.81,44.31h4.4v2.34a5.13,5.13,0,0,1,1.94-2.16,4.79,4.79,0,0,1,2.59-.69,5.35,5.35,0,0,1,1.87.36L170,48.27a3.31,3.31,0,0,0-2.06-.58A3.58,3.58,0,0,0,165.07,49a5.35,5.35,0,0,0-.86,3.46v7.48h-4.4Z"/><path class="cls-2" d="M189.66,48a3.66,3.66,0,0,0-2.56-1c-1,0-1.69.5-1.69,1.26,0,.4.18,1,1.4,1.4l1.05.33c1.22.39,3.06,1,3.95,2.23a4.5,4.5,0,0,1,.8,2.59,5.17,5.17,0,0,1-1.73,4,6.55,6.55,0,0,1-4.68,1.66,7.89,7.89,0,0,1-6-2.59l2.31-2.67a4.82,4.82,0,0,0,3.45,1.8c1.23,0,2.16-.61,2.16-1.69a1.73,1.73,0,0,0-1.37-1.58l-1-.36a8.32,8.32,0,0,1-3.35-1.88,4.15,4.15,0,0,1-1.19-3,4.61,4.61,0,0,1,1.62-3.53,6.45,6.45,0,0,1,4.07-1.12,7.78,7.78,0,0,1,5,1.66Z"/><path class="cls-2" d="M211,55.54c-.47,1.15-2.23,4.86-7.67,4.86a8.15,8.15,0,0,1-6-2.2,7.84,7.84,0,0,1-2.45-6.08A8.27,8.27,0,0,1,197.29,46a8,8,0,0,1,5.87-2.2,7.44,7.44,0,0,1,6.08,2.56,9.35,9.35,0,0,1,1.87,6.12v.36H199.45a4.66,4.66,0,0,0,.75,2.63,3.73,3.73,0,0,0,3.13,1.47,4,4,0,0,0,3.64-2ZM207,50a3.74,3.74,0,0,0-7.38,0Z"/><path class="cls-2" d="M214.5,44.31h4.39v2a5.71,5.71,0,0,1,4.82-2.52,6,6,0,0,1,4.61,1.91,6.56,6.56,0,0,1,1.22,4.39v9.79h-4.39V51.4a4.47,4.47,0,0,0-.83-3.06,2.8,2.8,0,0,0-2-.79,3,3,0,0,0-2.7,1.36,5.36,5.36,0,0,0-.68,3v8H214.5Z"/><path class="cls-2" d="M245.67,33.65h4.39V59.89h-4.39v-2a5.58,5.58,0,0,1-4.79,2.52c-4.78,0-7.95-3.75-7.95-8.32s3.13-8.28,7.74-8.28a5.66,5.66,0,0,1,5,2.52Zm-8.21,18.43a4.32,4.32,0,1,0,4.32-4.39A4.27,4.27,0,0,0,237.46,52.08Z"/><path class="cls-2" d="M258.63,48.05V59.89h-4.39V48.05h-1.73V44.31h1.73V39h4.39v5.33h3v3.74Z"/><path class="cls-2" d="M287.64,55.54c-.46,1.15-2.23,4.86-7.66,4.86a8.16,8.16,0,0,1-6-2.2,7.84,7.84,0,0,1-2.45-6.08A8.27,8.27,0,0,1,273.93,46a8,8,0,0,1,5.87-2.2,7.44,7.44,0,0,1,6.08,2.56,9.3,9.3,0,0,1,1.87,6.12v.36H276.09a4.59,4.59,0,0,0,.76,2.63A3.72,3.72,0,0,0,280,56.94a4,4,0,0,0,3.63-2Zm-4-5.51a3.74,3.74,0,0,0-7.38,0Z"/><path class="cls-2" d="M295.53,48.05V59.89h-4.39V48.05h-1.73V44.31h1.73V39h4.39v5.33h3v3.74Z"/><path class="cls-2" d="M313.64,68.14h-4.39V44.31h4.39v2a5.92,5.92,0,0,1,5.07-2.52A7.47,7.47,0,0,1,324,45.89a8.42,8.42,0,0,1,2.34,6.19,8.32,8.32,0,0,1-2.45,6.3,7.63,7.63,0,0,1-5.29,2,5.91,5.91,0,0,1-5-2.52Zm1-19.41a4.14,4.14,0,0,0-1.47,3.35,4.43,4.43,0,0,0,1.44,3.39,4.26,4.26,0,0,0,2.87,1,4.2,4.2,0,0,0,3-1.12,4.58,4.58,0,0,0,1.36-3.31,4.64,4.64,0,0,0-1.33-3.27,4.58,4.58,0,0,0-3-1.12A4,4,0,0,0,314.68,48.73Z"/><path class="cls-2" d="M329.77,44.31h4.39v2.34a5.2,5.2,0,0,1,1.94-2.16,4.79,4.79,0,0,1,2.59-.69,5.35,5.35,0,0,1,1.87.36L340,48.27a3.28,3.28,0,0,0-2.05-.58A3.59,3.59,0,0,0,335,49a5.35,5.35,0,0,0-.86,3.46v7.48h-4.39Z"/><path class="cls-2" d="M344.92,35.09a2.63,2.63,0,1,1-2.63,2.63A2.65,2.65,0,0,1,344.92,35.09Zm2.2,9.22V59.89h-4.39V44.31Z"/><path class="cls-2" d="M354.17,44.31l4.11,8.78,4.1-8.78h4.89l-7.84,15.58h-2.31l-7.84-15.58Z"/><path class="cls-2" d="M381,44.31h4.39V59.89H381v-2a5.59,5.59,0,0,1-4.79,2.52c-4.79,0-7.95-3.75-7.95-8.32s3.13-8.28,7.73-8.28a5.67,5.67,0,0,1,5,2.52Zm-8.21,7.77a4.32,4.32,0,1,0,4.32-4.39A4.27,4.27,0,0,0,372.82,52.08Z"/><path class="cls-2" d="M394,48.05V59.89H389.6V48.05h-1.73V44.31h1.73V39H394v5.33h3v3.74Z"/><path class="cls-2" d="M62.79,89.52A6.06,6.06,0,0,1,67.87,87c4.61,0,7.67,3.57,7.67,8.28s-3.17,8.32-7.78,8.32a5.9,5.9,0,0,1-5-2.52v2H58.4V76.85h4.39Zm-.43,5.76a4.32,4.32,0,1,0,4.32-4.39A4.27,4.27,0,0,0,62.36,95.28Z"/><path class="cls-2" d="M81.12,78.29a2.63,2.63,0,1,1-2.63,2.63A2.65,2.65,0,0,1,81.12,78.29Zm2.19,9.22v15.58H78.92V87.51Z"/><path class="cls-2" d="M91.88,76.85v26.24H87.49V76.85Z"/><path class="cls-2" d="M100.45,76.85v26.24H96.06V76.85Z"/><path class="cls-2" d="M119.92,98.74c-.46,1.15-2.23,4.86-7.66,4.86a8.16,8.16,0,0,1-6-2.2,7.84,7.84,0,0,1-2.45-6.08,8.27,8.27,0,0,1,2.38-6.12,8,8,0,0,1,5.87-2.2,7.44,7.44,0,0,1,6.08,2.56A9.3,9.3,0,0,1,120,95.68V96H108.37a4.66,4.66,0,0,0,.75,2.63,3.74,3.74,0,0,0,3.14,1.47,4,4,0,0,0,3.63-2Zm-4-5.51a3.74,3.74,0,0,0-7.38,0Z"/><path class="cls-2" d="M135.37,76.85h4.39v26.24h-4.39v-2a5.62,5.62,0,0,1-4.79,2.52c-4.79,0-8-3.75-8-8.32S125.76,87,130.36,87a5.67,5.67,0,0,1,5,2.52Zm-8.21,18.43a4.32,4.32,0,1,0,4.32-4.39A4.27,4.27,0,0,0,127.16,95.28Z"/><path class="cls-2" d="M159.23,98.74c-.46,1.15-2.23,4.86-7.66,4.86a8.16,8.16,0,0,1-6-2.2,7.84,7.84,0,0,1-2.45-6.08,8.27,8.27,0,0,1,2.38-6.12,8,8,0,0,1,5.87-2.2,7.44,7.44,0,0,1,6.08,2.56,9.3,9.3,0,0,1,1.87,6.12V96H147.68a4.59,4.59,0,0,0,.76,2.63,3.72,3.72,0,0,0,3.13,1.47,4,4,0,0,0,3.63-2Zm-4-5.51a3.74,3.74,0,0,0-7.38,0Z"/><path class="cls-2" d="M175.51,91.25v11.84h-4.39V91.25h-1.73V87.51h1.73V82.18h4.39v5.33h3v3.74Z"/><path class="cls-2" d="M183,78.29a2.63,2.63,0,1,1-2.63,2.63A2.65,2.65,0,0,1,183,78.29Zm2.2,9.22v15.58h-4.39V87.51Z"/><path class="cls-2" d="M193.79,76.85v26.24H189.4V76.85Z"/><path class="cls-2" d="M221.22,98.05h-9.68l-2.12,5h-5.08l10.33-24h3.67l10,24h-5Zm-1.36-3.81-3.42-8.64L213,94.24Z"/><path class="cls-2" d="M230.55,87.51h4.39v2A5.74,5.74,0,0,1,239.76,87a6,6,0,0,1,4.61,1.91,6.57,6.57,0,0,1,1.23,4.39v9.79h-4.4V94.6a4.46,4.46,0,0,0-.82-3.06,2.82,2.82,0,0,0-2.06-.79,3,3,0,0,0-2.7,1.36,5.45,5.45,0,0,0-.68,3v8h-4.39Z"/><path class="cls-2" d="M249.77,87.51h4.4v2A5.71,5.71,0,0,1,259,87a6,6,0,0,1,4.61,1.91,6.56,6.56,0,0,1,1.22,4.39v9.79h-4.39V94.6a4.47,4.47,0,0,0-.83-3.06,2.8,2.8,0,0,0-2.05-.79,3,3,0,0,0-2.7,1.36,5.36,5.36,0,0,0-.68,3v8h-4.4Z"/><path class="cls-2" d="M281,87.51h4.39v15.58H281v-2a5.62,5.62,0,0,1-4.79,2.52c-4.79,0-8-3.75-8-8.32S271.34,87,275.94,87a5.67,5.67,0,0,1,5,2.52Zm-8.21,7.77a4.32,4.32,0,1,0,4.32-4.39A4.27,4.27,0,0,0,272.74,95.28Z"/><path class="cls-2" d="M291.39,98.13l4,.46-5.08,9.54-2.77-.32Z"/><path class="cls-2" d="M324.15,89.2a8.41,8.41,0,0,1,0,12.2,10.12,10.12,0,0,1-12.6,0,8.39,8.39,0,0,1,0-12.2,10.12,10.12,0,0,1,12.6,0Zm-1.91,6.12a4.39,4.39,0,1,0-4.39,4.39A4.35,4.35,0,0,0,322.24,95.32Z"/><path class="cls-2" d="M342,87.51h4.39v14.86c0,2.38-.22,4.86-2.16,6.81a8.28,8.28,0,0,1-6.16,2.19c-3,0-4.82-.9-5.83-1.8a8.65,8.65,0,0,1-2.52-4.64h4.75a3.76,3.76,0,0,0,1.08,1.87,3.91,3.91,0,0,0,2.67.83,3.68,3.68,0,0,0,2.66-1A4.41,4.41,0,0,0,342,103.2V101a5.46,5.46,0,0,1-4.79,2.6,7.36,7.36,0,0,1-5.4-2.13,8.55,8.55,0,0,1-2.48-6.19,8.68,8.68,0,0,1,2.41-6.19A7.63,7.63,0,0,1,337.14,87a5.5,5.5,0,0,1,4.9,2.52ZM335.31,92a4.27,4.27,0,0,0-1.41,3.31,4.35,4.35,0,0,0,1.15,3.06,4.28,4.28,0,0,0,3.17,1.37,4.45,4.45,0,0,0,2.92-1.08,4.6,4.6,0,0,0,1.4-3.35,4.46,4.46,0,0,0-1.26-3.13,4,4,0,0,0-3.06-1.26A4.23,4.23,0,0,0,335.31,92Z"/><path class="cls-2" d="M359,76.85h4.4V89.52A5.71,5.71,0,0,1,368.21,87a6,6,0,0,1,4.61,1.91A6.56,6.56,0,0,1,374,93.3v9.79h-4.39V94.6a4.47,4.47,0,0,0-.83-3.06,2.8,2.8,0,0,0-2.05-.79,3,3,0,0,0-2.7,1.36,5.36,5.36,0,0,0-.68,3v8H359Z"/><path class="cls-2" d="M382.21,87.51v8.82a3.27,3.27,0,0,0,5.4,2.73,3.48,3.48,0,0,0,.94-2.73V87.51h4.39v9.54a5.87,5.87,0,0,1-1.91,4.78,9.9,9.9,0,0,1-11.3,0,5.87,5.87,0,0,1-1.91-4.78V87.51Z"/><path class="cls-2" d="M397.12,87.51h4.39v2A5.72,5.72,0,0,1,406.33,87a6,6,0,0,1,4.61,1.91,6.56,6.56,0,0,1,1.22,4.39v9.79h-4.39V94.6a4.42,4.42,0,0,0-.83-3.06,2.79,2.79,0,0,0-2.05-.79,3,3,0,0,0-2.7,1.36,5.45,5.45,0,0,0-.68,3v8h-4.39Z"/><path class="cls-2" d="M58.4,120.05h4.39v12.67a5.74,5.74,0,0,1,4.83-2.52,6,6,0,0,1,4.61,1.91,6.56,6.56,0,0,1,1.22,4.39v9.79H69.06V137.8a4.47,4.47,0,0,0-.83-3.06,2.8,2.8,0,0,0-2-.79,3,3,0,0,0-2.7,1.36,5.38,5.38,0,0,0-.69,3v7.95H58.4Z"/><path class="cls-2" d="M89.58,130.71H94v15.58H89.58v-2a5.62,5.62,0,0,1-4.79,2.52c-4.79,0-8-3.75-8-8.32s3.14-8.28,7.74-8.28a5.67,5.67,0,0,1,5,2.52Zm-8.21,7.77a4.32,4.32,0,1,0,4.32-4.39A4.27,4.27,0,0,0,81.37,138.48Z"/><path class="cls-2" d="M98.15,130.71h4.39v2.34a5.2,5.2,0,0,1,1.94-2.16,4.73,4.73,0,0,1,2.59-.69,5.46,5.46,0,0,1,1.88.36l-.58,4.11a3.28,3.28,0,0,0-2.05-.58,3.6,3.6,0,0,0-2.92,1.26,5.35,5.35,0,0,0-.86,3.46v7.48H98.15Z"/><path class="cls-2" d="M128,134.41a3.65,3.65,0,0,0-2.56-1c-1,0-1.69.5-1.69,1.26,0,.4.18,1,1.41,1.4l1,.33c1.22.39,3.06,1,4,2.23a4.5,4.5,0,0,1,.79,2.59,5.19,5.19,0,0,1-1.73,4,6.55,6.55,0,0,1-4.68,1.66,7.83,7.83,0,0,1-6-2.6l2.3-2.66a4.82,4.82,0,0,0,3.46,1.8c1.22,0,2.16-.61,2.16-1.69a1.76,1.76,0,0,0-1.37-1.59l-1-.35a8.39,8.39,0,0,1-3.35-1.88,4.15,4.15,0,0,1-1.19-3,4.61,4.61,0,0,1,1.62-3.53,6.46,6.46,0,0,1,4.07-1.12,7.8,7.8,0,0,1,5,1.66Z"/><path class="cls-2" d="M149.34,141.94c-.47,1.15-2.24,4.86-7.67,4.86a8.16,8.16,0,0,1-6-2.2,7.86,7.86,0,0,1-2.44-6.08,8.31,8.31,0,0,1,2.37-6.12,8,8,0,0,1,5.87-2.2,7.43,7.43,0,0,1,6.08,2.56,9.3,9.3,0,0,1,1.87,6.12v.36H137.78a4.54,4.54,0,0,0,.76,2.62,3.69,3.69,0,0,0,3.13,1.48,4,4,0,0,0,3.63-2.05Zm-4-5.51a3.73,3.73,0,0,0-7.37,0Z"/><path class="cls-2" d="M152.83,130.71h4.39v2A5.74,5.74,0,0,1,162,130.2a6,6,0,0,1,4.61,1.91,6.57,6.57,0,0,1,1.23,4.39v9.79h-4.4V137.8a4.46,4.46,0,0,0-.82-3.06,2.82,2.82,0,0,0-2.06-.79,3,3,0,0,0-2.69,1.36,5.38,5.38,0,0,0-.69,3v7.95h-4.39Z"/><path class="cls-2" d="M184,120.05h4.4v26.24H184v-2a5.6,5.6,0,0,1-4.78,2.52c-4.79,0-8-3.75-8-8.32s3.13-8.28,7.74-8.28a5.64,5.64,0,0,1,5,2.52Zm-8.2,18.43a4.32,4.32,0,1,0,4.32-4.39A4.27,4.27,0,0,0,175.8,138.48Z"/><path class="cls-2" d="M197,134.45v11.84h-4.39V134.45h-1.72v-3.74h1.72v-5.33H197v5.33h3v3.74Z"/><path class="cls-2" d="M222.63,120.05H227v26.24h-4.39v-2a5.61,5.61,0,0,1-4.79,2.52c-4.78,0-8-3.75-8-8.32s3.13-8.28,7.74-8.28a5.64,5.64,0,0,1,5,2.52Zm-8.21,18.43a4.32,4.32,0,1,0,4.32-4.39A4.27,4.27,0,0,0,214.42,138.48Z"/><path class="cls-2" d="M246.5,141.94c-.47,1.15-2.23,4.86-7.67,4.86a8.12,8.12,0,0,1-6-2.2,7.84,7.84,0,0,1-2.45-6.08,8.31,8.31,0,0,1,2.37-6.12,8,8,0,0,1,5.87-2.2,7.43,7.43,0,0,1,6.08,2.56,9.31,9.31,0,0,1,1.88,6.12v.36H234.94a4.61,4.61,0,0,0,.76,2.62,3.71,3.71,0,0,0,3.13,1.48,4,4,0,0,0,3.64-2.05Zm-4-5.51a3.74,3.74,0,0,0-7.38,0Z"/><path class="cls-2" d="M254.38,134.45v11.84H250V134.45h-1.73v-3.74H250v-5.33h4.39v5.33h3v3.74Z"/><path class="cls-2" d="M271,130.71l4.1,8.78,4.11-8.78h4.89l-7.85,15.58h-2.3l-7.85-15.58Z"/><path class="cls-2" d="M288.44,121.49a2.63,2.63,0,1,1-2.63,2.63A2.65,2.65,0,0,1,288.44,121.49Zm2.19,9.22v15.58h-4.39V130.71Z"/><path class="cls-2" d="M306.76,120.05h4.39v26.24h-4.39v-2A5.61,5.61,0,0,1,302,146.8c-4.78,0-8-3.75-8-8.32s3.13-8.28,7.74-8.28a5.64,5.64,0,0,1,5,2.52Zm-8.21,18.43a4.32,4.32,0,1,0,4.32-4.39A4.27,4.27,0,0,0,298.55,138.48Z"/><path class="cls-2" d="M330.63,141.94c-.47,1.15-2.23,4.86-7.67,4.86a8.12,8.12,0,0,1-6-2.2,7.84,7.84,0,0,1-2.45-6.08,8.31,8.31,0,0,1,2.37-6.12,8,8,0,0,1,5.87-2.2,7.43,7.43,0,0,1,6.08,2.56,9.31,9.31,0,0,1,1.88,6.12v.36H319.07a4.61,4.61,0,0,0,.76,2.62,3.71,3.71,0,0,0,3.13,1.48,4,4,0,0,0,3.64-2.05Zm-4-5.51a3.74,3.74,0,0,0-7.38,0Z"/><path class="cls-2" d="M334.12,130.71h4.39v2.34a5.2,5.2,0,0,1,1.95-2.16,4.68,4.68,0,0,1,2.59-.69,5.4,5.4,0,0,1,1.87.36l-.58,4.11a3.26,3.26,0,0,0-2-.58,3.57,3.57,0,0,0-2.91,1.26,5.35,5.35,0,0,0-.87,3.46v7.48h-4.39Z"/><path class="cls-2" d="M361.62,141.94c-.46,1.15-2.23,4.86-7.66,4.86a8.16,8.16,0,0,1-6-2.2,7.84,7.84,0,0,1-2.45-6.08,8.27,8.27,0,0,1,2.38-6.12,8,8,0,0,1,5.87-2.2,7.44,7.44,0,0,1,6.08,2.56,9.35,9.35,0,0,1,1.87,6.12v.36H350.07a4.6,4.6,0,0,0,.75,2.62,3.72,3.72,0,0,0,3.14,1.48,4,4,0,0,0,3.63-2.05Zm-4-5.51a3.74,3.74,0,0,0-7.38,0Z"/><path class="cls-2" d="M368.68,141.15a2.81,2.81,0,1,1-2.81,2.8A2.77,2.77,0,0,1,368.68,141.15Z"/></g></svg>
