<svg id="Layer_1" data-name="Layer 1" xmlns="http://www.w3.org/2000/svg" xmlns:xlink="http://www.w3.org/1999/xlink" width="587.5" height="224.5" viewBox="0 0 587.5 224.5"><defs><style>.cls-1{fill:none;}.cls-2{fill:#f4912d;}.cls-3{fill:gray;}.cls-4{fill:#e9eced;}.cls-5{fill:#fcee21;}.cls-6{clip-path:url(#clip-path);}.cls-7{fill:#152230;}.cls-8{fill:#f2902c;}.cls-9{fill:#fff;}.cls-10{clip-path:url(#clip-path-3);}</style><clipPath id="clip-path"><rect class="cls-1" x="157.5" y="42.5" width="59.55" height="45"/></clipPath><clipPath id="clip-path-3"><rect class="cls-1" x="328.5" y="42.5" width="59.55" height="45"/></clipPath></defs><title>Bus</title><path class="cls-2" d="M475.24,75.59c1-11.22-.67-21.56-4.93-30.15A19.06,19.06,0,0,0,453.19,35H59.49A19.23,19.23,0,0,0,41.2,48.21q-18.72,57.42,0,114.62A19.2,19.2,0,0,0,59.45,176H463l63.13.38a19.25,19.25,0,0,0,19.37-19.25v-25.8A34.82,34.82,0,0,0,510.67,96.5H494.42A19.22,19.22,0,0,1,475.24,75.59Z"/><circle class="cls-3" cx="112" cy="170" r="33.5"/><circle class="cls-3" cx="405" cy="170" r="33.5"/><rect class="cls-4" x="64.5" y="43.5" width="63" height="43" rx="14.87" ry="14.87"/><rect class="cls-4" x="155.5" y="43.5" width="63" height="43" rx="15.23" ry="15.23"/><rect class="cls-4" x="240.5" y="43.5" width="63" height="43" rx="17.56" ry="17.56"/><rect class="cls-4" x="326.5" y="43.5" width="63" height="43" rx="13.73" ry="13.73"/><rect class="cls-4" x="420.5" y="43.5" width="43" height="43" rx="13.23" ry="13.23"/><circle class="cls-5" cx="524" cy="118" r="8.5"/><g class="cls-6"><g class="cls-6"><path class="cls-7" d="M170.88,65.74a2.06,2.06,0,0,0-.6.41c-.69.51-1.36,1-2,1.56-.06,0-.11.12-.18.09s-.06-.14-.06-.22c0-1,0-2.1,0-3.15,0-.25-.07-.3-.3-.29q-1,0-2,0a1.39,1.39,0,0,1-1.4-1.43c0-3.85,0-7.69,0-11.53a1.51,1.51,0,0,1,1.59-1.59q21.15,0,42.29,0a1.38,1.38,0,0,1,1.45,1.46q0,5.82,0,11.63a1.42,1.42,0,0,1-1.16,1.44H173.2a.78.78,0,0,0-.54.17c-.34.28-.72.52-1.06.81a2.85,2.85,0,0,0-.72.62"/><path class="cls-8" d="M170.88,65.74a2.85,2.85,0,0,1,.72-.62c.34-.29.72-.53,1.06-.81a.78.78,0,0,1,.54-.17h35.26c.09.16.27.14.41.23a1.38,1.38,0,0,1,.67,1.22c0,3.85,0,7.7,0,11.56A1.51,1.51,0,0,1,208,78.69c-6.89,0-13.77,0-20.65,0h-7.46a1.12,1.12,0,0,0-.73.26l-3.5,2.7-.81.6c-.17.13-.23.08-.23-.12,0-1,0-2,0-3,0-.41,0-.41-.4-.41-.61,0-1.21,0-1.82,0a1.45,1.45,0,0,1-1.51-1.53c0-3.71,0-7.43,0-11.15v-.26"/><path class="cls-9" d="M172,60.62h-2V53.1h3.11a2.65,2.65,0,0,1,1.94.66,2.9,2.9,0,0,1,0,3.71,2.65,2.65,0,0,1-1.94.66H172Zm0-4.07h.65c.72,0,1.08-.31,1.08-.94s-.36-.93-1.08-.93H172Z"/><path class="cls-9" d="M182.71,60.62h-2.44l-1.86-2.89v2.89h-2V53.1h3a3.06,3.06,0,0,1,1.1.18,2.12,2.12,0,0,1,.77.51,2,2,0,0,1,.46.74,2.35,2.35,0,0,1,.16.89,2.2,2.2,0,0,1-.42,1.4,2.1,2.1,0,0,1-1.22.72Zm-4.3-4.16h.36a1.41,1.41,0,0,0,.89-.24.92.92,0,0,0,0-1.38,1.48,1.48,0,0,0-.89-.23h-.36Z"/><rect class="cls-9" x="183.3" y="53.1" width="1.96" height="7.52"/><polygon class="cls-9" points="187.95 53.1 189.76 57.68 191.59 53.1 193.72 53.1 190.54 60.62 188.99 60.62 185.82 53.1 187.95 53.1"/><path class="cls-9" d="M198,59.37h-2.79l-.45,1.3h-2.09l2.87-7.52h2.13l2.87,7.52h-2.09Zm-.52-1.49-.87-2.5-.88,2.5Z"/><polygon class="cls-9" points="203.4 54.81 203.4 60.67 201.44 60.67 201.44 54.81 199.84 54.81 199.84 53.15 205.01 53.15 205.01 54.81 203.4 54.81"/><path class="cls-9" d="M180.79,69.5a2.4,2.4,0,0,0-.64-.38,1.57,1.57,0,0,0-.62-.13,1,1,0,0,0-.61.18.57.57,0,0,0-.24.47.48.48,0,0,0,.12.33,1.07,1.07,0,0,0,.31.22,2.52,2.52,0,0,0,.44.17,4.42,4.42,0,0,1,.48.15,2.92,2.92,0,0,1,1.4.85,2,2,0,0,1,.44,1.38,2.69,2.69,0,0,1-.19,1.05,2.17,2.17,0,0,1-.57.8,2.78,2.78,0,0,1-.91.52,3.93,3.93,0,0,1-1.23.18,4.55,4.55,0,0,1-2.64-.84l.84-1.58a3.52,3.52,0,0,0,.86.58,2,2,0,0,0,.85.19,1,1,0,0,0,.71-.22.68.68,0,0,0,.17-.79.6.6,0,0,0-.2-.23,1.49,1.49,0,0,0-.36-.19l-.54-.2c-.25-.08-.5-.17-.74-.27a2.22,2.22,0,0,1-.65-.38,1.85,1.85,0,0,1-.46-.6,2.22,2.22,0,0,1-.17-.92,2.71,2.71,0,0,1,.18-1,2.48,2.48,0,0,1,.52-.78,2.41,2.41,0,0,1,.82-.5,3.06,3.06,0,0,1,1.08-.18,4.37,4.37,0,0,1,1.16.16,4.81,4.81,0,0,1,1.16.45Z"/><polygon class="cls-9" points="182.61 75.08 182.61 67.58 184.56 67.58 188.16 72.17 188.16 67.58 190.1 67.58 190.1 75.08 188.16 75.08 184.56 70.5 184.56 75.08 182.61 75.08"/><path class="cls-9" d="M195.8,73.78H193l-.45,1.3h-2.08l2.85-7.5h2.13l2.86,7.5h-2.08Zm-.52-1.48-.87-2.5-.88,2.5Z"/><polygon class="cls-9" points="200.65 70.67 203.02 67.58 205.43 67.58 202.46 71.13 205.71 75.08 203.18 75.08 200.65 71.83 200.65 75.08 198.7 75.08 198.7 67.58 200.65 67.58 200.65 70.67"/></g></g><g class="cls-10"><g class="cls-10"><path class="cls-7" d="M341.88,65.74a2.06,2.06,0,0,0-.6.41c-.69.51-1.36,1-2,1.56-.06,0-.11.12-.18.09s-.06-.14-.06-.22c0-1,0-2.1,0-3.15,0-.25-.07-.3-.3-.29q-1,0-2,0a1.39,1.39,0,0,1-1.4-1.43c0-3.85,0-7.69,0-11.53a1.51,1.51,0,0,1,1.59-1.59q21.15,0,42.29,0a1.38,1.38,0,0,1,1.45,1.46q0,5.82,0,11.63a1.42,1.42,0,0,1-1.16,1.44H344.2a.78.78,0,0,0-.54.17c-.34.28-.72.52-1.06.81a2.85,2.85,0,0,0-.72.62"/><path class="cls-8" d="M341.88,65.74a2.85,2.85,0,0,1,.72-.62c.34-.29.72-.53,1.06-.81a.78.78,0,0,1,.54-.17h35.26c.09.16.27.14.41.23a1.38,1.38,0,0,1,.67,1.22c0,3.85,0,7.7,0,11.56A1.51,1.51,0,0,1,379,78.69c-6.89,0-13.77,0-20.65,0h-7.46a1.12,1.12,0,0,0-.73.26l-3.5,2.7-.81.6c-.17.13-.23.08-.23-.12,0-1,0-2,0-3,0-.41,0-.41-.4-.41-.61,0-1.21,0-1.82,0a1.45,1.45,0,0,1-1.51-1.53c0-3.71,0-7.43,0-11.15v-.26"/><path class="cls-9" d="M343,60.62h-1.95V53.1h3.11a2.65,2.65,0,0,1,1.94.66,2.9,2.9,0,0,1,0,3.71,2.65,2.65,0,0,1-1.94.66H343Zm0-4.07h.65c.72,0,1.08-.31,1.08-.94s-.36-.93-1.08-.93H343Z"/><path class="cls-9" d="M353.71,60.62h-2.44l-1.86-2.89v2.89h-2V53.1h3a3.06,3.06,0,0,1,1.1.18,2.12,2.12,0,0,1,.77.51,2,2,0,0,1,.46.74,2.35,2.35,0,0,1,.16.89,2.2,2.2,0,0,1-.42,1.4,2.1,2.1,0,0,1-1.22.72Zm-4.3-4.16h.36a1.41,1.41,0,0,0,.89-.24.92.92,0,0,0,0-1.38,1.48,1.48,0,0,0-.89-.23h-.36Z"/><rect class="cls-9" x="354.3" y="53.1" width="1.96" height="7.52"/><polygon class="cls-9" points="358.95 53.1 360.76 57.68 362.59 53.1 364.72 53.1 361.54 60.62 359.99 60.62 356.82 53.1 358.95 53.1"/><path class="cls-9" d="M369,59.37h-2.79l-.45,1.3h-2.09l2.87-7.52h2.13l2.87,7.52h-2.09Zm-.52-1.49-.87-2.5-.88,2.5Z"/><polygon class="cls-9" points="374.4 54.81 374.4 60.67 372.44 60.67 372.44 54.81 370.84 54.81 370.84 53.15 376.01 53.15 376.01 54.81 374.4 54.81"/><path class="cls-9" d="M351.79,69.5a2.4,2.4,0,0,0-.64-.38,1.57,1.57,0,0,0-.62-.13,1,1,0,0,0-.61.18.57.57,0,0,0-.24.47.48.48,0,0,0,.12.33,1.07,1.07,0,0,0,.31.22,2.52,2.52,0,0,0,.44.17,4.42,4.42,0,0,1,.48.15,2.92,2.92,0,0,1,1.4.85,2,2,0,0,1,.44,1.38,2.69,2.69,0,0,1-.19,1.05,2.17,2.17,0,0,1-.57.8,2.78,2.78,0,0,1-.91.52,3.93,3.93,0,0,1-1.23.18,4.55,4.55,0,0,1-2.64-.84l.84-1.58a3.52,3.52,0,0,0,.86.58,2,2,0,0,0,.85.19,1,1,0,0,0,.71-.22.68.68,0,0,0,.17-.79.6.6,0,0,0-.2-.23,1.49,1.49,0,0,0-.36-.19l-.54-.2c-.25-.08-.5-.17-.74-.27a2.22,2.22,0,0,1-.65-.38,1.85,1.85,0,0,1-.46-.6,2.22,2.22,0,0,1-.17-.92,2.71,2.71,0,0,1,.18-1,2.48,2.48,0,0,1,.52-.78,2.41,2.41,0,0,1,.82-.5,3.06,3.06,0,0,1,1.08-.18,4.37,4.37,0,0,1,1.16.16,4.81,4.81,0,0,1,1.16.45Z"/><polygon class="cls-9" points="353.61 75.08 353.61 67.58 355.56 67.58 359.16 72.17 359.16 67.58 361.1 67.58 361.1 75.08 359.16 75.08 355.56 70.5 355.56 75.08 353.61 75.08"/><path class="cls-9" d="M366.8,73.78H364l-.45,1.3h-2.08l2.85-7.5h2.13l2.86,7.5h-2.08Zm-.52-1.48-.87-2.5-.88,2.5Z"/><polygon class="cls-9" points="371.65 70.67 374.02 67.58 376.43 67.58 373.46 71.13 376.71 75.08 374.18 75.08 371.65 71.83 371.65 75.08 369.7 75.08 369.7 67.58 371.65 67.58 371.65 70.67"/></g></g></svg>
