<svg xmlns="http://www.w3.org/2000/svg" width="795.83" height="122.5" viewBox="0 0 795.83 122.5"><defs><style>.cls-1{fill:#564435;}.cls-2{fill:#442e1b;}</style></defs><title>bus_placeholder</title><g id="Game_over" data-name="Game over"><rect class="cls-1" width="795.83" height="122.5" rx="20" ry="20"/><path class="cls-2" d="M232.29,75.59V67.85L250.1,59l-17.81-8.82V42.53l26,13.26v6.54Z"/><path class="cls-2" d="M279.33,70.19a13.6,13.6,0,0,0,3.84,2,12.38,12.38,0,0,0,3.71.66,4.07,4.07,0,0,0,2.46-.72,1.54,1.54,0,0,0,.48-1.26,1.42,1.42,0,0,0-.48-1.2,6,6,0,0,0-2.52-1l-2.52-.6a8.57,8.57,0,0,1-4.67-2.34,6.45,6.45,0,0,1-1.75-4.62,9.59,9.59,0,0,1,2.53-6.54c2-2.1,5.64-3.24,9.6-3.24a22.12,22.12,0,0,1,8.57,1.74l-3.24,6.12a13.28,13.28,0,0,0-5-1.32,4,4,0,0,0-2.21.54,1.44,1.44,0,0,0-.84,1.32,1.55,1.55,0,0,0,1.13,1.5c.9.36,1.68.36,3.18.78l1.74.48a11.33,11.33,0,0,1,4,2.1,7.58,7.58,0,0,1,2,5.34,9,9,0,0,1-2.7,6.66c-3.12,3.12-7.68,3.36-9.89,3.36a19.75,19.75,0,0,1-10.8-3.12Z"/><path class="cls-2" d="M313.82,35.33V61.91l9.06-9.66h13L323.24,64.61l13.68,14.46H323.6l-9.78-11v11h-9.6V35.33Z"/><path class="cls-2" d="M366.08,75.53C362.54,79,358.4,80,354.08,80c-3.9,0-8.22-.78-11.94-4.44a13.84,13.84,0,0,1,0-19.74,16.75,16.75,0,0,1,11.94-4.44,16.94,16.94,0,0,1,12,4.44,13.84,13.84,0,0,1,0,19.74ZM349.82,61.25a6.12,6.12,0,0,0,4.32,10.44,6.1,6.1,0,0,0,4.26-1.8,5.92,5.92,0,0,0,1.86-4.26,6.51,6.51,0,0,0-1.86-4.38,6.16,6.16,0,0,0-8.58,0Z"/><path class="cls-2" d="M385.34,35.33V79.07h-9.6V35.33Z"/><path class="cls-2" d="M420.32,67.43h-20a6.77,6.77,0,0,0,1.68,4.5,5.39,5.39,0,0,0,4,1.32,7.57,7.57,0,0,0,3.12-.72,4.47,4.47,0,0,0,1.68-1.8H420a12.06,12.06,0,0,1-3.24,5.52c-2,1.92-5.1,3.72-10.92,3.72-3.54,0-7.8-.78-11.1-4.08a14,14,0,0,1-4-10.14,14.31,14.31,0,0,1,4-10.38c2.22-2.16,5.7-3.9,11-3.9a14.69,14.69,0,0,1,10.32,3.66c3.78,3.6,4.26,8.28,4.26,11.28Zm-8.82-5.52A6.44,6.44,0,0,0,409.94,59a5.59,5.59,0,0,0-4-1.44,5.16,5.16,0,0,0-3.9,1.44,5.47,5.47,0,0,0-1.44,2.88Z"/><path class="cls-2" d="M435.44,35.33v19.5a10.61,10.61,0,0,1,8-3.48A13.71,13.71,0,0,1,452.9,55a14.61,14.61,0,0,1,4.38,10.62A14.79,14.79,0,0,1,453,76.25,12.84,12.84,0,0,1,443.54,80a9.84,9.84,0,0,1-8.1-3.84v2.94h-9.6V35.33ZM445.58,70a6.06,6.06,0,0,0,1.86-4.2,6.59,6.59,0,0,0-1.86-4.56,6.16,6.16,0,0,0-8.64.06,7,7,0,0,0-1.8,4.32,6.43,6.43,0,0,0,2,4.56,6.55,6.55,0,0,0,4.14,1.62A6,6,0,0,0,445.58,70Z"/><path class="cls-2" d="M472.4,52.25v15a5.14,5.14,0,0,0,1.44,3.9,5,5,0,0,0,3.36,1A4.49,4.49,0,0,0,480.62,71,5,5,0,0,0,482,67.25v-15h9.6V69c0,2.28-.18,4.74-2.58,7.2-3.3,3.42-7.92,3.78-11.58,3.78-4,0-8.94-.42-12.12-3.84A9.64,9.64,0,0,1,462.8,69V52.25Z"/><path class="cls-2" d="M499.94,70.19a13.74,13.74,0,0,0,3.84,2,12.49,12.49,0,0,0,3.72.66,4.07,4.07,0,0,0,2.46-.72,1.54,1.54,0,0,0,.48-1.26,1.42,1.42,0,0,0-.48-1.2,6,6,0,0,0-2.52-1l-2.52-.6a8.63,8.63,0,0,1-4.68-2.34,6.49,6.49,0,0,1-1.74-4.62A9.58,9.58,0,0,1,501,54.59c2-2.1,5.64-3.24,9.6-3.24a22.14,22.14,0,0,1,8.58,1.74L516,59.21a13.28,13.28,0,0,0-5-1.32,4.05,4.05,0,0,0-2.22.54,1.44,1.44,0,0,0-.84,1.32,1.56,1.56,0,0,0,1.14,1.5c.9.36,1.68.36,3.18.78l1.74.48a11.33,11.33,0,0,1,4,2.1,7.58,7.58,0,0,1,2,5.34,9,9,0,0,1-2.7,6.66c-3.12,3.12-7.68,3.36-9.9,3.36a19.79,19.79,0,0,1-10.8-3.12Z"/><path class="cls-2" d="M563.54,42.53v7.68L545.72,59l17.82,8.88v7.68l-26-13.32V55.73Z"/></g></svg>
