<?xml version="1.0" encoding="utf-8"?>
<!-- Generator: Adobe Illustrator 22.1.0, SVG Export Plug-In . SVG Version: 6.00 Build 0)  -->
<svg version="1.1" id="Layer_1" xmlns="http://www.w3.org/2000/svg" xmlns:xlink="http://www.w3.org/1999/xlink" x="0px" y="0px"
	 viewBox="0 0 520 600" style="enable-background:new 0 0 520 600;" xml:space="preserve">
<style type="text/css">
	.st0{fill:#FBB077;}
	.st1{fill:#FBB072;}
	.st2{fill:#FFFFFF;}
	.st3{fill:#89AAE5;}
	.st4{fill:#89CCE5;}
	.st5{fill:#8C6239;}
	.st6{fill:none;}
	.st7{fill:#C1272D;}
</style>
<title>pige</title>
<ellipse class="st0" cx="261.9" cy="217.7" rx="225.5" ry="181"/>
<path d="M270.1,248.6c-7.3,0-14.5-0.8-21.6-2.4l0.4-2c8,1.7,16.1,2.4,24.2,2.3c6.9-0.2,13.7-1,20.5-2.3l0.4,2
	c-6.9,1.4-13.8,2.2-20.8,2.3C272.1,248.6,271.1,248.6,270.1,248.6z"/>
<ellipse class="st1" cx="36.4" cy="187.2" rx="14" ry="22.9"/>
<ellipse class="st1" cx="482" cy="184.9" rx="15.6" ry="25.5"/>
<path class="st0" d="M249.4,245.4c-2.3-3.3-3-5.4-1-8"/>
<path d="M248.6,245.9c-2.4-3.5-3.4-6.1-1-9.2l1.6,1.2c-1.5,2-1.3,3.5,1,6.8L248.6,245.9z"/>
<path class="st0" d="M293.2,245.4c2.3-3.3,3-5.4,1-8"/>
<path d="M294,245.9l-1.6-1.1c2.3-3.3,2.5-4.9,1-6.8l1.6-1.2C297.4,239.8,296.5,242.5,294,245.9z"/>
<ellipse class="st2" cx="393.1" cy="197.7" rx="39.9" ry="38.6"/>
<path d="M393.1,159.6c21.7,0,39.4,17.1,39.4,38.1s-17.7,38.1-39.4,38.1s-39.4-17.1-39.4-38.1S371.4,159.6,393.1,159.6 M393.1,158.6
	c-22.3,0-40.4,17.5-40.4,39.1s18.1,39.1,40.4,39.1c22.3,0,40.4-17.5,40.4-39.1S415.4,158.6,393.1,158.6z"/>
<ellipse cx="392.6" cy="197.2" rx="12.1" ry="11.7"/>
<path d="M392.6,186c6.2,0.2,11,5.4,10.8,11.6c-0.2,6.2-5.4,11-11.6,10.8c-6-0.2-10.8-5.2-10.8-11.2
	C381.1,190.9,386.3,185.9,392.6,186 M392.6,185c-6.7,0.2-12,5.8-11.8,12.6c0.2,6.7,5.8,12,12.6,11.8c6.6-0.2,11.8-5.6,11.8-12.2
	C405.1,190.4,399.5,184.9,392.6,185z"/>
<path d="M431.1,158.8c-25.4-14.7-51.1-14.7-76.5,0l-0.5-0.9c25.7-14.9,51.8-14.9,77.5,0L431.1,158.8z"/>
<rect x="352.9" y="146.3" transform="matrix(0.9043 -0.4269 0.4269 0.9043 -31.1387 165.4225)" width="1" height="11.8"/>
<rect x="359.8" y="143.3" transform="matrix(0.9044 -0.4267 0.4267 0.9044 -29.1097 167.9929)" width="1" height="11.3"/>
<rect x="366.2" y="140.6" transform="matrix(0.9479 -0.3185 0.3185 0.9479 -27.4891 124.4017)" width="1" height="11.4"/>
<rect x="372.9" y="138.7" transform="matrix(0.9642 -0.2651 0.2651 0.9642 -24.8829 104.1244)" width="1" height="11.2"/>
<rect x="379.2" y="136.8" transform="matrix(0.9901 -0.14 0.14 0.9901 -16.234 54.577)" width="1" height="11.6"/>
<rect x="386.5" y="136.9" transform="matrix(0.9998 -1.867394e-02 1.867394e-02 0.9998 -2.5873 7.2515)" width="1" height="10.6"/>
<rect x="389.8" y="141.4" transform="matrix(2.931734e-02 -0.9996 0.9996 2.931734e-02 241.3833 532.3156)" width="10" height="1"/>
<rect x="396.6" y="142.1" transform="matrix(8.976350e-02 -0.996 0.996 8.976350e-02 224.2112 530.5386)" width="11.5" height="1"/>
<rect x="403.9" y="143.4" transform="matrix(0.1719 -0.9851 0.9851 0.1719 196.9152 522.0483)" width="10.3" height="1"/>
<rect x="409.6" y="145.1" transform="matrix(0.2874 -0.9578 0.9578 0.2874 155.9399 500.7481)" width="9.8" height="1"/>
<rect x="416.1" y="147.5" transform="matrix(0.459 -0.8885 0.8885 0.459 96.1184 453.935)" width="9.4" height="1"/>
<rect x="421.9" y="149.9" transform="matrix(0.4293 -0.9032 0.9032 0.4293 107.7987 471.2953)" width="9.9" height="1"/>
<rect x="426.6" y="152.4" transform="matrix(0.525 -0.8511 0.8511 0.525 74.7693 439.7619)" width="9.5" height="1"/>
<path class="st3" d="M106.5,586.4h29c-11.1-70.3-13.7-136,0-193h-29C96.4,449.6,97.6,515.6,106.5,586.4z"/>
<path class="st3" d="M416.4,585.4h-29c11.1-70.3,13.7-136,0-193h29C426.5,448.6,425.3,514.6,416.4,585.4z"/>
<rect x="141.4" y="365.4" class="st4" width="238" height="248"/>
<circle class="st4" cx="126.9" cy="384.9" r="32.5"/>
<circle class="st4" cx="396.9" cy="382.9" r="32.5"/>
<ellipse class="st0" cx="401.9" cy="585.4" rx="17.5" ry="13"/>
<ellipse class="st0" cx="121.9" cy="586.4" rx="17.5" ry="13"/>
<path class="st5" d="M113.4,124.7c-26.1,41.8-40,106.2-36.9,172.6c-13.2-65.5-12-131.2,5-171.1L113.4,124.7z"/>
<path class="st5" d="M95.4,124.7c-20.4,30-31.3,76.3-28.9,124.1c-10.3-47.1-9.4-94.3,3.9-123L95.4,124.7z"/>
<path class="st5" d="M128.4,124.7c-26.7,29.6-40.9,75.3-37.7,122.4c-13.5-46.5-12.3-93,5.1-121.4L128.4,124.7z"/>
<path class="st4" d="M82.2,89.7c39.3-39.5,89.4-68.3,151.9-84.8c26.5-7,54.5-6.5,80.7,1.5c52.8,16.4,98.5,48.9,140.8,89L82.2,89.7z"
	/>
<path class="st4" d="M182.6,81.5C200,57.4,227,33.6,258.2,6.9c0.8-0.7,6.8-6.5,5.8-6c-62.6,26.8-119.3,56.8-154.3,83.5"/>
<path d="M110,84.8l-0.6-0.8c33.7-25.7,88.5-55.4,154.4-83.6c0.3-0.1,0.6-0.1,0.7,0.2c0.6,0.9-5.9,6.6-6,6.7
	c-32.3,27.6-58.3,50.7-75.5,74.6l-0.8-0.6c17.3-24,43.4-47.1,75.7-74.7c0.6-0.5,3.1-2.9,4.6-4.4C197.4,30,143.3,59.4,110,84.8z"/>
<path class="st4" d="M345.2,80.5c-17.6-24.3-44.8-48.3-76.3-75.2c-0.7-0.6-4.7-4.8-3.8-4.4c62.9,26.9,117.8,55.7,153,82.6"/>
<path d="M417.8,83.8C384.7,58.5,332.4,30.2,266.4,2c1,1.1,2.4,2.5,2.8,3c32.7,28,59.1,51.3,76.4,75.3l-0.8,0.6
	C327.6,57,301.2,33.7,268.6,5.8c0,0-4.6-4.2-4.1-5.1c0.2-0.2,0.5-0.3,0.8-0.2C332,28.9,385,57.5,418.4,83L417.8,83.8z"/>
<line class="st6" x1="443.1" y1="128.7" x2="441.5" y2="87.4"/>
<line class="st6" x1="268.9" y1="81.6" x2="264.5" y2="0.4"/>
<rect x="266.2" y="0.3" transform="matrix(0.9986 -5.338169e-02 5.338169e-02 0.9986 -1.8065 14.296)" width="1" height="81.3"/>
<path class="st4" d="M85,87c124-6.8,245.1-6.9,363,1.3"/>
<path d="M447.9,88.7C334,80.9,211.9,80.5,85,87.5l-0.1-1c127-7,249.1-6.6,363,1.3L447.9,88.7z"/>
<path class="st5" d="M409.5,124.7c26.1,41.8,40,106.2,36.9,172.6c13.2-65.5,12-131.2-5-171.1L409.5,124.7z"/>
<path class="st5" d="M427.5,124.7c20.5,30,31.3,76.3,28.9,124.1c10.3-47.1,9.4-94.3-3.9-123L427.5,124.7z"/>
<path class="st5" d="M394.5,124.7c26.7,29.6,40.9,75.3,37.7,122.4c13.5-46.5,12.3-93-5.1-121.4L394.5,124.7z"/>
<path class="st4" d="M62.9,131.7c124.7-9,258.8-8.9,399.7-1.6c3.5-15.3,4.3-29.4-0.9-41C320.8,80.5,186.6,78.5,62,88.7
	C57.8,102.1,59,116.6,62.9,131.7z"/>
<rect x="91.2" y="86.6" transform="matrix(0.9993 -3.716695e-02 3.716695e-02 0.9993 -3.9564 3.4828)" width="1" height="43.2"/>
<rect x="131.4" y="84.6" transform="matrix(0.9993 -3.716695e-02 3.716695e-02 0.9993 -3.8547 4.9744)" width="1" height="43.2"/>
<rect x="171.5" y="82.6" transform="matrix(0.9993 -3.716695e-02 3.716695e-02 0.9993 -3.7525 6.4655)" width="1" height="43.2"/>
<rect x="210.6" y="82.6" transform="matrix(0.9993 -3.716695e-02 3.716695e-02 0.9993 -3.7255 7.9177)" width="1" height="43.2"/>
<rect x="254" y="81.6" transform="matrix(0.9993 -3.716695e-02 3.716695e-02 0.9993 -3.6582 9.5309)" width="1" height="43.2"/>
<rect x="295.3" y="82.6" transform="matrix(0.9993 -3.716695e-02 3.716695e-02 0.9993 -3.6671 11.0647)" width="1" height="43.2"/>
<rect x="334.8" y="81.8" transform="matrix(0.9992 -3.996804e-02 3.996804e-02 0.9992 -3.8597 13.4843)" width="1" height="42.9"/>
<rect x="375.6" y="84.4" transform="matrix(0.9992 -3.873662e-02 3.873662e-02 0.9992 -3.7882 14.6469)" width="1" height="41.4"/>
<rect x="411.4" y="86.4" transform="matrix(0.9992 -3.873662e-02 3.873662e-02 0.9992 -3.8388 16.036)" width="1" height="41.4"/>
<rect x="441.8" y="87.4" transform="matrix(0.9992 -3.873662e-02 3.873662e-02 0.9992 -3.8548 17.2138)" width="1" height="41.4"/>
<circle class="st7" cx="32.9" cy="201.9" r="4.5"/>
<circle class="st7" cx="488.9" cy="197.9" r="4.5"/>
<ellipse class="st2" cx="169.1" cy="196.7" rx="39.9" ry="38.6"/>
<path d="M169.1,158.6c21.7,0,39.4,17.1,39.4,38.1s-17.7,38.1-39.4,38.1s-39.4-17.1-39.4-38.1S147.4,158.6,169.1,158.6 M169.1,157.6
	c-22.3,0-40.4,17.5-40.4,39.1s18.1,39.1,40.4,39.1s40.4-17.5,40.4-39.1S191.4,157.6,169.1,157.6z"/>
<ellipse cx="168.6" cy="196.2" rx="12.1" ry="11.7"/>
<path d="M168.6,185c6.2,0.2,11,5.4,10.8,11.6c-0.2,6.2-5.4,11-11.6,10.8c-6-0.2-10.8-5.2-10.8-11.2
	C157.1,189.9,162.3,184.9,168.6,185 M168.6,184c-6.7,0.2-12,5.8-11.8,12.6c0.2,6.7,5.8,12,12.6,11.8c6.6-0.2,11.8-5.6,11.8-12.2
	C181.1,189.4,175.5,183.9,168.6,184z"/>
<path d="M207.1,157.8c-25.4-14.7-51.1-14.7-76.5,0l-0.5-0.9c25.7-14.9,51.8-14.9,77.5,0L207.1,157.8z"/>
<rect x="128.9" y="145.3" transform="matrix(0.9043 -0.4269 0.4269 0.9043 -52.1497 69.709)" width="1" height="11.8"/>
<rect x="135.8" y="142.3" transform="matrix(0.9044 -0.4267 0.4267 0.9044 -50.1058 72.3168)" width="1" height="11.3"/>
<rect x="142.2" y="139.6" transform="matrix(0.9479 -0.3185 0.3185 0.9479 -38.8328 53.012)" width="1" height="11.4"/>
<rect x="148.9" y="137.7" transform="matrix(0.9642 -0.2651 0.2651 0.9642 -32.6314 44.7165)" width="1" height="11.2"/>
<rect x="155.2" y="135.8" transform="matrix(0.9901 -0.14 0.14 0.9901 -18.2981 23.1982)" width="1" height="11.6"/>
<rect x="162.5" y="135.9" transform="matrix(0.9998 -1.867394e-02 1.867394e-02 0.9998 -2.6078 3.0684)" width="1" height="10.6"/>
<rect x="165.8" y="140.4" transform="matrix(2.931734e-02 -0.9996 0.9996 2.931734e-02 24.9391 307.4388)" width="10" height="1"/>
<rect x="172.6" y="141.1" transform="matrix(8.976350e-02 -0.996 0.996 8.976350e-02 21.3246 306.5359)" width="11.6" height="1"/>
<rect x="179.9" y="142.4" transform="matrix(0.1719 -0.9851 0.9851 0.1719 12.4189 300.5886)" width="10.3" height="1"/>
<rect x="185.6" y="144.1" transform="matrix(0.2874 -0.9578 0.9578 0.2874 -2.7261 285.4828)" width="9.8" height="1"/>
<rect x="192.1" y="146.5" transform="matrix(0.459 -0.8885 0.8885 0.459 -24.1904 254.3634)" width="9.4" height="1"/>
<rect x="197.8" y="148.8" transform="matrix(0.4293 -0.9032 0.9032 0.4293 -19.1496 268.394)" width="9.9" height="1"/>
<rect x="202.6" y="151.4" transform="matrix(0.525 -0.8511 0.8511 0.525 -30.7745 248.6587)" width="9.5" height="1"/>
</svg>
