<?xml version="1.0" encoding="utf-8"?>
<!-- Generator: Adobe Illustrator 22.1.0, SVG Export Plug-In . SVG Version: 6.00 Build 0)  -->
<svg version="1.1" id="Layer_1" xmlns="http://www.w3.org/2000/svg" xmlns:xlink="http://www.w3.org/1999/xlink" x="0px" y="0px"
	 viewBox="0 0 520 600" style="enable-background:new 0 0 520 600;" xml:space="preserve">
<style type="text/css">
	.st0{fill:#333333;}
	.st1{fill:#FBB077;}
	.st2{fill:#FFFFFF;}
	.st3{fill:#152230;}
	.st4{fill:#8C6239;}
	.st5{fill:#FBB072;}
</style>
<title>karakter</title>
<path class="st0" d="M110.7,571.7h29c-11.1-70.3-13.7-136,0-193h-29C100.6,434.9,101.8,501,110.7,571.7z"/>
<path class="st0" d="M420.6,570.7h-29c11.1-70.3,13.7-136,0-193h29C430.7,433.9,429.4,500,420.6,570.7z"/>
<ellipse class="st1" cx="259.1" cy="200.1" rx="225.5" ry="181"/>
<ellipse class="st2" cx="144.3" cy="175.1" rx="39.9" ry="38.7"/>
<path d="M144.3,136.9c21.7,0,39.4,17.1,39.4,38.1s-17.7,38.2-39.4,38.2s-39.4-17.1-39.4-38.1S122.6,136.9,144.3,136.9 M144.3,135.9
	c-22.3,0-40.4,17.5-40.4,39.1s18.1,39.1,40.4,39.1s40.4-17.5,40.4-39.1S166.6,135.9,144.3,135.9z"/>
<ellipse cx="143.8" cy="174.6" rx="12.1" ry="11.7"/>
<path d="M143.8,163.4c6.2,0.2,11,5.4,10.8,11.6c-0.2,6.2-5.4,11-11.6,10.8c-6-0.2-10.8-5.2-10.8-11.2
	C132.3,168.3,137.5,163.3,143.8,163.4 M143.8,162.4c-6.7,0.2-12,5.8-11.8,12.6c0.2,6.7,5.8,12,12.6,11.8c6.6-0.2,11.8-5.6,11.8-12.2
	C156.3,167.7,150.6,162.3,143.8,162.4C143.8,162.4,143.8,162.4,143.8,162.4z"/>
<path class="st2" d="M401.4,219.8c-22,0-39.9-17.3-39.9-38.6s17.9-38.6,39.9-38.6s39.9,17.3,39.9,38.6S423.4,219.8,401.4,219.8z"/>
<path d="M401.4,143c21.7,0,39.4,17.1,39.4,38.2s-17.7,38.1-39.4,38.1S362,202.2,362,181.2S379.7,143,401.4,143 M401.4,142
	c-22.3,0-40.4,17.5-40.4,39.1s18.1,39.1,40.4,39.1s40.4-17.5,40.4-39.1S423.7,142,401.4,142z"/>
<ellipse cx="400.9" cy="180.7" rx="12.1" ry="11.7"/>
<path d="M400.9,169.5c6.2,0.2,11,5.4,10.8,11.6s-5.4,11-11.6,10.8c-6-0.2-10.8-5.2-10.8-11.2C389.4,174.4,394.6,169.4,400.9,169.5
	 M400.9,168.5c-6.7,0.2-12,5.8-11.8,12.6c0.2,6.7,5.8,12,12.6,11.8c6.6-0.2,11.8-5.6,11.8-12.2C413.3,173.8,407.7,168.4,400.9,168.5
	z"/>
<path d="M267.3,231c-7.3,0-14.5-0.8-21.6-2.4l0.4-1.9c8,1.6,16.1,2.4,24.2,2.3c6.9-0.2,13.7-1,20.5-2.3l0.4,2
	c-6.9,1.4-13.8,2.2-20.8,2.3C269.3,231,268.3,231,267.3,231z"/>
<path class="st3" d="M52.6,127.9c0-63.7,92.2-115.3,206-115.3s206,51.6,206,115.3"/>
<path class="st4" d="M211.1,98.8c0-22.9,21.3-41.4,47.5-41.4S306,75.9,306,98.8"/>
<path d="M309,118.9h-97.7c-5.9-6.7-5.9-13.4,0-20.2H309V118.9z"/>
<ellipse class="st3" cx="218.5" cy="108.3" rx="2.4" ry="2.8"/>
<ellipse class="st3" cx="254.7" cy="108.3" rx="2.4" ry="2.8"/>
<ellipse class="st3" cx="243.9" cy="108.3" rx="2.4" ry="2.8"/>
<ellipse class="st3" cx="231.2" cy="108.3" rx="2.4" ry="2.8"/>
<ellipse class="st3" cx="288.9" cy="108.3" rx="2.5" ry="2.8"/>
<ellipse class="st3" cx="278.1" cy="108.3" rx="2.5" ry="2.8"/>
<ellipse class="st3" cx="267.4" cy="108.3" rx="2.5" ry="2.8"/>
<ellipse class="st3" cx="300.6" cy="108.3" rx="2.5" ry="2.8"/>
<ellipse cx="261.1" cy="12.7" rx="19.5" ry="5"/>
<ellipse class="st5" cx="36.1" cy="172.2" rx="20.5" ry="33.5"/>
<ellipse class="st5" cx="484.1" cy="175.2" rx="20.5" ry="33.5"/>
<path class="st1" d="M246.6,227.7c-2.3-3.3-3-5.4-1-8"/>
<path d="M245.8,228.3c-2.4-3.5-3.4-6.1-1-9.2l1.6,1.2c-1.5,2-1.3,3.5,1,6.8L245.8,228.3z"/>
<path class="st1" d="M290.4,227.7c2.3-3.3,3-5.4,1-8"/>
<path d="M291.2,228.3l-1.6-1.1c2.3-3.3,2.5-4.9,1-6.8l1.6-1.2C294.6,222.2,293.6,224.8,291.2,228.3z"/>
<rect x="145.6" y="350.7" class="st3" width="238" height="248"/>
<circle class="st3" cx="131.1" cy="370.2" r="32.5"/>
<circle class="st3" cx="401.1" cy="368.2" r="32.5"/>
<ellipse class="st1" cx="406.1" cy="570.7" rx="17.5" ry="13"/>
<ellipse class="st1" cx="126.1" cy="571.7" rx="17.5" ry="13"/>
</svg>
