<svg xmlns="http://www.w3.org/2000/svg" width="524.25" height="122.5" viewBox="0 0 524.25 122.5"><defs><style>.cls-1{fill:#2a303b;}.cls-2{fill:#fd9128;}.cls-3{fill:#fff;}.cls-4{opacity:0.9;}.cls-5{fill:#f2902c;}</style></defs><title>effects_off</title><g id="Settings"><rect class="cls-1" width="524.25" height="122.5" rx="20" ry="20"/><rect class="cls-2" x="58.69" y="87.45" width="157.48" height="3.96" rx="1.98" ry="1.98"/><path class="cls-3" d="M68.77,35.22V61.87h9.89v5.37H62.53v-32Z"/><path class="cls-3" d="M87.64,64.12,77.75,46.46h6.82L91,58.27l5.76-11.81h6.62L86.63,78.24H80Z"/><path class="cls-3" d="M121.72,32.25h5.86v35h-5.86V64.55a7.44,7.44,0,0,1-6.38,3.36c-6.39,0-10.61-5-10.61-11.08s4.17-11,10.32-11a7.54,7.54,0,0,1,6.67,3.36Zm-11,24.58A5.77,5.77,0,1,0,116.54,51,5.7,5.7,0,0,0,110.77,56.83Z"/><path class="cls-3" d="M153.54,61.43c-.62,1.54-3,6.48-10.22,6.48a10.9,10.9,0,0,1-8-2.92,10.49,10.49,0,0,1-3.26-8.12,11.12,11.12,0,0,1,3.16-8.16,10.66,10.66,0,0,1,7.83-2.93c4.22,0,6.67,1.69,8.11,3.41a12.43,12.43,0,0,1,2.5,8.16v.48H138.13a6.16,6.16,0,0,0,1,3.51,5,5,0,0,0,4.18,2,5.36,5.36,0,0,0,4.85-2.74Zm-5.37-7.34a5,5,0,0,0-9.84,0Z"/><path class="cls-3" d="M164.15,51.45V67.24h-5.86V51.45h-2.2v-5h2.2V40.74c0-1.92.15-5.18,2.74-7.34a7.78,7.78,0,0,1,5.14-1.73,7.54,7.54,0,0,1,3.36.72v5.33a4.08,4.08,0,0,0-2.64-.86,2.33,2.33,0,0,0-2.12,1,6.9,6.9,0,0,0-.62,3.6v5h5.38v5Z"/><path class="cls-3" d="M180.09,51.45V67.24h-5.86V51.45H172v-5h2.21V40.74c0-1.92.14-5.18,2.74-7.34a7.73,7.73,0,0,1,5.13-1.73,7.51,7.51,0,0,1,3.36.72v5.33a4.07,4.07,0,0,0-2.64-.86,2.32,2.32,0,0,0-2.11,1,6.9,6.9,0,0,0-.62,3.6v5h5.37v5Z"/><path class="cls-3" d="M208.55,61.43c-.62,1.54-3,6.48-10.22,6.48a10.9,10.9,0,0,1-8-2.92,10.47,10.47,0,0,1-3.27-8.12,11.08,11.08,0,0,1,3.17-8.16,10.66,10.66,0,0,1,7.83-2.93c4.22,0,6.67,1.69,8.11,3.41a12.41,12.41,0,0,1,2.49,8.16v.48H193.14a6.16,6.16,0,0,0,1,3.51,5,5,0,0,0,4.18,2,5.36,5.36,0,0,0,4.84-2.74Zm-5.38-7.34a5,5,0,0,0-9.84,0Z"/><path class="cls-3" d="M219.06,32.25V54l7.78-7.58h7.58l-9.74,9.12,10.51,11.66h-7.78l-7.72-8.88-.63.58v8.3H213.2v-35Z"/><path class="cls-3" d="M243.64,51.45V67.24h-5.86V51.45h-2.3v-5h2.3V39.35h5.86v7.11h4v5Z"/><path class="cls-3" d="M271.14,61.43c-.62,1.54-3,6.48-10.22,6.48A10.9,10.9,0,0,1,253,65a10.47,10.47,0,0,1-3.27-8.12,11.08,11.08,0,0,1,3.17-8.16,10.66,10.66,0,0,1,7.83-2.93c4.22,0,6.67,1.69,8.11,3.41a12.43,12.43,0,0,1,2.5,8.16v.48H255.73a6.16,6.16,0,0,0,1,3.51,5,5,0,0,0,4.18,2,5.37,5.37,0,0,0,4.85-2.74Zm-5.37-7.34a5,5,0,0,0-9.85,0Z"/><path class="cls-3" d="M275.8,46.46h5.85v3.12a7,7,0,0,1,2.59-2.88,6.37,6.37,0,0,1,3.46-.92,7.26,7.26,0,0,1,2.5.48l-.77,5.48a4.41,4.41,0,0,0-2.74-.77,4.8,4.8,0,0,0-3.89,1.68,7.17,7.17,0,0,0-1.15,4.61v10H275.8Z"/><g id="Unmute" class="cls-4"><rect class="cls-5" x="393.71" y="51.7" width="91.07" height="10.05" rx="2.51" ry="2.51" transform="translate(45 258.52) rotate(-34.46)"/><path class="cls-5" d="M428.15,87.72c6.55,2.65,8.38,2,6.7-4.08a74.42,74.42,0,0,1-2-12.5L418.49,81A30,30,0,0,0,428.15,87.72Z"/><path class="cls-5" d="M434.85,30.68c1.68-6.11-.29-7.19-6.7-4.08-8.37,4.08-18.42,16.3-20.09,24.45a29.24,29.24,0,0,0,0,12.22,23.42,23.42,0,0,0,1.22,4l23.15-15.89C432.69,43.23,433.5,35.62,434.85,30.68Z"/><path class="cls-5" d="M463.32,57.16c0,15.66-6.14,25.61-22.46,23.21-1-.15-1.77,1.08-1.37,2.21.54,1.55,1.09,3,1.66,4.27a1.32,1.32,0,0,0,1.06.85C461.84,89.45,470,76.57,470,57.16a38.29,38.29,0,0,0-1.42-10.53l-5.89,4A32.87,32.87,0,0,1,463.32,57.16Z"/><path class="cls-5" d="M441.29,26.84a1.4,1.4,0,0,0-1.12,1c-.46,1.5-.91,3-1.35,4.48-.32,1.09.38,2.21,1.32,2.14a23.47,23.47,0,0,1,13.2,2.5l6.56-4.5A23.81,23.81,0,0,0,441.29,26.84Z"/><path class="cls-5" d="M439.22,37a1.37,1.37,0,0,0-1.28,1.12c-.39,1.51-.76,3-1.11,4.49-.25,1.09.47,2.15,1.39,2a11.77,11.77,0,0,1,3.83.14l7.41-5.09A19.07,19.07,0,0,0,439.22,37Z"/><path class="cls-5" d="M438.46,69.68a1.52,1.52,0,0,0-1.4,2c.3,1.54.64,3.08,1,4.61a1.39,1.39,0,0,0,1.29,1.17c14.08-.25,17.28-7.8,17.28-20.27,0-.77,0-1.53-.06-2.27l-6.72,4.62C449.3,66.49,446.16,70.62,438.46,69.68Z"/></g></g></svg>
