<svg xmlns="http://www.w3.org/2000/svg" width="524.25" height="122.5" viewBox="0 0 524.25 122.5"><defs><style>.cls-1{fill:#2a303b;}.cls-2{fill:#fd9128;}.cls-3{fill:#fff;}.cls-4{opacity:0.9;}.cls-5{fill:#f2902c;}</style></defs><title>effects_on</title><g id="Settings"><rect class="cls-1" width="524.25" height="122.5" rx="20" ry="20"/><rect class="cls-2" x="58.69" y="87.45" width="157.48" height="3.96" rx="1.98" ry="1.98"/><path class="cls-3" d="M68.78,35.22V61.87h9.88v5.37H62.53v-32Z"/><path class="cls-3" d="M87.64,64.12,77.75,46.46h6.82L91,58.27l5.76-11.81h6.62L86.63,78.24H80Z"/><path class="cls-3" d="M121.72,32.25h5.86v35h-5.86V64.55a7.44,7.44,0,0,1-6.38,3.36c-6.39,0-10.61-5-10.61-11.08s4.17-11,10.32-11a7.53,7.53,0,0,1,6.67,3.37ZM110.78,56.83A5.76,5.76,0,1,0,116.54,51,5.69,5.69,0,0,0,110.78,56.83Z"/><path class="cls-3" d="M153.54,61.43c-.62,1.54-3,6.48-10.22,6.48a10.9,10.9,0,0,1-8-2.92,10.49,10.49,0,0,1-3.26-8.12,11.12,11.12,0,0,1,3.16-8.16,10.66,10.66,0,0,1,7.83-2.93c4.22,0,6.67,1.69,8.11,3.41a12.43,12.43,0,0,1,2.5,8.16v.48H138.13a6.16,6.16,0,0,0,1,3.51,5,5,0,0,0,4.18,2,5.36,5.36,0,0,0,4.85-2.74Zm-5.37-7.34a5,5,0,0,0-9.84,0Z"/><path class="cls-3" d="M164.15,51.45V67.24h-5.86V51.45h-2.2v-5h2.2V40.74c0-1.92.15-5.18,2.74-7.34a7.78,7.78,0,0,1,5.14-1.73,7.54,7.54,0,0,1,3.36.72v5.33a4.08,4.08,0,0,0-2.64-.86,2.33,2.33,0,0,0-2.12,1,6.9,6.9,0,0,0-.62,3.6v5h5.38v5Z"/><path class="cls-3" d="M180.09,51.45V67.24h-5.86V51.45H172v-5h2.21V40.74c0-1.92.14-5.18,2.74-7.34a7.73,7.73,0,0,1,5.13-1.73,7.51,7.51,0,0,1,3.36.72v5.33a4.07,4.07,0,0,0-2.64-.86,2.32,2.32,0,0,0-2.11,1,6.9,6.9,0,0,0-.62,3.6v5h5.37v5Z"/><path class="cls-3" d="M208.55,61.43c-.62,1.54-3,6.48-10.22,6.48a10.9,10.9,0,0,1-8-2.92,10.47,10.47,0,0,1-3.27-8.12,11.08,11.08,0,0,1,3.17-8.16,10.66,10.66,0,0,1,7.83-2.93c4.22,0,6.67,1.69,8.11,3.41a12.43,12.43,0,0,1,2.5,8.16v.48H193.14a6.16,6.16,0,0,0,1,3.51,5,5,0,0,0,4.18,2,5.36,5.36,0,0,0,4.84-2.74Zm-5.38-7.34a5,5,0,0,0-9.84,0Z"/><path class="cls-3" d="M219.06,32.25V54l7.78-7.58h7.58l-9.74,9.12,10.51,11.66h-7.78l-7.72-8.88-.63.58v8.3H213.2v-35Z"/><path class="cls-3" d="M243.64,51.45V67.24h-5.86V51.45h-2.3v-5h2.3V39.35h5.86v7.11h4v5Z"/><path class="cls-3" d="M271.14,61.43c-.62,1.54-3,6.48-10.22,6.48A10.9,10.9,0,0,1,253,65a10.47,10.47,0,0,1-3.27-8.12,11.08,11.08,0,0,1,3.17-8.16,10.66,10.66,0,0,1,7.83-2.93c4.22,0,6.67,1.69,8.11,3.41a12.43,12.43,0,0,1,2.5,8.16v.48H255.73a6.16,6.16,0,0,0,1,3.51,5,5,0,0,0,4.18,2,5.37,5.37,0,0,0,4.85-2.74Zm-5.37-7.34a5,5,0,0,0-9.85,0Z"/><path class="cls-3" d="M275.8,46.46h5.85v3.12a7,7,0,0,1,2.59-2.88,6.37,6.37,0,0,1,3.46-.92,7.2,7.2,0,0,1,2.5.49l-.77,5.47a4.41,4.41,0,0,0-2.74-.77,4.8,4.8,0,0,0-3.89,1.68,7.17,7.17,0,0,0-1.15,4.61v10H275.8Z"/><g id="Mute" class="cls-4"><path class="cls-5" d="M407.88,66c2,9.62,11.86,24,23.72,28.86,7.73,3.14,9.89,2.41,7.91-4.81-4-14.43-4-48.09,0-62.52,2-7.22-.34-8.5-7.91-4.81-9.88,4.81-21.74,19.24-23.72,28.85A34.55,34.55,0,0,0,407.88,66Z"/><path class="cls-5" d="M481,58.81C481,36,465.75,20.86,447.1,23a1.65,1.65,0,0,0-1.32,1.23c-.53,1.76-1.07,3.53-1.59,5.28-.38,1.28.45,2.61,1.57,2.53,16.54-1.2,27.35,8.57,27.35,26.75,0,18.48-7.25,30.23-26.51,27.39-1.19-.17-2.09,1.28-1.62,2.62.64,1.82,1.29,3.51,2,5a1.55,1.55,0,0,0,1.25,1C471.37,96.92,481,81.72,481,58.81Z"/><path class="cls-5" d="M465.21,58.81c0-14.44-5.64-23.59-20.55-23.85a1.6,1.6,0,0,0-1.5,1.32q-.71,2.69-1.31,5.31c-.3,1.28.54,2.53,1.63,2.4,8.77-1,13.82,5.19,13.82,14.82,0,9.9-3.46,16-13.53,14.78-1.06-.13-1.91,1.06-1.66,2.32.36,1.82.75,3.64,1.17,5.44a1.64,1.64,0,0,0,1.52,1.38C461.43,82.44,465.21,73.53,465.21,58.81Z"/><path class="cls-5" d="M449.39,58.65c-.06-4.56-2.82-8.48-6.5-9.31a6.25,6.25,0,0,0-1.34-.15A1.69,1.69,0,0,0,440,50.81a68.63,68.63,0,0,0-.51,8c0,2.37.16,5.07.45,8a1.7,1.7,0,0,0,1.51,1.66h0C445.9,68.43,449.46,64,449.39,58.65Z"/></g></g></svg>
