<svg id="Layer_1" data-name="Layer 1" xmlns="http://www.w3.org/2000/svg" width="70" height="80" viewBox="0 0 70 80"><defs><style>.cls-1{fill:#999;}.cls-2{fill:#fff;}</style></defs><title>exitknap</title><circle class="cls-1" cx="36.75" cy="44.25" r="30.5"/><path d="M36.75,76.25a32,32,0,1,1,32-32A32,32,0,0,1,36.75,76.25Zm0-61a29,29,0,1,0,29,29A29,29,0,0,0,36.75,15.25Z"/><circle class="cls-2" cx="33.25" cy="35.75" r="30.5"/><path d="M33.25,67.75a32,32,0,1,1,32-32A32,32,0,0,1,33.25,67.75Zm0-61a29,29,0,1,0,29,29A29,29,0,0,0,33.25,6.75Z"/><path d="M44,47.61a.2.2,0,0,0,.14,0l.09.09a.56.56,0,0,1,.14.1.17.17,0,0,0,0,.13v.19a.36.36,0,0,1,0,.13l-.09.1q0,.09-.09.09a.56.56,0,0,0-.14.09h-.14a.41.41,0,0,0-.18,0,.2.2,0,0,1-.14,0,2.13,2.13,0,0,1-.37-.14l-.32-.18c-.18-.09-.36-.2-.55-.32l-.46-.37-.82-.69L40.26,46q-2-2-3.85-4.08t-3.72-4.23q-2.94-3.39-6-6.74t-6.06-6.61a.56.56,0,0,1-.09-.14.2.2,0,0,1-.05-.14v-.14a.17.17,0,0,0,.05-.13l.09-.1a.56.56,0,0,0,.14-.09.2.2,0,0,1,.14,0h.14a.17.17,0,0,1,.13,0,.56.56,0,0,1,.14.09q3.07,3.31,6.06,6.66t6,6.7q1.88,2.16,3.71,4.22C38.35,42.65,39.63,44,41,45.36c.37.33.63.58.78.73s.44.37.78.64a7.14,7.14,0,0,0,.64.51,5.11,5.11,0,0,0,.74.37H44Zm1-24.1.1-.09a.36.36,0,0,1,.13-.05h.14a.41.41,0,0,1,.18.05s.07,0,.1.09l.09.09a.2.2,0,0,1,0,.14v.14a.17.17,0,0,1,0,.13.14.14,0,0,1-.09.14c-.92,1-1.84,2-2.76,2.89S41,29,40.12,30l-3.76,3.86c-1.26,1.31-2.49,2.61-3.72,3.9-1.83,1.9-3.66,3.79-5.46,5.69l-5.46,5.65-.09.09a.38.38,0,0,1-.14,0H21.3a.3.3,0,0,1-.13,0,.14.14,0,0,1-.09-.05C21,49.06,21,49,21,49a.17.17,0,0,1,0-.13.07.07,0,0,1,0-.1v0a.2.2,0,0,1,0-.14.2.2,0,0,1,.05-.14c1.84-1.89,3.66-3.78,5.46-5.64S30.15,39,32,37.1q1.89-1.93,3.72-3.91c1.26-1.28,2.51-2.57,3.76-3.85.4-.46.82-.9,1.24-1.33s.85-.86,1.24-1.29,1-1,1.56-1.6S44.51,24,45,23.51Z"/></svg>
