<svg id="Layer_1" data-name="Layer 1" xmlns="http://www.w3.org/2000/svg" width="1920" height="1080" viewBox="0 0 1920 1080"><defs><style>.cls-1{fill:#42354d;}.cls-2{fill:#e9eced;}.cls-3{fill:#152230;}.cls-4{fill:#89cce5;}.cls-5{fill:#986b3d;stroke:#000;stroke-miterlimit:10;}</style></defs><title>Baggrund</title><rect class="cls-1" width="1920" height="563"/><rect class="cls-2" y="517" width="1920" height="563"/><circle class="cls-3" cx="56.5" cy="571.5" r="31.5"/><circle class="cls-3" cx="564.5" cy="571.5" r="31.5"/><circle class="cls-3" cx="1547.5" cy="571.5" r="31.5"/><rect class="cls-4" x="181" y="85" width="521" height="307"/><path class="cls-2" d="M294,68H164V425.68a23.59,23.59,0,0,0,16.14,22.46,153.63,153.63,0,0,0,98.14-.14A23,23,0,0,0,294,426.12Z"/><path class="cls-2" d="M718,68H588V425a24.63,24.63,0,0,0,17.19,23.45Q653.81,464,702.42,448A22.81,22.81,0,0,0,718,426.27Z"/><rect class="cls-4" x="1235" y="80" width="521" height="307"/><rect class="cls-3" x="1203" y="40" width="587" height="23" rx="11.5" ry="11.5"/><path class="cls-2" d="M1348,63H1218V423.3a23.93,23.93,0,0,0,13,21.36c32.2,16.34,66.49,14.41,102.3-.73A24.06,24.06,0,0,0,1348,421.81Z"/><path class="cls-2" d="M1772,63H1642V420.73a29.45,29.45,0,0,0,16.63,26.61q40,19.16,97.55-3.48A25,25,0,0,0,1772,420.52Z"/><rect class="cls-3" x="148" y="45" width="587" height="23" rx="11.5" ry="11.5"/><path class="cls-5" d="M391.3,517v0Z"/><path class="cls-5" d="M1495.5,517v0Z"/></svg>
