<svg xmlns="http://www.w3.org/2000/svg" width="1086.83" height="416.54" viewBox="0 0 1086.83 416.54"><defs><style>.cls-1{fill:#2a303b;}.cls-2{fill:#fd9128;}.cls-3{fill:#fff;}</style></defs><title>gameover_text</title><g id="Game_over" data-name="Game over"><rect class="cls-1" width="1086.83" height="416.54" rx="53.1" ry="53.1"/><rect class="cls-2" x="83.51" y="376.92" width="324.4" height="3.62" rx="1.81" ry="1.81"/><path class="cls-3" d="M94.31,32.16v32H87.5v-32Z"/><path class="cls-3" d="M120.06,48.39V64.18h-6.4V48.39h-2.41v-5h2.41V38.21c0-2.16,0-4,1.68-6.15s4.72-3.45,9.07-3.45c2.89,0,7.08.57,9.18,3.45a9.21,9.21,0,0,1,1.57,6.15V39.6h-6.39V38.35a4.81,4.81,0,0,0-.69-2.88,5,5,0,0,0-7.29,0,5.23,5.23,0,0,0-.73,2.88v5h5.87v5Zm15.1-5V64.18h-6.39V43.39Z"/><path class="cls-3" d="M147.64,29.18V51l8.5-7.59h8.28l-10.64,9.12,11.48,11.67h-8.49l-8.45-8.88-.68.57v8.31h-6.4v-35Z"/><path class="cls-3" d="M184.51,43.39l6,11.72,6-11.72h7.14L192.16,64.18h-3.35L177.37,43.39Z"/><path class="cls-3" d="M209.94,31.1a3.7,3.7,0,0,1,3.83,3.51,3.85,3.85,0,0,1-7.66,0A3.7,3.7,0,0,1,209.94,31.1Zm3.2,12.29V64.18h-6.4V43.39Z"/><path class="cls-3" d="M231.6,48.34A5.61,5.61,0,0,0,227.87,47c-1.52,0-2.46.67-2.46,1.68,0,.52.26,1.34,2,1.87l1.52.43c1.79.53,4.46,1.34,5.77,3a5.67,5.67,0,0,1,1.16,3.45,6.66,6.66,0,0,1-2.52,5.28,10.07,10.07,0,0,1-6.82,2.21,11.92,11.92,0,0,1-8.81-3.46l3.36-3.55a7.23,7.23,0,0,0,5,2.4c1.78,0,3.15-.81,3.15-2.25s-1.16-1.83-2-2.12l-1.47-.48A12.52,12.52,0,0,1,221,52.9a5.35,5.35,0,0,1-1.73-4,6,6,0,0,1,2.36-4.7,10,10,0,0,1,5.92-1.49,12,12,0,0,1,7.24,2.21Z"/><path class="cls-3" d="M246.8,48.39V64.18h-6.4V48.39h-2.51v-5h2.51v-7.1h6.4v7.1h4.41v5Z"/><path class="cls-3" d="M270,31.1a3.7,3.7,0,0,1,3.83,3.51,3.85,3.85,0,0,1-7.66,0A3.7,3.7,0,0,1,270,31.1Zm3.2,12.29V64.18h-6.4V43.39Z"/><path class="cls-3" d="M285.66,29.18V51l8.49-7.59h8.29l-10.65,9.12,11.49,11.67h-8.5l-8.44-8.88-.68.57v8.31h-6.4v-35Z"/><path class="cls-3" d="M312.5,29.18V51l8.5-7.59h8.29l-10.65,9.12,11.49,11.67h-8.5l-8.44-8.88-.69.57v8.31h-6.39v-35Z"/><path class="cls-3" d="M354.67,58.37c-.69,1.54-3.25,6.48-11.17,6.48a12.55,12.55,0,0,1-8.71-2.93,10,10,0,0,1-3.57-8.11,10.61,10.61,0,0,1,3.47-8.16,12.27,12.27,0,0,1,8.54-2.93c4.62,0,7.29,1.68,8.87,3.41a11.69,11.69,0,0,1,2.72,8.16v.48h-17a5.77,5.77,0,0,0,1.1,3.5,5.59,5.59,0,0,0,4.57,2,6,6,0,0,0,5.29-2.73ZM348.79,51A5.55,5.55,0,0,0,338,51Z"/><path class="cls-3" d="M372,29.18h6.4v16.9a8.54,8.54,0,0,1,7-3.36c2,0,4.93.53,6.72,2.55a8.22,8.22,0,0,1,1.78,5.85V64.18h-6.4V52.85c0-1.15-.05-3-1.2-4.08a4.35,4.35,0,0,0-3-1.06,4.51,4.51,0,0,0-3.94,1.83,6.67,6.67,0,0,0-1,4V64.18H372Z"/><path class="cls-3" d="M421.68,58.37c-.68,1.54-3.25,6.48-11.17,6.48a12.5,12.5,0,0,1-8.7-2.93,10,10,0,0,1-3.57-8.11,10.64,10.64,0,0,1,3.46-8.16,12.3,12.3,0,0,1,8.55-2.93c4.61,0,7.29,1.68,8.86,3.41a11.66,11.66,0,0,1,2.73,8.16v.48h-17a5.7,5.7,0,0,0,1.1,3.5,5.56,5.56,0,0,0,4.56,2,6,6,0,0,0,5.3-2.73ZM415.81,51a5.55,5.55,0,0,0-10.75,0Z"/><path class="cls-3" d="M433.16,29.18v35h-6.39v-35Z"/><path class="cls-3" d="M445.64,48.39V64.18h-6.39V48.39h-2.52v-5h2.52v-7.1h6.39v7.1h4.41v5Z"/><path class="cls-3" d="M478,48.34A5.58,5.58,0,0,0,474.27,47c-1.52,0-2.46.67-2.46,1.68,0,.52.26,1.34,2,1.87l1.53.43c1.78.53,4.45,1.34,5.76,3a5.61,5.61,0,0,1,1.16,3.45,6.63,6.63,0,0,1-2.52,5.28A10.06,10.06,0,0,1,473,64.85a11.92,11.92,0,0,1-8.81-3.46l3.36-3.55a7.25,7.25,0,0,0,5,2.4c1.79,0,3.15-.81,3.15-2.25s-1.15-1.83-2-2.12l-1.47-.48a12.52,12.52,0,0,1-4.88-2.49,5.35,5.35,0,0,1-1.73-4,6,6,0,0,1,2.36-4.7,10,10,0,0,1,5.93-1.49,12,12,0,0,1,7.23,2.21Z"/><path class="cls-3" d="M486.81,43.39h6.39v2.69a8.58,8.58,0,0,1,7-3.36c2,0,4.93.53,6.71,2.55a8.18,8.18,0,0,1,1.79,5.85V64.18h-6.4V52.85c0-1.15-.05-3-1.21-4.08a4.33,4.33,0,0,0-3-1.06,4.49,4.49,0,0,0-3.93,1.83,6.68,6.68,0,0,0-1,4V64.18h-6.39Z"/><path class="cls-3" d="M532.22,43.39h6.4V64.18h-6.4V61.49a8.42,8.42,0,0,1-7,3.36c-7,0-11.59-5-11.59-11.09a10.84,10.84,0,0,1,11.28-11,8.54,8.54,0,0,1,7.29,3.36Zm-12,10.37a6.31,6.31,0,0,0,12.59,0c0-3.31-2.62-5.85-6.3-5.85S520.26,50.45,520.26,53.76Z"/><path class="cls-3" d="M551.1,29.18V51l8.49-7.59h8.29l-10.65,9.12,11.49,11.67h-8.5l-8.44-8.88-.68.57v8.31h-6.4v-35Z"/><path class="cls-3" d="M577.94,29.18V51l8.5-7.59h8.29l-10.65,9.12,11.49,11.67h-8.5l-8.44-8.88-.69.57v8.31h-6.39v-35Z"/><path class="cls-3" d="M620.11,58.37c-.69,1.54-3.26,6.48-11.17,6.48a12.51,12.51,0,0,1-8.71-2.93,10,10,0,0,1-3.57-8.11,10.61,10.61,0,0,1,3.47-8.16,12.27,12.27,0,0,1,8.54-2.93c4.62,0,7.29,1.68,8.87,3.41a11.69,11.69,0,0,1,2.72,8.16v.48h-17a5.77,5.77,0,0,0,1.1,3.5,5.57,5.57,0,0,0,4.57,2,6,6,0,0,0,5.29-2.73ZM614.23,51a5.55,5.55,0,0,0-10.75,0Z"/><path class="cls-3" d="M631.59,48.39V64.18h-6.4V48.39h-2.52v-5h2.52v-7.1h6.4v7.1H636v5Z"/><path class="cls-3" d="M658,43.39V55.15a4.42,4.42,0,0,0,1.37,3.65,5.51,5.51,0,0,0,6.5,0,4.41,4.41,0,0,0,1.36-3.65V43.39h6.4V56.11a7.51,7.51,0,0,1-2.78,6.39c-2.1,1.68-5.45,2.35-8.23,2.35s-6.14-.67-8.24-2.35a7.52,7.52,0,0,1-2.77-6.39V43.39Z"/><path class="cls-3" d="M697.08,29.18h6.4v35h-6.4V61.49a8.4,8.4,0,0,1-7,3.36c-7,0-11.59-5-11.59-11.09a10.83,10.83,0,0,1,11.27-11,8.54,8.54,0,0,1,7.29,3.36Zm-12,24.58a6.3,6.3,0,0,0,12.58,0c0-3.31-2.62-5.85-6.29-5.85S685.13,50.45,685.13,53.76Z"/><path class="cls-3" d="M713.13,57.31A3.76,3.76,0,1,1,709,61.06,3.87,3.87,0,0,1,713.13,57.31Z"/><path class="cls-3" d="M726.34,57.31a3.76,3.76,0,1,1-4.09,3.75A3.87,3.87,0,0,1,726.34,57.31Z"/><path class="cls-3" d="M739.56,57.31a3.76,3.76,0,1,1-4.09,3.75A3.87,3.87,0,0,1,739.56,57.31Z"/><path class="cls-3" d="M91.7,116.17c3,0,5.71.3,8.13,2a9.61,9.61,0,0,1,4.2,8.07,9.31,9.31,0,0,1-4.39,8.07c-2.56,1.65-5,1.92-8,1.92H86v-20Zm-1.44,16.65h1.31a9.86,9.86,0,0,0,5.35-1.32,6.33,6.33,0,0,0,2.72-5.31A6.48,6.48,0,0,0,97,120.85a9.56,9.56,0,0,0-5.38-1.32H90.26Z"/><path class="cls-3" d="M121.3,132.55c-.43,1-2,4-7,4a7.82,7.82,0,0,1-5.44-1.83,6.25,6.25,0,0,1-2.23-5.07,6.66,6.66,0,0,1,2.16-5.1,7.68,7.68,0,0,1,5.34-1.83,7.06,7.06,0,0,1,5.54,2.13,7.31,7.31,0,0,1,1.71,5.1v.3H110.78a3.59,3.59,0,0,0,.69,2.19,3.48,3.48,0,0,0,2.85,1.23,3.74,3.74,0,0,0,3.31-1.71ZM117.63,128a3.47,3.47,0,0,0-6.72,0Z"/><path class="cls-3" d="M128.48,126.31v9.87h-4v-9.87H122.9v-3.12h1.58v-4.44h4v4.44h2.75v3.12Z"/><path class="cls-3" d="M145,114.31v13.62l5.31-4.74h5.18l-6.65,5.7,7.17,7.29h-5.31l-5.27-5.55L145,131v5.19h-4V114.31Z"/><path class="cls-3" d="M168.62,123.19h4v13h-4V134.5a5.26,5.26,0,0,1-4.36,2.1,6.89,6.89,0,0,1-7.24-6.93,6.77,6.77,0,0,1,7-6.9,5.32,5.32,0,0,1,4.55,2.1Zm-7.47,6.48a3.95,3.95,0,1,0,3.93-3.66A3.72,3.72,0,0,0,161.15,129.67Z"/><path class="cls-3" d="M176.42,123.19h4v1.68a5.34,5.34,0,0,1,4.39-2.1,5.71,5.71,0,0,1,4.2,1.59,5.15,5.15,0,0,1,1.11,3.66v8.16h-4V129.1a3.49,3.49,0,0,0-.75-2.55,2.69,2.69,0,0,0-1.87-.66A2.81,2.81,0,0,0,181,127a4.16,4.16,0,0,0-.62,2.52v6.63h-4Z"/><path class="cls-3" d="M204.18,123.19l3.74,7.32,3.73-7.32h4.46l-7.14,13h-2.1l-7.15-13Z"/><path class="cls-3" d="M241.05,132.55c-1.73,3.93-5.93,4-7,4-3.18,0-4.72-1.38-5.5-2.46a7.15,7.15,0,0,1-5.71,2.46c-3.93,0-5.83-2-5.83-4.2a3.74,3.74,0,0,1,1.44-3,7,7,0,0,1,4.56-1.35,7.83,7.83,0,0,1,3.67.9l0-.63a2.39,2.39,0,0,0-1.21-2.13,5.51,5.51,0,0,0-2.66-.54,15.34,15.34,0,0,0-3.64.51v-2.91a17.81,17.81,0,0,1,3.94-.48c1.7,0,4,.15,5.41,2.19a6.59,6.59,0,0,1,5.37-2.19,7.11,7.11,0,0,1,5.51,2.13,7.29,7.29,0,0,1,1.7,5.1v.3H230.53a3.29,3.29,0,0,0,.69,2.19,3.44,3.44,0,0,0,2.85,1.23,3.72,3.72,0,0,0,3.31-1.71ZM223.68,134c2.23,0,3-1.11,3-1.83s-.66-1.56-3-1.56c-2.13,0-2.75.93-2.75,1.62S221.58,134,223.68,134Zm13.7-6.06a3.47,3.47,0,0,0-6.72,0Z"/><path class="cls-3" d="M244.23,123.19h4v2a4.59,4.59,0,0,1,1.77-1.8,4.65,4.65,0,0,1,2.36-.57,5.24,5.24,0,0,1,1.7.3l-.52,3.42a3.23,3.23,0,0,0-1.87-.48,3.41,3.41,0,0,0-2.65,1,4.14,4.14,0,0,0-.79,2.88v6.24h-4Z"/><path class="cls-3" d="M269.27,132.55c-.43,1-2,4-7,4a7.82,7.82,0,0,1-5.44-1.83,6.28,6.28,0,0,1-2.23-5.07,6.66,6.66,0,0,1,2.16-5.1,7.69,7.69,0,0,1,5.35-1.83,7,7,0,0,1,5.53,2.13,7.31,7.31,0,0,1,1.71,5.1v.3H258.75a3.59,3.59,0,0,0,.69,2.19,3.48,3.48,0,0,0,2.85,1.23A3.74,3.74,0,0,0,265.6,132ZM265.6,128a3.47,3.47,0,0,0-6.72,0Z"/><path class="cls-3" d="M287.82,126.28a3.5,3.5,0,0,0-2.33-.87c-.95,0-1.54.42-1.54,1,0,.33.17.84,1.28,1.17l.95.27c1.11.33,2.79.84,3.61,1.86a3.59,3.59,0,0,1,.72,2.16,4.15,4.15,0,0,1-1.58,3.3,6.28,6.28,0,0,1-4.26,1.38,7.44,7.44,0,0,1-5.5-2.16l2.09-2.22a4.56,4.56,0,0,0,3.15,1.5c1.11,0,2-.51,2-1.41s-.72-1.14-1.25-1.32l-.92-.3a7.87,7.87,0,0,1-3-1.56,3.33,3.33,0,0,1-1.09-2.49,3.74,3.74,0,0,1,1.48-2.94,6.26,6.26,0,0,1,3.7-.93,7.57,7.57,0,0,1,4.53,1.38Z"/><path class="cls-3" d="M295.29,123.19l3.74,7.32,3.73-7.32h4.46l-7.14,13H298l-7.15-13Z"/><path class="cls-3" d="M332.16,132.55c-1.73,3.93-5.93,4-7,4-3.18,0-4.72-1.38-5.51-2.46a7.12,7.12,0,0,1-5.7,2.46c-3.93,0-5.83-2-5.83-4.2a3.74,3.74,0,0,1,1.44-3,7,7,0,0,1,4.56-1.35,7.83,7.83,0,0,1,3.67.9l0-.63a2.39,2.39,0,0,0-1.21-2.13,5.53,5.53,0,0,0-2.66-.54,15.28,15.28,0,0,0-3.64.51v-2.91a17.81,17.81,0,0,1,3.94-.48c1.7,0,4,.15,5.4,2.19a6.63,6.63,0,0,1,5.38-2.19,7.11,7.11,0,0,1,5.51,2.13,7.34,7.34,0,0,1,1.7,5.1v.3H321.64a3.29,3.29,0,0,0,.69,2.19,3.44,3.44,0,0,0,2.85,1.23,3.72,3.72,0,0,0,3.31-1.71ZM314.79,134c2.23,0,3-1.11,3-1.83s-.66-1.56-3.05-1.56c-2.13,0-2.75.93-2.75,1.62S312.69,134,314.79,134Zm13.7-6.06a3.47,3.47,0,0,0-6.72,0Z"/><path class="cls-3" d="M335.34,123.19h4v2a4.52,4.52,0,0,1,1.77-1.8,4.65,4.65,0,0,1,2.36-.57,5.29,5.29,0,0,1,1.7.3l-.52,3.42a3.23,3.23,0,0,0-1.87-.48,3.41,3.41,0,0,0-2.65,1,4.14,4.14,0,0,0-.79,2.88v6.24h-4Z"/><path class="cls-3" d="M352.15,126.31v9.87h-4v-9.87h-1.57v-3.12h1.57v-4.44h4v4.44h2.76v3.12Z"/><path class="cls-3" d="M368.7,126.31v9.87h-4v-9.87h-1.5v-3.12h1.5v-3.57a5.4,5.4,0,0,1,1.87-4.59,5.63,5.63,0,0,1,3.51-1.08,5.51,5.51,0,0,1,2.29.45v3.33a2.92,2.92,0,0,0-1.8-.54,1.63,1.63,0,0,0-1.44.66,4,4,0,0,0-.43,2.25v3.09h3.67v3.12Z"/><path class="cls-3" d="M387.35,124.6a6.6,6.6,0,0,1,0,10.17,9.9,9.9,0,0,1-11.47,0,6.6,6.6,0,0,1,0-10.17,9.9,9.9,0,0,1,11.47,0Zm-1.74,5.1a4,4,0,1,0-4,3.66A3.79,3.79,0,0,0,385.61,129.7Z"/><path class="cls-3" d="M392.82,123.19h4v2a4.59,4.59,0,0,1,1.77-1.8,4.65,4.65,0,0,1,2.36-.57,5.35,5.35,0,0,1,1.71.3l-.53,3.42a3.21,3.21,0,0,0-1.87-.48,3.41,3.41,0,0,0-2.65,1,4.14,4.14,0,0,0-.79,2.88v6.24h-4Z"/><path class="cls-3" d="M416.25,124.87a5.72,5.72,0,0,1,4.63-2.1,6.67,6.67,0,0,1,7,6.9,6.76,6.76,0,0,1-7.08,6.93,5.59,5.59,0,0,1-4.53-2.1v1.68h-4V114.31h4Zm-.39,4.8A3.95,3.95,0,1,0,419.8,126,3.73,3.73,0,0,0,415.86,129.67Z"/><path class="cls-3" d="M441.82,123.19h4v13h-4V134.5a5.26,5.26,0,0,1-4.36,2.1,6.88,6.88,0,0,1-7.24-6.93,6.77,6.77,0,0,1,7-6.9,5.34,5.34,0,0,1,4.56,2.1Zm-7.47,6.48a3.94,3.94,0,1,0,3.93-3.66A3.72,3.72,0,0,0,434.35,129.67Zm4-14.31a2.83,2.83,0,1,1-3.08,2.82A3,3,0,0,1,438.31,115.36Zm0,4a1.17,1.17,0,1,0-1.28-1.17A1.17,1.17,0,0,0,438.31,119.35Z"/><path class="cls-3" d="M460.5,114.31h4v21.87h-4V134.5a5.26,5.26,0,0,1-4.36,2.1,6.88,6.88,0,0,1-7.24-6.93,6.77,6.77,0,0,1,7-6.9,5.32,5.32,0,0,1,4.56,2.1ZM453,129.67A3.94,3.94,0,1,0,457,126,3.72,3.72,0,0,0,453,129.67Z"/><path class="cls-3" d="M482.23,132.55c-.43,1-2,4-7,4a7.82,7.82,0,0,1-5.44-1.83,6.25,6.25,0,0,1-2.23-5.07,6.62,6.62,0,0,1,2.16-5.1,7.68,7.68,0,0,1,5.34-1.83,7.06,7.06,0,0,1,5.54,2.13,7.31,7.31,0,0,1,1.71,5.1v.3H471.71a3.59,3.59,0,0,0,.69,2.19,3.48,3.48,0,0,0,2.85,1.23,3.75,3.75,0,0,0,3.31-1.71ZM478.56,128a3.47,3.47,0,0,0-6.72,0Z"/><path class="cls-3" d="M497,124.87a5.72,5.72,0,0,1,4.62-2.1,6.66,6.66,0,0,1,7,6.9,6.75,6.75,0,0,1-7.08,6.93,5.57,5.57,0,0,1-4.52-2.1v1.68h-4V114.31h4Zm-.39,4.8a3.94,3.94,0,1,0,3.93-3.66A3.72,3.72,0,0,0,496.65,129.67Z"/><path class="cls-3" d="M512.74,134a6.61,6.61,0,0,1,.79-9.42,8.66,8.66,0,0,1,5.73-1.83,9,9,0,0,1,4.59,1.08l2.23-2,1.83,1.53-2.16,2a6.68,6.68,0,0,1,1.64,4.38,6.57,6.57,0,0,1-2.39,5.07,8.65,8.65,0,0,1-5.74,1.83,8.77,8.77,0,0,1-4.65-1.11l-2.17,2-1.83-1.5Zm8.32-7.62a3.69,3.69,0,0,0-1.7-.39,4.38,4.38,0,0,0-3,1.08,3.6,3.6,0,0,0-.72,4.26Zm-3.67,6.54a4.21,4.21,0,0,0,1.9.42,3.83,3.83,0,0,0,2.85-1.08,3.49,3.49,0,0,0,1.12-2.64,2.76,2.76,0,0,0-.46-1.65Z"/><path class="cls-3" d="M530.6,123.19h4v2a4.52,4.52,0,0,1,1.77-1.8,4.65,4.65,0,0,1,2.36-.57,5.29,5.29,0,0,1,1.7.3l-.52,3.42A3.23,3.23,0,0,0,538,126a3.41,3.41,0,0,0-2.65,1,4.14,4.14,0,0,0-.79,2.88v6.24h-4Z"/><path class="cls-3" d="M542.4,123.19h4v1.68a5.33,5.33,0,0,1,4.39-2.1,5.68,5.68,0,0,1,4.19,1.59A5.11,5.11,0,0,1,556.1,128v8.16h-4V129.1a3.49,3.49,0,0,0-.75-2.55,2.72,2.72,0,0,0-1.87-.66A2.81,2.81,0,0,0,547,127a4.16,4.16,0,0,0-.62,2.52v6.63h-4Z"/><path class="cls-3" d="M561.6,132l3.67.39-4.62,7.95-2.52-.27Z"/><path class="cls-3" d="M582.28,123.19v7.35a2.79,2.79,0,0,0,.85,2.28,3.47,3.47,0,0,0,4.07,0,2.76,2.76,0,0,0,.85-2.28v-7.35h4v7.95a4.68,4.68,0,0,1-1.74,4,9.74,9.74,0,0,1-10.29,0,4.7,4.7,0,0,1-1.74-4v-7.95Z"/><path class="cls-3" d="M595.85,123.19h4v1.68a5.34,5.34,0,0,1,4.39-2.1,5.71,5.71,0,0,1,4.2,1.59,5.15,5.15,0,0,1,1.11,3.66v8.16h-4V129.1a3.49,3.49,0,0,0-.75-2.55,2.71,2.71,0,0,0-1.87-.66,2.81,2.81,0,0,0-2.46,1.14,4.16,4.16,0,0,0-.62,2.52v6.63h-4Z"/><path class="cls-3" d="M624.17,123.19h4v12.39c0,2-.2,4-2,5.67a7.94,7.94,0,0,1-5.61,1.83,8.15,8.15,0,0,1-5.3-1.5,7,7,0,0,1-2.3-3.87h4.33a3,3,0,0,0,1,1.56,3.78,3.78,0,0,0,2.43.69,3.54,3.54,0,0,0,2.42-.81,3.46,3.46,0,0,0,1-2.88v-1.83a5.14,5.14,0,0,1-4.36,2.16,7.08,7.08,0,0,1-4.92-1.77,7.09,7.09,0,0,1-.06-10.32,7.29,7.29,0,0,1,4.88-1.74,5.12,5.12,0,0,1,4.46,2.1ZM618,126.91a3.62,3.62,0,0,0-.23,5.31,4.05,4.05,0,0,0,2.88,1.14,4.25,4.25,0,0,0,2.66-.9,3.68,3.68,0,0,0,1.28-2.79,3.54,3.54,0,0,0-1.15-2.61,3.83,3.83,0,0,0-2.79-1A4,4,0,0,0,618,126.91Z"/><path class="cls-3" d="M645.9,132.55c-.43,1-2,4-7,4a7.85,7.85,0,0,1-5.45-1.83,6.28,6.28,0,0,1-2.22-5.07,6.62,6.62,0,0,1,2.16-5.1,7.68,7.68,0,0,1,5.34-1.83,7.06,7.06,0,0,1,5.54,2.13A7.29,7.29,0,0,1,646,130v.3H635.38a3.59,3.59,0,0,0,.68,2.19,3.5,3.5,0,0,0,2.86,1.23,3.75,3.75,0,0,0,3.31-1.71ZM642.23,128a3.47,3.47,0,0,0-6.72,0Z"/><path class="cls-3" d="M669.85,124.6a6.59,6.59,0,0,1,0,10.17,9.9,9.9,0,0,1-11.47,0,6.6,6.6,0,0,1,0-10.17,9.9,9.9,0,0,1,11.47,0Zm-1.73,5.1a4,4,0,1,0-4,3.66A3.8,3.8,0,0,0,668.12,129.7Z"/><path class="cls-3" d="M686.14,123.19h4v12.39c0,2-.2,4-2,5.67a7.92,7.92,0,0,1-5.6,1.83,8.2,8.2,0,0,1-5.31-1.5,7,7,0,0,1-2.3-3.87h4.33a3.17,3.17,0,0,0,1,1.56,3.78,3.78,0,0,0,2.43.69,3.57,3.57,0,0,0,2.43-.81,3.48,3.48,0,0,0,1-2.88v-1.83a5.14,5.14,0,0,1-4.36,2.16,7,7,0,0,1-4.91-1.77,7.07,7.07,0,0,1-.07-10.32,7.31,7.31,0,0,1,4.88-1.74,5.11,5.11,0,0,1,4.46,2.1ZM680,126.91a3.62,3.62,0,0,0-.23,5.31,4.08,4.08,0,0,0,2.89,1.14,4.24,4.24,0,0,0,2.65-.9,3.68,3.68,0,0,0,1.28-2.79,3.54,3.54,0,0,0-1.15-2.61,3.8,3.8,0,0,0-2.78-1A4.06,4.06,0,0,0,680,126.91Z"/><path class="cls-3" d="M704.2,123.19l3.73,7.32,3.74-7.32h4.46l-7.15,13h-2.09l-7.15-13Z"/><path class="cls-3" d="M730.58,124.6a6.6,6.6,0,0,1,0,10.17,9.9,9.9,0,0,1-11.47,0,6.6,6.6,0,0,1,0-10.17,9.9,9.9,0,0,1,11.47,0Zm-1.74,5.1a4,4,0,1,0-4,3.66A3.79,3.79,0,0,0,728.84,129.7Z"/><path class="cls-3" d="M740.05,114.31v13.62l5.31-4.74h5.18l-6.65,5.7,7.17,7.29h-5.31l-5.27-5.55-.43.36v5.19h-4V114.31Z"/><path class="cls-3" d="M759.88,126.28a3.5,3.5,0,0,0-2.33-.87c-.95,0-1.54.42-1.54,1,0,.33.17.84,1.28,1.17l1,.27a7.46,7.46,0,0,1,3.61,1.86,3.59,3.59,0,0,1,.72,2.16,4.15,4.15,0,0,1-1.58,3.3,6.28,6.28,0,0,1-4.26,1.38,7.44,7.44,0,0,1-5.5-2.16l2.1-2.22a4.51,4.51,0,0,0,3.14,1.5c1.12,0,2-.51,2-1.41s-.72-1.14-1.25-1.32l-.91-.3a7.84,7.84,0,0,1-3-1.56,3.32,3.32,0,0,1-1.08-2.49,3.73,3.73,0,0,1,1.47-2.94,6.26,6.26,0,0,1,3.7-.93,7.57,7.57,0,0,1,4.53,1.38Z"/><path class="cls-3" d="M765.39,123.19h4v1.68a5.36,5.36,0,0,1,4.4-2.1,5.68,5.68,0,0,1,4.19,1.59,5.11,5.11,0,0,1,1.12,3.66v8.16h-4V129.1a3.5,3.5,0,0,0-.76-2.55,2.69,2.69,0,0,0-1.87-.66A2.81,2.81,0,0,0,770,127a4.17,4.17,0,0,0-.63,2.52v6.63h-4Z"/><path class="cls-3" d="M796.82,132.55c-.43,1-2,4-7,4a7.85,7.85,0,0,1-5.45-1.83,6.28,6.28,0,0,1-2.22-5.07,6.62,6.62,0,0,1,2.16-5.1,7.68,7.68,0,0,1,5.34-1.83,7.06,7.06,0,0,1,5.54,2.13,7.29,7.29,0,0,1,1.7,5.1v.3H786.3a3.59,3.59,0,0,0,.68,2.19,3.5,3.5,0,0,0,2.86,1.23,3.75,3.75,0,0,0,3.31-1.71ZM793.15,128a3.47,3.47,0,0,0-6.72,0Z"/><path class="cls-3" d="M818.51,123.19h4v13h-4V134.5a5.26,5.26,0,0,1-4.36,2.1,6.88,6.88,0,0,1-7.24-6.93,6.77,6.77,0,0,1,7.05-6.9,5.32,5.32,0,0,1,4.55,2.1ZM811,129.67A3.94,3.94,0,1,0,815,126,3.72,3.72,0,0,0,811,129.67Z"/><path class="cls-3" d="M830.31,126.31v9.87h-4v-9.87h-1.57v-3.12h1.57v-4.44h4v4.44h2.75v3.12Z"/><path class="cls-3" d="M850.53,126.28a3.5,3.5,0,0,0-2.33-.87c-1,0-1.54.42-1.54,1,0,.33.17.84,1.28,1.17l.95.27c1.11.33,2.79.84,3.61,1.86a3.59,3.59,0,0,1,.72,2.16,4.15,4.15,0,0,1-1.58,3.3,6.28,6.28,0,0,1-4.26,1.38,7.44,7.44,0,0,1-5.5-2.16l2.09-2.22a4.56,4.56,0,0,0,3.15,1.5c1.12,0,2-.51,2-1.41s-.72-1.14-1.25-1.32l-.92-.3a7.87,7.87,0,0,1-3-1.56,3.32,3.32,0,0,1-1.08-2.49,3.73,3.73,0,0,1,1.47-2.94,6.26,6.26,0,0,1,3.7-.93,7.57,7.57,0,0,1,4.53,1.38Z"/><path class="cls-3" d="M856,123.19h4v1.68a5.36,5.36,0,0,1,4.4-2.1,5.68,5.68,0,0,1,4.19,1.59,5.16,5.16,0,0,1,1.12,3.66v8.16h-4V129.1a3.5,3.5,0,0,0-.76-2.55,2.69,2.69,0,0,0-1.87-.66,2.81,2.81,0,0,0-2.45,1.14,4.17,4.17,0,0,0-.63,2.52v6.63h-4Z"/><path class="cls-3" d="M884.42,123.19h4v13h-4V134.5a5.27,5.27,0,0,1-4.36,2.1,6.89,6.89,0,0,1-7.25-6.93,6.78,6.78,0,0,1,7.05-6.9,5.34,5.34,0,0,1,4.56,2.1Zm-7.48,6.48a3.95,3.95,0,1,0,3.94-3.66A3.73,3.73,0,0,0,876.94,129.67Z"/><path class="cls-3" d="M896.21,114.31v13.62l5.31-4.74h5.18l-6.65,5.7,7.18,7.29h-5.31l-5.28-5.55-.43.36v5.19h-4V114.31Z"/><path class="cls-3" d="M913,114.31v13.62l5.3-4.74h5.18l-6.65,5.7,7.18,7.29H918.7l-5.28-5.55L913,131v5.19h-4V114.31Z"/><path class="cls-3" d="M939.35,132.55c-.43,1-2,4-7,4a7.82,7.82,0,0,1-5.44-1.83,6.25,6.25,0,0,1-2.23-5.07,6.62,6.62,0,0,1,2.16-5.1,7.68,7.68,0,0,1,5.34-1.83,7.06,7.06,0,0,1,5.54,2.13,7.31,7.31,0,0,1,1.71,5.1v.3H928.83a3.65,3.65,0,0,0,.68,2.19,3.51,3.51,0,0,0,2.86,1.23,3.75,3.75,0,0,0,3.31-1.71ZM935.68,128a3.47,3.47,0,0,0-6.72,0Z"/><path class="cls-3" d="M963.3,124.6a6.59,6.59,0,0,1,0,10.17,9.9,9.9,0,0,1-11.47,0,6.6,6.6,0,0,1,0-10.17,9.9,9.9,0,0,1,11.47,0Zm-1.73,5.1a4,4,0,1,0-4,3.66A3.8,3.8,0,0,0,961.57,129.7Z"/><path class="cls-3" d="M968.78,123.19h4v1.47a5.45,5.45,0,0,1,4.23-1.89,4.72,4.72,0,0,1,4.49,2.37,5.32,5.32,0,0,1,4.56-2.37,4.63,4.63,0,0,1,3.83,1.59,5.1,5.1,0,0,1,1,3.66v8.16h-4V129.1a3.67,3.67,0,0,0-.66-2.55,2.09,2.09,0,0,0-1.64-.66,2.38,2.38,0,0,0-2.19,1.14,4.54,4.54,0,0,0-.56,2.52v6.63h-4V129.1a3.74,3.74,0,0,0-.65-2.55,2.12,2.12,0,0,0-1.64-.66,2.4,2.4,0,0,0-2.2,1.14,4.63,4.63,0,0,0-.56,2.52v6.63h-4Z"/><path class="cls-3" d="M89.47,162.31v9.87h-4v-9.87H84v-3.12h1.51v-3.57A5.39,5.39,0,0,1,87.34,151,5.67,5.67,0,0,1,90.85,150a5.55,5.55,0,0,1,2.3.45v3.33a3,3,0,0,0-1.81-.54,1.63,1.63,0,0,0-1.44.66,4,4,0,0,0-.43,2.25v3.09h3.68v3.12Z"/><path class="cls-3" d="M96,170a6.62,6.62,0,0,1,.78-9.42,8.71,8.71,0,0,1,5.74-1.83,9,9,0,0,1,4.59,1.08l2.23-2,1.83,1.53-2.16,2a6.68,6.68,0,0,1,1.64,4.38,6.58,6.58,0,0,1-2.4,5.07,8.6,8.6,0,0,1-5.73,1.83,8.84,8.84,0,0,1-4.66-1.11l-2.16,2L93.87,172Zm8.32-7.62a3.72,3.72,0,0,0-1.7-.39,4.43,4.43,0,0,0-3,1.08,3.74,3.74,0,0,0-1.11,2.64,3.86,3.86,0,0,0,.39,1.62Zm-3.67,6.54a4.16,4.16,0,0,0,1.9.42,3.85,3.85,0,0,0,2.85-1.08,3.49,3.49,0,0,0,1.12-2.64,2.76,2.76,0,0,0-.46-1.65Z"/><path class="cls-3" d="M117.86,150.31v21.87h-4V150.31Z"/><path class="cls-3" d="M129.39,162.28a3.5,3.5,0,0,0-2.32-.87c-.95,0-1.54.42-1.54,1.05,0,.33.16.84,1.27,1.17l1,.27a7.46,7.46,0,0,1,3.61,1.86,3.52,3.52,0,0,1,.72,2.16,4.17,4.17,0,0,1-1.57,3.3,6.32,6.32,0,0,1-4.26,1.38,7.48,7.48,0,0,1-5.51-2.16l2.1-2.22a4.51,4.51,0,0,0,3.14,1.5c1.12,0,2-.51,2-1.41s-.72-1.14-1.24-1.32l-.92-.3a7.84,7.84,0,0,1-3.05-1.56,3.32,3.32,0,0,1-1.08-2.49,3.73,3.73,0,0,1,1.47-2.94,6.29,6.29,0,0,1,3.71-.93,7.54,7.54,0,0,1,4.52,1.38Z"/><path class="cls-3" d="M148,160.6a6.6,6.6,0,0,1,0,10.17,9.9,9.9,0,0,1-11.47,0,6.6,6.6,0,0,1,0-10.17,9.9,9.9,0,0,1,11.47,0Zm-1.74,5.1a4,4,0,1,0-4,3.66A3.79,3.79,0,0,0,146.3,165.7Z"/><path class="cls-3" d="M153.51,159.19h4v1.47a5.45,5.45,0,0,1,4.23-1.89,4.74,4.74,0,0,1,4.49,2.37,5.32,5.32,0,0,1,4.56-2.37,4.66,4.66,0,0,1,3.83,1.59,5.09,5.09,0,0,1,1,3.66v8.16h-4V165.1a3.67,3.67,0,0,0-.66-2.55,2.09,2.09,0,0,0-1.64-.66,2.38,2.38,0,0,0-2.19,1.14,4.54,4.54,0,0,0-.56,2.52v6.63h-4V165.1a3.67,3.67,0,0,0-.66-2.55,2.09,2.09,0,0,0-1.63-.66,2.39,2.39,0,0,0-2.2,1.14,4.63,4.63,0,0,0-.56,2.52v6.63h-4Z"/><path class="cls-3" d="M179.41,159.19h4v1.47a5.45,5.45,0,0,1,4.23-1.89,4.74,4.74,0,0,1,4.49,2.37,5.32,5.32,0,0,1,4.56-2.37,4.64,4.64,0,0,1,3.83,1.59,5.1,5.1,0,0,1,1,3.66v8.16h-4V165.1a3.67,3.67,0,0,0-.66-2.55,2.09,2.09,0,0,0-1.64-.66A2.38,2.38,0,0,0,193,163a4.54,4.54,0,0,0-.56,2.52v6.63h-4V165.1a3.74,3.74,0,0,0-.65-2.55,2.12,2.12,0,0,0-1.64-.66A2.4,2.4,0,0,0,184,163a4.63,4.63,0,0,0-.56,2.52v6.63h-4Z"/><path class="cls-3" d="M219.23,168.55c-.43,1-2,4-7,4a7.85,7.85,0,0,1-5.45-1.83,6.28,6.28,0,0,1-2.22-5.07,6.62,6.62,0,0,1,2.16-5.1,7.68,7.68,0,0,1,5.34-1.83,7.06,7.06,0,0,1,5.54,2.13,7.29,7.29,0,0,1,1.7,5.1v.3H208.71a3.59,3.59,0,0,0,.68,2.19,3.5,3.5,0,0,0,2.86,1.23,3.75,3.75,0,0,0,3.31-1.71ZM215.56,164a3.47,3.47,0,0,0-6.72,0Z"/><path class="cls-3" d="M244,168.55c-.43,1-2,4-7,4a7.82,7.82,0,0,1-5.44-1.83,6.25,6.25,0,0,1-2.23-5.07,6.66,6.66,0,0,1,2.16-5.1,7.68,7.68,0,0,1,5.34-1.83,7.06,7.06,0,0,1,5.54,2.13,7.31,7.31,0,0,1,1.71,5.1v.3H233.45a3.59,3.59,0,0,0,.69,2.19,3.48,3.48,0,0,0,2.85,1.23A3.74,3.74,0,0,0,240.3,168ZM240.3,164a3.47,3.47,0,0,0-6.72,0Z"/><path class="cls-3" d="M247.15,159.19h4v1.47a5.42,5.42,0,0,1,4.22-1.89,4.72,4.72,0,0,1,4.49,2.37,5.32,5.32,0,0,1,4.56-2.37,4.63,4.63,0,0,1,3.83,1.59,5.1,5.1,0,0,1,1,3.66v8.16h-4V165.1a3.67,3.67,0,0,0-.66-2.55,2.09,2.09,0,0,0-1.63-.66,2.38,2.38,0,0,0-2.2,1.14,4.54,4.54,0,0,0-.56,2.52v6.63h-4V165.1a3.74,3.74,0,0,0-.65-2.55,2.12,2.12,0,0,0-1.64-.66,2.4,2.4,0,0,0-2.2,1.14,4.61,4.61,0,0,0-.55,2.52v6.63h-4Z"/><path class="cls-3" d="M273,159.19h4v1.68a5.33,5.33,0,0,1,4.39-2.1,5.72,5.72,0,0,1,4.2,1.59,5.15,5.15,0,0,1,1.11,3.66v8.16h-4V165.1a3.49,3.49,0,0,0-.75-2.55,2.72,2.72,0,0,0-1.87-.66,2.81,2.81,0,0,0-2.46,1.14,4.16,4.16,0,0,0-.62,2.52v6.63h-4Z"/><path class="cls-3" d="M304.47,168.55c-.43,1-2,4-7,4a7.82,7.82,0,0,1-5.44-1.83,6.25,6.25,0,0,1-2.23-5.07,6.66,6.66,0,0,1,2.16-5.1,7.68,7.68,0,0,1,5.34-1.83,7.06,7.06,0,0,1,5.54,2.13,7.31,7.31,0,0,1,1.71,5.1v.3H294a3.59,3.59,0,0,0,.69,2.19,3.48,3.48,0,0,0,2.85,1.23A3.74,3.74,0,0,0,300.8,168ZM300.8,164a3.47,3.47,0,0,0-6.72,0Z"/><path class="cls-3" d="M307.65,159.19h4v1.95a4.52,4.52,0,0,1,1.77-1.8,4.65,4.65,0,0,1,2.36-.57,5.34,5.34,0,0,1,1.7.3l-.52,3.42a3.23,3.23,0,0,0-1.87-.48,3.43,3.43,0,0,0-2.66,1.05,4.19,4.19,0,0,0-.78,2.88v6.24h-4Z"/><path class="cls-3" d="M334.82,162.28a3.5,3.5,0,0,0-2.33-.87c-.95,0-1.54.42-1.54,1.05,0,.33.16.84,1.28,1.17l.95.27a7.47,7.47,0,0,1,3.6,1.86,3.52,3.52,0,0,1,.72,2.16,4.14,4.14,0,0,1-1.57,3.3,6.3,6.3,0,0,1-4.26,1.38,7.48,7.48,0,0,1-5.51-2.16l2.1-2.22a4.56,4.56,0,0,0,3.15,1.5c1.11,0,2-.51,2-1.41s-.72-1.14-1.24-1.32l-.92-.3a7.84,7.84,0,0,1-3-1.56,3.36,3.36,0,0,1-1.08-2.49,3.74,3.74,0,0,1,1.48-2.94,6.24,6.24,0,0,1,3.7-.93,7.52,7.52,0,0,1,4.52,1.38Z"/><path class="cls-3" d="M353.46,160.6a6.59,6.59,0,0,1,0,10.17,9.9,9.9,0,0,1-11.47,0,6.6,6.6,0,0,1,0-10.17,9.9,9.9,0,0,1,11.47,0Zm-1.73,5.1a4,4,0,1,0-4,3.66A3.8,3.8,0,0,0,351.73,165.7Z"/><path class="cls-3" d="M358.94,159.19h4v1.47a5.45,5.45,0,0,1,4.23-1.89,4.72,4.72,0,0,1,4.49,2.37,5.32,5.32,0,0,1,4.56-2.37,4.63,4.63,0,0,1,3.83,1.59,5.1,5.1,0,0,1,1,3.66v8.16h-4V165.1a3.67,3.67,0,0,0-.66-2.55,2.09,2.09,0,0,0-1.64-.66,2.38,2.38,0,0,0-2.19,1.14,4.54,4.54,0,0,0-.56,2.52v6.63h-4V165.1a3.74,3.74,0,0,0-.65-2.55,2.12,2.12,0,0,0-1.64-.66,2.4,2.4,0,0,0-2.2,1.14,4.63,4.63,0,0,0-.56,2.52v6.63h-4Z"/><path class="cls-3" d="M396.46,160.87a5.72,5.72,0,0,1,4.62-2.1,6.66,6.66,0,0,1,7,6.9A6.75,6.75,0,0,1,401,172.6a5.58,5.58,0,0,1-4.53-2.1v1.68h-4V150.31h4Zm-.39,4.8A3.95,3.95,0,1,0,400,162,3.72,3.72,0,0,0,396.07,165.67Z"/><path class="cls-3" d="M413.14,151.51a2.2,2.2,0,1,1-2.39,2.19A2.32,2.32,0,0,1,413.14,151.51Zm2,7.68v13h-4v-13Z"/><path class="cls-3" d="M422.94,150.31v21.87h-4V150.31Z"/><path class="cls-3" d="M430.74,150.31v21.87h-4V150.31Z"/><path class="cls-3" d="M448.47,168.55c-.42,1-2,4-7,4a7.84,7.84,0,0,1-5.44-1.83,6.28,6.28,0,0,1-2.23-5.07,6.62,6.62,0,0,1,2.17-5.1,7.66,7.66,0,0,1,5.34-1.83,7.09,7.09,0,0,1,5.54,2.13,7.29,7.29,0,0,1,1.7,5.1v.3H438a3.59,3.59,0,0,0,.69,2.19,3.49,3.49,0,0,0,2.85,1.23A3.72,3.72,0,0,0,444.8,168ZM444.8,164a3.47,3.47,0,0,0-6.72,0Z"/><path class="cls-3" d="M462.53,150.31h4v21.87h-4V170.5a5.26,5.26,0,0,1-4.36,2.1,6.88,6.88,0,0,1-7.24-6.93,6.77,6.77,0,0,1,7.05-6.9,5.32,5.32,0,0,1,4.55,2.1Zm-7.47,15.36A3.95,3.95,0,1,0,459,162,3.72,3.72,0,0,0,455.06,165.67Z"/><path class="cls-3" d="M481.21,150.31h4v21.87h-4V170.5a5.26,5.26,0,0,1-4.36,2.1,6.89,6.89,0,0,1-7.24-6.93,6.77,6.77,0,0,1,7.05-6.9,5.32,5.32,0,0,1,4.55,2.1Zm-7.47,15.36a3.95,3.95,0,1,0,3.93-3.66A3.72,3.72,0,0,0,473.74,165.67Z"/><path class="cls-3" d="M502.94,168.55c-.42,1-2,4-7,4a7.84,7.84,0,0,1-5.44-1.83,6.28,6.28,0,0,1-2.23-5.07,6.66,6.66,0,0,1,2.16-5.1,7.7,7.7,0,0,1,5.35-1.83,7.09,7.09,0,0,1,5.54,2.13A7.34,7.34,0,0,1,503,166v.3H492.42a3.59,3.59,0,0,0,.69,2.19,3.49,3.49,0,0,0,2.85,1.23,3.72,3.72,0,0,0,3.31-1.71ZM499.27,164a3.47,3.47,0,0,0-6.72,0Z"/><path class="cls-3" d="M510.12,150.31v21.87h-4V150.31Z"/><path class="cls-3" d="M515.92,151.51a2.2,2.2,0,1,1-2.39,2.19A2.31,2.31,0,0,1,515.92,151.51Zm2,7.68v13h-4v-13Z"/><path class="cls-3" d="M521.72,159.19h4v1.68a5.34,5.34,0,0,1,4.39-2.1,5.71,5.71,0,0,1,4.2,1.59,5.15,5.15,0,0,1,1.11,3.66v8.16h-4V165.1a3.49,3.49,0,0,0-.75-2.55,2.71,2.71,0,0,0-1.87-.66,2.81,2.81,0,0,0-2.46,1.14,4.16,4.16,0,0,0-.62,2.52v6.63h-4Z"/><path class="cls-3" d="M550,159.19h4v12.39c0,2-.2,4-2,5.67a7.94,7.94,0,0,1-5.61,1.83,8.2,8.2,0,0,1-5.31-1.5,7.08,7.08,0,0,1-2.29-3.87h4.33a3,3,0,0,0,1,1.56,3.76,3.76,0,0,0,2.42.69,3.55,3.55,0,0,0,2.43-.81,3.46,3.46,0,0,0,1-2.88v-1.83a5.14,5.14,0,0,1-4.36,2.16,7.08,7.08,0,0,1-4.92-1.77,7.09,7.09,0,0,1-.06-10.32,7.29,7.29,0,0,1,4.88-1.74,5.12,5.12,0,0,1,4.46,2.1Zm-6.13,3.72a3.62,3.62,0,0,0-.23,5.31,4.05,4.05,0,0,0,2.88,1.14,4.25,4.25,0,0,0,2.66-.9,3.68,3.68,0,0,0,1.28-2.79,3.54,3.54,0,0,0-1.15-2.61,3.83,3.83,0,0,0-2.79-1.05A4,4,0,0,0,543.91,162.91Z"/><path class="cls-3" d="M561.44,167.89a2.35,2.35,0,1,1-2.56,2.34A2.42,2.42,0,0,1,561.44,167.89Z"/><path class="cls-3" d="M581.4,152.17c3.05,0,5.7.3,8.13,2a9.63,9.63,0,0,1,4.19,8.07,9.31,9.31,0,0,1-4.39,8.07c-2.56,1.65-5,1.92-8,1.92H575.7v-20ZM580,168.82h1.31a9.81,9.81,0,0,0,5.34-1.32,6.31,6.31,0,0,0,2.72-5.31,6.45,6.45,0,0,0-2.69-5.34,9.52,9.52,0,0,0-5.37-1.32H580Z"/><path class="cls-3" d="M611,168.55c-.43,1-2,4-7,4a7.84,7.84,0,0,1-5.44-1.83,6.28,6.28,0,0,1-2.23-5.07,6.62,6.62,0,0,1,2.17-5.1,7.68,7.68,0,0,1,5.34-1.83,7.07,7.07,0,0,1,5.54,2.13,7.29,7.29,0,0,1,1.7,5.1v.3H600.47a3.59,3.59,0,0,0,.69,2.19,3.49,3.49,0,0,0,2.85,1.23,3.72,3.72,0,0,0,3.31-1.71ZM607.32,164a3.47,3.47,0,0,0-6.72,0Z"/><path class="cls-3" d="M614.17,159.19h4v1.95a4.59,4.59,0,0,1,1.77-1.8,4.65,4.65,0,0,1,2.36-.57,5.24,5.24,0,0,1,1.7.3l-.52,3.42a3.21,3.21,0,0,0-1.87-.48,3.41,3.41,0,0,0-2.65,1.05,4.14,4.14,0,0,0-.79,2.88v6.24h-4Z"/><path class="cls-3" d="M630.72,162.31v9.87h-4v-9.87h-1.5v-3.12h1.5v-3.57a5.4,5.4,0,0,1,1.87-4.59A5.65,5.65,0,0,1,632.1,150a5.51,5.51,0,0,1,2.29.45v3.33a2.92,2.92,0,0,0-1.8-.54,1.63,1.63,0,0,0-1.44.66,4,4,0,0,0-.43,2.25v3.09h3.67v3.12Z"/><path class="cls-3" d="M649.37,160.6a6.6,6.6,0,0,1,0,10.17,9.9,9.9,0,0,1-11.47,0,6.6,6.6,0,0,1,0-10.17,9.9,9.9,0,0,1,11.47,0Zm-1.74,5.1a4,4,0,1,0-4,3.66A3.79,3.79,0,0,0,647.63,165.7Z"/><path class="cls-3" d="M654.84,159.19h4v1.95a4.59,4.59,0,0,1,1.77-1.8,4.65,4.65,0,0,1,2.36-.57,5.35,5.35,0,0,1,1.71.3l-.53,3.42a3.21,3.21,0,0,0-1.87-.48,3.42,3.42,0,0,0-2.65,1.05,4.2,4.2,0,0,0-.79,2.88v6.24h-4Z"/><path class="cls-3" d="M674.28,150.31h4v10.56a5.33,5.33,0,0,1,4.39-2.1,5.68,5.68,0,0,1,4.19,1.59A5.11,5.11,0,0,1,688,164v8.16h-4V165.1a3.46,3.46,0,0,0-.76-2.55,2.69,2.69,0,0,0-1.86-.66A2.81,2.81,0,0,0,678.9,163a4.16,4.16,0,0,0-.62,2.52v6.63h-4Z"/><path class="cls-3" d="M702.66,159.19h4v13h-4V170.5a5.26,5.26,0,0,1-4.36,2.1,6.88,6.88,0,0,1-7.24-6.93,6.77,6.77,0,0,1,7-6.9,5.32,5.32,0,0,1,4.56,2.1Zm-7.47,6.48a3.94,3.94,0,1,0,3.93-3.66A3.72,3.72,0,0,0,695.19,165.67Z"/><path class="cls-3" d="M710.46,159.19h4v1.95a4.52,4.52,0,0,1,1.77-1.8,4.65,4.65,0,0,1,2.36-.57,5.29,5.29,0,0,1,1.7.3l-.52,3.42a3.23,3.23,0,0,0-1.87-.48,3.43,3.43,0,0,0-2.66,1.05,4.19,4.19,0,0,0-.78,2.88v6.24h-4Z"/><path class="cls-3" d="M741.23,156.73a4.42,4.42,0,0,0-3.57-1.71c-2.29,0-3,1.32-3,2.34a1.64,1.64,0,0,0,.69,1.35,7.83,7.83,0,0,0,2.63,1.14,13.18,13.18,0,0,1,4.42,2,5.25,5.25,0,0,1,1.87,4.2c0,3.9-3.08,6.57-7.61,6.57a9.16,9.16,0,0,1-7.53-3.78l2.78-2.43a5.2,5.2,0,0,0,4.59,2.67c1.93,0,3.38-1.08,3.38-2.76a2.25,2.25,0,0,0-.86-1.8,10.23,10.23,0,0,0-3.37-1.47,10.84,10.84,0,0,1-3.64-1.74,4.51,4.51,0,0,1-1.74-3.72c0-2.94,2.17-5.88,7-5.88a8.85,8.85,0,0,1,6.19,2.34Z"/><path class="cls-3" d="M761.32,168.55c-.42,1-2,4-7,4a7.84,7.84,0,0,1-5.44-1.83,6.28,6.28,0,0,1-2.23-5.07,6.62,6.62,0,0,1,2.17-5.1,7.66,7.66,0,0,1,5.34-1.83,7.09,7.09,0,0,1,5.54,2.13,7.34,7.34,0,0,1,1.7,5.1v.3H750.8a3.59,3.59,0,0,0,.69,2.19,3.49,3.49,0,0,0,2.85,1.23,3.72,3.72,0,0,0,3.31-1.71ZM757.65,164a3.47,3.47,0,0,0-6.72,0Z"/><path class="cls-3" d="M768.73,165.1l-5.44-5.91h5.05l2.88,3.36,2.95-3.36h5.05l-5.54,5.91,6.72,7.08h-5.12l-4.06-4.53-4.13,4.53H762Z"/><path class="cls-3" d="M809.53,164.71a22.4,22.4,0,0,1-2.36,2.43l-.49.45,4.43,4.59h-5.28l-2.13-2.25a11.3,11.3,0,0,1-7.05,2.7c-4.49,0-6.85-2.85-6.85-5.73s2.53-4.53,3.51-5.07l1.7-.93a6.15,6.15,0,0,1-2.19-4.2c0-2.49,2-5,6-5,3.8,0,5.86,2.31,5.86,4.77,0,1.44-.75,3.15-3.08,4.44l-.91.51,3.6,3.78a23.6,23.6,0,0,0,2.72-2.76Zm-12.35-1.59c-1.68.81-3.12,1.92-3.12,3.45s1.38,2.64,3.21,2.64a6.45,6.45,0,0,0,4-1.74Zm1.5-3.75,1-.63a2.66,2.66,0,0,0,1.5-2.22,2.19,2.19,0,0,0-4.35-.12,2.93,2.93,0,0,0,.91,1.89Z"/><path class="cls-3" d="M832.24,156.73a4.42,4.42,0,0,0-3.57-1.71c-2.29,0-3,1.32-3,2.34a1.63,1.63,0,0,0,.68,1.35,7.83,7.83,0,0,0,2.63,1.14,13.18,13.18,0,0,1,4.42,2,5.25,5.25,0,0,1,1.87,4.2c0,3.9-3.08,6.57-7.61,6.57a9.16,9.16,0,0,1-7.53-3.78l2.78-2.43a5.2,5.2,0,0,0,4.59,2.67c1.93,0,3.38-1.08,3.38-2.76a2.25,2.25,0,0,0-.86-1.8,10.14,10.14,0,0,0-3.37-1.47,10.93,10.93,0,0,1-3.64-1.74,4.51,4.51,0,0,1-1.74-3.72c0-2.94,2.17-5.88,7-5.88a8.85,8.85,0,0,1,6.19,2.34Z"/><path class="cls-3" d="M849.29,159.19h4v13h-4V170.5a5.28,5.28,0,0,1-4.36,2.1,6.89,6.89,0,0,1-7.25-6.93,6.77,6.77,0,0,1,7.05-6.9,5.34,5.34,0,0,1,4.56,2.1Zm-7.48,6.48a3.95,3.95,0,1,0,3.94-3.66A3.73,3.73,0,0,0,841.81,165.67Z"/><path class="cls-3" d="M857.09,159.19h4v1.47a5.45,5.45,0,0,1,4.23-1.89,4.74,4.74,0,0,1,4.49,2.37,5.32,5.32,0,0,1,4.56-2.37,4.66,4.66,0,0,1,3.83,1.59,5.1,5.1,0,0,1,1,3.66v8.16h-4V165.1a3.67,3.67,0,0,0-.66-2.55,2.09,2.09,0,0,0-1.64-.66,2.38,2.38,0,0,0-2.19,1.14,4.54,4.54,0,0,0-.56,2.52v6.63h-4V165.1a3.74,3.74,0,0,0-.65-2.55,2.12,2.12,0,0,0-1.64-.66,2.39,2.39,0,0,0-2.2,1.14,4.63,4.63,0,0,0-.56,2.52v6.63h-4Z"/><path class="cls-3" d="M887,162.31v9.87h-4v-9.87h-1.51v-3.12H883v-3.57a5.4,5.4,0,0,1,1.87-4.59,5.63,5.63,0,0,1,3.51-1.08,5.54,5.54,0,0,1,2.29.45v3.33a2.94,2.94,0,0,0-1.8-.54,1.62,1.62,0,0,0-1.44.66,4,4,0,0,0-.43,2.25v3.09h3.67v3.12Z"/><path class="cls-3" d="M896.54,159.19v7.35a2.77,2.77,0,0,0,.86,2.28,3.45,3.45,0,0,0,4.06,0,2.76,2.76,0,0,0,.85-2.28v-7.35h4v7.95a4.68,4.68,0,0,1-1.74,4,9.74,9.74,0,0,1-10.29,0,4.69,4.69,0,0,1-1.73-4v-7.95Z"/><path class="cls-3" d="M910.11,159.19h4v1.68a5.34,5.34,0,0,1,4.39-2.1,5.71,5.71,0,0,1,4.2,1.59,5.15,5.15,0,0,1,1.11,3.66v8.16h-4V165.1a3.49,3.49,0,0,0-.75-2.55,2.69,2.69,0,0,0-1.87-.66,2.81,2.81,0,0,0-2.46,1.14,4.16,4.16,0,0,0-.62,2.52v6.63h-4Z"/><path class="cls-3" d="M938.49,150.31h4v21.87h-4V170.5a5.26,5.26,0,0,1-4.35,2.1,6.89,6.89,0,0,1-7.25-6.93,6.77,6.77,0,0,1,7.05-6.9,5.32,5.32,0,0,1,4.55,2.1ZM931,165.67A3.95,3.95,0,1,0,935,162,3.73,3.73,0,0,0,931,165.67Z"/><path class="cls-3" d="M93.15,198.28a3.5,3.5,0,0,0-2.33-.87c-.95,0-1.54.42-1.54,1.05,0,.33.16.84,1.28,1.17l1,.27a7.47,7.47,0,0,1,3.6,1.86,3.52,3.52,0,0,1,.72,2.16,4.14,4.14,0,0,1-1.57,3.3A6.3,6.3,0,0,1,90,208.6a7.48,7.48,0,0,1-5.51-2.16l2.1-2.22a4.56,4.56,0,0,0,3.15,1.5c1.11,0,2-.51,2-1.41S91,203.17,90.46,203l-.92-.3a7.84,7.84,0,0,1-3.05-1.56,3.36,3.36,0,0,1-1.08-2.49,3.74,3.74,0,0,1,1.48-2.94,6.24,6.24,0,0,1,3.7-.93,7.52,7.52,0,0,1,4.52,1.38Z"/><path class="cls-3" d="M102.65,186.31v13.62l5.31-4.74h5.18l-6.66,5.7,7.18,7.29h-5.31l-5.27-5.55-.43.36v5.19h-4V186.31Z"/><path class="cls-3" d="M126.31,195.19h4v13h-4V206.5a5.26,5.26,0,0,1-4.36,2.1,6.88,6.88,0,0,1-7.24-6.93,6.77,6.77,0,0,1,7.05-6.9,5.32,5.32,0,0,1,4.55,2.1Zm-7.47,6.48a3.95,3.95,0,1,0,3.93-3.66A3.72,3.72,0,0,0,118.84,201.67Z"/><path class="cls-3" d="M138.11,196.87a5.72,5.72,0,0,1,4.62-2.1,6.66,6.66,0,0,1,7,6.9,6.75,6.75,0,0,1-7.08,6.93,5.57,5.57,0,0,1-4.52-2.1v1.68h-4V186.31h4Zm-.39,4.8a3.94,3.94,0,1,0,3.93-3.66A3.72,3.72,0,0,0,137.72,201.67Z"/><path class="cls-3" d="M156.79,198.31v9.87h-4v-9.87h-1.57v-3.12h1.57v-4.44h4v4.44h2.76v3.12Z"/><path class="cls-3" d="M176.23,188.17c2.45,0,4.16.24,5.76,1.53a6.39,6.39,0,0,1,.43,9.3,7.92,7.92,0,0,1-5.54,1.77h-2.75v7.41h-4.26v-20Zm-2.1,9.24h1.74a4.68,4.68,0,0,0,2.78-.63,2.88,2.88,0,0,0,1.18-2.34,2.69,2.69,0,0,0-1.21-2.28,5.54,5.54,0,0,0-3-.63h-1.47Z"/><path class="cls-3" d="M186.78,195.19h4v1.95a4.52,4.52,0,0,1,1.77-1.8,4.65,4.65,0,0,1,2.36-.57,5.34,5.34,0,0,1,1.7.3l-.52,3.42a3.23,3.23,0,0,0-1.87-.48,3.43,3.43,0,0,0-2.66,1.05,4.19,4.19,0,0,0-.78,2.88v6.24h-4Z"/><path class="cls-3" d="M200.58,187.51a2.2,2.2,0,1,1-2.4,2.19A2.31,2.31,0,0,1,200.58,187.51Zm2,7.68v13h-4v-13Z"/><path class="cls-3" d="M209,195.19l3.73,7.32,3.74-7.32h4.46l-7.15,13h-2.09l-7.15-13Z"/><path class="cls-3" d="M233.45,195.19h4v13h-4V206.5a5.27,5.27,0,0,1-4.36,2.1,6.89,6.89,0,0,1-7.25-6.93,6.78,6.78,0,0,1,7-6.9,5.34,5.34,0,0,1,4.56,2.1ZM226,201.67a3.95,3.95,0,1,0,3.94-3.66A3.73,3.73,0,0,0,226,201.67Z"/><path class="cls-3" d="M245.25,198.31v9.87h-4v-9.87h-1.58v-3.12h1.58v-4.44h4v4.44H248v3.12Z"/><path class="cls-3" d="M261.44,192.73a4.43,4.43,0,0,0-3.58-1.71c-2.29,0-3,1.32-3,2.34a1.62,1.62,0,0,0,.69,1.35,7.66,7.66,0,0,0,2.62,1.14,13.18,13.18,0,0,1,4.42,2,5.22,5.22,0,0,1,1.87,4.2c0,3.9-3.08,6.57-7.6,6.57a9.19,9.19,0,0,1-7.54-3.78l2.78-2.43a5.2,5.2,0,0,0,4.59,2.67c1.94,0,3.38-1.08,3.38-2.76a2.24,2.24,0,0,0-.85-1.8,10.19,10.19,0,0,0-3.38-1.47,10.93,10.93,0,0,1-3.64-1.74,4.51,4.51,0,0,1-1.73-3.72c0-2.94,2.16-5.88,7-5.88a8.82,8.82,0,0,1,6.19,2.34Z"/><path class="cls-3" d="M267.6,195.19h4v1.68a5.36,5.36,0,0,1,4.4-2.1,5.68,5.68,0,0,1,4.19,1.59A5.11,5.11,0,0,1,281.3,200v8.16h-4V201.1a3.46,3.46,0,0,0-.76-2.55,2.69,2.69,0,0,0-1.86-.66,2.81,2.81,0,0,0-2.46,1.14,4.17,4.17,0,0,0-.63,2.52v6.63h-4Z"/><path class="cls-3" d="M296,195.19h4v13h-4V206.5a5.26,5.26,0,0,1-4.36,2.1,6.88,6.88,0,0,1-7.24-6.93,6.77,6.77,0,0,1,7-6.9,5.34,5.34,0,0,1,4.56,2.1Zm-7.47,6.48a3.94,3.94,0,1,0,3.93-3.66A3.72,3.72,0,0,0,288.51,201.67Z"/><path class="cls-3" d="M307.78,186.31v13.62l5.31-4.74h5.17l-6.65,5.7,7.18,7.29h-5.31l-5.28-5.55-.42.36v5.19h-4V186.31Z"/><path class="cls-3" d="M323,204l3.67.39L322,212.38l-2.52-.27Z"/><path class="cls-3" d="M339.63,186.31h4v10.56a5.34,5.34,0,0,1,4.39-2.1,5.71,5.71,0,0,1,4.2,1.59,5.15,5.15,0,0,1,1.11,3.66v8.16h-4V201.1a3.49,3.49,0,0,0-.75-2.55,2.71,2.71,0,0,0-1.87-.66,2.81,2.81,0,0,0-2.46,1.14,4.16,4.16,0,0,0-.62,2.52v6.63h-4Z"/><path class="cls-3" d="M359.1,195.19l3.74,7.32,3.73-7.32H371l-7.15,13h-2.09l-7.15-13Z"/><path class="cls-3" d="M385.48,196.6a6.59,6.59,0,0,1,0,10.17,9.9,9.9,0,0,1-11.47,0,6.6,6.6,0,0,1,0-10.17,9.9,9.9,0,0,1,11.47,0Zm-1.73,5.1a4,4,0,1,0-4,3.66A3.8,3.8,0,0,0,383.75,201.7Z"/><path class="cls-3" d="M391,195.19h4v1.95a4.51,4.51,0,0,1,4.13-2.37,5.35,5.35,0,0,1,1.71.3l-.53,3.42a3.21,3.21,0,0,0-1.87-.48,3.42,3.42,0,0,0-2.65,1.05,4.2,4.2,0,0,0-.79,2.88v6.24h-4Z"/><path class="cls-3" d="M414.39,195.19v7.35a2.76,2.76,0,0,0,.85,2.28,3.45,3.45,0,0,0,4.06,0,2.77,2.77,0,0,0,.86-2.28v-7.35h4v7.95a4.69,4.69,0,0,1-1.73,4,9.74,9.74,0,0,1-10.29,0,4.68,4.68,0,0,1-1.74-4v-7.95Z"/><path class="cls-3" d="M428,195.19h4v1.68a5.36,5.36,0,0,1,4.4-2.1,5.68,5.68,0,0,1,4.19,1.59,5.16,5.16,0,0,1,1.12,3.66v8.16h-4V201.1a3.5,3.5,0,0,0-.76-2.55,2.69,2.69,0,0,0-1.87-.66,2.81,2.81,0,0,0-2.45,1.14,4.17,4.17,0,0,0-.63,2.52v6.63h-4Z"/><path class="cls-3" d="M456.27,195.19h4v12.39c0,2-.2,4-2,5.67a7.92,7.92,0,0,1-5.6,1.83,8.2,8.2,0,0,1-5.31-1.5,7.09,7.09,0,0,1-2.3-3.87h4.33a3.12,3.12,0,0,0,1,1.56,3.74,3.74,0,0,0,2.42.69,3.57,3.57,0,0,0,2.43-.81,3.48,3.48,0,0,0,1-2.88v-1.83a5.13,5.13,0,0,1-4.36,2.16,7,7,0,0,1-4.91-1.77,7.07,7.07,0,0,1-.07-10.32,7.31,7.31,0,0,1,4.88-1.74,5.11,5.11,0,0,1,4.46,2.1Zm-6.13,3.72a3.62,3.62,0,0,0-.23,5.31,4.09,4.09,0,0,0,2.89,1.14,4.24,4.24,0,0,0,2.65-.9,3.68,3.68,0,0,0,1.28-2.79,3.54,3.54,0,0,0-1.15-2.61A3.8,3.8,0,0,0,452.8,198,4.06,4.06,0,0,0,450.14,198.91Z"/><path class="cls-3" d="M478,204.55c-.43,1-2,4-7,4a7.82,7.82,0,0,1-5.44-1.83,6.28,6.28,0,0,1-2.23-5.07,6.66,6.66,0,0,1,2.16-5.1,7.69,7.69,0,0,1,5.35-1.83,7,7,0,0,1,5.53,2.13,7.31,7.31,0,0,1,1.71,5.1v.3H467.48a3.59,3.59,0,0,0,.69,2.19,3.48,3.48,0,0,0,2.85,1.23,3.74,3.74,0,0,0,3.31-1.71ZM474.33,200a3.47,3.47,0,0,0-6.72,0Z"/><path class="cls-3" d="M490.81,187.51a2.2,2.2,0,1,1-2.39,2.19A2.32,2.32,0,0,1,490.81,187.51Zm2,7.68v13h-4v-13Z"/><path class="cls-3" d="M515.13,195.19h4v13h-4V206.5a5.26,5.26,0,0,1-4.36,2.1,6.88,6.88,0,0,1-7.24-6.93,6.77,6.77,0,0,1,7.05-6.9,5.32,5.32,0,0,1,4.55,2.1Zm-7.47,6.48a3.94,3.94,0,1,0,3.93-3.66A3.72,3.72,0,0,0,507.66,201.67Z"/><path class="cls-3" d="M526.93,186.31v21.87h-4V186.31Z"/><path class="cls-3" d="M541.61,186.31h4v21.87h-4V206.5a5.26,5.26,0,0,1-4.36,2.1,6.88,6.88,0,0,1-7.24-6.93,6.77,6.77,0,0,1,7-6.9,5.32,5.32,0,0,1,4.55,2.1Zm-7.47,15.36a3.94,3.94,0,1,0,3.93-3.66A3.72,3.72,0,0,0,534.14,201.67Z"/><path class="cls-3" d="M563.34,204.55c-.43,1-2,4-7,4a7.82,7.82,0,0,1-5.44-1.83,6.28,6.28,0,0,1-2.23-5.07,6.66,6.66,0,0,1,2.16-5.1,7.69,7.69,0,0,1,5.35-1.83,7,7,0,0,1,5.53,2.13,7.31,7.31,0,0,1,1.71,5.1v.3H552.82a3.59,3.59,0,0,0,.69,2.19,3.48,3.48,0,0,0,2.85,1.23,3.74,3.74,0,0,0,3.31-1.71ZM559.67,200a3.47,3.47,0,0,0-6.72,0Z"/><path class="cls-3" d="M566.52,195.19h4v1.95a4.52,4.52,0,0,1,1.77-1.8,4.65,4.65,0,0,1,2.36-.57,5.29,5.29,0,0,1,1.7.3l-.52,3.42A3.23,3.23,0,0,0,574,198a3.43,3.43,0,0,0-2.66,1.05,4.19,4.19,0,0,0-.78,2.88v6.24h-4Z"/><path class="cls-3" d="M591.56,204.55c-.43,1-2,4-7,4a7.87,7.87,0,0,1-5.45-1.83,6.28,6.28,0,0,1-2.22-5.07,6.62,6.62,0,0,1,2.16-5.1,7.68,7.68,0,0,1,5.34-1.83A7.06,7.06,0,0,1,590,196.9a7.31,7.31,0,0,1,1.71,5.1v.3H581a3.65,3.65,0,0,0,.68,2.19,3.51,3.51,0,0,0,2.86,1.23,3.75,3.75,0,0,0,3.31-1.71ZM587.89,200a3.47,3.47,0,0,0-6.72,0Z"/><path class="cls-3" d="M594.74,195.19h4v1.68a5.36,5.36,0,0,1,4.4-2.1,5.68,5.68,0,0,1,4.19,1.59,5.16,5.16,0,0,1,1.12,3.66v8.16h-4V201.1a3.5,3.5,0,0,0-.76-2.55,2.69,2.69,0,0,0-1.87-.66,2.81,2.81,0,0,0-2.45,1.14,4.17,4.17,0,0,0-.63,2.52v6.63h-4Z"/><path class="cls-3" d="M625.44,191.53H622.3v-3.36h7.4v20h-4.26Z"/><path class="cls-3" d="M635.14,198.16c0-6.87,4.1-10.44,8.46-10.44s8.46,3.57,8.46,10.47-4.1,10.44-8.46,10.44S635.14,205.06,635.14,198.16Zm4.27,0c0,5.22,2.32,7.11,4.19,7.11s4.2-1.89,4.2-7.11-2.36-7.08-4.2-7.08S639.41,193,639.41,198.16Z"/><path class="cls-3" d="M654.55,199.6h8.52V203h-8.52Z"/><path class="cls-3" d="M672.18,191.53H669v-3.36h7.41v20h-4.26Z"/><path class="cls-3" d="M695.38,191.53h-7.27l-.79,3.15a10.4,10.4,0,0,1,1.47-.12,8.37,8.37,0,0,1,5.64,2,6.28,6.28,0,0,1,1.94,4.8,6.69,6.69,0,0,1-2.23,5.22,8.21,8.21,0,0,1-6,2,11.76,11.76,0,0,1-4.72-.84,10.93,10.93,0,0,1-2.66-1.71l1.41-3.36a6.48,6.48,0,0,0,2.27,1.8,6.94,6.94,0,0,0,3.17.75,4.6,4.6,0,0,0,3.35-1.2,4,4,0,0,0,1.14-2.91,3.29,3.29,0,0,0-1.27-2.76,5.15,5.15,0,0,0-3.41-1,9.61,9.61,0,0,0-4.72,1.29l2.59-10.5h10.09Z"/><path class="cls-3" d="M719,195.19h4v13h-4V206.5a5.28,5.28,0,0,1-4.36,2.1,6.89,6.89,0,0,1-7.25-6.93,6.77,6.77,0,0,1,7-6.9,5.34,5.34,0,0,1,4.56,2.1Zm-7.48,6.48a3.95,3.95,0,1,0,3.94-3.66A3.73,3.73,0,0,0,711.47,201.67Zm4-14.31a2.83,2.83,0,1,1-3.08,2.82A3,3,0,0,1,715.44,187.36Zm0,4a1.17,1.17,0,1,0-1.28-1.17A1.18,1.18,0,0,0,715.44,191.35Z"/><path class="cls-3" d="M726.75,195.19h4v1.95a4.51,4.51,0,0,1,4.13-2.37,5.35,5.35,0,0,1,1.71.3l-.53,3.42a3.21,3.21,0,0,0-1.87-.48,3.42,3.42,0,0,0-2.65,1.05,4.2,4.2,0,0,0-.79,2.88v6.24h-4Z"/><path class="cls-3" d="M750.18,186.31v13.62l5.31-4.74h5.18l-6.66,5.7,7.18,7.29h-5.31l-5.28-5.55-.42.36v5.19h-4V186.31Z"/><path class="cls-3" d="M773.84,195.19h4v13h-4V206.5a5.26,5.26,0,0,1-4.36,2.1,6.88,6.88,0,0,1-7.24-6.93,6.77,6.77,0,0,1,7-6.9,5.32,5.32,0,0,1,4.56,2.1Zm-7.47,6.48A3.94,3.94,0,1,0,770.3,198,3.72,3.72,0,0,0,766.37,201.67Z"/><path class="cls-3" d="M781.64,195.19h4v1.68a5.34,5.34,0,0,1,4.39-2.1,5.71,5.71,0,0,1,4.2,1.59,5.15,5.15,0,0,1,1.11,3.66v8.16h-4V201.1a3.49,3.49,0,0,0-.75-2.55,2.72,2.72,0,0,0-1.87-.66,2.81,2.81,0,0,0-2.46,1.14,4.16,4.16,0,0,0-.62,2.52v6.63h-4Z"/><path class="cls-3" d="M810.84,198.31v9.87h-4v-9.87h-1.51v-3.12h1.51v-3.57a5.4,5.4,0,0,1,1.87-4.59,5.63,5.63,0,0,1,3.51-1.08,5.54,5.54,0,0,1,2.29.45v3.33a2.94,2.94,0,0,0-1.8-.54,1.62,1.62,0,0,0-1.44.66,4,4,0,0,0-.43,2.25v3.09h3.67v3.12Z"/><path class="cls-3" d="M827.23,195.19h4v13h-4V206.5a5.27,5.27,0,0,1-4.36,2.1,6.89,6.89,0,0,1-7.25-6.93,6.78,6.78,0,0,1,7-6.9,5.34,5.34,0,0,1,4.56,2.1Zm-7.48,6.48a3.95,3.95,0,1,0,3.94-3.66A3.73,3.73,0,0,0,819.75,201.67Zm4-14.31a2.83,2.83,0,1,1-3.08,2.82A3,3,0,0,1,823.72,187.36Zm0,4a1.17,1.17,0,1,0-1.28-1.17A1.18,1.18,0,0,0,823.72,191.35Z"/><path class="cls-3" d="M856.59,204.55c-.42,1-2,4-7,4a7.84,7.84,0,0,1-5.44-1.83,6.28,6.28,0,0,1-2.23-5.07,6.66,6.66,0,0,1,2.16-5.1,7.7,7.7,0,0,1,5.35-1.83A7.09,7.09,0,0,1,855,196.9a7.34,7.34,0,0,1,1.7,5.1v.3H846.07a3.59,3.59,0,0,0,.69,2.19,3.48,3.48,0,0,0,2.85,1.23,3.74,3.74,0,0,0,3.31-1.71ZM852.92,200a3.47,3.47,0,0,0-6.72,0Z"/><path class="cls-3" d="M859.77,195.19h4v1.68a5.34,5.34,0,0,1,4.39-2.1,5.71,5.71,0,0,1,4.2,1.59,5.15,5.15,0,0,1,1.11,3.66v8.16h-4V201.1a3.49,3.49,0,0,0-.75-2.55,2.72,2.72,0,0,0-1.87-.66,2.81,2.81,0,0,0-2.46,1.14,4.16,4.16,0,0,0-.62,2.52v6.63h-4Z"/><path class="cls-3" d="M895.72,195.19h4v12.39c0,2-.2,4-2,5.67a7.92,7.92,0,0,1-5.6,1.83,8.2,8.2,0,0,1-5.31-1.5,7,7,0,0,1-2.29-3.87h4.32a3.12,3.12,0,0,0,1,1.56,3.74,3.74,0,0,0,2.42.69,3.57,3.57,0,0,0,2.43-.81,3.48,3.48,0,0,0,1-2.88v-1.83a5.13,5.13,0,0,1-4.36,2.16,7,7,0,0,1-4.91-1.77,7.07,7.07,0,0,1-.07-10.32,7.31,7.31,0,0,1,4.88-1.74,5.09,5.09,0,0,1,4.46,2.1Zm-6.13,3.72a3.62,3.62,0,0,0-.23,5.31,4.09,4.09,0,0,0,2.89,1.14,4.24,4.24,0,0,0,2.65-.9,3.68,3.68,0,0,0,1.28-2.79,3.54,3.54,0,0,0-1.15-2.61,3.8,3.8,0,0,0-2.78-1.05A4.06,4.06,0,0,0,889.59,198.91Z"/><path class="cls-3" d="M916.66,196.6a6.59,6.59,0,0,1,0,10.17,9.9,9.9,0,0,1-11.47,0,6.6,6.6,0,0,1,0-10.17,9.9,9.9,0,0,1,11.47,0Zm-1.73,5.1a4,4,0,1,0-4,3.66A3.8,3.8,0,0,0,914.93,201.7Z"/><path class="cls-3" d="M933,186.31h4v21.87h-4V206.5a5.27,5.27,0,0,1-4.36,2.1,6.88,6.88,0,0,1-7.24-6.93,6.77,6.77,0,0,1,7-6.9,5.34,5.34,0,0,1,4.56,2.1Zm-7.47,15.36a3.94,3.94,0,1,0,3.93-3.66A3.72,3.72,0,0,0,925.55,201.67Z"/><path class="cls-3" d="M956.19,198.28a3.5,3.5,0,0,0-2.33-.87c-1,0-1.54.42-1.54,1.05,0,.33.16.84,1.28,1.17l.95.27c1.11.33,2.79.84,3.6,1.86a3.53,3.53,0,0,1,.73,2.16,4.15,4.15,0,0,1-1.58,3.3A6.28,6.28,0,0,1,953,208.6a7.44,7.44,0,0,1-5.5-2.16l2.09-2.22a4.56,4.56,0,0,0,3.15,1.5c1.11,0,2-.51,2-1.41s-.73-1.14-1.25-1.32l-.92-.3a8,8,0,0,1-3.05-1.56,3.36,3.36,0,0,1-1.08-2.49,3.74,3.74,0,0,1,1.48-2.94,6.24,6.24,0,0,1,3.7-.93,7.52,7.52,0,0,1,4.52,1.38Z"/><path class="cls-3" d="M961.69,195.19h4v1.68a5.36,5.36,0,0,1,4.39-2.1,5.71,5.71,0,0,1,4.2,1.59,5.15,5.15,0,0,1,1.11,3.66v8.16h-4V201.1a3.49,3.49,0,0,0-.75-2.55,2.69,2.69,0,0,0-1.87-.66,2.81,2.81,0,0,0-2.46,1.14,4.16,4.16,0,0,0-.62,2.52v6.63h-4Z"/><path class="cls-3" d="M990.08,195.19h4v13h-4V206.5a5.28,5.28,0,0,1-4.36,2.1,6.89,6.89,0,0,1-7.25-6.93,6.77,6.77,0,0,1,7-6.9,5.34,5.34,0,0,1,4.56,2.1Zm-7.48,6.48a3.95,3.95,0,1,0,3.94-3.66A3.73,3.73,0,0,0,982.6,201.67Z"/><path class="cls-3" d="M1001.87,186.31v13.62l5.31-4.74h5.18l-6.65,5.7,7.18,7.29h-5.31l-5.28-5.55-.43.36v5.19h-4V186.31Z"/><path class="cls-3" d="M85.41,231.19h4v1.47a5.45,5.45,0,0,1,4.23-1.89,4.74,4.74,0,0,1,4.49,2.37,5.32,5.32,0,0,1,4.55-2.37,4.67,4.67,0,0,1,3.84,1.59,5.09,5.09,0,0,1,1,3.66v8.16h-4V237.1a3.74,3.74,0,0,0-.65-2.55,2.12,2.12,0,0,0-1.64-.66A2.4,2.4,0,0,0,99,235a4.61,4.61,0,0,0-.55,2.52v6.63h-4V237.1a3.67,3.67,0,0,0-.66-2.55,2.09,2.09,0,0,0-1.64-.66A2.38,2.38,0,0,0,90,235a4.54,4.54,0,0,0-.56,2.52v6.63h-4Z"/><path class="cls-3" d="M125.23,240.55c-.42,1-2,4-7,4a7.84,7.84,0,0,1-5.44-1.83,6.28,6.28,0,0,1-2.23-5.07,6.66,6.66,0,0,1,2.16-5.1,7.7,7.7,0,0,1,5.35-1.83,7.09,7.09,0,0,1,5.54,2.13,7.34,7.34,0,0,1,1.7,5.1v.3H114.71a3.59,3.59,0,0,0,.69,2.19,3.49,3.49,0,0,0,2.85,1.23,3.72,3.72,0,0,0,3.31-1.71ZM121.56,236a3.47,3.47,0,0,0-6.72,0Z"/><path class="cls-3" d="M139.29,222.31h4v21.87h-4V242.5a5.26,5.26,0,0,1-4.36,2.1,6.88,6.88,0,0,1-7.24-6.93,6.77,6.77,0,0,1,7.05-6.9,5.32,5.32,0,0,1,4.55,2.1Zm-7.47,15.36a3.94,3.94,0,1,0,3.93-3.66A3.72,3.72,0,0,0,131.82,237.67Z"/><path class="cls-3" d="M168.66,240.55c-.43,1-2,4-7,4a7.84,7.84,0,0,1-5.44-1.83A6.28,6.28,0,0,1,154,237.7a6.62,6.62,0,0,1,2.17-5.1,7.68,7.68,0,0,1,5.34-1.83,7.06,7.06,0,0,1,5.54,2.13,7.29,7.29,0,0,1,1.7,5.1v.3H158.13a3.59,3.59,0,0,0,.69,2.19,3.49,3.49,0,0,0,2.85,1.23A3.75,3.75,0,0,0,165,240ZM165,236a3.47,3.47,0,0,0-6.72,0Z"/><path class="cls-3" d="M171.83,231.19h4v1.68a5.36,5.36,0,0,1,4.39-2.1,5.71,5.71,0,0,1,4.2,1.59,5.15,5.15,0,0,1,1.11,3.66v8.16h-4V237.1a3.5,3.5,0,0,0-.76-2.55,2.69,2.69,0,0,0-1.87-.66,2.79,2.79,0,0,0-2.45,1.14,4.17,4.17,0,0,0-.63,2.52v6.63h-4Z"/><path class="cls-3" d="M210.9,240.55c-.43,1-2,4-7,4a7.84,7.84,0,0,1-5.44-1.83,6.25,6.25,0,0,1-2.23-5.07,6.66,6.66,0,0,1,2.16-5.1,7.68,7.68,0,0,1,5.34-1.83,7.06,7.06,0,0,1,5.54,2.13A7.31,7.31,0,0,1,211,238v.3H200.38a3.59,3.59,0,0,0,.69,2.19,3.48,3.48,0,0,0,2.85,1.23,3.74,3.74,0,0,0,3.31-1.71ZM207.23,236a3.47,3.47,0,0,0-6.72,0Z"/><path class="cls-3" d="M214.08,231.19h4v1.95a4.52,4.52,0,0,1,1.77-1.8,4.65,4.65,0,0,1,2.36-.57,5.34,5.34,0,0,1,1.7.3l-.52,3.42a3.23,3.23,0,0,0-1.87-.48,3.43,3.43,0,0,0-2.66,1.05,4.19,4.19,0,0,0-.78,2.88v6.24h-4Z"/><path class="cls-3" d="M230.63,234.31v9.87h-4v-9.87h-1.51v-3.12h1.51v-3.57A5.4,5.4,0,0,1,228.5,223,5.62,5.62,0,0,1,232,222a5.55,5.55,0,0,1,2.3.45v3.33a3,3,0,0,0-1.8-.54,1.65,1.65,0,0,0-1.45.66,4.07,4.07,0,0,0-.42,2.25v3.09h3.67v3.12Z"/><path class="cls-3" d="M247,231.19h4v13h-4V242.5a5.26,5.26,0,0,1-4.35,2.1,6.89,6.89,0,0,1-7.25-6.93,6.77,6.77,0,0,1,7.05-6.9,5.32,5.32,0,0,1,4.55,2.1Zm-7.47,6.48a3.95,3.95,0,1,0,3.94-3.66A3.73,3.73,0,0,0,239.54,237.67Z"/><path class="cls-3" d="M254.81,231.19h4v1.95a4.51,4.51,0,0,1,4.13-2.37,5.35,5.35,0,0,1,1.71.3l-.53,3.42a3.21,3.21,0,0,0-1.87-.48,3.42,3.42,0,0,0-2.65,1.05,4.2,4.2,0,0,0-.79,2.88v6.24h-4Z"/><path class="cls-3" d="M279.85,240.55c-.42,1-2,4-7,4a7.84,7.84,0,0,1-5.44-1.83,6.28,6.28,0,0,1-2.23-5.07,6.62,6.62,0,0,1,2.17-5.1,7.66,7.66,0,0,1,5.34-1.83,7.09,7.09,0,0,1,5.54,2.13A7.34,7.34,0,0,1,280,238v.3H269.33a3.59,3.59,0,0,0,.69,2.19,3.49,3.49,0,0,0,2.85,1.23,3.72,3.72,0,0,0,3.31-1.71ZM276.18,236a3.47,3.47,0,0,0-6.72,0Z"/><path class="cls-3" d="M283,231.19h4v1.68a5.34,5.34,0,0,1,4.39-2.1,5.71,5.71,0,0,1,4.2,1.59,5.15,5.15,0,0,1,1.11,3.66v8.16h-4V237.1a3.49,3.49,0,0,0-.75-2.55,2.71,2.71,0,0,0-1.87-.66,2.81,2.81,0,0,0-2.46,1.14,4.16,4.16,0,0,0-.62,2.52v6.63h-4Z"/><path class="cls-3" d="M308.17,231.19h4v1.95a4.52,4.52,0,0,1,1.77-1.8,4.65,4.65,0,0,1,2.36-.57,5.34,5.34,0,0,1,1.7.3l-.52,3.42a3.23,3.23,0,0,0-1.87-.48,3.43,3.43,0,0,0-2.66,1.05,4.19,4.19,0,0,0-.78,2.88v6.24h-4Z"/><path class="cls-3" d="M330.52,231.19h4v13h-4V242.5a5.26,5.26,0,0,1-4.36,2.1,6.88,6.88,0,0,1-7.24-6.93,6.77,6.77,0,0,1,7-6.9,5.32,5.32,0,0,1,4.56,2.1Zm-7.47,6.48A3.94,3.94,0,1,0,327,234,3.72,3.72,0,0,0,323.05,237.67Zm4-14.31a2.83,2.83,0,1,1-3.08,2.82A3,3,0,0,1,327,223.36Zm0,4a1.17,1.17,0,1,0-1.28-1.17A1.17,1.17,0,0,0,327,227.35Z"/><path class="cls-3" d="M349.2,222.31h4v21.87h-4V242.5a5.26,5.26,0,0,1-4.36,2.1,6.88,6.88,0,0,1-7.24-6.93,6.77,6.77,0,0,1,7-6.9,5.32,5.32,0,0,1,4.56,2.1Zm-7.47,15.36a3.94,3.94,0,1,0,3.93-3.66A3.72,3.72,0,0,0,341.73,237.67Z"/><path class="cls-3" d="M367.82,231.19h4v12.39c0,2-.19,4-2,5.67a8,8,0,0,1-5.61,1.83,8.2,8.2,0,0,1-5.31-1.5,7.08,7.08,0,0,1-2.29-3.87H361a3,3,0,0,0,1,1.56,3.76,3.76,0,0,0,2.42.69,3.55,3.55,0,0,0,2.43-.81,3.46,3.46,0,0,0,1-2.88v-1.83a5.14,5.14,0,0,1-4.36,2.16,7.08,7.08,0,0,1-4.92-1.77,6.85,6.85,0,0,1-2.26-5.16,6.93,6.93,0,0,1,2.19-5.16,7.34,7.34,0,0,1,4.89-1.74,5.12,5.12,0,0,1,4.46,2.1Zm-6.13,3.72a3.62,3.62,0,0,0-.23,5.31,4.05,4.05,0,0,0,2.88,1.14,4.27,4.27,0,0,0,2.66-.9,3.67,3.67,0,0,0,1.27-2.79,3.57,3.57,0,0,0-1.14-2.61,3.83,3.83,0,0,0-2.79-1.05A4,4,0,0,0,361.69,234.91Z"/><path class="cls-3" d="M377.61,223.51a2.2,2.2,0,1,1-2.39,2.19A2.32,2.32,0,0,1,377.61,223.51Zm2,7.68v13h-4v-13Z"/><path class="cls-3" d="M386,231.19l3.73,7.32,3.74-7.32H398l-7.15,13h-2.1l-7.14-13Z"/><path class="cls-3" d="M413.53,240.55c-.42,1-2,4-7,4a7.84,7.84,0,0,1-5.44-1.83,6.28,6.28,0,0,1-2.23-5.07,6.62,6.62,0,0,1,2.17-5.1,7.66,7.66,0,0,1,5.34-1.83,7.09,7.09,0,0,1,5.54,2.13,7.29,7.29,0,0,1,1.7,5.1v.3H403a3.59,3.59,0,0,0,.69,2.19,3.49,3.49,0,0,0,2.85,1.23,3.72,3.72,0,0,0,3.31-1.71ZM409.86,236a3.47,3.47,0,0,0-6.72,0Z"/><path class="cls-3" d="M416.71,231.19h4v1.95a4.59,4.59,0,0,1,1.77-1.8,4.65,4.65,0,0,1,2.36-.57,5.24,5.24,0,0,1,1.7.3l-.52,3.42a3.21,3.21,0,0,0-1.87-.48,3.41,3.41,0,0,0-2.65,1.05,4.14,4.14,0,0,0-.79,2.88v6.24h-4Z"/><path class="cls-3" d="M427.46,240l3.67.39-4.62,7.95-2.52-.27Z"/><path class="cls-3" d="M444.14,222.31h4v10.56a5.34,5.34,0,0,1,4.39-2.1,5.71,5.71,0,0,1,4.2,1.59,5.15,5.15,0,0,1,1.11,3.66v8.16h-4V237.1a3.49,3.49,0,0,0-.75-2.55,2.71,2.71,0,0,0-1.87-.66,2.81,2.81,0,0,0-2.46,1.14,4.16,4.16,0,0,0-.62,2.52v6.63h-4Z"/><path class="cls-3" d="M475.21,240.55c-.42,1-2,4-7,4a7.84,7.84,0,0,1-5.44-1.83,6.28,6.28,0,0,1-2.23-5.07,6.66,6.66,0,0,1,2.16-5.1,7.7,7.7,0,0,1,5.35-1.83,7.09,7.09,0,0,1,5.54,2.13,7.34,7.34,0,0,1,1.7,5.1v.3H464.69a3.59,3.59,0,0,0,.69,2.19,3.48,3.48,0,0,0,2.85,1.23,3.74,3.74,0,0,0,3.31-1.71ZM471.54,236a3.47,3.47,0,0,0-6.72,0Z"/><path class="cls-3" d="M482.39,222.31v21.87h-4V222.31Z"/><path class="cls-3" d="M490.19,234.31v9.87h-4v-9.87h-1.57v-3.12h1.57v-4.44h4v4.44h2.75v3.12Z"/><path class="cls-3" d="M513.55,231.19h4v13h-4V242.5a5.26,5.26,0,0,1-4.35,2.1,6.89,6.89,0,0,1-7.25-6.93,6.77,6.77,0,0,1,7.05-6.9,5.32,5.32,0,0,1,4.55,2.1Zm-7.47,6.48A3.95,3.95,0,1,0,510,234,3.73,3.73,0,0,0,506.08,237.67Z"/><path class="cls-3" d="M521.35,231.19h4v1.68a5.36,5.36,0,0,1,4.4-2.1,5.68,5.68,0,0,1,4.19,1.59,5.15,5.15,0,0,1,1.11,3.66v8.16h-4V237.1a3.5,3.5,0,0,0-.76-2.55,2.69,2.69,0,0,0-1.87-.66A2.79,2.79,0,0,0,526,235a4.17,4.17,0,0,0-.63,2.52v6.63h-4Z"/><path class="cls-3" d="M552,232.6a6.6,6.6,0,0,1,0,10.17,9.9,9.9,0,0,1-11.47,0,6.59,6.59,0,0,1,0-10.17,9.9,9.9,0,0,1,11.47,0Zm-1.74,5.1a4,4,0,1,0-4,3.66A3.8,3.8,0,0,0,550.26,237.7Z"/><path class="cls-3" d="M557.47,231.19h4v1.68a5.34,5.34,0,0,1,4.39-2.1,5.71,5.71,0,0,1,4.2,1.59,5.15,5.15,0,0,1,1.11,3.66v8.16h-4V237.1a3.49,3.49,0,0,0-.75-2.55,2.71,2.71,0,0,0-1.87-.66,2.81,2.81,0,0,0-2.46,1.14,4.16,4.16,0,0,0-.62,2.52v6.63h-4Z"/><path class="cls-3" d="M579.23,242.23l-6.75-11h4.66l4.39,7.38,3.93-7.38H590l-11.43,19.86H574Z"/><path class="cls-3" d="M592,231.19h4v1.47a5.44,5.44,0,0,1,4.23-1.89,4.74,4.74,0,0,1,4.49,2.37,5.29,5.29,0,0,1,4.55-2.37,4.67,4.67,0,0,1,3.84,1.59,5.14,5.14,0,0,1,1,3.66v8.16h-4V237.1a3.74,3.74,0,0,0-.65-2.55,2.12,2.12,0,0,0-1.64-.66,2.4,2.4,0,0,0-2.2,1.14,4.63,4.63,0,0,0-.56,2.52v6.63h-4V237.1a3.73,3.73,0,0,0-.66-2.55,2.11,2.11,0,0,0-1.64-.66,2.4,2.4,0,0,0-2.2,1.14,4.61,4.61,0,0,0-.55,2.52v6.63h-4Z"/><path class="cls-3" d="M621.84,234.31v9.87h-4v-9.87h-1.57v-3.12h1.57v-4.44h4v4.44h2.75v3.12Z"/><path class="cls-3" d="M628.39,240l3.67.39-4.62,7.95-2.52-.27Z"/><path class="cls-3" d="M649.07,232.87a5.72,5.72,0,0,1,4.62-2.1,6.66,6.66,0,0,1,7,6.9,6.75,6.75,0,0,1-7.07,6.93,5.58,5.58,0,0,1-4.53-2.1v1.68h-4V222.31h4Zm-.39,4.8a3.95,3.95,0,1,0,3.93-3.66A3.72,3.72,0,0,0,648.68,237.67Z"/><path class="cls-3" d="M674.64,231.19h4v13h-4V242.5a5.28,5.28,0,0,1-4.36,2.1,6.89,6.89,0,0,1-7.25-6.93,6.77,6.77,0,0,1,7.05-6.9,5.34,5.34,0,0,1,4.56,2.1Zm-7.48,6.48A3.95,3.95,0,1,0,671.1,234,3.73,3.73,0,0,0,667.16,237.67Zm4-14.31a2.83,2.83,0,1,1-3.08,2.82A3,3,0,0,1,671.13,223.36Zm0,4a1.17,1.17,0,1,0-1.28-1.17A1.18,1.18,0,0,0,671.13,227.35Z"/><path class="cls-3" d="M693.32,222.31h4v21.87h-4V242.5a5.27,5.27,0,0,1-4.36,2.1,6.89,6.89,0,0,1-7.25-6.93,6.78,6.78,0,0,1,7-6.9,5.34,5.34,0,0,1,4.56,2.1Zm-7.48,15.36a3.95,3.95,0,1,0,3.94-3.66A3.73,3.73,0,0,0,685.84,237.67Z"/><path class="cls-3" d="M715.05,240.55c-.43,1-2,4-7,4a7.84,7.84,0,0,1-5.44-1.83,6.28,6.28,0,0,1-2.23-5.07,6.62,6.62,0,0,1,2.17-5.1,7.68,7.68,0,0,1,5.34-1.83,7.06,7.06,0,0,1,5.54,2.13,7.29,7.29,0,0,1,1.7,5.1v.3H704.52a3.59,3.59,0,0,0,.69,2.19,3.49,3.49,0,0,0,2.85,1.23,3.75,3.75,0,0,0,3.32-1.71ZM711.38,236a3.47,3.47,0,0,0-6.72,0Z"/><path class="cls-3" d="M739,232.6a6.6,6.6,0,0,1,0,10.17,9.9,9.9,0,0,1-11.47,0,6.6,6.6,0,0,1,0-10.17,9.9,9.9,0,0,1,11.47,0Zm-1.74,5.1a4,4,0,1,0-4,3.66A3.79,3.79,0,0,0,737.26,237.7Z"/><path class="cls-3" d="M746.44,231.19l3.74,7.32,3.73-7.32h4.46l-7.14,13h-2.1l-7.15-13Z"/><path class="cls-3" d="M773.94,240.55c-.43,1-2,4-7,4a7.82,7.82,0,0,1-5.44-1.83,6.25,6.25,0,0,1-2.23-5.07,6.62,6.62,0,0,1,2.16-5.1,7.68,7.68,0,0,1,5.34-1.83,7.06,7.06,0,0,1,5.54,2.13A7.31,7.31,0,0,1,774,238v.3H763.42a3.59,3.59,0,0,0,.69,2.19,3.48,3.48,0,0,0,2.85,1.23,3.75,3.75,0,0,0,3.31-1.71ZM770.27,236a3.47,3.47,0,0,0-6.72,0Z"/><path class="cls-3" d="M777.12,231.19h4v1.95a4.51,4.51,0,0,1,4.13-2.37,5.35,5.35,0,0,1,1.71.3l-.53,3.42a3.17,3.17,0,0,0-1.86-.48,3.43,3.43,0,0,0-2.66,1.05,4.2,4.2,0,0,0-.79,2.88v6.24h-4Z"/><path class="cls-3" d="M800.55,234.31v9.87h-4v-9.87H795v-3.12h1.57v-4.44h4v4.44h2.75v3.12Z"/><path class="cls-3" d="M819.33,240.55c-.43,1-2,4-7,4a7.82,7.82,0,0,1-5.44-1.83,6.25,6.25,0,0,1-2.23-5.07,6.62,6.62,0,0,1,2.16-5.1,7.68,7.68,0,0,1,5.34-1.83,7.06,7.06,0,0,1,5.54,2.13,7.31,7.31,0,0,1,1.71,5.1v.3H808.81a3.59,3.59,0,0,0,.69,2.19,3.48,3.48,0,0,0,2.85,1.23,3.75,3.75,0,0,0,3.31-1.71ZM815.66,236a3.47,3.47,0,0,0-6.72,0Z"/><path class="cls-3" d="M826.5,222.31v21.87h-4V222.31Z"/><path class="cls-3" d="M844.24,240.55c-.43,1-2,4-7,4a7.84,7.84,0,0,1-5.44-1.83,6.28,6.28,0,0,1-2.23-5.07,6.62,6.62,0,0,1,2.17-5.1,7.68,7.68,0,0,1,5.34-1.83,7.07,7.07,0,0,1,5.54,2.13,7.29,7.29,0,0,1,1.7,5.1v.3H833.71a3.59,3.59,0,0,0,.69,2.19,3.49,3.49,0,0,0,2.85,1.23,3.72,3.72,0,0,0,3.31-1.71ZM840.56,236a3.47,3.47,0,0,0-6.72,0Z"/><path class="cls-3" d="M851.48,234.31v9.87h-4v-9.87H846v-3.12h1.51v-3.57a5.4,5.4,0,0,1,1.87-4.59,5.62,5.62,0,0,1,3.5-1.08,5.55,5.55,0,0,1,2.3.45v3.33a3,3,0,0,0-1.81-.54,1.64,1.64,0,0,0-1.44.66,4.07,4.07,0,0,0-.42,2.25v3.09h3.67v3.12Z"/><path class="cls-3" d="M870.13,232.6a6.6,6.6,0,0,1,0,10.17,9.92,9.92,0,0,1-11.48,0,6.6,6.6,0,0,1,0-10.17,9.92,9.92,0,0,1,11.48,0Zm-1.74,5.1a4,4,0,1,0-4,3.66A3.8,3.8,0,0,0,868.39,237.7Z"/><path class="cls-3" d="M875.6,231.19h4v1.68a5.33,5.33,0,0,1,4.39-2.1,5.68,5.68,0,0,1,4.19,1.59A5.11,5.11,0,0,1,889.3,236v8.16h-4V237.1a3.49,3.49,0,0,0-.75-2.55,2.72,2.72,0,0,0-1.87-.66,2.81,2.81,0,0,0-2.46,1.14,4.16,4.16,0,0,0-.62,2.52v6.63h-4Z"/><path class="cls-3" d="M907,240.55c-.43,1-2,4-7,4a7.82,7.82,0,0,1-5.44-1.83,6.25,6.25,0,0,1-2.23-5.07,6.62,6.62,0,0,1,2.16-5.1,7.68,7.68,0,0,1,5.34-1.83,7.06,7.06,0,0,1,5.54,2.13,7.31,7.31,0,0,1,1.71,5.1v.3H896.51a3.59,3.59,0,0,0,.69,2.19,3.48,3.48,0,0,0,2.85,1.23,3.75,3.75,0,0,0,3.31-1.71ZM903.36,236a3.47,3.47,0,0,0-6.72,0Z"/><path class="cls-3" d="M910.21,231.19h4v1.68a5.36,5.36,0,0,1,4.4-2.1,5.68,5.68,0,0,1,4.19,1.59,5.11,5.11,0,0,1,1.12,3.66v8.16h-4V237.1a3.46,3.46,0,0,0-.76-2.55,2.69,2.69,0,0,0-1.86-.66,2.81,2.81,0,0,0-2.46,1.14,4.17,4.17,0,0,0-.63,2.52v6.63h-4Z"/><path class="cls-3" d="M929.41,240l3.67.39-4.62,7.95-2.52-.27Z"/><path class="cls-3" d="M950.09,251.05h-4V231.19h4v1.68a5.54,5.54,0,0,1,4.62-2.1,7.14,7.14,0,0,1,4.85,1.74,7.3,7.3,0,0,1-.1,10.41,7.31,7.31,0,0,1-4.81,1.68,5.58,5.58,0,0,1-4.56-2.1Zm.95-16.17a3.34,3.34,0,0,0-1.34,2.79,3.54,3.54,0,0,0,1.31,2.82,4.07,4.07,0,0,0,2.62.87,4,4,0,0,0,2.69-.93,3.65,3.65,0,0,0,1.24-2.76,3.73,3.73,0,0,0-1.21-2.73,4.41,4.41,0,0,0-2.72-.93A3.82,3.82,0,0,0,951,234.88Z"/><path class="cls-3" d="M975.65,231.19h4v13h-4V242.5a5.26,5.26,0,0,1-4.35,2.1,6.89,6.89,0,0,1-7.25-6.93,6.77,6.77,0,0,1,7.05-6.9,5.32,5.32,0,0,1,4.55,2.1Zm-7.47,6.48a3.95,3.95,0,1,0,3.93-3.66A3.72,3.72,0,0,0,968.18,237.67Zm4-14.31a2.83,2.83,0,1,1-3.08,2.82A3,3,0,0,1,972.15,223.36Zm0,4a1.17,1.17,0,1,0-1.28-1.17A1.17,1.17,0,0,0,972.15,227.35Z"/><path class="cls-3" d="M96.1,271.15A4.89,4.89,0,0,0,92.82,270a3.65,3.65,0,0,0-4,3.66c0,2.13,1.74,3.69,4.13,3.69a4.92,4.92,0,0,0,3.15-1.14v3.57a8.76,8.76,0,0,1-3.68.81A8.45,8.45,0,0,1,87,278.71a6.43,6.43,0,0,1-2.26-5,6.69,6.69,0,0,1,2.46-5.28,8,8,0,0,1,5.11-1.68,9.14,9.14,0,0,1,3.84.78Z"/><path class="cls-3" d="M99.11,258.31h4v10.56a5.34,5.34,0,0,1,4.39-2.1,5.71,5.71,0,0,1,4.2,1.59,5.15,5.15,0,0,1,1.11,3.66v8.16h-4V273.1a3.49,3.49,0,0,0-.75-2.55,2.71,2.71,0,0,0-1.87-.66,2.81,2.81,0,0,0-2.46,1.14,4.16,4.16,0,0,0-.62,2.52v6.63h-4Z"/><path class="cls-3" d="M127.49,267.19h4v13h-4V278.5a5.26,5.26,0,0,1-4.36,2.1,6.88,6.88,0,0,1-7.24-6.93,6.77,6.77,0,0,1,7-6.9,5.32,5.32,0,0,1,4.55,2.1ZM120,273.67A3.95,3.95,0,1,0,124,270,3.72,3.72,0,0,0,120,273.67Z"/><path class="cls-3" d="M139.29,270.31v9.87h-4v-9.87h-1.57v-3.12h1.57v-4.44h4v4.44H142v3.12Z"/><path class="cls-3" d="M165.71,276.55c-.43,1-2,4.05-7,4.05a7.84,7.84,0,0,1-5.44-1.83,6.28,6.28,0,0,1-2.23-5.07,6.62,6.62,0,0,1,2.17-5.1,7.68,7.68,0,0,1,5.34-1.83,7.06,7.06,0,0,1,5.54,2.13,7.29,7.29,0,0,1,1.7,5.1v.3H155.18a3.59,3.59,0,0,0,.69,2.19,3.49,3.49,0,0,0,2.85,1.23A3.75,3.75,0,0,0,162,276ZM162,272a3.47,3.47,0,0,0-6.72,0Z"/><path class="cls-3" d="M172.88,258.31v21.87h-4V258.31Z"/><path class="cls-3" d="M180.68,258.31v21.87h-4V258.31Z"/><path class="cls-3" d="M198.41,276.55c-.42,1-2,4.05-7,4.05a7.84,7.84,0,0,1-5.44-1.83,6.28,6.28,0,0,1-2.23-5.07,6.66,6.66,0,0,1,2.16-5.1,7.7,7.7,0,0,1,5.35-1.83,7.09,7.09,0,0,1,5.54,2.13,7.34,7.34,0,0,1,1.7,5.1v.3H187.89a3.59,3.59,0,0,0,.69,2.19,3.49,3.49,0,0,0,2.85,1.23,3.72,3.72,0,0,0,3.31-1.71ZM194.74,272a3.47,3.47,0,0,0-6.72,0Z"/><path class="cls-3" d="M201.59,267.19h4v1.95a4.52,4.52,0,0,1,1.77-1.8,4.65,4.65,0,0,1,2.36-.57,5.29,5.29,0,0,1,1.7.3l-.52,3.42A3.23,3.23,0,0,0,209,270a3.41,3.41,0,0,0-2.65,1.05,4.14,4.14,0,0,0-.79,2.88v6.24h-4Z"/><path class="cls-3" d="M223.65,267.19l3.73,7.32,3.74-7.32h4.46l-7.15,13h-2.1l-7.14-13Z"/><path class="cls-3" d="M239.54,259.51a2.2,2.2,0,1,1-2.39,2.19A2.31,2.31,0,0,1,239.54,259.51Zm2,7.68v13h-4v-13Z"/><path class="cls-3" d="M256.22,267.19h4v13h-4V278.5a5.26,5.26,0,0,1-4.36,2.1,6.88,6.88,0,0,1-7.24-6.93,6.77,6.77,0,0,1,7-6.9,5.32,5.32,0,0,1,4.55,2.1Zm-7.47,6.48a3.95,3.95,0,1,0,3.93-3.66A3.72,3.72,0,0,0,248.75,273.67Z"/><path class="cls-3" d="M275.66,268.87a5.72,5.72,0,0,1,4.62-2.1,6.67,6.67,0,0,1,7,6.9,6.75,6.75,0,0,1-7.08,6.93,5.56,5.56,0,0,1-4.52-2.1v1.68h-4V258.31h4Zm-.4,4.8A3.95,3.95,0,1,0,279.2,270,3.73,3.73,0,0,0,275.26,273.67Z"/><path class="cls-3" d="M290.34,267.19h4v1.95a4.52,4.52,0,0,1,1.77-1.8,4.65,4.65,0,0,1,2.36-.57,5.29,5.29,0,0,1,1.7.3l-.52,3.42a3.23,3.23,0,0,0-1.87-.48,3.43,3.43,0,0,0-2.66,1.05,4.19,4.19,0,0,0-.78,2.88v6.24h-4Z"/><path class="cls-3" d="M315.38,276.55c-.43,1-2,4.05-7,4.05a7.82,7.82,0,0,1-5.44-1.83,6.25,6.25,0,0,1-2.23-5.07,6.62,6.62,0,0,1,2.16-5.1,7.68,7.68,0,0,1,5.34-1.83,7.06,7.06,0,0,1,5.54,2.13,7.31,7.31,0,0,1,1.71,5.1v.3H304.86a3.59,3.59,0,0,0,.69,2.19,3.48,3.48,0,0,0,2.85,1.23,3.75,3.75,0,0,0,3.31-1.71ZM311.71,272a3.47,3.47,0,0,0-6.72,0Z"/><path class="cls-3" d="M320.85,267.19l3.74,7.32,3.73-7.32h4.46l-7.14,13h-2.1l-7.15-13Z"/><path class="cls-3" d="M338.74,258.31v13.62l5.31-4.74h5.18l-6.65,5.7,7.18,7.29h-5.31l-5.28-5.55-.43.36v5.19h-4V258.31Z"/><path class="cls-3" d="M362.41,267.19h4v13h-4V278.5a5.27,5.27,0,0,1-4.36,2.1,6.89,6.89,0,0,1-7.25-6.93,6.78,6.78,0,0,1,7.05-6.9,5.34,5.34,0,0,1,4.56,2.1Zm-7.48,6.48a3.95,3.95,0,1,0,3.94-3.66A3.73,3.73,0,0,0,354.93,273.67Z"/><path class="cls-3" d="M377.94,270.28a3.5,3.5,0,0,0-2.33-.87c-.95,0-1.54.42-1.54,1,0,.33.17.84,1.28,1.17l.95.27a7.46,7.46,0,0,1,3.61,1.86,3.59,3.59,0,0,1,.72,2.16,4.17,4.17,0,0,1-1.57,3.3,6.32,6.32,0,0,1-4.26,1.38,7.47,7.47,0,0,1-5.51-2.16l2.1-2.22a4.51,4.51,0,0,0,3.14,1.5c1.12,0,2-.51,2-1.41s-.72-1.14-1.25-1.32l-.91-.3a7.84,7.84,0,0,1-3-1.56,3.32,3.32,0,0,1-1.08-2.49,3.73,3.73,0,0,1,1.47-2.94,6.28,6.28,0,0,1,3.7-.93,7.55,7.55,0,0,1,4.53,1.38Z"/><path class="cls-3" d="M390.53,270.28a3.5,3.5,0,0,0-2.33-.87c-.95,0-1.54.42-1.54,1,0,.33.16.84,1.28,1.17l.95.27a7.47,7.47,0,0,1,3.6,1.86,3.52,3.52,0,0,1,.72,2.16,4.14,4.14,0,0,1-1.57,3.3,6.3,6.3,0,0,1-4.26,1.38,7.48,7.48,0,0,1-5.51-2.16l2.1-2.22a4.56,4.56,0,0,0,3.15,1.5c1.11,0,2-.51,2-1.41s-.73-1.14-1.25-1.32l-.92-.3a8,8,0,0,1-3.05-1.56,3.36,3.36,0,0,1-1.08-2.49,3.74,3.74,0,0,1,1.48-2.94,6.24,6.24,0,0,1,3.7-.93,7.52,7.52,0,0,1,4.52,1.38Z"/><path class="cls-3" d="M410,276.55c-.42,1-2,4.05-7,4.05a7.84,7.84,0,0,1-5.44-1.83,6.28,6.28,0,0,1-2.23-5.07,6.66,6.66,0,0,1,2.16-5.1,7.7,7.7,0,0,1,5.35-1.83,7.09,7.09,0,0,1,5.54,2.13,7.34,7.34,0,0,1,1.7,5.1v.3H399.44a3.59,3.59,0,0,0,.69,2.19,3.48,3.48,0,0,0,2.85,1.23,3.74,3.74,0,0,0,3.31-1.71ZM406.29,272a3.47,3.47,0,0,0-6.72,0Z"/><path class="cls-3" d="M416.38,275.89a2.35,2.35,0,1,1-2.55,2.34A2.42,2.42,0,0,1,416.38,275.89Z"/></g></svg>
