<svg id="Layer_1" data-name="Layer 1" xmlns="http://www.w3.org/2000/svg" width="1920" height="1080" viewBox="0 0 1920 1080"><defs><style>.cls-1{fill:#35313b;}</style></defs><title>Artboard 4</title><rect class="cls-1" width="1920" height="1080"/><path d="M541.3,148.34h29v2.32a47.86,47.86,0,0,1-1.86,14,29.77,29.77,0,0,1-6.13,10.54q-9.76,11-24.84,11a34.15,34.15,0,0,1-25.21-10.63,36.63,36.63,0,0,1,.19-51.49,36.87,36.87,0,0,1,41.32-7.31,44.33,44.33,0,0,1,13.4,10.89l-7.54,7.22q-8.62-11.47-21-11.48A25.09,25.09,0,0,0,519.91,131a25.61,25.61,0,0,0-7.54,18.89,24.86,24.86,0,0,0,8.4,19.3q7.86,7,17,7a21.15,21.15,0,0,0,14-5.27,18.71,18.71,0,0,0,6.95-12.71H541.3Z"/><path d="M621.58,167.82h-30l-7.81,17h-11.4l34.69-74.52,33.47,74.52H628.94Zm-4.31-9.94L606.87,134,596,157.88Z"/><path d="M646.83,184.85l14.76-75.38L685.66,164l24.93-54.49,13.26,75.38H713l-6.76-42.32-20.76,45.55-20.16-45.6-7.54,42.37Z"/><path d="M777.38,124.68h-28.1v16.85h27.29v9.94H749.28v23.44h28.1v9.94H738.7V114.74h38.68Z"/><path d="M787.78,149.48a34.32,34.32,0,0,1,10.86-25.43,35.69,35.69,0,0,1,26-10.63,36.69,36.69,0,0,1,36.47,36.46,34.48,34.48,0,0,1-10.81,25.66,37.05,37.05,0,0,1-50.59,1.18Q787.79,166.33,787.78,149.48Zm10.68.13q0,11.63,7.81,19.12a25.87,25.87,0,0,0,36.55-.14,27.22,27.22,0,0,0,.09-37.6,24.74,24.74,0,0,0-18.43-7.62A25,25,0,0,0,806,131,25.33,25.33,0,0,0,798.46,149.61Z"/><path d="M874.83,114.74l19.4,48.59,19.66-48.59h11.58L894,190.12l-30.74-75.38Z"/><path d="M972.88,124.68H944.77v16.85h27.29v9.94H944.77v23.44h28.11v9.94H934.19V114.74h38.69Z"/><path d="M1010.52,155l21.71,29.88h-13l-20-28.7h-1.91v28.7H986.77V114.74h12.4q13.89,0,20.07,5.22a19.19,19.19,0,0,1,6.81,15.35,19.89,19.89,0,0,1-4.27,12.8A19,19,0,0,1,1010.52,155Zm-13.17-8h3.36q15,0,15-11.48,0-10.77-14.62-10.77h-3.77Z"/><path d="M1111.1,125.18l-8.58,5.09c-1.6-2.79-3.13-4.6-4.58-5.45a12.22,12.22,0,0,0-13.17,1,7.76,7.76,0,0,0-2.91,6.18q0,5.13,7.63,8.26l7,2.86q8.54,3.45,12.49,8.43a19,19,0,0,1,4,12.19,21.43,21.43,0,0,1-6.45,16,22.16,22.16,0,0,1-16.12,6.35q-9.12,0-15.07-5.4T1068,165.51l10.72-2.37c.49,4.12,1.33,7,2.54,8.54q3.27,4.55,9.54,4.54a11.06,11.06,0,0,0,8.22-3.31,11.47,11.47,0,0,0,3.27-8.4,11.75,11.75,0,0,0-.57-3.75,9.47,9.47,0,0,0-1.77-3.13,13.9,13.9,0,0,0-3.11-2.68,30.68,30.68,0,0,0-4.54-2.39l-6.77-2.81q-14.38-6.09-14.39-17.8a16.9,16.9,0,0,1,6-13.22,21.8,21.8,0,0,1,15-5.35Q1104.29,113.38,1111.1,125.18Z"/><path d="M1136.26,142.71l27.29-28h14.13L1146,146.48l31.88,38.37h-14.17l-25.25-31.2-2.18,2.18v29h-10.58V114.74h10.58Z"/><path d="M1229,168.09H1199.2l-7.67,16.76H1180l33.69-70.11h31l4.4,9.94h-27.93l7.4,17h27.16l4.45,9.94h-27.2l10,23.3h28l4.27,9.94h-38.87Zm-4.22-9.94-10-23-10.81,23Z"/><path d="M1308.46,155l21.7,29.88h-12.94l-20-28.7h-1.9v28.7h-10.58V114.74h12.39q13.9,0,20.08,5.22a19.19,19.19,0,0,1,6.81,15.35,19.94,19.94,0,0,1-4.27,12.8A19,19,0,0,1,1308.46,155Zm-13.17-8h3.36q15,0,15-11.48,0-10.77-14.62-10.77h-3.77Z"/><path d="M1338.25,184.85,1353,109.47,1377.07,164,1402,109.47l13.26,75.38h-10.85l-6.77-42.32-20.75,45.55-20.16-45.6-7.54,42.37Z"/></svg>
