<?xml version="1.0" encoding="utf-8"?>
<!-- Generator: Adobe Illustrator 22.1.0, SVG Export Plug-In . SVG Version: 6.00 Build 0)  -->
<svg version="1.1" id="Layer_1" xmlns="http://www.w3.org/2000/svg" xmlns:xlink="http://www.w3.org/1999/xlink" x="0px" y="0px"
	 viewBox="0 0 1581 707" style="enable-background:new 0 0 1581 707;" xml:space="preserve">
<style type="text/css">
	.st0{fill:#2C622E;}
	.st1{fill:#2C6E2E;}
	.st2{fill:#4F4F4F;}
	.st3{fill:#FFFFFF;}
	.st4{fill:#16532E;}
	.st5{fill:#B3622E;}
	.st6{fill:#F4912D;}
	.st7{fill:#89CCE5;}
	.st8{fill:#89A2E5;}
	.st9{fill:#F4772D;}
	.st10{fill:#152230;}
	.st11{fill:#E9ECED;}
</style>
<path class="st0" d="M912,296.9c130.6-15.2,380-8.5,441,52.8S1149,533,1019,488.6S671,325,912,296.9z"/>
<path class="st1" d="M1239.5,466.2c-262.9-92.3-517.1-221.5-740.8-211.8C275,264.1,35,375.8,36,518.5s51,146.2,139,150.6
	s971-5.3,1115-56.7C1434,561,1512,561.9,1239.5,466.2z"/>
<path class="st2" d="M1469.6,698.5H36c-16.7,0-27.3-17.8-19.3-32.3l52.3-94.4c3.9-7,11.2-11.3,29-11.3h1433.6
	c7,0,17.6,17.8,9.5,32.3l-52.3,94.4C1485,694.2,1477.7,698.5,1469.6,698.5z"/>
<g>
	<path d="M1482.2,682H37.8C24.7,682,14,672,14,659.7c0-4,1.1-7.9,3.3-11.3L54.5,589c4.3-6.8,12.1-11,20.5-11h1453.3
		c13.2,0,23.8,10,23.8,22.3c0,4.5-1.4,8.8-4.1,12.5l-41.4,57C1501.2,677.4,1492,682,1482.2,682z"/>
	<path class="st3" d="M1086.1,639H949.5c-6.2,0-11.2-4.7-11.2-10.5c0-2.3,0.8-4.5,2.3-6.4l0,0c2.1-2.6,5.4-4.1,8.9-4.1h136.6
		c6.2,0,11.2,4.7,11.2,10.5c0,2.4-0.9,4.7-2.5,6.6l0,0C1092.7,637.6,1089.5,639,1086.1,639z"/>
	<path class="st3" d="M873.4,639H736.9c-6.2,0-11.2-4.7-11.2-10.5c0-2.3,0.8-4.5,2.3-6.4l0,0c2.1-2.6,5.4-4.1,8.9-4.1h136.6
		c6.2,0,11.2,4.7,11.2,10.5c0,2.4-0.9,4.7-2.5,6.6l0,0C880,637.6,876.8,639,873.4,639z"/>
	<path class="st3" d="M665.1,639H528.5c-6.2,0-11.2-4.7-11.2-10.5c0-2.3,0.8-4.5,2.3-6.4l0,0c2.1-2.6,5.4-4.1,8.9-4.1h136.6
		c6.2,0,11.2,4.7,11.2,10.5c0,2.4-0.9,4.7-2.5,6.6l0,0C671.7,637.6,668.5,639,665.1,639z"/>
	<path class="st3" d="M461,639H324.4c-6.2,0-11.2-4.7-11.2-10.5c0-2.3,0.8-4.5,2.3-6.4l0,0c2.1-2.6,5.4-4.1,8.9-4.1H461
		c6.2,0,11.2,4.7,11.2,10.5c0,2.4-0.9,4.7-2.5,6.6l0,0C467.6,637.6,464.4,639,461,639z"/>
	<path class="st3" d="M252.6,639H116c-6.2,0-11.2-4.7-11.2-10.5c0-2.3,0.8-4.5,2.3-6.4l0,0c2.1-2.6,5.4-4.1,8.9-4.1h136.6
		c6.2,0,11.2,4.7,11.2,10.5c0,2.4-0.9,4.7-2.5,6.6l0,0C259.2,637.6,256,639,252.6,639z"/>
	<path class="st3" d="M50.1,639H22.9l12.8-21h20c4.4,0,7.9,3.3,8,7.4c0,1.4-0.4,2.8-1.2,3.9l-3.3,5C57.2,637.2,53.8,639,50.1,639z"
		/>
	<path class="st3" d="M1297.7,640h-136.6c-6.2,0-11.2-4.7-11.2-10.5c0-2.3,0.8-4.5,2.3-6.4l0,0c2.1-2.6,5.4-4.1,8.9-4.1h136.6
		c6.2,0,11.2,4.7,11.2,10.5c0,2.4-0.9,4.7-2.5,6.6l0,0C1304.3,638.6,1301.1,640,1297.7,640z"/>
	<path class="st3" d="M1502.8,641h-136.6c-6.2,0-11.2-4.7-11.2-10.5c0-2.3,0.8-4.5,2.3-6.4l0,0c2.1-2.6,5.4-4.1,8.9-4.1h136.6
		c6.2,0,11.2,4.7,11.2,10.5c0,2.4-0.9,4.7-2.5,6.6l0,0C1509.4,639.6,1506.2,641,1502.8,641z"/>
</g>
<path class="st4" d="M911.8,408.2c0.1-0.5,0.2-1,0.2-1.5c0-7-10.3-12.6-23-12.6c-3.5,0-6.9,0.4-9.8,1.2c-0.7-0.9-1.5-1.8-2.4-2.6
	c0.1-0.8,0.2-1.6,0.2-2.4c0-10.9-12.2-19.8-27.1-19.8c-5.1,0-9.9,1-14,2.8c-5.3-10.1-15.1-16.8-26.3-16.8
	c-16.8,0-30.5,15.1-30.5,33.8c0,0.4,0,0.8,0,1.1c-1.1-0.3-2.2-0.6-3.3-0.8c-12.5-2.1-24.3,6.3-26.5,18.8c-1.4,8.4,1.9,16.5,8.1,21.6
	c-1.7,1.6-3,3.4-4.1,5.3c-15.6,1.5-27.7,10.2-27.7,20.8c0,11.6,14.5,21,32.4,21c3.5,0,6.9-0.4,10-1c3.5,9.2,15.2,16,29,16
	c4.8,0,9.3-0.8,13.4-2.3c4.9,3,10.6,4.8,16.7,4.8c8.3,0,15.9-3.2,21.6-8.5c5.9,5.3,13.6,8.5,22.1,8.5c18.2,0,33-14.8,33-33
	c0-4.1-0.7-8-2.1-11.6c0.7,0.1,1.4,0.1,2.1,0.1c12.2,0,22.2-9.9,22.2-22.2C926,419.4,920.1,411.4,911.8,408.2z"/>
<rect x="331.3" y="231" class="st5" width="37.4" height="121.5"/>
<path class="st0" d="M435,183.8c0-8.1-10.5-14.8-23.4-14.8c-3.2,0-6.2,0.4-9,1.1c-1.1-2.6-2.3-5-3.7-7.3c2.1-3.1,3.4-7,3.4-11.3
	c0-9.7-6.3-17.5-14.1-17.5c-6,0-11.2,4.7-13.2,11.4c-0.3,0-0.6-0.1-0.9-0.1c0-0.1,0-0.1,0-0.2c0-13.3-9-24-20-24
	c-5.9,0-11.1,3-14.8,7.8c-3.5-4.7-9.1-7.8-15.5-7.8c-10.6,0-19.3,8.6-19.3,19.3c0,2.6,0.5,5.1,1.5,7.4c-3.1-1.1-6.7-1.7-10.5-1.7
	c-12.4,0-22.5,6.7-22.5,14.9c0,4.9,3.6,9.3,9.1,12c0,0,0,0,0,0.1c-5.5,3-9.1,8-9.1,13.9c0,7.3,5.8,13.6,13.8,15.7
	c-0.5,1.4-0.8,3-0.8,4.6c0,7.7,6.3,14,14,14c0,0,0,0,0,0c0,0.5,0,1.1,0,1.6c0,15.8,7.6,28.7,17,28.7c4.2,0,8-2.6,11-6.8
	c4.2,7.4,11.2,12.3,19.2,12.3c9.1,0,17-6.4,20.9-15.8c0.8,0.1,1.7,0.1,2.5,0.1c11.9,0,22.6-7.6,29.2-19.3c11.4-1.1,20.3-9,20.3-18.6
	c0-1.9-0.4-3.8-1-5.5C428.3,195.8,435,190.3,435,183.8z"/>
<g>
	<polygon class="st6" points="1468.5,169 1565.5,140.5 1412.5,4 1324.5,17.5 1130,168.5 	"/>
	<rect x="1130" y="168.5" class="st7" width="342" height="392"/>
	<polygon class="st8" points="1565,517.5 1472,560.5 1472,168.5 1566,140.5 	"/>
	<polygon class="st9" points="1566.5,141 1472.5,169 1324.5,18 1412.5,4 	"/>
	<path class="st10" d="M1260.7,419h32.5c17.3,0,31.2,14,31.2,31.2v78.5c0,17.3-14,31.2-31.2,31.2h-32.5c-17.3,0-31.2-14-31.2-31.2
		v-78.5C1229.5,433,1243.5,419,1260.7,419z"/>
	<path class="st11" d="M1187.3,203h30.4c14.8,0,26.8,12,26.8,26.8v30.4c0,14.8-12,26.8-26.8,26.8h-30.4c-14.8,0-26.8-12-26.8-26.8
		v-30.4C1160.5,215,1172.5,203,1187.3,203z"/>
	<path class="st11" d="M1375.5,203h28c15.5,0,28,12.5,28,28v28c0,15.5-12.5,28-28,28h-28c-15.5,0-28-12.5-28-28v-28
		C1347.5,215.5,1360,203,1375.5,203z"/>
	<circle class="st6" cx="1244.5" cy="487" r="6"/>
</g>
</svg>
