<svg xmlns="http://www.w3.org/2000/svg" width="1086.83" height="416.54" viewBox="0 0 1086.83 416.54"><defs><style>.cls-1{fill:#2a303b;}.cls-2{fill:#fd9128;}.cls-3{fill:#fff;}</style></defs><title>level_complete_text</title><g id="Level_complete" data-name="Level complete"><rect class="cls-1" width="1086.83" height="416.54" rx="53.1" ry="53.1"/><rect class="cls-2" x="83.51" y="376.92" width="324.4" height="3.62" rx="1.81" ry="1.81"/><path class="cls-3" d="M96.62,32.16c4.88,0,9.13.48,13,3.12a15.42,15.42,0,0,1,6.71,12.92,14.88,14.88,0,0,1-7,12.91c-4.09,2.64-7.92,3.07-12.79,3.07h-9v-32ZM94.31,58.8h2.1c1.73,0,5.51-.09,8.55-2.11a10.09,10.09,0,0,0,4.35-8.49,10.33,10.33,0,0,0-4.3-8.55c-2.83-1.92-6.29-2.11-8.6-2.11h-2.1Z"/><path class="cls-3" d="M144,58.37c-.68,1.54-3.25,6.48-11.17,6.48a12.5,12.5,0,0,1-8.7-2.93,10,10,0,0,1-3.57-8.11A10.64,10.64,0,0,1,124,45.65a12.3,12.3,0,0,1,8.55-2.93c4.62,0,7.29,1.68,8.86,3.41a11.66,11.66,0,0,1,2.73,8.16v.48h-17a5.82,5.82,0,0,0,1.1,3.51,5.59,5.59,0,0,0,4.56,2,6,6,0,0,0,5.3-2.73ZM138.1,51a5.55,5.55,0,0,0-10.75,0Z"/><path class="cls-3" d="M152.26,31.11a3.69,3.69,0,0,1,3.83,3.5,3.85,3.85,0,0,1-7.66,0A3.69,3.69,0,0,1,152.26,31.11Zm3.2,12.28V75.17h-6.4V43.39Z"/><path class="cls-3" d="M167.94,29.19v35h-6.4v-35Z"/><path class="cls-3" d="M177.22,31.11a3.69,3.69,0,0,1,3.82,3.5,3.84,3.84,0,0,1-7.65,0A3.69,3.69,0,0,1,177.22,31.11Zm3.2,12.28V64.18H174V43.39Z"/><path class="cls-3" d="M203.8,43.39h6.4V63.22c0,3.17-.31,6.48-3.15,9.07-1.57,1.44-4.3,2.93-9,2.93-4.41,0-7-1.2-8.5-2.4a11.26,11.26,0,0,1-3.67-6.19h6.92a4.83,4.83,0,0,0,1.58,2.49,6,6,0,0,0,3.88,1.11,5.7,5.7,0,0,0,3.88-1.3c1.47-1.29,1.62-2.93,1.62-4.61V61.4a8.2,8.2,0,0,1-7,3.45A11.3,11.3,0,0,1,189,62a11.33,11.33,0,0,1-.1-16.51,11.66,11.66,0,0,1,7.81-2.79c4.25,0,6.24,2.11,7.13,3.36Zm-9.8,6a5.78,5.78,0,0,0-.37,8.49,6.47,6.47,0,0,0,4.61,1.83,6.79,6.79,0,0,0,4.25-1.44,5.91,5.91,0,0,0,2-4.47,5.66,5.66,0,0,0-1.84-4.17,6.12,6.12,0,0,0-4.46-1.68A6.41,6.41,0,0,0,194,49.35Z"/><path class="cls-3" d="M222.68,48.39V64.18h-6.4V48.39h-2.52v-5h2.52v-7.1h6.4v7.1h4.41v5Z"/><path class="cls-3" d="M234,57.32a3.75,3.75,0,1,1-4.09,3.74A3.87,3.87,0,0,1,234,57.32Zm-3.26-2.88V32.16h6.51V54.44Z"/><path class="cls-3" d="M263.63,32.16v32h-6.81v-32Z"/><path class="cls-3" d="M289.38,48.39V64.18H283V48.39h-2.41v-5H283V38.21c0-2.16-.05-4,1.68-6.14s4.72-3.46,9.07-3.46c2.89,0,7.08.58,9.18,3.46a9.18,9.18,0,0,1,1.57,6.14V39.6h-6.39V38.35a4.81,4.81,0,0,0-.69-2.88,5,5,0,0,0-7.29,0,5.23,5.23,0,0,0-.73,2.88v5h5.87v5Zm15.1-5V64.18h-6.39V43.39Z"/><path class="cls-3" d="M317,29.19V51l8.5-7.59h8.29L323.1,52.52l11.48,11.66h-8.49l-8.45-8.88-.68.57v8.31h-6.4v-35Z"/><path class="cls-3" d="M362,48.34A5.58,5.58,0,0,0,358.28,47c-1.52,0-2.46.67-2.46,1.68,0,.52.26,1.34,2,1.87l1.53.43c1.78.53,4.45,1.35,5.76,3a5.61,5.61,0,0,1,1.16,3.45,6.62,6.62,0,0,1-2.52,5.28A10.07,10.07,0,0,1,357,64.85a12,12,0,0,1-8.81-3.45l3.36-3.56a7.25,7.25,0,0,0,5,2.4c1.79,0,3.15-.81,3.15-2.25s-1.15-1.83-2-2.12l-1.47-.47a12.55,12.55,0,0,1-4.88-2.5,5.33,5.33,0,0,1-1.73-4,6,6,0,0,1,2.36-4.7,10,10,0,0,1,5.93-1.49,12,12,0,0,1,7.23,2.21Z"/><path class="cls-3" d="M370.82,43.39h6.39v2.69a8.58,8.58,0,0,1,7-3.36c2,0,4.93.53,6.71,2.55a8.18,8.18,0,0,1,1.79,5.85V64.18h-6.4V52.85c0-1.15,0-3-1.21-4.08a4.33,4.33,0,0,0-3-1.06,4.48,4.48,0,0,0-3.93,1.83,6.68,6.68,0,0,0-1,4V64.18h-6.39Z"/><path class="cls-3" d="M416.23,43.39h6.4V64.18h-6.4V61.49a8.42,8.42,0,0,1-7,3.36c-7,0-11.59-5-11.59-11.09a10.84,10.84,0,0,1,11.28-11,8.54,8.54,0,0,1,7.29,3.36Zm-12,10.37a6.31,6.31,0,0,0,12.59,0c0-3.31-2.62-5.85-6.3-5.85S404.27,50.45,404.27,53.76Z"/><path class="cls-3" d="M435.11,29.19V51l8.49-7.59h8.29l-10.65,9.13,11.49,11.66h-8.5l-8.44-8.88-.68.57v8.31h-6.4v-35Z"/><path class="cls-3" d="M462,29.19V51l8.5-7.59h8.29l-10.65,9.13,11.49,11.66h-8.5l-8.44-8.88-.69.57v8.31h-6.39v-35Z"/><path class="cls-3" d="M504.12,58.37c-.68,1.54-3.26,6.48-11.17,6.48a12.55,12.55,0,0,1-8.71-2.93,10,10,0,0,1-3.57-8.11,10.61,10.61,0,0,1,3.47-8.16,12.27,12.27,0,0,1,8.54-2.93c4.62,0,7.29,1.68,8.87,3.41a11.7,11.7,0,0,1,2.73,8.16v.48h-17a5.82,5.82,0,0,0,1.1,3.51,5.61,5.61,0,0,0,4.57,2,6,6,0,0,0,5.29-2.73ZM498.24,51a5.55,5.55,0,0,0-10.75,0Z"/><path class="cls-3" d="M515.6,48.39V64.18h-6.4V48.39h-2.52v-5h2.52v-7.1h6.4v7.1H520v5Z"/><path class="cls-3" d="M542,48.39V64.18h-6.39V48.39h-2.52v-5h2.52v-7.1H542v7.1h4.41v5Z"/><path class="cls-3" d="M552.93,31.11a3.69,3.69,0,0,1,3.83,3.5,3.84,3.84,0,0,1-7.65,0A3.69,3.69,0,0,1,552.93,31.11Zm3.2,12.28V64.18h-6.4V43.39Z"/><path class="cls-3" d="M562.21,43.39h6.4v2.69a8.58,8.58,0,0,1,7-3.36c2,0,4.93.53,6.71,2.55a8.18,8.18,0,0,1,1.79,5.85V64.18h-6.4V52.85c0-1.15,0-3-1.21-4.08a4.34,4.34,0,0,0-3-1.06,4.48,4.48,0,0,0-3.93,1.83,6.61,6.61,0,0,0-1,4V64.18h-6.4Z"/><path class="cls-3" d="M607.52,43.39h6.4V63.22c0,3.17-.31,6.48-3.15,9.07-1.57,1.44-4.3,2.93-9,2.93-4.41,0-7-1.2-8.5-2.4a11.26,11.26,0,0,1-3.67-6.19h6.92a4.88,4.88,0,0,0,1.57,2.49A6,6,0,0,0,602,70.23a5.7,5.7,0,0,0,3.88-1.3c1.46-1.29,1.62-2.93,1.62-4.61V61.4a8.2,8.2,0,0,1-7,3.45A11.3,11.3,0,0,1,592.68,62a11.33,11.33,0,0,1-.1-16.51,11.66,11.66,0,0,1,7.81-2.79c4.25,0,6.24,2.11,7.13,3.36Zm-9.81,6a5.79,5.79,0,0,0-.36,8.49A6.47,6.47,0,0,0,602,59.67a6.79,6.79,0,0,0,4.25-1.44,5.91,5.91,0,0,0,2-4.47,5.66,5.66,0,0,0-1.84-4.17A6.12,6.12,0,0,0,602,47.91,6.46,6.46,0,0,0,597.71,49.35Z"/><path class="cls-3" d="M642.29,58.37c-.68,1.54-3.25,6.48-11.17,6.48a12.55,12.55,0,0,1-8.71-2.93,10,10,0,0,1-3.56-8.11,10.6,10.6,0,0,1,3.46-8.16,12.28,12.28,0,0,1,8.55-2.93c4.61,0,7.29,1.68,8.86,3.41a11.7,11.7,0,0,1,2.73,8.16v.48h-17a5.76,5.76,0,0,0,1.11,3.51,5.57,5.57,0,0,0,4.56,2,6,6,0,0,0,5.3-2.73ZM636.42,51a5.55,5.55,0,0,0-10.75,0Z"/><path class="cls-3" d="M647.37,43.39h6.4v2.69a8.58,8.58,0,0,1,7-3.36c2,0,4.93.53,6.71,2.55,1.58,1.77,1.78,3.84,1.78,5.85V64.18H662.9V52.85c0-1.15-.06-3-1.21-4.08a4.34,4.34,0,0,0-3-1.06,4.48,4.48,0,0,0-3.93,1.83,6.61,6.61,0,0,0-1,4V64.18h-6.4Z"/><path class="cls-3" d="M697.66,58.37c-.68,1.54-3.25,6.48-11.17,6.48a12.5,12.5,0,0,1-8.7-2.93,10,10,0,0,1-3.57-8.11,10.64,10.64,0,0,1,3.46-8.16,12.3,12.3,0,0,1,8.55-2.93c4.62,0,7.29,1.68,8.86,3.41a11.66,11.66,0,0,1,2.73,8.16v.48h-17a5.82,5.82,0,0,0,1.1,3.51,5.59,5.59,0,0,0,4.56,2,6,6,0,0,0,5.3-2.73ZM691.79,51A5.55,5.55,0,0,0,681,51Z"/><path class="cls-3" d="M718.16,31.11a3.69,3.69,0,0,1,3.83,3.5,3.84,3.84,0,0,1-7.65,0A3.69,3.69,0,0,1,718.16,31.11Zm3.2,12.28V64.18H715V43.39Z"/><path class="cls-3" d="M744.75,43.39h6.4V63.22c0,3.17-.32,6.48-3.15,9.07-1.57,1.44-4.3,2.93-9,2.93-4.4,0-7-1.2-8.49-2.4a11.26,11.26,0,0,1-3.67-6.19h6.92a4.88,4.88,0,0,0,1.57,2.49,6,6,0,0,0,3.88,1.11,5.66,5.66,0,0,0,3.88-1.3c1.47-1.29,1.63-2.93,1.63-4.61V61.4a8.2,8.2,0,0,1-7,3.45A11.29,11.29,0,0,1,729.91,62a11.34,11.34,0,0,1-.11-16.51,11.71,11.71,0,0,1,7.82-2.79c4.25,0,6.24,2.11,7.13,3.36Zm-9.81,6a5.79,5.79,0,0,0-.36,8.49,6.47,6.47,0,0,0,4.61,1.83,6.79,6.79,0,0,0,4.25-1.44,5.91,5.91,0,0,0,2-4.47,5.66,5.66,0,0,0-1.84-4.17,6.12,6.12,0,0,0-4.46-1.68A6.46,6.46,0,0,0,734.94,49.35Z"/><path class="cls-3" d="M779.52,58.37c-.68,1.54-3.25,6.48-11.17,6.48a12.55,12.55,0,0,1-8.71-2.93,10,10,0,0,1-3.56-8.11,10.6,10.6,0,0,1,3.46-8.16,12.28,12.28,0,0,1,8.55-2.93c4.61,0,7.28,1.68,8.86,3.41a11.7,11.7,0,0,1,2.73,8.16v.48h-17a5.82,5.82,0,0,0,1.1,3.51,5.61,5.61,0,0,0,4.57,2,6,6,0,0,0,5.29-2.73ZM773.64,51a5.55,5.55,0,0,0-10.75,0Z"/><path class="cls-3" d="M784.6,43.39H791v2.69a8.58,8.58,0,0,1,7-3.36c2,0,4.93.53,6.71,2.55a8.22,8.22,0,0,1,1.78,5.85V64.18h-6.4V52.85c0-1.15,0-3-1.2-4.08a4.34,4.34,0,0,0-3-1.06A4.48,4.48,0,0,0,792,49.54a6.61,6.61,0,0,0-1,4V64.18h-6.4Z"/><path class="cls-3" d="M812.6,43.39H819v2.69a8.58,8.58,0,0,1,7-3.36c2,0,4.93.53,6.71,2.55a8.18,8.18,0,0,1,1.79,5.85V64.18h-6.4V52.85c0-1.15-.06-3-1.21-4.08a4.34,4.34,0,0,0-3-1.06A4.48,4.48,0,0,0,820,49.54a6.61,6.61,0,0,0-1,4V64.18h-6.4Z"/><path class="cls-3" d="M862.89,58.37c-.68,1.54-3.25,6.48-11.17,6.48a12.5,12.5,0,0,1-8.7-2.93,10,10,0,0,1-3.57-8.11,10.64,10.64,0,0,1,3.46-8.16,12.3,12.3,0,0,1,8.55-2.93c4.62,0,7.29,1.68,8.86,3.41a11.66,11.66,0,0,1,2.73,8.16v.48h-17a5.82,5.82,0,0,0,1.1,3.51,5.59,5.59,0,0,0,4.56,2,6,6,0,0,0,5.3-2.73ZM857,51a5.55,5.55,0,0,0-10.75,0Z"/><path class="cls-3" d="M868,43.39h6.4v2.36a8.69,8.69,0,0,1,6.76-3c4.77,0,6.61,2.74,7.19,3.79a8.49,8.49,0,0,1,7.28-3.79c3.52,0,5.25,1.49,6.14,2.55,1.47,1.77,1.58,3.55,1.58,5.85V64.18h-6.4V52.85c0-2.45-.58-3.55-1-4.08a3.38,3.38,0,0,0-2.62-1.06,3.85,3.85,0,0,0-3.52,1.83,7.33,7.33,0,0,0-.89,4V64.18h-6.4V52.85c0-2.45-.58-3.55-1.05-4.08a3.37,3.37,0,0,0-2.62-1.06,3.83,3.83,0,0,0-3.51,1.83,7.33,7.33,0,0,0-.89,4V64.18H868Z"/><path class="cls-3" d="M913,57.32a3.75,3.75,0,1,1-4.09,3.74A3.87,3.87,0,0,1,913,57.32Zm-3.25-2.88V32.16h6.5V54.44Z"/><path class="cls-3" d="M89,116.17H92l5.8,12.72,6.07-12.72H107l3.67,20h-4.33l-2-12.33-5.87,12.33H97.05l-5.61-12.33-2.23,12.33H84.89Z"/><path class="cls-3" d="M127.86,132.55c-.43,1-2,4-7,4a7.84,7.84,0,0,1-5.44-1.83,6.28,6.28,0,0,1-2.23-5.07,6.62,6.62,0,0,1,2.17-5.1,7.68,7.68,0,0,1,5.34-1.83,7.07,7.07,0,0,1,5.54,2.13A7.29,7.29,0,0,1,128,130v.3H117.33a3.59,3.59,0,0,0,.69,2.19,3.49,3.49,0,0,0,2.85,1.23,3.72,3.72,0,0,0,3.31-1.71ZM124.18,128a3.47,3.47,0,0,0-6.72,0Z"/><path class="cls-3" d="M131,123.19h4v1.68a5.34,5.34,0,0,1,4.39-2.1,5.71,5.71,0,0,1,4.2,1.59,5.15,5.15,0,0,1,1.11,3.66v8.16h-4V129.1a3.49,3.49,0,0,0-.75-2.55,2.69,2.69,0,0,0-1.87-.66,2.81,2.81,0,0,0-2.46,1.14,4.16,4.16,0,0,0-.62,2.52v6.63h-4Z"/><path class="cls-3" d="M170.1,132.55c-.43,1-2,4-7,4a7.82,7.82,0,0,1-5.44-1.83,6.25,6.25,0,0,1-2.23-5.07,6.66,6.66,0,0,1,2.16-5.1,7.68,7.68,0,0,1,5.34-1.83,7.06,7.06,0,0,1,5.54,2.13,7.31,7.31,0,0,1,1.71,5.1v.3H159.58a3.59,3.59,0,0,0,.69,2.19,3.48,3.48,0,0,0,2.85,1.23,3.75,3.75,0,0,0,3.31-1.71ZM166.43,128a3.47,3.47,0,0,0-6.72,0Z"/><path class="cls-3" d="M173.28,123.19h4v2a4.59,4.59,0,0,1,1.76-1.8,4.68,4.68,0,0,1,2.36-.57,5.35,5.35,0,0,1,1.71.3l-.53,3.42a3.19,3.19,0,0,0-1.86-.48,3.43,3.43,0,0,0-2.66,1,4.19,4.19,0,0,0-.78,2.88v6.24h-4Z"/><path class="cls-3" d="M203.59,114.31h4v21.87h-4V134.5a5.26,5.26,0,0,1-4.36,2.1,6.88,6.88,0,0,1-7.24-6.93,6.77,6.77,0,0,1,7-6.9,5.32,5.32,0,0,1,4.56,2.1Zm-7.47,15.36a3.94,3.94,0,1,0,3.93-3.66A3.72,3.72,0,0,0,196.12,129.67Z"/><path class="cls-3" d="M225.32,132.55c-.43,1-2,4-7,4a7.82,7.82,0,0,1-5.44-1.83,6.25,6.25,0,0,1-2.23-5.07,6.66,6.66,0,0,1,2.16-5.1,7.69,7.69,0,0,1,5.35-1.83,7,7,0,0,1,5.53,2.13,7.31,7.31,0,0,1,1.71,5.1v.3H214.8a3.59,3.59,0,0,0,.69,2.19,3.48,3.48,0,0,0,2.85,1.23,3.74,3.74,0,0,0,3.31-1.71ZM221.65,128a3.47,3.47,0,0,0-6.72,0Z"/><path class="cls-3" d="M232.5,126.31v9.87h-4v-9.87h-1.57v-3.12h1.57v-4.44h4v4.44h2.75v3.12Z"/><path class="cls-3" d="M252.72,126.28a3.5,3.5,0,0,0-2.33-.87c-.95,0-1.54.42-1.54,1,0,.33.16.84,1.28,1.17l1,.27a7.47,7.47,0,0,1,3.6,1.86,3.52,3.52,0,0,1,.72,2.16,4.14,4.14,0,0,1-1.57,3.3,6.28,6.28,0,0,1-4.26,1.38,7.48,7.48,0,0,1-5.51-2.16l2.1-2.22a4.56,4.56,0,0,0,3.15,1.5c1.11,0,2-.51,2-1.41s-.73-1.14-1.25-1.32l-.92-.3a8,8,0,0,1-3.05-1.56,3.36,3.36,0,0,1-1.08-2.49,3.74,3.74,0,0,1,1.48-2.94,6.24,6.24,0,0,1,3.7-.93,7.52,7.52,0,0,1,4.52,1.38Z"/><path class="cls-3" d="M269.1,123.19h4v13h-4V134.5a5.26,5.26,0,0,1-4.35,2.1,6.89,6.89,0,0,1-7.25-6.93,6.77,6.77,0,0,1,7.05-6.9,5.32,5.32,0,0,1,4.55,2.1Zm-7.47,6.48a3.95,3.95,0,1,0,3.93-3.66A3.72,3.72,0,0,0,261.63,129.67Zm4-14.31a2.83,2.83,0,1,1-3.08,2.82A3,3,0,0,1,265.6,115.36Zm0,4a1.17,1.17,0,1,0-1.28-1.17A1.17,1.17,0,0,0,265.6,119.35Z"/><path class="cls-3" d="M288.54,114.31v21.87h-4V114.31Z"/><path class="cls-3" d="M306.27,132.55c-.43,1-2,4-7,4a7.82,7.82,0,0,1-5.44-1.83,6.25,6.25,0,0,1-2.23-5.07,6.66,6.66,0,0,1,2.16-5.1,7.68,7.68,0,0,1,5.34-1.83,7.06,7.06,0,0,1,5.54,2.13,7.31,7.31,0,0,1,1.71,5.1v.3H295.75a3.59,3.59,0,0,0,.69,2.19,3.48,3.48,0,0,0,2.85,1.23A3.75,3.75,0,0,0,302.6,132ZM302.6,128a3.47,3.47,0,0,0-6.72,0Z"/><path class="cls-3" d="M313.45,126.31v9.87h-4v-9.87h-1.58v-3.12h1.58v-4.44h4v4.44h2.75v3.12Z"/><path class="cls-3" d="M327.93,115.51a2.2,2.2,0,1,1-2.39,2.19A2.31,2.31,0,0,1,327.93,115.51Zm2,7.68v13h-4v-13Z"/><path class="cls-3" d="M344,123.19l3.73,7.32,3.74-7.32h4.46l-7.15,13h-2.09l-7.15-13Z"/><path class="cls-3" d="M359.88,115.51a2.2,2.2,0,1,1-2.39,2.19A2.32,2.32,0,0,1,359.88,115.51Zm2,7.68v13h-4v-13Z"/><path class="cls-3" d="M365.68,123.19h4v2a4.59,4.59,0,0,1,1.77-1.8,4.65,4.65,0,0,1,2.36-.57,5.35,5.35,0,0,1,1.71.3l-.53,3.42a3.21,3.21,0,0,0-1.87-.48,3.42,3.42,0,0,0-2.65,1,4.14,4.14,0,0,0-.79,2.88v6.24h-4Z"/><path class="cls-3" d="M381.48,114.31v13.62l5.31-4.74H392l-6.66,5.7,7.18,7.29h-5.31l-5.27-5.55-.43.36v5.19h-4V114.31Z"/><path class="cls-3" d="M407.83,132.55c-.43,1-2,4-7,4a7.82,7.82,0,0,1-5.44-1.83,6.28,6.28,0,0,1-2.23-5.07,6.66,6.66,0,0,1,2.16-5.1,7.7,7.7,0,0,1,5.35-1.83,7,7,0,0,1,5.53,2.13,7.31,7.31,0,0,1,1.71,5.1v.3H397.31a3.59,3.59,0,0,0,.69,2.19,3.48,3.48,0,0,0,2.85,1.23,3.74,3.74,0,0,0,3.31-1.71ZM404.16,128a3.47,3.47,0,0,0-6.72,0Z"/><path class="cls-3" d="M415,114.31v21.87h-4V114.31Z"/><path class="cls-3" d="M420.81,115.51a2.2,2.2,0,1,1-2.39,2.19A2.31,2.31,0,0,1,420.81,115.51Zm2,7.68v13h-4v-13Z"/><path class="cls-3" d="M437.42,123.19h4v12.39c0,2-.19,4-2,5.67a8,8,0,0,1-5.61,1.83,8.2,8.2,0,0,1-5.31-1.5,7.08,7.08,0,0,1-2.29-3.87h4.32a3.12,3.12,0,0,0,1,1.56A3.75,3.75,0,0,0,434,140a3.57,3.57,0,0,0,2.43-.81,3.45,3.45,0,0,0,1-2.88v-1.83a5.12,5.12,0,0,1-4.36,2.16,7.06,7.06,0,0,1-4.91-1.77,6.85,6.85,0,0,1-2.26-5.16,6.93,6.93,0,0,1,2.19-5.16,7.34,7.34,0,0,1,4.89-1.74,5.09,5.09,0,0,1,4.45,2.1Zm-6.13,3.72a3.63,3.63,0,0,0-.22,5.31,4.05,4.05,0,0,0,2.88,1.14,4.27,4.27,0,0,0,2.66-.9,3.7,3.7,0,0,0,1.27-2.79,3.57,3.57,0,0,0-1.14-2.61,3.83,3.83,0,0,0-2.79-1A4.08,4.08,0,0,0,431.29,126.91Z"/><path class="cls-3" d="M445.22,114.31h4v10.56a5.36,5.36,0,0,1,4.39-2.1,5.69,5.69,0,0,1,4.2,1.59,5.15,5.15,0,0,1,1.11,3.66v8.16h-4V129.1a3.5,3.5,0,0,0-.76-2.55,2.69,2.69,0,0,0-1.87-.66,2.79,2.79,0,0,0-2.45,1.14,4.17,4.17,0,0,0-.63,2.52v6.63h-4Z"/><path class="cls-3" d="M476.29,132.55c-.42,1-2,4-7,4a7.84,7.84,0,0,1-5.44-1.83,6.28,6.28,0,0,1-2.23-5.07,6.62,6.62,0,0,1,2.17-5.1,7.68,7.68,0,0,1,5.34-1.83,7.09,7.09,0,0,1,5.54,2.13,7.29,7.29,0,0,1,1.7,5.1v.3H465.77a3.59,3.59,0,0,0,.69,2.19,3.49,3.49,0,0,0,2.85,1.23,3.72,3.72,0,0,0,3.31-1.71ZM472.62,128a3.47,3.47,0,0,0-6.72,0Z"/><path class="cls-3" d="M490.35,114.31h4v21.87h-4V134.5a5.26,5.26,0,0,1-4.35,2.1,6.89,6.89,0,0,1-7.25-6.93,6.77,6.77,0,0,1,7.05-6.9,5.32,5.32,0,0,1,4.55,2.1Zm-7.47,15.36a3.95,3.95,0,1,0,3.93-3.66A3.72,3.72,0,0,0,482.88,129.67Z"/><path class="cls-3" d="M512.08,132.55c-.42,1-2,4-7,4a7.84,7.84,0,0,1-5.44-1.83,6.28,6.28,0,0,1-2.23-5.07,6.62,6.62,0,0,1,2.17-5.1,7.66,7.66,0,0,1,5.34-1.83,7.09,7.09,0,0,1,5.54,2.13,7.34,7.34,0,0,1,1.7,5.1v.3H501.56a3.59,3.59,0,0,0,.69,2.19,3.49,3.49,0,0,0,2.85,1.23,3.72,3.72,0,0,0,3.31-1.71ZM508.41,128a3.47,3.47,0,0,0-6.72,0Z"/><path class="cls-3" d="M515.26,123.19h4v1.68a5.34,5.34,0,0,1,4.39-2.1,5.71,5.71,0,0,1,4.2,1.59A5.15,5.15,0,0,1,529,128v8.16h-4V129.1a3.49,3.49,0,0,0-.75-2.55,2.71,2.71,0,0,0-1.87-.66,2.81,2.81,0,0,0-2.46,1.14,4.16,4.16,0,0,0-.62,2.52v6.63h-4Z"/><path class="cls-3" d="M536.07,130.09v-5.88a5.74,5.74,0,0,0,1.28.12,4.6,4.6,0,0,0,3.08-1,2.84,2.84,0,0,0,.85-2,2.28,2.28,0,0,0-.68-1.74,2.39,2.39,0,0,0-4.1,1.89h-4.26a6,6,0,0,1,1.64-4c.88-.84,2.42-1.68,5.17-1.68a6.86,6.86,0,0,1,4.79,1.53,5.28,5.28,0,0,1,1.7,4.14,4.91,4.91,0,0,1-1.67,3.87,6.72,6.72,0,0,1-3.73,1.68v3.15Zm2,1.86a2.35,2.35,0,1,1-2.55,2.34A2.42,2.42,0,0,1,538.1,132Z"/><path class="cls-3" d="M91.7,188.17c3,0,5.71.3,8.13,2a9.61,9.61,0,0,1,4.2,8.07,9.31,9.31,0,0,1-4.39,8.07c-2.56,1.65-5,1.92-8,1.92H86v-20Zm-1.44,16.65h1.31a9.86,9.86,0,0,0,5.35-1.32,6.33,6.33,0,0,0,2.72-5.31A6.45,6.45,0,0,0,97,192.85a9.54,9.54,0,0,0-5.38-1.32H90.26Z"/><path class="cls-3" d="M121.3,204.55c-.43,1-2,4-7,4a7.82,7.82,0,0,1-5.44-1.83,6.25,6.25,0,0,1-2.23-5.07,6.66,6.66,0,0,1,2.16-5.1,7.68,7.68,0,0,1,5.34-1.83,7.06,7.06,0,0,1,5.54,2.13,7.31,7.31,0,0,1,1.71,5.1v.3H110.78a3.59,3.59,0,0,0,.69,2.19,3.48,3.48,0,0,0,2.85,1.23,3.74,3.74,0,0,0,3.31-1.71ZM117.63,200a3.47,3.47,0,0,0-6.72,0Z"/><path class="cls-3" d="M128.48,198.31v9.87h-4v-9.87H122.9v-3.12h1.58v-4.44h4v4.44h2.75v3.12Z"/><path class="cls-3" d="M145,186.31v13.62l5.31-4.74h5.18l-6.66,5.7,7.18,7.29h-5.31l-5.27-5.55L145,203v5.19h-4V186.31Z"/><path class="cls-3" d="M168.62,195.19h4v13h-4V206.5a5.26,5.26,0,0,1-4.35,2.1,6.89,6.89,0,0,1-7.25-6.93,6.77,6.77,0,0,1,7-6.9,5.32,5.32,0,0,1,4.55,2.1Zm-7.47,6.48a3.95,3.95,0,1,0,3.93-3.66A3.72,3.72,0,0,0,161.15,201.67Z"/><path class="cls-3" d="M176.42,195.19h4v1.68a5.36,5.36,0,0,1,4.39-2.1,5.71,5.71,0,0,1,4.2,1.59,5.15,5.15,0,0,1,1.11,3.66v8.16h-4V201.1a3.49,3.49,0,0,0-.75-2.55,2.69,2.69,0,0,0-1.87-.66A2.81,2.81,0,0,0,181,199a4.16,4.16,0,0,0-.62,2.52v6.63h-4Z"/><path class="cls-3" d="M204.18,195.19l3.74,7.32,3.73-7.32h4.46l-7.14,13h-2.1l-7.15-13Z"/><path class="cls-3" d="M241.05,204.55c-1.73,3.93-5.93,4-7,4-3.18,0-4.72-1.38-5.5-2.46a7.15,7.15,0,0,1-5.71,2.46c-3.93,0-5.83-2-5.83-4.2a3.74,3.74,0,0,1,1.44-3,7,7,0,0,1,4.56-1.35,7.83,7.83,0,0,1,3.67.9l0-.63a2.39,2.39,0,0,0-1.21-2.13,5.51,5.51,0,0,0-2.66-.54,15.34,15.34,0,0,0-3.64.51v-2.91a17.81,17.81,0,0,1,3.94-.48c1.7,0,4,.15,5.41,2.19a6.59,6.59,0,0,1,5.37-2.19,7.11,7.11,0,0,1,5.51,2.13,7.34,7.34,0,0,1,1.7,5.1v.3H230.53a3.29,3.29,0,0,0,.69,2.19,3.44,3.44,0,0,0,2.85,1.23,3.72,3.72,0,0,0,3.31-1.71ZM223.68,206c2.23,0,3-1.11,3-1.83s-.66-1.56-3-1.56c-2.13,0-2.75.93-2.75,1.62S221.58,206,223.68,206Zm13.7-6.06a3.47,3.47,0,0,0-6.72,0Z"/><path class="cls-3" d="M244.23,195.19h4v1.95a4.52,4.52,0,0,1,1.77-1.8,4.65,4.65,0,0,1,2.36-.57,5.24,5.24,0,0,1,1.7.3l-.52,3.42a3.21,3.21,0,0,0-1.87-.48,3.41,3.41,0,0,0-2.65,1.05,4.14,4.14,0,0,0-.79,2.88v6.24h-4Z"/><path class="cls-3" d="M269.27,204.55c-.43,1-2,4-7,4a7.82,7.82,0,0,1-5.44-1.83,6.28,6.28,0,0,1-2.23-5.07,6.66,6.66,0,0,1,2.16-5.1,7.68,7.68,0,0,1,5.34-1.83,7.06,7.06,0,0,1,5.54,2.13,7.31,7.31,0,0,1,1.71,5.1v.3H258.75a3.59,3.59,0,0,0,.69,2.19,3.48,3.48,0,0,0,2.85,1.23A3.74,3.74,0,0,0,265.6,204ZM265.6,200a3.47,3.47,0,0,0-6.72,0Z"/><path class="cls-3" d="M287.82,198.28a3.5,3.5,0,0,0-2.33-.87c-.95,0-1.54.42-1.54,1.05,0,.33.16.84,1.28,1.17l.95.27c1.11.33,2.79.84,3.6,1.86a3.53,3.53,0,0,1,.73,2.16,4.15,4.15,0,0,1-1.58,3.3,6.28,6.28,0,0,1-4.26,1.38,7.44,7.44,0,0,1-5.5-2.16l2.09-2.22a4.56,4.56,0,0,0,3.15,1.5c1.12,0,2-.51,2-1.41s-.72-1.14-1.25-1.32l-.92-.3a7.87,7.87,0,0,1-3-1.56,3.33,3.33,0,0,1-1.09-2.49,3.74,3.74,0,0,1,1.48-2.94,6.24,6.24,0,0,1,3.7-.93,7.52,7.52,0,0,1,4.52,1.38Z"/><path class="cls-3" d="M295.29,195.19l3.74,7.32,3.73-7.32h4.46l-7.14,13H298l-7.15-13Z"/><path class="cls-3" d="M332.16,204.55c-1.73,3.93-5.93,4-7,4-3.18,0-4.72-1.38-5.5-2.46A7.15,7.15,0,0,1,314,208.6c-3.93,0-5.83-2-5.83-4.2a3.74,3.74,0,0,1,1.44-3,7,7,0,0,1,4.56-1.35,7.83,7.83,0,0,1,3.67.9l0-.63a2.37,2.37,0,0,0-1.21-2.13,5.51,5.51,0,0,0-2.66-.54,15.21,15.21,0,0,0-3.63.51v-2.91a17.69,17.69,0,0,1,3.93-.48c1.7,0,4,.15,5.41,2.19a6.59,6.59,0,0,1,5.37-2.19,7.11,7.11,0,0,1,5.51,2.13,7.29,7.29,0,0,1,1.7,5.1v.3H321.64a3.29,3.29,0,0,0,.69,2.19,3.44,3.44,0,0,0,2.85,1.23,3.72,3.72,0,0,0,3.31-1.71ZM314.79,206c2.23,0,3-1.11,3-1.83s-.66-1.56-3.05-1.56c-2.13,0-2.75.93-2.75,1.62S312.7,206,314.79,206Zm13.7-6.06a3.47,3.47,0,0,0-6.72,0Z"/><path class="cls-3" d="M335.34,195.19h4v1.95a4.59,4.59,0,0,1,1.77-1.8,4.65,4.65,0,0,1,2.36-.57,5.29,5.29,0,0,1,1.7.3l-.52,3.42a3.23,3.23,0,0,0-1.87-.48,3.41,3.41,0,0,0-2.65,1.05,4.14,4.14,0,0,0-.79,2.88v6.24h-4Z"/><path class="cls-3" d="M352.15,198.31v9.87h-4v-9.87h-1.58v-3.12h1.58v-4.44h4v4.44h2.76v3.12Z"/><path class="cls-3" d="M368.7,198.31v9.87h-4v-9.87h-1.5v-3.12h1.5v-3.57a5.4,5.4,0,0,1,1.87-4.59,5.67,5.67,0,0,1,3.51-1.08,5.51,5.51,0,0,1,2.29.45v3.33a2.92,2.92,0,0,0-1.8-.54,1.63,1.63,0,0,0-1.44.66,4,4,0,0,0-.43,2.25v3.09h3.67v3.12Z"/><path class="cls-3" d="M387.35,196.6a6.6,6.6,0,0,1,0,10.17,9.9,9.9,0,0,1-11.47,0,6.6,6.6,0,0,1,0-10.17,9.9,9.9,0,0,1,11.47,0Zm-1.74,5.1a4,4,0,1,0-4,3.66A3.79,3.79,0,0,0,385.61,201.7Z"/><path class="cls-3" d="M392.82,195.19h4v1.95a4.51,4.51,0,0,1,4.13-2.37,5.35,5.35,0,0,1,1.71.3l-.53,3.42a3.21,3.21,0,0,0-1.87-.48,3.42,3.42,0,0,0-2.65,1.05,4.2,4.2,0,0,0-.79,2.88v6.24h-4Z"/><path class="cls-3" d="M416.26,196.87a5.72,5.72,0,0,1,4.62-2.1,6.67,6.67,0,0,1,7,6.9,6.76,6.76,0,0,1-7.08,6.93,5.56,5.56,0,0,1-4.52-2.1v1.68h-4V186.31h4Zm-.4,4.8A3.95,3.95,0,1,0,419.8,198,3.73,3.73,0,0,0,415.86,201.67Z"/><path class="cls-3" d="M441.82,195.19h4v13h-4V206.5a5.26,5.26,0,0,1-4.36,2.1,6.88,6.88,0,0,1-7.24-6.93,6.77,6.77,0,0,1,7-6.9,5.32,5.32,0,0,1,4.56,2.1Zm-7.47,6.48a3.94,3.94,0,1,0,3.93-3.66A3.72,3.72,0,0,0,434.35,201.67Zm4-14.31a2.83,2.83,0,1,1-3.08,2.82A3,3,0,0,1,438.31,187.36Zm0,4a1.17,1.17,0,1,0-1.28-1.17A1.17,1.17,0,0,0,438.31,191.35Z"/><path class="cls-3" d="M460.5,186.31h4v21.87h-4V206.5a5.26,5.26,0,0,1-4.36,2.1,6.88,6.88,0,0,1-7.24-6.93,6.77,6.77,0,0,1,7.05-6.9,5.32,5.32,0,0,1,4.55,2.1ZM453,201.67A3.94,3.94,0,1,0,457,198,3.72,3.72,0,0,0,453,201.67Z"/><path class="cls-3" d="M482.23,204.55c-.43,1-2,4-7,4a7.82,7.82,0,0,1-5.44-1.83,6.25,6.25,0,0,1-2.23-5.07,6.66,6.66,0,0,1,2.16-5.1,7.68,7.68,0,0,1,5.34-1.83,7.06,7.06,0,0,1,5.54,2.13,7.31,7.31,0,0,1,1.71,5.1v.3H471.71a3.59,3.59,0,0,0,.69,2.19,3.48,3.48,0,0,0,2.85,1.23,3.74,3.74,0,0,0,3.31-1.71ZM478.56,200a3.47,3.47,0,0,0-6.72,0Z"/><path class="cls-3" d="M497,196.87a5.72,5.72,0,0,1,4.62-2.1,6.66,6.66,0,0,1,7,6.9,6.75,6.75,0,0,1-7.08,6.93,5.57,5.57,0,0,1-4.52-2.1v1.68h-4V186.31h4Zm-.39,4.8a3.94,3.94,0,1,0,3.93-3.66A3.72,3.72,0,0,0,496.65,201.67Z"/><path class="cls-3" d="M512.74,206a6.61,6.61,0,0,1,.79-9.42,8.66,8.66,0,0,1,5.73-1.83,9,9,0,0,1,4.59,1.08l2.23-2,1.83,1.53-2.16,2a6.68,6.68,0,0,1,1.64,4.38,6.57,6.57,0,0,1-2.39,5.07,8.65,8.65,0,0,1-5.74,1.83,8.77,8.77,0,0,1-4.65-1.11l-2.16,2-1.84-1.5Zm8.32-7.62a3.69,3.69,0,0,0-1.7-.39,4.4,4.4,0,0,0-3,1.08,3.6,3.6,0,0,0-.72,4.26Zm-3.67,6.54a4.21,4.21,0,0,0,1.9.42,3.87,3.87,0,0,0,2.86-1.08,3.52,3.52,0,0,0,1.11-2.64,2.76,2.76,0,0,0-.46-1.65Z"/><path class="cls-3" d="M530.6,195.19h4v1.95a4.59,4.59,0,0,1,1.77-1.8,4.65,4.65,0,0,1,2.36-.57,5.29,5.29,0,0,1,1.7.3l-.52,3.42A3.23,3.23,0,0,0,538,198a3.41,3.41,0,0,0-2.65,1.05,4.14,4.14,0,0,0-.79,2.88v6.24h-4Z"/><path class="cls-3" d="M542.4,195.19h4v1.68a5.34,5.34,0,0,1,4.39-2.1,5.72,5.72,0,0,1,4.2,1.59A5.15,5.15,0,0,1,556.1,200v8.16h-4V201.1a3.49,3.49,0,0,0-.75-2.55,2.72,2.72,0,0,0-1.87-.66A2.81,2.81,0,0,0,547,199a4.16,4.16,0,0,0-.62,2.52v6.63h-4Z"/><path class="cls-3" d="M561.61,204l3.67.39-4.63,7.95-2.52-.27Z"/><path class="cls-3" d="M582.28,195.19v7.35a2.77,2.77,0,0,0,.86,2.28,3.45,3.45,0,0,0,4.06,0,2.76,2.76,0,0,0,.85-2.28v-7.35h4v7.95a4.68,4.68,0,0,1-1.74,4,9.74,9.74,0,0,1-10.29,0,4.7,4.7,0,0,1-1.74-4v-7.95Z"/><path class="cls-3" d="M595.85,195.19h4v1.68a5.34,5.34,0,0,1,4.39-2.1,5.71,5.71,0,0,1,4.2,1.59,5.15,5.15,0,0,1,1.11,3.66v8.16h-4V201.1a3.49,3.49,0,0,0-.75-2.55,2.71,2.71,0,0,0-1.87-.66,2.81,2.81,0,0,0-2.46,1.14,4.16,4.16,0,0,0-.62,2.52v6.63h-4Z"/><path class="cls-3" d="M624.17,195.19h4v12.39c0,2-.2,4-2,5.67a7.93,7.93,0,0,1-5.6,1.83,8.16,8.16,0,0,1-5.31-1.5,7,7,0,0,1-2.3-3.87h4.33a3,3,0,0,0,1,1.56,3.78,3.78,0,0,0,2.43.69,3.54,3.54,0,0,0,2.42-.81,3.46,3.46,0,0,0,1-2.88v-1.83a5.14,5.14,0,0,1-4.36,2.16,7.08,7.08,0,0,1-4.92-1.77,7.09,7.09,0,0,1-.06-10.32,7.29,7.29,0,0,1,4.88-1.74,5.12,5.12,0,0,1,4.46,2.1ZM618,198.91a3.62,3.62,0,0,0-.23,5.31,4.06,4.06,0,0,0,2.89,1.14,4.24,4.24,0,0,0,2.65-.9,3.68,3.68,0,0,0,1.28-2.79,3.54,3.54,0,0,0-1.15-2.61A3.81,3.81,0,0,0,620.7,198,4.06,4.06,0,0,0,618,198.91Z"/><path class="cls-3" d="M645.9,204.55c-.43,1-2,4-7,4a7.85,7.85,0,0,1-5.45-1.83,6.28,6.28,0,0,1-2.22-5.07,6.62,6.62,0,0,1,2.16-5.1,7.68,7.68,0,0,1,5.34-1.83,7.06,7.06,0,0,1,5.54,2.13A7.31,7.31,0,0,1,646,202v.3H635.38a3.65,3.65,0,0,0,.68,2.19,3.5,3.5,0,0,0,2.86,1.23,3.75,3.75,0,0,0,3.31-1.71ZM642.23,200a3.47,3.47,0,0,0-6.72,0Z"/><path class="cls-3" d="M669.85,196.6a6.59,6.59,0,0,1,0,10.17,9.9,9.9,0,0,1-11.47,0,6.6,6.6,0,0,1,0-10.17,9.9,9.9,0,0,1,11.47,0Zm-1.73,5.1a4,4,0,1,0-4,3.66A3.8,3.8,0,0,0,668.12,201.7Z"/><path class="cls-3" d="M686.14,195.19h4v12.39c0,2-.2,4-2,5.67a7.92,7.92,0,0,1-5.6,1.83,8.2,8.2,0,0,1-5.31-1.5,7.09,7.09,0,0,1-2.3-3.87h4.33a3.05,3.05,0,0,0,1,1.56,3.74,3.74,0,0,0,2.42.69,3.57,3.57,0,0,0,2.43-.81,3.48,3.48,0,0,0,1-2.88v-1.83a5.13,5.13,0,0,1-4.36,2.16,7,7,0,0,1-4.91-1.77,7.1,7.1,0,0,1-.07-10.32,7.32,7.32,0,0,1,4.89-1.74,5.09,5.09,0,0,1,4.45,2.1ZM680,198.91a3.62,3.62,0,0,0-.23,5.31,4.09,4.09,0,0,0,2.89,1.14,4.24,4.24,0,0,0,2.65-.9,3.68,3.68,0,0,0,1.28-2.79,3.54,3.54,0,0,0-1.15-2.61,3.8,3.8,0,0,0-2.78-1.05A4.06,4.06,0,0,0,680,198.91Z"/><path class="cls-3" d="M704.2,195.19l3.74,7.32,3.73-7.32h4.46l-7.15,13h-2.09l-7.15-13Z"/><path class="cls-3" d="M730.58,196.6a6.6,6.6,0,0,1,0,10.17,9.9,9.9,0,0,1-11.47,0,6.6,6.6,0,0,1,0-10.17,9.9,9.9,0,0,1,11.47,0Zm-1.73,5.1a4,4,0,1,0-4,3.66A3.8,3.8,0,0,0,728.85,201.7Z"/><path class="cls-3" d="M740.05,186.31v13.62l5.31-4.74h5.18l-6.65,5.7,7.18,7.29h-5.31l-5.28-5.55-.43.36v5.19h-4V186.31Z"/><path class="cls-3" d="M759.88,198.28a3.5,3.5,0,0,0-2.33-.87c-.95,0-1.54.42-1.54,1.05,0,.33.17.84,1.28,1.17l1,.27a7.46,7.46,0,0,1,3.61,1.86,3.59,3.59,0,0,1,.72,2.16,4.17,4.17,0,0,1-1.57,3.3,6.32,6.32,0,0,1-4.27,1.38,7.44,7.44,0,0,1-5.5-2.16l2.1-2.22a4.51,4.51,0,0,0,3.14,1.5c1.12,0,2-.51,2-1.41s-.72-1.14-1.25-1.32l-.91-.3a7.84,7.84,0,0,1-3-1.56,3.32,3.32,0,0,1-1.08-2.49,3.73,3.73,0,0,1,1.47-2.94,6.28,6.28,0,0,1,3.7-.93,7.57,7.57,0,0,1,4.53,1.38Z"/><path class="cls-3" d="M765.39,195.19h4v1.68a5.36,5.36,0,0,1,4.4-2.1,5.68,5.68,0,0,1,4.19,1.59,5.16,5.16,0,0,1,1.12,3.66v8.16h-4V201.1a3.46,3.46,0,0,0-.76-2.55,2.69,2.69,0,0,0-1.86-.66A2.81,2.81,0,0,0,770,199a4.17,4.17,0,0,0-.63,2.52v6.63h-4Z"/><path class="cls-3" d="M796.82,204.55c-.43,1-2,4-7,4a7.85,7.85,0,0,1-5.45-1.83,6.28,6.28,0,0,1-2.22-5.07,6.62,6.62,0,0,1,2.16-5.1,7.68,7.68,0,0,1,5.34-1.83,7.06,7.06,0,0,1,5.54,2.13,7.31,7.31,0,0,1,1.71,5.1v.3H786.3a3.65,3.65,0,0,0,.68,2.19,3.5,3.5,0,0,0,2.86,1.23,3.75,3.75,0,0,0,3.31-1.71ZM793.15,200a3.47,3.47,0,0,0-6.72,0Z"/><path class="cls-3" d="M818.51,195.19h4v13h-4V206.5a5.26,5.26,0,0,1-4.36,2.1,6.88,6.88,0,0,1-7.24-6.93,6.77,6.77,0,0,1,7.05-6.9,5.32,5.32,0,0,1,4.55,2.1ZM811,201.67A3.95,3.95,0,1,0,815,198,3.72,3.72,0,0,0,811,201.67Z"/><path class="cls-3" d="M830.31,198.31v9.87h-4v-9.87h-1.57v-3.12h1.57v-4.44h4v4.44h2.75v3.12Z"/><path class="cls-3" d="M850.53,198.28a3.5,3.5,0,0,0-2.33-.87c-1,0-1.54.42-1.54,1.05,0,.33.17.84,1.28,1.17l.95.27a7.46,7.46,0,0,1,3.61,1.86,3.59,3.59,0,0,1,.72,2.16,4.15,4.15,0,0,1-1.58,3.3,6.28,6.28,0,0,1-4.26,1.38,7.46,7.46,0,0,1-5.5-2.16l2.1-2.22a4.51,4.51,0,0,0,3.14,1.5c1.12,0,2-.51,2-1.41s-.72-1.14-1.25-1.32l-.91-.3a7.84,7.84,0,0,1-3-1.56,3.32,3.32,0,0,1-1.08-2.49,3.73,3.73,0,0,1,1.47-2.94,6.26,6.26,0,0,1,3.7-.93,7.55,7.55,0,0,1,4.53,1.38Z"/><path class="cls-3" d="M856,195.19h4v1.68a5.36,5.36,0,0,1,4.4-2.1,5.68,5.68,0,0,1,4.19,1.59,5.11,5.11,0,0,1,1.12,3.66v8.16h-4V201.1a3.5,3.5,0,0,0-.76-2.55,2.69,2.69,0,0,0-1.87-.66,2.81,2.81,0,0,0-2.45,1.14,4.17,4.17,0,0,0-.63,2.52v6.63h-4Z"/><path class="cls-3" d="M884.42,195.19h4v13h-4V206.5a5.26,5.26,0,0,1-4.36,2.1,6.88,6.88,0,0,1-7.24-6.93,6.77,6.77,0,0,1,7-6.9,5.33,5.33,0,0,1,4.56,2.1ZM877,201.67a3.94,3.94,0,1,0,3.93-3.66A3.72,3.72,0,0,0,877,201.67Z"/><path class="cls-3" d="M896.22,186.31v13.62l5.31-4.74h5.17l-6.65,5.7,7.18,7.29h-5.31l-5.28-5.55-.42.36v5.19h-4V186.31Z"/><path class="cls-3" d="M913,186.31v13.62l5.31-4.74h5.17l-6.65,5.7,7.18,7.29H918.7l-5.28-5.55L913,203v5.19h-4V186.31Z"/><path class="cls-3" d="M939.35,204.55c-.43,1-2,4-7,4a7.82,7.82,0,0,1-5.44-1.83,6.25,6.25,0,0,1-2.23-5.07,6.66,6.66,0,0,1,2.16-5.1,7.68,7.68,0,0,1,5.34-1.83,7.06,7.06,0,0,1,5.54,2.13,7.31,7.31,0,0,1,1.71,5.1v.3H928.83a3.59,3.59,0,0,0,.69,2.19,3.48,3.48,0,0,0,2.85,1.23,3.75,3.75,0,0,0,3.31-1.71ZM935.68,200a3.47,3.47,0,0,0-6.72,0Z"/><path class="cls-3" d="M963.3,196.6a6.59,6.59,0,0,1,0,10.17,9.9,9.9,0,0,1-11.47,0,6.6,6.6,0,0,1,0-10.17,9.9,9.9,0,0,1,11.47,0Zm-1.73,5.1a4,4,0,1,0-4,3.66A3.8,3.8,0,0,0,961.57,201.7Z"/><path class="cls-3" d="M968.78,195.19h4v1.47a5.42,5.42,0,0,1,4.22-1.89,4.72,4.72,0,0,1,4.49,2.37,5.32,5.32,0,0,1,4.56-2.37,4.63,4.63,0,0,1,3.83,1.59,5.1,5.1,0,0,1,1,3.66v8.16h-4V201.1a3.67,3.67,0,0,0-.66-2.55,2.09,2.09,0,0,0-1.63-.66,2.38,2.38,0,0,0-2.2,1.14,4.63,4.63,0,0,0-.56,2.52v6.63h-4V201.1a3.74,3.74,0,0,0-.65-2.55,2.12,2.12,0,0,0-1.64-.66,2.4,2.4,0,0,0-2.2,1.14,4.61,4.61,0,0,0-.55,2.52v6.63h-4Z"/><path class="cls-3" d="M89.47,234.31v9.87h-4v-9.87H84v-3.12h1.51v-3.57A5.37,5.37,0,0,1,87.35,223a5.62,5.62,0,0,1,3.5-1.08,5.55,5.55,0,0,1,2.3.45v3.33a3,3,0,0,0-1.81-.54,1.63,1.63,0,0,0-1.44.66,4,4,0,0,0-.43,2.25v3.09h3.68v3.12Z"/><path class="cls-3" d="M96,242a6.62,6.62,0,0,1,.78-9.42,8.71,8.71,0,0,1,5.74-1.83,9,9,0,0,1,4.59,1.08l2.23-2,1.83,1.53-2.16,2a6.68,6.68,0,0,1,1.64,4.38,6.58,6.58,0,0,1-2.4,5.07,8.6,8.6,0,0,1-5.73,1.83,8.84,8.84,0,0,1-4.66-1.11l-2.16,2L93.86,244Zm8.32-7.62a3.72,3.72,0,0,0-1.7-.39,4.43,4.43,0,0,0-3,1.08,3.74,3.74,0,0,0-1.11,2.64,3.86,3.86,0,0,0,.39,1.62Zm-3.67,6.54a4.16,4.16,0,0,0,1.9.42,3.85,3.85,0,0,0,2.85-1.08,3.49,3.49,0,0,0,1.12-2.64,2.76,2.76,0,0,0-.46-1.65Z"/><path class="cls-3" d="M117.86,222.31v21.87h-4V222.31Z"/><path class="cls-3" d="M129.39,234.28a3.5,3.5,0,0,0-2.32-.87c-1,0-1.54.42-1.54,1.05,0,.33.16.84,1.27,1.17l1,.27a7.46,7.46,0,0,1,3.61,1.86,3.59,3.59,0,0,1,.72,2.16,4.17,4.17,0,0,1-1.57,3.3,6.32,6.32,0,0,1-4.26,1.38,7.47,7.47,0,0,1-5.51-2.16l2.1-2.22a4.51,4.51,0,0,0,3.14,1.5c1.12,0,2-.51,2-1.41s-.72-1.14-1.25-1.32l-.91-.3a7.84,7.84,0,0,1-3.05-1.56,3.32,3.32,0,0,1-1.08-2.49,3.73,3.73,0,0,1,1.47-2.94,6.29,6.29,0,0,1,3.71-.93,7.54,7.54,0,0,1,4.52,1.38Z"/><path class="cls-3" d="M148,232.6a6.6,6.6,0,0,1,0,10.17,9.9,9.9,0,0,1-11.47,0,6.6,6.6,0,0,1,0-10.17,9.9,9.9,0,0,1,11.47,0Zm-1.74,5.1a4,4,0,1,0-4,3.66A3.79,3.79,0,0,0,146.3,237.7Z"/><path class="cls-3" d="M153.51,231.19h4v1.47a5.45,5.45,0,0,1,4.23-1.89,4.74,4.74,0,0,1,4.49,2.37,5.32,5.32,0,0,1,4.56-2.37,4.66,4.66,0,0,1,3.83,1.59,5.1,5.1,0,0,1,1,3.66v8.16h-4V237.1a3.67,3.67,0,0,0-.66-2.55,2.11,2.11,0,0,0-1.64-.66,2.4,2.4,0,0,0-2.2,1.14,4.61,4.61,0,0,0-.55,2.52v6.63h-4V237.1a3.67,3.67,0,0,0-.66-2.55,2.09,2.09,0,0,0-1.63-.66,2.39,2.39,0,0,0-2.2,1.14,4.54,4.54,0,0,0-.56,2.52v6.63h-4Z"/><path class="cls-3" d="M179.41,231.19h4v1.47a5.45,5.45,0,0,1,4.23-1.89,4.74,4.74,0,0,1,4.49,2.37,5.32,5.32,0,0,1,4.56-2.37,4.66,4.66,0,0,1,3.83,1.59,5.1,5.1,0,0,1,1,3.66v8.16h-4V237.1a3.67,3.67,0,0,0-.66-2.55,2.09,2.09,0,0,0-1.64-.66A2.38,2.38,0,0,0,193,235a4.54,4.54,0,0,0-.56,2.52v6.63h-4V237.1a3.74,3.74,0,0,0-.65-2.55,2.12,2.12,0,0,0-1.64-.66A2.4,2.4,0,0,0,184,235a4.63,4.63,0,0,0-.56,2.52v6.63h-4Z"/><path class="cls-3" d="M219.23,240.55c-.43,1-2,4-7,4a7.85,7.85,0,0,1-5.45-1.83,6.28,6.28,0,0,1-2.22-5.07,6.62,6.62,0,0,1,2.16-5.1,7.68,7.68,0,0,1,5.34-1.83,7.06,7.06,0,0,1,5.54,2.13,7.29,7.29,0,0,1,1.7,5.1v.3H208.7a3.66,3.66,0,0,0,.69,2.19,3.5,3.5,0,0,0,2.86,1.23,3.75,3.75,0,0,0,3.31-1.71ZM215.56,236a3.47,3.47,0,0,0-6.72,0Z"/><path class="cls-3" d="M244,240.55c-.43,1-2,4-7,4a7.82,7.82,0,0,1-5.44-1.83,6.25,6.25,0,0,1-2.23-5.07,6.66,6.66,0,0,1,2.16-5.1,7.68,7.68,0,0,1,5.34-1.83,7.06,7.06,0,0,1,5.54,2.13,7.31,7.31,0,0,1,1.71,5.1v.3H233.45a3.59,3.59,0,0,0,.69,2.19,3.48,3.48,0,0,0,2.85,1.23A3.74,3.74,0,0,0,240.3,240ZM240.3,236a3.47,3.47,0,0,0-6.72,0Z"/><path class="cls-3" d="M247.15,231.19h4v1.47a5.42,5.42,0,0,1,4.22-1.89,4.72,4.72,0,0,1,4.49,2.37,5.32,5.32,0,0,1,4.56-2.37,4.67,4.67,0,0,1,3.84,1.59,5.14,5.14,0,0,1,1,3.66v8.16h-4V237.1a3.67,3.67,0,0,0-.66-2.55,2.09,2.09,0,0,0-1.63-.66,2.39,2.39,0,0,0-2.2,1.14,4.54,4.54,0,0,0-.56,2.52v6.63h-4V237.1a3.74,3.74,0,0,0-.65-2.55,2.12,2.12,0,0,0-1.64-.66,2.4,2.4,0,0,0-2.2,1.14,4.61,4.61,0,0,0-.55,2.52v6.63h-4Z"/><path class="cls-3" d="M273,231.19h4v1.68a5.33,5.33,0,0,1,4.39-2.1,5.67,5.67,0,0,1,4.19,1.59,5.11,5.11,0,0,1,1.12,3.66v8.16h-4V237.1a3.49,3.49,0,0,0-.75-2.55,2.72,2.72,0,0,0-1.87-.66,2.81,2.81,0,0,0-2.46,1.14,4.16,4.16,0,0,0-.62,2.52v6.63h-4Z"/><path class="cls-3" d="M304.47,240.55c-.43,1-2,4-7,4a7.82,7.82,0,0,1-5.44-1.83,6.25,6.25,0,0,1-2.23-5.07,6.66,6.66,0,0,1,2.16-5.1,7.68,7.68,0,0,1,5.34-1.83,7.06,7.06,0,0,1,5.54,2.13,7.31,7.31,0,0,1,1.71,5.1v.3H294a3.59,3.59,0,0,0,.69,2.19,3.48,3.48,0,0,0,2.85,1.23A3.74,3.74,0,0,0,300.8,240ZM300.8,236a3.47,3.47,0,0,0-6.72,0Z"/><path class="cls-3" d="M307.65,231.19h4v1.95a4.52,4.52,0,0,1,1.77-1.8,4.65,4.65,0,0,1,2.36-.57,5.34,5.34,0,0,1,1.7.3l-.53,3.42a3.17,3.17,0,0,0-1.86-.48,3.43,3.43,0,0,0-2.66,1.05,4.19,4.19,0,0,0-.78,2.88v6.24h-4Z"/><path class="cls-3" d="M334.82,234.28a3.52,3.52,0,0,0-2.33-.87c-.95,0-1.54.42-1.54,1.05,0,.33.16.84,1.28,1.17l.95.27a7.47,7.47,0,0,1,3.6,1.86,3.52,3.52,0,0,1,.72,2.16,4.14,4.14,0,0,1-1.57,3.3,6.3,6.3,0,0,1-4.26,1.38,7.48,7.48,0,0,1-5.51-2.16l2.1-2.22a4.56,4.56,0,0,0,3.15,1.5c1.11,0,2-.51,2-1.41s-.72-1.14-1.24-1.32l-.92-.3a8,8,0,0,1-3-1.56,3.36,3.36,0,0,1-1.08-2.49,3.74,3.74,0,0,1,1.48-2.94,6.24,6.24,0,0,1,3.7-.93,7.52,7.52,0,0,1,4.52,1.38Z"/><path class="cls-3" d="M353.46,232.6a6.59,6.59,0,0,1,0,10.17,9.9,9.9,0,0,1-11.47,0,6.6,6.6,0,0,1,0-10.17,9.9,9.9,0,0,1,11.47,0Zm-1.73,5.1a4,4,0,1,0-4,3.66A3.8,3.8,0,0,0,351.73,237.7Z"/><path class="cls-3" d="M358.94,231.19h4v1.47a5.42,5.42,0,0,1,4.22-1.89,4.72,4.72,0,0,1,4.49,2.37,5.32,5.32,0,0,1,4.56-2.37,4.63,4.63,0,0,1,3.83,1.59,5.1,5.1,0,0,1,1,3.66v8.16h-4V237.1a3.67,3.67,0,0,0-.66-2.55,2.09,2.09,0,0,0-1.64-.66,2.38,2.38,0,0,0-2.19,1.14,4.54,4.54,0,0,0-.56,2.52v6.63h-4V237.1a3.74,3.74,0,0,0-.65-2.55,2.12,2.12,0,0,0-1.64-.66,2.4,2.4,0,0,0-2.2,1.14,4.61,4.61,0,0,0-.55,2.52v6.63h-4Z"/><path class="cls-3" d="M396.46,232.87a5.72,5.72,0,0,1,4.62-2.1,6.66,6.66,0,0,1,7,6.9A6.75,6.75,0,0,1,401,244.6a5.58,5.58,0,0,1-4.53-2.1v1.68h-4V222.31h4Zm-.39,4.8A3.95,3.95,0,1,0,400,234,3.72,3.72,0,0,0,396.07,237.67Z"/><path class="cls-3" d="M413.14,223.51a2.2,2.2,0,1,1-2.39,2.19A2.32,2.32,0,0,1,413.14,223.51Zm2,7.68v13h-4v-13Z"/><path class="cls-3" d="M422.94,222.31v21.87h-4V222.31Z"/><path class="cls-3" d="M430.74,222.31v21.87h-4V222.31Z"/><path class="cls-3" d="M448.47,240.55c-.42,1-2,4-7,4a7.84,7.84,0,0,1-5.44-1.83,6.28,6.28,0,0,1-2.23-5.07,6.62,6.62,0,0,1,2.17-5.1,7.66,7.66,0,0,1,5.34-1.83,7.09,7.09,0,0,1,5.54,2.13,7.34,7.34,0,0,1,1.7,5.1v.3H438a3.59,3.59,0,0,0,.69,2.19,3.49,3.49,0,0,0,2.85,1.23A3.72,3.72,0,0,0,444.8,240ZM444.8,236a3.47,3.47,0,0,0-6.72,0Z"/><path class="cls-3" d="M462.53,222.31h4v21.87h-4V242.5a5.26,5.26,0,0,1-4.36,2.1,6.88,6.88,0,0,1-7.24-6.93,6.77,6.77,0,0,1,7.05-6.9,5.32,5.32,0,0,1,4.55,2.1Zm-7.47,15.36A3.95,3.95,0,1,0,459,234,3.72,3.72,0,0,0,455.06,237.67Z"/><path class="cls-3" d="M481.21,222.31h4v21.87h-4V242.5a5.26,5.26,0,0,1-4.35,2.1,6.89,6.89,0,0,1-7.25-6.93,6.77,6.77,0,0,1,7.05-6.9,5.32,5.32,0,0,1,4.55,2.1Zm-7.47,15.36a3.95,3.95,0,1,0,3.93-3.66A3.72,3.72,0,0,0,473.74,237.67Z"/><path class="cls-3" d="M502.94,240.55c-.42,1-2,4-7,4a7.84,7.84,0,0,1-5.44-1.83,6.28,6.28,0,0,1-2.23-5.07,6.66,6.66,0,0,1,2.16-5.1,7.7,7.7,0,0,1,5.35-1.83,7.09,7.09,0,0,1,5.54,2.13A7.34,7.34,0,0,1,503,238v.3H492.42a3.59,3.59,0,0,0,.69,2.19,3.48,3.48,0,0,0,2.85,1.23,3.74,3.74,0,0,0,3.31-1.71ZM499.27,236a3.47,3.47,0,0,0-6.72,0Z"/><path class="cls-3" d="M510.12,222.31v21.87h-4V222.31Z"/><path class="cls-3" d="M515.92,223.51a2.2,2.2,0,1,1-2.39,2.19A2.31,2.31,0,0,1,515.92,223.51Zm2,7.68v13h-4v-13Z"/><path class="cls-3" d="M521.72,231.19h4v1.68a5.34,5.34,0,0,1,4.39-2.1,5.71,5.71,0,0,1,4.2,1.59,5.15,5.15,0,0,1,1.11,3.66v8.16h-4V237.1a3.49,3.49,0,0,0-.75-2.55,2.72,2.72,0,0,0-1.87-.66,2.81,2.81,0,0,0-2.46,1.14,4.16,4.16,0,0,0-.62,2.52v6.63h-4Z"/><path class="cls-3" d="M550,231.19h4v12.39c0,2-.19,4-2,5.67a7.94,7.94,0,0,1-5.61,1.83,8.2,8.2,0,0,1-5.31-1.5,7.08,7.08,0,0,1-2.29-3.87h4.33a3,3,0,0,0,1,1.56,3.78,3.78,0,0,0,2.43.69,3.54,3.54,0,0,0,2.42-.81,3.46,3.46,0,0,0,1-2.88v-1.83a5.14,5.14,0,0,1-4.36,2.16,7.08,7.08,0,0,1-4.92-1.77,7.09,7.09,0,0,1-.06-10.32,7.29,7.29,0,0,1,4.88-1.74,5.12,5.12,0,0,1,4.46,2.1Zm-6.13,3.72a3.62,3.62,0,0,0-.23,5.31,4.05,4.05,0,0,0,2.88,1.14,4.27,4.27,0,0,0,2.66-.9,3.68,3.68,0,0,0,1.28-2.79,3.54,3.54,0,0,0-1.15-2.61,3.83,3.83,0,0,0-2.79-1.05A4,4,0,0,0,543.91,234.91Z"/><path class="cls-3" d="M561.44,239.89a2.35,2.35,0,1,1-2.56,2.34A2.42,2.42,0,0,1,561.44,239.89Z"/><path class="cls-3" d="M581.4,224.17c3.05,0,5.7.3,8.13,2a9.63,9.63,0,0,1,4.19,8.07,9.31,9.31,0,0,1-4.39,8.07c-2.55,1.65-5,1.92-8,1.92H575.7v-20ZM580,240.82h1.31a9.81,9.81,0,0,0,5.34-1.32,6.31,6.31,0,0,0,2.72-5.31,6.45,6.45,0,0,0-2.69-5.34,9.52,9.52,0,0,0-5.37-1.32H580Z"/><path class="cls-3" d="M611,240.55c-.43,1-2,4-7,4a7.84,7.84,0,0,1-5.44-1.83,6.28,6.28,0,0,1-2.23-5.07,6.62,6.62,0,0,1,2.17-5.1,7.68,7.68,0,0,1,5.34-1.83,7.07,7.07,0,0,1,5.54,2.13,7.29,7.29,0,0,1,1.7,5.1v.3H600.47a3.59,3.59,0,0,0,.69,2.19,3.49,3.49,0,0,0,2.85,1.23,3.72,3.72,0,0,0,3.31-1.71ZM607.32,236a3.46,3.46,0,0,0-6.71,0Z"/><path class="cls-3" d="M614.17,231.19h4v1.95a4.59,4.59,0,0,1,1.77-1.8,4.65,4.65,0,0,1,2.36-.57,5.35,5.35,0,0,1,1.71.3l-.53,3.42a3.21,3.21,0,0,0-1.87-.48,3.41,3.41,0,0,0-2.65,1.05,4.14,4.14,0,0,0-.79,2.88v6.24h-4Z"/><path class="cls-3" d="M630.72,234.31v9.87h-4v-9.87h-1.5v-3.12h1.5v-3.57a5.4,5.4,0,0,1,1.87-4.59A5.65,5.65,0,0,1,632.1,222a5.51,5.51,0,0,1,2.29.45v3.33a2.92,2.92,0,0,0-1.8-.54,1.63,1.63,0,0,0-1.44.66,4,4,0,0,0-.43,2.25v3.09h3.67v3.12Z"/><path class="cls-3" d="M649.37,232.6a6.6,6.6,0,0,1,0,10.17,9.9,9.9,0,0,1-11.47,0,6.6,6.6,0,0,1,0-10.17,9.9,9.9,0,0,1,11.47,0Zm-1.74,5.1a4,4,0,1,0-4,3.66A3.79,3.79,0,0,0,647.63,237.7Z"/><path class="cls-3" d="M654.84,231.19h4v1.95a4.59,4.59,0,0,1,1.77-1.8,4.65,4.65,0,0,1,2.36-.57,5.35,5.35,0,0,1,1.71.3l-.53,3.42a3.21,3.21,0,0,0-1.87-.48,3.42,3.42,0,0,0-2.65,1.05,4.14,4.14,0,0,0-.79,2.88v6.24h-4Z"/><path class="cls-3" d="M674.28,222.31h4v10.56a5.33,5.33,0,0,1,4.39-2.1,5.68,5.68,0,0,1,4.19,1.59A5.11,5.11,0,0,1,688,236v8.16h-4V237.1a3.46,3.46,0,0,0-.76-2.55,2.69,2.69,0,0,0-1.86-.66A2.81,2.81,0,0,0,678.9,235a4.16,4.16,0,0,0-.62,2.52v6.63h-4Z"/><path class="cls-3" d="M702.66,231.19h4v13h-4V242.5a5.26,5.26,0,0,1-4.36,2.1,6.88,6.88,0,0,1-7.24-6.93,6.77,6.77,0,0,1,7-6.9,5.32,5.32,0,0,1,4.56,2.1Zm-7.47,6.48a3.94,3.94,0,1,0,3.93-3.66A3.72,3.72,0,0,0,695.19,237.67Z"/><path class="cls-3" d="M710.46,231.19h4v1.95a4.52,4.52,0,0,1,1.77-1.8,4.65,4.65,0,0,1,2.36-.57,5.29,5.29,0,0,1,1.7.3l-.52,3.42a3.23,3.23,0,0,0-1.87-.48,3.43,3.43,0,0,0-2.66,1.05,4.19,4.19,0,0,0-.78,2.88v6.24h-4Z"/><path class="cls-3" d="M741.23,228.73a4.42,4.42,0,0,0-3.57-1.71c-2.29,0-3,1.32-3,2.34a1.64,1.64,0,0,0,.69,1.35,7.86,7.86,0,0,0,2.62,1.14,13.15,13.15,0,0,1,4.43,2,5.25,5.25,0,0,1,1.87,4.2c0,3.9-3.08,6.57-7.61,6.57a9.16,9.16,0,0,1-7.53-3.78l2.78-2.43a5.2,5.2,0,0,0,4.59,2.67c1.93,0,3.38-1.08,3.38-2.76a2.25,2.25,0,0,0-.86-1.8,10.14,10.14,0,0,0-3.37-1.47,10.93,10.93,0,0,1-3.64-1.74,4.51,4.51,0,0,1-1.74-3.72c0-2.94,2.17-5.88,7-5.88a8.85,8.85,0,0,1,6.19,2.34Z"/><path class="cls-3" d="M761.32,240.55c-.42,1-2,4-7,4a7.84,7.84,0,0,1-5.44-1.83,6.28,6.28,0,0,1-2.23-5.07,6.62,6.62,0,0,1,2.17-5.1,7.66,7.66,0,0,1,5.34-1.83,7.09,7.09,0,0,1,5.54,2.13,7.34,7.34,0,0,1,1.7,5.1v.3H750.8a3.59,3.59,0,0,0,.69,2.19,3.49,3.49,0,0,0,2.85,1.23,3.72,3.72,0,0,0,3.31-1.71ZM757.65,236a3.47,3.47,0,0,0-6.72,0Z"/><path class="cls-3" d="M768.73,237.1l-5.44-5.91h5.05l2.88,3.36,2.95-3.36h5.05l-5.54,5.91,6.72,7.08h-5.12l-4.06-4.53-4.13,4.53H762Z"/><path class="cls-3" d="M809.53,236.71a23.42,23.42,0,0,1-2.36,2.43l-.49.45,4.43,4.59h-5.28l-2.13-2.25a11.33,11.33,0,0,1-7.05,2.7c-4.49,0-6.85-2.85-6.85-5.73s2.53-4.53,3.51-5.07l1.7-.93a6.15,6.15,0,0,1-2.19-4.2c0-2.49,2-5,6-5,3.8,0,5.86,2.31,5.86,4.77,0,1.44-.75,3.15-3.08,4.44l-.91.51,3.6,3.78a23.6,23.6,0,0,0,2.72-2.76Zm-12.35-1.59c-1.68.81-3.12,1.92-3.12,3.45s1.38,2.64,3.21,2.64a6.45,6.45,0,0,0,4-1.74Zm1.5-3.75,1-.63a2.66,2.66,0,0,0,1.5-2.22,2.19,2.19,0,0,0-4.35-.12,2.93,2.93,0,0,0,.91,1.89Z"/><path class="cls-3" d="M832.24,228.73a4.42,4.42,0,0,0-3.57-1.71c-2.29,0-3,1.32-3,2.34a1.63,1.63,0,0,0,.68,1.35,7.83,7.83,0,0,0,2.63,1.14,13.18,13.18,0,0,1,4.42,2,5.25,5.25,0,0,1,1.87,4.2c0,3.9-3.08,6.57-7.61,6.57a9.16,9.16,0,0,1-7.53-3.78l2.78-2.43a5.2,5.2,0,0,0,4.59,2.67c1.94,0,3.38-1.08,3.38-2.76a2.24,2.24,0,0,0-.85-1.8,10.28,10.28,0,0,0-3.38-1.47,10.84,10.84,0,0,1-3.64-1.74,4.51,4.51,0,0,1-1.74-3.72c0-2.94,2.17-5.88,7-5.88a8.85,8.85,0,0,1,6.19,2.34Z"/><path class="cls-3" d="M849.28,231.19h4v13h-4V242.5a5.26,5.26,0,0,1-4.35,2.1,6.89,6.89,0,0,1-7.25-6.93,6.77,6.77,0,0,1,7.05-6.9,5.32,5.32,0,0,1,4.55,2.1Zm-7.47,6.48a3.95,3.95,0,1,0,3.94-3.66A3.73,3.73,0,0,0,841.81,237.67Z"/><path class="cls-3" d="M857.09,231.19h4v1.47a5.45,5.45,0,0,1,4.23-1.89,4.74,4.74,0,0,1,4.49,2.37,5.32,5.32,0,0,1,4.56-2.37,4.66,4.66,0,0,1,3.83,1.59,5.1,5.1,0,0,1,1,3.66v8.16h-4V237.1a3.67,3.67,0,0,0-.66-2.55,2.09,2.09,0,0,0-1.64-.66,2.38,2.38,0,0,0-2.19,1.14,4.54,4.54,0,0,0-.56,2.52v6.63h-4V237.1a3.74,3.74,0,0,0-.65-2.55,2.12,2.12,0,0,0-1.64-.66,2.4,2.4,0,0,0-2.2,1.14,4.63,4.63,0,0,0-.56,2.52v6.63h-4Z"/><path class="cls-3" d="M887,234.31v9.87h-4v-9.87h-1.51v-3.12H883v-3.57a5.4,5.4,0,0,1,1.87-4.59,5.63,5.63,0,0,1,3.51-1.08,5.54,5.54,0,0,1,2.29.45v3.33a2.94,2.94,0,0,0-1.8-.54,1.62,1.62,0,0,0-1.44.66,4,4,0,0,0-.43,2.25v3.09h3.67v3.12Z"/><path class="cls-3" d="M896.54,231.19v7.35a2.77,2.77,0,0,0,.86,2.28,3.45,3.45,0,0,0,4.06,0,2.76,2.76,0,0,0,.85-2.28v-7.35h4v7.95a4.68,4.68,0,0,1-1.74,4,9.74,9.74,0,0,1-10.29,0,4.69,4.69,0,0,1-1.73-4v-7.95Z"/><path class="cls-3" d="M910.11,231.19h4v1.68a5.34,5.34,0,0,1,4.39-2.1,5.71,5.71,0,0,1,4.2,1.59,5.15,5.15,0,0,1,1.11,3.66v8.16h-4V237.1a3.49,3.49,0,0,0-.75-2.55,2.69,2.69,0,0,0-1.87-.66,2.81,2.81,0,0,0-2.46,1.14,4.16,4.16,0,0,0-.62,2.52v6.63h-4Z"/><path class="cls-3" d="M938.49,222.31h4v21.87h-4V242.5a5.26,5.26,0,0,1-4.35,2.1,6.89,6.89,0,0,1-7.25-6.93,6.77,6.77,0,0,1,7.05-6.9,5.32,5.32,0,0,1,4.55,2.1ZM931,237.67A3.95,3.95,0,1,0,935,234,3.72,3.72,0,0,0,931,237.67Z"/><path class="cls-3" d="M93.15,270.28a3.5,3.5,0,0,0-2.33-.87c-.95,0-1.54.42-1.54,1,0,.33.16.84,1.28,1.17l1,.27a7.47,7.47,0,0,1,3.6,1.86,3.52,3.52,0,0,1,.72,2.16,4.14,4.14,0,0,1-1.57,3.3A6.3,6.3,0,0,1,90,280.6a7.48,7.48,0,0,1-5.51-2.16l2.1-2.22a4.56,4.56,0,0,0,3.15,1.5c1.11,0,2-.51,2-1.41S91,275.17,90.46,275l-.92-.3a8,8,0,0,1-3.05-1.56,3.36,3.36,0,0,1-1.08-2.49,3.74,3.74,0,0,1,1.48-2.94,6.24,6.24,0,0,1,3.7-.93,7.52,7.52,0,0,1,4.52,1.38Z"/><path class="cls-3" d="M102.65,258.31v13.62l5.31-4.74h5.18l-6.66,5.7,7.18,7.29h-5.31l-5.27-5.55-.43.36v5.19h-4V258.31Z"/><path class="cls-3" d="M126.31,267.19h4v13h-4V278.5a5.26,5.26,0,0,1-4.36,2.1,6.89,6.89,0,0,1-7.24-6.93,6.77,6.77,0,0,1,7.05-6.9,5.32,5.32,0,0,1,4.55,2.1Zm-7.47,6.48a3.95,3.95,0,1,0,3.93-3.66A3.72,3.72,0,0,0,118.84,273.67Z"/><path class="cls-3" d="M138.11,268.87a5.72,5.72,0,0,1,4.62-2.1,6.66,6.66,0,0,1,7,6.9,6.75,6.75,0,0,1-7.08,6.93,5.57,5.57,0,0,1-4.52-2.1v1.68h-4V258.31h4Zm-.39,4.8a3.94,3.94,0,1,0,3.93-3.66A3.72,3.72,0,0,0,137.72,273.67Z"/><path class="cls-3" d="M156.79,270.31v9.87h-4v-9.87h-1.57v-3.12h1.57v-4.44h4v4.44h2.75v3.12Z"/><path class="cls-3" d="M176.23,260.17c2.45,0,4.16.24,5.76,1.53a6.39,6.39,0,0,1,.43,9.3,7.92,7.92,0,0,1-5.54,1.77h-2.75v7.41h-4.26v-20Zm-2.1,9.24h1.73a4.68,4.68,0,0,0,2.79-.63,2.88,2.88,0,0,0,1.18-2.34,2.69,2.69,0,0,0-1.21-2.28,5.54,5.54,0,0,0-3-.63h-1.47Z"/><path class="cls-3" d="M186.78,267.19h4v1.95a4.52,4.52,0,0,1,1.77-1.8,4.65,4.65,0,0,1,2.36-.57,5.29,5.29,0,0,1,1.7.3l-.52,3.42a3.23,3.23,0,0,0-1.87-.48,3.43,3.43,0,0,0-2.66,1.05,4.19,4.19,0,0,0-.78,2.88v6.24h-4Z"/><path class="cls-3" d="M200.58,259.51a2.2,2.2,0,1,1-2.4,2.19A2.31,2.31,0,0,1,200.58,259.51Zm2,7.68v13h-4v-13Z"/><path class="cls-3" d="M209,267.19l3.73,7.32,3.74-7.32h4.46l-7.15,13h-2.09l-7.15-13Z"/><path class="cls-3" d="M233.45,267.19h4v13h-4V278.5a5.26,5.26,0,0,1-4.36,2.1,6.88,6.88,0,0,1-7.24-6.93,6.77,6.77,0,0,1,7-6.9,5.34,5.34,0,0,1,4.56,2.1ZM226,273.67a3.95,3.95,0,1,0,3.94-3.66A3.73,3.73,0,0,0,226,273.67Z"/><path class="cls-3" d="M245.25,270.31v9.87h-4v-9.87h-1.58v-3.12h1.58v-4.44h4v4.44H248v3.12Z"/><path class="cls-3" d="M261.44,264.73a4.43,4.43,0,0,0-3.58-1.71c-2.29,0-3,1.32-3,2.34a1.62,1.62,0,0,0,.69,1.35,7.66,7.66,0,0,0,2.62,1.14,13.18,13.18,0,0,1,4.42,2,5.22,5.22,0,0,1,1.87,4.2c0,3.9-3.08,6.57-7.6,6.57a9.19,9.19,0,0,1-7.54-3.78l2.79-2.43a5.18,5.18,0,0,0,4.58,2.67c1.94,0,3.38-1.08,3.38-2.76a2.24,2.24,0,0,0-.85-1.8,10.19,10.19,0,0,0-3.38-1.47,10.93,10.93,0,0,1-3.64-1.74,4.51,4.51,0,0,1-1.73-3.72c0-2.94,2.16-5.88,7-5.88a8.82,8.82,0,0,1,6.19,2.34Z"/><path class="cls-3" d="M267.6,267.19h4v1.68a5.33,5.33,0,0,1,4.39-2.1,5.68,5.68,0,0,1,4.19,1.59A5.11,5.11,0,0,1,281.3,272v8.16h-4V273.1a3.46,3.46,0,0,0-.76-2.55,2.69,2.69,0,0,0-1.86-.66,2.81,2.81,0,0,0-2.46,1.14,4.16,4.16,0,0,0-.62,2.52v6.63h-4Z"/><path class="cls-3" d="M296,267.19h4v13h-4V278.5a5.26,5.26,0,0,1-4.36,2.1,6.88,6.88,0,0,1-7.24-6.93,6.77,6.77,0,0,1,7-6.9,5.33,5.33,0,0,1,4.56,2.1Zm-7.47,6.48a3.94,3.94,0,1,0,3.93-3.66A3.72,3.72,0,0,0,288.51,273.67Z"/><path class="cls-3" d="M307.78,258.31v13.62l5.31-4.74h5.18l-6.66,5.7,7.18,7.29h-5.31l-5.28-5.55-.42.36v5.19h-4V258.31Z"/><path class="cls-3" d="M323,276l3.67.39L322,284.38l-2.52-.27Z"/><path class="cls-3" d="M339.63,258.31h4v10.56a5.34,5.34,0,0,1,4.39-2.1,5.71,5.71,0,0,1,4.2,1.59,5.15,5.15,0,0,1,1.11,3.66v8.16h-4V273.1a3.49,3.49,0,0,0-.75-2.55,2.72,2.72,0,0,0-1.87-.66,2.81,2.81,0,0,0-2.46,1.14,4.16,4.16,0,0,0-.62,2.52v6.63h-4Z"/><path class="cls-3" d="M359.1,267.19l3.74,7.32,3.73-7.32H371l-7.15,13h-2.09l-7.15-13Z"/><path class="cls-3" d="M385.48,268.6a6.59,6.59,0,0,1,0,10.17,9.9,9.9,0,0,1-11.47,0,6.6,6.6,0,0,1,0-10.17,9.9,9.9,0,0,1,11.47,0Zm-1.73,5.1a4,4,0,1,0-4,3.66A3.8,3.8,0,0,0,383.75,273.7Z"/><path class="cls-3" d="M391,267.19h4v1.95a4.51,4.51,0,0,1,4.13-2.37,5.35,5.35,0,0,1,1.71.3l-.53,3.42a3.19,3.19,0,0,0-1.86-.48,3.43,3.43,0,0,0-2.66,1.05,4.2,4.2,0,0,0-.79,2.88v6.24h-4Z"/><path class="cls-3" d="M414.39,267.19v7.35a2.76,2.76,0,0,0,.85,2.28,3.45,3.45,0,0,0,4.06,0,2.77,2.77,0,0,0,.86-2.28v-7.35h4v7.95a4.7,4.7,0,0,1-1.74,4,9.74,9.74,0,0,1-10.29,0,4.68,4.68,0,0,1-1.74-4v-7.95Z"/><path class="cls-3" d="M428,267.19h4v1.68a5.36,5.36,0,0,1,4.4-2.1,5.68,5.68,0,0,1,4.19,1.59,5.11,5.11,0,0,1,1.12,3.66v8.16h-4V273.1a3.5,3.5,0,0,0-.76-2.55,2.69,2.69,0,0,0-1.87-.66,2.81,2.81,0,0,0-2.45,1.14,4.17,4.17,0,0,0-.63,2.52v6.63h-4Z"/><path class="cls-3" d="M456.27,267.19h4v12.39c0,2-.2,4.05-2,5.67a7.92,7.92,0,0,1-5.6,1.83,8.2,8.2,0,0,1-5.31-1.5,7,7,0,0,1-2.29-3.87h4.32a3.12,3.12,0,0,0,1,1.56,3.75,3.75,0,0,0,2.42.69,3.57,3.57,0,0,0,2.43-.81,3.45,3.45,0,0,0,1-2.88v-1.83a5.12,5.12,0,0,1-4.36,2.16,7,7,0,0,1-4.91-1.77,7.1,7.1,0,0,1-.07-10.32,7.32,7.32,0,0,1,4.89-1.74,5.09,5.09,0,0,1,4.45,2.1Zm-6.13,3.72a3.62,3.62,0,0,0-.23,5.31,4.09,4.09,0,0,0,2.89,1.14,4.22,4.22,0,0,0,2.65-.9,3.68,3.68,0,0,0,1.28-2.79,3.54,3.54,0,0,0-1.15-2.61A3.8,3.8,0,0,0,452.8,270,4.06,4.06,0,0,0,450.14,270.91Z"/><path class="cls-3" d="M478,276.55c-.42,1-2,4.05-7,4.05a7.84,7.84,0,0,1-5.44-1.83,6.28,6.28,0,0,1-2.23-5.07,6.66,6.66,0,0,1,2.16-5.1,7.7,7.7,0,0,1,5.35-1.83,7.09,7.09,0,0,1,5.54,2.13,7.34,7.34,0,0,1,1.7,5.1v.3H467.48a3.59,3.59,0,0,0,.69,2.19,3.49,3.49,0,0,0,2.85,1.23,3.72,3.72,0,0,0,3.31-1.71ZM474.33,272a3.47,3.47,0,0,0-6.72,0Z"/><path class="cls-3" d="M490.81,259.51a2.2,2.2,0,1,1-2.39,2.19A2.32,2.32,0,0,1,490.81,259.51Zm2,7.68v13h-4v-13Z"/><path class="cls-3" d="M515.13,267.19h4v13h-4V278.5a5.26,5.26,0,0,1-4.36,2.1,6.88,6.88,0,0,1-7.24-6.93,6.77,6.77,0,0,1,7.05-6.9,5.32,5.32,0,0,1,4.55,2.1Zm-7.47,6.48a3.95,3.95,0,1,0,3.93-3.66A3.72,3.72,0,0,0,507.66,273.67Z"/><path class="cls-3" d="M526.93,258.31v21.87h-4V258.31Z"/><path class="cls-3" d="M541.61,258.31h4v21.87h-4V278.5a5.26,5.26,0,0,1-4.36,2.1,6.88,6.88,0,0,1-7.24-6.93,6.77,6.77,0,0,1,7-6.9,5.32,5.32,0,0,1,4.55,2.1Zm-7.47,15.36a3.95,3.95,0,1,0,3.93-3.66A3.72,3.72,0,0,0,534.14,273.67Z"/><path class="cls-3" d="M563.34,276.55c-.42,1-2,4.05-7,4.05a7.84,7.84,0,0,1-5.44-1.83,6.28,6.28,0,0,1-2.23-5.07,6.66,6.66,0,0,1,2.16-5.1,7.7,7.7,0,0,1,5.35-1.83,7.09,7.09,0,0,1,5.54,2.13,7.34,7.34,0,0,1,1.7,5.1v.3H552.82a3.59,3.59,0,0,0,.69,2.19,3.49,3.49,0,0,0,2.85,1.23,3.72,3.72,0,0,0,3.31-1.71ZM559.67,272a3.47,3.47,0,0,0-6.72,0Z"/><path class="cls-3" d="M566.52,267.19h4v1.95a4.52,4.52,0,0,1,1.77-1.8,4.65,4.65,0,0,1,2.36-.57,5.29,5.29,0,0,1,1.7.3l-.52,3.42A3.23,3.23,0,0,0,574,270a3.43,3.43,0,0,0-2.66,1.05,4.19,4.19,0,0,0-.78,2.88v6.24h-4Z"/><path class="cls-3" d="M591.56,276.55c-.43,1-2,4.05-7,4.05a7.82,7.82,0,0,1-5.44-1.83,6.25,6.25,0,0,1-2.23-5.07,6.62,6.62,0,0,1,2.16-5.1,7.68,7.68,0,0,1,5.34-1.83A7.06,7.06,0,0,1,590,268.9a7.31,7.31,0,0,1,1.71,5.1v.3H581a3.59,3.59,0,0,0,.69,2.19,3.48,3.48,0,0,0,2.85,1.23,3.74,3.74,0,0,0,3.31-1.71ZM587.89,272a3.47,3.47,0,0,0-6.72,0Z"/><path class="cls-3" d="M594.74,267.19h4v1.68a5.36,5.36,0,0,1,4.4-2.1,5.68,5.68,0,0,1,4.19,1.59,5.16,5.16,0,0,1,1.12,3.66v8.16h-4V273.1a3.46,3.46,0,0,0-.76-2.55,2.69,2.69,0,0,0-1.86-.66,2.81,2.81,0,0,0-2.46,1.14,4.17,4.17,0,0,0-.63,2.52v6.63h-4Z"/><path class="cls-3" d="M625.45,263.53H622.3v-3.36h7.4v20h-4.25Z"/><path class="cls-3" d="M635.15,270.16c0-6.87,4.09-10.44,8.45-10.44s8.46,3.57,8.46,10.47-4.1,10.44-8.46,10.44S635.15,277.06,635.15,270.16Zm4.26,0c0,5.22,2.32,7.11,4.19,7.11s4.2-1.89,4.2-7.11-2.36-7.08-4.2-7.08S639.41,265,639.41,270.16Z"/><path class="cls-3" d="M654.55,271.6h8.52V275h-8.52Z"/><path class="cls-3" d="M672.18,263.53H669v-3.36h7.41v20h-4.26Z"/><path class="cls-3" d="M695.38,263.53h-7.27l-.79,3.15a10.4,10.4,0,0,1,1.47-.12,8.37,8.37,0,0,1,5.64,2,6.28,6.28,0,0,1,1.94,4.8,6.65,6.65,0,0,1-2.23,5.22,8.21,8.21,0,0,1-6,2,11.76,11.76,0,0,1-4.72-.84,10.69,10.69,0,0,1-2.65-1.71l1.41-3.36a6.44,6.44,0,0,0,2.26,1.8,6.94,6.94,0,0,0,3.17.75,4.58,4.58,0,0,0,3.35-1.2,4.05,4.05,0,0,0,1.15-2.91,3.28,3.28,0,0,0-1.28-2.76,5.15,5.15,0,0,0-3.41-1,9.61,9.61,0,0,0-4.72,1.29l2.59-10.5h10.09Z"/><path class="cls-3" d="M719,267.19h4v13h-4V278.5a5.27,5.27,0,0,1-4.36,2.1,6.89,6.89,0,0,1-7.25-6.93,6.78,6.78,0,0,1,7-6.9,5.34,5.34,0,0,1,4.56,2.1Zm-7.48,6.48a3.95,3.95,0,1,0,3.94-3.66A3.73,3.73,0,0,0,711.47,273.67Zm4-14.31a2.83,2.83,0,1,1-3.08,2.82A3,3,0,0,1,715.44,259.36Zm0,4a1.17,1.17,0,1,0-1.28-1.17A1.18,1.18,0,0,0,715.44,263.35Z"/><path class="cls-3" d="M726.75,267.19h4v1.95a4.53,4.53,0,0,1,4.13-2.37,5.35,5.35,0,0,1,1.71.3l-.53,3.42a3.17,3.17,0,0,0-1.86-.48,3.43,3.43,0,0,0-2.66,1.05,4.2,4.2,0,0,0-.79,2.88v6.24h-4Z"/><path class="cls-3" d="M750.18,258.31v13.62l5.31-4.74h5.18l-6.66,5.7,7.18,7.29h-5.31l-5.27-5.55-.43.36v5.19h-4V258.31Z"/><path class="cls-3" d="M773.84,267.19h4v13h-4V278.5a5.26,5.26,0,0,1-4.36,2.1,6.88,6.88,0,0,1-7.24-6.93,6.77,6.77,0,0,1,7-6.9,5.32,5.32,0,0,1,4.56,2.1Zm-7.47,6.48A3.94,3.94,0,1,0,770.3,270,3.72,3.72,0,0,0,766.37,273.67Z"/><path class="cls-3" d="M781.64,267.19h4v1.68a5.34,5.34,0,0,1,4.39-2.1,5.71,5.71,0,0,1,4.2,1.59,5.15,5.15,0,0,1,1.11,3.66v8.16h-4V273.1a3.49,3.49,0,0,0-.75-2.55,2.72,2.72,0,0,0-1.87-.66,2.81,2.81,0,0,0-2.46,1.14,4.16,4.16,0,0,0-.62,2.52v6.63h-4Z"/><path class="cls-3" d="M810.84,270.31v9.87h-4v-9.87h-1.5v-3.12h1.5v-3.57a5.4,5.4,0,0,1,1.87-4.59,5.63,5.63,0,0,1,3.51-1.08,5.54,5.54,0,0,1,2.29.45v3.33a2.94,2.94,0,0,0-1.8-.54,1.63,1.63,0,0,0-1.44.66,4,4,0,0,0-.43,2.25v3.09h3.67v3.12Z"/><path class="cls-3" d="M827.23,267.19h4v13h-4V278.5a5.27,5.27,0,0,1-4.36,2.1,6.89,6.89,0,0,1-7.25-6.93,6.78,6.78,0,0,1,7-6.9,5.34,5.34,0,0,1,4.56,2.1Zm-7.47,6.48a3.94,3.94,0,1,0,3.93-3.66A3.72,3.72,0,0,0,819.76,273.67Zm4-14.31a2.83,2.83,0,1,1-3.08,2.82A3,3,0,0,1,823.72,259.36Zm0,4a1.17,1.17,0,1,0-1.28-1.17A1.18,1.18,0,0,0,823.72,263.35Z"/><path class="cls-3" d="M856.59,276.55c-.42,1-2,4.05-7,4.05a7.84,7.84,0,0,1-5.44-1.83,6.28,6.28,0,0,1-2.23-5.07,6.62,6.62,0,0,1,2.17-5.1,7.66,7.66,0,0,1,5.34-1.83A7.09,7.09,0,0,1,855,268.9a7.34,7.34,0,0,1,1.7,5.1v.3H846.07a3.59,3.59,0,0,0,.69,2.19,3.49,3.49,0,0,0,2.85,1.23,3.72,3.72,0,0,0,3.31-1.71ZM852.92,272a3.47,3.47,0,0,0-6.72,0Z"/><path class="cls-3" d="M859.77,267.19h4v1.68a5.34,5.34,0,0,1,4.39-2.1,5.71,5.71,0,0,1,4.2,1.59,5.15,5.15,0,0,1,1.11,3.66v8.16h-4V273.1a3.49,3.49,0,0,0-.75-2.55,2.71,2.71,0,0,0-1.87-.66,2.81,2.81,0,0,0-2.46,1.14,4.16,4.16,0,0,0-.62,2.52v6.63h-4Z"/><path class="cls-3" d="M895.72,267.19h4v12.39c0,2-.19,4.05-2,5.67a8,8,0,0,1-5.61,1.83,8.2,8.2,0,0,1-5.31-1.5,7,7,0,0,1-2.29-3.87h4.32a3.12,3.12,0,0,0,1,1.56,3.74,3.74,0,0,0,2.42.69,3.57,3.57,0,0,0,2.43-.81,3.48,3.48,0,0,0,1-2.88v-1.83a5.12,5.12,0,0,1-4.36,2.16,7,7,0,0,1-4.91-1.77,6.85,6.85,0,0,1-2.26-5.16,6.93,6.93,0,0,1,2.19-5.16,7.32,7.32,0,0,1,4.89-1.74,5.09,5.09,0,0,1,4.45,2.1Zm-6.13,3.72a3.64,3.64,0,0,0-.23,5.31,4.09,4.09,0,0,0,2.89,1.14,4.24,4.24,0,0,0,2.65-.9,3.68,3.68,0,0,0,1.28-2.79,3.54,3.54,0,0,0-1.15-2.61,3.8,3.8,0,0,0-2.78-1.05A4.08,4.08,0,0,0,889.59,270.91Z"/><path class="cls-3" d="M916.67,268.6a6.6,6.6,0,0,1,0,10.17,9.92,9.92,0,0,1-11.48,0,6.6,6.6,0,0,1,0-10.17,9.92,9.92,0,0,1,11.48,0Zm-1.74,5.1a4,4,0,1,0-4,3.66A3.8,3.8,0,0,0,914.93,273.7Z"/><path class="cls-3" d="M933,258.31h4v21.87h-4V278.5a5.26,5.26,0,0,1-4.36,2.1,6.88,6.88,0,0,1-7.24-6.93,6.77,6.77,0,0,1,7-6.9,5.33,5.33,0,0,1,4.56,2.1Zm-7.47,15.36a3.94,3.94,0,1,0,3.93-3.66A3.72,3.72,0,0,0,925.55,273.67Z"/><path class="cls-3" d="M956.19,270.28a3.5,3.5,0,0,0-2.33-.87c-1,0-1.54.42-1.54,1,0,.33.17.84,1.28,1.17l.95.27c1.11.33,2.79.84,3.61,1.86a3.59,3.59,0,0,1,.72,2.16,4.15,4.15,0,0,1-1.58,3.3A6.28,6.28,0,0,1,953,280.6a7.44,7.44,0,0,1-5.5-2.16l2.09-2.22a4.56,4.56,0,0,0,3.15,1.5c1.11,0,2-.51,2-1.41s-.72-1.14-1.25-1.32l-.92-.3a8,8,0,0,1-3.05-1.56,3.36,3.36,0,0,1-1.08-2.49,3.74,3.74,0,0,1,1.48-2.94,6.26,6.26,0,0,1,3.7-.93,7.57,7.57,0,0,1,4.53,1.38Z"/><path class="cls-3" d="M961.7,267.19h4v1.68a5.36,5.36,0,0,1,4.4-2.1,5.68,5.68,0,0,1,4.19,1.59,5.15,5.15,0,0,1,1.11,3.66v8.16h-4V273.1a3.5,3.5,0,0,0-.76-2.55,2.69,2.69,0,0,0-1.87-.66,2.79,2.79,0,0,0-2.45,1.14,4.17,4.17,0,0,0-.63,2.52v6.63h-4Z"/><path class="cls-3" d="M990.08,267.19h4v13h-4V278.5a5.28,5.28,0,0,1-4.36,2.1,6.89,6.89,0,0,1-7.25-6.93,6.78,6.78,0,0,1,7-6.9,5.34,5.34,0,0,1,4.56,2.1Zm-7.48,6.48a3.95,3.95,0,1,0,3.94-3.66A3.73,3.73,0,0,0,982.6,273.67Z"/><path class="cls-3" d="M1001.87,258.31v13.62l5.31-4.74h5.18l-6.65,5.7,7.18,7.29h-5.31l-5.28-5.55-.43.36v5.19h-4V258.31Z"/><path class="cls-3" d="M85.41,303.19h4v1.47a5.44,5.44,0,0,1,4.23-1.89,4.74,4.74,0,0,1,4.49,2.37,5.32,5.32,0,0,1,4.55-2.37,4.67,4.67,0,0,1,3.84,1.59,5.09,5.09,0,0,1,1,3.66v8.16h-4V309.1a3.74,3.74,0,0,0-.65-2.55,2.12,2.12,0,0,0-1.64-.66A2.4,2.4,0,0,0,99,307a4.63,4.63,0,0,0-.56,2.52v6.63h-4V309.1a3.67,3.67,0,0,0-.66-2.55,2.09,2.09,0,0,0-1.64-.66A2.38,2.38,0,0,0,90,307a4.54,4.54,0,0,0-.56,2.52v6.63h-4Z"/><path class="cls-3" d="M125.23,312.55c-.42,1-2,4.05-7,4.05a7.84,7.84,0,0,1-5.44-1.83,6.28,6.28,0,0,1-2.23-5.07,6.66,6.66,0,0,1,2.16-5.1,7.7,7.7,0,0,1,5.35-1.83,7.09,7.09,0,0,1,5.54,2.13,7.34,7.34,0,0,1,1.7,5.1v.3H114.71a3.59,3.59,0,0,0,.69,2.19,3.49,3.49,0,0,0,2.85,1.23,3.72,3.72,0,0,0,3.31-1.71ZM121.56,308a3.47,3.47,0,0,0-6.72,0Z"/><path class="cls-3" d="M139.29,294.31h4v21.87h-4V314.5a5.26,5.26,0,0,1-4.36,2.1,6.88,6.88,0,0,1-7.24-6.93,6.77,6.77,0,0,1,7.05-6.9,5.32,5.32,0,0,1,4.55,2.1Zm-7.47,15.36a3.95,3.95,0,1,0,3.93-3.66A3.72,3.72,0,0,0,131.82,309.67Z"/><path class="cls-3" d="M168.66,312.55c-.43,1-2,4.05-7,4.05a7.85,7.85,0,0,1-5.45-1.83A6.28,6.28,0,0,1,154,309.7a6.62,6.62,0,0,1,2.16-5.1,7.68,7.68,0,0,1,5.34-1.83,7.06,7.06,0,0,1,5.54,2.13,7.29,7.29,0,0,1,1.7,5.1v.3H158.13a3.59,3.59,0,0,0,.69,2.19,3.5,3.5,0,0,0,2.86,1.23A3.75,3.75,0,0,0,165,312ZM165,308a3.47,3.47,0,0,0-6.72,0Z"/><path class="cls-3" d="M171.83,303.19h4v1.68a5.36,5.36,0,0,1,4.39-2.1,5.71,5.71,0,0,1,4.2,1.59,5.15,5.15,0,0,1,1.11,3.66v8.16h-4V309.1a3.49,3.49,0,0,0-.75-2.55,2.69,2.69,0,0,0-1.87-.66,2.81,2.81,0,0,0-2.46,1.14,4.16,4.16,0,0,0-.62,2.52v6.63h-4Z"/><path class="cls-3" d="M210.9,312.55c-.43,1-2,4.05-7,4.05a7.82,7.82,0,0,1-5.44-1.83,6.25,6.25,0,0,1-2.23-5.07,6.66,6.66,0,0,1,2.16-5.1,7.69,7.69,0,0,1,5.35-1.83,7,7,0,0,1,5.53,2.13A7.31,7.31,0,0,1,211,310v.3H200.38a3.59,3.59,0,0,0,.69,2.19,3.48,3.48,0,0,0,2.85,1.23,3.74,3.74,0,0,0,3.31-1.71ZM207.23,308a3.47,3.47,0,0,0-6.72,0Z"/><path class="cls-3" d="M214.08,303.19h4v1.95a4.52,4.52,0,0,1,1.77-1.8,4.65,4.65,0,0,1,2.36-.57,5.34,5.34,0,0,1,1.7.3l-.52,3.42a3.23,3.23,0,0,0-1.87-.48,3.43,3.43,0,0,0-2.66,1.05,4.19,4.19,0,0,0-.78,2.88v6.24h-4Z"/><path class="cls-3" d="M230.63,306.31v9.87h-4v-9.87h-1.51v-3.12h1.51v-3.57A5.4,5.4,0,0,1,228.5,295,5.63,5.63,0,0,1,232,294a5.54,5.54,0,0,1,2.29.45v3.33a2.94,2.94,0,0,0-1.8-.54,1.65,1.65,0,0,0-1.45.66,4.07,4.07,0,0,0-.42,2.25v3.09h3.67v3.12Z"/><path class="cls-3" d="M247,303.19h4v13h-4V314.5a5.28,5.28,0,0,1-4.36,2.1,6.89,6.89,0,0,1-7.25-6.93,6.77,6.77,0,0,1,7.05-6.9,5.34,5.34,0,0,1,4.56,2.1Zm-7.48,6.48a3.95,3.95,0,1,0,3.94-3.66A3.73,3.73,0,0,0,239.54,309.67Z"/><path class="cls-3" d="M254.81,303.19h4v1.95a4.51,4.51,0,0,1,4.13-2.37,5.35,5.35,0,0,1,1.71.3l-.53,3.42a3.21,3.21,0,0,0-1.87-.48,3.42,3.42,0,0,0-2.65,1.05,4.2,4.2,0,0,0-.79,2.88v6.24h-4Z"/><path class="cls-3" d="M279.85,312.55c-.42,1-2,4.05-7,4.05a7.84,7.84,0,0,1-5.44-1.83,6.28,6.28,0,0,1-2.23-5.07,6.66,6.66,0,0,1,2.16-5.1,7.7,7.7,0,0,1,5.35-1.83,7.09,7.09,0,0,1,5.54,2.13A7.29,7.29,0,0,1,280,310v.3H269.33a3.59,3.59,0,0,0,.69,2.19,3.49,3.49,0,0,0,2.85,1.23,3.72,3.72,0,0,0,3.31-1.71ZM276.18,308a3.47,3.47,0,0,0-6.72,0Z"/><path class="cls-3" d="M283,303.19h4v1.68a5.34,5.34,0,0,1,4.39-2.1,5.71,5.71,0,0,1,4.2,1.59,5.15,5.15,0,0,1,1.11,3.66v8.16h-4V309.1a3.49,3.49,0,0,0-.75-2.55,2.71,2.71,0,0,0-1.87-.66,2.81,2.81,0,0,0-2.46,1.14,4.16,4.16,0,0,0-.62,2.52v6.63h-4Z"/><path class="cls-3" d="M308.17,303.19h4v1.95a4.52,4.52,0,0,1,1.77-1.8,4.65,4.65,0,0,1,2.36-.57,5.34,5.34,0,0,1,1.7.3l-.52,3.42a3.23,3.23,0,0,0-1.87-.48,3.43,3.43,0,0,0-2.66,1.05,4.19,4.19,0,0,0-.78,2.88v6.24h-4Z"/><path class="cls-3" d="M330.52,303.19h4v13h-4V314.5a5.26,5.26,0,0,1-4.36,2.1,6.88,6.88,0,0,1-7.24-6.93,6.77,6.77,0,0,1,7-6.9,5.32,5.32,0,0,1,4.56,2.1Zm-7.47,6.48A3.94,3.94,0,1,0,327,306,3.72,3.72,0,0,0,323.05,309.67Zm4-14.31a2.83,2.83,0,1,1-3.08,2.82A3,3,0,0,1,327,295.36Zm0,4a1.17,1.17,0,1,0-1.28-1.17A1.17,1.17,0,0,0,327,299.35Z"/><path class="cls-3" d="M349.2,294.31h4v21.87h-4V314.5a5.26,5.26,0,0,1-4.36,2.1,6.88,6.88,0,0,1-7.24-6.93,6.77,6.77,0,0,1,7-6.9,5.32,5.32,0,0,1,4.56,2.1Zm-7.47,15.36a3.94,3.94,0,1,0,3.93-3.66A3.72,3.72,0,0,0,341.73,309.67Z"/><path class="cls-3" d="M367.82,303.19h4v12.39c0,2-.19,4.05-2,5.67a8,8,0,0,1-5.61,1.83,8.2,8.2,0,0,1-5.31-1.5,7.08,7.08,0,0,1-2.29-3.87H361a3,3,0,0,0,1,1.56,3.76,3.76,0,0,0,2.42.69,3.55,3.55,0,0,0,2.43-.81,3.46,3.46,0,0,0,1-2.88v-1.83a5.14,5.14,0,0,1-4.36,2.16,7.08,7.08,0,0,1-4.92-1.77,6.85,6.85,0,0,1-2.26-5.16,6.93,6.93,0,0,1,2.19-5.16,7.34,7.34,0,0,1,4.89-1.74,5.12,5.12,0,0,1,4.46,2.1Zm-6.13,3.72a3.62,3.62,0,0,0-.23,5.31,4.05,4.05,0,0,0,2.88,1.14,4.27,4.27,0,0,0,2.66-.9,3.68,3.68,0,0,0,1.28-2.79,3.54,3.54,0,0,0-1.15-2.61,3.83,3.83,0,0,0-2.79-1.05A4,4,0,0,0,361.69,306.91Z"/><path class="cls-3" d="M377.61,295.51a2.2,2.2,0,1,1-2.39,2.19A2.31,2.31,0,0,1,377.61,295.51Zm2,7.68v13h-4v-13Z"/><path class="cls-3" d="M386,303.19l3.73,7.32,3.74-7.32H398l-7.15,13h-2.1l-7.14-13Z"/><path class="cls-3" d="M413.53,312.55c-.42,1-2,4.05-7,4.05a7.84,7.84,0,0,1-5.44-1.83,6.28,6.28,0,0,1-2.23-5.07,6.62,6.62,0,0,1,2.17-5.1,7.68,7.68,0,0,1,5.34-1.83,7.06,7.06,0,0,1,5.54,2.13,7.29,7.29,0,0,1,1.7,5.1v.3H403a3.59,3.59,0,0,0,.69,2.19,3.49,3.49,0,0,0,2.85,1.23,3.72,3.72,0,0,0,3.31-1.71ZM409.86,308a3.47,3.47,0,0,0-6.72,0Z"/><path class="cls-3" d="M416.71,303.19h4v1.95a4.59,4.59,0,0,1,1.77-1.8,4.65,4.65,0,0,1,2.36-.57,5.24,5.24,0,0,1,1.7.3l-.52,3.42a3.21,3.21,0,0,0-1.87-.48,3.41,3.41,0,0,0-2.65,1.05,4.14,4.14,0,0,0-.79,2.88v6.24h-4Z"/><path class="cls-3" d="M427.46,312l3.67.39-4.62,7.95-2.52-.27Z"/><path class="cls-3" d="M444.14,294.31h4v10.56a5.34,5.34,0,0,1,4.39-2.1,5.71,5.71,0,0,1,4.2,1.59,5.15,5.15,0,0,1,1.11,3.66v8.16h-4V309.1a3.49,3.49,0,0,0-.75-2.55,2.71,2.71,0,0,0-1.87-.66,2.81,2.81,0,0,0-2.46,1.14,4.16,4.16,0,0,0-.62,2.52v6.63h-4Z"/><path class="cls-3" d="M475.21,312.55c-.42,1-2,4.05-7,4.05a7.84,7.84,0,0,1-5.44-1.83,6.28,6.28,0,0,1-2.23-5.07,6.66,6.66,0,0,1,2.16-5.1,7.7,7.7,0,0,1,5.35-1.83,7.09,7.09,0,0,1,5.54,2.13,7.34,7.34,0,0,1,1.7,5.1v.3H464.69a3.59,3.59,0,0,0,.69,2.19,3.49,3.49,0,0,0,2.85,1.23,3.72,3.72,0,0,0,3.31-1.71ZM471.54,308a3.47,3.47,0,0,0-6.72,0Z"/><path class="cls-3" d="M482.39,294.31v21.87h-4V294.31Z"/><path class="cls-3" d="M490.19,306.31v9.87h-4v-9.87h-1.57v-3.12h1.57v-4.44h4v4.44h2.75v3.12Z"/><path class="cls-3" d="M513.56,303.19h4v13h-4V314.5a5.28,5.28,0,0,1-4.36,2.1,6.89,6.89,0,0,1-7.25-6.93,6.77,6.77,0,0,1,7.05-6.9,5.34,5.34,0,0,1,4.56,2.1Zm-7.48,6.48A3.95,3.95,0,1,0,510,306,3.73,3.73,0,0,0,506.08,309.67Z"/><path class="cls-3" d="M521.36,303.19h4v1.68a5.36,5.36,0,0,1,4.4-2.1,5.68,5.68,0,0,1,4.19,1.59,5.16,5.16,0,0,1,1.12,3.66v8.16h-4V309.1a3.46,3.46,0,0,0-.76-2.55,2.69,2.69,0,0,0-1.86-.66A2.81,2.81,0,0,0,526,307a4.17,4.17,0,0,0-.63,2.52v6.63h-4Z"/><path class="cls-3" d="M552,304.6a6.6,6.6,0,0,1,0,10.17,9.9,9.9,0,0,1-11.47,0,6.59,6.59,0,0,1,0-10.17,9.9,9.9,0,0,1,11.47,0Zm-1.74,5.1a4,4,0,1,0-4,3.66A3.8,3.8,0,0,0,550.26,309.7Z"/><path class="cls-3" d="M557.47,303.19h4v1.68a5.34,5.34,0,0,1,4.39-2.1,5.71,5.71,0,0,1,4.2,1.59,5.15,5.15,0,0,1,1.11,3.66v8.16h-4V309.1a3.49,3.49,0,0,0-.75-2.55,2.69,2.69,0,0,0-1.87-.66,2.81,2.81,0,0,0-2.46,1.14,4.16,4.16,0,0,0-.62,2.52v6.63h-4Z"/><path class="cls-3" d="M579.23,314.23l-6.75-11h4.66l4.39,7.38,3.93-7.38H590l-11.43,19.86H574Z"/><path class="cls-3" d="M592,303.19h4v1.47a5.44,5.44,0,0,1,4.23-1.89,4.74,4.74,0,0,1,4.49,2.37,5.32,5.32,0,0,1,4.55-2.37,4.67,4.67,0,0,1,3.84,1.59,5.09,5.09,0,0,1,1,3.66v8.16h-4V309.1a3.74,3.74,0,0,0-.65-2.55,2.12,2.12,0,0,0-1.64-.66,2.4,2.4,0,0,0-2.2,1.14,4.63,4.63,0,0,0-.56,2.52v6.63h-4V309.1a3.67,3.67,0,0,0-.66-2.55,2.09,2.09,0,0,0-1.64-.66,2.38,2.38,0,0,0-2.19,1.14,4.54,4.54,0,0,0-.56,2.52v6.63h-4Z"/><path class="cls-3" d="M621.84,306.31v9.87h-4v-9.87h-1.57v-3.12h1.57v-4.44h4v4.44h2.75v3.12Z"/><path class="cls-3" d="M628.39,312l3.68.39-4.62,7.95-2.53-.27Z"/><path class="cls-3" d="M649.07,304.87a5.72,5.72,0,0,1,4.63-2.1,6.67,6.67,0,0,1,7,6.9,6.76,6.76,0,0,1-7.08,6.93,5.58,5.58,0,0,1-4.53-2.1v1.68h-4V294.31h4Zm-.39,4.8a3.95,3.95,0,1,0,3.93-3.66A3.72,3.72,0,0,0,648.68,309.67Z"/><path class="cls-3" d="M674.64,303.19h4v13h-4V314.5a5.27,5.27,0,0,1-4.36,2.1,6.89,6.89,0,0,1-7.25-6.93,6.78,6.78,0,0,1,7.05-6.9,5.34,5.34,0,0,1,4.56,2.1Zm-7.48,6.48A3.95,3.95,0,1,0,671.1,306,3.73,3.73,0,0,0,667.16,309.67Zm4-14.31a2.83,2.83,0,1,1-3.08,2.82A3,3,0,0,1,671.13,295.36Zm0,4a1.17,1.17,0,1,0-1.28-1.17A1.18,1.18,0,0,0,671.13,299.35Z"/><path class="cls-3" d="M693.32,294.31h4v21.87h-4V314.5a5.27,5.27,0,0,1-4.36,2.1,6.89,6.89,0,0,1-7.25-6.93,6.78,6.78,0,0,1,7-6.9,5.34,5.34,0,0,1,4.56,2.1Zm-7.47,15.36a3.94,3.94,0,1,0,3.93-3.66A3.72,3.72,0,0,0,685.85,309.67Z"/><path class="cls-3" d="M715.05,312.55c-.43,1-2,4.05-7,4.05a7.85,7.85,0,0,1-5.45-1.83,6.28,6.28,0,0,1-2.22-5.07,6.62,6.62,0,0,1,2.16-5.1,7.68,7.68,0,0,1,5.34-1.83,7.06,7.06,0,0,1,5.54,2.13,7.29,7.29,0,0,1,1.7,5.1v.3H704.53a3.65,3.65,0,0,0,.68,2.19,3.51,3.51,0,0,0,2.86,1.23,3.75,3.75,0,0,0,3.31-1.71ZM711.38,308a3.47,3.47,0,0,0-6.72,0Z"/><path class="cls-3" d="M739,304.6a6.59,6.59,0,0,1,0,10.17,9.9,9.9,0,0,1-11.47,0,6.6,6.6,0,0,1,0-10.17,9.9,9.9,0,0,1,11.47,0Zm-1.73,5.1a4,4,0,1,0-4,3.66A3.8,3.8,0,0,0,737.27,309.7Z"/><path class="cls-3" d="M746.44,303.19l3.74,7.32,3.74-7.32h4.45l-7.14,13h-2.1l-7.15-13Z"/><path class="cls-3" d="M773.94,312.55c-.43,1-2,4.05-7,4.05a7.82,7.82,0,0,1-5.44-1.83,6.28,6.28,0,0,1-2.23-5.07,6.66,6.66,0,0,1,2.16-5.1,7.68,7.68,0,0,1,5.34-1.83,7.06,7.06,0,0,1,5.54,2.13A7.31,7.31,0,0,1,774,310v.3H763.42a3.59,3.59,0,0,0,.69,2.19,3.48,3.48,0,0,0,2.85,1.23,3.74,3.74,0,0,0,3.31-1.71ZM770.27,308a3.47,3.47,0,0,0-6.72,0Z"/><path class="cls-3" d="M777.12,303.19h4v1.95a4.52,4.52,0,0,1,1.77-1.8,4.65,4.65,0,0,1,2.36-.57,5.29,5.29,0,0,1,1.7.3l-.52,3.42a3.23,3.23,0,0,0-1.87-.48,3.43,3.43,0,0,0-2.66,1.05,4.19,4.19,0,0,0-.78,2.88v6.24h-4Z"/><path class="cls-3" d="M800.55,306.31v9.87h-4v-9.87H795v-3.12h1.57v-4.44h4v4.44h2.75v3.12Z"/><path class="cls-3" d="M819.33,312.55c-.43,1-2,4.05-7,4.05a7.82,7.82,0,0,1-5.44-1.83,6.25,6.25,0,0,1-2.23-5.07,6.66,6.66,0,0,1,2.16-5.1,7.69,7.69,0,0,1,5.35-1.83,7,7,0,0,1,5.53,2.13,7.31,7.31,0,0,1,1.71,5.1v.3H808.81a3.59,3.59,0,0,0,.69,2.19,3.48,3.48,0,0,0,2.85,1.23,3.74,3.74,0,0,0,3.31-1.71ZM815.66,308a3.47,3.47,0,0,0-6.72,0Z"/><path class="cls-3" d="M826.51,294.31v21.87h-4V294.31Z"/><path class="cls-3" d="M844.24,312.55c-.43,1-2,4.05-7,4.05a7.85,7.85,0,0,1-5.45-1.83,6.28,6.28,0,0,1-2.22-5.07,6.62,6.62,0,0,1,2.16-5.1,7.68,7.68,0,0,1,5.34-1.83,7.06,7.06,0,0,1,5.54,2.13,7.31,7.31,0,0,1,1.71,5.1v.3H833.72a3.65,3.65,0,0,0,.68,2.19,3.5,3.5,0,0,0,2.86,1.23,3.75,3.75,0,0,0,3.31-1.71ZM840.57,308a3.47,3.47,0,0,0-6.72,0Z"/><path class="cls-3" d="M851.48,306.31v9.87h-4v-9.87H846v-3.12h1.51v-3.57a5.4,5.4,0,0,1,1.87-4.59,5.63,5.63,0,0,1,3.51-1.08,5.54,5.54,0,0,1,2.29.45v3.33a3,3,0,0,0-1.8-.54,1.62,1.62,0,0,0-1.44.66,4,4,0,0,0-.43,2.25v3.09h3.67v3.12Z"/><path class="cls-3" d="M870.13,304.6a6.6,6.6,0,0,1,0,10.17,9.9,9.9,0,0,1-11.47,0,6.59,6.59,0,0,1,0-10.17,9.9,9.9,0,0,1,11.47,0Zm-1.74,5.1a4,4,0,1,0-4,3.66A3.8,3.8,0,0,0,868.39,309.7Z"/><path class="cls-3" d="M875.6,303.19h4v1.68a5.34,5.34,0,0,1,4.39-2.1,5.71,5.71,0,0,1,4.2,1.59A5.15,5.15,0,0,1,889.3,308v8.16h-4V309.1a3.49,3.49,0,0,0-.75-2.55,2.72,2.72,0,0,0-1.87-.66,2.81,2.81,0,0,0-2.46,1.14,4.16,4.16,0,0,0-.62,2.52v6.63h-4Z"/><path class="cls-3" d="M907,312.55c-.43,1-2,4.05-7,4.05a7.82,7.82,0,0,1-5.44-1.83,6.25,6.25,0,0,1-2.23-5.07,6.66,6.66,0,0,1,2.16-5.1,7.68,7.68,0,0,1,5.34-1.83,7.06,7.06,0,0,1,5.54,2.13,7.31,7.31,0,0,1,1.71,5.1v.3H896.51a3.59,3.59,0,0,0,.69,2.19,3.48,3.48,0,0,0,2.85,1.23,3.74,3.74,0,0,0,3.31-1.71ZM903.36,308a3.47,3.47,0,0,0-6.72,0Z"/><path class="cls-3" d="M910.21,303.19h4v1.68a5.33,5.33,0,0,1,4.39-2.1,5.68,5.68,0,0,1,4.19,1.59,5.11,5.11,0,0,1,1.12,3.66v8.16h-4V309.1a3.49,3.49,0,0,0-.75-2.55,2.72,2.72,0,0,0-1.87-.66,2.81,2.81,0,0,0-2.46,1.14,4.16,4.16,0,0,0-.62,2.52v6.63h-4Z"/><path class="cls-3" d="M929.41,312l3.67.39-4.62,7.95-2.52-.27Z"/><path class="cls-3" d="M950.09,323.05h-4V303.19h4v1.68a5.54,5.54,0,0,1,4.62-2.1,7.14,7.14,0,0,1,4.85,1.74,7.29,7.29,0,0,1-.09,10.41,7.34,7.34,0,0,1-4.82,1.68,5.61,5.61,0,0,1-4.56-2.1Zm.95-16.17a3.34,3.34,0,0,0-1.34,2.79,3.54,3.54,0,0,0,1.31,2.82,4.09,4.09,0,0,0,2.62.87,4,4,0,0,0,2.69-.93,3.65,3.65,0,0,0,1.24-2.76,3.73,3.73,0,0,0-1.21-2.73,4.41,4.41,0,0,0-2.72-.93A3.82,3.82,0,0,0,951,306.88Z"/><path class="cls-3" d="M975.66,303.19h4v13h-4V314.5a5.28,5.28,0,0,1-4.36,2.1,6.89,6.89,0,0,1-7.25-6.93,6.77,6.77,0,0,1,7.05-6.9,5.34,5.34,0,0,1,4.56,2.1Zm-7.48,6.48a3.95,3.95,0,1,0,3.94-3.66A3.73,3.73,0,0,0,968.18,309.67Zm4-14.31a2.83,2.83,0,1,1-3.08,2.82A3,3,0,0,1,972.15,295.36Zm0,4a1.17,1.17,0,1,0-1.28-1.17A1.18,1.18,0,0,0,972.15,299.35Z"/><path class="cls-3" d="M96.1,343.15A4.87,4.87,0,0,0,92.82,342a3.65,3.65,0,0,0-4,3.66c0,2.13,1.74,3.69,4.13,3.69a4.92,4.92,0,0,0,3.15-1.14v3.57a8.75,8.75,0,0,1-3.67.81A8.46,8.46,0,0,1,87,350.71a6.43,6.43,0,0,1-2.26-5,6.69,6.69,0,0,1,2.46-5.28,8,8,0,0,1,5.11-1.68,9.14,9.14,0,0,1,3.84.78Z"/><path class="cls-3" d="M99.11,330.31h4v10.56a5.34,5.34,0,0,1,4.39-2.1,5.71,5.71,0,0,1,4.2,1.59,5.15,5.15,0,0,1,1.11,3.66v8.16h-4V345.1a3.49,3.49,0,0,0-.75-2.55,2.71,2.71,0,0,0-1.87-.66,2.81,2.81,0,0,0-2.46,1.14,4.16,4.16,0,0,0-.62,2.52v6.63h-4Z"/><path class="cls-3" d="M127.49,339.19h4v13h-4V350.5a5.26,5.26,0,0,1-4.36,2.1,6.89,6.89,0,0,1-7.24-6.93,6.77,6.77,0,0,1,7-6.9,5.32,5.32,0,0,1,4.55,2.1ZM120,345.67A3.95,3.95,0,1,0,124,342,3.72,3.72,0,0,0,120,345.67Z"/><path class="cls-3" d="M139.29,342.31v9.87h-4v-9.87h-1.57v-3.12h1.57v-4.44h4v4.44H142v3.12Z"/><path class="cls-3" d="M165.71,348.55c-.43,1-2,4.05-7,4.05a7.84,7.84,0,0,1-5.44-1.83,6.28,6.28,0,0,1-2.23-5.07,6.62,6.62,0,0,1,2.17-5.1,7.68,7.68,0,0,1,5.34-1.83,7.06,7.06,0,0,1,5.54,2.13,7.29,7.29,0,0,1,1.7,5.1v.3H155.19a3.59,3.59,0,0,0,.68,2.19,3.49,3.49,0,0,0,2.85,1.23A3.72,3.72,0,0,0,162,348ZM162,344a3.46,3.46,0,0,0-6.71,0Z"/><path class="cls-3" d="M172.88,330.31v21.87h-4V330.31Z"/><path class="cls-3" d="M180.68,330.31v21.87h-4V330.31Z"/><path class="cls-3" d="M198.41,348.55c-.42,1-2,4.05-7,4.05a7.84,7.84,0,0,1-5.44-1.83,6.28,6.28,0,0,1-2.23-5.07,6.62,6.62,0,0,1,2.17-5.1,7.66,7.66,0,0,1,5.34-1.83,7.09,7.09,0,0,1,5.54,2.13,7.34,7.34,0,0,1,1.7,5.1v.3H187.89a3.59,3.59,0,0,0,.69,2.19,3.49,3.49,0,0,0,2.85,1.23,3.72,3.72,0,0,0,3.31-1.71ZM194.74,344a3.47,3.47,0,0,0-6.72,0Z"/><path class="cls-3" d="M201.59,339.19h4v1.95a4.52,4.52,0,0,1,1.77-1.8,4.65,4.65,0,0,1,2.36-.57,5.29,5.29,0,0,1,1.7.3l-.52,3.42A3.23,3.23,0,0,0,209,342a3.41,3.41,0,0,0-2.65,1.05,4.14,4.14,0,0,0-.79,2.88v6.24h-4Z"/><path class="cls-3" d="M223.65,339.19l3.73,7.32,3.74-7.32h4.46l-7.15,13h-2.1l-7.14-13Z"/><path class="cls-3" d="M239.54,331.51a2.2,2.2,0,1,1-2.39,2.19A2.31,2.31,0,0,1,239.54,331.51Zm2,7.68v13h-4v-13Z"/><path class="cls-3" d="M256.22,339.19h4v13h-4V350.5a5.26,5.26,0,0,1-4.36,2.1,6.89,6.89,0,0,1-7.24-6.93,6.77,6.77,0,0,1,7-6.9,5.32,5.32,0,0,1,4.55,2.1Zm-7.47,6.48a3.95,3.95,0,1,0,3.93-3.66A3.72,3.72,0,0,0,248.75,345.67Z"/><path class="cls-3" d="M275.66,340.87a5.72,5.72,0,0,1,4.62-2.1,6.67,6.67,0,0,1,7,6.9,6.76,6.76,0,0,1-7.08,6.93,5.56,5.56,0,0,1-4.52-2.1v1.68h-4V330.31h4Zm-.4,4.8A3.95,3.95,0,1,0,279.2,342,3.73,3.73,0,0,0,275.26,345.67Z"/><path class="cls-3" d="M290.34,339.19h4v1.95a4.52,4.52,0,0,1,1.77-1.8,4.65,4.65,0,0,1,2.36-.57,5.29,5.29,0,0,1,1.7.3l-.52,3.42a3.23,3.23,0,0,0-1.87-.48,3.44,3.44,0,0,0-2.66,1.05,4.19,4.19,0,0,0-.78,2.88v6.24h-4Z"/><path class="cls-3" d="M315.38,348.55c-.43,1-2,4.05-7,4.05a7.85,7.85,0,0,1-5.45-1.83,6.28,6.28,0,0,1-2.22-5.07,6.62,6.62,0,0,1,2.16-5.1,7.68,7.68,0,0,1,5.34-1.83,7.06,7.06,0,0,1,5.54,2.13,7.31,7.31,0,0,1,1.71,5.1v.3H304.86a3.65,3.65,0,0,0,.68,2.19,3.51,3.51,0,0,0,2.86,1.23,3.75,3.75,0,0,0,3.31-1.71ZM311.71,344a3.47,3.47,0,0,0-6.72,0Z"/><path class="cls-3" d="M320.85,339.19l3.74,7.32,3.73-7.32h4.46l-7.14,13h-2.1l-7.15-13Z"/><path class="cls-3" d="M338.75,330.31v13.62l5.3-4.74h5.18l-6.65,5.7,7.18,7.29h-5.31l-5.28-5.55-.42.36v5.19h-4V330.31Z"/><path class="cls-3" d="M362.41,339.19h4v13h-4V350.5a5.26,5.26,0,0,1-4.36,2.1,6.88,6.88,0,0,1-7.24-6.93,6.77,6.77,0,0,1,7-6.9,5.33,5.33,0,0,1,4.56,2.1Zm-7.47,6.48a3.94,3.94,0,1,0,3.93-3.66A3.72,3.72,0,0,0,354.94,345.67Z"/><path class="cls-3" d="M377.94,342.28a3.5,3.5,0,0,0-2.33-.87c-.94,0-1.53.42-1.53,1,0,.33.16.84,1.27,1.17l.95.27a7.46,7.46,0,0,1,3.61,1.86,3.52,3.52,0,0,1,.72,2.16,4.17,4.17,0,0,1-1.57,3.3,6.32,6.32,0,0,1-4.26,1.38,7.48,7.48,0,0,1-5.51-2.16l2.1-2.22a4.53,4.53,0,0,0,3.14,1.5c1.12,0,2-.51,2-1.41s-.72-1.14-1.24-1.32l-.92-.3a7.84,7.84,0,0,1-3-1.56,3.32,3.32,0,0,1-1.08-2.49,3.73,3.73,0,0,1,1.47-2.94,6.29,6.29,0,0,1,3.71-.93,7.52,7.52,0,0,1,4.52,1.38Z"/><path class="cls-3" d="M390.53,342.28a3.5,3.5,0,0,0-2.33-.87c-.95,0-1.54.42-1.54,1,0,.33.16.84,1.28,1.17l.95.27c1.11.33,2.79.84,3.6,1.86a3.52,3.52,0,0,1,.72,2.16,4.14,4.14,0,0,1-1.57,3.3,6.28,6.28,0,0,1-4.26,1.38,7.48,7.48,0,0,1-5.51-2.16l2.1-2.22a4.56,4.56,0,0,0,3.15,1.5c1.11,0,2-.51,2-1.41s-.73-1.14-1.25-1.32l-.92-.3a8,8,0,0,1-3.05-1.56,3.36,3.36,0,0,1-1.08-2.49,3.74,3.74,0,0,1,1.48-2.94,6.24,6.24,0,0,1,3.7-.93,7.52,7.52,0,0,1,4.52,1.38Z"/><path class="cls-3" d="M410,348.55c-.42,1-2,4.05-7,4.05a7.84,7.84,0,0,1-5.44-1.83,6.28,6.28,0,0,1-2.23-5.07,6.66,6.66,0,0,1,2.16-5.1,7.7,7.7,0,0,1,5.35-1.83,7.09,7.09,0,0,1,5.54,2.13,7.34,7.34,0,0,1,1.7,5.1v.3H399.44a3.59,3.59,0,0,0,.69,2.19,3.49,3.49,0,0,0,2.85,1.23,3.72,3.72,0,0,0,3.31-1.71ZM406.29,344a3.47,3.47,0,0,0-6.72,0Z"/><path class="cls-3" d="M416.38,347.89a2.35,2.35,0,1,1-2.55,2.34A2.42,2.42,0,0,1,416.38,347.89Z"/></g></svg>
