<svg xmlns="http://www.w3.org/2000/svg" width="710" height="170" viewBox="0 0 710 170"><defs><style>.cls-1{fill:#152230;}.cls-2{fill:#fff;}</style></defs><title>mom_3</title><g id="Oversigt"><g id="Mor-boble"><path class="cls-1" d="M168.4,73.44c-3.77,0-6.94-.56-10.07-3.19-6.35-5.35-13.4-9.87-19.78-15.18-4.5-3.79-10.19-6.29-13.5-11.53-4.47-1.52-7.59-5-11.21-7.76C101.07,26.18,88.43,16.39,75.72,6.7c-1-.77-1.92-2.25-3.36-1.67-1.8.73-1.09,2.59-1.09,4,0,19.66-.2,39.33.08,59,.06,4.14-1.12,5.28-4.43,5.41Z"/><path class="cls-1" d="M709.27,158c0,4.76-6,7.88-18,9.39-2.37,0-4.74.05-7.1.05H55c-.31,0-.65,0-1,0-10.45.09-20.91.06-31.35,0H21.5C9.41,167.14.65,163.21.66,158.07c0-25.13.29-50.26-.15-75.39-.1-6.42,10.88-10.4,24.92-10.39q330.51.15,661,.07c13.58,0,22.78,3.85,22.78,9.54Q709.22,119.94,709.27,158Z"/><path class="cls-2" d="M215.05,110.49h-8.64v5.36h8.28v4h-8.28v6.55h8.64v4H201.73v-24h13.32Z"/><path class="cls-2" d="M221.13,105.66a2.63,2.63,0,1,1-2.62,2.63A2.64,2.64,0,0,1,221.13,105.66Zm2.2,9.22v23.83h-4.39V114.88Z"/><path class="cls-2" d="M229.38,125.5l4,.46-5.08,9.54-2.77-.32Z"/><path class="cls-2" d="M247.7,104.22h4.39v12.67a5.74,5.74,0,0,1,4.83-2.52,5.94,5.94,0,0,1,4.6,1.91,6.57,6.57,0,0,1,1.23,4.39v9.79h-4.39V122a4.47,4.47,0,0,0-.83-3.06,2.82,2.82,0,0,0-2-.79,3,3,0,0,0-2.7,1.36,5.38,5.38,0,0,0-.69,3v8H247.7Z"/><path class="cls-2" d="M269.09,114.88l4.1,8.78,4.1-8.78h4.9l-7.85,15.58H272l-7.85-15.58Z"/><path class="cls-2" d="M298.06,116.57a8.39,8.39,0,0,1,0,12.2,10.11,10.11,0,0,1-12.59,0,8.39,8.39,0,0,1,0-12.2,10.11,10.11,0,0,1,12.59,0Zm-1.9,6.12a4.4,4.4,0,1,0-4.4,4.39A4.36,4.36,0,0,0,296.16,122.69Z"/><path class="cls-2" d="M304.08,114.88h4.39v2.34a5.2,5.2,0,0,1,1.94-2.16,4.73,4.73,0,0,1,2.59-.69,5.46,5.46,0,0,1,1.88.36l-.58,4.1a3.34,3.34,0,0,0-2.05-.57,3.6,3.6,0,0,0-2.92,1.26,5.41,5.41,0,0,0-.86,3.46v7.48h-4.39Z"/><path class="cls-2" d="M337.37,104.22h4.4v26.24h-4.4v-2a5.6,5.6,0,0,1-4.78,2.52c-4.79,0-8-3.75-8-8.32s3.13-8.28,7.74-8.28a5.64,5.64,0,0,1,5,2.52Zm-8.2,18.43a4.32,4.32,0,1,0,4.32-4.39A4.27,4.27,0,0,0,329.17,122.65Z"/><path class="cls-2" d="M361.24,126.11c-.47,1.15-2.23,4.86-7.66,4.86a8.16,8.16,0,0,1-6-2.2,7.84,7.84,0,0,1-2.45-6.08,8.27,8.27,0,0,1,2.38-6.12,8,8,0,0,1,5.87-2.2,7.44,7.44,0,0,1,6.08,2.56,9.35,9.35,0,0,1,1.87,6.12v.36H349.69a4.6,4.6,0,0,0,.75,2.62,3.72,3.72,0,0,0,3.14,1.48,4,4,0,0,0,3.63-2.05Zm-4-5.51a3.74,3.74,0,0,0-7.38,0Z"/><path class="cls-2" d="M366.93,105.66a2.63,2.63,0,1,1-2.63,2.63A2.65,2.65,0,0,1,366.93,105.66Zm2.2,9.22v23.83h-4.39V114.88Z"/><path class="cls-2" d="M377.7,104.22v26.24h-4.4V104.22Z"/><path class="cls-2" d="M384.07,105.66a2.63,2.63,0,1,1-2.63,2.63A2.64,2.64,0,0,1,384.07,105.66Zm2.19,9.22v15.58h-4.39V114.88Z"/><path class="cls-2" d="M402.32,114.88h4.39v14.86c0,2.38-.22,4.86-2.16,6.81a8.28,8.28,0,0,1-6.16,2.19c-3,0-4.82-.9-5.83-1.8A8.65,8.65,0,0,1,390,132.3h4.75a3.76,3.76,0,0,0,1.08,1.87,3.91,3.91,0,0,0,2.67.83,3.7,3.7,0,0,0,2.66-1,4.41,4.41,0,0,0,1.12-3.46v-2.2a5.47,5.47,0,0,1-4.79,2.6,7.36,7.36,0,0,1-5.4-2.13,8.57,8.57,0,0,1-2.48-6.19,8.68,8.68,0,0,1,2.41-6.19,7.63,7.63,0,0,1,5.36-2.09,5.5,5.5,0,0,1,4.9,2.52Zm-6.73,4.46a4.27,4.27,0,0,0-1.41,3.31,4.35,4.35,0,0,0,1.15,3.06,4.28,4.28,0,0,0,3.17,1.37,4.45,4.45,0,0,0,2.92-1.08,4.6,4.6,0,0,0,1.4-3.35,4.44,4.44,0,0,0-1.26-3.13,4,4,0,0,0-3.06-1.26A4.19,4.19,0,0,0,395.59,119.34Z"/><path class="cls-2" d="M415.28,118.62v11.84h-4.39V118.62h-1.73v-3.74h1.73v-5.33h4.39v5.33h3v3.74Z"/><path class="cls-2" d="M422.48,125.5l4,.46-5.08,9.54-2.77-.32Z"/><path class="cls-2" d="M449.3,118.58a3.66,3.66,0,0,0-2.56-1c-1,0-1.69.5-1.69,1.26,0,.4.18,1,1.4,1.4l1.05.33c1.22.39,3.06,1,4,2.23a4.57,4.57,0,0,1,.79,2.59,5.19,5.19,0,0,1-1.73,4,6.55,6.55,0,0,1-4.68,1.66,7.88,7.88,0,0,1-6-2.6l2.31-2.66a4.82,4.82,0,0,0,3.45,1.8c1.23,0,2.16-.61,2.16-1.69a1.73,1.73,0,0,0-1.37-1.58l-1-.36A8.39,8.39,0,0,1,442,122a4.15,4.15,0,0,1-1.19-3,4.63,4.63,0,0,1,1.62-3.53,6.46,6.46,0,0,1,4.07-1.12,7.8,7.8,0,0,1,5,1.66Z"/><path class="cls-2" d="M459.74,104.22v16.34l5.83-5.68h5.69L464,121.72l7.88,8.74H466l-5.79-6.66-.47.44v6.22h-4.39V104.22Z"/><path class="cls-2" d="M485.73,114.88h4.39v15.58h-4.39v-2a5.62,5.62,0,0,1-4.79,2.52c-4.79,0-7.95-3.75-7.95-8.32s3.13-8.28,7.73-8.28a5.67,5.67,0,0,1,5,2.52Zm-8.21,7.77a4.32,4.32,0,1,0,4.32-4.39A4.27,4.27,0,0,0,477.52,122.65Z"/><path class="cls-2" d="M498.69,118.62v11.84H494.3V118.62h-1.73v-3.74h1.73v-5.33h4.39v5.33h3v3.74Z"/><path class="cls-2" d="M506.46,125.32a2.81,2.81,0,1,1-2.8,2.8A2.76,2.76,0,0,1,506.46,125.32Z"/></g></g></svg>
