<svg xmlns="http://www.w3.org/2000/svg" width="710" height="170" viewBox="0 0 710 170"><defs><style>.cls-1{fill:#152230;}.cls-2{fill:#fff;}</style></defs><title>mom_start</title><g id="Oversigt"><g id="Mor-boble"><path class="cls-1" d="M168.5,73.27c-3.77,0-6.94-.56-10.07-3.19-6.35-5.35-13.4-9.87-19.78-15.18-4.5-3.79-10.19-6.29-13.5-11.53-4.47-1.52-7.59-5-11.21-7.76C101.17,26,88.53,16.22,75.82,6.53c-1-.77-1.92-2.25-3.36-1.67-1.8.73-1.09,2.59-1.09,4,0,19.66-.2,39.33.08,59,.06,4.14-1.12,5.28-4.43,5.41Z"/><path class="cls-1" d="M709.38,157.81c0,4.76-6,7.89-18,9.39-2.36,0-4.73.05-7.09.05H54.14c-10.45.09-20.91.06-31.35,0l-1.18,0C9.51,167,.76,163,.76,157.89c0-25.13.3-50.26-.14-75.38C.51,76.09,11.5,72.1,25.54,72.11q330.51.15,661,.07c13.58,0,22.78,3.85,22.78,9.54Q709.33,119.76,709.38,157.81Z"/><path class="cls-2" d="M184.29,115.56h10.15v-9.28h4.68v24h-4.68V119.6H184.29v10.68h-4.68v-24h4.68Z"/><path class="cls-2" d="M206.83,114.7l4.1,8.78,4.1-8.78h4.9l-7.85,15.58h-2.3l-7.85-15.58Z"/><path class="cls-2" d="M235.8,116.39a8.39,8.39,0,0,1,0,12.2,10.11,10.11,0,0,1-12.59,0,8.39,8.39,0,0,1,0-12.2,10.11,10.11,0,0,1,12.59,0Zm-1.9,6.12a4.4,4.4,0,1,0-4.39,4.39A4.35,4.35,0,0,0,233.9,122.51Z"/><path class="cls-2" d="M241.82,114.7h4.39V117a5.27,5.27,0,0,1,1.94-2.16,4.81,4.81,0,0,1,2.59-.69,5.46,5.46,0,0,1,1.88.36l-.58,4.11a3.28,3.28,0,0,0-2-.58,3.6,3.6,0,0,0-2.92,1.26,5.42,5.42,0,0,0-.86,3.46v7.48h-4.39Z"/><path class="cls-2" d="M266.33,104h4.39v26.24h-4.39v-2a5.58,5.58,0,0,1-4.79,2.52c-4.78,0-8-3.74-8-8.32s3.13-8.28,7.74-8.28a5.64,5.64,0,0,1,5,2.52Zm-8.21,18.43a4.32,4.32,0,1,0,4.32-4.39A4.27,4.27,0,0,0,258.12,122.47Z"/><path class="cls-2" d="M286.85,114.7h4.39v15.58h-4.39v-2a5.58,5.58,0,0,1-4.79,2.52c-4.78,0-7.95-3.74-7.95-8.32s3.13-8.28,7.74-8.28a5.64,5.64,0,0,1,5,2.52Zm-8.21,7.77a4.32,4.32,0,1,0,4.32-4.39A4.27,4.27,0,0,0,278.64,122.47Z"/><path class="cls-2" d="M295.42,114.7h4.39v2a5.74,5.74,0,0,1,4.83-2.52,6,6,0,0,1,4.6,1.91,6.58,6.58,0,0,1,1.23,4.39v9.79h-4.4v-8.49a4.48,4.48,0,0,0-.82-3.06,2.82,2.82,0,0,0-2.06-.79,3,3,0,0,0-2.69,1.37,5.33,5.33,0,0,0-.69,3v8h-4.39Z"/><path class="cls-2" d="M334.91,114.7h4.39v14.87c0,2.37-.21,4.86-2.16,6.8a8.28,8.28,0,0,1-6.15,2.19c-3,0-4.83-.9-5.83-1.79a8.65,8.65,0,0,1-2.52-4.65h4.75a3.69,3.69,0,0,0,1.08,1.87,3.88,3.88,0,0,0,2.66.83,3.68,3.68,0,0,0,2.66-1,4.39,4.39,0,0,0,1.12-3.46V128.2a5.47,5.47,0,0,1-4.79,2.59,7.41,7.41,0,0,1-5.4-2.12,8.6,8.6,0,0,1-2.48-6.2,8.7,8.7,0,0,1,2.41-6.19,7.65,7.65,0,0,1,5.37-2.09,5.49,5.49,0,0,1,4.89,2.52Zm-6.73,4.46a4.43,4.43,0,0,0,2.91,7.74,4.4,4.4,0,0,0,2.92-1.08,4.6,4.6,0,0,0,1.4-3.35,4.42,4.42,0,0,0-1.26-3.13,4,4,0,0,0-3.06-1.26A4.23,4.23,0,0,0,328.18,119.16Z"/><path class="cls-2" d="M355.43,114.7h4.39v15.58h-4.39v-2a5.58,5.58,0,0,1-4.79,2.52c-4.78,0-7.95-3.74-7.95-8.32s3.13-8.28,7.74-8.28a5.66,5.66,0,0,1,5,2.52Zm-8.21,7.77a4.32,4.32,0,1,0,4.32-4.39A4.27,4.27,0,0,0,347.22,122.47Zm4.36-17.17a3.39,3.39,0,1,1-3.39,3.39A3.43,3.43,0,0,1,351.58,105.3Zm0,4.79a1.41,1.41,0,0,0,0-2.81,1.41,1.41,0,1,0,0,2.81Z"/><path class="cls-2" d="M364,114.7h4.39V117a5.27,5.27,0,0,1,1.94-2.16,4.82,4.82,0,0,1,2.6-.69,5.45,5.45,0,0,1,1.87.36l-.58,4.11a3.26,3.26,0,0,0-2.05-.58,3.6,3.6,0,0,0-2.92,1.26,5.42,5.42,0,0,0-.86,3.46v7.48H364Z"/><path class="cls-2" d="M397.3,104h4.39v26.24H397.3v-2a5.6,5.6,0,0,1-4.79,2.52c-4.79,0-8-3.74-8-8.32s3.14-8.28,7.74-8.28a5.67,5.67,0,0,1,5,2.52Zm-8.21,18.43a4.32,4.32,0,1,0,4.32-4.39A4.27,4.27,0,0,0,389.09,122.47Z"/><path class="cls-2" d="M421.16,125.93c-.47,1.15-2.23,4.86-7.66,4.86a8.16,8.16,0,0,1-6-2.2,7.84,7.84,0,0,1-2.45-6.08,8.29,8.29,0,0,1,2.38-6.12,8,8,0,0,1,5.87-2.2,7.44,7.44,0,0,1,6.08,2.56,9.3,9.3,0,0,1,1.87,6.12v.36H409.61a4.64,4.64,0,0,0,.75,2.63,3.71,3.71,0,0,0,3.14,1.47,4,4,0,0,0,3.63-2Zm-4-5.51a3.74,3.74,0,0,0-7.38,0Z"/><path class="cls-2" d="M429.05,118.44v11.84h-4.39V118.44h-1.73V114.7h1.73v-5.33h4.39v5.33h3v3.74Z"/><path class="cls-2" d="M436.25,125.32l4,.47-5.08,9.53-2.77-.32Z"/><path class="cls-2" d="M463.07,118.41a3.68,3.68,0,0,0-2.56-1c-1,0-1.69.51-1.69,1.26,0,.4.18,1,1.4,1.41l1,.32c1.22.4,3.06,1,4,2.23a4.6,4.6,0,0,1,.79,2.59,5.17,5.17,0,0,1-1.73,4,6.55,6.55,0,0,1-4.68,1.66,7.91,7.91,0,0,1-6.05-2.59l2.31-2.67a4.82,4.82,0,0,0,3.45,1.8c1.23,0,2.16-.61,2.16-1.69a1.73,1.73,0,0,0-1.37-1.58l-1-.36a8.49,8.49,0,0,1-3.35-1.87,4.2,4.2,0,0,1-1.19-3,4.64,4.64,0,0,1,1.62-3.53,6.46,6.46,0,0,1,4.07-1.12,7.8,7.8,0,0,1,5,1.66Z"/><path class="cls-2" d="M473.51,104v16.35l5.83-5.69H485l-7.31,6.84,7.88,8.74h-5.83L474,123.63l-.47.43v6.22h-4.39V104Z"/><path class="cls-2" d="M499.5,114.7h4.39v15.58H499.5v-2a5.59,5.59,0,0,1-4.79,2.52c-4.79,0-7.95-3.74-7.95-8.32s3.13-8.28,7.73-8.28a5.67,5.67,0,0,1,5,2.52Zm-8.21,7.77a4.32,4.32,0,1,0,4.32-4.39A4.27,4.27,0,0,0,491.29,122.47Z"/><path class="cls-2" d="M512.46,118.44v11.84h-4.39V118.44h-1.73V114.7h1.73v-5.33h4.39v5.33h3v3.74Z"/><path class="cls-2" d="M521.42,123v-7.06a5.7,5.7,0,0,0,1.41.15,4.78,4.78,0,0,0,3.38-1.23,3.55,3.55,0,0,0,.94-2.41,2.87,2.87,0,0,0-.76-2.09,2.53,2.53,0,0,0-1.87-.72,2.58,2.58,0,0,0-1.84.65,3.08,3.08,0,0,0-.79,2.34h-4.68a7.54,7.54,0,0,1,1.8-4.86c1-1,2.66-2,5.69-2a7.12,7.12,0,0,1,5.25,1.83,6.63,6.63,0,0,1,1.87,5,6.18,6.18,0,0,1-1.83,4.64,7.14,7.14,0,0,1-4.1,2V123Zm2.23,2.23a2.81,2.81,0,1,1-2.8,2.81A2.76,2.76,0,0,1,523.65,125.21Z"/></g></g></svg>
