<svg xmlns="http://www.w3.org/2000/svg" width="710" height="170" viewBox="0 0 710 170"><defs><style>.cls-1{fill:#152230;}.cls-2{fill:#fff;}</style></defs><title>mom_2</title><g id="Oversigt"><g id="Mor-boble"><path class="cls-1" d="M168.4,73.44c-3.77,0-6.94-.56-10.07-3.19-6.35-5.35-13.4-9.87-19.78-15.18-4.5-3.79-10.19-6.29-13.5-11.53-4.47-1.52-7.59-5-11.21-7.76C101.07,26.18,88.43,16.39,75.72,6.7c-1-.77-1.92-2.25-3.36-1.67-1.8.73-1.09,2.59-1.09,4,0,19.66-.2,39.33.08,59,.06,4.14-1.12,5.28-4.43,5.41Z"/><path class="cls-1" d="M709.27,158c0,4.76-6,7.88-18,9.39-2.37,0-4.74.05-7.1.05H55c-.31,0-.65,0-1,0-10.45.09-20.91.06-31.35,0H21.5C9.41,167.14.65,163.21.66,158.07c0-25.13.29-50.26-.15-75.39-.1-6.42,10.88-10.4,24.92-10.39q330.51.15,661,.07c13.58,0,22.78,3.85,22.78,9.54Q709.22,119.94,709.27,158Z"/><path class="cls-2" d="M145.79,106.45v16.2c0,2.12-.15,5.47-2.81,7.27a7.28,7.28,0,0,1-3.92,1.08,7.9,7.9,0,0,1-5.51-2.23l2.84-3.42a2.8,2.8,0,0,0,2.34,1.3,2.09,2.09,0,0,0,1.84-.83c.58-.83.54-2.41.54-3.89V106.45Z"/><path class="cls-2" d="M162.56,114.88H167v15.58h-4.4v-2a5.6,5.6,0,0,1-4.78,2.52c-4.79,0-8-3.75-8-8.32s3.13-8.28,7.74-8.28a5.64,5.64,0,0,1,5,2.52Zm-8.2,7.77a4.32,4.32,0,1,0,4.32-4.39A4.27,4.27,0,0,0,154.36,122.65Z"/><path class="cls-2" d="M173,125.49l4,.47L172,135.5l-2.77-.32Z"/><path class="cls-2" d="M203.28,104.22h4.39v26.24h-4.39v-2a5.61,5.61,0,0,1-4.79,2.52c-4.78,0-8-3.75-8-8.32s3.13-8.28,7.74-8.28a5.66,5.66,0,0,1,5,2.52Zm-8.21,18.43a4.32,4.32,0,1,0,4.32-4.39A4.27,4.27,0,0,0,195.07,122.65Z"/><path class="cls-2" d="M227.15,126.11c-.47,1.15-2.23,4.86-7.67,4.86a8.16,8.16,0,0,1-6-2.2,7.88,7.88,0,0,1-2.44-6.08,8.31,8.31,0,0,1,2.37-6.12,8,8,0,0,1,5.87-2.2,7.43,7.43,0,0,1,6.08,2.56,9.3,9.3,0,0,1,1.87,6.12v.36H215.59a4.54,4.54,0,0,0,.76,2.62,3.71,3.71,0,0,0,3.13,1.48,4,4,0,0,0,3.64-2.05Zm-4-5.51a3.74,3.74,0,0,0-7.38,0Z"/><path class="cls-2" d="M235,118.62v11.84h-4.39V118.62h-1.73v-3.74h1.73v-5.33H235v5.33h3v3.74Z"/><path class="cls-2" d="M248.75,114.88h4.39v1.76a5.73,5.73,0,0,1,4.64-2.27,5.13,5.13,0,0,1,4.93,2.85,5.75,5.75,0,0,1,5-2.85,5,5,0,0,1,4.21,1.91c1,1.33,1.08,2.66,1.08,4.39v9.79h-4.39V122a4.74,4.74,0,0,0-.72-3.06,2.21,2.21,0,0,0-1.8-.79,2.57,2.57,0,0,0-2.41,1.36,5.92,5.92,0,0,0-.62,3v8h-4.39V122a4.68,4.68,0,0,0-.72-3.06,2.2,2.2,0,0,0-1.8-.79,2.59,2.59,0,0,0-2.41,1.36,6,6,0,0,0-.61,3v8h-4.39Z"/><path class="cls-2" d="M289.14,114.88h4.39v15.58h-4.39v-2a5.62,5.62,0,0,1-4.79,2.52c-4.79,0-8-3.75-8-8.32s3.13-8.28,7.73-8.28a5.67,5.67,0,0,1,5,2.52Zm-8.21,7.77a4.32,4.32,0,1,0,4.32-4.39A4.27,4.27,0,0,0,280.93,122.65Zm4.36-17.17a3.39,3.39,0,1,1-3.39,3.38A3.43,3.43,0,0,1,285.29,105.48Zm0,4.79a1.41,1.41,0,1,0-1.41-1.41A1.35,1.35,0,0,0,285.29,110.27Z"/><path class="cls-2" d="M309,114.88l4.11,8.78,4.1-8.78h4.9l-7.85,15.58h-2.3l-7.85-15.58Z"/><path class="cls-2" d="M326.43,105.66a2.63,2.63,0,1,1-2.62,2.63A2.65,2.65,0,0,1,326.43,105.66Zm2.2,9.22v15.58h-4.39V114.88Z"/><path class="cls-2" d="M345.58,138.7h-4.39V114.88h4.39v2a6,6,0,0,1,5.08-2.52,7.48,7.48,0,0,1,5.33,2.09,8.42,8.42,0,0,1,2.34,6.19,8.32,8.32,0,0,1-2.45,6.3,7.63,7.63,0,0,1-5.29,2,5.92,5.92,0,0,1-5-2.52Zm1.05-19.4a4.15,4.15,0,0,0-1.48,3.35,4.42,4.42,0,0,0,1.44,3.38,4.24,4.24,0,0,0,2.88,1,4.15,4.15,0,0,0,2.95-1.12,4.55,4.55,0,0,0,1.37-3.31,4.72,4.72,0,0,0-1.33-3.28,4.63,4.63,0,0,0-3-1.11A4,4,0,0,0,346.63,119.3Z"/><path class="cls-2" d="M361.71,114.88h4.39v2.34a5.2,5.2,0,0,1,1.95-2.16,4.7,4.7,0,0,1,2.59-.69,5.35,5.35,0,0,1,1.87.36l-.57,4.1a3.37,3.37,0,0,0-2.06-.57,3.58,3.58,0,0,0-2.91,1.26,5.33,5.33,0,0,0-.87,3.45v7.49h-4.39Z"/><path class="cls-2" d="M375.43,127.87a8.38,8.38,0,0,1-1.77-5.18,8.19,8.19,0,0,1,2.63-6.12,9,9,0,0,1,6.3-2.2,9.2,9.2,0,0,1,5,1.3l2.45-2.45,2,1.84-2.37,2.37a8.51,8.51,0,0,1,1.8,5.26,8.17,8.17,0,0,1-2.63,6.08,10.25,10.25,0,0,1-11.41.86L375.1,132l-2-1.8Zm9.14-9.14a3.74,3.74,0,0,0-1.87-.47,4.31,4.31,0,0,0-4.5,4.46,5,5,0,0,0,.43,2Zm-4,7.84a4.25,4.25,0,0,0,2.09.51,4,4,0,0,0,3.13-1.3,4.4,4.4,0,0,0,1.22-3.16,3.6,3.6,0,0,0-.5-2Z"/><path class="cls-2" d="M397.21,114.88l4.1,8.78,4.11-8.78h4.89l-7.85,15.58h-2.3l-7.85-15.58Z"/><path class="cls-2" d="M427.41,126.11c-.47,1.15-2.23,4.86-7.67,4.86a8.12,8.12,0,0,1-6-2.2,7.85,7.85,0,0,1-2.45-6.08,8.27,8.27,0,0,1,2.38-6.12,8,8,0,0,1,5.86-2.2,7.45,7.45,0,0,1,6.09,2.56,9.35,9.35,0,0,1,1.87,6.12v.36H415.85a4.61,4.61,0,0,0,.76,2.62,3.71,3.71,0,0,0,3.13,1.48,4,4,0,0,0,3.64-2.05Zm-4-5.51a3.74,3.74,0,0,0-7.38,0Z"/><path class="cls-2" d="M451.24,114.88h4.39v15.58h-4.39v-2a5.61,5.61,0,0,1-4.79,2.52c-4.78,0-7.95-3.75-7.95-8.32s3.13-8.28,7.74-8.28a5.64,5.64,0,0,1,5,2.52ZM443,122.65a4.32,4.32,0,1,0,4.32-4.39A4.27,4.27,0,0,0,443,122.65Z"/><path class="cls-2" d="M464.2,118.62v11.84h-4.39V118.62h-1.73v-3.74h1.73v-5.33h4.39v5.33h3v3.74Z"/><path class="cls-2" d="M477.92,104.22h4.39v12.67a5.72,5.72,0,0,1,4.82-2.52,6,6,0,0,1,4.61,1.91,6.56,6.56,0,0,1,1.22,4.39v9.79h-4.39V122a4.42,4.42,0,0,0-.83-3.06,2.8,2.8,0,0,0-2.05-.79,3,3,0,0,0-2.7,1.36,5.45,5.45,0,0,0-.68,3v8h-4.39Z"/><path class="cls-2" d="M501.14,114.88v8.81a3.52,3.52,0,0,0,.93,2.74,3.56,3.56,0,0,0,4.47,0,3.52,3.52,0,0,0,.93-2.74v-8.81h4.39v9.53a5.9,5.9,0,0,1-1.9,4.79,9.92,9.92,0,0,1-11.31,0,5.9,5.9,0,0,1-1.9-4.79v-9.53Z"/><path class="cls-2" d="M524.54,118.58a3.66,3.66,0,0,0-2.56-1c-1,0-1.69.5-1.69,1.26,0,.4.18,1,1.4,1.4l1,.33c1.22.39,3.06,1,4,2.23a4.57,4.57,0,0,1,.79,2.59,5.19,5.19,0,0,1-1.73,4,6.55,6.55,0,0,1-4.68,1.66,7.88,7.88,0,0,1-6.05-2.6l2.31-2.66a4.82,4.82,0,0,0,3.45,1.8c1.23,0,2.16-.61,2.16-1.69a1.75,1.75,0,0,0-1.37-1.59l-1-.36a8.36,8.36,0,0,1-3.35-1.87,4.15,4.15,0,0,1-1.19-3,4.61,4.61,0,0,1,1.62-3.53,6.46,6.46,0,0,1,4.07-1.12,7.8,7.8,0,0,1,5,1.66Z"/><path class="cls-2" d="M535,104.22v16.34l5.83-5.68h5.69l-7.31,6.83,7.88,8.75h-5.83l-5.79-6.66-.47.43v6.23h-4.39V104.22Z"/><path class="cls-2" d="M563.92,126.11c-.47,1.15-2.23,4.86-7.67,4.86a8.13,8.13,0,0,1-6-2.2,7.85,7.85,0,0,1-2.45-6.08,8.27,8.27,0,0,1,2.38-6.12,8,8,0,0,1,5.86-2.2,7.45,7.45,0,0,1,6.09,2.56,9.35,9.35,0,0,1,1.87,6.12v.36H552.37a4.6,4.6,0,0,0,.75,2.62,3.71,3.71,0,0,0,3.13,1.48,4,4,0,0,0,3.64-2.05Zm-4-5.51a3.74,3.74,0,0,0-7.38,0Z"/><path class="cls-2" d="M571,125.31a2.81,2.81,0,1,1-2.81,2.81A2.77,2.77,0,0,1,571,125.31Z"/></g></g></svg>
