<svg xmlns="http://www.w3.org/2000/svg" width="710" height="170" viewBox="0 0 710 170"><defs><style>.cls-1{fill:#152230;}.cls-2{fill:#fff;}</style></defs><title>mom_1</title><g id="Oversigt"><g id="Mor-boble"><path class="cls-1" d="M168.4,73.44c-3.77,0-6.94-.56-10.07-3.19-6.35-5.35-13.4-9.87-19.78-15.18-4.5-3.79-10.19-6.29-13.5-11.53-4.47-1.52-7.59-5-11.21-7.76C101.07,26.18,88.43,16.39,75.72,6.7c-1-.77-1.92-2.25-3.36-1.67-1.8.73-1.09,2.59-1.09,4,0,19.66-.2,39.33.08,59,.06,4.14-1.12,5.28-4.43,5.41Z"/><path class="cls-1" d="M709.27,158c0,4.76-6,7.88-18,9.39-2.37,0-4.74.05-7.1.05H55c-.31,0-.65,0-1,0-10.45.09-20.91.06-31.35,0H21.5C9.41,167.14.65,163.21.66,158.07c0-25.13.29-50.26-.15-75.39-.1-6.42,10.88-10.4,24.92-10.39q330.51.15,661,.07c13.58,0,22.78,3.85,22.78,9.54Q709.22,119.94,709.27,158Z"/><path class="cls-2" d="M82.12,125.42H72.44l-2.12,5H65.24l10.33-24h3.67l10.05,24h-5ZM77.26,97.17a3.56,3.56,0,1,1-3.56,3.56A3.5,3.5,0,0,1,77.26,97.17Zm3.5,24.44L77.34,113l-3.42,8.64Zm-3.5-19.44a1.44,1.44,0,1,0-1.44-1.44A1.4,1.4,0,0,0,77.26,102.17Z"/><path class="cls-2" d="M91.45,104.22h4.39v12.67a5.72,5.72,0,0,1,4.82-2.52,6,6,0,0,1,4.61,1.91,6.57,6.57,0,0,1,1.23,4.39v9.79h-4.4V122a4.46,4.46,0,0,0-.82-3.06,2.82,2.82,0,0,0-2.06-.79,3,3,0,0,0-2.7,1.36,5.45,5.45,0,0,0-.68,3v8H91.45Z"/><path class="cls-2" d="M119.06,114.88h4.39v2a5.74,5.74,0,0,1,4.83-2.52,6,6,0,0,1,4.6,1.91,6.57,6.57,0,0,1,1.23,4.39v9.79h-4.4V122a4.46,4.46,0,0,0-.82-3.06,2.82,2.82,0,0,0-2.06-.79,3,3,0,0,0-2.69,1.36,5.38,5.38,0,0,0-.69,3v8h-4.39Z"/><path class="cls-2" d="M153.58,126.11c-.47,1.15-2.23,4.86-7.66,4.86a8.16,8.16,0,0,1-6-2.2,7.85,7.85,0,0,1-2.45-6.08,8.27,8.27,0,0,1,2.38-6.12,8,8,0,0,1,5.87-2.2,7.44,7.44,0,0,1,6.08,2.56,9.35,9.35,0,0,1,1.87,6.12v.36H142a4.66,4.66,0,0,0,.75,2.63,3.74,3.74,0,0,0,3.14,1.47,4,4,0,0,0,3.63-2.05Zm-4-5.51a3.74,3.74,0,0,0-7.38,0Z"/><path class="cls-2" d="M159.27,105.66a2.63,2.63,0,1,1-2.63,2.63A2.65,2.65,0,0,1,159.27,105.66Zm2.2,9.22v23.83h-4.39V114.88Z"/><path class="cls-2" d="M167.52,125.49l4,.47-5.08,9.54-2.77-.32Z"/><path class="cls-2" d="M194.33,118.58a3.63,3.63,0,0,0-2.55-1c-1.05,0-1.69.5-1.69,1.26,0,.4.18,1,1.4,1.4l1,.33c1.23.39,3.06,1,4,2.23a4.5,4.5,0,0,1,.8,2.59,5.19,5.19,0,0,1-1.73,4,6.55,6.55,0,0,1-4.68,1.66,7.89,7.89,0,0,1-6-2.59l2.3-2.67a4.84,4.84,0,0,0,3.46,1.8c1.22,0,2.16-.61,2.16-1.69a1.75,1.75,0,0,0-1.37-1.59l-1-.35A8.48,8.48,0,0,1,187,122a4.15,4.15,0,0,1-1.19-3,4.61,4.61,0,0,1,1.62-3.53,6.45,6.45,0,0,1,4.07-1.12,7.78,7.78,0,0,1,5,1.66Z"/><path class="cls-2" d="M204.77,104.22v16.34l5.84-5.68h5.68l-7.3,6.83,7.88,8.75H211l-5.8-6.66-.47.43v6.23h-4.39V104.22Z"/><path class="cls-2" d="M230.76,114.88h4.4v15.58h-4.4v-2A5.6,5.6,0,0,1,226,131c-4.79,0-8-3.75-8-8.32s3.13-8.28,7.74-8.28a5.64,5.64,0,0,1,5,2.52Zm-8.2,7.77a4.32,4.32,0,1,0,4.32-4.39A4.27,4.27,0,0,0,222.56,122.65Z"/><path class="cls-2" d="M243.73,118.62v11.84h-4.4V118.62h-1.72v-3.74h1.72v-5.33h4.4v5.33h3v3.74Z"/><path class="cls-2" d="M251.5,125.31a2.81,2.81,0,1,1-2.81,2.81A2.77,2.77,0,0,1,251.5,125.31Zm-2.23-2.15V106.45h4.46v16.71Z"/><path class="cls-2" d="M273.42,106.45c3.35,0,6.27.36,8.93,2.34a11.89,11.89,0,0,1,4.61,9.69,11.46,11.46,0,0,1-4.82,9.68c-2.81,2-5.44,2.3-8.79,2.3h-6.19v-24Zm-1.58,20h1.44a10.06,10.06,0,0,0,5.87-1.58,7.81,7.81,0,0,0,3-6.37,8,8,0,0,0-3-6.41,9.77,9.77,0,0,0-5.9-1.59h-1.44Z"/><path class="cls-2" d="M305.93,126.11c-.47,1.15-2.23,4.86-7.67,4.86a8.15,8.15,0,0,1-6-2.2,7.85,7.85,0,0,1-2.45-6.08,8.27,8.27,0,0,1,2.38-6.12,8,8,0,0,1,5.86-2.2,7.45,7.45,0,0,1,6.09,2.56,9.35,9.35,0,0,1,1.87,6.12v.36H294.38a4.66,4.66,0,0,0,.75,2.63,3.73,3.73,0,0,0,3.13,1.47,4,4,0,0,0,3.64-2.05Zm-4-5.51a3.74,3.74,0,0,0-7.38,0Z"/><path class="cls-2" d="M313.82,118.62v11.84h-4.39V118.62H307.7v-3.74h1.73v-5.33h4.39v5.33h3v3.74Z"/><path class="cls-2" d="M342.83,126.11c-.47,1.15-2.23,4.86-7.67,4.86a8.13,8.13,0,0,1-6-2.2,7.85,7.85,0,0,1-2.45-6.08,8.27,8.27,0,0,1,2.38-6.12,8,8,0,0,1,5.86-2.2,7.45,7.45,0,0,1,6.09,2.56,9.35,9.35,0,0,1,1.87,6.12v.36H331.28A4.66,4.66,0,0,0,332,126a3.73,3.73,0,0,0,3.13,1.47,4,4,0,0,0,3.64-2.05Zm-4-5.51a3.74,3.74,0,0,0-7.38,0Z"/><path class="cls-2" d="M346.33,114.88h4.39v2.34a5.2,5.2,0,0,1,1.94-2.16,4.79,4.79,0,0,1,2.59-.69,5.35,5.35,0,0,1,1.87.36l-.57,4.11a3.28,3.28,0,0,0-2.05-.58,3.59,3.59,0,0,0-2.92,1.26,5.32,5.32,0,0,0-.86,3.45v7.49h-4.39Z"/><path class="cls-2" d="M369.87,105.66a2.63,2.63,0,1,1-2.63,2.63A2.65,2.65,0,0,1,369.87,105.66Zm2.19,9.22v23.83h-4.39V114.88Z"/><path class="cls-2" d="M391.54,126.11c-.47,1.15-2.23,4.86-7.67,4.86a8.12,8.12,0,0,1-6-2.2,7.85,7.85,0,0,1-2.45-6.08,8.31,8.31,0,0,1,2.37-6.12,8,8,0,0,1,5.87-2.2,7.43,7.43,0,0,1,6.08,2.56,9.31,9.31,0,0,1,1.88,6.12v.36H380a4.67,4.67,0,0,0,.76,2.63,3.73,3.73,0,0,0,3.13,1.47,4,4,0,0,0,3.64-2.05Zm-4-5.51a3.74,3.74,0,0,0-7.38,0Z"/><path class="cls-2" d="M406.91,114.88h4.39v14.86c0,2.38-.21,4.86-2.16,6.8a8.23,8.23,0,0,1-6.15,2.2c-3,0-4.83-.9-5.83-1.8a8.59,8.59,0,0,1-2.52-4.64h4.75a3.69,3.69,0,0,0,1.08,1.87,3.88,3.88,0,0,0,2.66.83,3.68,3.68,0,0,0,2.66-1,4.41,4.41,0,0,0,1.12-3.46v-2.19a5.47,5.47,0,0,1-4.79,2.59,7.4,7.4,0,0,1-5.4-2.13,8.55,8.55,0,0,1-2.48-6.19,8.68,8.68,0,0,1,2.41-6.19,7.65,7.65,0,0,1,5.37-2.09,5.49,5.49,0,0,1,4.89,2.52Zm-6.73,4.46a4.43,4.43,0,0,0,2.91,7.74A4.45,4.45,0,0,0,406,126a4.6,4.6,0,0,0,1.4-3.35,4.42,4.42,0,0,0-1.26-3.13,4,4,0,0,0-3.06-1.26A4.23,4.23,0,0,0,400.18,119.34Z"/><path class="cls-2" d="M428.26,104.22v16.34l5.83-5.68h5.69l-7.31,6.83,7.88,8.75h-5.83l-5.79-6.66-.47.43v6.23h-4.39V104.22Z"/><path class="cls-2" d="M457.2,126.11c-.47,1.15-2.23,4.86-7.66,4.86a8.16,8.16,0,0,1-6-2.2,7.85,7.85,0,0,1-2.45-6.08,8.27,8.27,0,0,1,2.38-6.12,8,8,0,0,1,5.87-2.2,7.44,7.44,0,0,1,6.08,2.56,9.35,9.35,0,0,1,1.87,6.12v.36H445.65a4.66,4.66,0,0,0,.75,2.63,3.74,3.74,0,0,0,3.14,1.47,4,4,0,0,0,3.63-2.05Zm-4-5.51a3.74,3.74,0,0,0-7.38,0Z"/><path class="cls-2" d="M472.65,104.22H477v26.24h-4.39v-2a5.63,5.63,0,0,1-4.79,2.52c-4.79,0-8-3.75-8-8.32s3.14-8.28,7.74-8.28a5.67,5.67,0,0,1,5,2.52Zm-8.21,18.43a4.32,4.32,0,1,0,4.32-4.39A4.27,4.27,0,0,0,464.44,122.65Z"/><path class="cls-2" d="M501.55,114.88H506v15.58h-4.4v-2a5.6,5.6,0,0,1-4.78,2.52c-4.79,0-8-3.75-8-8.32s3.13-8.28,7.74-8.28a5.64,5.64,0,0,1,5,2.52Zm-8.2,7.77a4.32,4.32,0,1,0,4.32-4.39A4.27,4.27,0,0,0,493.35,122.65Z"/><path class="cls-2" d="M514.59,118.62v11.84H510.2V118.62h-1.66v-3.74h1.66v-4.29c0-1.44.1-3.88,2.05-5.5a5.78,5.78,0,0,1,3.85-1.3,5.66,5.66,0,0,1,2.52.54v4a3.09,3.09,0,0,0-2-.64,1.74,1.74,0,0,0-1.59.79,5.16,5.16,0,0,0-.46,2.7v3.71h4v3.74Z"/><path class="cls-2" d="M541,114.88h4.39v15.58H541v-2a5.6,5.6,0,0,1-4.78,2.52c-4.79,0-8-3.75-8-8.32s3.13-8.28,7.74-8.28a5.64,5.64,0,0,1,5,2.52Zm-8.2,7.77a4.32,4.32,0,1,0,4.31-4.39A4.27,4.27,0,0,0,532.77,122.65Z"/><path class="cls-2" d="M553.93,118.62v11.84h-4.39V118.62h-1.73v-3.74h1.73v-5.33h4.39v5.33h3v3.74Z"/><path class="cls-2" d="M567.65,104.22H572v12.67a5.72,5.72,0,0,1,4.82-2.52,6,6,0,0,1,4.61,1.91,6.57,6.57,0,0,1,1.23,4.39v9.79h-4.4V122a4.46,4.46,0,0,0-.82-3.06,2.82,2.82,0,0,0-2.06-.79,3,3,0,0,0-2.7,1.36,5.45,5.45,0,0,0-.68,3v8h-4.39Z"/><path class="cls-2" d="M587.23,127.87a8.42,8.42,0,0,1-1.76-5.18,8.19,8.19,0,0,1,2.63-6.12,9,9,0,0,1,6.3-2.2,9.2,9.2,0,0,1,5,1.3l2.44-2.45,2,1.84-2.38,2.37a8.46,8.46,0,0,1,1.8,5.26,8.2,8.2,0,0,1-2.62,6.08,10.26,10.26,0,0,1-11.42.86L586.91,132l-2-1.8Zm9.15-9.14a3.78,3.78,0,0,0-1.88-.47,4.33,4.33,0,0,0-4.5,4.46,4.8,4.8,0,0,0,.44,2Zm-4,7.84a4.2,4.2,0,0,0,2.09.51,4,4,0,0,0,3.13-1.3,4.37,4.37,0,0,0,1.23-3.16,3.53,3.53,0,0,0-.51-2Z"/><path class="cls-2" d="M606.85,114.88h4.39v2.34a5.2,5.2,0,0,1,2-2.16,4.79,4.79,0,0,1,2.59-.69,5.35,5.35,0,0,1,1.87.36l-.57,4.11a3.31,3.31,0,0,0-2.06-.58,3.58,3.58,0,0,0-2.91,1.26,5.33,5.33,0,0,0-.87,3.45v7.49h-4.39Z"/><path class="cls-2" d="M634.35,126.11c-.46,1.15-2.23,4.86-7.66,4.86a8.16,8.16,0,0,1-6-2.2,7.85,7.85,0,0,1-2.45-6.08,8.27,8.27,0,0,1,2.38-6.12,8,8,0,0,1,5.87-2.2,7.44,7.44,0,0,1,6.08,2.56,9.3,9.3,0,0,1,1.87,6.12v.36H622.8a4.66,4.66,0,0,0,.75,2.63,3.75,3.75,0,0,0,3.14,1.47,4,4,0,0,0,3.63-2.05Zm-4-5.51a3.74,3.74,0,0,0-7.38,0Z"/><path class="cls-2" d="M640.29,125.31a2.81,2.81,0,1,1-2.8,2.81A2.77,2.77,0,0,1,640.29,125.31Zm-2.23-2.15V106.45h4.47v16.71Z"/></g></g></svg>
