<svg id="Layer_1" data-name="Layer 1" xmlns="http://www.w3.org/2000/svg" width="274.28" height="46.76" viewBox="0 0 274.28 46.76"><defs><style>.cls-1{fill:#fbb077;}.cls-1,.cls-2{stroke:#000;stroke-miterlimit:10;stroke-width:3px;}</style></defs><title>Humør 2</title><line class="cls-1" x1="41.93" y1="40.44" x2="16.39" y2="9.33"/><rect class="cls-2" x="28.66" y="4.76" width="1" height="40.26" transform="translate(-9.17 24.15) rotate(-39.38)"/><path class="cls-1" d="M29.58,25.4c79.72-23.49,156.78-26,230.55-2.46C184.8-.19,107.89,1.56,29.58,25.4Z"/><path class="cls-2" d="M29.72,25.88l-.29-1A423.88,423.88,0,0,1,132.1,6.59q7.54-.42,15-.54a353.37,353.37,0,0,1,113.2,16.42l-.3,1A370.53,370.53,0,0,0,132.07,7.59C99.09,9.43,64.74,15.56,29.72,25.88Z"/></svg>
