<svg id="Layer_1" data-name="Layer 1" xmlns="http://www.w3.org/2000/svg" width="259.41" height="68.92" viewBox="0 0 259.41 68.92"><defs><style>.cls-1{fill:#fbb077;}.cls-1,.cls-2{stroke:#000;stroke-miterlimit:10;stroke-width:3px;}</style></defs><title>Humør 1</title><line class="cls-1" x1="34.93" y1="61.61" x2="9.39" y2="30.49"/><rect class="cls-2" x="21.66" y="25.92" width="1" height="40.26" transform="translate(-24.19 24.51) rotate(-39.38)"/><path class="cls-1" d="M22.58,46.56c77.48-50.29,154.52-53,230.55-2.45C177.81-6.61,100.9-3.53,22.58,46.56Z"/><path class="cls-2" d="M22.85,47l-.55-.84h0C61.31,20.82,100.37,7.66,138.39,7c1.25,0,2.5,0,3.74,0,37.71,0,75.13,12.35,111.28,36.69l-.56.83h0C216.65,20.46,179.42,8.19,142.13,8,141.07,8,140,8,139,8,101.28,8.71,62.2,21.81,22.85,47Z"/></svg>
