<svg id="Layer_1" data-name="Layer 1" xmlns="http://www.w3.org/2000/svg" width="265.28" height="48.76" viewBox="0 0 265.28 48.76"><defs><style>.cls-1{fill:#fbb077;}.cls-1,.cls-2{stroke:#000;stroke-miterlimit:10;stroke-width:3px;}</style></defs><title>Humør 4</title><line class="cls-1" x1="36.93" y1="6.32" x2="11.39" y2="37.43"/><rect class="cls-2" x="4.03" y="21.37" width="40.26" height="1" transform="translate(-8.08 26.67) rotate(-50.62)"/><path class="cls-1" d="M24.58,21.37c79.72,23.48,156.78,26,230.55,2.45C179.8,47,102.89,45.2,24.58,21.37Z"/><path class="cls-2" d="M148,40.76c-2,0-3.95,0-5.93,0q-7.43-.12-15-.53A424.62,424.62,0,0,1,24.43,21.84l.29-.95C59.73,31.2,94.07,37.33,127,39.17A370.19,370.19,0,0,0,255,23.34l.3.95A352.43,352.43,0,0,1,148,40.76Z"/></svg>
