<svg id="Layer_1" data-name="Layer 1" xmlns="http://www.w3.org/2000/svg" width="268.4" height="62.03" viewBox="0 0 268.4 62.03"><defs><style>.cls-1{fill:#fbb077;}.cls-1,.cls-2{stroke:#000;stroke-miterlimit:10;stroke-width:3px;}</style></defs><title>Humør 5</title><line class="cls-1" x1="37.93" y1="4.32" x2="12.39" y2="35.43"/><rect class="cls-2" x="5.03" y="19.37" width="40.26" height="1" transform="translate(-6.17 26.71) rotate(-50.62)"/><path class="cls-1" d="M25.58,19.37c79.71,48.88,156.77,49.15,230.55,2.45C180.8,68.5,103.89,68.5,25.58,19.37Z"/><path class="cls-2" d="M143.42,57H142c-38.52-.3-77.77-12.83-116.66-37.23l.53-.85c39.48,24.21,78.93,36.66,117.24,37q6.51,0,13-.35c33.36-2.32,66.85-13.79,99.78-34.2l.53.85C223.7,42.94,190,54.46,156.16,56.59Q149.79,57,143.42,57Z"/></svg>
