<svg xmlns="http://www.w3.org/2000/svg" width="524.25" height="122.5" viewBox="0 0 524.25 122.5"><defs><style>.cls-1{fill:#2a303b;}.cls-2{fill:#fd9128;}.cls-3{fill:#fff;}.cls-4{opacity:0.9;}.cls-5{fill:#f2902c;}</style></defs><title>music_off</title><g id="Settings"><rect class="cls-1" width="524.25" height="122.5" rx="20" ry="20"/><rect class="cls-2" x="58.69" y="87.45" width="157.48" height="3.96" rx="1.98" ry="1.98"/><path class="cls-3" d="M66.86,35.22h4.51l8.49,20.36,8.88-20.36h4.52l5.37,32H92.3L89.42,47.51l-8.6,19.73H78.71L70.5,47.51,67.24,67.24H60.9Z"/><path class="cls-3" d="M109.29,46.46V58.22a4.69,4.69,0,0,0,1.24,3.65,4.75,4.75,0,0,0,6,0,4.7,4.7,0,0,0,1.25-3.65V46.46h5.85V59.18a7.85,7.85,0,0,1-2.54,6.38c-1.92,1.68-5,2.35-7.54,2.35s-5.61-.67-7.54-2.35a7.85,7.85,0,0,1-2.54-6.38V46.46Z"/><path class="cls-3" d="M140.49,51.4A4.86,4.86,0,0,0,137.08,50c-1.39,0-2.26.67-2.26,1.68,0,.53.24,1.34,1.88,1.87l1.39.43c1.63.53,4.08,1.35,5.28,3a6,6,0,0,1,1,3.46,6.91,6.91,0,0,1-2.3,5.28,8.76,8.76,0,0,1-6.24,2.2,10.53,10.53,0,0,1-8.07-3.45l3.08-3.55a6.45,6.45,0,0,0,4.6,2.4c1.64,0,2.88-.82,2.88-2.26a2.31,2.31,0,0,0-1.82-2.11l-1.34-.48a11.22,11.22,0,0,1-4.47-2.5,5.57,5.57,0,0,1-1.58-4,6.18,6.18,0,0,1,2.16-4.71,8.6,8.6,0,0,1,5.42-1.49A10.42,10.42,0,0,1,143.37,48Z"/><path class="cls-3" d="M151.48,34.17a3.51,3.51,0,1,1-3.51,3.5A3.52,3.52,0,0,1,151.48,34.17Zm2.93,12.29V67.24h-5.86V46.46Z"/><path class="cls-3" d="M165.83,32.25V54l7.78-7.58h7.58l-9.74,9.12L182,67.24h-7.78l-7.73-8.88-.62.58v8.3H160v-35Z"/><g id="Unmute" class="cls-4"><rect class="cls-5" x="393.71" y="51.7" width="91.07" height="10.05" rx="2.51" ry="2.51" transform="translate(45 258.52) rotate(-34.46)"/><path class="cls-5" d="M428.15,87.72c6.55,2.65,8.38,2,6.7-4.08a74.42,74.42,0,0,1-2-12.5L418.49,81A30,30,0,0,0,428.15,87.72Z"/><path class="cls-5" d="M434.85,30.68c1.68-6.11-.29-7.19-6.7-4.08-8.37,4.08-18.42,16.3-20.09,24.45a29.24,29.24,0,0,0,0,12.22,23.42,23.42,0,0,0,1.22,4l23.15-15.89C432.69,43.23,433.5,35.62,434.85,30.68Z"/><path class="cls-5" d="M463.32,57.16c0,15.66-6.14,25.61-22.46,23.21-1-.15-1.77,1.08-1.37,2.21.54,1.55,1.09,3,1.66,4.27a1.32,1.32,0,0,0,1.06.85C461.84,89.45,470,76.57,470,57.16a38.29,38.29,0,0,0-1.42-10.53l-5.89,4A32.87,32.87,0,0,1,463.32,57.16Z"/><path class="cls-5" d="M441.29,26.84a1.4,1.4,0,0,0-1.12,1c-.46,1.5-.91,3-1.35,4.48-.32,1.09.38,2.21,1.32,2.14a23.47,23.47,0,0,1,13.2,2.5l6.56-4.5A23.81,23.81,0,0,0,441.29,26.84Z"/><path class="cls-5" d="M439.22,37a1.37,1.37,0,0,0-1.28,1.12c-.39,1.51-.76,3-1.11,4.49-.25,1.09.47,2.15,1.39,2a11.77,11.77,0,0,1,3.83.14l7.41-5.09A19.07,19.07,0,0,0,439.22,37Z"/><path class="cls-5" d="M438.46,69.68a1.52,1.52,0,0,0-1.4,2c.3,1.54.64,3.08,1,4.61a1.39,1.39,0,0,0,1.29,1.17c14.08-.25,17.28-7.8,17.28-20.27,0-.77,0-1.53-.06-2.27l-6.72,4.62C449.3,66.49,446.16,70.62,438.46,69.68Z"/></g></g></svg>
