<svg xmlns="http://www.w3.org/2000/svg" width="524.25" height="122.5" viewBox="0 0 524.25 122.5"><defs><style>.cls-1{fill:#2a303b;}.cls-2{fill:#fd9128;}.cls-3{fill:#fff;}.cls-4{opacity:0.9;}.cls-5{fill:#f2902c;}</style></defs><title>music_on</title><g id="Settings"><rect class="cls-1" width="524.25" height="122.5" rx="20" ry="20"/><rect class="cls-2" x="58.69" y="87.45" width="157.48" height="3.96" rx="1.98" ry="1.98"/><path class="cls-3" d="M66.85,35.22h4.52l8.49,20.36,8.88-20.36h4.52l5.37,32H92.3L89.42,47.51l-8.6,19.73H78.71L70.5,47.51,67.24,67.24H60.9Z"/><path class="cls-3" d="M109.29,46.46V58.22a4.69,4.69,0,0,0,1.24,3.65,4.75,4.75,0,0,0,6,0,4.7,4.7,0,0,0,1.25-3.65V46.46h5.85V59.18a7.85,7.85,0,0,1-2.54,6.38c-1.92,1.68-5,2.35-7.54,2.35s-5.61-.67-7.54-2.35a7.85,7.85,0,0,1-2.54-6.38V46.46Z"/><path class="cls-3" d="M140.49,51.4A4.91,4.91,0,0,0,137.08,50c-1.39,0-2.26.67-2.26,1.68,0,.53.24,1.34,1.87,1.87l1.4.43c1.63.53,4.08,1.35,5.28,3a6,6,0,0,1,1,3.46,6.91,6.91,0,0,1-2.3,5.28,8.76,8.76,0,0,1-6.24,2.2,10.53,10.53,0,0,1-8.07-3.45l3.08-3.55a6.45,6.45,0,0,0,4.6,2.4c1.64,0,2.88-.82,2.88-2.26a2.31,2.31,0,0,0-1.82-2.11l-1.34-.48a11.22,11.22,0,0,1-4.47-2.5,5.57,5.57,0,0,1-1.58-4,6.18,6.18,0,0,1,2.16-4.71,8.6,8.6,0,0,1,5.42-1.49A10.42,10.42,0,0,1,143.37,48Z"/><path class="cls-3" d="M151.48,34.17a3.51,3.51,0,1,1-3.51,3.5A3.52,3.52,0,0,1,151.48,34.17Zm2.93,12.29V67.24h-5.86V46.46Z"/><path class="cls-3" d="M165.83,32.25V54l7.78-7.58h7.58l-9.74,9.12L182,67.24h-7.78l-7.73-8.88-.62.58v8.3H160v-35Z"/><g id="Mute" class="cls-4"><path class="cls-5" d="M407.88,66c2,9.62,11.86,24,23.72,28.86,7.73,3.14,9.89,2.41,7.91-4.81-4-14.43-4-48.09,0-62.52,2-7.22-.34-8.5-7.91-4.81-9.88,4.81-21.74,19.24-23.72,28.85A34.55,34.55,0,0,0,407.88,66Z"/><path class="cls-5" d="M481,58.81C481,36,465.75,20.86,447.1,23a1.65,1.65,0,0,0-1.32,1.23c-.53,1.76-1.07,3.53-1.59,5.28-.38,1.28.45,2.61,1.57,2.53,16.54-1.2,27.35,8.57,27.35,26.75,0,18.48-7.25,30.23-26.51,27.39-1.19-.17-2.09,1.28-1.62,2.62.64,1.82,1.29,3.51,2,5a1.55,1.55,0,0,0,1.25,1C471.37,96.92,481,81.72,481,58.81Z"/><path class="cls-5" d="M465.21,58.81c0-14.44-5.64-23.59-20.55-23.85a1.6,1.6,0,0,0-1.5,1.32q-.71,2.69-1.31,5.31c-.3,1.28.54,2.53,1.63,2.4,8.77-1,13.82,5.19,13.82,14.82,0,9.9-3.46,16-13.53,14.78-1.06-.13-1.91,1.06-1.66,2.32.36,1.82.75,3.64,1.17,5.44a1.64,1.64,0,0,0,1.52,1.38C461.43,82.44,465.21,73.53,465.21,58.81Z"/><path class="cls-5" d="M449.39,58.65c-.06-4.56-2.82-8.48-6.5-9.31a6.25,6.25,0,0,0-1.34-.15A1.69,1.69,0,0,0,440,50.81a68.63,68.63,0,0,0-.51,8c0,2.37.16,5.07.45,8a1.7,1.7,0,0,0,1.51,1.66h0C445.9,68.43,449.46,64,449.39,58.65Z"/></g></g></svg>
