<svg xmlns="http://www.w3.org/2000/svg" width="524.25" height="122.5" viewBox="0 0 524.25 122.5"><defs><style>.cls-1{fill:#2a303b;}.cls-2{fill:#fd9128;}.cls-3{fill:#fff;}</style></defs><title>next_button</title><g id="Game_over" data-name="Game over"><rect class="cls-1" width="524.25" height="122.5" rx="20" ry="20"/><rect class="cls-2" x="58.69" y="87.45" width="157.48" height="3.96" rx="1.98" ry="1.98"/><path class="cls-3" d="M62.53,67.24v-32h4.32L86.34,56.58V35.22h6.24v32H88.26L68.77,45.83V67.24Z"/><path class="cls-3" d="M133.14,61.43c-2.54,6.29-8.68,6.48-10.22,6.48-4.66,0-6.91-2.2-8.06-3.93a10,10,0,0,1-8.36,3.93c-5.76,0-8.54-3.21-8.54-6.72a6.2,6.2,0,0,1,2.11-4.8,9.74,9.74,0,0,1,6.67-2.16,10.66,10.66,0,0,1,5.38,1.44l0-1a3.87,3.87,0,0,0-1.78-3.4,7.44,7.44,0,0,0-3.89-.87,20.49,20.49,0,0,0-5.33.82V46.55a24,24,0,0,1,5.76-.77c2.5,0,5.86.24,7.93,3.51,1.15-1.44,3.36-3.51,7.87-3.51a10,10,0,0,1,8.06,3.41,12.43,12.43,0,0,1,2.5,8.16v.48H117.74a5.57,5.57,0,0,0,1,3.51,4.91,4.91,0,0,0,4.18,2,5.36,5.36,0,0,0,4.85-2.74ZM107.7,63.79c3.27,0,4.42-1.78,4.42-2.93s-1-2.5-4.47-2.5c-3.12,0-4,1.49-4,2.59S104.63,63.79,107.7,63.79Zm20.07-9.7a5,5,0,0,0-9.84,0Z"/><path class="cls-3" d="M149.13,51.4A4.86,4.86,0,0,0,145.72,50c-1.39,0-2.26.67-2.26,1.68,0,.53.24,1.34,1.87,1.87l1.4.43c1.63.53,4.08,1.35,5.28,3a6,6,0,0,1,1.05,3.46,6.91,6.91,0,0,1-2.3,5.28,8.76,8.76,0,0,1-6.24,2.2,10.53,10.53,0,0,1-8.07-3.45l3.08-3.56a6.43,6.43,0,0,0,4.6,2.41c1.64,0,2.88-.82,2.88-2.26a2.31,2.31,0,0,0-1.82-2.11l-1.34-.48a11.22,11.22,0,0,1-4.47-2.5,5.57,5.57,0,0,1-1.58-4A6.18,6.18,0,0,1,140,47.27a8.6,8.6,0,0,1,5.42-1.49A10.42,10.42,0,0,1,152,48Z"/><path class="cls-3" d="M163.05,51.45V67.24h-5.86V51.45h-2.3v-5h2.3V39.35h5.86v7.11h4v5Z"/><path class="cls-3" d="M190.55,61.43c-.62,1.54-3,6.48-10.22,6.48a10.89,10.89,0,0,1-8-2.92,10.47,10.47,0,0,1-3.27-8.12,11.06,11.06,0,0,1,3.17-8.16,10.65,10.65,0,0,1,7.82-2.93c4.23,0,6.68,1.68,8.12,3.41a12.41,12.41,0,0,1,2.49,8.16v.48H175.14a6.16,6.16,0,0,0,1,3.51,5,5,0,0,0,4.18,2,5.36,5.36,0,0,0,4.84-2.74Zm-5.38-7.34a5,5,0,0,0-9.84,0Z"/><path class="cls-3" d="M200,60.38a3.75,3.75,0,1,1-3.75,3.74A3.68,3.68,0,0,1,200,60.38Z"/><path class="cls-3" d="M212.05,60.38a3.75,3.75,0,1,1-3.74,3.74A3.69,3.69,0,0,1,212.05,60.38Z"/><path class="cls-3" d="M224.15,60.38a3.75,3.75,0,1,1-3.75,3.74A3.68,3.68,0,0,1,224.15,60.38Z"/><path class="cls-3" d="M62.53,67.24v-32h4.32L86.34,56.58V35.22h6.24v32H88.26L68.77,45.83V67.24Z"/><path class="cls-3" d="M133.14,61.43c-2.54,6.29-8.68,6.48-10.22,6.48-4.66,0-6.91-2.2-8.06-3.93a10,10,0,0,1-8.36,3.93c-5.76,0-8.54-3.21-8.54-6.72a6.2,6.2,0,0,1,2.11-4.8,9.74,9.74,0,0,1,6.67-2.16,10.66,10.66,0,0,1,5.38,1.44l0-1a3.87,3.87,0,0,0-1.78-3.4,7.44,7.44,0,0,0-3.89-.87,20.49,20.49,0,0,0-5.33.82V46.55a24,24,0,0,1,5.76-.77c2.5,0,5.86.24,7.93,3.51,1.15-1.44,3.36-3.51,7.87-3.51a10,10,0,0,1,8.06,3.41,12.43,12.43,0,0,1,2.5,8.16v.48H117.74a5.57,5.57,0,0,0,1,3.51,4.91,4.91,0,0,0,4.18,2,5.36,5.36,0,0,0,4.85-2.74ZM107.7,63.79c3.27,0,4.42-1.78,4.42-2.93s-1-2.5-4.47-2.5c-3.12,0-4,1.49-4,2.59S104.63,63.79,107.7,63.79Zm20.07-9.7a5,5,0,0,0-9.84,0Z"/><path class="cls-3" d="M149.13,51.4A4.86,4.86,0,0,0,145.72,50c-1.39,0-2.26.67-2.26,1.68,0,.53.24,1.34,1.87,1.87l1.4.43c1.63.53,4.08,1.35,5.28,3a6,6,0,0,1,1.05,3.46,6.91,6.91,0,0,1-2.3,5.28,8.76,8.76,0,0,1-6.24,2.2,10.53,10.53,0,0,1-8.07-3.45l3.08-3.56a6.43,6.43,0,0,0,4.6,2.41c1.64,0,2.88-.82,2.88-2.26a2.31,2.31,0,0,0-1.82-2.11l-1.34-.48a11.22,11.22,0,0,1-4.47-2.5,5.57,5.57,0,0,1-1.58-4A6.18,6.18,0,0,1,140,47.27a8.6,8.6,0,0,1,5.42-1.49A10.42,10.42,0,0,1,152,48Z"/><path class="cls-3" d="M163.05,51.45V67.24h-5.86V51.45h-2.3v-5h2.3V39.35h5.86v7.11h4v5Z"/><path class="cls-3" d="M190.55,61.43c-.62,1.54-3,6.48-10.22,6.48a10.89,10.89,0,0,1-8-2.92,10.47,10.47,0,0,1-3.27-8.12,11.06,11.06,0,0,1,3.17-8.16,10.65,10.65,0,0,1,7.82-2.93c4.23,0,6.68,1.68,8.12,3.41a12.41,12.41,0,0,1,2.49,8.16v.48H175.14a6.16,6.16,0,0,0,1,3.51,5,5,0,0,0,4.18,2,5.36,5.36,0,0,0,4.84-2.74Zm-5.38-7.34a5,5,0,0,0-9.84,0Z"/><path class="cls-3" d="M200,60.38a3.75,3.75,0,1,1-3.75,3.74A3.68,3.68,0,0,1,200,60.38Z"/><path class="cls-3" d="M212.05,60.38a3.75,3.75,0,1,1-3.74,3.74A3.69,3.69,0,0,1,212.05,60.38Z"/><path class="cls-3" d="M224.15,60.38a3.75,3.75,0,1,1-3.75,3.74A3.68,3.68,0,0,1,224.15,60.38Z"/></g></svg>
