<svg id="Layer_1" data-name="Layer 1" xmlns="http://www.w3.org/2000/svg" width="370" height="160" viewBox="0 0 370 160"><defs><style>.cls-1{fill:#b3b3b3;}.cls-2{fill:#fff;}</style></defs><title>playagainknap</title><rect class="cls-1" x="4.23" y="20.24" width="361.53" height="136.98" rx="59.87" ry="59.87"/><path d="M321.77,158.09H48.23C23.57,158.09,3.5,134.26,3.5,105V72.47c0-29.28,20.07-53.11,44.73-53.11H321.77c24.66,0,44.73,23.83,44.73,53.11V105C366.5,134.26,346.43,158.09,321.77,158.09ZM48.23,21.11C24.38,21.11,5,44.15,5,72.47V105c0,28.32,19.41,51.36,43.26,51.36H321.77c23.85,0,43.26-23,43.26-51.36V72.47c0-28.32-19.41-51.36-43.26-51.36Z"/><rect class="cls-2" x="4.23" y="2.79" width="361.53" height="136.98" rx="59.87" ry="59.87"/><path d="M321.77,140.64H48.23c-24.66,0-44.73-23.83-44.73-53.11V55C3.5,25.74,23.57,1.91,48.23,1.91H321.77c24.66,0,44.73,23.83,44.73,53.11V87.53C366.5,116.81,346.43,140.64,321.77,140.64ZM48.23,3.66C24.38,3.66,5,26.7,5,55V87.53c0,28.32,19.41,51.36,43.26,51.36H321.77c23.85,0,43.26-23,43.26-51.36V55c0-28.32-19.41-51.36-43.26-51.36Z"/><path d="M60.83,88.37H41.68v-1.9h2.2V58.52h-2.2v-1.9h17.6a32.19,32.19,0,0,1,6.33.35c.78.23,1.54.48,2.27.75a4.77,4.77,0,0,1,1.73,1A19.48,19.48,0,0,1,71,60.29,6.28,6.28,0,0,1,72,62.42a20.23,20.23,0,0,1,.6,2.82,23.7,23.7,0,0,1,.25,3.63,24.06,24.06,0,0,1-.25,3.65A19.2,19.2,0,0,1,72,75.39a6.52,6.52,0,0,1-1.1,2.15,18.06,18.06,0,0,1-1.35,1.55,4.65,4.65,0,0,1-1.73,1c-.73.27-1.36.47-1.87.62a11.23,11.23,0,0,1-2.18.33q-2.1.15-4.65.15h-4.5v5.25h6.2Zm1.3-10.75V60.12h-7.5v17.5Z"/><path d="M76.13,51.92h11.5V86.47h2v1.9H76.13v-1.9h2V53.82h-2Z"/><path d="M96.48,69.42l-1.2-7.8a44.08,44.08,0,0,1,11.35-1.5q6.45,0,9.35,2a5.85,5.85,0,0,1,2,2.17,6.73,6.73,0,0,1,.8,3.38V86.47h2v1.9h-6.15l-2-3.8H112q-1,2.9-2.45,3.72a8.16,8.16,0,0,1-4,.83c-1.72,0-2.88,0-3.48-.05s-1.41-.12-2.45-.25a6.08,6.08,0,0,1-2.4-.73,11.91,11.91,0,0,1-1.8-1.42c-1.16-1.1-1.75-3-1.75-5.8,0-3.47,1.09-5.77,3.25-6.9a11.8,11.8,0,0,1,3.28-1.08,26,26,0,0,1,4.07-.27h5V63.87h-5.7l-1.35,5.55Zm12.8,15.15v-8.2h-6.85v8.2Z"/><path d="M142.13,60.87h9.05l-5.25,25.95a14.4,14.4,0,0,1-4.52,8.45,12.32,12.32,0,0,1-8.23,2.85,26.18,26.18,0,0,1-5.25-.4l1-7.85H135V87.22a1.36,1.36,0,0,0-.25-.9,1.59,1.59,0,0,0-1.25-.4h-4.25L126,62.77h-2v-1.9h12.05l2.4,25.05h3.65Z"/><path d="M168.48,58.52v-1.9h22.6l4.6,29.85h2.1v1.9h-32.6v-1.9h2l4.35-27.95Zm7.75,1.1v18.5h6.1l-1.65-18.5Zm0,28.75h7.05l-.7-7.5h-6.35Z"/><path d="M199.93,96.47a4.56,4.56,0,0,1-1.75-2.33,16,16,0,0,1-.4-4.25,7.11,7.11,0,0,1,1.25-4.5,3.53,3.53,0,0,1,2.75-1.57h3.75v-.65A2.88,2.88,0,0,1,203,80v-3.1q-4.35-1.45-4.35-6.85V69q0-4.45,1.6-6.25a10.93,10.93,0,0,1,1.1-1.13,4.23,4.23,0,0,1,1.43-.72c.61-.2,1.13-.35,1.55-.45a13,13,0,0,1,1.77-.25c.77-.07,1.37-.1,1.8-.1h2A11.46,11.46,0,0,1,215,61a3.28,3.28,0,0,1,1.62,3.2h.65l.5-2.05a6.36,6.36,0,0,1,1.35-3,4.38,4.38,0,0,1,2.95-.75h2.2v4.45h-.55c-.63,0-1,.47-1,1.4v5.85a8.36,8.36,0,0,1-1.35,4.8,6.3,6.3,0,0,1-3.5,2.2q-1.69.56-7.8.55h-1.8v1.2a4.82,4.82,0,0,0,.35,2.17,1.41,1.41,0,0,0,1.35.63h7.45a7,7,0,0,1,4.63,1.77q2.07,1.78,2.07,5.88,0,5.2-2.75,7t-10.8,1.83a54.69,54.69,0,0,1-6.8-.33A8.14,8.14,0,0,1,199.93,96.47Zm17-8.6h-12.1v5.25h12.1Zm-2.8-14.35V64.17h-6.85v9.35Z"/><path d="M231.08,69.42l-1.2-7.8a44.08,44.08,0,0,1,11.35-1.5q6.45,0,9.35,2a5.85,5.85,0,0,1,2,2.17,6.84,6.84,0,0,1,.8,3.38V86.47h2v1.9h-6.15l-2-3.8h-.65c-.67,1.93-1.48,3.17-2.45,3.72a8.19,8.19,0,0,1-4,.83c-1.72,0-2.88,0-3.48-.05s-1.42-.12-2.45-.25a6.08,6.08,0,0,1-2.4-.73,11,11,0,0,1-1.8-1.42q-1.75-1.65-1.75-5.8,0-5.2,3.25-6.9a11.8,11.8,0,0,1,3.28-1.08,26,26,0,0,1,4.07-.27h5V63.87h-5.7l-1.35,5.55Zm12.8,15.15v-8.2H237v8.2Z"/><path d="M273.38,88.37h-13.5v-1.9h2V62.77h-2v-1.9h11.5v25.6h2Zm-2.45-37.55q.9.7.9,3.45t-.9,3.45c-.6.47-2,.7-4.2.7s-3.64-.23-4.32-.7-1-1.62-1-3.45.34-3,1-3.45,2.12-.7,4.32-.7S270.33,50.35,270.93,50.82Z"/><path d="M308.23,88.37h-11.5V64.67h-7.35v23.7h-11.5v-1.9h2V62.77h-2v-1.9h6.65l1.75,3.8h.65A5.94,5.94,0,0,1,290.11,61a18.61,18.61,0,0,1,6.62-.87,12.56,12.56,0,0,1,7,1.67q2.5,1.68,2.5,5.83V86.47h2Z"/><path d="M332.28,66.92q0,8.44-5.9,10.4a14.36,14.36,0,0,1-4.23.5,18.29,18.29,0,0,1-5.52-.9v-2l8.55-15.25h-4.5l-4.95,8.85h-3.9L311,57.37a42.13,42.13,0,0,1,10.8-1.5q5.14,0,7.83,2.57T332.28,66.92ZM321,80.82q3.3,0,4.2.72t.9,3.45c0,1.82-.31,3-.92,3.43s-2,.7-4.23.7-3.63-.23-4.3-.7-1-1.61-1-3.43.34-3,1-3.45S318.83,80.82,321,80.82Z"/></svg>
