<svg xmlns="http://www.w3.org/2000/svg" width="524.25" height="122.5" viewBox="0 0 524.25 122.5"><defs><style>.cls-1{fill:#2a303b;}.cls-2{fill:#fd9128;}.cls-3{fill:#fff;}</style></defs><title>play_again_button</title><g id="Game_over" data-name="Game over"><rect class="cls-1" width="524.25" height="122.5" rx="20" ry="20"/><rect class="cls-2" x="58.69" y="87.45" width="157.48" height="3.96" rx="1.98" ry="1.98"/><path class="cls-3" d="M78.28,42.52a6.25,6.25,0,0,0-5.23-2.74c-3.36,0-4.42,2.12-4.42,3.75a2.69,2.69,0,0,0,1,2.16c.77.72,1.82,1.1,3.84,1.82,2.5.87,4.85,1.73,6.48,3.22a8.71,8.71,0,0,1,2.74,6.72C82.7,63.69,78.18,68,71.56,68a13.16,13.16,0,0,1-11-6L64.6,58a7.49,7.49,0,0,0,6.72,4.27c2.83,0,4.94-1.73,4.94-4.42A3.71,3.71,0,0,0,75,55a14.27,14.27,0,0,0-4.94-2.35,15.48,15.48,0,0,1-5.33-2.79,7.45,7.45,0,0,1-2.54-6c0-4.7,3.17-9.41,10.27-9.41a12.31,12.31,0,0,1,9.07,3.75Z"/><path class="cls-3" d="M93.16,78.24H87.3V46.46h5.86v2.68a7.92,7.92,0,0,1,6.77-3.36,10,10,0,0,1,7.1,2.79,11.2,11.2,0,0,1,3.12,8.26,11.14,11.14,0,0,1-3.26,8.4,10.25,10.25,0,0,1-7.06,2.68,7.87,7.87,0,0,1-6.67-3.36Zm1.39-25.88a5.51,5.51,0,0,0-2,4.47,5.92,5.92,0,0,0,1.92,4.51,5.71,5.71,0,0,0,3.84,1.39,5.57,5.57,0,0,0,3.94-1.49,6.08,6.08,0,0,0,1.82-4.41,6.25,6.25,0,0,0-1.77-4.37,6.13,6.13,0,0,0-4-1.49A5.31,5.31,0,0,0,94.55,52.36Z"/><path class="cls-3" d="M117.59,34.17a3.51,3.51,0,1,1-3.5,3.5A3.52,3.52,0,0,1,117.59,34.17Zm2.93,12.29V67.24h-5.86V46.46Z"/><path class="cls-3" d="M131.94,32.25v35h-5.85v-35Z"/><path class="cls-3" d="M151.62,34.17a3.51,3.51,0,1,1-3.5,3.5A3.53,3.53,0,0,1,151.62,34.17Zm2.93,12.29V67.24h-5.86V46.46Z"/><path class="cls-3" d="M176,46.46h5.85V66.28c0,3.17-.28,6.48-2.88,9.07-1.44,1.44-3.93,2.93-8.2,2.93-4,0-6.44-1.2-7.78-2.4a11.52,11.52,0,0,1-3.36-6.19h6.33a5.05,5.05,0,0,0,1.45,2.5,5.18,5.18,0,0,0,3.55,1.1,4.94,4.94,0,0,0,3.55-1.3c1.34-1.29,1.49-2.92,1.49-4.6V64.46a7.29,7.29,0,0,1-6.39,3.45,9.84,9.84,0,0,1-7.2-2.83,11.42,11.42,0,0,1-3.31-8.25,11.55,11.55,0,0,1,3.22-8.26,10.14,10.14,0,0,1,7.15-2.79A7.34,7.34,0,0,1,176,49.14Zm-9,5.95a5.68,5.68,0,0,0-1.87,4.42,5.81,5.81,0,0,0,1.53,4.08,5.72,5.72,0,0,0,4.23,1.82,5.91,5.91,0,0,0,3.89-1.44,6.11,6.11,0,0,0,1.87-4.46A5.9,5.9,0,0,0,175,52.65,5.33,5.33,0,0,0,170.87,51,5.65,5.65,0,0,0,167,52.41Z"/><path class="cls-3" d="M207.78,61.43c-.62,1.54-3,6.48-10.22,6.48a10.9,10.9,0,0,1-8-2.92,10.47,10.47,0,0,1-3.27-8.12,11.06,11.06,0,0,1,3.17-8.16,10.66,10.66,0,0,1,7.83-2.93c4.22,0,6.67,1.68,8.11,3.41a12.43,12.43,0,0,1,2.5,8.16v.48H192.37a6.16,6.16,0,0,0,1,3.51,5,5,0,0,0,4.18,2,5.37,5.37,0,0,0,4.85-2.74Zm-5.37-7.34a5,5,0,0,0-9.85,0Z"/><path class="cls-3" d="M212.44,46.46h5.85v2.68a7.65,7.65,0,0,1,6.43-3.36,7.94,7.94,0,0,1,6.15,2.55,8.75,8.75,0,0,1,1.63,5.86v13h-5.86V55.91c0-1.15,0-3-1.1-4.08a3.74,3.74,0,0,0-2.74-1,4,4,0,0,0-3.6,1.82,7.19,7.19,0,0,0-.91,4V67.24h-5.85Z"/></g></svg>
