<svg xmlns="http://www.w3.org/2000/svg" width="524.25" height="122.5" viewBox="0 0 524.25 122.5"><defs><style>.cls-1{fill:#2a303b;}.cls-2{fill:#fd9128;}.cls-3{fill:#fff;}.cls-4{fill:#89cce5;}.cls-5{fill:#152230;}.cls-6{fill:none;}.cls-7{fill:#fbb077;}.cls-8{fill:#fbb072;}.cls-9{fill:#8c6239;}</style></defs><title>play_boy_buton</title><g id="Snak-o-meter_edited" data-name="Snak-o-meter edited"><rect class="cls-1" width="524.25" height="122.5" rx="20" ry="20"/><rect class="cls-2" x="58.69" y="87.45" width="157.48" height="3.96" rx="1.98" ry="1.98"/><path class="cls-3" d="M78.28,42.53a6.25,6.25,0,0,0-5.23-2.74c-3.36,0-4.42,2.11-4.42,3.74a2.69,2.69,0,0,0,1,2.16c.77.72,1.82,1.11,3.84,1.83,2.5.86,4.85,1.73,6.48,3.21a8.72,8.72,0,0,1,2.74,6.72C82.7,63.7,78.18,68,71.56,68a13.16,13.16,0,0,1-11-6L64.6,58a7.49,7.49,0,0,0,6.72,4.27c2.83,0,4.94-1.73,4.94-4.41A3.69,3.69,0,0,0,75,55c-1.19-1.11-3.12-1.73-4.94-2.36a15.28,15.28,0,0,1-5.33-2.78,7.47,7.47,0,0,1-2.54-5.95c0-4.71,3.17-9.41,10.27-9.41a12.29,12.29,0,0,1,9.07,3.74Z"/><path class="cls-3" d="M93.16,78.24H87.3V46.46h5.86v2.69a7.9,7.9,0,0,1,6.77-3.36,9.93,9.93,0,0,1,7.1,2.78,11.21,11.21,0,0,1,3.12,8.26,11.12,11.12,0,0,1-3.26,8.4,10.21,10.21,0,0,1-7.06,2.69,7.87,7.87,0,0,1-6.67-3.36Zm1.39-25.87a5.49,5.49,0,0,0-2,4.46,5.89,5.89,0,0,0,1.92,4.51,5.66,5.66,0,0,0,3.84,1.4,5.57,5.57,0,0,0,3.94-1.49,6.08,6.08,0,0,0,1.82-4.42,6.27,6.27,0,0,0-1.77-4.37,6.13,6.13,0,0,0-4-1.49A5.31,5.31,0,0,0,94.55,52.37Z"/><path class="cls-3" d="M117.59,34.17a3.51,3.51,0,1,1-3.51,3.51A3.53,3.53,0,0,1,117.59,34.17Zm2.93,12.29V67.25h-5.86V46.46Z"/><path class="cls-3" d="M131.94,32.25v35h-5.86v-35Z"/><path class="cls-3" d="M160,51.41a4.85,4.85,0,0,0-3.41-1.4c-1.39,0-2.25.68-2.25,1.68,0,.53.24,1.35,1.87,1.88l1.39.43c1.63.53,4.08,1.34,5.28,3A6,6,0,0,1,164,60.43a6.91,6.91,0,0,1-2.31,5.28,8.7,8.7,0,0,1-6.24,2.21,10.46,10.46,0,0,1-8.06-3.46l3.07-3.55a6.42,6.42,0,0,0,4.61,2.4c1.63,0,2.88-.81,2.88-2.25a2.33,2.33,0,0,0-1.83-2.12l-1.34-.48A11.09,11.09,0,0,1,150.28,56a5.6,5.6,0,0,1-1.59-4,6.18,6.18,0,0,1,2.16-4.7,8.57,8.57,0,0,1,5.43-1.49A10.35,10.35,0,0,1,162.9,48Z"/><path class="cls-3" d="M187.33,48.72a11.18,11.18,0,0,1,0,16.27,13.51,13.51,0,0,1-16.8,0,11.2,11.2,0,0,1,0-16.27,13.51,13.51,0,0,1,16.8,0Zm-2.54,8.16a5.86,5.86,0,1,0-5.86,5.86A5.8,5.8,0,0,0,184.79,56.88Z"/><path class="cls-3" d="M195.35,46.46h5.85v2.35a7.67,7.67,0,0,1,6.2-3A6.87,6.87,0,0,1,214,49.58a7.67,7.67,0,0,1,6.68-3.79,6.6,6.6,0,0,1,5.61,2.54c1.35,1.78,1.44,3.56,1.44,5.86V67.25h-5.85V55.92c0-2.45-.53-3.55-1-4.08a3,3,0,0,0-2.4-1.06,3.43,3.43,0,0,0-3.22,1.83,7.85,7.85,0,0,0-.82,4V67.25H208.6V55.92c0-2.45-.53-3.55-1-4.08a3,3,0,0,0-2.4-1.06A3.43,3.43,0,0,0,202,52.61a7.85,7.85,0,0,0-.82,4V67.25h-5.85Z"/><path class="cls-3" d="M268.55,66.1A16.69,16.69,0,0,1,260.63,68a15.74,15.74,0,0,1-11.71-4.47,15.93,15.93,0,0,1-5.14-12.24,16.74,16.74,0,0,1,5.14-12.53c3.21-3,7.2-4.22,11.76-4.22a16,16,0,0,1,7.87,2v7.29a10.31,10.31,0,0,0-7.73-3.6c-6.43,0-10.61,5.28-10.61,11.19A10.6,10.6,0,0,0,261.06,62.3a9.68,9.68,0,0,0,7.49-3.5Z"/><path class="cls-3" d="M289.38,46.46h5.86V67.25h-5.86V64.56A7.46,7.46,0,0,1,283,67.92c-6.39,0-10.61-5-10.61-11.09s4.17-11,10.32-11a7.54,7.54,0,0,1,6.67,3.36ZM278.43,56.83A5.77,5.77,0,1,0,284.2,51,5.7,5.7,0,0,0,278.43,56.83Z"/><path class="cls-3" d="M300.8,46.46h5.86v3.12a7.05,7.05,0,0,1,2.59-2.88,6.41,6.41,0,0,1,3.46-.91,7.2,7.2,0,0,1,2.49.48l-.77,5.47A4.36,4.36,0,0,0,311.7,51a4.78,4.78,0,0,0-3.89,1.68,7.18,7.18,0,0,0-1.15,4.61v10H300.8Z"/><path class="cls-3" d="M323.94,32.25v35h-5.86v-35Z"/><circle class="cls-4" cx="413.37" cy="61.25" r="48.14"/><circle class="cls-5" cx="413.29" cy="61.63" r="45"/><line class="cls-6" x1="399.51" y1="72.24" x2="395.6" y2="77"/><rect x="394.47" y="74.55" width="6.16" height="0.15" transform="translate(87.64 334.57) rotate(-50.62)"/><path class="cls-7" d="M397.62,74.55c12.2,3.59,24,4,35.28.37C421.37,78.47,409.6,78.19,397.62,74.55Z"/><path d="M416.51,77.51h-.91c-.76,0-1.52,0-2.29-.09a64.71,64.71,0,0,1-15.72-2.8l.05-.15a69,69,0,0,0,15.66,2.8,56.88,56.88,0,0,0,19.58-2.42l.05.15A53.8,53.8,0,0,1,416.51,77.51Z"/><ellipse cx="416.12" cy="64.28" rx="34.51" ry="27.71"/><ellipse cx="398.56" cy="60.46" rx="6.11" ry="5.92"/><path d="M398.56,54.62a5.84,5.84,0,1,1-6,5.84,5.94,5.94,0,0,1,6-5.84m0-.15a6,6,0,1,0,6.18,6A6.08,6.08,0,0,0,398.56,54.47Z"/><ellipse cx="398.48" cy="60.38" rx="1.85" ry="1.79"/><path d="M398.48,58.67a1.72,1.72,0,1,1-1.77,1.71,1.74,1.74,0,0,1,1.77-1.71m0-.16a1.87,1.87,0,1,0,1.93,1.87,1.91,1.91,0,0,0-1.93-1.87Z"/><path d="M437.9,67.31A5.92,5.92,0,1,1,444,61.39,6,6,0,0,1,437.9,67.31Z"/><path d="M437.9,55.55a5.84,5.84,0,1,1-6,5.84,5.95,5.95,0,0,1,6-5.84m0-.15a6,6,0,1,0,6.19,6A6.09,6.09,0,0,0,437.9,55.4Z"/><ellipse cx="437.83" cy="61.32" rx="1.85" ry="1.79"/><path d="M437.83,59.6a1.72,1.72,0,1,1-1.78,1.72,1.75,1.75,0,0,1,1.78-1.72m0-.15a1.87,1.87,0,1,0,1.92,1.87A1.89,1.89,0,0,0,437.83,59.45Z"/><path d="M417.38,69a15.33,15.33,0,0,1-3.31-.36l.06-.3a16.54,16.54,0,0,0,3.71.34,20.65,20.65,0,0,0,3.14-.34l.06.3a17.13,17.13,0,0,1-3.19.36Z"/><path d="M384.52,53.24c0-9.75,14.11-17.65,31.53-17.65s31.53,7.9,31.53,17.65"/><path d="M408.78,48.78c0-3.5,3.26-6.34,7.27-6.34s7.26,2.84,7.26,6.34"/><path d="M423.76,51.87h-15a2.09,2.09,0,0,1,0-3.09h15Z"/><ellipse cx="409.91" cy="50.24" rx="0.37" ry="0.43"/><ellipse cx="415.45" cy="50.24" rx="0.37" ry="0.43"/><ellipse cx="413.8" cy="50.24" rx="0.37" ry="0.43"/><ellipse cx="411.85" cy="50.24" rx="0.37" ry="0.43"/><ellipse cx="420.69" cy="50.24" rx="0.37" ry="0.43"/><ellipse cx="419.04" cy="50.24" rx="0.37" ry="0.43"/><ellipse cx="417.4" cy="50.24" rx="0.37" ry="0.43"/><ellipse cx="422.49" cy="50.24" rx="0.37" ry="0.43"/><ellipse cx="416.43" cy="35.61" rx="2.98" ry="0.77"/><ellipse cx="381.99" cy="60.03" rx="3.14" ry="5.13"/><ellipse cx="449.64" cy="59.26" rx="2.22" ry="3.9"/><path d="M414.21,68.52c-.35-.51-.46-.83-.15-1.22"/><path d="M414.09,68.61c-.38-.53-.52-.94-.16-1.41l.24.19c-.23.3-.19.53.16,1Z"/><path d="M420.92,68.52c.35-.51.46-.83.15-1.22"/><path d="M421,68.61l-.25-.18c.36-.51.39-.74.15-1l.25-.19C421.56,67.67,421.41,68.08,421,68.61Z"/><ellipse class="cls-7" cx="413.22" cy="62.75" rx="34.51" ry="27.71"/><path d="M414.47,67.49a15.39,15.39,0,0,1-3.31-.36l.06-.3a16.54,16.54,0,0,0,3.71.34,20.52,20.52,0,0,0,3.14-.34l.06.3a17.13,17.13,0,0,1-3.19.36Z"/><ellipse class="cls-8" cx="378.7" cy="58.09" rx="2.14" ry="3.5"/><ellipse class="cls-8" cx="446.9" cy="57.73" rx="2.39" ry="3.9"/><path class="cls-7" d="M411.3,67c-.35-.51-.46-.83-.15-1.23"/><path d="M411.18,67.08c-.37-.53-.52-.94-.16-1.41l.25.19c-.24.3-.2.53.15,1Z"/><path class="cls-7" d="M418,67c.35-.51.46-.83.15-1.23"/><path d="M418.14,67.08l-.26-.18c.36-.51.39-.74.16-1l.24-.19C418.65,66.14,418.51,66.55,418.14,67.08Z"/><ellipse class="cls-3" cx="395.65" cy="58.93" rx="6.11" ry="5.92"/><path d="M395.65,53.09a5.84,5.84,0,1,1-6,5.84,5.94,5.94,0,0,1,6-5.84m0-.15a6,6,0,1,0,6.18,6A6.09,6.09,0,0,0,395.65,52.94Z"/><ellipse cx="395.57" cy="58.85" rx="1.85" ry="1.79"/><path d="M395.57,57.14a1.72,1.72,0,1,1-1.77,1.71,1.74,1.74,0,0,1,1.77-1.71m0-.16a1.87,1.87,0,1,0,1.93,1.87A1.91,1.91,0,0,0,395.57,57Z"/><path d="M401.47,53a11,11,0,0,0-11.71,0l-.08-.13a11.15,11.15,0,0,1,11.87,0Z"/><rect x="389.5" y="51.06" width="0.15" height="1.8" transform="translate(15.1 171.27) rotate(-25.27)"/><rect x="390.55" y="50.6" width="0.15" height="1.73" transform="translate(15.39 171.61) rotate(-25.26)"/><rect x="391.53" y="50.18" width="0.15" height="1.75" transform="translate(4.13 127.37) rotate(-18.57)"/><rect x="392.55" y="49.89" width="0.15" height="1.72" transform="translate(0.59 105.88) rotate(-15.37)"/><rect x="393.52" y="49.61" width="0.15" height="1.78" transform="translate(-3.19 55.62) rotate(-8.05)"/><rect x="394.63" y="49.62" width="0.15" height="1.62" transform="translate(-0.87 7.38) rotate(-1.07)"/><rect x="395.13" y="50.31" width="1.53" height="0.15" transform="translate(333.93 444.64) rotate(-88.32)"/><rect x="396.18" y="50.42" width="1.77" height="0.15" transform="translate(311.13 441.42) rotate(-84.85)"/><rect x="397.29" y="50.62" width="1.57" height="0.15" transform="translate(279.7 434.13) rotate(-80.1)"/><rect x="398.17" y="50.88" width="1.5" height="0.15" transform="matrix(0.29, -0.96, 0.96, 0.29, 235.48, 418.4)"/><rect x="399.16" y="51.25" width="1.43" height="0.15" transform="translate(170.75 383.05) rotate(-62.68)"/><rect x="400.04" y="51.61" width="1.52" height="0.15" transform="translate(182.08 391.5) rotate(-64.58)"/><rect x="400.78" y="51.99" width="1.46" height="0.15" transform="translate(146.39 366.45) rotate(-58.33)"/><ellipse class="cls-3" cx="433.3" cy="59.69" rx="6.11" ry="5.92"/><path d="M433.3,53.86a5.84,5.84,0,1,1-6,5.83,5.93,5.93,0,0,1,6-5.83m0-.16a6,6,0,1,0,6.19,6A6.09,6.09,0,0,0,433.3,53.7Z"/><ellipse cx="433.22" cy="59.62" rx="1.85" ry="1.79"/><path d="M433.22,57.9a1.72,1.72,0,1,1-1.77,1.72,1.75,1.75,0,0,1,1.77-1.72m0-.15a1.87,1.87,0,1,0,1.93,1.87,1.9,1.9,0,0,0-1.93-1.87Z"/><path d="M439.12,53.74a11,11,0,0,0-11.71,0l-.08-.13a11.15,11.15,0,0,1,11.87,0Z"/><rect x="427.15" y="51.82" width="0.15" height="1.8" transform="translate(18.37 187.42) rotate(-25.27)"/><rect x="428.2" y="51.37" width="0.15" height="1.73" transform="translate(18.66 187.75) rotate(-25.26)"/><rect x="429.18" y="50.95" width="0.15" height="1.75" transform="translate(5.85 139.4) rotate(-18.57)"/><rect x="430.2" y="50.66" width="0.15" height="1.72" transform="translate(1.74 115.89) rotate(-15.37)"/><rect x="431.17" y="50.38" width="0.15" height="1.78" transform="matrix(0.99, -0.14, 0.14, 0.99, -2.93, 60.9)"/><rect x="432.29" y="50.38" width="0.15" height="1.62" transform="translate(-0.88 8.08) rotate(-1.07)"/><rect x="432.79" y="51.07" width="1.53" height="0.15" transform="translate(369.71 483.02) rotate(-88.32)"/><rect x="433.83" y="51.18" width="1.77" height="0.15" transform="translate(344.64 479.62) rotate(-84.85)"/><rect x="434.94" y="51.38" width="1.57" height="0.15" transform="matrix(0.17, -0.99, 0.99, 0.17, 310.12, 471.85)"/><rect x="435.82" y="51.64" width="1.5" height="0.15" transform="matrix(0.29, -0.96, 0.96, 0.29, 261.58, 455.01)"/><rect x="436.81" y="52.02" width="1.43" height="0.15" transform="translate(190.44 416.91) rotate(-62.68)"/><rect x="437.7" y="52.37" width="1.52" height="0.15" transform="translate(202.88 425.94) rotate(-64.58)"/><rect x="438.43" y="52.76" width="1.46" height="0.15" transform="translate(163.62 398.86) rotate(-58.33)"/><path class="cls-9" d="M436.57,48.83a20.83,20.83,0,0,1,5.65,16.32c2-6.19,1.84-12.39-.77-16.17Z"/><path class="cls-9" d="M439.33,48.83a14.27,14.27,0,0,1,4.42,11.73c1.58-4.45,1.44-8.91-.6-11.63Z"/><path class="cls-9" d="M434.28,48.83c4.09,2.8,6.26,7.12,5.77,11.58,2.07-4.39,1.89-8.8-.78-11.48Z"/><path class="cls-9" d="M390.49,48.53a20.86,20.86,0,0,0-5.65,16.32c-2-6.2-1.83-12.4.77-16.18Z"/><path class="cls-9" d="M387.73,48.53a14.25,14.25,0,0,0-4.42,11.72c-1.58-4.44-1.44-8.91.6-11.63Z"/><path class="cls-9" d="M392.78,48.53c-4.09,2.8-6.26,7.12-5.77,11.57-2.07-4.39-1.88-8.79.78-11.48Z"/><path class="cls-4" d="M385.71,43.17a50.08,50.08,0,0,1,23.25-13,22.67,22.67,0,0,1,12.36.23c8.08,2.51,15.07,7.48,21.54,13.62Z"/><path class="cls-4" d="M382.76,49.59a499.06,499.06,0,0,1,61.18-.25c.52-2.34.65-4.5-.15-6.28-21.56-1.3-42.1-1.6-61.17-.05A11.92,11.92,0,0,0,382.76,49.59Z"/><path class="cls-4" d="M401.08,41.91c2.66-3.69,6.8-7.33,11.57-11.42.13-.11,1.05-1,.89-.92-9.57,4.1-18.25,8.69-23.62,12.79"/><path d="M390,42.42l-.09-.12c5.16-3.94,13.56-8.49,23.64-12.8a.09.09,0,0,1,.11,0c.09.14-.91,1-.92,1-4.94,4.23-8.92,7.75-11.56,11.41l-.12-.09c2.64-3.67,6.64-7.2,11.58-11.44.1-.08.47-.44.7-.68C403.35,34,395.07,38.52,390,42.42Z"/><path class="cls-4" d="M426,41.76c-2.69-3.73-6.86-7.39-11.68-11.5-.11-.1-.72-.74-.59-.68,9.64,4.11,18,8.52,23.43,12.63"/><path d="M437.08,42.26C432,38.39,424,34.06,413.9,29.74l.44.46c5,4.28,9,7.85,11.69,11.52l-.12.09c-2.64-3.66-6.67-7.22-11.67-11.5,0,0-.7-.65-.62-.78a.08.08,0,0,1,.11,0c10.22,4.37,18.33,8.74,23.44,12.65Z"/><rect x="387.09" y="42.68" width="0.15" height="6.61" transform="translate(-1.44 14.42) rotate(-2.13)"/><rect x="393.24" y="42.38" width="0.15" height="6.61" transform="translate(-1.43 14.65) rotate(-2.13)"/><rect x="399.38" y="42.07" width="0.15" height="6.61" transform="translate(-1.41 14.88) rotate(-2.13)"/><rect x="405.36" y="42.07" width="0.15" height="6.61" transform="matrix(1, -0.04, 0.04, 1, -1.41, 15.1)"/><rect x="412.01" y="41.92" width="0.15" height="6.61" transform="translate(-1.4 15.35) rotate(-2.13)"/><rect x="418.32" y="42.07" width="0.15" height="6.61" transform="translate(-1.4 15.58) rotate(-2.13)"/><rect x="424.42" y="41.94" width="0.15" height="6.56" transform="translate(-1.47 17) rotate(-2.29)"/><rect x="430.61" y="42.35" width="0.15" height="6.34" transform="matrix(1, -0.04, 0.04, 1, -1.44, 16.72)"/><rect x="436.1" y="42.66" width="0.15" height="6.34" transform="translate(-1.45 16.93) rotate(-2.22)"/><line class="cls-6" x1="440.95" y1="49.14" x2="440.7" y2="42.81"/><rect x="440.75" y="42.81" width="0.15" height="6.34" transform="translate(-1.45 17.11) rotate(-2.22)"/><line class="cls-6" x1="414.29" y1="41.92" x2="413.62" y2="29.49"/><rect x="413.88" y="29.48" width="0.15" height="12.45" transform="translate(-1.32 22.15) rotate(-3.06)"/><path class="cls-4" d="M386.13,42.75a449.07,449.07,0,0,1,55.56.19"/><path d="M441.68,43a449.68,449.68,0,0,0-55.54-.2v-.15a452,452,0,0,1,55.56.19Z"/><line class="cls-6" x1="399.23" y1="71.22" x2="395.32" y2="75.99"/><rect x="394.19" y="73.53" width="6.16" height="0.15" transform="translate(88.32 333.98) rotate(-50.62)"/><path class="cls-7" d="M397.33,73.53c12.21,3.59,24,4,35.29.37C421.1,77.44,409.32,77.17,397.33,73.53Z"/><path d="M416.23,76.49h-.91c-.76,0-1.52,0-2.29-.08a65.19,65.19,0,0,1-15.72-2.8l.05-.16A69,69,0,0,0,413,76.25a56.91,56.91,0,0,0,19.58-2.42l0,.15A53.74,53.74,0,0,1,416.23,76.49Z"/><circle class="cls-4" cx="413.17" cy="61.19" r="47.93"/><line class="cls-6" x1="397.56" y1="71.27" x2="393.67" y2="76.01"/><rect x="392.54" y="73.57" width="6.14" height="0.15" transform="matrix(0.63, -0.77, 0.77, 0.63, 87.69, 332.71)"/><path class="cls-7" d="M395.68,73.56c12.15,3.58,23.89,4,35.13.38C419.34,77.46,407.61,77.2,395.68,73.56Z"/><path d="M414.49,76.52h-.91c-.75,0-1.51,0-2.27-.08a65.11,65.11,0,0,1-15.66-2.8l.05-.15a69,69,0,0,0,15.59,2.79,56.46,56.46,0,0,0,19.5-2.42l0,.16A54,54,0,0,1,414.49,76.52Z"/><ellipse cx="414.69" cy="63.29" rx="34.37" ry="27.59"/><ellipse cx="397.2" cy="59.48" rx="6.08" ry="5.89"/><path d="M397.2,53.67a5.82,5.82,0,1,1-6,5.81,5.92,5.92,0,0,1,6-5.81m0-.15a6,6,0,1,0,6.16,6A6.06,6.06,0,0,0,397.2,53.52Z"/><ellipse cx="397.12" cy="59.41" rx="1.84" ry="1.78"/><path d="M397.12,57.7a1.71,1.71,0,1,1-1.77,1.71,1.75,1.75,0,0,1,1.77-1.71m0-.15A1.86,1.86,0,1,0,399,59.41a1.88,1.88,0,0,0-1.92-1.86Z"/><path d="M436.38,66.3a5.89,5.89,0,1,1,6.08-5.88A6,6,0,0,1,436.38,66.3Z"/><path d="M436.38,54.6a5.82,5.82,0,1,1-6,5.82,5.92,5.92,0,0,1,6-5.82m0-.15a6,6,0,1,0,6.16,6A6.07,6.07,0,0,0,436.38,54.45Z"/><ellipse cx="436.3" cy="60.34" rx="1.84" ry="1.78"/><path d="M436.3,58.63a1.71,1.71,0,1,1-1.77,1.71,1.74,1.74,0,0,1,1.77-1.71m0-.15a1.86,1.86,0,1,0,1.92,1.86A1.89,1.89,0,0,0,436.3,58.48Z"/><path d="M415.94,68a15.23,15.23,0,0,1-3.3-.36l.07-.3a16.91,16.91,0,0,0,3.69.35,20.54,20.54,0,0,0,3.13-.35l.05.3a16.83,16.83,0,0,1-3.17.36C416.25,68,416.1,68,415.94,68Z"/><path d="M383.22,52.29c0-9.7,14-17.57,31.39-17.57S446,42.59,446,52.29"/><path d="M407.38,47.86c0-3.49,3.24-6.32,7.23-6.32s7.24,2.83,7.24,6.32"/><path d="M422.3,50.93H407.4a2.07,2.07,0,0,1,0-3.07h14.9Z"/><ellipse cx="408.5" cy="49.31" rx="0.37" ry="0.43"/><ellipse cx="414.02" cy="49.31" rx="0.37" ry="0.43"/><ellipse cx="412.38" cy="49.31" rx="0.37" ry="0.43"/><ellipse cx="410.44" cy="49.31" rx="0.37" ry="0.43"/><ellipse cx="419.24" cy="49.31" rx="0.37" ry="0.43"/><ellipse cx="417.6" cy="49.31" rx="0.37" ry="0.43"/><ellipse cx="415.96" cy="49.31" rx="0.37" ry="0.43"/><ellipse cx="421.03" cy="49.31" rx="0.37" ry="0.43"/><ellipse cx="414.99" cy="34.74" rx="2.97" ry="0.76"/><ellipse cx="380.7" cy="59.05" rx="3.12" ry="5.11"/><ellipse cx="448.98" cy="59.51" rx="3.12" ry="5.11"/><path d="M412.78,67.51c-.35-.5-.45-.82-.15-1.22"/><path d="M412.66,67.6c-.37-.53-.51-.93-.15-1.4l.24.18c-.23.31-.2.54.15,1Z"/><path d="M419.46,67.51c.36-.5.46-.82.16-1.22"/><path d="M419.59,67.6l-.25-.18c.35-.5.39-.73.15-1l.24-.18C420.1,66.67,420,67.07,419.59,67.6Z"/><line class="cls-6" x1="401.52" y1="74.32" x2="397.63" y2="79.06"/><rect x="396.51" y="76.62" width="6.14" height="0.15" transform="translate(86.78 336.89) rotate(-50.62)"/><path class="cls-7" d="M399.64,76.61c12.15,3.58,23.89,4,35.14.37C423.3,80.51,411.57,80.24,399.64,76.61Z"/><path d="M418.45,79.57h-.9c-.76,0-1.52,0-2.28-.09a64.53,64.53,0,0,1-15.65-2.79l0-.15a69,69,0,0,0,15.59,2.78,56.21,56.21,0,0,0,19.5-2.41l.05.15A53.66,53.66,0,0,1,418.45,79.57Z"/><ellipse class="cls-7" cx="412.25" cy="60.55" rx="34.37" ry="27.59"/><ellipse class="cls-3" cx="394.76" cy="56.74" rx="6.08" ry="5.89"/><path d="M394.76,50.93a5.81,5.81,0,1,1-6,5.81,5.92,5.92,0,0,1,6-5.81m0-.15a6,6,0,1,0,6.16,6A6.06,6.06,0,0,0,394.76,50.78Z"/><ellipse cx="394.68" cy="56.66" rx="1.84" ry="1.78"/><path d="M394.68,55a1.71,1.71,0,1,1-1.76,1.7,1.71,1.71,0,0,1,1.76-1.7m0-.16a1.87,1.87,0,0,0-1.8,1.92,1.86,1.86,0,0,0,3.72-.06,1.9,1.9,0,0,0-1.92-1.86Z"/><path class="cls-3" d="M433.94,63.56A5.89,5.89,0,1,1,440,57.67,6,6,0,0,1,433.94,63.56Z"/><path d="M433.94,51.86a5.81,5.81,0,1,1-6,5.81,5.92,5.92,0,0,1,6-5.81m0-.16a6,6,0,1,0,6.16,6A6.07,6.07,0,0,0,433.94,51.7Z"/><ellipse cx="433.86" cy="57.59" rx="1.84" ry="1.78"/><path d="M433.86,55.89a1.71,1.71,0,1,1-1.77,1.7,1.73,1.73,0,0,1,1.77-1.7m0-.16a1.87,1.87,0,0,0-1.8,1.92,1.86,1.86,0,0,0,3.72-.06A1.9,1.9,0,0,0,433.86,55.73Z"/><path d="M413.5,65.26a14.14,14.14,0,0,1-3.3-.36l.07-.29A16.9,16.9,0,0,0,414,65a19.35,19.35,0,0,0,3.13-.35l.06.31a17,17,0,0,1-3.18.35Z"/><path class="cls-5" d="M380.78,49.55c0-9.71,14.06-17.57,31.4-17.57s31.39,7.86,31.39,17.57"/><path class="cls-9" d="M404.94,45.11c0-3.48,3.24-6.31,7.24-6.31s7.23,2.83,7.23,6.31"/><path d="M419.86,48.19H405a2.08,2.08,0,0,1,0-3.08h14.9Z"/><ellipse class="cls-5" cx="406.06" cy="46.57" rx="0.37" ry="0.43"/><ellipse class="cls-5" cx="411.58" cy="46.57" rx="0.37" ry="0.43"/><ellipse class="cls-5" cx="409.94" cy="46.57" rx="0.37" ry="0.43"/><ellipse class="cls-5" cx="408" cy="46.57" rx="0.37" ry="0.43"/><ellipse class="cls-5" cx="416.8" cy="46.57" rx="0.37" ry="0.43"/><ellipse class="cls-5" cx="415.16" cy="46.57" rx="0.37" ry="0.43"/><ellipse class="cls-5" cx="413.52" cy="46.57" rx="0.37" ry="0.43"/><ellipse class="cls-5" cx="418.59" cy="46.57" rx="0.37" ry="0.43"/><ellipse cx="412.56" cy="32" rx="2.97" ry="0.76"/><ellipse class="cls-8" cx="378.26" cy="56.31" rx="3.12" ry="5.11"/><ellipse class="cls-8" cx="446.54" cy="56.77" rx="3.12" ry="5.11"/><path class="cls-7" d="M410.35,64.77c-.36-.51-.46-.83-.16-1.22"/><path d="M410.22,64.85c-.37-.52-.51-.92-.15-1.39l.24.18c-.23.31-.2.53.15,1Z"/><path class="cls-7" d="M417,64.77c.35-.51.45-.83.15-1.22"/><path d="M417.15,64.85l-.25-.17c.35-.51.39-.74.15-1l.24-.18C417.66,63.93,417.52,64.33,417.15,64.85Z"/><line class="cls-6" x1="397.86" y1="70.66" x2="393.97" y2="75.4"/><rect x="392.85" y="72.96" width="6.14" height="0.15" transform="matrix(0.63, -0.77, 0.77, 0.63, 88.27, 332.72)"/><path class="cls-7" d="M396,73c12.15,3.58,23.89,4,35.14.38C419.64,76.85,407.92,76.59,396,73Z"/><path d="M414.79,75.91h-.9c-.76,0-1.52,0-2.28-.08A65,65,0,0,1,396,73l0-.15a69.07,69.07,0,0,0,15.6,2.79,56.46,56.46,0,0,0,19.5-2.42l0,.16A54,54,0,0,1,414.79,75.91Z"/></g></svg>
