<svg id="Layer_1" data-name="Layer 1" xmlns="http://www.w3.org/2000/svg" width="100" height="766" viewBox="0 0 100 766"><defs><style>.cls-1{fill:#fff;}.cls-2{fill:#c1272d;}.cls-3{fill:#ff1104;}.cls-4{fill:#fcfcfc;}.cls-5{fill:#662c2c;}</style></defs><title>Points 2</title><path class="cls-1" d="M83,8Q50.1-5.92,17.25,7.88C7.11,12.15,1,19.71,1,27.8V738.2c0,8.09,6.11,15.65,16.25,19.92Q50.1,771.92,83,758c10-4.23,16-11.68,16-19.67V27.63C99,19.65,93,12.2,83,8Z"/><path class="cls-2" d="M50,766A85,85,0,0,1,16.87,759C6.46,754.66,0,746.68,0,738.2V27.8C0,19.32,6.46,11.34,16.87,7c22.05-9.27,44.42-9.24,66.47.09C93.77,11.46,100,19.16,100,27.63V738.37c0,8.47-6.23,16.17-16.66,20.58A85,85,0,0,1,50,766ZM50,2A82.89,82.89,0,0,0,17.64,8.81C8,12.86,2,20.14,2,27.8V738.2c0,7.66,6,14.94,15.64,19,21.54,9.06,43.38,9,64.92-.08C92.23,753,98,746,98,738.37V27.63C98,20,92.23,13,82.56,8.89h0A83,83,0,0,0,50,2Z"/><rect class="cls-3" x="0.99" y="622.59" width="98.02" height="66.57"/><path class="cls-3" d="M99,683.91H1v52.48c0,8.53,6.11,16.51,16.26,21Q50.1,772,83,757.31C93,752.85,99,745,99,736.56Z"/><rect class="cls-2" x="1" y="136.84" width="98" height="1"/><path class="cls-4" d="M31.38,596.31a10.47,10.47,0,0,0-4.58,8.75c0,5.61,3.54,7.38,6.26,7.38a4.48,4.48,0,0,0,3.61-1.69c1.21-1.28,1.85-3,3-6.42,1.45-4.17,2.89-8.1,5.38-10.83,2.17-2.41,5.78-4.57,11.24-4.57,10.43,0,17.57,7.54,17.57,18.61,0,9.87-6,15.65-10.11,18.46l-6.5-6.82a12.56,12.56,0,0,0,7.14-11.24c0-4.73-2.89-8.26-7.38-8.26a6.21,6.21,0,0,0-4.82,2.09c-1.84,2-2.89,5.21-3.93,8.26a25.83,25.83,0,0,1-4.65,8.91,12.5,12.5,0,0,1-10,4.25C25.84,623.19,18,617.9,18,606a20.59,20.59,0,0,1,6.26-15.17Z"/><path class="cls-5" d="M63.73,626.65,56.46,619l.62-.3a12,12,0,0,0,6.86-10.79c0-4.57-2.83-7.76-6.88-7.76a5.71,5.71,0,0,0-4.45,1.93c-1.7,1.84-2.71,4.82-3.7,7.7l-.13.38A26,26,0,0,1,44,619.27a13,13,0,0,1-10.33,4.42c-8.07,0-16.22-5.46-16.22-17.67a20.85,20.85,0,0,1,6.41-15.53l.31-.3,8,6.12-.53.4a10.08,10.08,0,0,0-4.38,8.35c0,5.07,3,6.88,5.76,6.88a4,4,0,0,0,3.24-1.52c1.16-1.24,1.8-3,3-6.25,1.53-4.41,3-8.28,5.48-11,1.94-2.16,5.54-4.73,11.6-4.73,10.65,0,18.08,7.86,18.08,19.11a22.67,22.67,0,0,1-10.33,18.87Zm-5.61-7.33,5.74,6c4.44-3.14,9.55-8.73,9.55-17.8,0-10.83-6.86-18.11-17.08-18.11-5.69,0-9,2.39-10.86,4.41-2.36,2.59-3.79,6.36-5.27,10.66-1.21,3.36-1.87,5.21-3.16,6.6a5,5,0,0,1-4,1.84c-3.11,0-6.76-2.07-6.76-7.88a10.93,10.93,0,0,1,4.26-8.75l-6.28-4.8A19.89,19.89,0,0,0,18.48,606c0,11.52,7.64,16.67,15.22,16.67a12.06,12.06,0,0,0,9.58-4.08,25.25,25.25,0,0,0,4.56-8.74l.13-.38c1-3,2.07-6.06,3.91-8.06a6.67,6.67,0,0,1,5.18-2.25c4.64,0,7.88,3.6,7.88,8.76A13,13,0,0,1,58.12,619.32Z"/><path class="cls-4" d="M38,581.23v-9.79h4.49a12.77,12.77,0,0,1-5.62-10.76c0-3,.89-7.54,4.26-10.27,3-2.41,6.42-2.73,9.79-2.73H72.71v9.79H53.77c-1.93,0-5,.08-6.82,1.85a6.24,6.24,0,0,0-1.77,4.57,6.66,6.66,0,0,0,3,6A11.91,11.91,0,0,0,55,571.44H72.71v9.79Z"/><path class="cls-5" d="M73.21,581.73H37.46V570.94H41a13,13,0,0,1-4.68-10.26c0-2.12.44-7.41,4.44-10.66,3.08-2.49,6.68-2.84,10.11-2.84H73.21V558H53.77c-1.53,0-4.69,0-6.48,1.71a5.72,5.72,0,0,0-1.61,4.21,6.18,6.18,0,0,0,2.83,5.61A11.36,11.36,0,0,0,55,570.94H73.21Zm-34.75-1H72.21v-8.79H55a12.42,12.42,0,0,1-7-1.61,7.18,7.18,0,0,1-3.28-6.44A6.66,6.66,0,0,1,46.6,559c2.07-2,5.51-2,7.17-2H72.21v-8.79H50.88c-3.75,0-6.8.45-9.48,2.62-3.77,3.06-4.07,8.34-4.07,9.88A12.21,12.21,0,0,0,42.74,571l1.26.91H38.46Z"/><path class="cls-4" d="M38,511.74V502H72.71v9.79h-4.5a12.45,12.45,0,0,1,5.62,10.67c0,10.67-8.35,17.73-18.54,17.73s-18.46-7-18.46-17.25c0-2.65.49-7.86,5.62-11.15ZM55.29,530a9.63,9.63,0,1,0,0-19.25,9.63,9.63,0,1,0,0,19.25Z"/><path class="cls-5" d="M55.29,540.64c-11,0-19-7.46-19-17.75,0-4.59,1.54-8.17,4.58-10.65H37.46V501.45H73.21v10.79H69.68a12.91,12.91,0,0,1,4.65,10.17C74.33,533,66.32,540.64,55.29,540.64Zm-16.83-29.4h5.7l-1.44.92c-3.57,2.29-5.39,5.9-5.39,10.73,0,9.71,7.56,16.75,18,16.75s18-7.24,18-17.23a11.91,11.91,0,0,0-5.41-10.26l-1.3-.91h5.59v-8.79H38.46Zm16.83,19.29a10.13,10.13,0,1,1,0-20.25,10.13,10.13,0,1,1,0,20.25Zm0-19.25a9.13,9.13,0,1,0,0,18.25,9.13,9.13,0,1,0,0-18.25Z"/><path class="cls-4" d="M14.21,482.85H50.64L38,469.85V457.17l15.25,16.29,19.5-17.57v13L57.86,481.81l1,1H72.71v9.79H14.21Z"/><path class="cls-5" d="M73.21,493.14H13.71V482.35H49.45l-12-12.29V455.91l15.77,16.85,20-18v14.35L58.58,481.85l.46.5H73.21Zm-58.5-1h57.5v-8.79H58.6l-1.46-1.58,15.07-13.11V457l-19,17.15L38.46,458.44v11.21l13.36,13.7H14.71Z"/><path class="cls-4" d="M49.76,452.2V431.34h9V452.2Z"/><path class="cls-5" d="M59.24,452.7h-10V430.84h10Zm-9-1h8V431.84h-8Z"/><path class="cls-4" d="M41.73,390.5a18.71,18.71,0,0,1,27.2,0c2.73,3,4.9,7.46,4.9,14s-2.17,11.07-4.9,14a18.71,18.71,0,0,1-27.2,0c-2.73-3-4.9-7.46-4.9-14S39,393.47,41.73,390.5Zm13.64,4.25a9.79,9.79,0,1,0,9.79,9.79A9.69,9.69,0,0,0,55.37,394.75Z"/><path class="cls-5" d="M55.37,424.94a18.86,18.86,0,0,1-14-6c-3.33-3.63-5-8.47-5-14.38s1.7-10.75,5-14.38a19.22,19.22,0,0,1,27.94,0c3.34,3.63,5,8.47,5,14.38s-1.69,10.75-5,14.38A18.76,18.76,0,0,1,55.37,424.94Zm0-39.8a17.86,17.86,0,0,0-13.27,5.69h0c-3.16,3.45-4.77,8.06-4.77,13.71s1.61,10.26,4.77,13.71a18.23,18.23,0,0,0,26.46,0c3.17-3.45,4.77-8.06,4.77-13.71s-1.6-10.26-4.76-13.71A17.8,17.8,0,0,0,55.37,385.14Zm0,29.69a10.29,10.29,0,1,1,10.29-10.29A10.22,10.22,0,0,1,55.37,414.83Zm0-19.58a9.29,9.29,0,1,0,9.29,9.29A9.23,9.23,0,0,0,55.37,395.25Z"/><path class="cls-4" d="M49.76,377.74V356.88h9v20.86Z"/><path class="cls-5" d="M59.24,378.24h-10V356.38h10Zm-9-1h8V357.38h-8Z"/><path class="cls-4" d="M38,348.21v-9.78h3.93a12.82,12.82,0,0,1-5.06-10.36c0-7.3,4.58-10.11,6.35-11a12.81,12.81,0,0,1-6.35-11.16c0-5.37,2.49-8,4.26-9.38,3-2.25,5.94-2.41,9.79-2.41H72.71v9.79H53.77c-4.1,0-5.94.88-6.82,1.6a4.92,4.92,0,0,0-1.77,4,5.73,5.73,0,0,0,3,5.37c2.09,1.29,4.89,1.37,6.74,1.37H72.71v9.79H53.77c-4.1,0-5.94.88-6.82,1.6a4.92,4.92,0,0,0-1.77,4,5.74,5.74,0,0,0,3,5.38c2.09,1.28,4.89,1.37,6.74,1.37H72.71v9.78Z"/><path class="cls-5" d="M73.21,348.71H37.46V337.93h3.09a13.24,13.24,0,0,1-4.22-9.86c0-6.4,3.4-9.57,5.87-11a13.21,13.21,0,0,1-5.87-11.12c0-4.21,1.5-7.5,4.45-9.78s6.13-2.51,10.1-2.51H73.21v10.79H53.77c-3.06,0-5.31.51-6.51,1.49a4.35,4.35,0,0,0-1.58,3.63,5.23,5.23,0,0,0,2.8,4.94c1.86,1.14,4.32,1.3,6.49,1.3H73.21v10.79H53.77c-3.06,0-5.31.51-6.51,1.49a4.34,4.34,0,0,0-1.58,3.62,5.24,5.24,0,0,0,2.8,4.95c1.86,1.14,4.32,1.3,6.49,1.3H73.21Zm-34.75-1H72.21v-8.78H55c-2.31,0-4.94-.18-7-1.44a6.24,6.24,0,0,1-3.29-5.81,5.36,5.36,0,0,1,2-4.4c1.39-1.13,3.8-1.71,7.14-1.71H72.21v-8.79H55c-2.31,0-4.94-.17-7-1.44a6.23,6.23,0,0,1-3.29-5.8,5.37,5.37,0,0,1,2-4.41c1.39-1.13,3.79-1.71,7.14-1.71H72.21v-8.79H50.88c-3.77,0-6.66.16-9.49,2.31s-4.06,5-4.06,9a12.33,12.33,0,0,0,6.11,10.73l.76.48-.8.4c-2.27,1.13-6.07,4-6.07,10.54a12.35,12.35,0,0,0,4.87,10l1.13.9H38.46Z"/><path class="cls-4" d="M63,250.72c2.56,1.05,10.83,5,10.83,17.09,0,5.62-1.61,9.88-4.9,13.32-3.61,3.86-8.1,5.46-13.56,5.46-6.9,0-11.15-2.81-13.64-5.29-4-4.1-4.9-8.91-4.9-13.08,0-7.07,2.81-11.16,5.7-13.57,4.42-3.69,9.87-4.17,13.64-4.17H57v26a10.25,10.25,0,0,0,5.85-1.68,8.28,8.28,0,0,0,3.3-7,9,9,0,0,0-4.58-8.1Zm-12.28,9a8.34,8.34,0,0,0,0,16.45Z"/><path class="cls-5" d="M55.37,287.09a19,19,0,0,1-14-5.44c-3.4-3.46-5.05-7.86-5.05-13.43,0-6,2-10.7,5.88-14,4.6-3.84,10.17-4.29,14-4.29h1.31v26a9.43,9.43,0,0,0,5.06-1.58,7.74,7.74,0,0,0,3.09-6.58,8.48,8.48,0,0,0-4.33-7.67L61,260l1.6-10,.58.24c4.17,1.69,11.15,6.22,11.15,17.55,0,5.73-1.6,10.07-5,13.67C65.76,285.25,61.2,287.09,55.37,287.09Zm.8-36.11c-3.63,0-9,.42-13.32,4.06-3.66,3-5.52,7.48-5.52,13.18,0,5.3,1.56,9.46,4.76,12.73a18.05,18.05,0,0,0,13.28,5.14c5.54,0,9.86-1.73,13.2-5.3,3.25-3.4,4.76-7.53,4.76-13,0-10.23-6-14.6-9.94-16.38l-1.29,8a9.44,9.44,0,0,1,4.53,8.36,8.74,8.74,0,0,1-3.5,7.39A10.75,10.75,0,0,1,57,277h-.5V251Zm-5,25.77-.59-.1a8.83,8.83,0,0,1,0-17.43l.59-.1Zm-1-16.43a7.84,7.84,0,0,0,0,15.23Z"/><path class="cls-4" d="M46.3,233.15H72.71v9.79H46.3v3.85H38v-3.85H26.08v-9.79H38v-6.74H46.3Z"/><path class="cls-5" d="M46.8,247.29H37.46v-3.85H25.58V232.65H37.46v-6.74H46.8v6.74H73.21v10.79H46.8Zm-8.34-1H45.8v-3.85H72.21v-8.79H45.8v-6.74H38.46v6.74H26.58v8.79H38.46Z"/><path class="cls-4" d="M63,187.17c2.56,1.05,10.83,5,10.83,17.1,0,5.61-1.61,9.87-4.9,13.32-3.61,3.85-8.1,5.45-13.56,5.45-6.9,0-11.15-2.8-13.64-5.29-4-4.1-4.9-8.91-4.9-13.08,0-7.06,2.81-11.16,5.7-13.56,4.42-3.69,9.87-4.18,13.64-4.18H57v26a10.25,10.25,0,0,0,5.85-1.68,8.27,8.27,0,0,0,3.3-7,9,9,0,0,0-4.58-8.11Zm-12.28,9a8.34,8.34,0,0,0,0,16.45Z"/><path class="cls-5" d="M55.37,223.54a19,19,0,0,1-14-5.44c-3.4-3.46-5.05-7.85-5.05-13.43,0-6,2-10.7,5.88-13.95,4.6-3.84,10.17-4.29,14-4.29h1.31v26a9.4,9.4,0,0,0,5.06-1.58,7.74,7.74,0,0,0,3.09-6.57,8.45,8.45,0,0,0-4.33-7.67l-.3-.18,1.6-9.95.58.24c4.17,1.69,11.15,6.22,11.15,17.56,0,5.72-1.6,10.06-5,13.66C65.76,221.71,61.2,223.54,55.37,223.54Zm.8-36.11c-3.63,0-9,.42-13.32,4.06-3.66,3-5.52,7.48-5.52,13.18,0,5.3,1.56,9.47,4.76,12.73a18.05,18.05,0,0,0,13.28,5.14c5.54,0,9.86-1.73,13.2-5.29,3.25-3.41,4.76-7.53,4.76-13,0-10.24-6-14.61-9.94-16.39l-1.29,8a9.44,9.44,0,0,1,4.53,8.37,8.71,8.71,0,0,1-3.5,7.38A10.67,10.67,0,0,1,57,213.43h-.5v-26Zm-5,25.78-.59-.1a8.84,8.84,0,0,1,0-17.44l.59-.1Zm-1-16.44a7.84,7.84,0,0,0,0,15.23Z"/><path class="cls-4" d="M38,179.39V169.6h5.22a11.71,11.71,0,0,1-4.82-4.33,10.66,10.66,0,0,1-1.53-5.78,12.05,12.05,0,0,1,.81-4.17l9.15,1.28a7.34,7.34,0,0,0-1.29,4.58,8,8,0,0,0,2.81,6.5c2.33,1.84,5.3,1.92,7.7,1.92h16.7v9.79Z"/><path class="cls-5" d="M73.21,179.89H37.46V169.11h3.91a11.36,11.36,0,0,1-3.45-3.6,11.07,11.07,0,0,1-1.59-6,12.52,12.52,0,0,1,.84-4.34l.13-.38,10.36,1.45-.46.67a6.87,6.87,0,0,0-1.2,4.29,7.39,7.39,0,0,0,2.62,6.11c2.12,1.67,4.81,1.82,7.39,1.82h17.2Zm-34.75-1H72.21v-8.78H56c-2.75,0-5.64-.16-8-2a8.34,8.34,0,0,1-3-6.89A8.07,8.07,0,0,1,46,157l-8-1.12a11.28,11.28,0,0,0-.64,3.62A10.15,10.15,0,0,0,38.78,165a11.34,11.34,0,0,0,4.62,4.16l1.84,1H38.46Z"/></svg>
