<svg xmlns="http://www.w3.org/2000/svg" width="328.03" height="236.68" viewBox="0 0 328.03 236.68"><defs><style>.cls-1{fill:#152230;}.cls-2{fill:#f2902c;}.cls-3{fill:#fff;}</style></defs><title>privatsnak_logo</title><g id="Startskærm"><path class="cls-1" d="M47.74,116.83c-1.73.59-2.94,1.94-4.34,3-4.94,3.72-9.83,7.51-14.76,11.26-.38.29-.74.87-1.3.64s-.42-1-.42-1.55c0-7.61-.08-15.22,0-22.84,0-1.78-.54-2.13-2.18-2.09-4.84.1-9.68.07-14.51,0A10.08,10.08,0,0,1,.07,94.9C.07,67.1.2,39.3,0,11.5,0,4.4,5,0,11.53,0q153,.17,305.94.08C323.75.08,328,4.34,328,10.63q0,42.09,0,84.18c0,5.28-2.76,8.73-8.34,10.4-1.1,0-2.19.05-3.28.05H64.52a5.55,5.55,0,0,0-3.89,1.23c-2.46,2.08-5.19,3.83-7.66,5.88C51.23,113.84,49,114.81,47.74,116.83Z"/><path class="cls-2" d="M47.74,116.83c1.29-2,3.49-3,5.24-4.46,2.47-2.05,5.2-3.8,7.65-5.87a5.54,5.54,0,0,1,3.9-1.24q35,0,70,0H316.42c1.09,0,2.18,0,3.28-.05.61,1.16,2,1,2.91,1.66a9.9,9.9,0,0,1,4.87,8.83c0,27.88-.1,55.75.08,83.6a10.91,10.91,0,0,1-11.23,11.22q-74.68-.15-149.38-.05c-18,0-36,0-54,0a8,8,0,0,0-5.25,1.83q-12.64,9.8-25.35,19.53c-1.94,1.49-3.92,2.9-5.86,4.37-1.21.92-1.65.6-1.65-.86q0-10.94,0-21.87c0-2.91-.06-3-2.91-3-4.39,0-8.78-.14-13.16,0-6.14.24-11-4.65-11-11.06.11-26.9,0-53.8,0-80.7C47.78,118.12,47.74,117.48,47.74,116.83Z"/><path class="cls-3" d="M56,79.84H41.89V25.41H64.41q9.16,0,14,4.76T83.32,43.6q0,8.65-4.87,13.43t-14,4.76H56Zm0-29.46h4.69q7.8,0,7.79-6.78t-7.79-6.79H56Z"/><path class="cls-3" d="M133.32,79.84H115.71L102.21,58.9V79.84H88.07V25.41h22A21.7,21.7,0,0,1,118,26.74a15,15,0,0,1,8.91,9,18.67,18.67,0,0,1,1.11,6.5q0,6.18-3,10.06a15,15,0,0,1-8.84,5.23Zm-31.11-30.1h2.67A10.3,10.3,0,0,0,111.31,48a6,6,0,0,0,2.25-5,5.92,5.92,0,0,0-2.24-5,10.36,10.36,0,0,0-6.43-1.73h-2.67Z"/><path class="cls-3" d="M151.79,25.41V79.84H137.64V25.41Z"/><path class="cls-3" d="M171.27,25.41,184.4,58.54l13.21-33.13H213L190,79.84H178.77L155.89,25.41Z"/><path class="cls-3" d="M243.78,70.77H223.57l-3.25,9.45h-15.1L225.94,25.8h15.45l20.72,54.42H247ZM240,60l-6.35-18.12L227.32,60Z"/><path class="cls-3" d="M283.05,37.77V80.22H268.9V37.77H257.29v-12h37.39v12Z"/><path class="cls-3" d="M119.46,144.08a17.46,17.46,0,0,0-4.61-2.77,12,12,0,0,0-4.46-.9,7.29,7.29,0,0,0-4.47,1.29,4.06,4.06,0,0,0-1.73,3.38,3.36,3.36,0,0,0,.87,2.38,7.43,7.43,0,0,0,2.27,1.62,18.49,18.49,0,0,0,3.16,1.19c1.18.33,2.34.69,3.49,1.08,4.6,1.55,8,3.6,10.11,6.15s3.2,5.91,3.2,10.05a19.53,19.53,0,0,1-1.4,7.55,15.78,15.78,0,0,1-4.1,5.81,19,19,0,0,1-6.63,3.74,27.69,27.69,0,0,1-8.9,1.34,32.66,32.66,0,0,1-19.08-6.13l6-11.37a24.38,24.38,0,0,0,6.26,4.18,15.15,15.15,0,0,0,6.15,1.37,7.27,7.27,0,0,0,5.14-1.59,4.8,4.8,0,0,0,1.69-3.6,4.85,4.85,0,0,0-.43-2.12,4.57,4.57,0,0,0-1.44-1.65,11.67,11.67,0,0,0-2.63-1.41c-1.08-.43-2.38-.91-3.92-1.44-1.83-.57-3.61-1.21-5.36-1.9A16.8,16.8,0,0,1,94,157.55a12.9,12.9,0,0,1-3.3-4.37,15.69,15.69,0,0,1-1.26-6.66,19.39,19.39,0,0,1,1.33-7.3,16.27,16.27,0,0,1,3.75-5.61,16.49,16.49,0,0,1,5.9-3.64,22.59,22.59,0,0,1,7.81-1.3,34.07,34.07,0,0,1,8.41,1.12,37.79,37.79,0,0,1,8.42,3.27Z"/><path class="cls-3" d="M132.63,184.46V130.19h14.11l26,33.18V130.19h14v54.27h-14l-26.06-33.18v33.18Z"/><path class="cls-3" d="M228.08,175H207.92l-3.24,9.43h-15l20.66-54.27h15.4l20.64,54.27h-15Zm-3.75-10.72L218,146.24l-6.34,18.07Z"/><path class="cls-3" d="M263.13,152.57l17.21-22.38h17.42l-21.53,25.69,23.54,28.58H281.49l-18.36-23.54v23.54H249V130.19h14.11Z"/></g></svg>
