<svg xmlns="http://www.w3.org/2000/svg" width="524.25" height="122.5" viewBox="0 0 524.25 122.5"><defs><style>.cls-1{fill:#2a303b;}.cls-2{fill:#fd9128;}.cls-3{fill:#fff;}</style></defs><title>settings_button</title><g id="Startskærm"><rect class="cls-1" x="0.35" y="1.58" width="524.25" height="122.5" rx="20" ry="20"/><rect class="cls-2" x="59.04" y="89.03" width="157.48" height="3.96" rx="1.98" ry="1.98"/><path class="cls-3" d="M69.12,36.81v32H62.88v-32Z"/><path class="cls-3" d="M75.55,48h5.86v2.69a7.61,7.61,0,0,1,6.43-3.36A8,8,0,0,1,94,49.91a8.76,8.76,0,0,1,1.63,5.86v13H89.76V57.49c0-1.15-.05-3-1.1-4.08a3.78,3.78,0,0,0-2.74-1,4,4,0,0,0-3.6,1.82,7.22,7.22,0,0,0-.91,4v10.6H75.55Z"/><path class="cls-3" d="M117.12,33.83H123v35h-5.86V66.14a7.45,7.45,0,0,1-6.38,3.36c-6.39,0-10.61-5-10.61-11.09s4.18-11,10.32-11a7.5,7.5,0,0,1,6.67,3.36ZM106.18,58.41a5.76,5.76,0,1,0,5.76-5.86A5.69,5.69,0,0,0,106.18,58.41Z"/><path class="cls-3" d="M139.87,53a4.87,4.87,0,0,0-3.4-1.39c-1.4,0-2.26.67-2.26,1.68,0,.53.24,1.35,1.87,1.87l1.39.43c1.64.53,4.08,1.35,5.28,3A6,6,0,0,1,143.81,62a6.91,6.91,0,0,1-2.3,5.28,8.76,8.76,0,0,1-6.24,2.21A10.53,10.53,0,0,1,127.2,66l3.07-3.55a6.45,6.45,0,0,0,4.61,2.4c1.63,0,2.88-.82,2.88-2.26a2.32,2.32,0,0,0-1.82-2.11L134.59,60a11.25,11.25,0,0,1-4.46-2.5,5.56,5.56,0,0,1-1.59-4,6.18,6.18,0,0,1,2.16-4.71,8.63,8.63,0,0,1,5.43-1.48,10.37,10.37,0,0,1,6.62,2.2Z"/><path class="cls-3" d="M153.79,53V68.82h-5.85V53h-2.31V48h2.31V40.93h5.85V48h4v5Z"/><path class="cls-3" d="M163.83,35.75a3.51,3.51,0,1,1-3.51,3.5A3.52,3.52,0,0,1,163.83,35.75ZM166.75,48V68.82H160.9V48Z"/><path class="cls-3" d="M178.18,33.83v35h-5.86v-35Z"/><path class="cls-3" d="M189.6,33.83v35h-5.86v-35Z"/><path class="cls-3" d="M198.1,35.75a3.51,3.51,0,1,1-3.51,3.5A3.52,3.52,0,0,1,198.1,35.75ZM201,48V68.82h-5.85V48Z"/><path class="cls-3" d="M206.59,48h5.86v2.69a7.61,7.61,0,0,1,6.43-3.36A8,8,0,0,1,225,49.91a8.76,8.76,0,0,1,1.63,5.86v13H220.8V57.49c0-1.15-.05-3-1.1-4.08a3.8,3.8,0,0,0-2.74-1,4,4,0,0,0-3.6,1.82,7.22,7.22,0,0,0-.91,4v10.6h-5.86Z"/><path class="cls-3" d="M248.07,48h5.85V67.86c0,3.17-.29,6.48-2.88,9.08-1.44,1.44-3.94,2.93-8.21,2.93-4,0-6.43-1.21-7.77-2.4a11.49,11.49,0,0,1-3.36-6.2H238a5,5,0,0,0,1.44,2.5,5.19,5.19,0,0,0,3.55,1.1,5,5,0,0,0,3.56-1.29c1.34-1.3,1.49-2.93,1.49-4.61V66a7.31,7.31,0,0,1-6.39,3.46,9.85,9.85,0,0,1-7.2-2.84,11.38,11.38,0,0,1-3.31-8.25,11.59,11.59,0,0,1,3.21-8.26,10.17,10.17,0,0,1,7.16-2.78,7.33,7.33,0,0,1,6.53,3.36Zm-9,6a5.72,5.72,0,0,0-1.87,4.42,5.81,5.81,0,0,0,1.53,4.08A5.7,5.7,0,0,0,243,64.31a5.91,5.91,0,0,0,3.89-1.44,6.11,6.11,0,0,0,1.87-4.46,5.94,5.94,0,0,0-1.68-4.18A5.33,5.33,0,0,0,243,52.55,5.63,5.63,0,0,0,239.09,54Z"/><path class="cls-3" d="M279.89,63c-.63,1.53-3,6.48-10.23,6.48a10.85,10.85,0,0,1-8-2.93,10.46,10.46,0,0,1-3.27-8.11,11,11,0,0,1,3.17-8.16,10.65,10.65,0,0,1,7.82-2.93c4.23,0,6.68,1.68,8.12,3.4A12.48,12.48,0,0,1,280,58.94v.47H264.48a6.16,6.16,0,0,0,1,3.51,5,5,0,0,0,4.17,2,5.36,5.36,0,0,0,4.85-2.74Zm-5.38-7.35a5,5,0,0,0-9.84,0Z"/><path class="cls-3" d="M284.54,48h5.86v3.12A7,7,0,0,1,293,48.28a6.35,6.35,0,0,1,3.46-.91,7.15,7.15,0,0,1,2.49.48l-.76,5.47a4.41,4.41,0,0,0-2.74-.77,4.79,4.79,0,0,0-3.89,1.68,7.17,7.17,0,0,0-1.15,4.61v10h-5.86Z"/></g></svg>
