<svg id="Layer_1" data-name="Layer 1" xmlns="http://www.w3.org/2000/svg" width="1753" height="1051" viewBox="0 0 1753 1051"><defs><style>.cls-1{fill:#e9eced;}</style></defs><title>Artboard 7</title><rect class="cls-1" width="1753" height="1051"/><path d="M616.88,81.18l-8.58,5.09c-1.6-2.79-3.13-4.6-4.58-5.45a12.22,12.22,0,0,0-13.17,1A7.76,7.76,0,0,0,587.64,88q0,5.13,7.63,8.26l7,2.86q8.54,3.45,12.49,8.43a19,19,0,0,1,4,12.19,21.43,21.43,0,0,1-6.45,16,22.16,22.16,0,0,1-16.12,6.35q-9.12,0-15.07-5.4t-7.31-15.21l10.71-2.37c.49,4.12,1.33,7,2.54,8.54q3.27,4.55,9.54,4.54a11.06,11.06,0,0,0,8.22-3.31,11.47,11.47,0,0,0,3.27-8.4,11.75,11.75,0,0,0-.57-3.75,9.47,9.47,0,0,0-1.77-3.13,13.9,13.9,0,0,0-3.11-2.68,30.68,30.68,0,0,0-4.54-2.39l-6.77-2.81Q576.89,99.66,576.88,88a16.9,16.9,0,0,1,6-13.22,21.8,21.8,0,0,1,15-5.35Q610.07,69.38,616.88,81.18Z"/><path d="M670.15,80.68H642V97.53h27.29v9.94H642v23.44h28.11v9.94H631.46V70.74h38.69Z"/><path d="M703.39,80.68v60.17H692.81V80.68H676.69V70.74h42.78v9.94Z"/><path d="M748.26,80.68v60.17H737.68V80.68H721.56V70.74h42.77v9.94Z"/><path d="M784.36,70.74v70.11H773.78V70.74Z"/><path d="M801.2,140.85V66l51.14,53.49V70.74h10.58v74.38L811.79,91.76v49.09Z"/><path d="M916.5,104.34h29v2.32a47.86,47.86,0,0,1-1.86,14,29.62,29.62,0,0,1-6.13,10.54q-9.76,11-24.84,11a34.12,34.12,0,0,1-25.2-10.63A35.24,35.24,0,0,1,877,105.93a36.43,36.43,0,0,1,36.64-36.55,35.54,35.54,0,0,1,15.35,3.36,44.33,44.33,0,0,1,13.4,10.89l-7.54,7.22q-8.62-11.47-21-11.48A25.12,25.12,0,0,0,895.11,87a25.65,25.65,0,0,0-7.54,18.89,24.84,24.84,0,0,0,8.41,19.3q7.85,7,17,7A21.17,21.17,0,0,0,927,127,18.74,18.74,0,0,0,934,114.29H916.5Z"/><path d="M998.42,81.18l-8.58,5.09c-1.61-2.79-3.13-4.6-4.59-5.45a10.67,10.67,0,0,0-5.86-1.45,10.85,10.85,0,0,0-7.31,2.49,7.78,7.78,0,0,0-2.9,6.18q0,5.13,7.63,8.26l7,2.86q8.54,3.45,12.49,8.43a19,19,0,0,1,4,12.19,21.43,21.43,0,0,1-6.45,16,22.16,22.16,0,0,1-16.12,6.35q-9.13,0-15.08-5.4t-7.31-15.21L966,119.14q.72,6.18,2.54,8.54,3.27,4.55,9.54,4.54a11.06,11.06,0,0,0,8.22-3.31,11.47,11.47,0,0,0,3.27-8.4,11.75,11.75,0,0,0-.57-3.75,9.47,9.47,0,0,0-1.77-3.13,14.13,14.13,0,0,0-3.11-2.68,30.68,30.68,0,0,0-4.54-2.39l-6.77-2.81q-14.4-6.09-14.4-17.8a16.93,16.93,0,0,1,6-13.22,21.84,21.84,0,0,1,15-5.35Q991.62,69.38,998.42,81.18Z"/></svg>
