<svg id="Layer_1" data-name="Layer 1" xmlns="http://www.w3.org/2000/svg" width="440" height="170" viewBox="0 0 440 170"><defs><style>.cls-1{fill:#b3b3b3;}.cls-2{fill:#fff;}</style></defs><title>settingsknap</title><rect class="cls-1" x="4.38" y="28.03" width="431.25" height="137.61" rx="59.87" ry="59.87"/><path d="M383.15,166.52H56.85A53.42,53.42,0,0,1,3.5,113.16V80.5A53.41,53.41,0,0,1,56.85,27.15h326.3A53.41,53.41,0,0,1,436.5,80.5v32.66A53.42,53.42,0,0,1,383.15,166.52ZM56.85,28.9A51.66,51.66,0,0,0,5.25,80.5v32.66a51.66,51.66,0,0,0,51.6,51.6h326.3a51.66,51.66,0,0,0,51.6-51.6V80.5a51.66,51.66,0,0,0-51.6-51.6Z"/><rect class="cls-2" x="4.38" y="4.36" width="431.25" height="143.75" rx="59.87" ry="59.87"/><path d="M383.15,149H56.85A53.42,53.42,0,0,1,3.5,95.63V56.84A53.42,53.42,0,0,1,56.85,3.48h326.3A53.42,53.42,0,0,1,436.5,56.84V95.63A53.42,53.42,0,0,1,383.15,149ZM56.85,5.24a51.66,51.66,0,0,0-51.6,51.6V95.63a51.66,51.66,0,0,0,51.6,51.6h326.3a51.66,51.66,0,0,0,51.6-51.6V56.84a51.66,51.66,0,0,0-51.6-51.6Z"/><path d="M53.38,95.87l2.29-15.3H66.56l2.63,10.88h9.44V85.08L61.88,72.66a17,17,0,0,1-5.53-6.46A18.79,18.79,0,0,1,54.57,58a22.77,22.77,0,0,1,.81-6.89,9.65,9.65,0,0,1,2.42-4,16.2,16.2,0,0,1,3.49-2.59A15.45,15.45,0,0,1,65.88,43a73.83,73.83,0,0,1,12.67-.85A64.83,64.83,0,0,1,96.48,45l-2.29,15.3H84.33L82,49.45h-8.5v6.38L90.28,68.24A17.16,17.16,0,0,1,95.8,74.7a19.4,19.4,0,0,1,1.79,8.51,18.26,18.26,0,0,1-1.27,7.52A11.65,11.65,0,0,1,93.13,95a13.77,13.77,0,0,1-5.06,2.38c-3.35.91-8.16,1.36-14.46,1.36A78.31,78.31,0,0,1,53.38,95.87Z"/><path d="M121,92.39H131.6L133.81,83h9.1l2,13.26a77.66,77.66,0,0,1-19.13,2.55c-2.32,0-4.31-.07-6-.21a25.7,25.7,0,0,1-5.53-1.19,12.87,12.87,0,0,1-4.93-2.72,13.83,13.83,0,0,1-3.19-5,20.94,20.94,0,0,1-1.31-7.78v-11q0-10.62,3.4-15.05a20.64,20.64,0,0,1,2.25-2.63,9,9,0,0,1,2.93-1.75c1.25-.48,2.3-.85,3.15-1.1a17.36,17.36,0,0,1,3.66-.55q3.57-.26,7-.26c2.26,0,3.85,0,4.76,0s2.12.13,3.65.3a12.26,12.26,0,0,1,3.45.77,20.87,20.87,0,0,1,2.72,1.53,6.3,6.3,0,0,1,2.29,2.46,17.74,17.74,0,0,1,1.28,3.7,22,22,0,0,1,.55,5.23,22,22,0,0,1-.55,5.23,17.74,17.74,0,0,1-1.28,3.7,6.3,6.3,0,0,1-2.29,2.46A20.87,20.87,0,0,1,139,76.4a12.26,12.26,0,0,1-3.45.77,71.39,71.39,0,0,1-7.73.34H121Zm0-36.56v15.3h11.65V55.83Z"/><path d="M154,50.73h4.25l9.18-10h6.12v10h8.93v4.08h-8.93V93.24h4.85V84.82h4.08V91q0,4.5-3,6.12c-2,1.08-5.06,1.61-9.14,1.61-1.58,0-2.8,0-3.65-.08a13.38,13.38,0,0,1-3.32-.81,6.81,6.81,0,0,1-3.14-2.08q-2.82-3.57-2.81-11.05V54.81H154Z"/><path d="M187.54,50.73h4.25l9.19-10h6.12v10H216v4.08H207.1V93.24h4.84V84.82H216V91q0,4.5-3,6.12c-2,1.08-5.06,1.61-9.14,1.61-1.59,0-2.81,0-3.66-.08a13.48,13.48,0,0,1-3.32-.81,6.86,6.86,0,0,1-3.14-2.08q-2.81-3.57-2.81-11.05V54.81h-3.4Z"/><path d="M244.51,97.49h-23V94.26H225V54h-3.4V50.73h19.56V94.26h3.4Zm-4.17-63.85c1,.79,1.53,2.75,1.53,5.86s-.51,5.08-1.53,5.87-3.4,1.19-7.14,1.19-6.19-.4-7.35-1.19-1.75-2.75-1.75-5.87.58-5.07,1.75-5.86,3.61-1.19,7.35-1.19S239.32,32.84,240.34,33.64Z"/><path d="M303.77,97.49H284.21V57.19h-12.5v40.3H252.16V94.26h3.4V54h-3.4V50.73h11.31l3,6.46h1.11q1.79-4.77,5.4-6.25t11.26-1.49q7.65,0,11.91,2.85t4.25,9.9V94.26h3.4Z"/><path d="M313,111.26a7.76,7.76,0,0,1-3-4,27.6,27.6,0,0,1-.68-7.23q0-5,2.13-7.65a6,6,0,0,1,4.67-2.68h6.38v-1.1c-2.89-.57-4.34-2.35-4.34-5.36V78q-7.39-2.46-7.39-11.65V64.59q0-7.58,2.72-10.63A17.32,17.32,0,0,1,315.33,52a7.07,7.07,0,0,1,2.42-1.23c1.05-.34,1.93-.59,2.64-.76a22.68,22.68,0,0,1,3-.43c1.3-.11,2.32-.17,3.06-.17h3.4c3.91,0,6.78.48,8.63,1.45s2.76,2.77,2.76,5.44h1.11l.85-3.49q.93-3.83,2.29-5.1t5-1.27h3.74V54h-.94c-1.07,0-1.61.8-1.61,2.38v10a14.21,14.21,0,0,1-2.3,8.16c-.9,1.48-2.89,2.72-5.95,3.74q-2.89.95-13.26.94h-3.06v2a8.15,8.15,0,0,0,.59,3.7A2.4,2.4,0,0,0,330,86h12.67a11.8,11.8,0,0,1,7.86,3q3.53,3,3.53,10,0,8.83-4.68,12t-18.36,3.1a96.09,96.09,0,0,1-11.56-.55A13.92,13.92,0,0,1,313,111.26Zm28.91-14.62H321.28v8.93h20.58Zm-4.77-24.4V56.34H325.45v15.9Z"/><path d="M362.35,96.21l2-13.26h9.77l2.3,9.44h9.69V86.27l-15.9-11A16.48,16.48,0,0,1,365,70a13.87,13.87,0,0,1-1.61-7,15.28,15.28,0,0,1,1.14-6.5,10.56,10.56,0,0,1,2.85-3.74,12.3,12.3,0,0,1,4.51-2.13,52.08,52.08,0,0,1,12.62-1.19A60.29,60.29,0,0,1,401.37,52l-2,13.27H390.4l-2-9.44h-8.84V62l15.9,11a16.37,16.37,0,0,1,5.27,5.31,13.9,13.9,0,0,1,1.62,7,15.31,15.31,0,0,1-1.15,6.51,10.66,10.66,0,0,1-2.85,3.74,12.29,12.29,0,0,1-4.51,2.12q-4.5,1.2-13.17,1.19A71.21,71.21,0,0,1,362.35,96.21Z"/></svg>
