<svg id="Layer_1" data-name="Layer 1" xmlns="http://www.w3.org/2000/svg" width="1450" height="760" viewBox="0 0 1450 760"><defs><style>.cls-1{opacity:0.87;}.cls-2{fill:#f5efcb;}.cls-3{fill:#60cfa5;}</style></defs><title>settingsupdated</title><g class="cls-1"><rect class="cls-2" x="4" y="1.5" width="1442" height="757"/><path d="M1445.5,2V758H4.5V2h1441m1-1H3.5V759h1443V1Z"/></g><path d="M550,105.11l2.37-15.8h11.24l2.72,11.24H576V94L558.74,81.15A17.62,17.62,0,0,1,553,74.48,19.41,19.41,0,0,1,551.19,66,23.78,23.78,0,0,1,552,58.9a10.12,10.12,0,0,1,2.51-4.13,16.49,16.49,0,0,1,3.59-2.67,15.88,15.88,0,0,1,4.74-1.58,76.12,76.12,0,0,1,13.08-.88,67,67,0,0,1,18.52,3l-2.37,15.8H581.91l-2.37-11.23h-8.78v6.58l17.29,12.81a17.64,17.64,0,0,1,5.71,6.68A20.09,20.09,0,0,1,595.6,92a18.82,18.82,0,0,1-1.31,7.77,12,12,0,0,1-3.29,4.43,14.06,14.06,0,0,1-5.23,2.46q-5.17,1.41-14.92,1.41A81,81,0,0,1,550,105.11Z"/><path d="M619.3,101.51h11l2.29-9.74H642l2,13.69a80,80,0,0,1-19.75,2.64c-2.4,0-4.45-.08-6.15-.22a26.83,26.83,0,0,1-5.7-1.23,13.14,13.14,0,0,1-5.09-2.81A14.14,14.14,0,0,1,604,98.66a21.38,21.38,0,0,1-1.37-8V79.22q0-11,3.52-15.54A21.47,21.47,0,0,1,608.46,61a9.07,9.07,0,0,1,3-1.8c1.29-.49,2.37-.88,3.25-1.14a18.88,18.88,0,0,1,3.77-.57c2.46-.18,4.86-.26,7.2-.26s4,0,4.91,0,2.2.13,3.78.31a12.64,12.64,0,0,1,3.56.79,21.7,21.7,0,0,1,2.8,1.58,6.5,6.5,0,0,1,2.37,2.54,18.49,18.49,0,0,1,1.32,3.82,25.86,25.86,0,0,1,0,10.8,18.49,18.49,0,0,1-1.32,3.82,6.5,6.5,0,0,1-2.37,2.54A21.7,21.7,0,0,1,638,85a13,13,0,0,1-3.56.79,73.21,73.21,0,0,1-8,.35H619.3Zm0-37.74v15.8h12V63.77Z"/><path d="M652.92,58.5h4.39l9.48-10.35h6.32V58.5h9.21v4.22h-9.21v39.67h5V93.7h4.21v6.41q0,4.65-3.11,6.32t-9.44,1.67c-1.64,0-2.89,0-3.77-.09a13.62,13.62,0,0,1-3.43-.84,7,7,0,0,1-3.24-2.15q-2.91-3.67-2.9-11.41V62.72h-3.51Z"/><path d="M687.15,58.5h4.39L701,48.15h6.32V58.5h9.21v4.22h-9.21v39.67h5V93.7h4.21v6.41c0,3.1-1,5.21-3.11,6.32s-5.22,1.67-9.44,1.67c-1.64,0-2.89,0-3.77-.09a13.46,13.46,0,0,1-3.42-.84,7,7,0,0,1-3.25-2.15q-2.89-3.67-2.9-11.41V62.72h-3.51Z"/><path d="M745.52,106.78h-23.7v-3.34h3.51V61.84h-3.51V58.5H742v44.94h3.51Zm-4.3-65.92q1.57,1.23,1.58,6.06c0,3.22-.53,5.23-1.58,6s-3.51,1.23-7.37,1.23-6.4-.41-7.6-1.23-1.79-2.83-1.79-6,.59-5.24,1.79-6.06,3.74-1.23,7.6-1.23S740.17,40,741.22,40.86Z"/><path d="M806.26,106.78H786.07V65.17h-12.9v41.61H753v-3.34h3.51V61.84H753V58.5h11.68l3.07,6.67h1.14q1.85-4.91,5.57-6.45t11.63-1.53q7.9,0,12.29,2.94t4.39,10.22v33.09h3.51Z"/><path d="M815.3,121a8,8,0,0,1-3.07-4.08,28.28,28.28,0,0,1-.7-7.46q0-5.14,2.19-7.9t4.83-2.77h6.58V97.65c-3-.58-4.48-2.43-4.48-5.53V86.68q-7.64-2.55-7.63-12V72.81q0-7.82,2.81-11a17.53,17.53,0,0,1,1.93-2,7.45,7.45,0,0,1,2.5-1.27c1.08-.35,2-.61,2.72-.79a22.23,22.23,0,0,1,3.12-.44c1.34-.11,2.4-.17,3.16-.17h3.51c4,0,7,.49,8.91,1.49s2.85,2.87,2.85,5.62h1.14l.88-3.6c.64-2.64,1.43-4.39,2.37-5.27s2.66-1.31,5.18-1.31H858v7.81h-1c-1.11,0-1.66.82-1.66,2.45V74.65A14.71,14.71,0,0,1,853,83.08q-1.41,2.28-6.15,3.86-3,1-13.69,1H830V90a8.43,8.43,0,0,0,.61,3.82,2.48,2.48,0,0,0,2.37,1.1H846a12.17,12.17,0,0,1,8.12,3.12q3.65,3.11,3.64,10.31,0,9.12-4.82,12.33t-19,3.21a95.16,95.16,0,0,1-11.94-.58A14.43,14.43,0,0,1,815.3,121Zm29.84-15.1H823.9v9.22h21.24Zm-4.91-25.19V64.3h-12V80.71Z"/><path d="M865.86,105.46,868,91.77h10.1l2.37,9.74h10V95.19L874,83.87a16.83,16.83,0,0,1-5.44-5.49,14.37,14.37,0,0,1-1.67-7.19,15.71,15.71,0,0,1,1.19-6.72A10.91,10.91,0,0,1,871,60.61a12.58,12.58,0,0,1,4.65-2.19,53.53,53.53,0,0,1,13-1.23,62.11,62.11,0,0,1,17.43,2.63L904,73.51h-9.22l-2.1-9.74h-9.13v6.32L900,81.41a16.93,16.93,0,0,1,5.44,5.49,14.41,14.41,0,0,1,1.67,7.2,15.68,15.68,0,0,1-1.18,6.71,10.82,10.82,0,0,1-2.94,3.86,12.87,12.87,0,0,1-4.66,2.2q-4.65,1.23-13.6,1.23A73.37,73.37,0,0,1,865.86,105.46Z"/><path d="M166.58,298.91v-2.54h25.06l3.69,16.55h1.27l4.62-16.55h18v2.54h-3v37.46h3v2.54H200.82l7.44-38.52h-2.75l-10.65,38.52h-8.71l-8.65-38.52h-2.74l5.42,38.52h-13.6v-2.54h2.95V298.91Z"/><path d="M226.55,328.86V304.61h-2.68v-2.55h15.41v31.76h9.84V302.06h12.74v34.31h2.68v2.54h-8.25l-2.67-5.09h-.88q0,3.56-2.58,4.82t-7.8,1.28q-6.9,0-9.25-.87a9,9,0,0,1-4.69-3.15A12.23,12.23,0,0,1,226.55,328.86Z"/><path d="M270.9,337.91l1.61-10.45h7.7l1.81,7.43h7.64v-4.82l-12.53-8.64a12.86,12.86,0,0,1-4.15-4.19,11,11,0,0,1-1.28-5.5,11.86,11.86,0,0,1,.91-5.12,8.38,8.38,0,0,1,2.24-2.95A9.85,9.85,0,0,1,278.4,302a40.75,40.75,0,0,1,10-.94,47.48,47.48,0,0,1,13.3,2L300,313.52h-7l-1.61-7.44h-7v4.83L297,319.55a13,13,0,0,1,4.16,4.19,11.06,11.06,0,0,1,1.27,5.49,11.87,11.87,0,0,1-.91,5.13,8.25,8.25,0,0,1-2.24,2.94,9.62,9.62,0,0,1-3.55,1.68,43.12,43.12,0,0,1-10.39.94A56.18,56.18,0,0,1,270.9,337.91Z"/><path d="M326.84,338.91H308.75v-2.54h2.68V304.61h-2.68v-2.55h15.41v34.31h2.68Zm-3.28-50.31c.81.62,1.21,2.16,1.21,4.62s-.4,4-1.21,4.62-2.68.94-5.63.94-4.88-.31-5.79-.94-1.38-2.16-1.38-4.62.46-4,1.38-4.62,2.84-.94,5.79-.94S322.76,288,323.56,288.6Z"/><path d="M351.6,339.92q-7.28,0-8.74-.47c-1-.31-2-.66-2.92-1a6.2,6.2,0,0,1-2.21-1.37A23,23,0,0,1,336,335a9,9,0,0,1-1.4-2.95,35.77,35.77,0,0,1-1.08-8.91v-5.22a31.21,31.21,0,0,1,.77-7.64A13.2,13.2,0,0,1,336,306a21.71,21.71,0,0,1,1.71-2.08,6.07,6.07,0,0,1,2.21-1.37c1-.38,1.75-.67,2.38-.87a12.07,12.07,0,0,1,2.75-.44c1.83-.14,3.79-.2,5.89-.2a48.26,48.26,0,0,1,13.4,2l-1.6,10.45h-7.71l-1.81-8.11h-7v30.15h7l1.81-8.1h7.71l1.6,10.45A37,37,0,0,1,351.6,339.92Z"/><path d="M165.58,498.44l1.81-12.06H176L178,495h7.44v-5l-13.2-9.78a13.48,13.48,0,0,1-4.36-5.09,14.8,14.8,0,0,1-1.4-6.47,18.22,18.22,0,0,1,.63-5.43,7.7,7.7,0,0,1,1.91-3.14,12.7,12.7,0,0,1,2.75-2,12.21,12.21,0,0,1,3.62-1.2,58,58,0,0,1,10-.67,51.52,51.52,0,0,1,14.14,2.27l-1.81,12.06H190l-1.8-8.57h-6.7v5l13.2,9.79a13.4,13.4,0,0,1,4.35,5.09,15.33,15.33,0,0,1,1.41,6.7,14.38,14.38,0,0,1-1,5.93,9.15,9.15,0,0,1-2.51,3.38,11,11,0,0,1-4,1.88,46.32,46.32,0,0,1-11.39,1.07A61.76,61.76,0,0,1,165.58,498.44Z"/><path d="M241.09,478.67v5.23q0,8.44-2.68,11.86a25.7,25.7,0,0,1-1.81,2.08,6.56,6.56,0,0,1-2.35,1.37c-1,.38-1.87.67-2.54.87a14.27,14.27,0,0,1-2.89.44,65.85,65.85,0,0,1-9.94.16,28.35,28.35,0,0,1-4.66-.6q-.94-.3-2.31-.87a5.89,5.89,0,0,1-2.11-1.37,20.49,20.49,0,0,1-1.64-2.08,8.34,8.34,0,0,1-1.31-2.95,34.33,34.33,0,0,1-1.07-8.91v-5.23c0-5.62.89-9.58,2.68-11.85a23.88,23.88,0,0,1,1.81-2.08,6.29,6.29,0,0,1,2.34-1.37c1-.38,1.88-.67,2.55-.88a14.53,14.53,0,0,1,3-.43c1.87-.14,3.7-.2,5.49-.2s3,0,3.65,0,1.55.08,2.71.17a12.43,12.43,0,0,1,2.68.43c.63.21,1.4.5,2.32.88a5.93,5.93,0,0,1,2.11,1.37,23.76,23.76,0,0,1,1.64,2.08,9.47,9.47,0,0,1,1.37,2.94A36.79,36.79,0,0,1,241.09,478.67Zm-12.73,17V466.88h-9.85v28.81Z"/><path d="M250.46,489.66V465.41h-2.67v-2.55H263.2v31.76H273V462.86h12.73v34.31h2.68v2.54h-8.24l-2.68-5.09h-.87q0,3.56-2.58,4.83c-1.72.84-4.32,1.27-7.8,1.27-4.6,0-7.69-.29-9.25-.87a9,9,0,0,1-4.69-3.15A12.23,12.23,0,0,1,250.46,489.66Z"/><path d="M335.15,499.71H319.74V468h-9.85v31.75H294.48v-2.54h2.68V465.41h-2.68v-2.55h8.91l2.35,5.1h.87a7.92,7.92,0,0,1,4.26-4.93q2.83-1.17,8.87-1.17t9.38,2.24c2.24,1.5,3.35,4.1,3.35,7.81v25.26h2.68Z"/><path d="M379.91,499.71h-8.24L369,494.62h-.87c-1.3,2.59-2.63,4.26-4,5a13.81,13.81,0,0,1-6.33,1.11q-5.83,0-7.24-.47a28.17,28.17,0,0,1-2.68-1,6.05,6.05,0,0,1-2-1.41,15.58,15.58,0,0,1-1.61-2.11,10.39,10.39,0,0,1-1.31-2.94,32.64,32.64,0,0,1-1.07-8.85v-4.22q0-8.44,2.68-11.86a23.88,23.88,0,0,1,1.81-2.08,6.56,6.56,0,0,1,2.35-1.37c1-.38,1.87-.67,2.54-.87a14.4,14.4,0,0,1,2.95-.44c1.87-.13,3.63-.2,5.26-.2s3.29.05,5,.14v-9.58h-2.68v-2.55h15.48v46.3h2.68Zm-25.33-31.82v26.73h9.85V467.89Z"/><path d="M402,499.71v-2.54H405V459.71H402v-2.54h33.9v14.34h-7.84l-2.75-10.32h-6V477h12.8v3.68h-12.8v15h6l2.75-10.31h7.84v14.33Z"/><path d="M441.28,470v-3.21H444v-3.22q0-7.5,2.91-10.58t9.28-3.08a33.2,33.2,0,0,1,6.84.87L461.85,461H451.66v4a1.79,1.79,0,0,0,.34,1.2,2.13,2.13,0,0,0,1.67.54h8.18V470h-5.16v27.21h4.69v2.54h-20.1v-2.54H444V470Z"/><path d="M465.4,470v-3.21h2.68v-3.22q0-7.5,2.91-10.58t9.28-3.08a33.2,33.2,0,0,1,6.84.87L486,461H475.78v4a1.79,1.79,0,0,0,.34,1.2,2.13,2.13,0,0,0,1.67.54H486V470h-5.16v27.21h4.69v2.54H465.4v-2.54h2.68V470Z"/><path d="M503.25,495.69h8.38l1.74-7.43h7.17l1.54,10.45a61.23,61.23,0,0,1-15.08,2c-1.83,0-3.39-.06-4.69-.17a20.38,20.38,0,0,1-4.35-.94,10.13,10.13,0,0,1-3.89-2.14,10.89,10.89,0,0,1-2.51-4,16.47,16.47,0,0,1-1-6.14v-8.71q0-8.37,2.68-11.85a16.77,16.77,0,0,1,1.78-2.08,6.86,6.86,0,0,1,2.31-1.37c1-.38,1.81-.67,2.48-.88a14.27,14.27,0,0,1,2.88-.43c1.87-.14,3.71-.2,5.49-.2s3,0,3.75,0,1.68.1,2.89.24a9.48,9.48,0,0,1,2.71.6,15.76,15.76,0,0,1,2.14,1.21,4.91,4.91,0,0,1,1.81,1.94,14.13,14.13,0,0,1,1,2.91,20,20,0,0,1,0,8.24,14,14,0,0,1-1,2.92,5,5,0,0,1-1.81,1.94,15.76,15.76,0,0,1-2.14,1.21,9.48,9.48,0,0,1-2.71.6,56.72,56.72,0,0,1-6.1.27h-5.43Zm0-28.81v12.06h9.18V466.88Z"/><path d="M548.31,500.72c-4.85,0-7.76-.16-8.75-.47s-1.95-.66-2.91-1a6.2,6.2,0,0,1-2.21-1.37,23,23,0,0,1-1.71-2.08,9.27,9.27,0,0,1-1.41-2.95,36.25,36.25,0,0,1-1.07-8.91v-5.23A31.17,31.17,0,0,1,531,471a13.2,13.2,0,0,1,1.71-4.22,23,23,0,0,1,1.71-2.08,6.07,6.07,0,0,1,2.21-1.37c1-.38,1.75-.67,2.38-.88a12.66,12.66,0,0,1,2.75-.43c1.83-.14,3.79-.2,5.89-.2a48.26,48.26,0,0,1,13.4,2l-1.61,10.45h-7.7L550,466.21h-7v30.15h7l1.81-8.1h7.7l1.61,10.45A37.07,37.07,0,0,1,548.31,500.72Z"/><path d="M566.1,462.86h3.35l7.23-7.9h4.83v7.9h7v3.22h-7v30.28h3.82v-6.63h3.21v4.89q0,3.56-2.38,4.83c-1.58.84-4,1.27-7.2,1.27-1.25,0-2.21,0-2.88-.07a10.12,10.12,0,0,1-2.61-.64,5.28,5.28,0,0,1-2.48-1.64c-1.48-1.87-2.21-4.78-2.21-8.71V466.08H566.1Z"/><path d="M592.9,498.71l1.6-10.45h7.71l1.81,7.43h7.64v-4.82l-12.53-8.64A13,13,0,0,1,595,478a11,11,0,0,1-1.27-5.5,11.86,11.86,0,0,1,.91-5.12,8.38,8.38,0,0,1,2.24-2.95,9.77,9.77,0,0,1,3.55-1.67,40.69,40.69,0,0,1,10-.94,47.48,47.48,0,0,1,13.3,2L622,474.32h-7l-1.61-7.44h-7v4.83L619,480.35a13,13,0,0,1,4.15,4.19,11,11,0,0,1,1.28,5.49,12,12,0,0,1-.91,5.13,8.25,8.25,0,0,1-2.24,2.94,9.7,9.7,0,0,1-3.55,1.68,43.12,43.12,0,0,1-10.39.94A56.12,56.12,0,0,1,592.9,498.71Z"/><rect class="cls-3" x="905" y="283.5" width="292" height="57" rx="11.5" ry="11.5"/><path d="M1185.5,284a11,11,0,0,1,11,11v34a11,11,0,0,1-11,11h-269a11,11,0,0,1-11-11V295a11,11,0,0,1,11-11h269m0-1h-269a12,12,0,0,0-12,12v34a12,12,0,0,0,12,12h269a12,12,0,0,0,12-12V295a12,12,0,0,0-12-12Z"/><rect class="cls-3" x="904" y="448.5" width="292" height="57" rx="11.5" ry="11.5"/><path d="M1184.5,449a11,11,0,0,1,11,11v34a11,11,0,0,1-11,11h-269a11,11,0,0,1-11-11V460a11,11,0,0,1,11-11h269m0-1h-269a12,12,0,0,0-12,12v34a12,12,0,0,0,12,12h269a12,12,0,0,0,12-12V460a12,12,0,0,0-12-12Z"/><path d="M931.46,256.87a15.54,15.54,0,0,1-.91,5.38,11.87,11.87,0,0,1-2.63,4.24,11.6,11.6,0,0,1-4.12,2.71,14.53,14.53,0,0,1-5.38.95,14.11,14.11,0,0,1-5.34-1,11.78,11.78,0,0,1-6.73-6.95,16.56,16.56,0,0,1,0-10.8,11.62,11.62,0,0,1,2.61-4.21,11.38,11.38,0,0,1,4.11-2.69,15.52,15.52,0,0,1,10.72,0,11.59,11.59,0,0,1,6.76,6.94A15.41,15.41,0,0,1,931.46,256.87Zm-6.56,0a9.75,9.75,0,0,0-1.76-6.22,5.71,5.71,0,0,0-4.72-2.23,5.83,5.83,0,0,0-3.38,1,6.33,6.33,0,0,0-2.25,2.93,13.42,13.42,0,0,0,0,9,6.42,6.42,0,0,0,2.23,2.94,5.82,5.82,0,0,0,3.41,1,5.66,5.66,0,0,0,4.72-2.24A9.71,9.71,0,0,0,924.9,256.87Z"/><path d="M936.08,244.17h1.55v-2a12.54,12.54,0,0,1,.78-4.87A4.94,4.94,0,0,1,941,234.7a12.78,12.78,0,0,1,5.08-.82c3.82,0,5.72.93,5.72,2.8a2.2,2.2,0,0,1-.6,1.55,1.84,1.84,0,0,1-1.41.65,9.66,9.66,0,0,1-1.31-.15,11.55,11.55,0,0,0-1.58-.14c-1.18,0-1.94.35-2.27,1a6.94,6.94,0,0,0-.51,3v1.56h1.61c2.48,0,3.73.75,3.73,2.24,0,1.07-.33,1.75-1,2a7.15,7.15,0,0,1-2.73.43h-1.61v17.3a4.22,4.22,0,0,1-.92,2.95,3.06,3.06,0,0,1-2.38,1,3,3,0,0,1-2.31-1,4.27,4.27,0,0,1-.92-2.95v-17.3h-1.79a3.39,3.39,0,0,1-2.25-.66,2.11,2.11,0,0,1-.79-1.71C932.8,245,933.89,244.17,936.08,244.17Z"/><path d="M954.21,244.17h1.56v-2a12.56,12.56,0,0,1,.77-4.87,5,5,0,0,1,2.63-2.63,12.84,12.84,0,0,1,5.09-.82q5.72,0,5.72,2.8a2.2,2.2,0,0,1-.6,1.55,1.87,1.87,0,0,1-1.41.65,9.6,9.6,0,0,1-1.32-.15,11.42,11.42,0,0,0-1.58-.14c-1.18,0-1.94.35-2.27,1a7,7,0,0,0-.5,3v1.56h1.6c2.49,0,3.73.75,3.73,2.24q0,1.6-1,2a7.2,7.2,0,0,1-2.74.43h-1.6v17.3a4.27,4.27,0,0,1-.92,2.95,3.07,3.07,0,0,1-2.38,1,3,3,0,0,1-2.31-1,4.22,4.22,0,0,1-.92-2.95v-17.3H954a3.43,3.43,0,0,1-2.25-.66,2.14,2.14,0,0,1-.79-1.71C950.93,245,952,244.17,954.21,244.17Z"/><path d="M1160.24,256.87a15.54,15.54,0,0,1-.91,5.38,12,12,0,0,1-2.63,4.24,11.69,11.69,0,0,1-4.12,2.71,14.56,14.56,0,0,1-5.38.95,14.11,14.11,0,0,1-5.34-1,11.78,11.78,0,0,1-6.73-6.95,16.56,16.56,0,0,1,0-10.8,11.62,11.62,0,0,1,2.61-4.21,11.38,11.38,0,0,1,4.11-2.69,15.52,15.52,0,0,1,10.72,0,11.59,11.59,0,0,1,6.76,6.94A15.41,15.41,0,0,1,1160.24,256.87Zm-6.56,0a9.82,9.82,0,0,0-1.76-6.22,5.72,5.72,0,0,0-4.72-2.23,5.83,5.83,0,0,0-3.38,1,6.33,6.33,0,0,0-2.25,2.93,12,12,0,0,0-.79,4.52,11.75,11.75,0,0,0,.78,4.47,6.42,6.42,0,0,0,2.23,2.94,5.82,5.82,0,0,0,3.41,1,5.68,5.68,0,0,0,4.72-2.24A9.77,9.77,0,0,0,1153.68,256.87Z"/><path d="M1171.31,247.2V248a11.52,11.52,0,0,1,3.77-3.33,10,10,0,0,1,4.7-1.07,9.49,9.49,0,0,1,4.62,1.12,7.15,7.15,0,0,1,3,3.19,7.67,7.67,0,0,1,.84,2.58,28.29,28.29,0,0,1,.19,3.54v12.16a4.31,4.31,0,0,1-.9,3,3,3,0,0,1-2.33,1,3,3,0,0,1-2.37-1,4.3,4.3,0,0,1-.91-2.94V255.29a10.86,10.86,0,0,0-.9-4.94q-.9-1.71-3.57-1.71a5.34,5.34,0,0,0-3.19,1,6,6,0,0,0-2.1,2.86,20.36,20.36,0,0,0-.48,5.45v8.19a4.29,4.29,0,0,1-.92,3,3.12,3.12,0,0,1-2.38,1,3,3,0,0,1-2.32-1,4.3,4.3,0,0,1-.91-2.94V247.3a4.13,4.13,0,0,1,.81-2.79,2.84,2.84,0,0,1,2.23-.92,3,3,0,0,1,1.55.41,2.87,2.87,0,0,1,1.11,1.22A4.26,4.26,0,0,1,1171.31,247.2Z"/><path d="M931.46,420.87a15.54,15.54,0,0,1-.91,5.38,11.87,11.87,0,0,1-2.63,4.24,11.6,11.6,0,0,1-4.12,2.71,14.53,14.53,0,0,1-5.38.95,14.11,14.11,0,0,1-5.34-1,11.78,11.78,0,0,1-6.73-6.95,16.56,16.56,0,0,1,0-10.8,11.62,11.62,0,0,1,2.61-4.21,11.38,11.38,0,0,1,4.11-2.69,15.52,15.52,0,0,1,10.72,0,11.59,11.59,0,0,1,6.76,6.94A15.41,15.41,0,0,1,931.46,420.87Zm-6.56,0a9.75,9.75,0,0,0-1.76-6.22,5.71,5.71,0,0,0-4.72-2.23,5.83,5.83,0,0,0-3.38,1,6.33,6.33,0,0,0-2.25,2.93,13.42,13.42,0,0,0,0,9,6.42,6.42,0,0,0,2.23,2.94,5.82,5.82,0,0,0,3.41,1,5.66,5.66,0,0,0,4.72-2.24A9.71,9.71,0,0,0,924.9,420.87Z"/><path d="M936.08,408.17h1.55v-2a12.54,12.54,0,0,1,.78-4.87A4.94,4.94,0,0,1,941,398.7a12.78,12.78,0,0,1,5.08-.82c3.82,0,5.72.93,5.72,2.8a2.2,2.2,0,0,1-.6,1.55,1.84,1.84,0,0,1-1.41.65,9.66,9.66,0,0,1-1.31-.15,11.55,11.55,0,0,0-1.58-.14c-1.18,0-1.94.35-2.27,1a6.94,6.94,0,0,0-.51,3v1.56h1.61c2.48,0,3.73.75,3.73,2.24,0,1.07-.33,1.75-1,2a7.15,7.15,0,0,1-2.73.43h-1.61v17.3a4.22,4.22,0,0,1-.92,2.95,3.06,3.06,0,0,1-2.38,1,3,3,0,0,1-2.31-1,4.27,4.27,0,0,1-.92-2.95v-17.3h-1.79a3.39,3.39,0,0,1-2.25-.66,2.11,2.11,0,0,1-.79-1.71C932.8,409,933.89,408.17,936.08,408.17Z"/><path d="M954.21,408.17h1.56v-2a12.56,12.56,0,0,1,.77-4.87,5,5,0,0,1,2.63-2.63,12.84,12.84,0,0,1,5.09-.82q5.72,0,5.72,2.8a2.2,2.2,0,0,1-.6,1.55,1.87,1.87,0,0,1-1.41.65,9.6,9.6,0,0,1-1.32-.15,11.42,11.42,0,0,0-1.58-.14c-1.18,0-1.94.35-2.27,1a7,7,0,0,0-.5,3v1.56h1.6c2.49,0,3.73.75,3.73,2.24q0,1.6-1,2a7.2,7.2,0,0,1-2.74.43h-1.6v17.3a4.27,4.27,0,0,1-.92,2.95,3.07,3.07,0,0,1-2.38,1,3,3,0,0,1-2.31-1,4.22,4.22,0,0,1-.92-2.95v-17.3H954a3.43,3.43,0,0,1-2.25-.66,2.14,2.14,0,0,1-.79-1.71C950.93,409,952,408.17,954.21,408.17Z"/><path d="M1160.24,420.87a15.54,15.54,0,0,1-.91,5.38,12,12,0,0,1-2.63,4.24,11.69,11.69,0,0,1-4.12,2.71,14.56,14.56,0,0,1-5.38.95,14.11,14.11,0,0,1-5.34-1,11.78,11.78,0,0,1-6.73-6.95,16.56,16.56,0,0,1,0-10.8,11.62,11.62,0,0,1,2.61-4.21,11.38,11.38,0,0,1,4.11-2.69,15.52,15.52,0,0,1,10.72,0,11.59,11.59,0,0,1,6.76,6.94A15.41,15.41,0,0,1,1160.24,420.87Zm-6.56,0a9.82,9.82,0,0,0-1.76-6.22,5.72,5.72,0,0,0-4.72-2.23,5.83,5.83,0,0,0-3.38,1,6.33,6.33,0,0,0-2.25,2.93,12,12,0,0,0-.79,4.52,11.75,11.75,0,0,0,.78,4.47,6.42,6.42,0,0,0,2.23,2.94,5.82,5.82,0,0,0,3.41,1,5.68,5.68,0,0,0,4.72-2.24A9.77,9.77,0,0,0,1153.68,420.87Z"/><path d="M1171.31,411.2V412a11.52,11.52,0,0,1,3.77-3.33,10,10,0,0,1,4.7-1.07,9.49,9.49,0,0,1,4.62,1.12,7.15,7.15,0,0,1,3,3.19,7.67,7.67,0,0,1,.84,2.58,28.29,28.29,0,0,1,.19,3.54v12.16a4.31,4.31,0,0,1-.9,3,3,3,0,0,1-2.33,1,3,3,0,0,1-2.37-1,4.3,4.3,0,0,1-.91-2.94V419.29a10.86,10.86,0,0,0-.9-4.94q-.9-1.71-3.57-1.71a5.34,5.34,0,0,0-3.19,1,6,6,0,0,0-2.1,2.86,20.36,20.36,0,0,0-.48,5.45v8.19a4.29,4.29,0,0,1-.92,3,3.12,3.12,0,0,1-2.38,1,3,3,0,0,1-2.32-1,4.3,4.3,0,0,1-.91-2.94V411.3a4.13,4.13,0,0,1,.81-2.79,2.84,2.84,0,0,1,2.23-.92,3,3,0,0,1,1.55.41,2.87,2.87,0,0,1,1.11,1.22A4.26,4.26,0,0,1,1171.31,411.2Z"/></svg>
