<svg xmlns="http://www.w3.org/2000/svg" width="795.83" height="122.5" viewBox="0 0 795.83 122.5"><defs><style>.cls-1{fill:#f2902c;}.cls-2{fill:#fff;}</style></defs><title>skal_vi_snakke</title><g id="Startskærm"><rect class="cls-1" width="795.83" height="122.5" rx="20" ry="20"/><path class="cls-2" d="M151.23,65.26c2.22,2.1,5.58,4.08,9.18,4.08a5.27,5.27,0,0,0,4-1.38,3.58,3.58,0,0,0,1-2.52,3.13,3.13,0,0,0-1.14-2.4c-1-.9-2.58-1.32-5.16-2.1l-2.7-.84a13.07,13.07,0,0,1-5.76-3.24,10.07,10.07,0,0,1-2.28-7.08,13.08,13.08,0,0,1,3.66-9.66c2-2,5.4-3.78,10.26-3.78a28.11,28.11,0,0,1,12.36,3.24l-4.14,8.1c-3.12-2.46-5.46-2.7-6.84-2.7a5,5,0,0,0-3.42,1.2,3,3,0,0,0-1,2.16,2.68,2.68,0,0,0,.54,1.8c.3.36,1,1.08,3.48,1.8l3.18,1c2.52.78,5.16,1.68,7.26,4A9.45,9.45,0,0,1,176.31,64a13.56,13.56,0,0,1-3.78,10.08c-3.42,3.42-7.56,4.08-11.82,4.08a21.39,21.39,0,0,1-7.86-1.32,27.94,27.94,0,0,1-6.06-3.18Z"/><path class="cls-2" d="M193.23,53.74,206,37.24h12.84l-15.9,19,17.33,21.06H206.79L193.23,59.92V77.26H182.85v-40h10.38Z"/><path class="cls-2" d="M249.27,70.54H234.75l-2.7,6.72h-11l15.36-40h11.34l15.06,40h-11.1Zm-2.76-7.92-4.5-13-4.38,13Z"/><path class="cls-2" d="M277.83,37.24v31.2H290.3v8.82H267.45v-40Z"/><path class="cls-2" d="M316.76,37.24l9.6,24.36,9.72-24.36h11.28l-17,40h-8.1l-16.8-40Z"/><path class="cls-2" d="M361.94,37.24v40H351.56v-40Z"/><path class="cls-2" d="M387,65.26c2.22,2.1,5.58,4.08,9.18,4.08a5.27,5.27,0,0,0,4-1.38,3.58,3.58,0,0,0,1-2.52A3.13,3.13,0,0,0,400,63c-1-.9-2.58-1.32-5.16-2.1l-2.7-.84a13.07,13.07,0,0,1-5.76-3.24,10.07,10.07,0,0,1-2.28-7.08,13.08,13.08,0,0,1,3.66-9.66c2-2,5.4-3.78,10.26-3.78a28.11,28.11,0,0,1,12.36,3.24l-4.14,8.1c-3.12-2.46-5.46-2.7-6.84-2.7a5,5,0,0,0-3.42,1.2,3,3,0,0,0-1,2.16,2.68,2.68,0,0,0,.54,1.8c.3.36,1,1.08,3.48,1.8l3.18,1c2.52.78,5.16,1.68,7.26,4A9.45,9.45,0,0,1,412,64a13.56,13.56,0,0,1-3.78,10.08c-3.42,3.42-7.56,4.08-11.82,4.08a21.39,21.39,0,0,1-7.86-1.32,27.94,27.94,0,0,1-6.06-3.18Z"/><path class="cls-2" d="M418.58,77.26v-40H429L448.1,61.72V37.24h10.38v40H448.1L429,52.78V77.26Z"/><path class="cls-2" d="M491.3,70.54H476.78l-2.7,6.72h-11l15.36-40H489.8l15.06,40h-11.1Zm-2.76-7.92-4.5-13-4.38,13Z"/><path class="cls-2" d="M519.86,53.74l12.72-16.5h12.84l-15.9,19,17.34,21.06H533.42L519.86,59.92V77.26H509.48v-40h10.38Z"/><path class="cls-2" d="M561.86,53.74l12.72-16.5h12.84l-15.9,19,17.34,21.06H575.42L561.86,59.92V77.26H551.48v-40h10.38Z"/><path class="cls-2" d="M616.22,46.06H603.86v6.66h11.7v8.82h-11.7v6.9h12.36v8.82H593.48v-40h22.74Z"/><path class="cls-2" d="M629.66,63.4V53.68a7.28,7.28,0,0,0,2,.3,8.23,8.23,0,0,0,5.64-2,4.79,4.79,0,0,0,1.38-3.3,4.09,4.09,0,0,0-1-2.82,3.93,3.93,0,0,0-2.88-1.14,3.42,3.42,0,0,0-2.58,1,4.35,4.35,0,0,0-1.08,3H620.6a12.92,12.92,0,0,1,3.6-8.52,14.42,14.42,0,0,1,10.44-3.9,15,15,0,0,1,10.62,3.9A11.71,11.71,0,0,1,649,48.82a11.58,11.58,0,0,1-2.88,7.56,12.71,12.71,0,0,1-6.72,3.84V63.4Zm.78,12.9a6.09,6.09,0,0,1,0-8.76,6,6,0,0,1,4.32-1.86,6.33,6.33,0,0,1,4.5,1.92,6.23,6.23,0,0,1-.06,8.7,6.14,6.14,0,0,1-4.38,1.86A6.08,6.08,0,0,1,630.44,76.3Z"/></g></svg>
