<svg xmlns="http://www.w3.org/2000/svg" width="1730" height="890" viewBox="0 0 1730 890"><defs><style>.cls-1{fill:#98b5c7;}.cls-2{fill:#42354d;}</style></defs><title>start_background</title><g id="Startskærm"><rect class="cls-1" x="5" y="5" width="1720" height="880" rx="100" ry="100"/><path class="cls-2" d="M1625,890H105A105.12,105.12,0,0,1,0,785V105A105.12,105.12,0,0,1,105,0H1625a105.12,105.12,0,0,1,105,105V785A105.12,105.12,0,0,1,1625,890ZM105,10a95.11,95.11,0,0,0-95,95V785a95.11,95.11,0,0,0,95,95H1625a95.11,95.11,0,0,0,95-95V105a95.11,95.11,0,0,0-95-95Z"/></g></svg>
