<svg xmlns="http://www.w3.org/2000/svg" width="524.25" height="122.5" viewBox="0 0 524.25 122.5"><defs><style>.cls-1{fill:#2a303b;}.cls-2{fill:#fd9128;}.cls-3{fill:#fff;}</style></defs><title>start_button</title><g id="Startskærm"><rect class="cls-1" width="524.25" height="122.5" rx="20" ry="20"/><rect class="cls-2" x="58.69" y="87.45" width="157.48" height="3.96" rx="1.98" ry="1.98"/><path class="cls-3" d="M78.28,42.52a6.25,6.25,0,0,0-5.23-2.74c-3.36,0-4.42,2.12-4.42,3.75a2.69,2.69,0,0,0,1,2.16c.77.72,1.82,1.1,3.84,1.82,2.5.87,4.85,1.73,6.48,3.22a8.69,8.69,0,0,1,2.74,6.72C82.7,63.69,78.18,68,71.56,68a13.18,13.18,0,0,1-11-6L64.6,58a7.5,7.5,0,0,0,6.72,4.27c2.83,0,4.94-1.73,4.94-4.42A3.73,3.73,0,0,0,75,55a14.32,14.32,0,0,0-5-2.35,15.48,15.48,0,0,1-5.33-2.79,7.45,7.45,0,0,1-2.54-6c0-4.7,3.17-9.41,10.27-9.41a12.31,12.31,0,0,1,9.07,3.75Z"/><path class="cls-3" d="M93.16,51.45V67.24H87.3V51.45H85v-5h2.3V39.35h5.86v7.11h4v5Z"/><path class="cls-3" d="M116.2,46.46h5.86V67.24H116.2V64.55a7.44,7.44,0,0,1-6.38,3.36c-6.39,0-10.61-5-10.61-11.08s4.17-11,10.32-11a7.54,7.54,0,0,1,6.67,3.36Zm-11,10.37A5.77,5.77,0,1,0,111,51,5.7,5.7,0,0,0,105.25,56.83Z"/><path class="cls-3" d="M127.62,46.46h5.86v3.12a7,7,0,0,1,2.59-2.88,6.33,6.33,0,0,1,3.46-.92,7.2,7.2,0,0,1,2.49.48l-.77,5.48a4.36,4.36,0,0,0-2.73-.77,4.78,4.78,0,0,0-3.89,1.68,7.17,7.17,0,0,0-1.15,4.61v10h-5.86Z"/><path class="cls-3" d="M152.24,51.45V67.24h-5.85V51.45h-2.31v-5h2.31V39.35h5.85v7.11h4v5Z"/></g></svg>
