<svg id="Layer_1" data-name="Layer 1" xmlns="http://www.w3.org/2000/svg" width="1920" height="1080" viewBox="0 0 1920 1080"><defs><style>.cls-1{fill:#89cce5;}</style></defs><title>Artboard 1</title><rect class="cls-1" x="0.5" y="0.5" width="1919" height="1079"/><path d="M1919,1V1079H1V1H1919m1-1H0V1080H1920V0Z"/><path d="M684.88,75.18l-8.58,5.09c-1.6-2.79-3.13-4.6-4.58-5.45a12.22,12.22,0,0,0-13.17,1A7.76,7.76,0,0,0,655.64,82q0,5.13,7.63,8.26l7,2.86q8.54,3.47,12.49,8.43a19,19,0,0,1,4,12.19,21.43,21.43,0,0,1-6.45,16,22.16,22.16,0,0,1-16.12,6.35q-9.12,0-15.07-5.4t-7.31-15.21l10.71-2.36c.49,4.11,1.33,7,2.54,8.53q3.27,4.54,9.54,4.54a11.06,11.06,0,0,0,8.22-3.31,11.47,11.47,0,0,0,3.27-8.4,11.8,11.8,0,0,0-.57-3.75,9.57,9.57,0,0,0-1.77-3.13,13.9,13.9,0,0,0-3.11-2.68,30.68,30.68,0,0,0-4.54-2.39l-6.77-2.81Q644.89,93.66,644.88,82a16.9,16.9,0,0,1,6-13.22,21.8,21.8,0,0,1,15-5.35Q678.07,63.38,684.88,75.18Z"/><path d="M720.12,74.68v60.17H709.54V74.68H693.42V64.74H736.2v9.94Z"/><path d="M783,117.82H753l-7.81,17h-11.4l34.69-74.52L802,134.85H790.37Zm-4.32-9.94L768.3,84l-10.9,23.84Z"/><path d="M834.47,105l21.7,29.88H843.23l-20-28.7h-1.9v28.7H810.72V64.74h12.39q13.9,0,20.07,5.22A19.17,19.17,0,0,1,850,85.31a19.94,19.94,0,0,1-4.27,12.8A19,19,0,0,1,834.47,105Zm-13.17-8h3.36q15,0,15-11.49,0-10.75-14.62-10.76H821.3Z"/><path d="M885.23,74.68v60.17H874.65V74.68H858.53V64.74h42.78v9.94Z"/><path d="M950.31,75.18l-8.59,5.09c-1.6-2.79-3.13-4.6-4.58-5.45a10.71,10.71,0,0,0-5.86-1.45A10.84,10.84,0,0,0,924,75.86,7.76,7.76,0,0,0,921.06,82q0,5.13,7.63,8.26l7,2.86q8.53,3.47,12.48,8.43a18.94,18.94,0,0,1,4,12.19,21.46,21.46,0,0,1-6.44,16,22.18,22.18,0,0,1-16.13,6.35q-9.12,0-15.07-5.4t-7.31-15.21l10.71-2.36c.49,4.11,1.34,7,2.55,8.53q3.27,4.54,9.53,4.54a11.06,11.06,0,0,0,8.22-3.31,11.47,11.47,0,0,0,3.27-8.4,11.8,11.8,0,0,0-.57-3.75,9.23,9.23,0,0,0-1.77-3.13A13.9,13.9,0,0,0,936,105a30.19,30.19,0,0,0-4.54-2.39l-6.76-2.81Q910.3,93.66,910.3,82a16.9,16.9,0,0,1,6-13.22,21.84,21.84,0,0,1,15-5.35Q943.49,63.38,950.31,75.18Z"/><path d="M975.46,92.71l27.3-28h14.12l-31.7,31.74,31.88,38.37h-14.17l-25.25-31.2-2.18,2.18v29H964.88V64.74h10.58Z"/><path d="M1068.19,118.09H1038.4l-7.67,16.76h-11.58l33.69-70.11h31l4.4,9.94h-27.92l7.4,17h27.15l4.45,9.94h-27.2l10,23.3h28l4.27,9.94h-38.87Zm-4.22-9.94-10-23-10.8,23Z"/><path d="M1147.66,105l21.71,29.88h-12.95l-20-28.7h-1.91v28.7h-10.58V64.74h12.4q13.89,0,20.07,5.22a19.19,19.19,0,0,1,6.81,15.35,19.89,19.89,0,0,1-4.27,12.8A19,19,0,0,1,1147.66,105Zm-13.17-8h3.36q15,0,15-11.49,0-10.75-14.62-10.76h-3.77Z"/><path d="M1177.45,134.85l14.76-75.38L1216.27,114l24.93-54.49,13.26,75.38h-10.85l-6.76-42.32-20.76,45.55-20.16-45.6-7.54,42.37Z"/></svg>
