<svg id="Layer_1" data-name="Layer 1" xmlns="http://www.w3.org/2000/svg" xmlns:xlink="http://www.w3.org/1999/xlink" width="1292.96" height="362.86" viewBox="0 0 1292.96 362.86"><defs><style>.cls-1{fill:none;}.cls-2{fill:#986b3d;}.cls-3{fill:#999;}.cls-4{fill:#e6e6e6;}.cls-5{fill:#666;}.cls-6{fill:#152230;}.cls-7{clip-path:url(#clip-path);}.cls-8{fill:#f2902c;}.cls-9{fill:#fff;}</style><clipPath id="clip-path"><rect class="cls-1" x="823.77" y="97.3" width="52.78" height="52.78" transform="translate(296.3 780.43) rotate(-58.13)"/></clipPath></defs><title>nyt bord</title><path class="cls-2" d="M0,362.86C0,184.43,229.43,36.09,531.74,5.7A1146,1146,0,0,1,646.48,0C1003.52,0,1293,162.46,1293,362.86"/><path class="cls-3" d="M570.53,25a5,5,0,0,0-6.13-3.38L539.78,66.3l6.13,3.37Z"/><path class="cls-4" d="M444.51,58.82q78.44,3.47,161.39-1a5.26,5.26,0,0,1,4.84,7.92c-16.25,27.86-34.86,51.7-56.74,69.95a5.32,5.32,0,0,1-3.31,1.21l-58.72.66a5.28,5.28,0,0,1-3.48-1.25c-20.45-17.52-37.52-39-52.43-63A9.47,9.47,0,0,1,444.51,58.82Z"/><rect class="cls-5" x="812.5" y="69.36" width="70" height="122" rx="12.67" ry="12.67" transform="translate(193.78 -424.53) rotate(31.58)"/><rect class="cls-6" x="814" y="71.86" width="67" height="117" rx="22.07" ry="22.07" transform="translate(193.78 -424.53) rotate(31.58)"/><g class="cls-7"><g class="cls-7"><path class="cls-6" d="M837,114.43a2,2,0,0,0-.73,0l-2.58.24c-.06,0-.15.05-.2,0s0-.15.06-.21c.56-.9,1.12-1.81,1.69-2.7.13-.21.09-.29-.11-.41-.58-.34-1.15-.7-1.72-1.06a1.41,1.41,0,0,1-.44-2c2-3.29,4.11-6.57,6.13-9.88a1.53,1.53,0,0,1,2.21-.51q18.09,11.28,36.21,22.52a1.39,1.39,0,0,1,.47,2l-6.19,10a1.41,1.41,0,0,1-1.75.61c-.14-.07-.27-.15-.4-.23l-21.52-13.38-8.29-5.15a.76.76,0,0,0-.55-.15c-.44.07-.9.08-1.34.14a3,3,0,0,0-.95.14"/><path class="cls-8" d="M837,114.43a3,3,0,0,1,.95-.14c.44-.06.9-.07,1.34-.14a.76.76,0,0,1,.55.15l8.29,5.15,21.52,13.38c.13.08.26.16.4.23,0,.19.15.27.22.42a1.38,1.38,0,0,1-.08,1.4c-2,3.3-4.11,6.59-6.14,9.9a1.51,1.51,0,0,1-2.15.5c-5.89-3.68-11.79-7.33-17.68-11l-6.39-4a1.06,1.06,0,0,0-.75-.17l-4.44.44-1,.09c-.21,0-.24,0-.13-.22l1.6-2.6c.22-.34.22-.35-.12-.56-.52-.32-1-.66-1.56-1a1.49,1.49,0,0,1-.49-2.12c2-3.18,4-6.36,6-9.55l.13-.23"/><path class="cls-9" d="M840.69,110.66l-1.68-1,4-6.44,2.66,1.66a2.63,2.63,0,0,1,1.31,1.59,2.44,2.44,0,0,1-.41,1.95,2.49,2.49,0,0,1-1.56,1.23,2.66,2.66,0,0,1-2-.47l-1-.61Zm2.16-3.48.56.34c.62.38,1.09.31,1.42-.23s.19-1-.42-1.38l-.56-.34Z"/><path class="cls-9" d="M849.84,116.35l-2.09-1.3-.06-3.47-1.54,2.48-1.67-1,4-6.44,2.61,1.62a2.93,2.93,0,0,1,.84.74,2.13,2.13,0,0,1,.39.84,2.17,2.17,0,0,1,0,.88,2.57,2.57,0,0,1-.34.85,2.25,2.25,0,0,1-1.1,1,2.08,2.08,0,0,1-1.43,0Zm-1.47-5.85.31.19a1.4,1.4,0,0,0,.89.27.83.83,0,0,0,.63-.43.79.79,0,0,0,.1-.75,1.43,1.43,0,0,0-.63-.68l-.31-.19Z"/><rect class="cls-9" x="849.39" y="112.98" width="7.59" height="1.97" transform="translate(305.98 778.4) rotate(-58.13)"/><polygon class="cls-9" points="858.33 112.7 857.45 117.58 861.45 114.64 863.27 115.77 856.55 120.52 855.22 119.69 856.51 111.57 858.33 112.7"/><path class="cls-9" d="M863.58,123.4l-2.4-1.49-1.08.88-1.78-1.11,6.46-4.91,1.82,1.13-1.55,8-1.78-1.11Zm.34-1.55.59-2.61-2.09,1.68Z"/><polygon class="cls-9" points="870.65 122.39 867.53 127.41 865.86 126.37 868.98 121.34 867.6 120.49 868.48 119.07 872.91 121.82 872.03 123.24 870.65 122.39"/><path class="cls-9" d="M843.47,122.93a2.8,2.8,0,0,0-.34-.67,1.89,1.89,0,0,0-.47-.43,1.08,1.08,0,0,0-.62-.18.55.55,0,0,0-.45.28.48.48,0,0,0-.08.34,1.38,1.38,0,0,0,.15.36,3.12,3.12,0,0,0,.29.37q.18.19.33.39a3,3,0,0,1,.75,1.47,2.18,2.18,0,0,1-.36,1.43,2.91,2.91,0,0,1-.72.79,2.21,2.21,0,0,1-.91.38,2.73,2.73,0,0,1-1.06,0,3.94,3.94,0,0,1-1.15-.5,4.46,4.46,0,0,1-1.81-2.13l1.55-.9a3.56,3.56,0,0,0,.43,1,2.14,2.14,0,0,0,.63.61,1,1,0,0,0,.72.19.66.66,0,0,0,.47-.3.65.65,0,0,0,.06-.59,2.36,2.36,0,0,0-.21-.36l-.36-.46a7.42,7.42,0,0,1-.49-.62,2.05,2.05,0,0,1-.35-.67,1.73,1.73,0,0,1-.08-.76,2.27,2.27,0,0,1,.34-.88,2.57,2.57,0,0,1,.7-.76,2.09,2.09,0,0,1,.86-.39,2.22,2.22,0,0,1,1,0,3.15,3.15,0,0,1,1,.42,5.22,5.22,0,0,1,.92.75,5.29,5.29,0,0,1,.75,1Z"/><polygon class="cls-9" points="842.05 128.68 846.05 122.26 847.72 123.29 848.36 129.14 850.8 125.21 852.46 126.24 848.47 132.67 846.81 131.63 846.17 125.79 843.73 129.72 842.05 128.68"/><path class="cls-9" d="M854.05,134.59l-2.39-1.49-1.08.88-1.78-1.11,6.44-4.9,1.83,1.13-1.55,8-1.78-1.11Zm.34-1.55.58-2.6-2.08,1.67Z"/><polygon class="cls-9" points="859.85 134.51 863.53 133.12 865.59 134.41 861.15 135.86 861.84 140.98 859.67 139.63 859.23 135.5 857.5 138.28 855.83 137.24 859.83 130.82 861.5 131.86 859.85 134.51"/></g></g></svg>
