<svg id="Layer_1" data-name="Layer 1" xmlns="http://www.w3.org/2000/svg" width="1920" height="1080" viewBox="0 0 1920 1080"><defs><style>.cls-1{fill:#f4912d;}</style></defs><title>Artboard 2</title><rect class="cls-1" width="1920" height="1080"/><path d="M649.78,64.74l19.39,48.59,19.67-48.59h11.58L669,140.12,638.2,64.74Z"/><path d="M719.72,64.74v70.11H709.13V64.74Z"/><path d="M736.56,134.85V60l51.13,53.49V64.74h10.58v74.38L747.14,85.76v49.09Z"/><path d="M815.08,134.85V64.74h14.71q10.58,0,16.71,2.09a31.19,31.19,0,0,1,11.94,6.94q10.86,9.9,10.86,26T858,126a33,33,0,0,1-11.9,7q-5.8,1.95-16.48,1.95Zm10.58-9.94h4.77a39.76,39.76,0,0,0,11.85-1.5,24,24,0,0,0,8.53-5q7.82-7.14,7.81-18.58t-7.71-18.7q-7-6.41-20.48-6.41h-4.77Z"/><path d="M921.29,74.68H893.18V91.53h27.29v9.94H893.18v23.44h28.11v9.94H882.6V64.74h38.69Z"/><path d="M958.94,105l21.7,29.88H967.7l-20-28.7h-1.9v28.7H935.19V64.74h12.39q13.9,0,20.07,5.22a19.17,19.17,0,0,1,6.82,15.35,19.94,19.94,0,0,1-4.27,12.8A19,19,0,0,1,958.94,105Zm-13.17-8h3.36q15,0,15-11.49,0-10.75-14.62-10.76h-3.77Z"/><path d="M1030.82,75.18l-8.58,5.09c-1.61-2.79-3.14-4.6-4.59-5.45a10.69,10.69,0,0,0-5.86-1.45,10.85,10.85,0,0,0-7.31,2.49,7.75,7.75,0,0,0-2.9,6.18q0,5.13,7.63,8.26l7,2.86q8.53,3.47,12.49,8.43a19,19,0,0,1,4,12.19,21.43,21.43,0,0,1-6.45,16,22.16,22.16,0,0,1-16.12,6.35q-9.14,0-15.08-5.4t-7.31-15.21l10.72-2.36c.48,4.11,1.33,7,2.54,8.53q3.27,4.54,9.54,4.54a11.06,11.06,0,0,0,8.22-3.31,11.46,11.46,0,0,0,3.26-8.4,11.8,11.8,0,0,0-.56-3.75,9.57,9.57,0,0,0-1.77-3.13,14.13,14.13,0,0,0-3.11-2.68,30.83,30.83,0,0,0-4.55-2.39l-6.76-2.81q-14.4-6.09-14.4-17.8a16.93,16.93,0,0,1,6-13.22,21.84,21.84,0,0,1,15-5.35Q1024,63.38,1030.82,75.18Z"/><path d="M1056,92.71l27.29-28h14.12L1065.7,96.48l31.87,38.37h-14.16l-25.25-31.2-2.18,2.18v29H1045.4V64.74H1056Z"/><path d="M1148.71,118.09h-29.79l-7.68,16.76h-11.58l33.7-70.11h31l4.41,9.94h-27.93l7.4,17h27.16l4.45,9.94h-27.2l10,23.3h28l4.27,9.94h-38.87Zm-4.23-9.94-10-23-10.81,23Z"/><path d="M1228.17,105l21.71,29.88h-12.94l-20-28.7H1215v28.7h-10.58V64.74h12.4q13.89,0,20.07,5.22a19.19,19.19,0,0,1,6.81,15.35,19.89,19.89,0,0,1-4.27,12.8A19,19,0,0,1,1228.17,105Zm-13.17-8h3.36q15,0,15-11.49,0-10.75-14.62-10.76H1215Z"/><path d="M1258,134.85l14.76-75.38L1296.79,114l24.93-54.49L1335,134.85h-10.86l-6.76-42.32-20.75,45.55-20.17-45.6-7.53,42.37Z"/></svg>
