<svg xmlns="http://www.w3.org/2000/svg" width="524.25" height="122.5" viewBox="0 0 524.25 122.5"><defs><style>.cls-1{fill:#2a303b;}.cls-2{fill:#fd9128;}.cls-3{fill:#fff;}</style></defs><title>visit_button</title><g id="Startskærm"><rect class="cls-1" width="524.25" height="122.5" rx="20" ry="20"/><rect class="cls-2" x="58.69" y="87.45" width="157.48" height="3.96" rx="1.98" ry="1.98"/><path class="cls-3" d="M70.46,37.22c1.77,0,5.23,0,7.82,2a8.34,8.34,0,0,1,3,6.62,6.85,6.85,0,0,1-3.6,6.29,7.5,7.5,0,0,1,4.17,2,8.17,8.17,0,0,1,2.31,6,8.56,8.56,0,0,1-2.74,6.48,11.76,11.76,0,0,1-8.11,2.59H62.53v-32Zm-1.68,13.3h1.77c1,0,4.85-.09,4.85-4.18,0-2.92-2.26-4-4.8-4H68.78Zm0,13.63h2.68a8.5,8.5,0,0,0,4.28-.86,4.13,4.13,0,0,0,2-3.7A3.82,3.82,0,0,0,75.35,56a10.08,10.08,0,0,0-4.27-.63h-2.3Z"/><path class="cls-3" d="M109.43,63.43c-.62,1.54-3,6.48-10.22,6.48a10.9,10.9,0,0,1-8-2.92A10.47,10.47,0,0,1,88,58.87a11.08,11.08,0,0,1,3.17-8.16A10.66,10.66,0,0,1,99,47.78c4.22,0,6.67,1.69,8.11,3.41a12.43,12.43,0,0,1,2.5,8.16v.48H94a6.16,6.16,0,0,0,1,3.51,5,5,0,0,0,4.18,2,5.37,5.37,0,0,0,4.85-2.74Zm-5.37-7.34a5,5,0,0,0-9.85,0Z"/><path class="cls-3" d="M125.41,53.4A4.83,4.83,0,0,0,122,52c-1.4,0-2.26.67-2.26,1.68,0,.53.24,1.34,1.87,1.87L123,56c1.64.53,4.08,1.35,5.28,3a6,6,0,0,1,1.06,3.46,6.91,6.91,0,0,1-2.3,5.28,8.76,8.76,0,0,1-6.24,2.2,10.53,10.53,0,0,1-8.07-3.45l3.07-3.55a6.47,6.47,0,0,0,4.61,2.4c1.63,0,2.88-.82,2.88-2.26a2.31,2.31,0,0,0-1.82-2.11l-1.35-.48a11.25,11.25,0,0,1-4.46-2.5,5.57,5.57,0,0,1-1.58-4,6.18,6.18,0,0,1,2.16-4.71,8.6,8.6,0,0,1,5.42-1.49A10.38,10.38,0,0,1,128.29,50Z"/><path class="cls-3" d="M135,65.79a11.2,11.2,0,0,1-2.36-6.92,11,11,0,0,1,3.51-8.16,12,12,0,0,1,8.4-2.93,12.25,12.25,0,0,1,6.72,1.73l3.26-3.26,2.69,2.45L154,51.86a11.3,11.3,0,0,1,2.4,7,11,11,0,0,1-3.5,8.12,13.75,13.75,0,0,1-15.22,1.15l-3.17,3.17-2.68-2.4Zm12.19-12.2a5.12,5.12,0,0,0-2.5-.62,5.75,5.75,0,0,0-6,6,6.4,6.4,0,0,0,.58,2.59Zm-5.38,10.47a5.69,5.69,0,0,0,2.79.67A5.36,5.36,0,0,0,148.74,63a5.87,5.87,0,0,0,1.63-4.22,4.69,4.69,0,0,0-.67-2.64Z"/><path class="cls-3" d="M177,48.46h5.85V68.28c0,3.17-.29,6.48-2.88,9.07-1.44,1.45-3.93,2.93-8.21,2.93-4,0-6.43-1.2-7.77-2.4a11.52,11.52,0,0,1-3.36-6.19h6.33a5,5,0,0,0,1.44,2.5,5.22,5.22,0,0,0,3.56,1.1,4.9,4.9,0,0,0,3.55-1.3c1.34-1.29,1.49-2.92,1.49-4.6V66.46a7.29,7.29,0,0,1-6.39,3.45,9.84,9.84,0,0,1-7.2-2.83,11.38,11.38,0,0,1-3.31-8.25,11.59,11.59,0,0,1,3.21-8.26,10.18,10.18,0,0,1,7.16-2.79A7.34,7.34,0,0,1,177,51.14Zm-9,5.95a5.7,5.7,0,0,0-1.87,4.42,5.81,5.81,0,0,0,1.53,4.08,5.72,5.72,0,0,0,4.23,1.82,5.91,5.91,0,0,0,3.89-1.44,6.11,6.11,0,0,0,1.87-4.46A5.94,5.94,0,0,0,176,54.65,5.33,5.33,0,0,0,171.88,53,5.65,5.65,0,0,0,168,54.41Z"/><path class="cls-3" d="M209.75,37.22c3.6,0,6.1.39,8.45,2.45a10.22,10.22,0,0,1,3.26,7.73,10.28,10.28,0,0,1-2.64,7.15c-1.77,1.78-4.41,2.84-8.11,2.84h-4V69.24h-6.24v-32ZM206.68,52h2.54a6.37,6.37,0,0,0,4.08-1A4.78,4.78,0,0,0,215,47.26a4.39,4.39,0,0,0-1.78-3.65,7.5,7.5,0,0,0-4.41-1h-2.16Z"/><path class="cls-3" d="M225.2,48.46h5.86v3.12a7,7,0,0,1,2.59-2.88,6.37,6.37,0,0,1,3.46-.92,7,7,0,0,1,2.5.49l-.77,5.47A4.41,4.41,0,0,0,236.1,53a4.8,4.8,0,0,0-3.89,1.68,7.17,7.17,0,0,0-1.15,4.61v10H225.2Z"/><path class="cls-3" d="M245.41,36.17a3.51,3.51,0,1,1-3.5,3.5A3.53,3.53,0,0,1,245.41,36.17Zm2.93,12.29V69.24h-5.86V48.46Z"/><path class="cls-3" d="M257.75,48.46l5.47,11.71,5.47-11.71h6.53L264.76,69.24h-3.08L251.22,48.46Z"/><path class="cls-3" d="M293.56,48.46h5.85V69.24h-5.85V66.55a7.45,7.45,0,0,1-6.39,3.36c-6.38,0-10.61-5-10.61-11.08s4.18-11,10.32-11a7.54,7.54,0,0,1,6.68,3.36ZM282.61,58.83A5.76,5.76,0,1,0,288.37,53,5.69,5.69,0,0,0,282.61,58.83Z"/><path class="cls-3" d="M310.83,53.45V69.24H305V53.45h-2.31v-5H305V41.35h5.85v7.11h4v5Z"/><path class="cls-3" d="M334.55,44.52a6.26,6.26,0,0,0-5.24-2.74c-3.36,0-4.41,2.12-4.41,3.75a2.69,2.69,0,0,0,1,2.16c.76.72,1.82,1.1,3.84,1.82,2.49.87,4.84,1.73,6.48,3.22A8.69,8.69,0,0,1,339,59.45C339,65.69,334.45,70,327.83,70a13.2,13.2,0,0,1-11.05-6L320.87,60a7.49,7.49,0,0,0,6.72,4.27c2.83,0,4.94-1.73,4.94-4.42A3.71,3.71,0,0,0,331.28,57a14.35,14.35,0,0,0-4.94-2.35A15.31,15.31,0,0,1,321,51.86a7.42,7.42,0,0,1-2.54-6c0-4.7,3.16-9.41,10.27-9.41a12.32,12.32,0,0,1,9.07,3.75Z"/><path class="cls-3" d="M343.57,48.46h5.86v2.68a7.64,7.64,0,0,1,6.43-3.36A7.93,7.93,0,0,1,362,50.33a8.74,8.74,0,0,1,1.63,5.85V69.24h-5.85V57.91c0-1.15,0-3-1.11-4.08a3.73,3.73,0,0,0-2.73-1,4,4,0,0,0-3.6,1.82,7.1,7.1,0,0,0-.91,4V69.24h-5.86Z"/><path class="cls-3" d="M385.14,48.46H391V69.24h-5.85V66.55a7.44,7.44,0,0,1-6.39,3.36c-6.38,0-10.6-5-10.6-11.08s4.17-11,10.32-11a7.54,7.54,0,0,1,6.67,3.36ZM374.19,58.83A5.76,5.76,0,1,0,380,53,5.69,5.69,0,0,0,374.19,58.83Z"/><path class="cls-3" d="M402.42,34.25V56l7.77-7.58h7.59L408,57.58l10.52,11.66h-7.78L403,60.36l-.62.58v8.3h-5.86v-35Z"/></g></svg>
