<svg id="Layer_1" data-name="Layer 1" xmlns="http://www.w3.org/2000/svg" width="100" height="110" viewBox="0 -5 100 110">
  <title>mexico_6</title>
  <g>
    <polygon points="64.96 93.46 56.22 98 28.85 51.95 37.6 47.41 64.96 93.46" fill="#723b17" stroke="#000" stroke-miterlimit="10"/>
    <path d="M40.91,26.74c6.95,11.69,5.28,25-3.72,29.62s-21.93-1-28.88-12.71S3,18.7,12,14,34,15.05,40.91,26.74Z" fill="#723b17" stroke="#000" stroke-miterlimit="10"/>
  </g>
  <path d="M30.61,16,4,28.32c.08-6.78,3-11.92,9.59-15C18.42,11.79,23.81,11.93,30.61,16Z" fill="#c1272d"/>
  <path d="M38.67,23.44A34.52,34.52,0,0,0,30.4,15.8L4,28.54a27.09,27.09,0,0,0,1.8,9.93Z" fill="#006837"/>
  <path d="M43.59,32.44a29.78,29.78,0,0,0-5-9L5.85,37.89a28.11,28.11,0,0,0,6.57,11.29Z" fill="#f15a24"/>
  <path d="M43.47,32.1,12.14,48.86a28.85,28.85,0,0,0,10.93,7.73L45.2,40.88A27.32,27.32,0,0,0,43.47,32.1Z" fill="#ff0"/>
  <path d="M41.11,53.33c-6.82,5.76-12.61,5.69-18,3.25L45.19,40.47a19.11,19.11,0,0,1-4,13" fill="#93278f"/>
  <path d="M28.74,17.33c5.08,4.19,6.74,10.2,3.69,13.43S22.79,33.21,17.7,29,11,18.82,14,15.59,23.65,13.14,28.74,17.33Z" fill="#fff" opacity="0.5"/>
  <g>
    <polygon points="35.85 90.06 44.6 94.6 71.97 48.55 63.22 44.02 35.85 90.06" fill="#723b17" stroke="#000" stroke-miterlimit="10"/>
    <path d="M59.9,23.35C53,35,54.62,48.3,63.62,53s21.93-1,28.88-12.71,5.28-25-3.72-29.62S66.85,11.65,59.9,23.35Z" fill="#723b17" stroke="#000" stroke-miterlimit="10"/>
  </g>
  <path d="M70.21,12.65,96.78,24.92c-.08-6.78-3-11.92-9.59-15C82.4,8.39,77,8.53,70.21,12.65Z" fill="#c1272d"/>
  <path d="M62.14,20a34.52,34.52,0,0,1,8.27-7.64L96.78,25.15A27.09,27.09,0,0,1,95,35.08Z" fill="#006837"/>
  <path d="M57.22,29a29.78,29.78,0,0,1,5-9L95,34.49a28.11,28.11,0,0,1-6.57,11.29Z" fill="#f15a24"/>
  <path d="M57.35,28.7,88.68,45.46a28.85,28.85,0,0,1-10.93,7.73L55.62,37.48A27.32,27.32,0,0,1,57.35,28.7Z" fill="#ff0"/>
  <path d="M59.71,49.93c6.82,5.76,12.61,5.69,18,3.25L55.63,37.07a19.11,19.11,0,0,0,4,13" fill="#93278f"/>
  <path d="M72.08,13.93c-5.08,4.19-6.74,10.2-3.69,13.43S78,29.82,83.11,25.63s6.74-10.2,3.69-13.43S77.16,9.74,72.08,13.93Z" fill="#fff" opacity="0.5"/>
</svg>
