<svg id="Layer_1" data-name="Layer 1" xmlns="http://www.w3.org/2000/svg" xmlns:xlink="http://www.w3.org/1999/xlink" width="100" height="110" viewBox="0 -5 100 110">
  <defs>
    <linearGradient id="linear-gradient" x1="29.72" y1="14.6" x2="77.93" y2="98.1" gradientUnits="userSpaceOnUse">
      <stop offset="0" stop-color="#ed1c24"/>
      <stop offset="1" stop-color="#6a0e00" stop-opacity="0.96"/>
    </linearGradient>
    <linearGradient id="New_Gradient_Swatch_1" data-name="New Gradient Swatch 1" x1="51.6" y1="1.26" x2="59.51" y2="14.96" gradientUnits="userSpaceOnUse">
      <stop offset="0" stop-color="#3aff2a"/>
      <stop offset="1" stop-color="#003f05" stop-opacity="0.96"/>
    </linearGradient>
  </defs>
  <title>mexico_3</title>
  <g>
    <path d="M40.73,16.07c-.55-5.81,3.19-10.22,10.15-13.58,4-.78,15.87-.29,16.28,1.81A1.5,1.5,0,0,1,65.37,6C51.9,5,40.61,13.48,49.29,18l.56.28a5.38,5.38,0,0,0,1,.3c8.7,2,15.22,21.63,14.5,30.18S49.42,77.44,55.95,83.48s21.21,13.16,20.3,15.59c-.18.47-43.21-6.47-50-15.59C15.9,69.63,35.65,59.84,32.75,46.26s-8.7-19.12-3.62-25.15A13.41,13.41,0,0,1,40.73,16.07Z" stroke="#000" stroke-miterlimit="10" stroke-width="0.75" fill="url(#linear-gradient)"/>
    <path d="M49,18.41,37.1,16.78C37.47,10.43,41.52,5.18,52.62,2a92.15,92.15,0,0,1,18.3.23c2.48.26,4.58.69,5.62,1.56.22.79.05,1.5-1.25,2-8.27.45-13,.4-19.67,1.93C47.26,10.8,42,14,49,18.41Z" stroke="#000" stroke-miterlimit="10" stroke-width="0.75" fill="url(#New_Gradient_Swatch_1)"/>
  </g>
</svg>
