<svg id="Layer_1" data-name="Layer 1" xmlns="http://www.w3.org/2000/svg" xmlns:xlink="http://www.w3.org/1999/xlink" width="465" height="226" viewBox="0 0 465 226">
  <defs>
    <linearGradient id="linear-gradient" x1="62.33" y1="202.14" x2="86.6" y2="202.14" gradientUnits="userSpaceOnUse">
      <stop offset="0" stop-color="#a2ceed"/>
      <stop offset="0.12" stop-color="#99c7e8"/>
      <stop offset="0.32" stop-color="#7fb5da"/>
      <stop offset="0.57" stop-color="#5698c4"/>
      <stop offset="0.86" stop-color="#1d6fa6"/>
      <stop offset="0.99" stop-color="#005b97"/>
    </linearGradient>
    <linearGradient id="linear-gradient-2" x1="99.75" y1="202.14" x2="124.02" y2="202.14" xlink:href="#linear-gradient"/>
    <linearGradient id="linear-gradient-3" x1="-255.78" y1="-12.36" x2="-199.09" y2="-12.36" gradientTransform="matrix(0.8, -0.6, 0.89, 1.18, 247.35, 11.31)" gradientUnits="userSpaceOnUse">
      <stop offset="0" stop-color="#e2ccaf"/>
      <stop offset="0.28" stop-color="#e2caac"/>
      <stop offset="0.5" stop-color="#e3c3a2"/>
      <stop offset="0.7" stop-color="#e3b892"/>
      <stop offset="0.88" stop-color="#e4a77a"/>
      <stop offset="1" stop-color="#e59a67"/>
    </linearGradient>
    <linearGradient id="linear-gradient-4" x1="58.66" y1="149.46" x2="127.66" y2="149.46" gradientUnits="userSpaceOnUse">
      <stop offset="0" stop-color="#009245"/>
      <stop offset="1" stop-color="#006837" stop-opacity="0.96"/>
    </linearGradient>
    <radialGradient id="radial-gradient" cx="82.11" cy="99.09" r="37.28" gradientTransform="matrix(0.42, 0.9, -0.91, 0.42, 145.54, -53.75)" gradientUnits="userSpaceOnUse">
      <stop offset="0" stop-color="#666"/>
      <stop offset="1"/>
    </radialGradient>
    <linearGradient id="linear-gradient-5" x1="92.16" y1="105.39" x2="92.16" y2="46.63" gradientTransform="matrix(1, 0, 0, 1, 0, 0)" xlink:href="#linear-gradient-3"/>
    <linearGradient id="linear-gradient-6" x1="-285.63" y1="115.01" x2="-208.45" y2="115.01" gradientTransform="matrix(-1, 0, 0, 1, -206.87, 0)" gradientUnits="userSpaceOnUse">
      <stop offset="0" stop-color="#f7931e"/>
      <stop offset="1" stop-color="#e8803a"/>
    </linearGradient>
    <linearGradient id="linear-gradient-7" x1="-748.02" y1="-220.75" x2="-743.2" y2="-220.75" gradientTransform="matrix(-0.71, -0.16, 0.16, 0.91, -477.27, 153.17)" xlink:href="#linear-gradient-6"/>
    <linearGradient id="linear-gradient-8" x1="-324.41" y1="12.55" x2="-320.37" y2="12.55" gradientTransform="matrix(-0.91, -0.05, 0.05, 0.97, -290.48, 47.36)" xlink:href="#linear-gradient-6"/>
    <linearGradient id="linear-gradient-9" x1="-5.06" y1="189.85" x2="-1.94" y2="189.85" gradientTransform="matrix(-1.24, 0.14, -0.14, 1.08, 24.59, -131.11)" xlink:href="#linear-gradient-6"/>
    <linearGradient id="linear-gradient-10" x1="-436.73" y1="-47.61" x2="-432.29" y2="-47.61" gradientTransform="matrix(-0.84, -0.09, 0.09, 0.95, -356.04, 84.5)" xlink:href="#linear-gradient-6"/>
    <linearGradient id="linear-gradient-11" x1="-424.12" y1="-37.76" x2="-420.14" y2="-37.76" gradientTransform="matrix(-0.85, -0.08, 0.08, 0.95, -348.65, 80.31)" xlink:href="#linear-gradient-6"/>
    <linearGradient id="linear-gradient-12" x1="-745.17" y1="-222.48" x2="-740.34" y2="-222.48" gradientTransform="matrix(-0.71, -0.16, 0.16, 0.91, -476.98, 153.01)" xlink:href="#linear-gradient-6"/>
    <linearGradient id="linear-gradient-13" x1="-744.24" y1="-224.51" x2="-739.41" y2="-224.51" gradientTransform="matrix(-0.71, -0.16, 0.16, 0.91, -476.98, 153.01)" xlink:href="#linear-gradient-6"/>
    <linearGradient id="linear-gradient-14" x1="-742.11" y1="-227.44" x2="-737.28" y2="-227.44" gradientTransform="matrix(-0.71, -0.16, 0.16, 0.91, -476.98, 153.01)" xlink:href="#linear-gradient-6"/>
    <linearGradient id="linear-gradient-15" x1="-251.95" y1="118.96" x2="-242.01" y2="118.96" xlink:href="#linear-gradient-6"/>
    <linearGradient id="linear-gradient-16" x1="25.13" y1="146.33" x2="51.43" y2="146.33" gradientTransform="matrix(1, 0, 0, 1, 0, 0)" xlink:href="#linear-gradient-3"/>
    <linearGradient id="linear-gradient-17" x1="-60.54" y1="47.38" x2="-21.86" y2="47.38" gradientTransform="matrix(-0.58, -0.82, -0.82, 0.58, 146.81, 70.15)" gradientUnits="userSpaceOnUse">
      <stop offset="0" stop-color="#f6ff00"/>
      <stop offset="0.29" stop-color="#eddd00" stop-opacity="0.99"/>
      <stop offset="0.92" stop-color="#d78700" stop-opacity="0.96"/>
      <stop offset="1" stop-color="#d47c00" stop-opacity="0.96"/>
    </linearGradient>
    <linearGradient id="linear-gradient-18" x1="119.76" y1="137.33" x2="146.05" y2="137.33" gradientTransform="matrix(1, 0, 0, 1, 0, 0)" xlink:href="#linear-gradient-3"/>
    <linearGradient id="linear-gradient-19" x1="-134.98" y1="204.7" x2="-131.85" y2="204.7" gradientTransform="matrix(-1.24, 0.14, -0.14, 1.08, 24.59, -131.11)" xlink:href="#linear-gradient-6"/>
    <linearGradient id="linear-gradient-20" x1="217.27" y1="202.14" x2="241.65" y2="202.14" xlink:href="#linear-gradient"/>
    <linearGradient id="linear-gradient-21" x1="254.86" y1="202.14" x2="279.23" y2="202.14" xlink:href="#linear-gradient"/>
    <linearGradient id="linear-gradient-22" x1="-132.06" y1="50.64" x2="-75.21" y2="50.64" xlink:href="#linear-gradient-3"/>
    <linearGradient id="linear-gradient-23" x1="213.74" y1="149.46" x2="282.74" y2="149.46" xlink:href="#linear-gradient-4"/>
    <radialGradient id="radial-gradient-2" cx="223.56" cy="162.48" r="37.28" gradientTransform="matrix(0.42, 0.91, -0.91, 0.42, 298.95, -209.34)" xlink:href="#radial-gradient"/>
    <linearGradient id="linear-gradient-24" x1="247.24" y1="105.39" x2="247.24" y2="46.63" gradientTransform="matrix(1, 0, 0, 1, 0, 0)" xlink:href="#linear-gradient-3"/>
    <linearGradient id="linear-gradient-25" x1="-440.64" y1="115.01" x2="-363.12" y2="115.01" xlink:href="#linear-gradient-6"/>
    <linearGradient id="linear-gradient-26" x1="-975.84" y1="-263.14" x2="-970.99" y2="-263.14" gradientTransform="matrix(-0.71, -0.16, 0.16, 0.91, -477.27, 153.17)" xlink:href="#linear-gradient-6"/>
    <linearGradient id="linear-gradient-27" x1="-494.62" y1="2.76" x2="-490.56" y2="2.76" gradientTransform="matrix(-0.91, -0.05, 0.05, 0.97, -290.48, 47.36)" xlink:href="#linear-gradient-6"/>
    <linearGradient id="linear-gradient-28" x1="-492.59" y1="-0.22" x2="-488.53" y2="-0.22" gradientTransform="matrix(-0.91, -0.05, 0.05, 0.97, -290.48, 47.36)" xlink:href="#linear-gradient-6"/>
    <linearGradient id="linear-gradient-29" x1="-622.32" y1="-66.11" x2="-617.87" y2="-66.11" gradientTransform="matrix(-0.84, -0.09, 0.09, 0.95, -356.04, 84.5)" xlink:href="#linear-gradient-6"/>
    <linearGradient id="linear-gradient-30" x1="-607.82" y1="-55.19" x2="-603.83" y2="-55.19" gradientTransform="matrix(-0.85, -0.08, 0.08, 0.95, -348.65, 80.31)" xlink:href="#linear-gradient-6"/>
    <linearGradient id="linear-gradient-31" x1="-972.81" y1="-264.78" x2="-967.96" y2="-264.78" gradientTransform="matrix(-0.71, -0.16, 0.16, 0.91, -476.98, 153.01)" xlink:href="#linear-gradient-6"/>
    <linearGradient id="linear-gradient-32" x1="-970.4" y1="-266.54" x2="-965.55" y2="-266.54" gradientTransform="matrix(-0.71, -0.16, 0.16, 0.91, -476.98, 153.01)" xlink:href="#linear-gradient-6"/>
    <linearGradient id="linear-gradient-33" x1="-967.99" y1="-268.31" x2="-963.14" y2="-268.31" gradientTransform="matrix(-0.71, -0.16, 0.16, 0.91, -476.98, 153.01)" xlink:href="#linear-gradient-6"/>
    <linearGradient id="linear-gradient-34" x1="-406.81" y1="118.96" x2="-396.83" y2="118.96" xlink:href="#linear-gradient-6"/>
    <linearGradient id="linear-gradient-35" x1="179.91" y1="146.33" x2="206.32" y2="146.33" gradientTransform="matrix(1, 0, 0, 1, 0, 0)" xlink:href="#linear-gradient-3"/>
    <linearGradient id="linear-gradient-36" x1="-136.57" y1="-77.96" x2="-97.87" y2="-77.96" xlink:href="#linear-gradient-17"/>
    <linearGradient id="linear-gradient-37" x1="271.96" y1="128.33" x2="298.37" y2="128.33" gradientTransform="matrix(1, 0, 0, 1, 0, 0)" xlink:href="#linear-gradient-3"/>
    <linearGradient id="linear-gradient-38" x1="372.24" y1="202.14" x2="396.68" y2="202.14" xlink:href="#linear-gradient"/>
    <linearGradient id="linear-gradient-39" x1="409.92" y1="202.14" x2="434.37" y2="202.14" xlink:href="#linear-gradient"/>
    <linearGradient id="linear-gradient-40" x1="-8.28" y1="113.65" x2="48.67" y2="113.65" xlink:href="#linear-gradient-3"/>
    <linearGradient id="linear-gradient-41" x1="368.78" y1="149.46" x2="437.78" y2="149.46" xlink:href="#linear-gradient-4"/>
    <radialGradient id="radial-gradient-3" cx="365" cy="225.87" r="37.28" gradientTransform="matrix(0.42, 0.91, -0.91, 0.42, 452.34, -365.56)" xlink:href="#radial-gradient"/>
    <linearGradient id="linear-gradient-42" x1="402.28" y1="105.39" x2="402.28" y2="46.63" gradientTransform="matrix(1, 0, 0, 1, 0, 0)" xlink:href="#linear-gradient-3"/>
    <linearGradient id="linear-gradient-43" x1="-595.65" y1="115.01" x2="-517.91" y2="115.01" xlink:href="#linear-gradient-6"/>
    <linearGradient id="linear-gradient-44" x1="-1203.27" y1="-303.26" x2="-1198.41" y2="-303.26" gradientTransform="matrix(-0.71, -0.16, 0.16, 0.91, -477.27, 153.17)" xlink:href="#linear-gradient-6"/>
    <linearGradient id="linear-gradient-45" x1="-664.85" y1="-4.97" x2="-660.78" y2="-4.97" gradientTransform="matrix(-0.91, -0.05, 0.05, 0.97, -290.48, 47.36)" xlink:href="#linear-gradient-6"/>
    <linearGradient id="linear-gradient-46" x1="-257.27" y1="222.29" x2="-254.14" y2="222.29" gradientTransform="matrix(-1.24, 0.14, -0.14, 1.08, 24.59, -131.11)" xlink:href="#linear-gradient-6"/>
    <linearGradient id="linear-gradient-47" x1="-807.84" y1="-82.5" x2="-803.37" y2="-82.5" gradientTransform="matrix(-0.84, -0.09, 0.09, 0.95, -356.04, 84.5)" xlink:href="#linear-gradient-6"/>
    <linearGradient id="linear-gradient-48" x1="-791.46" y1="-70.51" x2="-787.46" y2="-70.51" gradientTransform="matrix(-0.85, -0.08, 0.08, 0.95, -348.65, 80.31)" xlink:href="#linear-gradient-6"/>
    <linearGradient id="linear-gradient-49" x1="-1200.07" y1="-304.8" x2="-1195.21" y2="-304.8" gradientTransform="matrix(-0.71, -0.16, 0.16, 0.91, -476.98, 153.01)" xlink:href="#linear-gradient-6"/>
    <linearGradient id="linear-gradient-50" x1="-1197.92" y1="-307.72" x2="-1193.06" y2="-307.72" gradientTransform="matrix(-0.71, -0.16, 0.16, 0.91, -476.98, 153.01)" xlink:href="#linear-gradient-6"/>
    <linearGradient id="linear-gradient-51" x1="-1195.77" y1="-310.64" x2="-1190.91" y2="-310.64" gradientTransform="matrix(-0.71, -0.16, 0.16, 0.91, -476.98, 153.01)" xlink:href="#linear-gradient-6"/>
    <linearGradient id="linear-gradient-52" x1="-561.73" y1="118.96" x2="-551.72" y2="118.96" xlink:href="#linear-gradient-6"/>
    <linearGradient id="linear-gradient-53" x1="334.77" y1="146.33" x2="361.25" y2="146.33" gradientTransform="matrix(1, 0, 0, 1, 0, 0)" xlink:href="#linear-gradient-3"/>
    <linearGradient id="linear-gradient-54" x1="-220.4" y1="-207.43" x2="-181.7" y2="-207.43" xlink:href="#linear-gradient-17"/>
    <linearGradient id="linear-gradient-55" x1="425.06" y1="119.33" x2="451.54" y2="119.33" gradientTransform="matrix(1, 0, 0, 1, 0, 0)" xlink:href="#linear-gradient-3"/>
  </defs>
  <title>mexican_char</title>
  <rect x="62.33" y="181.37" width="24.27" height="41.54" rx="7.44" stroke="#000" stroke-miterlimit="10" fill="url(#linear-gradient)"/>
  <rect x="99.75" y="181.37" width="24.27" height="41.54" rx="6.39" stroke="#000" stroke-miterlimit="10" fill="url(#linear-gradient-2)"/>
  <path d="M41.36,153.71,77.73,126.3a5.6,5.6,0,0,0,1.1-7.8l-3.19-4.26a5.56,5.56,0,0,0-7.79-1.1L31.48,140.55a5.6,5.6,0,0,0-1.11,7.8l3.2,4.26A5.57,5.57,0,0,0,41.36,153.71Z" stroke="#000" stroke-miterlimit="10" fill="url(#linear-gradient-3)"/>
  <rect x="58.66" y="107.46" width="69" height="84" rx="14.5" stroke="#000" stroke-miterlimit="10" fill="url(#linear-gradient-4)"/>
  <path d="M120.35,35.91c.87,1.05-.09,2.22-1.72,2.09L92.3,36,66,34c-1.63-.12-2.72-1.44-2-2.37l12.31-15,12.31-15c.76-.93,2.8-.77,3.67.29l14,17.05Z" fill="#cc841b" stroke="#000" stroke-miterlimit="10" stroke-width="0.75"/>
  <ellipse cx="91.64" cy="53.53" rx="29.97" ry="57.95" transform="matrix(0.02, -1, 1, 0.02, 36.32, 144.1)" fill="#cc841b" stroke="#000" stroke-miterlimit="10" stroke-width="0.75"/>
  <ellipse cx="89.95" cy="61.85" rx="22.15" ry="47.65" transform="translate(27.14 151.13) rotate(-89.38)" fill="url(#radial-gradient)"/>
  <path d="M34,55.7c-1.34-10.35,5-17.79,15.88-23.55,10.46-4.59,21.2-7.67,32.36-8.33,12.7-.39,24.7.08,34.7,3.1S136.63,33.63,143.59,41c2.84,3.24,5,6.52,5.61,9.92l-3.95,2.88-1.94-9.17-4.94,1L136,37.86l-5.37,2.42L127.82,34l-4.91,3.47-4.16-6.92-4,3.06-5-4-3.55,4.1-3.69-5.87-6.23,5.31-5.49-5.06-3.54,4.1-6.85-5.71-3.08,5.15L71.84,29l-3.08,5.15L62,31,60.7,37.82l-8.6-2.41-1.25,6.84-7.24-1.77L43.73,48,37,47.25l1.44,5.63Z" fill="#cc3e1d" stroke="#000" stroke-miterlimit="10" stroke-width="0.75"/>
  <rect x="55.76" y="46.63" width="72.81" height="58.76" rx="12" stroke="#000" stroke-miterlimit="10" fill="url(#linear-gradient-5)"/>
  <ellipse cx="74.97" cy="75.5" rx="3.54" ry="3.55"/>
  <ellipse cx="107.84" cy="76.01" rx="3.54" ry="3.55"/>
  <path d="M93,46.63C85.25,56,76.89,63.88,66.54,67.5c-8.88.37-16.33,2.22-21.92,6-1-11,13.51-30.1,21.79-26.87C73.92,44,83.09,44.63,93,46.63Z" stroke="#000" stroke-miterlimit="10" stroke-width="0.75"/>
  <path d="M89.4,46.51c7.71,9.33,16.08,17.25,26.43,20.87,8.88.36,16.32,2.21,21.91,6,1-11-13.51-30.1-21.78-26.87C110.54,44.45,99.86,45.54,89.4,46.51Z" stroke="#000" stroke-miterlimit="10" stroke-width="0.75"/>
  <path d="M39.12,112.44l-24-32.25a4.22,4.22,0,0,0,1.06-1.37c.34-.77-.48-1.65-.48-1.65S8.34,66,7.59,65.85a6.34,6.34,0,0,0-1.88.08,2.06,2.06,0,0,0-2.6-.16,2.06,2.06,0,0,0-.77,2.56,4.1,4.1,0,0,0-.76,1.26c-.09.49,8.2,12.59,9,12.85a2.09,2.09,0,0,0,1.66-.35l22,33.23c-4.49,5.22-7.18,10.14-5,14.25a10.38,10.38,0,0,0,4.34,4.79l4.17,2.34c1.59,1.38,2.56,4.31,2.38,10.06a19.66,19.66,0,0,0,5.1,13.3c4.17,3.79,9,5.6,15,4,9.38-3.88,16-8.91,18.17-15.9,1.06-4.77.31-9.54-4.35-14.33-2.54-2.9-6.54-5.15-12.1-6.69a6.93,6.93,0,0,1-4.56-6.56c-.21-3.71-1.25-6.79-3.56-8.87C50.15,109.83,45.43,109.8,39.12,112.44Z" stroke="#000" stroke-miterlimit="10" stroke-width="0.75" fill="url(#linear-gradient-6)"/>
  <ellipse cx="42.66" cy="123.73" rx="6.63" ry="6.51" fill="#773b13" stroke="#000" stroke-miterlimit="10" stroke-width="0.25"/>
  <polygon points="14.76 76.84 17.32 75.43 16.63 74.23 14.07 75.64 14.76 76.84" fill="url(#linear-gradient-7)"/>
  <polygon points="2.93 77.11 5.89 75.46 5.21 74.27 2.24 75.92 2.93 77.11" fill="url(#linear-gradient-8)"/>
  <polygon points="1.35 74.67 4.56 72.87 3.87 71.68 0.66 73.47 1.35 74.67" fill="url(#linear-gradient-9)"/>
  <polygon points="4.6 79.51 7.57 77.87 6.88 76.67 3.91 78.32 4.6 79.51" fill="url(#linear-gradient-10)"/>
  <polygon points="6.05 81.53 8.68 80.07 8 78.87 5.36 80.33 6.05 81.53" fill="url(#linear-gradient-11)"/>
  <polygon points="13.09 74.44 15.64 73.03 14.96 71.83 12.4 73.25 13.09 74.44" fill="url(#linear-gradient-12)"/>
  <polygon points="12.09 72.44 14.65 71.03 13.96 69.83 11.4 71.25 12.09 72.44" fill="url(#linear-gradient-13)"/>
  <polygon points="10.1 69.44 12.66 68.03 11.97 66.83 9.41 68.25 10.1 69.44" fill="url(#linear-gradient-14)"/>
  <path d="M42,124.67l2.56-1.57a1.15,1.15,0,0,0,.37-1.59l-5-7.9a1.18,1.18,0,0,0-1.61-.36l-2.56,1.58a1.13,1.13,0,0,0-.37,1.58l5,7.9A1.17,1.17,0,0,0,42,124.67Z" fill="url(#linear-gradient-15)"/>
  <line x1="13.01" y1="81.99" x2="58.68" y2="147.61" fill="none" stroke="#fff" stroke-miterlimit="10" stroke-width="0.25"/>
  <line x1="13.82" y1="81.45" x2="59.77" y2="147.46" fill="none" stroke="#fff" stroke-miterlimit="10" stroke-width="0.25"/>
  <line x1="14.64" y1="80.9" x2="60.31" y2="146.51" fill="none" stroke="#fff" stroke-miterlimit="10" stroke-width="0.25"/>
  <polygon points="51.63 155.63 71.7 143.25 69.84 140.34 49.77 152.72 51.63 155.63" fill="#773b13" stroke="#000" stroke-miterlimit="10" stroke-width="0.25"/>
  <ellipse cx="38.28" cy="146.33" rx="13.15" ry="13.17" stroke="#000" stroke-miterlimit="10" fill="url(#linear-gradient-16)"/>
  <path d="M103.86,92c1.94,4,7.54,5.42,14,6.21-8.34,2.72-16.68,5.47-26.08-3.79C88.12,84.58,101.23,81.94,103.86,92Z" stroke="#000" stroke-miterlimit="10" stroke-width="0.75"/>
  <path d="M79,92c-1.94,4-7.53,5.42-14,6.21,8.34,2.72,16.68,5.47,26.08-3.79C94.74,84.58,81.63,81.94,79,92Z" stroke="#000" stroke-miterlimit="10" stroke-width="0.75"/>
  <g>
    <path d="M148.43,115.39s.54-4-2.14-4.94-2.88.61-2.88.61c-1.51-2.25-3.06-4.25-5-4.33l-3.23.13s-1.24-2.71-3.34-1.94a2,2,0,0,0-1.55,2.52s-4.12-2.1-6.78-.22-2,2.84-2,2.84a14.87,14.87,0,0,0-4.21,1.55c-1.33.94-2.54,3.94-2.54,3.94a20.93,20.93,0,0,0-4.66,1.86c-1.33.94-.53,4-.53,4s-2.77,2.67-1.87,4.9a15,15,0,0,1,1,4.29s-1.45-1.12-1.76,4.11,4.71,6.71,4.71,6.71c.45,4-.72,2.89.25,4.13a47.68,47.68,0,0,1,4,5.75,26.48,26.48,0,0,0,4,5.76c2.46,2.56,5.31-.32,5.31-.32Z" fill="#119800" stroke="#000" stroke-miterlimit="10" stroke-width="0.75"/>
    <ellipse cx="136.07" cy="111.94" rx="4.88" ry="5.27" transform="translate(-39.27 94.57) rotate(-33.78)" fill="#d20005" stroke="#000" stroke-miterlimit="10" stroke-width="0.75"/>
    <ellipse cx="122.64" cy="116.42" rx="4.88" ry="5.27" transform="translate(-44.03 87.86) rotate(-33.78)" fill="#d20005" stroke="#000" stroke-miterlimit="10" stroke-width="0.75"/>
    <ellipse cx="114.7" cy="127.77" rx="4.88" ry="5.27" transform="translate(-51.68 85.36) rotate(-33.78)" fill="#d20005" stroke="#000" stroke-miterlimit="10" stroke-width="0.75"/>
    <ellipse cx="117.01" cy="143.35" rx="4.88" ry="5.27" transform="translate(-59.95 89.27) rotate(-33.78)" fill="#d20005" stroke="#000" stroke-miterlimit="10" stroke-width="0.75"/>
    <path d="M150.66,119l-23.17,38.78c-12.3-4.75-22-26.18-11.9-37.74,9.76-11.15,24.48-14.27,34-2.41C150,118.1,150.32,118.56,150.66,119Z" stroke="#000" stroke-miterlimit="10" stroke-width="0.75" fill="url(#linear-gradient-17)"/>
  </g>
  <ellipse cx="132.91" cy="137.33" rx="13.15" ry="13.17" stroke="#000" stroke-miterlimit="10" fill="url(#linear-gradient-18)"/>
  <polygon points="161.02 72.67 164.24 70.87 163.55 69.68 160.32 71.47 161.02 72.67" fill="url(#linear-gradient-19)"/>
  <rect x="217.27" y="181.37" width="24.38" height="41.54" rx="7.44" stroke="#000" stroke-miterlimit="10" fill="url(#linear-gradient-20)"/>
  <rect x="254.86" y="181.37" width="24.38" height="41.54" rx="6.39" stroke="#000" stroke-miterlimit="10" fill="url(#linear-gradient-21)"/>
  <path d="M196.2,153.71l36.54-27.41a5.59,5.59,0,0,0,1.11-7.8l-3.21-4.26a5.6,5.6,0,0,0-7.82-1.1l-36.54,27.41a5.58,5.58,0,0,0-1.11,7.8l3.21,4.26A5.61,5.61,0,0,0,196.2,153.71Z" stroke="#000" stroke-miterlimit="10" fill="url(#linear-gradient-22)"/>
  <rect x="213.74" y="107.46" width="69" height="84" rx="14.5" stroke="#000" stroke-miterlimit="10" fill="url(#linear-gradient-23)"/>
  <path d="M275.55,35.91c.87,1.05-.09,2.22-1.72,2.09l-26.45-2-26.45-2c-1.64-.12-2.73-1.44-2-2.37l12.36-15,12.37-15c.77-.93,2.81-.77,3.69.29l14.08,17.05Z" fill="#cc841b" stroke="#000" stroke-miterlimit="10" stroke-width="0.75"/>
  <ellipse cx="246.71" cy="53.53" rx="29.97" ry="58.21" transform="translate(188.38 299.15) rotate(-88.88)" fill="#cc841b" stroke="#000" stroke-miterlimit="10" stroke-width="0.75"/>
  <ellipse cx="245.02" cy="61.85" rx="22.15" ry="47.86" transform="translate(180.55 306.19) rotate(-89.39)" fill="url(#radial-gradient-2)"/>
  <path d="M188.81,55.7c-1.34-10.35,5.08-17.79,16-23.55,10.51-4.59,21.29-7.67,32.5-8.33,12.75-.39,24.82.08,34.85,3.1S291.91,33.63,298.9,41c2.85,3.24,5,6.52,5.63,9.92l-4,2.88-2-9.17-5,1-2.39-7.73-5.39,2.42L283.05,34l-4.93,3.47-4.18-6.92-4,3.06-5-4-3.56,4.1-3.71-5.87-6.26,5.31-5.51-5.06-3.56,4.1-6.88-5.71-3.09,5.15L226.82,29l-3.09,5.15L216.89,31l-1.25,6.84L207,35.41l-1.26,6.84-7.27-1.77.12,7.49-6.81-.72,1.45,5.63Z" fill="#cc3e1d" stroke="#000" stroke-miterlimit="10" stroke-width="0.75"/>
  <rect x="210.67" y="46.63" width="73.13" height="58.76" rx="12" stroke="#000" stroke-miterlimit="10" fill="url(#linear-gradient-24)"/>
  <ellipse cx="229.97" cy="75.5" rx="3.56" ry="3.55"/>
  <ellipse cx="262.98" cy="76.01" rx="3.56" ry="3.55"/>
  <path d="M248.05,46.63C240.3,56,231.89,63.88,221.5,67.5c-8.92.37-16.4,2.22-22,6-1-11,13.58-30.1,21.89-26.87C228.91,44,238.13,44.63,248.05,46.63Z" stroke="#000" stroke-miterlimit="10" stroke-width="0.75"/>
  <path d="M244.46,46.51c7.75,9.33,16.15,17.25,26.55,20.87,8.92.36,16.4,2.21,22,6,1-11-13.57-30.1-21.88-26.87C265.7,44.45,255,45.54,244.46,46.51Z" stroke="#000" stroke-miterlimit="10" stroke-width="0.75"/>
  <path d="M194,112.44l-24.1-32.25a4.33,4.33,0,0,0,1.07-1.37c.33-.77-.49-1.65-.49-1.65S163,66,162.29,65.85a6.47,6.47,0,0,0-1.9.08,2.13,2.13,0,0,0-3.38,2.4,3.91,3.91,0,0,0-.76,1.26c-.09.49,8.24,12.59,9.05,12.85a2.1,2.1,0,0,0,1.67-.35L189,115.32c-4.51,5.22-7.22,10.14-5.06,14.25a10.43,10.43,0,0,0,4.36,4.79l4.19,2.34c1.6,1.38,2.57,4.31,2.39,10.06a19.59,19.59,0,0,0,5.13,13.3c4.19,3.79,9.05,5.6,15.06,4,9.42-3.88,16.12-8.91,18.25-15.9,1.07-4.77.31-9.54-4.36-14.33-2.56-2.9-6.57-5.15-12.16-6.69a6.94,6.94,0,0,1-4.58-6.56c-.22-3.71-1.25-6.79-3.58-8.87C205,109.83,200.3,109.8,194,112.44Z" stroke="#000" stroke-miterlimit="10" stroke-width="0.75" fill="url(#linear-gradient-25)"/>
  <ellipse cx="197.51" cy="123.73" rx="6.66" ry="6.51" fill="#773b13" stroke="#000" stroke-miterlimit="10" stroke-width="0.25"/>
  <polygon points="169.49 75.84 172.06 74.43 171.37 73.23 168.8 74.64 169.49 75.84" fill="url(#linear-gradient-26)"/>
  <polygon points="157.6 76.11 160.58 74.46 159.89 73.27 156.91 74.92 157.6 76.11" fill="url(#linear-gradient-27)"/>
  <polygon points="155.6 73.11 158.58 71.46 157.89 70.27 154.91 71.92 155.6 73.11" fill="url(#linear-gradient-28)"/>
  <polygon points="159.28 78.51 162.26 76.87 161.57 75.67 158.59 77.32 159.28 78.51" fill="url(#linear-gradient-29)"/>
  <polygon points="160.74 80.53 163.38 79.07 162.69 77.87 160.05 79.33 160.74 80.53" fill="url(#linear-gradient-30)"/>
  <polygon points="167.81 73.44 170.38 72.03 169.69 70.83 167.12 72.25 167.81 73.44" fill="url(#linear-gradient-31)"/>
  <polygon points="165.81 71.44 168.38 70.03 167.69 68.83 165.12 70.25 165.81 71.44" fill="url(#linear-gradient-32)"/>
  <polygon points="163.8 69.44 166.38 68.03 165.69 66.83 163.12 68.25 163.8 69.44" fill="url(#linear-gradient-33)"/>
  <path d="M196.83,124.67l2.57-1.57a1.14,1.14,0,0,0,.37-1.59l-5.07-7.9a1.2,1.2,0,0,0-1.62-.36l-2.57,1.58a1.13,1.13,0,0,0-.37,1.58l5.07,7.9A1.18,1.18,0,0,0,196.83,124.67Z" fill="url(#linear-gradient-34)"/>
  <line x1="167.73" y1="81.99" x2="213.6" y2="147.61" fill="none" stroke="#fff" stroke-miterlimit="10" stroke-width="0.25"/>
  <line x1="168.55" y1="81.45" x2="214.7" y2="147.46" fill="none" stroke="#fff" stroke-miterlimit="10" stroke-width="0.25"/>
  <line x1="169.37" y1="80.9" x2="215.24" y2="146.51" fill="none" stroke="#fff" stroke-miterlimit="10" stroke-width="0.25"/>
  <polygon points="206.52 155.63 226.68 143.25 224.82 140.34 204.66 152.72 206.52 155.63" fill="#773b13" stroke="#000" stroke-miterlimit="10" stroke-width="0.25"/>
  <ellipse cx="193.11" cy="146.33" rx="13.2" ry="13.17" stroke="#000" stroke-miterlimit="10" fill="url(#linear-gradient-35)"/>
  <path d="M259,92c1.95,4,7.57,5.42,14,6.21-8.38,2.72-16.75,5.47-26.2-3.79C243.17,84.58,256.34,81.94,259,92Z" stroke="#000" stroke-miterlimit="10" stroke-width="0.75"/>
  <path d="M234,92c-1.95,4-7.57,5.42-14,6.21,8.38,2.72,16.76,5.47,26.2-3.79C249.82,84.58,236.65,81.94,234,92Z" stroke="#000" stroke-miterlimit="10" stroke-width="0.75"/>
  <g>
    <path d="M294.76,105.39s.53-4-2.15-4.94-2.91.61-2.91.61c-1.5-2.25-3.07-4.25-5.05-4.33l-3.23.13s-1.25-2.71-3.37-1.94a2.06,2.06,0,0,0-1.55,2.53s-4.14-2.11-6.81-.23-2,2.84-2,2.84a14.92,14.92,0,0,0-4.23,1.55c-1.34.94-2.55,3.94-2.55,3.94a21.15,21.15,0,0,0-4.68,1.86c-1.33.94-.54,4-.54,4s-2.77,2.67-1.87,4.9a15,15,0,0,1,1,4.29s-1.46-1.12-1.76,4.11,4.73,6.71,4.73,6.71c.44,4-.72,2.9.24,4.13a47.49,47.49,0,0,1,4.06,5.76,26.38,26.38,0,0,0,4.05,5.75c2.47,2.56,5.34-.32,5.34-.32Z" fill="#119800" stroke="#000" stroke-miterlimit="10" stroke-width="0.75"/>
    <ellipse cx="282.34" cy="101.94" rx="4.9" ry="5.28" transform="translate(-6.9 182.26) rotate(-35.37)" fill="#d20005" stroke="#000" stroke-miterlimit="10" stroke-width="0.75"/>
    <ellipse cx="268.85" cy="106.42" rx="4.9" ry="5.28" transform="translate(-11.98 175.28) rotate(-35.37)" fill="#d20005" stroke="#000" stroke-miterlimit="10" stroke-width="0.75"/>
    <ellipse cx="260.87" cy="117.77" rx="4.9" ry="5.28" transform="translate(-20.02 172.76) rotate(-35.37)" fill="#d20005" stroke="#000" stroke-miterlimit="10" stroke-width="0.75"/>
    <ellipse cx="263.19" cy="133.35" rx="4.9" ry="5.28" transform="translate(-28.61 176.98) rotate(-35.37)" fill="#d20005" stroke="#000" stroke-miterlimit="10" stroke-width="0.75"/>
    <path d="M297,109l-23.27,38.78c-12.36-4.75-22.11-26.17-12-37.74,9.79-11.15,24.59-14.27,34.18-2.41C296.3,108.1,296.65,108.56,297,109Z" stroke="#000" stroke-miterlimit="10" stroke-width="0.75" fill="url(#linear-gradient-36)"/>
  </g>
  <ellipse cx="285.16" cy="128.33" rx="13.2" ry="13.17" stroke="#000" stroke-miterlimit="10" fill="url(#linear-gradient-37)"/>
  <rect x="372.24" y="181.37" width="24.44" height="41.54" rx="7.44" stroke="#000" stroke-miterlimit="10" fill="url(#linear-gradient-38)"/>
  <rect x="409.92" y="181.37" width="24.44" height="41.54" rx="6.39" stroke="#000" stroke-miterlimit="10" fill="url(#linear-gradient-39)"/>
  <path d="M351.11,153.71l36.64-27.41a5.57,5.57,0,0,0,1.11-7.8l-3.22-4.26a5.62,5.62,0,0,0-7.84-1.1l-36.64,27.41a5.57,5.57,0,0,0-1.11,7.8l3.22,4.26A5.63,5.63,0,0,0,351.11,153.71Z" stroke="#000" stroke-miterlimit="10" fill="url(#linear-gradient-40)"/>
  <rect x="368.78" y="107.46" width="69" height="84" rx="14.5" stroke="#000" stroke-miterlimit="10" fill="url(#linear-gradient-41)"/>
  <path d="M430.67,35.91c.88,1.05-.08,2.22-1.73,2.09l-26.52-2L375.9,34c-1.64-.12-2.73-1.44-2-2.37l12.4-15,12.4-15c.76-.93,2.82-.77,3.69.29l14.12,17.05Z" fill="#cc841b" stroke="#000" stroke-miterlimit="10" stroke-width="0.75"/>
  <ellipse cx="401.76" cy="53.53" rx="29.97" ry="58.36" transform="translate(340.44 454.17) rotate(-88.89)" fill="#cc841b" stroke="#000" stroke-miterlimit="10" stroke-width="0.75"/>
  <ellipse cx="400.06" cy="61.85" rx="22.15" ry="47.99" transform="translate(333.95 461.22) rotate(-89.39)" fill="url(#radial-gradient-3)"/>
  <path d="M343.7,55.7c-1.35-10.35,5.09-17.79,16-23.55,10.54-4.59,21.34-7.67,32.59-8.33,12.79-.39,24.88.08,34.95,3.1S447.07,33.63,454.08,41c2.86,3.24,5,6.52,5.65,9.92l-4,2.88-2-9.17-5,1-2.39-7.73L441,40.28,438.2,34l-4.94,3.47-4.2-6.92-4,3.06-5.06-4-3.56,4.1-3.73-5.87-6.27,5.31-5.53-5.06-3.57,4.1-6.9-5.71-3.1,5.15L381.81,29l-3.09,5.15L371.85,31l-1.25,6.84-8.67-2.41-1.25,6.84-7.3-1.77L353.5,48l-6.82-.72,1.45,5.63Z" fill="#cc3e1d" stroke="#000" stroke-miterlimit="10" stroke-width="0.75"/>
  <rect x="365.62" y="46.63" width="73.33" height="58.76" rx="12" stroke="#000" stroke-miterlimit="10" fill="url(#linear-gradient-42)"/>
  <path d="M403.1,46.63C395.32,56,386.9,63.88,376.47,67.5c-8.94.37-16.44,2.22-22.07,6-1-11,13.61-30.1,21.94-26.87C383.91,44,393.15,44.63,403.1,46.63Z" stroke="#000" stroke-miterlimit="10" stroke-width="0.75"/>
  <path d="M399.5,46.51c7.77,9.33,16.19,17.25,26.62,20.87,8.94.36,16.44,2.21,22.07,6,1-11-13.61-30.1-21.94-26.87C420.8,44.45,410,45.54,399.5,46.51Z" stroke="#000" stroke-miterlimit="10" stroke-width="0.75"/>
  <path d="M348.85,112.44,324.69,80.19a4.33,4.33,0,0,0,1.07-1.37c.33-.77-.49-1.65-.49-1.65S317.85,66,317.1,65.85a6.47,6.47,0,0,0-1.9.08,2.14,2.14,0,0,0-3.39,2.4,3.91,3.91,0,0,0-.76,1.26c-.1.49,8.26,12.59,9.08,12.85a2.12,2.12,0,0,0,1.67-.35l22.12,33.23c-4.53,5.22-7.24,10.14-5.07,14.25a10.35,10.35,0,0,0,4.37,4.79l4.2,2.34c1.6,1.38,2.57,4.31,2.4,10.06a19.45,19.45,0,0,0,5.14,13.3c4.2,3.79,9.07,5.6,15.1,4,9.44-3.88,16.16-8.91,18.3-15.9,1.07-4.77.31-9.54-4.38-14.33-2.56-2.9-6.59-5.15-12.18-6.69a6.94,6.94,0,0,1-4.6-6.56c-.21-3.71-1.26-6.79-3.58-8.87C360,109.83,355.21,109.8,348.85,112.44Z" stroke="#000" stroke-miterlimit="10" stroke-width="0.75" fill="url(#linear-gradient-43)"/>
  <ellipse cx="352.42" cy="123.73" rx="6.68" ry="6.51" fill="#773b13" stroke="#000" stroke-miterlimit="10" stroke-width="0.25"/>
  <polygon points="324.32 76.84 326.9 75.43 326.21 74.23 323.63 75.64 324.32 76.84" fill="url(#linear-gradient-44)"/>
  <polygon points="312.41 77.11 315.39 75.46 314.7 74.27 311.71 75.92 312.41 77.11" fill="url(#linear-gradient-45)"/>
  <polygon points="310.81 74.67 314.05 72.87 313.35 71.68 310.12 73.47 310.81 74.67" fill="url(#linear-gradient-46)"/>
  <polygon points="314.09 79.51 317.08 77.87 316.39 76.67 313.4 78.32 314.09 79.51" fill="url(#linear-gradient-47)"/>
  <polygon points="315.55 81.53 318.2 80.07 317.51 78.87 314.86 80.33 315.55 81.53" fill="url(#linear-gradient-48)"/>
  <polygon points="322.64 74.44 325.21 73.03 324.52 71.83 321.95 73.25 322.64 74.44" fill="url(#linear-gradient-49)"/>
  <polygon points="320.63 71.44 323.21 70.03 322.52 68.83 319.94 70.25 320.63 71.44" fill="url(#linear-gradient-50)"/>
  <polygon points="318.62 68.44 321.2 67.03 320.51 65.83 317.93 67.25 318.62 68.44" fill="url(#linear-gradient-51)"/>
  <path d="M351.74,124.67l2.57-1.57a1.15,1.15,0,0,0,.38-1.59l-5.09-7.9a1.19,1.19,0,0,0-1.62-.36l-2.58,1.58a1.13,1.13,0,0,0-.37,1.58l5.08,7.9A1.2,1.2,0,0,0,351.74,124.67Z" fill="url(#linear-gradient-52)"/>
  <line x1="322.56" y1="81.99" x2="368.56" y2="147.61" fill="none" stroke="#fff" stroke-miterlimit="10" stroke-width="0.25"/>
  <line x1="323.38" y1="81.45" x2="369.66" y2="147.46" fill="none" stroke="#fff" stroke-miterlimit="10" stroke-width="0.25"/>
  <line x1="324.2" y1="80.9" x2="370.2" y2="146.51" fill="none" stroke="#fff" stroke-miterlimit="10" stroke-width="0.25"/>
  <polygon points="361.46 155.63 381.67 143.25 379.8 140.34 359.59 152.72 361.46 155.63" fill="#773b13" stroke="#000" stroke-miterlimit="10" stroke-width="0.25"/>
  <ellipse cx="348.01" cy="146.33" rx="13.24" ry="13.17" stroke="#000" stroke-miterlimit="10" fill="url(#linear-gradient-53)"/>
  <path d="M414.07,92c1.95,4,7.59,5.42,14.07,6.21-8.4,2.72-16.8,5.47-26.27-3.79C398.21,84.58,411.41,81.94,414.07,92Z" stroke="#000" stroke-miterlimit="10" stroke-width="0.75"/>
  <path d="M389,92c-2,4-7.59,5.42-14.08,6.21,8.41,2.72,16.81,5.47,26.28-3.79C404.88,84.58,391.67,81.94,389,92Z" stroke="#000" stroke-miterlimit="10" stroke-width="0.75"/>
  <g>
    <path d="M448.93,99.4s.54-4-2.16-5-2.91.61-2.91.61c-1.51-2.25-3.07-4.25-5.06-4.33l-3.25.13s-1.25-2.71-3.37-1.94a2,2,0,0,0-1.55,2.53s-4.16-2.11-6.84-.23-2,2.84-2,2.84a14.94,14.94,0,0,0-4.24,1.55c-1.34.94-2.56,3.94-2.56,3.94a21.17,21.17,0,0,0-4.69,1.86c-1.34.94-.54,4-.54,4s-2.78,2.67-1.88,4.9a15.22,15.22,0,0,1,1,4.29s-1.47-1.12-1.77,4.11,4.74,6.71,4.74,6.71c.45,4-.72,2.9.25,4.13a47.49,47.49,0,0,1,4.06,5.76,26.21,26.21,0,0,0,4.07,5.75c2.47,2.56,5.35-.32,5.35-.32Z" fill="#119800" stroke="#000" stroke-miterlimit="10" stroke-width="0.75"/>
    <ellipse cx="436.48" cy="95.95" rx="4.91" ry="5.28" transform="matrix(0.81, -0.59, 0.59, 0.81, 28.14, 277.54)" fill="#d20005" stroke="#000" stroke-miterlimit="10" stroke-width="0.75"/>
    <ellipse cx="422.95" cy="100.42" rx="4.91" ry="5.28" transform="translate(22.85 270.39) rotate(-36.37)" fill="#d20005" stroke="#000" stroke-miterlimit="10" stroke-width="0.75"/>
    <ellipse cx="414.95" cy="111.77" rx="4.91" ry="5.28" transform="translate(14.56 267.86) rotate(-36.37)" fill="#d20005" stroke="#000" stroke-miterlimit="10" stroke-width="0.75"/>
    <ellipse cx="417.28" cy="127.35" rx="4.91" ry="5.28" transform="matrix(0.81, -0.59, 0.59, 0.81, 5.77, 272.28)" fill="#d20005" stroke="#000" stroke-miterlimit="10" stroke-width="0.75"/>
    <path d="M451.17,103l-23.34,38.77c-12.39-4.75-22.17-26.17-12-37.74,9.82-11.15,24.66-14.27,34.27-2.41Q450.66,102.32,451.17,103Z" stroke="#000" stroke-miterlimit="10" stroke-width="0.75" fill="url(#linear-gradient-54)"/>
  </g>
  <ellipse cx="438.3" cy="119.33" rx="13.24" ry="13.17" stroke="#000" stroke-miterlimit="10" fill="url(#linear-gradient-55)"/>
  <rect x="412.57" y="74" width="11.56" height="2.2"/>
  <rect x="379.46" y="75" width="11.56" height="2.2"/>
</svg>
