<svg id="Layer_1" data-name="Layer 1" xmlns="http://www.w3.org/2000/svg" xmlns:xlink="http://www.w3.org/1999/xlink" width="100" height="110" viewBox="0 -5 100 110">
  <defs>
    <linearGradient id="New_Gradient_Swatch_1" data-name="New Gradient Swatch 1" x1="27.57" y1="6.96" x2="74.53" y2="88.29" gradientUnits="userSpaceOnUse">
      <stop offset="0" stop-color="#3aff2a"/>
      <stop offset="1" stop-color="#003f05" stop-opacity="0.96"/>
    </linearGradient>
  </defs>
  <title>mexico_1</title>
  <path d="M42.37,6.61c1.71-9.12,21.42-9.22,22.25,0s.95,31-.39,31a61.11,61.11,0,0,1,22.25.18c6.26,3.93,6.11,7.9,0,11.92a54.64,54.64,0,0,1-22.84,0C62.82,68.75,62,85.17,60.28,95.77c-6.85,6.32-8.8,4.09-16.14.18C45.72,78,42.29,59.51,43,51.1c-11.59,1.66-22.67,2-32.88,0-2.74-9.92-1.93-21.36,0-33.28C15.14,12.9,20,11.69,24.45,18c1.1,8.46,2.14,16.84,0,20.46a34.68,34.68,0,0,1,18.11,0C40.34,37.47,40.76,15.15,42.37,6.61Z" stroke="#000" stroke-miterlimit="10" stroke-width="0.75" fill="url(#New_Gradient_Swatch_1)"/>
</svg>
