<svg id="Layer_1" data-name="Layer 1" xmlns="http://www.w3.org/2000/svg" viewBox="0 0 259 199"><defs><style>.cls-1{fill:#fff;}</style></defs><title>arm</title><path d="M169.37,89.32A264.09,264.09,0,0,0,149.81,125c-12.08,27-16.07,50.09-7.22,55.85,12.64,8.22,40.38-17.19,66.26-57A224.54,224.54,0,0,0,221,102.79C239,67.05,247.51,28.28,237,21.45c-7.94-5.17-22.39,7.25-38.45,27.06A491.88,491.88,0,0,0,169.37,89.32Z"/><path d="M122.46,120.4c-4.21-2.73-10-4.68-14.13-7.42-20-13.41-55.1-45.56-60-38-5.55,8.52,5.35,23.47,18.53,37.36,7.69,8.11,17,16.87,26.36,27.5,25.6,29.16,53.63,53.84,62.4,40.35S154.64,141.33,122.46,120.4Z"/><path d="M30.09,69.42c5.56,16.23,18,23.12,25.27,20.64s6.51-13.39,1-29.63S42.27,38.6,35,41.08,24.52,53.18,30.09,69.42Z"/><ellipse cx="220.85" cy="53.52" rx="47.46" ry="27.3" transform="translate(110.16 251.98) rotate(-74.47)"/><path d="M150.37,143.53c9.88,12.3,10.7,28,1.84,35.15s-24.05,2.92-33.93-9.38-10.7-32.23-1.84-39.35S140.5,131.23,150.37,143.53Z"/><path d="M35.85,42.22c-1-.22-2.44-2.46-3.11-3.18-1.69-1.82-3.16-4-5.3-5.37-4-2.46-8.89-2.07-13.33-2-3.86,0-3.87,6,0,6a39.12,39.12,0,0,1,7.34.16c2.85.51,3.94,2.06,5.74,4.12s4.26,5.46,7.07,6.08c3.76.84,5.37-4.94,1.59-5.78Z"/><path d="M33.37,54.78c-.72-2-1.91-2.88-3.23-4.39s-2-3.36-3.73-4.69a19.71,19.71,0,0,0-12.3-4.25c-3.86,0-3.87,6,0,6a13,13,0,0,1,8.61,3,16,16,0,0,1,2.18,3c.72,1,2.28,1.85,2.68,3,1.31,3.6,7.11,2,5.79-1.6Z"/><path d="M44.6,48.38A18.12,18.12,0,0,0,42.1,39c-1.8-2.81-5-4.29-6.72-7.13-1.54-2.59-2.19-5.05-4.79-6.88A15.29,15.29,0,0,0,22,22.47c-3.86-.11-3.86,5.89,0,6,2.56.08,4.89.65,6.43,2.79,1.24,1.72,1.69,3.79,3.06,5.47,1.21,1.5,2.87,2.5,4.18,3.89a11.09,11.09,0,0,1,3,7.76c.1,3.86,6.1,3.87,6,0Z"/><path d="M47.87,45.76c.32-8.31,2.88-22.82-8.75-25.14-3.77-.76-5.38,5-1.59,5.78,7.81,1.56,4.55,14.08,4.34,19.36-.15,3.87,5.85,3.86,6,0Z"/><path d="M17.11,60.74a7.62,7.62,0,0,0,2.3,3.41,45,45,0,0,1,3.69,4.78,10.87,10.87,0,0,0,3.77,3.43,23.58,23.58,0,0,1,4.27,2c3.11,2.29,6.11-2.92,3-5.18-2.15-1.58-4.7-1.67-6.38-3.91-.93-1.23-1.58-2.65-2.59-3.82-.52-.6-2.1-1.49-2.31-2.26-1-3.73-6.76-2.15-5.78,1.59Z"/><polygon class="cls-1" points="78 124 65 111 65 81 74 87 78 124"/><polygon class="cls-1" points="89 135 79 125 80 91 91 100 89 135"/><polygon class="cls-1" points="110 158 101 149 108 112 112 115 110 158"/><polygon class="cls-1" points="99 147 93 140 94 102 100.26 106.7 105 110 99 147"/><polygon class="cls-1" points="114 162 109 157 116 116 118.26 117.7 127 122 114 162"/></svg>