<svg id="Layer_1" data-name="Layer 1" xmlns="http://www.w3.org/2000/svg" viewBox="0 0 197 431"><defs><style>.cls-1{fill:#fff;}</style></defs><title>ben</title><path d="M93.54,90.72c-10.45,22-13.68,44-18,62-6.51,26.9-5.8,46.7,3.51,51.13,10.27,4.89,23.22-10,41.87-36.53,9.6-13.66,21.64-30.5,30.48-49.09,8.59-18.05,18.19-35.63,22.72-51.35,9.19-31.89,9.55-35.62-.87-40.58-10.06-4.79-43.8-11-62,14.53C101.19,54.81,102.74,71.38,93.54,90.72Z"/><path d="M100.59,211.4c-5.33,16.88-16.58,28.25-28.25,25-6.43-1.79-7.45-9.25-9.25-17.53-1.47-6.74-2.26-14-1.1-19.22,1.6-7.16,2.77-11,7-15.47,6-6.26,13.68-11.44,20.51-9.54C101.17,177.89,113.56,170.28,100.59,211.4Z"/><path d="M63.06,300.18c0,16.28-.1,30.77,1.78,42.45C68.76,367,60,380.91,67.08,384.71c16.47,8.78,21.09-16.42,25-41,2-12.72,3.19-26.35,9.05-43.55,4.59-13.49,8.58-28.4,6.93-40.18-.93-6.68-4.75-16-5.9-21.83-3.45-17.48-7.7-26.36-23.36-22.52C71.24,217.51,62,230.7,58,253.53,55.64,266.9,63.06,282.94,63.06,300.18Z"/><path d="M85.1,380.09c2.12,5.44,7.71,16-3.78,23-4,2.45-16.59,4.64-22.34,6.88-7.52,2.94-10.82,6.26-17.19,7.07-10.71,1.36-23.15,2.63-25-2.09S20,406.11,29.34,399.7c3.55-2.45,10.1-4.16,18.6-7.48,5-2,14.38-12.24,19-13.26C80.85,375.92,82.89,374.44,85.1,380.09Z"/><polygon class="cls-1" points="101.22 232.78 57.28 262.72 57.14 255.48 58.73 249.17 98.67 225.23 101.22 232.78"/><polygon class="cls-1" points="105.89 247.14 57.51 265.12 58.11 269.86 107.49 253.88 105.89 247.14"/><polygon class="cls-1" points="109 271 59 273 58 268 109 262 109 266.39 109 271"/></svg>