<svg id="Layer_1" data-name="Layer 1" xmlns="http://www.w3.org/2000/svg" viewBox="0 0 136 175"><defs><style>.cls-1{fill:#a22c29;}</style></defs><title>hoved med hjelm</title><path d="M117,96c0,21.08-10.09,40.37-21.2,55.23a36,36,0,0,1-57.6,0C27.09,136.37,17,117.08,17,96c0-46.94,22.39-85,50-85S117,49.06,117,96Z"/><ellipse cx="120.5" cy="92" rx="5.5" ry="17"/><ellipse cx="14.5" cy="92" rx="5.5" ry="17"/><path class="cls-1" d="M19,60C25,37,43,7,69,7s41,29,47,54"/><polygon points="60 12 52 17 36.64 32 25 54 29 54 39.98 33.95 60 12"/><polygon points="66 13 62 15 44.64 33 34 54 39 54 49.98 32.95 66 13"/><polygon points="111.85 54.95 107.98 55.22 97.52 31.63 82.15 17.05 80.02 11.78 99.77 29 111.85 54.95"/><polygon points="103.85 54.95 98.98 55.22 88.52 32.63 73.15 15.05 73.02 11.78 90.77 30 103.85 54.95"/></svg>