<svg id="Layer_1" data-name="Layer 1" xmlns="http://www.w3.org/2000/svg" xmlns:xlink="http://www.w3.org/1999/xlink" width="100" height="110" viewBox="0 -5 100 110">
  <defs>
    <radialGradient id="radial-gradient" cx="-10.61" cy="95.13" r="3.17" gradientTransform="matrix(0.83, 0.18, -0.21, 1.35, 107.43, -111.57)" gradientUnits="userSpaceOnUse">
      <stop offset="0" stop-color="gray"/>
      <stop offset="1" stop-color="#333" stop-opacity="0.96"/>
    </radialGradient>
  </defs>
  <title>viking_4</title>
  <g>
    <ellipse cx="74.69" cy="20.03" rx="11.02" ry="13"/>
    <path d="M83.06,12.86C89.5,14.74,95.25,18.79,99,29.2Q89.34,23,79.69,30.29C83.51,26.21,84.27,20.16,83.06,12.86Z"/>
    <path d="M79.41,30.79c2,15.32-6.45,28.46-14.47,34.9C45.35,74.5,29.42,80.77,2.65,85c4.36-3.54,13-13.81,22.8-24.85C40,43.64,57.11,25.4,65.93,25.24"/>
    <path d="M-.5,77.57C6.8,76.21,14.26,71.7,21.83,65l-2.19,11Z"/>
    <path d="M60.22,27.08c-20,14.2-38.89,24.12-55.67,26.64,10.69,5.67,21.49,11,36.77,3.4Z"/>
    <path d="M51.77,69c-1.15,4.46-2,8.82,0,12.37,3.51-1.41,6.7,1.09,9.73,5.3-3.06-1.91-6.09-3.72-8.24-2.65,2.16.06,2.9,2.93,3,7.07C55.69,85.46,45,83.1,42,88.47c.69-3.5,1.64-6.63,5.24-6.18V69.92Z"/>
    <path d="M61.87,64.78c-1.21,4-1.68,7.66,0,10.54,3-1.2,5.7.93,8.29,4.52-2.61-1.63-5.19-3.17-7-2.26,1.84.05,2.47,2.5,2.55,6-.49-4.82-9.62-6.83-12.12-2.26.59-3,1.4-5.64,4.46-5.27V65.53Z"/>
    <g>
      <path d="M82,15.88a9.65,9.65,0,0,1-3.73.38c-1.42-.31-3.18-3.08-3.18-3.08a5.89,5.89,0,0,1,3.73-.38C81,13.26,82,15.88,82,15.88Z" fill="url(#radial-gradient)"/>
      <ellipse cx="77.78" cy="13.73" rx="0.72" ry="0.85" fill="#fff" opacity="0.5"/>
      <ellipse cx="79.58" cy="14.15" rx="0.36" ry="0.43" fill="#fcfcfc" opacity="0.5"/>
    </g>
  </g>
</svg>
