<svg id="Layer_1" data-name="Layer 1" xmlns="http://www.w3.org/2000/svg" xmlns:xlink="http://www.w3.org/1999/xlink" width="100" height="110" viewBox="0 -5 100 110">
  <defs>
    <linearGradient id="linear-gradient" x1="31.86" y1="44.16" x2="65.55" y2="44.16" gradientTransform="translate(1.34 2.52) scale(1 1.04)" gradientUnits="userSpaceOnUse">
      <stop offset="0" stop-color="#666"/>
      <stop offset="0.07" stop-color="#7f7f7f" stop-opacity="0.99"/>
      <stop offset="0.16" stop-color="#969696" stop-opacity="0.99"/>
      <stop offset="0.25" stop-color="#a6a6a6" stop-opacity="0.98"/>
      <stop offset="0.36" stop-color="#b0b0b0" stop-opacity="0.98"/>
      <stop offset="0.51" stop-color="#b3b3b3" stop-opacity="0.98"/>
      <stop offset="0.61" stop-color="#afafaf" stop-opacity="0.98"/>
      <stop offset="0.71" stop-color="#a4a4a4" stop-opacity="0.98"/>
      <stop offset="0.8" stop-color="#909090" stop-opacity="0.97"/>
      <stop offset="0.9" stop-color="#757575" stop-opacity="0.97"/>
      <stop offset="0.99" stop-color="#535353" stop-opacity="0.96"/>
      <stop offset="1" stop-color="#4d4d4d" stop-opacity="0.96"/>
    </linearGradient>
    <linearGradient id="linear-gradient-2" x1="38.81" y1="43.95" x2="58.75" y2="43.95" xlink:href="#linear-gradient"/>
    <linearGradient id="linear-gradient-3" x1="41.1" y1="60.81" x2="46.04" y2="60.81" gradientTransform="matrix(1, 0, 0, 1, 0, 0)" xlink:href="#linear-gradient"/>
    <linearGradient id="linear-gradient-4" x1="47.03" y1="62.91" x2="51.97" y2="62.91" gradientTransform="matrix(1, 0, 0, 1, 0, 0)" xlink:href="#linear-gradient"/>
    <linearGradient id="linear-gradient-5" x1="53.95" y1="60.81" x2="58.89" y2="60.81" gradientTransform="matrix(1, 0, 0, 1, 0, 0)" xlink:href="#linear-gradient"/>
    <linearGradient id="linear-gradient-6" x1="59.39" y1="56.09" x2="64.33" y2="56.09" gradientTransform="matrix(1, 0, 0, 1, 0, 0)" xlink:href="#linear-gradient"/>
    <linearGradient id="linear-gradient-7" x1="60.87" y1="48.21" x2="65.81" y2="48.21" gradientTransform="matrix(1, 0, 0, 1, 0, 0)" xlink:href="#linear-gradient"/>
    <linearGradient id="linear-gradient-8" x1="58.89" y1="40.86" x2="63.84" y2="40.86" gradientTransform="matrix(1, 0, 0, 1, 0, 0)" xlink:href="#linear-gradient"/>
    <linearGradient id="linear-gradient-9" x1="52.96" y1="34.56" x2="57.9" y2="34.56" gradientTransform="matrix(1, 0, 0, 1, 0, 0)" xlink:href="#linear-gradient"/>
    <linearGradient id="linear-gradient-10" x1="46.04" y1="33.51" x2="50.98" y2="33.51" gradientTransform="matrix(1, 0, 0, 1, 0, 0)" xlink:href="#linear-gradient"/>
    <linearGradient id="linear-gradient-11" x1="39.12" y1="36.66" x2="44.06" y2="36.66" gradientTransform="matrix(1, 0, 0, 1, 0, 0)" xlink:href="#linear-gradient"/>
    <linearGradient id="linear-gradient-12" x1="35.16" y1="41.91" x2="40.11" y2="41.91" gradientTransform="matrix(1, 0, 0, 1, 0, 0)" xlink:href="#linear-gradient"/>
    <linearGradient id="linear-gradient-13" x1="34.18" y1="49.26" x2="39.12" y2="49.26" gradientTransform="matrix(1, 0, 0, 1, 0, 0)" xlink:href="#linear-gradient"/>
    <linearGradient id="linear-gradient-14" x1="36.15" y1="55.56" x2="41.1" y2="55.56" gradientTransform="matrix(1, 0, 0, 1, 0, 0)" xlink:href="#linear-gradient"/>
  </defs>
  <title>viking_3</title>
  <path d="M33.19,49.79H6.49C6.93,18.6,24.8,2,50,2.53l.49,27.26C40.24,30.87,33.43,36.23,33.19,49.79Z" fill="#ad0202" stroke="#000" stroke-miterlimit="10"/>
  <path d="M50.2,2.33C77.33,4.27,92.58,21.92,93.5,48.74H66.65C64.82,37.16,59.76,30.4,51,29.83Z" fill="#ad0202" stroke="#000" stroke-miterlimit="10"/>
  <path d="M33.19,49.79H6.49C7.81,85.91,24.57,98.17,50,97V66.59C41.09,65.56,34.48,61.27,33.19,49.79Z" fill="#ad0202" stroke="#000" stroke-miterlimit="10"/>
  <path d="M66.8,48.74H93.5C93,80.73,78.67,97.09,50,97V66.59C60.06,64.94,66.2,59.51,66.8,48.74Z" fill="#ad0202" stroke="#000" stroke-miterlimit="10"/>
  <path d="M42,3a24.44,24.44,0,0,1,14.44.28V96.77a33,33,0,0,1-14.44,0Z" fill="#fff" stroke="#000" stroke-miterlimit="10" stroke-width="0.5"/>
  <path d="M92.75,42.37a23.74,23.74,0,0,1,.42,13.74l-27.6.3L7,57.14A24.31,24.31,0,0,1,7,43.4Z" fill="#fff" stroke="#000" stroke-miterlimit="10" stroke-width="0.5"/>
  <ellipse cx="49.87" cy="48.29" rx="16.78" ry="18.55" stroke="#000" stroke-miterlimit="10" stroke-width="0.5" fill="url(#linear-gradient)"/>
  <ellipse cx="49.94" cy="48.08" rx="9.94" ry="10.98" stroke="#000" stroke-miterlimit="10" stroke-width="0.5" fill="url(#linear-gradient-2)"/>
  <ellipse cx="43.57" cy="60.81" rx="2.47" ry="2.63" stroke="#000" stroke-miterlimit="10" stroke-width="0.25" fill="url(#linear-gradient-3)"/>
  <ellipse cx="49.5" cy="62.91" rx="2.47" ry="2.63" stroke="#000" stroke-miterlimit="10" stroke-width="0.25" fill="url(#linear-gradient-4)"/>
  <ellipse cx="56.42" cy="60.81" rx="2.47" ry="2.63" stroke="#000" stroke-miterlimit="10" stroke-width="0.25" fill="url(#linear-gradient-5)"/>
  <ellipse cx="61.86" cy="56.09" rx="2.47" ry="2.63" stroke="#000" stroke-miterlimit="10" stroke-width="0.25" fill="url(#linear-gradient-6)"/>
  <ellipse cx="63.34" cy="48.21" rx="2.47" ry="2.63" stroke="#000" stroke-miterlimit="10" stroke-width="0.25" fill="url(#linear-gradient-7)"/>
  <ellipse cx="61.36" cy="40.86" rx="2.47" ry="2.63" stroke="#000" stroke-miterlimit="10" stroke-width="0.25" fill="url(#linear-gradient-8)"/>
  <ellipse cx="55.43" cy="34.56" rx="2.47" ry="2.63" stroke="#000" stroke-miterlimit="10" stroke-width="0.25" fill="url(#linear-gradient-9)"/>
  <ellipse cx="48.51" cy="33.51" rx="2.47" ry="2.63" stroke="#000" stroke-miterlimit="10" stroke-width="0.25" fill="url(#linear-gradient-10)"/>
  <ellipse cx="41.59" cy="36.66" rx="2.47" ry="2.63" stroke="#000" stroke-miterlimit="10" stroke-width="0.25" fill="url(#linear-gradient-11)"/>
  <ellipse cx="37.64" cy="41.91" rx="2.47" ry="2.63" stroke="#000" stroke-miterlimit="10" stroke-width="0.25" fill="url(#linear-gradient-12)"/>
  <ellipse cx="36.65" cy="49.26" rx="2.47" ry="2.63" stroke="#000" stroke-miterlimit="10" stroke-width="0.25" fill="url(#linear-gradient-13)"/>
  <ellipse cx="38.62" cy="55.56" rx="2.47" ry="2.63" stroke="#000" stroke-miterlimit="10" stroke-width="0.25" fill="url(#linear-gradient-14)"/>
</svg>
