<svg id="Layer_1" data-name="Layer 1" xmlns="http://www.w3.org/2000/svg" xmlns:xlink="http://www.w3.org/1999/xlink" width="100" height="110" viewBox="0 -5 100 110">
  <defs>
    <linearGradient id="linear-gradient" x1="38.2" y1="58.64" x2="92.37" y2="27.36" gradientTransform="matrix(1, 0.05, -0.05, 1, -11.06, -15.24)" gradientUnits="userSpaceOnUse">
      <stop offset="0" stop-color="#fff"/>
      <stop offset="1" stop-color="gray"/>
    </linearGradient>
  </defs>
  <title>viking_5</title>
  <path d="M21.23,89.17l-1.49-.88a7.43,7.43,0,0,1-2.61-10L36.76,43.5a7.07,7.07,0,0,1,9.75-2.67l1.49.88a7.43,7.43,0,0,1,2.61,10L31,86.5A7.07,7.07,0,0,1,21.23,89.17Z" fill="#9e0d0d" stroke="#000" stroke-miterlimit="10"/>
  <ellipse cx="21.53" cy="87.55" rx="9.83" ry="10.06" fill="#700b0b" stroke="#000" stroke-miterlimit="10"/>
  <path d="M67.16,59.49,20.51,35.72A7.38,7.38,0,0,1,17.32,26L26.88,6.29A7.06,7.06,0,0,1,36.42,3L83.06,26.79a7.38,7.38,0,0,1,3.2,9.76L76.69,56.22A7.06,7.06,0,0,1,67.16,59.49Z" stroke="#000" stroke-miterlimit="10" fill="url(#linear-gradient)"/>
  <g>
    <path d="M33.58,8.72s1.1.93.89,1.31c-.67,1.24-2.57-.43-1.78-1.31,0,0,.89-.88,1.78-.44A3.42,3.42,0,0,1,35.81,10s0,.88-1.34,1.31a3.47,3.47,0,0,1-2.67-.44,4.26,4.26,0,0,1,0-2.63A2,2,0,0,1,33.58,7a5.7,5.7,0,0,1,2.67.88A1.55,1.55,0,0,0,38,6.53a3.18,3.18,0,0,0-2.23-3.07A4.5,4.5,0,0,0,34,3.9c-.89.44-.45,1.75-.45,1.75A3.67,3.67,0,0,0,35.81,7a1.09,1.09,0,0,0,.89-.88,2.14,2.14,0,0,0-1.34-1.75,1,1,0,0,0-.89.88c.41.41.78.73.89.44" fill="none" stroke="#000" stroke-miterlimit="10" stroke-width="0.25"/>
    <path d="M21.56,32.38s1.1.93.89,1.31c-.67,1.24-2.57-.43-1.78-1.31,0,0,.89-.88,1.78-.44a3.42,3.42,0,0,1,1.34,1.75s0,.88-1.34,1.31a3.47,3.47,0,0,1-2.67-.44,4.26,4.26,0,0,1,0-2.63,2,2,0,0,1,1.78-1.31,5.7,5.7,0,0,1,2.67.88A1.55,1.55,0,0,0,26,30.19a3.18,3.18,0,0,0-2.23-3.07,4.5,4.5,0,0,0-1.78.44c-.89.44-.45,1.75-.45,1.75a3.67,3.67,0,0,0,2.23,1.31,1.09,1.09,0,0,0,.89-.88A2.14,2.14,0,0,0,23.34,28a1,1,0,0,0-.89.88c.41.41.78.73.89.44" fill="none" stroke="#000" stroke-miterlimit="10" stroke-width="0.25"/>
    <path d="M25.26,24.19s1.1.93.89,1.31c-.67,1.24-2.57-.43-1.78-1.31,0,0,.89-.88,1.78-.44a3.42,3.42,0,0,1,1.34,1.75s0,.88-1.34,1.31a3.47,3.47,0,0,1-2.67-.44,4.26,4.26,0,0,1,0-2.63,2,2,0,0,1,1.78-1.31,5.7,5.7,0,0,1,2.67.88A1.55,1.55,0,0,0,29.71,22a3.18,3.18,0,0,0-2.23-3.07,4.5,4.5,0,0,0-1.78.44c-.89.44-.45,1.75-.45,1.75a3.67,3.67,0,0,0,2.23,1.31,1.09,1.09,0,0,0,.89-.88A2.14,2.14,0,0,0,27,19.81a1,1,0,0,0-.89.88c.41.41.78.73.89.44" fill="none" stroke="#000" stroke-miterlimit="10" stroke-width="0.25"/>
    <path d="M30.33,13.92s1.43.2,1.59-.21c.5-1.31-2-1.61-2.18-.44,0,0-.08,1.24.85,1.6a3.53,3.53,0,0,0,2.22-.18s.67-.58.12-1.86a3.42,3.42,0,0,0-2.1-1.68,4.37,4.37,0,0,0-2,1.74A1.93,1.93,0,0,0,29,15.08a5.67,5.67,0,0,0,2.44,1.39,1.51,1.51,0,0,1,.18,2.18A3.26,3.26,0,0,1,27.8,19a4.35,4.35,0,0,1-.85-1.6C26.7,16.49,28,16,28,16a3.7,3.7,0,0,1,2.48.77A1.06,1.06,0,0,1,30.39,18a2.19,2.19,0,0,1-2.22.18,1,1,0,0,1,.08-1.24c.59,0,1.08.1.92.37" fill="none" stroke="#000" stroke-miterlimit="10" stroke-width="0.25"/>
  </g>
  <g>
    <path d="M77.05,30.73s1.11.93.9,1.32c-.67,1.24-2.58-.43-1.79-1.32,0,0,.9-.88,1.79-.44a3.44,3.44,0,0,1,1.34,1.76s0,.88-1.34,1.32a3.49,3.49,0,0,1-2.69-.44,4.28,4.28,0,0,1,0-2.64A2,2,0,0,1,77.05,29a5.73,5.73,0,0,1,2.69.88,1.56,1.56,0,0,0,1.79-1.32,3.2,3.2,0,0,0-2.24-3.09,4.52,4.52,0,0,0-1.79.44c-.9.44-.45,1.76-.45,1.76A3.69,3.69,0,0,0,79.29,29a1.09,1.09,0,0,0,.9-.88,2.15,2.15,0,0,0-1.34-1.76,1,1,0,0,0-.9.88c.42.42.79.73.9.44" fill="none" stroke="#000" stroke-miterlimit="10" stroke-width="0.25"/>
    <path d="M65,54.53s1.11.93.9,1.32c-.67,1.24-2.58-.43-1.79-1.32,0,0,.9-.88,1.79-.44a3.44,3.44,0,0,1,1.34,1.76s0,.88-1.34,1.32a3.49,3.49,0,0,1-2.69-.44,4.28,4.28,0,0,1,0-2.64A2,2,0,0,1,65,52.76a5.73,5.73,0,0,1,2.69.88,1.56,1.56,0,0,0,1.79-1.32,3.2,3.2,0,0,0-2.24-3.09,4.52,4.52,0,0,0-1.79.44c-.9.44-.45,1.76-.45,1.76a3.69,3.69,0,0,0,2.24,1.32,1.09,1.09,0,0,0,.9-.88,2.15,2.15,0,0,0-1.34-1.76,1,1,0,0,0-.9.88c.42.42.79.73.9.44" fill="none" stroke="#000" stroke-miterlimit="10" stroke-width="0.25"/>
    <path d="M68.68,46.29s1.11.93.9,1.32c-.67,1.24-2.58-.43-1.79-1.32,0,0,.9-.88,1.79-.44a3.44,3.44,0,0,1,1.34,1.76s0,.88-1.34,1.32a3.49,3.49,0,0,1-2.69-.44,4.28,4.28,0,0,1,0-2.64,2,2,0,0,1,1.79-1.32,5.73,5.73,0,0,1,2.69.88,1.56,1.56,0,0,0,1.79-1.32A3.2,3.2,0,0,0,70.92,41a4.52,4.52,0,0,0-1.79.44c-.9.44-.45,1.76-.45,1.76a3.69,3.69,0,0,0,2.24,1.32,1.09,1.09,0,0,0,.9-.88,2.15,2.15,0,0,0-1.34-1.76,1,1,0,0,0-.9.88c.42.42.79.73.9.44" fill="none" stroke="#000" stroke-miterlimit="10" stroke-width="0.25"/>
    <path d="M73.78,36s1.44.2,1.6-.21c.5-1.32-2-1.62-2.19-.45,0,0-.08,1.24.85,1.61a3.55,3.55,0,0,0,2.23-.18s.67-.58.12-1.87a3.44,3.44,0,0,0-2.11-1.69,4.4,4.4,0,0,0-2,1.75,1.94,1.94,0,0,0,.18,2.2,5.7,5.7,0,0,0,2.45,1.4,1.52,1.52,0,0,1,.18,2.2,3.28,3.28,0,0,1-3.83.39,4.37,4.37,0,0,1-.85-1.61c-.26-1,1-1.5,1-1.5a3.72,3.72,0,0,1,2.49.78A1.07,1.07,0,0,1,73.84,40a2.21,2.21,0,0,1-2.23.18A1,1,0,0,1,71.69,39c.59,0,1.08.1.93.37" fill="none" stroke="#000" stroke-miterlimit="10" stroke-width="0.25"/>
  </g>
</svg>
