<svg id="Layer_1" data-name="Layer 1" xmlns="http://www.w3.org/2000/svg" xmlns:xlink="http://www.w3.org/1999/xlink" width="466" height="225" viewBox="0 0 466 225">
  <defs>
    <linearGradient id="linear-gradient" x1="375.94" y1="201.22" x2="395.49" y2="201.22" gradientUnits="userSpaceOnUse">
      <stop offset="0" stop-color="#8c6239"/>
      <stop offset="0.13" stop-color="#724b29" stop-opacity="0.99"/>
      <stop offset="0.28" stop-color="#5d381c" stop-opacity="0.97"/>
      <stop offset="0.43" stop-color="#4e2b12" stop-opacity="0.97"/>
      <stop offset="0.62" stop-color="#45230d" stop-opacity="0.96"/>
      <stop offset="0.88" stop-color="#42210b" stop-opacity="0.96"/>
    </linearGradient>
    <linearGradient id="linear-gradient-2" x1="406.08" y1="201.22" x2="425.63" y2="201.22" xlink:href="#linear-gradient"/>
    <linearGradient id="linear-gradient-3" x1="273.14" y1="286.47" x2="322.24" y2="286.47" gradientTransform="matrix(0.87, -0.5, 0.74, 1.28, -111.03, -92.25)" gradientUnits="userSpaceOnUse">
      <stop offset="0" stop-color="#e2ccaf"/>
      <stop offset="0.28" stop-color="#e2caac"/>
      <stop offset="0.5" stop-color="#e3c3a2"/>
      <stop offset="0.7" stop-color="#e3b892"/>
      <stop offset="0.88" stop-color="#e4a77a"/>
      <stop offset="1" stop-color="#e59a67"/>
    </linearGradient>
    <linearGradient id="linear-gradient-4" x1="366.57" y1="147.9" x2="433.37" y2="147.9" xlink:href="#linear-gradient"/>
    <linearGradient id="linear-gradient-5" x1="-510.42" y1="187.72" x2="-476.63" y2="168.21" gradientTransform="matrix(-1, 0.05, 0.05, 1, -168.91, -49.98)" gradientUnits="userSpaceOnUse">
      <stop offset="0" stop-color="#fff"/>
      <stop offset="1" stop-color="gray"/>
    </linearGradient>
    <linearGradient id="linear-gradient-6" x1="399.97" y1="103.29" x2="399.97" y2="43.82" gradientTransform="matrix(1, 0, 0, 1, 0, 0)" xlink:href="#linear-gradient-3"/>
    <linearGradient id="linear-gradient-7" x1="419.17" y1="111.28" x2="441.57" y2="111.28" gradientTransform="translate(3.56 26.17) scale(1 1.04)" gradientUnits="userSpaceOnUse">
      <stop offset="0" stop-color="#666"/>
      <stop offset="0.07" stop-color="#7f7f7f" stop-opacity="0.99"/>
      <stop offset="0.16" stop-color="#969696" stop-opacity="0.99"/>
      <stop offset="0.25" stop-color="#a6a6a6" stop-opacity="0.98"/>
      <stop offset="0.36" stop-color="#b0b0b0" stop-opacity="0.98"/>
      <stop offset="0.51" stop-color="#b3b3b3" stop-opacity="0.98"/>
      <stop offset="0.61" stop-color="#afafaf" stop-opacity="0.98"/>
      <stop offset="0.71" stop-color="#a4a4a4" stop-opacity="0.98"/>
      <stop offset="0.8" stop-color="#909090" stop-opacity="0.97"/>
      <stop offset="0.9" stop-color="#757575" stop-opacity="0.97"/>
      <stop offset="0.99" stop-color="#535353" stop-opacity="0.96"/>
      <stop offset="1" stop-color="#4d4d4d" stop-opacity="0.96"/>
    </linearGradient>
    <linearGradient id="linear-gradient-8" x1="423.79" y1="111.11" x2="437.05" y2="111.11" xlink:href="#linear-gradient-7"/>
    <linearGradient id="linear-gradient-9" x1="426.57" y1="152" x2="429.85" y2="152" gradientTransform="matrix(1, 0, 0, 1, 0, 0)" xlink:href="#linear-gradient-7"/>
    <linearGradient id="linear-gradient-10" x1="430.51" y1="153.76" x2="433.8" y2="153.76" gradientTransform="matrix(1, 0, 0, 1, 0, 0)" xlink:href="#linear-gradient-7"/>
    <linearGradient id="linear-gradient-11" x1="435.11" y1="152" x2="438.4" y2="152" gradientTransform="matrix(1, 0, 0, 1, 0, 0)" xlink:href="#linear-gradient-7"/>
    <linearGradient id="linear-gradient-12" x1="438.73" y1="148.04" x2="442.02" y2="148.04" gradientTransform="matrix(1, 0, 0, 1, 0, 0)" xlink:href="#linear-gradient-7"/>
    <linearGradient id="linear-gradient-13" x1="439.71" y1="141.45" x2="443" y2="141.45" gradientTransform="matrix(1, 0, 0, 1, 0, 0)" xlink:href="#linear-gradient-7"/>
    <linearGradient id="linear-gradient-14" x1="438.4" y1="135.3" x2="441.69" y2="135.3" gradientTransform="matrix(1, 0, 0, 1, 0, 0)" xlink:href="#linear-gradient-7"/>
    <linearGradient id="linear-gradient-15" x1="434.46" y1="130.03" x2="437.74" y2="130.03" gradientTransform="matrix(1, 0, 0, 1, 0, 0)" xlink:href="#linear-gradient-7"/>
    <linearGradient id="linear-gradient-16" x1="429.85" y1="129.15" x2="433.14" y2="129.15" gradientTransform="matrix(1, 0, 0, 1, 0, 0)" xlink:href="#linear-gradient-7"/>
    <linearGradient id="linear-gradient-17" x1="425.25" y1="131.78" x2="428.54" y2="131.78" gradientTransform="matrix(1, 0, 0, 1, 0, 0)" xlink:href="#linear-gradient-7"/>
    <linearGradient id="linear-gradient-18" x1="422.62" y1="136.18" x2="425.91" y2="136.18" gradientTransform="matrix(1, 0, 0, 1, 0, 0)" xlink:href="#linear-gradient-7"/>
    <linearGradient id="linear-gradient-19" x1="421.97" y1="142.33" x2="425.25" y2="142.33" gradientTransform="matrix(1, 0, 0, 1, 0, 0)" xlink:href="#linear-gradient-7"/>
    <linearGradient id="linear-gradient-20" x1="423.28" y1="147.61" x2="426.57" y2="147.61" gradientTransform="matrix(1, 0, 0, 1, 0, 0)" xlink:href="#linear-gradient-7"/>
    <linearGradient id="linear-gradient-21" x1="330.72" y1="137.64" x2="351.91" y2="137.64" gradientTransform="matrix(1, 0, 0, 1, 0, 0)" xlink:href="#linear-gradient-3"/>
    <linearGradient id="linear-gradient-22" x1="64.94" y1="201.22" x2="84.49" y2="201.22" xlink:href="#linear-gradient"/>
    <linearGradient id="linear-gradient-23" x1="95.08" y1="201.22" x2="114.63" y2="201.22" xlink:href="#linear-gradient"/>
    <linearGradient id="linear-gradient-24" x1="3.8" y1="181.26" x2="52.91" y2="181.26" xlink:href="#linear-gradient-3"/>
    <linearGradient id="linear-gradient-25" x1="55.57" y1="147.9" x2="122.37" y2="147.9" xlink:href="#linear-gradient"/>
    <linearGradient id="linear-gradient-26" x1="-199.88" y1="170.79" x2="-166.09" y2="151.28" xlink:href="#linear-gradient-5"/>
    <linearGradient id="linear-gradient-27" x1="88.97" y1="103.29" x2="88.97" y2="43.82" gradientTransform="matrix(1, 0, 0, 1, 0, 0)" xlink:href="#linear-gradient-3"/>
    <linearGradient id="linear-gradient-28" x1="107.06" y1="111.28" x2="129.46" y2="111.28" xlink:href="#linear-gradient-7"/>
    <linearGradient id="linear-gradient-29" x1="111.68" y1="111.11" x2="124.94" y2="111.11" xlink:href="#linear-gradient-7"/>
    <linearGradient id="linear-gradient-30" x1="115.57" y1="152" x2="118.85" y2="152" gradientTransform="matrix(1, 0, 0, 1, 0, 0)" xlink:href="#linear-gradient-7"/>
    <linearGradient id="linear-gradient-31" x1="119.51" y1="153.76" x2="122.8" y2="153.76" gradientTransform="matrix(1, 0, 0, 1, 0, 0)" xlink:href="#linear-gradient-7"/>
    <linearGradient id="linear-gradient-32" x1="124.11" y1="152" x2="127.4" y2="152" gradientTransform="matrix(1, 0, 0, 1, 0, 0)" xlink:href="#linear-gradient-7"/>
    <linearGradient id="linear-gradient-33" x1="127.73" y1="148.04" x2="131.02" y2="148.04" gradientTransform="matrix(1, 0, 0, 1, 0, 0)" xlink:href="#linear-gradient-7"/>
    <linearGradient id="linear-gradient-34" x1="128.71" y1="141.45" x2="132" y2="141.45" gradientTransform="matrix(1, 0, 0, 1, 0, 0)" xlink:href="#linear-gradient-7"/>
    <linearGradient id="linear-gradient-35" x1="127.4" y1="135.3" x2="130.69" y2="135.3" gradientTransform="matrix(1, 0, 0, 1, 0, 0)" xlink:href="#linear-gradient-7"/>
    <linearGradient id="linear-gradient-36" x1="123.46" y1="130.03" x2="126.74" y2="130.03" gradientTransform="matrix(1, 0, 0, 1, 0, 0)" xlink:href="#linear-gradient-7"/>
    <linearGradient id="linear-gradient-37" x1="118.85" y1="129.15" x2="122.14" y2="129.15" gradientTransform="matrix(1, 0, 0, 1, 0, 0)" xlink:href="#linear-gradient-7"/>
    <linearGradient id="linear-gradient-38" x1="114.25" y1="131.78" x2="117.54" y2="131.78" gradientTransform="matrix(1, 0, 0, 1, 0, 0)" xlink:href="#linear-gradient-7"/>
    <linearGradient id="linear-gradient-39" x1="111.62" y1="136.18" x2="114.91" y2="136.18" gradientTransform="matrix(1, 0, 0, 1, 0, 0)" xlink:href="#linear-gradient-7"/>
    <linearGradient id="linear-gradient-40" x1="110.97" y1="142.33" x2="114.25" y2="142.33" gradientTransform="matrix(1, 0, 0, 1, 0, 0)" xlink:href="#linear-gradient-7"/>
    <linearGradient id="linear-gradient-41" x1="112.28" y1="147.61" x2="115.57" y2="147.61" gradientTransform="matrix(1, 0, 0, 1, 0, 0)" xlink:href="#linear-gradient-7"/>
    <linearGradient id="linear-gradient-42" x1="19.72" y1="137.64" x2="40.91" y2="137.64" gradientTransform="matrix(1, 0, 0, 1, 0, 0)" xlink:href="#linear-gradient-3"/>
    <linearGradient id="linear-gradient-43" x1="219.94" y1="201.22" x2="239.49" y2="201.22" xlink:href="#linear-gradient"/>
    <linearGradient id="linear-gradient-44" x1="250.08" y1="201.22" x2="269.63" y2="201.22" xlink:href="#linear-gradient"/>
    <linearGradient id="linear-gradient-45" x1="138.04" y1="233.7" x2="187.14" y2="233.7" xlink:href="#linear-gradient-3"/>
    <linearGradient id="linear-gradient-46" x1="210.57" y1="147.9" x2="277.37" y2="147.9" xlink:href="#linear-gradient"/>
    <linearGradient id="linear-gradient-47" x1="-354.65" y1="179.22" x2="-320.86" y2="159.71" xlink:href="#linear-gradient-5"/>
    <linearGradient id="linear-gradient-48" x1="243.97" y1="103.29" x2="243.97" y2="43.82" gradientTransform="matrix(1, 0, 0, 1, 0, 0)" xlink:href="#linear-gradient-3"/>
    <linearGradient id="linear-gradient-49" x1="262.61" y1="111.28" x2="285.01" y2="111.28" xlink:href="#linear-gradient-7"/>
    <linearGradient id="linear-gradient-50" x1="267.23" y1="111.11" x2="280.49" y2="111.11" xlink:href="#linear-gradient-7"/>
    <linearGradient id="linear-gradient-51" x1="270.57" y1="152" x2="273.85" y2="152" gradientTransform="matrix(1, 0, 0, 1, 0, 0)" xlink:href="#linear-gradient-7"/>
    <linearGradient id="linear-gradient-52" x1="274.51" y1="153.76" x2="277.8" y2="153.76" gradientTransform="matrix(1, 0, 0, 1, 0, 0)" xlink:href="#linear-gradient-7"/>
    <linearGradient id="linear-gradient-53" x1="279.11" y1="152" x2="282.4" y2="152" gradientTransform="matrix(1, 0, 0, 1, 0, 0)" xlink:href="#linear-gradient-7"/>
    <linearGradient id="linear-gradient-54" x1="282.73" y1="148.04" x2="286.02" y2="148.04" gradientTransform="matrix(1, 0, 0, 1, 0, 0)" xlink:href="#linear-gradient-7"/>
    <linearGradient id="linear-gradient-55" x1="283.71" y1="141.45" x2="287" y2="141.45" gradientTransform="matrix(1, 0, 0, 1, 0, 0)" xlink:href="#linear-gradient-7"/>
    <linearGradient id="linear-gradient-56" x1="282.4" y1="135.3" x2="285.69" y2="135.3" gradientTransform="matrix(1, 0, 0, 1, 0, 0)" xlink:href="#linear-gradient-7"/>
    <linearGradient id="linear-gradient-57" x1="278.46" y1="130.03" x2="281.74" y2="130.03" gradientTransform="matrix(1, 0, 0, 1, 0, 0)" xlink:href="#linear-gradient-7"/>
    <linearGradient id="linear-gradient-58" x1="273.85" y1="129.15" x2="277.14" y2="129.15" gradientTransform="matrix(1, 0, 0, 1, 0, 0)" xlink:href="#linear-gradient-7"/>
    <linearGradient id="linear-gradient-59" x1="269.25" y1="131.78" x2="272.54" y2="131.78" gradientTransform="matrix(1, 0, 0, 1, 0, 0)" xlink:href="#linear-gradient-7"/>
    <linearGradient id="linear-gradient-60" x1="266.62" y1="136.18" x2="269.91" y2="136.18" gradientTransform="matrix(1, 0, 0, 1, 0, 0)" xlink:href="#linear-gradient-7"/>
    <linearGradient id="linear-gradient-61" x1="265.97" y1="142.33" x2="269.25" y2="142.33" gradientTransform="matrix(1, 0, 0, 1, 0, 0)" xlink:href="#linear-gradient-7"/>
    <linearGradient id="linear-gradient-62" x1="267.28" y1="147.61" x2="270.57" y2="147.61" gradientTransform="matrix(1, 0, 0, 1, 0, 0)" xlink:href="#linear-gradient-7"/>
    <linearGradient id="linear-gradient-63" x1="174.72" y1="137.64" x2="195.91" y2="137.64" gradientTransform="matrix(1, 0, 0, 1, 0, 0)" xlink:href="#linear-gradient-3"/>
  </defs>
  <title>viking_char</title>
  <rect x="375.94" y="180.2" width="19.55" height="42.04" rx="7.44" stroke="#000" stroke-miterlimit="10" fill="url(#linear-gradient)"/>
  <rect x="406.08" y="180.2" width="19.55" height="42.04" rx="6.39" stroke="#000" stroke-miterlimit="10" fill="url(#linear-gradient-2)"/>
  <path d="M345.91,144.35l31.75-23.07c2.14-1.55,2.88-5,1.64-7.71l-2.14-4.66c-1.23-2.69-4-3.62-6.12-2.07l-31.75,23.07c-2.13,1.55-2.87,5-1.64,7.71l2.14,4.67C341,145,343.78,145.9,345.91,144.35Z" stroke="#000" stroke-miterlimit="10" fill="url(#linear-gradient-3)"/>
  <rect x="366.57" y="105.86" width="66.8" height="84.08" rx="14.5" stroke="#000" stroke-miterlimit="10" fill="url(#linear-gradient-4)"/>
  <path d="M352.51,146l.93-.69c2.11-1.56,2.83-5.07,1.62-7.79l-12.17-27.15c-1.22-2.72-3.94-3.66-6-2.09l-.93.69c-2.1,1.57-2.83,5.07-1.62,7.79L346.47,144C347.69,146.67,350.41,147.61,352.51,146Z" fill="#9e0d0d" stroke="#000" stroke-miterlimit="10"/>
  <ellipse cx="352.33" cy="144.77" rx="6.09" ry="7.85" fill="#700b0b" stroke="#000" stroke-miterlimit="10"/>
  <path d="M324,122.88,353,104.33c2.17-1.39,3.06-4.82,2-7.61L349,81.37c-1.08-2.8-3.74-4-5.91-2.56L314.18,97.36c-2.17,1.4-3.06,4.82-2,7.62l5.93,15.35C319.21,123.13,321.87,124.28,324,122.88Z" stroke="#000" stroke-miterlimit="10" fill="url(#linear-gradient-5)"/>
  <g>
    <path d="M344.86,83.27s-.68.72-.55,1c.41,1,1.59-.33,1.1-1,0,0-.55-.69-1.1-.35a2.72,2.72,0,0,0-.83,1.37,1.2,1.2,0,0,0,.83,1A1.81,1.81,0,0,0,346,85a4.19,4.19,0,0,0,0-2.06s-.27-1-1.1-1a3.13,3.13,0,0,0-1.66.68c-.56.07-.94-.26-1.1-1,.1-1.24.53-2.09,1.38-2.4a2.31,2.31,0,0,1,1.1.34c.55.35.28,1.37.28,1.37a2.3,2.3,0,0,1-1.38,1,.78.78,0,0,1-.55-.69,1.62,1.62,0,0,1,.82-1.36c.27,0,.48.21.56.68-.26.32-.49.57-.56.34" fill="none" stroke="#000" stroke-miterlimit="10" stroke-width="0.25"/>
    <path d="M352.31,101.73s-.68.72-.55,1c.41,1,1.59-.34,1.1-1,0,0-.55-.68-1.1-.34a2.76,2.76,0,0,0-.83,1.37,1.19,1.19,0,0,0,.83,1,1.82,1.82,0,0,0,1.66-.34,4.15,4.15,0,0,0,0-2s-.28-1-1.11-1a3.11,3.11,0,0,0-1.66.69c-.56.06-.93-.27-1.1-1,.11-1.24.53-2.08,1.38-2.39A2.36,2.36,0,0,1,352,98c.55.34.27,1.37.27,1.37a2.2,2.2,0,0,1-1.38,1,.77.77,0,0,1-.55-.68,1.65,1.65,0,0,1,.83-1.37c.26,0,.47.22.55.68-.26.33-.49.57-.55.35" fill="none" stroke="#000" stroke-miterlimit="10" stroke-width="0.25"/>
    <path d="M350,95.34s-.68.72-.55,1c.41,1,1.59-.33,1.1-1,0,0-.55-.69-1.1-.34a2.67,2.67,0,0,0-.83,1.36,1.2,1.2,0,0,0,.83,1,1.81,1.81,0,0,0,1.65-.34,4.15,4.15,0,0,0,0-2s-.27-1-1.1-1a3.13,3.13,0,0,0-1.66.68c-.56.07-.94-.26-1.1-1,.1-1.24.53-2.08,1.38-2.4a2.26,2.26,0,0,1,1.1.35c.55.34.28,1.36.28,1.36a2.27,2.27,0,0,1-1.38,1,.77.77,0,0,1-.55-.68,1.64,1.64,0,0,1,.82-1.37c.27,0,.48.22.56.68-.26.32-.49.57-.56.34" fill="none" stroke="#000" stroke-miterlimit="10" stroke-width="0.25"/>
    <path d="M346.88,87.32s-.89.16-1-.16c-.31-1,1.26-1.26,1.35-.35,0,0,.05,1-.52,1.25a1.76,1.76,0,0,1-1.38-.14s-.41-.45-.07-1.44a2.24,2.24,0,0,1,1.3-1.32,3,3,0,0,1,1.24,1.36,1.84,1.84,0,0,1-.11,1.71,3.33,3.33,0,0,1-1.51,1.08,1.41,1.41,0,0,0-.11,1.71,1.71,1.71,0,0,0,2.36.3,3.65,3.65,0,0,0,.53-1.25c.16-.74-.65-1.16-.65-1.16a2,2,0,0,0-1.53.6,1,1,0,0,0,0,1,1.11,1.11,0,0,0,1.37.14.87.87,0,0,0,0-1c-.36,0-.66.07-.57.28" fill="none" stroke="#000" stroke-miterlimit="10" stroke-width="0.25"/>
  </g>
  <g>
    <path d="M317.91,100.44s-.69.73-.56,1c.42,1,1.6-.34,1.11-1,0,0-.55-.69-1.11-.34a2.76,2.76,0,0,0-.83,1.37,1.2,1.2,0,0,0,.83,1,1.81,1.81,0,0,0,1.67-.34,4.19,4.19,0,0,0,0-2.06s-.28-1-1.11-1a3.18,3.18,0,0,0-1.67.68c-.56.07-.94-.26-1.11-1,.11-1.24.54-2.09,1.39-2.41a2.28,2.28,0,0,1,1.11.35c.56.34.28,1.37.28,1.37a2.27,2.27,0,0,1-1.39,1,.79.79,0,0,1-.55-.69A1.67,1.67,0,0,1,316.8,97c.27,0,.48.22.55.69-.25.32-.49.57-.55.34" fill="none" stroke="#000" stroke-miterlimit="10" stroke-width="0.25"/>
    <path d="M325.4,119s-.68.73-.55,1c.41,1,1.6-.34,1.11-1,0,0-.56-.69-1.11-.35A2.73,2.73,0,0,0,324,120a1.2,1.2,0,0,0,.83,1,1.79,1.79,0,0,0,1.66-.34,4.11,4.11,0,0,0,0-2.07s-.27-1-1.11-1a3.11,3.11,0,0,0-1.66.69c-.57.07-.95-.26-1.11-1,.1-1.25.53-2.09,1.39-2.41a2.31,2.31,0,0,1,1.11.35c.55.34.27,1.37.27,1.37a2.24,2.24,0,0,1-1.38,1,.78.78,0,0,1-.56-.69,1.65,1.65,0,0,1,.83-1.37c.27,0,.48.22.56.69-.26.32-.49.57-.56.34" fill="none" stroke="#000" stroke-miterlimit="10" stroke-width="0.25"/>
    <path d="M323.1,112.58s-.69.73-.56,1c.42,1,1.6-.34,1.11-1,0,0-.55-.69-1.11-.34a2.76,2.76,0,0,0-.83,1.37,1.2,1.2,0,0,0,.83,1,1.82,1.82,0,0,0,1.67-.34,4.19,4.19,0,0,0,0-2.06s-.28-1-1.11-1a3.14,3.14,0,0,0-1.67.68c-.57.07-.94-.26-1.11-1,.11-1.24.54-2.09,1.39-2.41a2.31,2.31,0,0,1,1.11.35c.55.34.28,1.37.28,1.37a2.27,2.27,0,0,1-1.39,1,.8.8,0,0,1-.56-.69,1.67,1.67,0,0,1,.84-1.38c.27,0,.48.22.55.69-.26.32-.49.57-.55.34" fill="none" stroke="#000" stroke-miterlimit="10" stroke-width="0.25"/>
    <path d="M319.94,104.52s-.9.15-1-.17c-.32-1,1.26-1.26,1.35-.35,0,0,.05,1-.52,1.26a1.81,1.81,0,0,1-1.39-.13,1.49,1.49,0,0,1-.07-1.46,2.24,2.24,0,0,1,1.31-1.32,3,3,0,0,1,1.25,1.37,1.84,1.84,0,0,1-.11,1.71,3.4,3.4,0,0,1-1.52,1.09,1.4,1.4,0,0,0-.11,1.72c.82.72,1.62.89,2.37.3a3.64,3.64,0,0,0,.53-1.26c.16-.74-.65-1.17-.65-1.17a2,2,0,0,0-1.54.61,1,1,0,0,0,0,1,1.13,1.13,0,0,0,1.38.14.88.88,0,0,0,0-1c-.36,0-.67.07-.57.28" fill="none" stroke="#000" stroke-miterlimit="10" stroke-width="0.25"/>
  </g>
  <rect x="370.64" y="43.82" width="58.66" height="59.47" rx="12" stroke="#000" stroke-miterlimit="10" fill="url(#linear-gradient-6)"/>
  <g>
    <rect x="341.99" y="39.43" width="35.47" height="19.66" rx="7.92" transform="translate(719.45 98.52) rotate(-180)" fill="#f2f0df" stroke="#030000" stroke-miterlimit="10"/>
    <path d="M354.87,39.43s.44-15.77.07-19.66c-1-10.39-12.24-11.32-13.52,0-.43,3.88.57,32,.57,32" fill="#f2f0df" stroke="#030000" stroke-miterlimit="10"/>
    <rect x="420.85" y="38.55" width="35.47" height="19.66" rx="7.92" fill="#f2f0df" stroke="#030000" stroke-miterlimit="10"/>
    <path d="M399.58,61.74l-30.05-.12c0-33.69,13.59-61.38,30.05-61.38S429.64,28,429.64,61.74Z" fill="#c4c4c4" stroke="#030000" stroke-miterlimit="10"/>
    <ellipse cx="373.95" cy="54.55" rx="2.04" ry="2.64" fill="#9b9b9b" stroke="#030000" stroke-miterlimit="10"/>
    <ellipse cx="381.14" cy="54.55" rx="2.04" ry="2.64" fill="#9b9b9b" stroke="#030000" stroke-miterlimit="10"/>
    <ellipse cx="388.62" cy="54.55" rx="2.04" ry="2.64" fill="#9b9b9b" stroke="#030000" stroke-miterlimit="10"/>
    <ellipse cx="395.82" cy="54.55" rx="2.04" ry="2.64" fill="#9b9b9b" stroke="#030000" stroke-miterlimit="10"/>
    <ellipse cx="404.66" cy="54.55" rx="2.04" ry="2.64" fill="#9b9b9b" stroke="#030000" stroke-miterlimit="10"/>
    <ellipse cx="411.85" cy="54.55" rx="2.04" ry="2.64" fill="#9b9b9b" stroke="#030000" stroke-miterlimit="10"/>
    <ellipse cx="419.05" cy="54.55" rx="2.04" ry="2.64" fill="#9b9b9b" stroke="#030000" stroke-miterlimit="10"/>
    <ellipse cx="425.77" cy="54.55" rx="2.04" ry="2.64" fill="#9b9b9b" stroke="#030000" stroke-miterlimit="10"/>
    <path d="M443.45,38.55s-.45-15.76-.07-19.65c1-10.4,12.24-11.33,13.51,0,.43,3.88-.56,32-.56,32" fill="#f2f0df" stroke="#030000" stroke-miterlimit="10"/>
    <line x1="399.88" y1="0.24" x2="399.88" y2="61.06" fill="none" stroke="#030000" stroke-miterlimit="10" stroke-width="0.5"/>
    <ellipse cx="386.84" cy="19.48" rx="12.2" ry="4.31" transform="translate(284.21 392.96) rotate(-77.52)" fill="#fff"/>
  </g>
  <rect x="386.53" y="84.84" width="25.26" height="4.1"/>
  <rect x="408.2" y="72.54" width="9.25" height="2.23"/>
  <rect x="382.52" y="72.54" width="9.25" height="2.23"/>
  <path d="M363.9,96.13c-1.83,1.15-4.58,2.31-3.67,6.92s4.59,4.62,4.59,4.62-.92,6.92,2.75,6.92,6.42-3.46,6.42-3.46a4,4,0,0,0,2.75,3.46c2.75,1.16,6.41-2.31,6.41-2.31s2.75,3.47,5.5,3.47,4.59-3.47,4.59-3.47c2.9,1.66,3.67,4.62,7.33,3.47s3.67-3.47,3.67-3.47l4.58,3.47s2.75,1.15,6.42-1.16,3.67,1.16,5.5,1.16,3.67-3.47,3.67-3.47a34.08,34.08,0,0,0,5.5-1.15c4.58-1.15,4.58-4.62,4.58-4.62s4.59-2.3,4.59-5.77S433,95.25,433,95.25s-4-2.58-6.78-2.58-4.58,6.92-4.58,6.92S418.91,95,414.32,95s-5.5,4.61-5.5,4.61-3.66-4.61-7.33-3.46a10.39,10.39,0,0,0-5.5,4.61S393.24,95,390.49,95s-2.75,5.76-2.75,5.76-3.67-5.76-8.25-6.92-2.75,4.62-2.75,4.62-4.59-8.08-7.34-6.93-1.83,6.93-1.83,6.93S365.74,95,363.9,96.13Z" fill="#fff" stroke="#000" stroke-miterlimit="10" stroke-width="0.25"/>
  <g>
    <path d="M421.31,142.77H403.56c.29-26.1,12.17-40,28.92-39.55l.33,22.81C426,126.94,421.47,131.42,421.31,142.77Z" fill="#ad0202" stroke="#000" stroke-miterlimit="10"/>
    <path d="M432.62,103.05c18,1.63,28.18,16.4,28.79,38.84H443.55c-1.21-9.68-4.57-15.34-10.41-15.82Z" fill="#ad0202" stroke="#000" stroke-miterlimit="10"/>
    <path d="M421.31,142.77H403.56c.88,30.23,12,40.49,28.92,39.55V156.83C426.57,156,422.17,152.38,421.31,142.77Z" fill="#ad0202" stroke="#000" stroke-miterlimit="10"/>
    <path d="M443.66,141.89h17.75c-.33,26.78-9.86,40.47-28.93,40.43V156.83C439.18,155.46,443.26,150.91,443.66,141.89Z" fill="#ad0202" stroke="#000" stroke-miterlimit="10"/>
    <path d="M427.16,103.58a13.1,13.1,0,0,1,9.6.24v78.27a17.59,17.59,0,0,1-9.6,0Z" fill="#fff" stroke="#000" stroke-miterlimit="10" stroke-width="0.5"/>
    <path d="M460.91,136.57a24.74,24.74,0,0,1,.28,11.49l-18.35.26-39,.6a25.38,25.38,0,0,1,0-11.5Z" fill="#fff" stroke="#000" stroke-miterlimit="10" stroke-width="0.5"/>
    <ellipse cx="432.4" cy="141.52" rx="11.16" ry="15.52" stroke="#000" stroke-miterlimit="10" stroke-width="0.5" fill="url(#linear-gradient-7)"/>
    <ellipse cx="432.45" cy="141.34" rx="6.61" ry="9.19" stroke="#000" stroke-miterlimit="10" stroke-width="0.5" fill="url(#linear-gradient-8)"/>
    <ellipse cx="428.21" cy="152" rx="1.64" ry="2.2" stroke="#000" stroke-miterlimit="10" stroke-width="0.25" fill="url(#linear-gradient-9)"/>
    <ellipse cx="432.15" cy="153.76" rx="1.64" ry="2.2" stroke="#000" stroke-miterlimit="10" stroke-width="0.25" fill="url(#linear-gradient-10)"/>
    <ellipse cx="436.76" cy="152" rx="1.64" ry="2.2" stroke="#000" stroke-miterlimit="10" stroke-width="0.25" fill="url(#linear-gradient-11)"/>
    <ellipse cx="440.37" cy="148.04" rx="1.64" ry="2.2" stroke="#000" stroke-miterlimit="10" stroke-width="0.25" fill="url(#linear-gradient-12)"/>
    <ellipse cx="441.36" cy="141.45" rx="1.64" ry="2.2" stroke="#000" stroke-miterlimit="10" stroke-width="0.25" fill="url(#linear-gradient-13)"/>
    <ellipse cx="440.04" cy="135.3" rx="1.64" ry="2.2" stroke="#000" stroke-miterlimit="10" stroke-width="0.25" fill="url(#linear-gradient-14)"/>
    <ellipse cx="436.1" cy="130.03" rx="1.64" ry="2.2" stroke="#000" stroke-miterlimit="10" stroke-width="0.25" fill="url(#linear-gradient-15)"/>
    <ellipse cx="431.5" cy="129.15" rx="1.64" ry="2.2" stroke="#000" stroke-miterlimit="10" stroke-width="0.25" fill="url(#linear-gradient-16)"/>
    <ellipse cx="426.9" cy="131.78" rx="1.64" ry="2.2" stroke="#000" stroke-miterlimit="10" stroke-width="0.25" fill="url(#linear-gradient-17)"/>
    <ellipse cx="424.27" cy="136.18" rx="1.64" ry="2.2" stroke="#000" stroke-miterlimit="10" stroke-width="0.25" fill="url(#linear-gradient-18)"/>
    <ellipse cx="423.61" cy="142.33" rx="1.64" ry="2.2" stroke="#000" stroke-miterlimit="10" stroke-width="0.25" fill="url(#linear-gradient-19)"/>
    <ellipse cx="424.92" cy="147.61" rx="1.64" ry="2.2" stroke="#000" stroke-miterlimit="10" stroke-width="0.25" fill="url(#linear-gradient-20)"/>
  </g>
  <ellipse cx="341.31" cy="137.64" rx="10.59" ry="13.33" stroke="#000" stroke-miterlimit="10" fill="url(#linear-gradient-21)"/>
  <rect x="64.94" y="180.2" width="19.55" height="42.04" rx="7.44" stroke="#000" stroke-miterlimit="10" fill="url(#linear-gradient-22)"/>
  <rect x="95.08" y="180.2" width="19.55" height="42.04" rx="6.39" stroke="#000" stroke-miterlimit="10" fill="url(#linear-gradient-23)"/>
  <path d="M34.91,144.35l31.75-23.07c2.14-1.55,2.88-5,1.64-7.71l-2.14-4.66c-1.23-2.69-4-3.62-6.12-2.07L28.29,129.91c-2.13,1.55-2.87,5-1.64,7.71l2.14,4.67C30,145,32.78,145.9,34.91,144.35Z" stroke="#000" stroke-miterlimit="10" fill="url(#linear-gradient-24)"/>
  <rect x="55.57" y="105.86" width="66.8" height="84.08" rx="14.5" stroke="#000" stroke-miterlimit="10" fill="url(#linear-gradient-25)"/>
  <path d="M41.51,146l.93-.69c2.11-1.56,2.83-5.07,1.62-7.79L31.89,110.41c-1.22-2.72-3.94-3.66-6-2.09l-.93.69c-2.1,1.57-2.83,5.07-1.62,7.79L35.47,144C36.69,146.67,39.41,147.61,41.51,146Z" fill="#9e0d0d" stroke="#000" stroke-miterlimit="10"/>
  <ellipse cx="41.33" cy="144.77" rx="6.09" ry="7.85" fill="#700b0b" stroke="#000" stroke-miterlimit="10"/>
  <path d="M13,122.88,42,104.33c2.17-1.39,3.06-4.82,2-7.61L38,81.37c-1.08-2.8-3.74-4-5.91-2.56L3.18,97.36C1,98.76.12,102.18,1.2,105l5.93,15.35C8.21,123.13,10.87,124.28,13,122.88Z" stroke="#000" stroke-miterlimit="10" fill="url(#linear-gradient-26)"/>
  <g>
    <path d="M33.86,83.27s-.68.72-.55,1c.41,1,1.59-.33,1.1-1,0,0-.55-.69-1.1-.35a2.72,2.72,0,0,0-.83,1.37,1.2,1.2,0,0,0,.83,1A1.81,1.81,0,0,0,35,85a4.19,4.19,0,0,0,0-2.06s-.27-1-1.1-1a3.13,3.13,0,0,0-1.66.68c-.56.07-.94-.26-1.1-1,.1-1.24.53-2.09,1.38-2.4a2.31,2.31,0,0,1,1.1.34c.55.35.28,1.37.28,1.37a2.3,2.3,0,0,1-1.38,1,.78.78,0,0,1-.55-.69,1.62,1.62,0,0,1,.82-1.36c.27,0,.48.21.56.68-.26.32-.49.57-.56.34" fill="none" stroke="#000" stroke-miterlimit="10" stroke-width="0.25"/>
    <path d="M41.31,101.73s-.68.72-.55,1c.41,1,1.59-.34,1.1-1,0,0-.55-.68-1.1-.34a2.76,2.76,0,0,0-.83,1.37,1.19,1.19,0,0,0,.83,1,1.82,1.82,0,0,0,1.66-.34,4.15,4.15,0,0,0,0-2s-.28-1-1.11-1a3.11,3.11,0,0,0-1.66.69c-.56.06-.93-.27-1.1-1,.11-1.24.53-2.08,1.38-2.39A2.36,2.36,0,0,1,41,98c.55.34.27,1.37.27,1.37a2.2,2.2,0,0,1-1.38,1,.77.77,0,0,1-.55-.68,1.65,1.65,0,0,1,.83-1.37c.26,0,.47.22.55.68-.26.33-.49.57-.55.35" fill="none" stroke="#000" stroke-miterlimit="10" stroke-width="0.25"/>
    <path d="M39,95.34s-.68.72-.55,1c.41,1,1.59-.33,1.1-1,0,0-.55-.69-1.1-.34a2.67,2.67,0,0,0-.83,1.36,1.2,1.2,0,0,0,.83,1,1.81,1.81,0,0,0,1.65-.34,4.15,4.15,0,0,0,0-2s-.27-1-1.1-1a3.13,3.13,0,0,0-1.66.68c-.56.07-.94-.26-1.1-1,.1-1.24.53-2.08,1.38-2.4a2.26,2.26,0,0,1,1.1.35c.55.34.28,1.36.28,1.36a2.27,2.27,0,0,1-1.38,1,.77.77,0,0,1-.55-.68,1.64,1.64,0,0,1,.82-1.37c.27,0,.48.22.56.68-.26.32-.49.57-.56.34" fill="none" stroke="#000" stroke-miterlimit="10" stroke-width="0.25"/>
    <path d="M35.88,87.32s-.89.16-1-.16c-.31-1,1.26-1.26,1.35-.35,0,0,0,1-.52,1.25a1.76,1.76,0,0,1-1.38-.14s-.41-.45-.07-1.44a2.24,2.24,0,0,1,1.3-1.32,3,3,0,0,1,1.24,1.36,1.84,1.84,0,0,1-.11,1.71,3.33,3.33,0,0,1-1.51,1.08A1.41,1.41,0,0,0,35.08,91a1.71,1.71,0,0,0,2.36.3A3.65,3.65,0,0,0,38,90.07c.16-.74-.65-1.16-.65-1.16a2,2,0,0,0-1.53.6,1,1,0,0,0,.05,1,1.11,1.11,0,0,0,1.37.14.87.87,0,0,0-.05-1c-.36,0-.66.07-.57.28" fill="none" stroke="#000" stroke-miterlimit="10" stroke-width="0.25"/>
  </g>
  <g>
    <path d="M6.91,100.44s-.69.73-.56,1c.42,1,1.6-.34,1.11-1,0,0-.55-.69-1.11-.34a2.76,2.76,0,0,0-.83,1.37,1.2,1.2,0,0,0,.83,1A1.81,1.81,0,0,0,8,102.16a4.19,4.19,0,0,0,0-2.06s-.28-1-1.11-1a3.18,3.18,0,0,0-1.67.68c-.56.07-.94-.26-1.11-1,.11-1.24.54-2.09,1.39-2.41a2.28,2.28,0,0,1,1.11.35c.56.34.28,1.37.28,1.37a2.27,2.27,0,0,1-1.39,1A.79.79,0,0,1,5,98.38,1.67,1.67,0,0,1,5.8,97c.27,0,.48.22.55.69-.25.32-.49.57-.55.34" fill="none" stroke="#000" stroke-miterlimit="10" stroke-width="0.25"/>
    <path d="M14.4,119s-.68.73-.55,1c.41,1,1.6-.34,1.11-1,0,0-.56-.69-1.11-.35A2.73,2.73,0,0,0,13,120a1.2,1.2,0,0,0,.83,1,1.79,1.79,0,0,0,1.66-.34,4.11,4.11,0,0,0,0-2.07s-.27-1-1.11-1a3.11,3.11,0,0,0-1.66.69c-.57.07-1-.26-1.11-1,.1-1.25.53-2.09,1.39-2.41a2.31,2.31,0,0,1,1.11.35c.55.34.27,1.37.27,1.37a2.24,2.24,0,0,1-1.38,1,.78.78,0,0,1-.56-.69,1.65,1.65,0,0,1,.83-1.37c.27,0,.48.22.56.69-.26.32-.49.57-.56.34" fill="none" stroke="#000" stroke-miterlimit="10" stroke-width="0.25"/>
    <path d="M12.1,112.58s-.69.73-.56,1c.42,1,1.6-.34,1.11-1,0,0-.55-.69-1.11-.34a2.76,2.76,0,0,0-.83,1.37,1.2,1.2,0,0,0,.83,1,1.82,1.82,0,0,0,1.67-.34,4.19,4.19,0,0,0,0-2.06s-.28-1-1.11-1a3.14,3.14,0,0,0-1.67.68c-.57.07-.94-.26-1.11-1,.11-1.24.54-2.09,1.39-2.41a2.31,2.31,0,0,1,1.11.35c.55.34.28,1.37.28,1.37a2.27,2.27,0,0,1-1.39,1,.8.8,0,0,1-.56-.69,1.67,1.67,0,0,1,.84-1.38c.27,0,.48.22.55.69-.26.32-.49.57-.55.34" fill="none" stroke="#000" stroke-miterlimit="10" stroke-width="0.25"/>
    <path d="M8.94,104.52s-.9.15-1-.17c-.32-1,1.26-1.26,1.35-.35,0,0,0,1-.52,1.26a1.81,1.81,0,0,1-1.39-.13,1.49,1.49,0,0,1-.07-1.46,2.24,2.24,0,0,1,1.31-1.32,3,3,0,0,1,1.25,1.37,1.84,1.84,0,0,1-.11,1.71,3.4,3.4,0,0,1-1.52,1.09,1.4,1.4,0,0,0-.11,1.72c.82.72,1.62.89,2.37.3a3.64,3.64,0,0,0,.53-1.26c.16-.74-.65-1.17-.65-1.17a2,2,0,0,0-1.54.61,1,1,0,0,0,.05,1,1.13,1.13,0,0,0,1.38.14.88.88,0,0,0,0-1c-.36,0-.67.07-.57.28" fill="none" stroke="#000" stroke-miterlimit="10" stroke-width="0.25"/>
  </g>
  <rect x="59.64" y="43.82" width="58.66" height="59.47" rx="12" stroke="#000" stroke-miterlimit="10" fill="url(#linear-gradient-27)"/>
  <g>
    <rect x="30.99" y="39.43" width="35.47" height="19.66" rx="7.92" transform="translate(97.45 98.52) rotate(-180)" fill="#f2f0df" stroke="#030000" stroke-miterlimit="10"/>
    <path d="M43.87,39.43s.44-15.77.07-19.66c-1-10.39-12.24-11.32-13.52,0-.43,3.88.57,32,.57,32" fill="#f2f0df" stroke="#030000" stroke-miterlimit="10"/>
    <rect x="109.85" y="38.55" width="35.47" height="19.66" rx="7.92" fill="#f2f0df" stroke="#030000" stroke-miterlimit="10"/>
    <path d="M88.58,61.74l-30-.12C58.56,27.93,72.12.24,88.58.24S118.64,28,118.64,61.74Z" fill="#c4c4c4" stroke="#030000" stroke-miterlimit="10"/>
    <ellipse cx="62.95" cy="54.55" rx="2.04" ry="2.64" fill="#9b9b9b" stroke="#030000" stroke-miterlimit="10"/>
    <ellipse cx="70.14" cy="54.55" rx="2.04" ry="2.64" fill="#9b9b9b" stroke="#030000" stroke-miterlimit="10"/>
    <ellipse cx="77.62" cy="54.55" rx="2.04" ry="2.64" fill="#9b9b9b" stroke="#030000" stroke-miterlimit="10"/>
    <ellipse cx="84.82" cy="54.55" rx="2.04" ry="2.64" fill="#9b9b9b" stroke="#030000" stroke-miterlimit="10"/>
    <ellipse cx="93.66" cy="54.55" rx="2.04" ry="2.64" fill="#9b9b9b" stroke="#030000" stroke-miterlimit="10"/>
    <ellipse cx="100.85" cy="54.55" rx="2.04" ry="2.64" fill="#9b9b9b" stroke="#030000" stroke-miterlimit="10"/>
    <ellipse cx="108.05" cy="54.55" rx="2.04" ry="2.64" fill="#9b9b9b" stroke="#030000" stroke-miterlimit="10"/>
    <ellipse cx="114.77" cy="54.55" rx="2.04" ry="2.64" fill="#9b9b9b" stroke="#030000" stroke-miterlimit="10"/>
    <path d="M132.45,38.55s-.45-15.76-.07-19.65c1-10.4,12.24-11.33,13.51,0,.43,3.88-.56,32-.56,32" fill="#f2f0df" stroke="#030000" stroke-miterlimit="10"/>
    <line x1="88.88" y1="0.24" x2="88.88" y2="61.06" fill="none" stroke="#030000" stroke-miterlimit="10" stroke-width="0.5"/>
    <ellipse cx="75.84" cy="19.48" rx="12.2" ry="4.31" transform="translate(40.43 89.31) rotate(-77.52)" fill="#fff"/>
  </g>
  <ellipse cx="75.12" cy="73.04" rx="2.85" ry="3.59"/>
  <ellipse cx="101.6" cy="73.56" rx="2.85" ry="3.59"/>
  <rect x="75.53" y="84.84" width="25.26" height="4.1"/>
  <path d="M52.9,96.13c-1.83,1.15-4.58,2.31-3.67,6.92s4.59,4.62,4.59,4.62-.92,6.92,2.75,6.92S63,111.13,63,111.13a4,4,0,0,0,2.75,3.46c2.75,1.16,6.41-2.31,6.41-2.31s2.75,3.47,5.5,3.47,4.59-3.47,4.59-3.47c2.9,1.66,3.67,4.62,7.33,3.47s3.67-3.47,3.67-3.47l4.58,3.47s2.75,1.15,6.42-1.16,3.67,1.16,5.5,1.16,3.67-3.47,3.67-3.47a34.08,34.08,0,0,0,5.5-1.15c4.58-1.15,4.58-4.62,4.58-4.62s4.59-2.3,4.59-5.77S122,95.25,122,95.25s-4-2.58-6.78-2.58-4.58,6.92-4.58,6.92S107.91,95,103.32,95s-5.5,4.61-5.5,4.61S94.16,95,90.49,96.13a10.39,10.39,0,0,0-5.5,4.61S82.24,95,79.49,95s-2.75,5.76-2.75,5.76S73.07,95,68.49,93.82s-2.75,4.62-2.75,4.62-4.59-8.08-7.34-6.93-1.83,6.93-1.83,6.93S54.74,95,52.9,96.13Z" fill="#fff" stroke="#000" stroke-miterlimit="10" stroke-width="0.25"/>
  <g>
    <path d="M110.31,142.77H92.56c.29-26.1,12.17-40,28.92-39.55l.33,22.81C115,126.94,110.47,131.42,110.31,142.77Z" fill="#ad0202" stroke="#000" stroke-miterlimit="10"/>
    <path d="M121.62,103.05c18,1.63,28.18,16.4,28.79,38.84H132.55c-1.21-9.68-4.57-15.34-10.41-15.82Z" fill="#ad0202" stroke="#000" stroke-miterlimit="10"/>
    <path d="M110.31,142.77H92.56c.88,30.23,12,40.49,28.92,39.55V156.83C115.57,156,111.17,152.38,110.31,142.77Z" fill="#ad0202" stroke="#000" stroke-miterlimit="10"/>
    <path d="M132.66,141.89h17.75c-.33,26.78-9.86,40.47-28.93,40.43V156.83C128.18,155.46,132.26,150.91,132.66,141.89Z" fill="#ad0202" stroke="#000" stroke-miterlimit="10"/>
    <path d="M116.16,103.58a13.1,13.1,0,0,1,9.6.24v78.27a17.59,17.59,0,0,1-9.6,0Z" fill="#fff" stroke="#000" stroke-miterlimit="10" stroke-width="0.5"/>
    <path d="M149.91,136.57a24.74,24.74,0,0,1,.28,11.49l-18.35.26-39,.6a25.38,25.38,0,0,1,0-11.5Z" fill="#fff" stroke="#000" stroke-miterlimit="10" stroke-width="0.5"/>
    <ellipse cx="121.4" cy="141.52" rx="11.16" ry="15.52" stroke="#000" stroke-miterlimit="10" stroke-width="0.5" fill="url(#linear-gradient-28)"/>
    <ellipse cx="121.45" cy="141.34" rx="6.61" ry="9.19" stroke="#000" stroke-miterlimit="10" stroke-width="0.5" fill="url(#linear-gradient-29)"/>
    <ellipse cx="117.21" cy="152" rx="1.64" ry="2.2" stroke="#000" stroke-miterlimit="10" stroke-width="0.25" fill="url(#linear-gradient-30)"/>
    <ellipse cx="121.15" cy="153.76" rx="1.64" ry="2.2" stroke="#000" stroke-miterlimit="10" stroke-width="0.25" fill="url(#linear-gradient-31)"/>
    <ellipse cx="125.76" cy="152" rx="1.64" ry="2.2" stroke="#000" stroke-miterlimit="10" stroke-width="0.25" fill="url(#linear-gradient-32)"/>
    <ellipse cx="129.37" cy="148.04" rx="1.64" ry="2.2" stroke="#000" stroke-miterlimit="10" stroke-width="0.25" fill="url(#linear-gradient-33)"/>
    <ellipse cx="130.36" cy="141.45" rx="1.64" ry="2.2" stroke="#000" stroke-miterlimit="10" stroke-width="0.25" fill="url(#linear-gradient-34)"/>
    <ellipse cx="129.04" cy="135.3" rx="1.64" ry="2.2" stroke="#000" stroke-miterlimit="10" stroke-width="0.25" fill="url(#linear-gradient-35)"/>
    <ellipse cx="125.1" cy="130.03" rx="1.64" ry="2.2" stroke="#000" stroke-miterlimit="10" stroke-width="0.25" fill="url(#linear-gradient-36)"/>
    <ellipse cx="120.5" cy="129.15" rx="1.64" ry="2.2" stroke="#000" stroke-miterlimit="10" stroke-width="0.25" fill="url(#linear-gradient-37)"/>
    <ellipse cx="115.9" cy="131.78" rx="1.64" ry="2.2" stroke="#000" stroke-miterlimit="10" stroke-width="0.25" fill="url(#linear-gradient-38)"/>
    <ellipse cx="113.27" cy="136.18" rx="1.64" ry="2.2" stroke="#000" stroke-miterlimit="10" stroke-width="0.25" fill="url(#linear-gradient-39)"/>
    <ellipse cx="112.61" cy="142.33" rx="1.64" ry="2.2" stroke="#000" stroke-miterlimit="10" stroke-width="0.25" fill="url(#linear-gradient-40)"/>
    <ellipse cx="113.92" cy="147.61" rx="1.64" ry="2.2" stroke="#000" stroke-miterlimit="10" stroke-width="0.25" fill="url(#linear-gradient-41)"/>
  </g>
  <ellipse cx="30.31" cy="137.64" rx="10.59" ry="13.33" stroke="#000" stroke-miterlimit="10" fill="url(#linear-gradient-42)"/>
  <g>
    <rect x="219.94" y="180.2" width="19.55" height="42.04" rx="7.44" stroke="#000" stroke-miterlimit="10" fill="url(#linear-gradient-43)"/>
    <rect x="250.08" y="180.2" width="19.55" height="42.04" rx="6.39" stroke="#000" stroke-miterlimit="10" fill="url(#linear-gradient-44)"/>
    <path d="M189.91,144.35l31.75-23.07c2.14-1.55,2.88-5,1.64-7.71l-2.14-4.66c-1.23-2.69-4-3.62-6.12-2.07l-31.75,23.07c-2.13,1.55-2.87,5-1.64,7.71l2.14,4.67C185,145,187.78,145.9,189.91,144.35Z" stroke="#000" stroke-miterlimit="10" fill="url(#linear-gradient-45)"/>
    <rect x="210.57" y="105.86" width="66.8" height="84.08" rx="14.5" stroke="#000" stroke-miterlimit="10" fill="url(#linear-gradient-46)"/>
    <path d="M196.51,146l.93-.69c2.11-1.56,2.83-5.07,1.62-7.79l-12.17-27.15c-1.22-2.72-3.94-3.66-6-2.09l-.93.69c-2.1,1.57-2.83,5.07-1.62,7.79L190.47,144C191.69,146.67,194.41,147.61,196.51,146Z" fill="#9e0d0d" stroke="#000" stroke-miterlimit="10"/>
    <ellipse cx="196.33" cy="144.77" rx="6.09" ry="7.85" fill="#700b0b" stroke="#000" stroke-miterlimit="10"/>
    <path d="M168,122.88,197,104.33c2.17-1.39,3.06-4.82,2-7.61L193,81.37c-1.08-2.8-3.74-4-5.91-2.56L158.18,97.36c-2.17,1.4-3.06,4.82-2,7.62l5.93,15.35C163.21,123.13,165.87,124.28,168,122.88Z" stroke="#000" stroke-miterlimit="10" fill="url(#linear-gradient-47)"/>
    <g>
      <path d="M188.86,83.27s-.68.72-.55,1c.41,1,1.59-.33,1.1-1,0,0-.55-.69-1.1-.35a2.72,2.72,0,0,0-.83,1.37,1.2,1.2,0,0,0,.83,1A1.81,1.81,0,0,0,190,85a4.19,4.19,0,0,0,0-2.06s-.27-1-1.1-1a3.13,3.13,0,0,0-1.66.68c-.56.07-.94-.26-1.1-1,.1-1.24.53-2.09,1.38-2.4a2.31,2.31,0,0,1,1.1.34c.55.35.28,1.37.28,1.37a2.3,2.3,0,0,1-1.38,1,.78.78,0,0,1-.55-.69,1.62,1.62,0,0,1,.82-1.36c.27,0,.48.21.56.68-.26.32-.49.57-.56.34" fill="none" stroke="#000" stroke-miterlimit="10" stroke-width="0.25"/>
      <path d="M196.31,101.73s-.68.72-.55,1c.41,1,1.59-.34,1.1-1,0,0-.55-.68-1.1-.34a2.76,2.76,0,0,0-.83,1.37,1.19,1.19,0,0,0,.83,1,1.82,1.82,0,0,0,1.66-.34,4.15,4.15,0,0,0,0-2s-.28-1-1.11-1a3.11,3.11,0,0,0-1.66.69c-.56.06-.93-.27-1.1-1,.11-1.24.53-2.08,1.38-2.39A2.36,2.36,0,0,1,196,98c.55.34.27,1.37.27,1.37a2.2,2.2,0,0,1-1.38,1,.77.77,0,0,1-.55-.68,1.65,1.65,0,0,1,.83-1.37c.26,0,.47.22.55.68-.26.33-.49.57-.55.35" fill="none" stroke="#000" stroke-miterlimit="10" stroke-width="0.25"/>
      <path d="M194,95.34s-.68.72-.55,1c.41,1,1.59-.33,1.1-1,0,0-.55-.69-1.1-.34a2.67,2.67,0,0,0-.83,1.36,1.2,1.2,0,0,0,.83,1,1.81,1.81,0,0,0,1.65-.34,4.15,4.15,0,0,0,0-2s-.27-1-1.1-1a3.13,3.13,0,0,0-1.66.68c-.56.07-.94-.26-1.1-1,.1-1.24.53-2.08,1.38-2.4a2.26,2.26,0,0,1,1.1.35c.55.34.28,1.36.28,1.36a2.27,2.27,0,0,1-1.38,1,.77.77,0,0,1-.55-.68,1.64,1.64,0,0,1,.82-1.37c.27,0,.48.22.56.68-.26.32-.49.57-.56.34" fill="none" stroke="#000" stroke-miterlimit="10" stroke-width="0.25"/>
      <path d="M190.88,87.32s-.89.16-1-.16c-.31-1,1.26-1.26,1.35-.35,0,0,0,1-.52,1.25a1.76,1.76,0,0,1-1.38-.14s-.41-.45-.07-1.44a2.24,2.24,0,0,1,1.3-1.32,3,3,0,0,1,1.24,1.36,1.84,1.84,0,0,1-.11,1.71,3.33,3.33,0,0,1-1.51,1.08,1.41,1.41,0,0,0-.11,1.71,1.71,1.71,0,0,0,2.36.3,3.65,3.65,0,0,0,.53-1.25c.16-.74-.65-1.16-.65-1.16a2,2,0,0,0-1.53.6,1,1,0,0,0,.05,1,1.11,1.11,0,0,0,1.37.14.87.87,0,0,0-.05-1c-.36,0-.66.07-.57.28" fill="none" stroke="#000" stroke-miterlimit="10" stroke-width="0.25"/>
    </g>
    <g>
      <path d="M161.91,100.44s-.69.73-.56,1c.42,1,1.6-.34,1.11-1,0,0-.55-.69-1.11-.34a2.76,2.76,0,0,0-.83,1.37,1.2,1.2,0,0,0,.83,1,1.81,1.81,0,0,0,1.67-.34,4.19,4.19,0,0,0,0-2.06s-.28-1-1.11-1a3.18,3.18,0,0,0-1.67.68c-.56.07-.94-.26-1.11-1,.11-1.24.54-2.09,1.39-2.41a2.28,2.28,0,0,1,1.11.35c.56.34.28,1.37.28,1.37a2.27,2.27,0,0,1-1.39,1,.79.79,0,0,1-.55-.69A1.67,1.67,0,0,1,160.8,97c.27,0,.48.22.55.69-.25.32-.49.57-.55.34" fill="none" stroke="#000" stroke-miterlimit="10" stroke-width="0.25"/>
      <path d="M169.4,119s-.68.73-.55,1c.41,1,1.6-.34,1.11-1,0,0-.56-.69-1.11-.35A2.73,2.73,0,0,0,168,120a1.2,1.2,0,0,0,.83,1,1.79,1.79,0,0,0,1.66-.34,4.11,4.11,0,0,0,0-2.07s-.27-1-1.11-1a3.11,3.11,0,0,0-1.66.69c-.57.07-1-.26-1.11-1,.1-1.25.53-2.09,1.39-2.41a2.31,2.31,0,0,1,1.11.35c.55.34.27,1.37.27,1.37a2.24,2.24,0,0,1-1.38,1,.78.78,0,0,1-.56-.69,1.65,1.65,0,0,1,.83-1.37c.27,0,.48.22.56.69-.26.32-.49.57-.56.34" fill="none" stroke="#000" stroke-miterlimit="10" stroke-width="0.25"/>
      <path d="M167.1,112.58s-.69.73-.56,1c.42,1,1.6-.34,1.11-1,0,0-.55-.69-1.11-.34a2.76,2.76,0,0,0-.83,1.37,1.2,1.2,0,0,0,.83,1,1.82,1.82,0,0,0,1.67-.34,4.19,4.19,0,0,0,0-2.06s-.28-1-1.11-1a3.14,3.14,0,0,0-1.67.68c-.57.07-.94-.26-1.11-1,.11-1.24.54-2.09,1.39-2.41a2.31,2.31,0,0,1,1.11.35c.55.34.28,1.37.28,1.37a2.27,2.27,0,0,1-1.39,1,.8.8,0,0,1-.56-.69,1.67,1.67,0,0,1,.84-1.38c.27,0,.48.22.55.69-.26.32-.49.57-.55.34" fill="none" stroke="#000" stroke-miterlimit="10" stroke-width="0.25"/>
      <path d="M163.94,104.52s-.9.15-1-.17c-.32-1,1.26-1.26,1.35-.35,0,0,0,1-.52,1.26a1.81,1.81,0,0,1-1.39-.13,1.49,1.49,0,0,1-.07-1.46,2.24,2.24,0,0,1,1.31-1.32,3,3,0,0,1,1.25,1.37,1.84,1.84,0,0,1-.11,1.71,3.4,3.4,0,0,1-1.52,1.09,1.4,1.4,0,0,0-.11,1.72c.82.72,1.62.89,2.37.3a3.64,3.64,0,0,0,.53-1.26c.16-.74-.65-1.17-.65-1.17a2,2,0,0,0-1.54.61,1,1,0,0,0,.05,1,1.13,1.13,0,0,0,1.38.14.88.88,0,0,0-.05-1c-.36,0-.67.07-.57.28" fill="none" stroke="#000" stroke-miterlimit="10" stroke-width="0.25"/>
    </g>
    <rect x="214.64" y="43.82" width="58.66" height="59.47" rx="12" stroke="#000" stroke-miterlimit="10" fill="url(#linear-gradient-48)"/>
    <g>
      <rect x="185.99" y="39.43" width="35.47" height="19.66" rx="7.92" transform="translate(407.45 98.52) rotate(-180)" fill="#f2f0df" stroke="#030000" stroke-miterlimit="10"/>
      <path d="M198.87,39.43s.44-15.77.07-19.66c-1-10.39-12.24-11.32-13.52,0-.43,3.88.57,32,.57,32" fill="#f2f0df" stroke="#030000" stroke-miterlimit="10"/>
      <rect x="264.85" y="38.55" width="35.47" height="19.66" rx="7.92" fill="#f2f0df" stroke="#030000" stroke-miterlimit="10"/>
      <path d="M243.58,61.74l-30.05-.12c0-33.69,13.59-61.38,30.05-61.38S273.64,28,273.64,61.74Z" fill="#c4c4c4" stroke="#030000" stroke-miterlimit="10"/>
      <ellipse cx="217.95" cy="54.55" rx="2.04" ry="2.64" fill="#9b9b9b" stroke="#030000" stroke-miterlimit="10"/>
      <ellipse cx="225.14" cy="54.55" rx="2.04" ry="2.64" fill="#9b9b9b" stroke="#030000" stroke-miterlimit="10"/>
      <ellipse cx="232.62" cy="54.55" rx="2.04" ry="2.64" fill="#9b9b9b" stroke="#030000" stroke-miterlimit="10"/>
      <ellipse cx="239.82" cy="54.55" rx="2.04" ry="2.64" fill="#9b9b9b" stroke="#030000" stroke-miterlimit="10"/>
      <ellipse cx="248.66" cy="54.55" rx="2.04" ry="2.64" fill="#9b9b9b" stroke="#030000" stroke-miterlimit="10"/>
      <ellipse cx="255.85" cy="54.55" rx="2.04" ry="2.64" fill="#9b9b9b" stroke="#030000" stroke-miterlimit="10"/>
      <ellipse cx="263.05" cy="54.55" rx="2.04" ry="2.64" fill="#9b9b9b" stroke="#030000" stroke-miterlimit="10"/>
      <ellipse cx="269.77" cy="54.55" rx="2.04" ry="2.64" fill="#9b9b9b" stroke="#030000" stroke-miterlimit="10"/>
      <path d="M287.45,38.55s-.45-15.76-.07-19.65c1-10.4,12.24-11.33,13.51,0,.43,3.88-.56,32-.56,32" fill="#f2f0df" stroke="#030000" stroke-miterlimit="10"/>
      <line x1="243.88" y1="0.24" x2="243.88" y2="61.06" fill="none" stroke="#030000" stroke-miterlimit="10" stroke-width="0.5"/>
      <ellipse cx="230.84" cy="19.48" rx="12.2" ry="4.31" transform="translate(161.93 240.65) rotate(-77.52)" fill="#fff"/>
    </g>
    <ellipse cx="230.12" cy="73.04" rx="2.85" ry="3.59"/>
    <ellipse cx="256.6" cy="73.56" rx="2.85" ry="3.59"/>
    <path d="M207.9,96.13c-1.83,1.15-4.58,2.31-3.67,6.92s4.59,4.62,4.59,4.62-.92,6.92,2.75,6.92,6.42-3.46,6.42-3.46a4,4,0,0,0,2.75,3.46c2.75,1.16,6.41-2.31,6.41-2.31s2.75,3.47,5.5,3.47,4.59-3.47,4.59-3.47c2.9,1.66,3.67,4.62,7.33,3.47s3.67-3.47,3.67-3.47l4.58,3.47s2.75,1.15,6.42-1.16,3.67,1.16,5.5,1.16,3.67-3.47,3.67-3.47a34.08,34.08,0,0,0,5.5-1.15c4.58-1.15,4.58-4.62,4.58-4.62s4.59-2.3,4.59-5.77S277,95.25,277,95.25s-4-2.58-6.78-2.58-4.58,6.92-4.58,6.92S262.91,95,258.32,95s-5.5,4.61-5.5,4.61-3.66-4.61-7.33-3.46a10.39,10.39,0,0,0-5.5,4.61S237.24,95,234.49,95s-2.75,5.76-2.75,5.76-3.67-5.76-8.25-6.92-2.75,4.62-2.75,4.62-4.59-8.08-7.34-6.93-1.83,6.93-1.83,6.93S209.74,95,207.9,96.13Z" fill="#fff" stroke="#000" stroke-miterlimit="10" stroke-width="0.25"/>
    <g>
      <path d="M265.31,142.77H247.56c.29-26.1,12.17-40,28.92-39.55l.33,22.81C270,126.94,265.47,131.42,265.31,142.77Z" fill="#ad0202" stroke="#000" stroke-miterlimit="10"/>
      <path d="M276.62,103.05c18,1.63,28.18,16.4,28.79,38.84H287.55c-1.21-9.68-4.57-15.34-10.41-15.82Z" fill="#ad0202" stroke="#000" stroke-miterlimit="10"/>
      <path d="M265.31,142.77H247.56c.88,30.23,12,40.49,28.92,39.55V156.83C270.57,156,266.17,152.38,265.31,142.77Z" fill="#ad0202" stroke="#000" stroke-miterlimit="10"/>
      <path d="M287.66,141.89h17.75c-.33,26.78-9.86,40.47-28.93,40.43V156.83C283.18,155.46,287.26,150.91,287.66,141.89Z" fill="#ad0202" stroke="#000" stroke-miterlimit="10"/>
      <path d="M271.16,103.58a13.1,13.1,0,0,1,9.6.24v78.27a17.59,17.59,0,0,1-9.6,0Z" fill="#fff" stroke="#000" stroke-miterlimit="10" stroke-width="0.5"/>
      <path d="M304.91,136.57a24.74,24.74,0,0,1,.28,11.49l-18.35.26-39,.6a25.38,25.38,0,0,1,0-11.5Z" fill="#fff" stroke="#000" stroke-miterlimit="10" stroke-width="0.5"/>
      <ellipse cx="276.4" cy="141.52" rx="11.16" ry="15.52" stroke="#000" stroke-miterlimit="10" stroke-width="0.5" fill="url(#linear-gradient-49)"/>
      <ellipse cx="276.45" cy="141.34" rx="6.61" ry="9.19" stroke="#000" stroke-miterlimit="10" stroke-width="0.5" fill="url(#linear-gradient-50)"/>
      <ellipse cx="272.21" cy="152" rx="1.64" ry="2.2" stroke="#000" stroke-miterlimit="10" stroke-width="0.25" fill="url(#linear-gradient-51)"/>
      <ellipse cx="276.15" cy="153.76" rx="1.64" ry="2.2" stroke="#000" stroke-miterlimit="10" stroke-width="0.25" fill="url(#linear-gradient-52)"/>
      <ellipse cx="280.76" cy="152" rx="1.64" ry="2.2" stroke="#000" stroke-miterlimit="10" stroke-width="0.25" fill="url(#linear-gradient-53)"/>
      <ellipse cx="284.37" cy="148.04" rx="1.64" ry="2.2" stroke="#000" stroke-miterlimit="10" stroke-width="0.25" fill="url(#linear-gradient-54)"/>
      <ellipse cx="285.36" cy="141.45" rx="1.64" ry="2.2" stroke="#000" stroke-miterlimit="10" stroke-width="0.25" fill="url(#linear-gradient-55)"/>
      <ellipse cx="284.04" cy="135.3" rx="1.64" ry="2.2" stroke="#000" stroke-miterlimit="10" stroke-width="0.25" fill="url(#linear-gradient-56)"/>
      <ellipse cx="280.1" cy="130.03" rx="1.64" ry="2.2" stroke="#000" stroke-miterlimit="10" stroke-width="0.25" fill="url(#linear-gradient-57)"/>
      <ellipse cx="275.5" cy="129.15" rx="1.64" ry="2.2" stroke="#000" stroke-miterlimit="10" stroke-width="0.25" fill="url(#linear-gradient-58)"/>
      <ellipse cx="270.9" cy="131.78" rx="1.64" ry="2.2" stroke="#000" stroke-miterlimit="10" stroke-width="0.25" fill="url(#linear-gradient-59)"/>
      <ellipse cx="268.27" cy="136.18" rx="1.64" ry="2.2" stroke="#000" stroke-miterlimit="10" stroke-width="0.25" fill="url(#linear-gradient-60)"/>
      <ellipse cx="267.61" cy="142.33" rx="1.64" ry="2.2" stroke="#000" stroke-miterlimit="10" stroke-width="0.25" fill="url(#linear-gradient-61)"/>
      <ellipse cx="268.92" cy="147.61" rx="1.64" ry="2.2" stroke="#000" stroke-miterlimit="10" stroke-width="0.25" fill="url(#linear-gradient-62)"/>
    </g>
    <ellipse cx="185.31" cy="137.64" rx="10.59" ry="13.33" stroke="#000" stroke-miterlimit="10" fill="url(#linear-gradient-63)"/>
    <ellipse cx="243.39" cy="87.21" rx="5.22" ry="6.58"/>
  </g>
</svg>
