<svg id="Layer_1" data-name="Layer 1" xmlns="http://www.w3.org/2000/svg" xmlns:xlink="http://www.w3.org/1999/xlink" width="100" height="110" viewBox="0 -5 100 110">
  <defs>
    <linearGradient id="linear-gradient" x1="4.08" y1="49.4" x2="96.99" y2="49.4" gradientUnits="userSpaceOnUse">
      <stop offset="0" stop-color="#fff"/>
      <stop offset="1" stop-color="#efe584" stop-opacity="0.96"/>
    </linearGradient>
    <linearGradient id="linear-gradient-2" x1="47.89" y1="72.17" x2="53.63" y2="72.17" xlink:href="#linear-gradient"/>
    <linearGradient id="linear-gradient-3" x1="55.71" y1="69.87" x2="62.7" y2="69.87" xlink:href="#linear-gradient"/>
    <linearGradient id="linear-gradient-4" x1="53.25" y1="73.31" x2="57.08" y2="73.31" xlink:href="#linear-gradient"/>
  </defs>
  <title>native_2</title>
  <g>
    <path d="M53.63,63.08C55.47,49.76,64.5,44.47,77.27,43.36a32.49,32.49,0,0,1,19.11,3.88c4.18-9.16-14-37.35-25.91-38.47C58.58,2.05,41.4,8,29.34,10.06c12.63.56,22.34,3.38,20.72,12.29-12-6.77-23.7-4.47-35.3,0,14.71,1.42,27.45,3.76,29.15,11.31-11.22-6.56-23.06-2.09-35,3.88,13.31-1,26.78-2,31.74,2.58C26.75,37.14,15.33,49,4.08,61.78c15-7.84,29.74-15.45,35.62-12C27.15,52.59,18,66,10.23,83.12,22.39,70.2,34.64,58.61,47.47,57.26,40.78,63.71,38.6,71.85,40,81.34a55.19,55.19,0,0,0,3.25,11.8,107.77,107.77,0,0,1,3.51-10.75c1.67-4,3.75-6.82,6.86-7Z" stroke="#000" stroke-miterlimit="10" stroke-width="2" fill="url(#linear-gradient)"/>
    <path d="M50.71,84.41a45.17,45.17,0,0,1-1.93-24.48c1.16,1.72,2.58,2.86,4.85,2.18C51.31,67.94,50.55,75.63,50.71,84.41Z" stroke="#000" stroke-miterlimit="10" stroke-width="2" fill="url(#linear-gradient-2)"/>
    <path d="M59,59.21c2.87,5.33,3.72,12.84,3.67,21.32C61,72.86,59,66,55.71,61.76Z" stroke="#000" stroke-miterlimit="10" fill="url(#linear-gradient-3)"/>
    <path d="M53.63,62.11c-1,7.37,0,15,2.59,23a80.38,80.38,0,0,0,0-23.49Z" stroke="#000" stroke-miterlimit="10" fill="url(#linear-gradient-4)"/>
    <path d="M50.39,49.82q1.36-1.92,2.86-3.68C62.2,35.57,75,30.56,95.57,36.08L90.2,44.6,85.53,34.47c-2.48,3.76-5,7.58-6.54,8.78L72.9,34.79a22.21,22.21,0,0,1-3.64,10.27l-10.61-3.8,1.45,7.92C54.29,48,51.28,48.29,50.39,49.82Z" fill="#9b1012" stroke="#000" stroke-miterlimit="10"/>
    <path d="M60.1,55.64a6.48,6.48,0,1,1-6.47-6.46A6.47,6.47,0,0,1,60.1,55.64Z" fill="#9b1012" stroke="#000" stroke-miterlimit="10"/>
    <path d="M96.38,47.24a23.61,23.61,0,0,0-.81-10.68l-5.35,8.09L85.37,34.31l-5.83,8.92-6.2-7.82-3.12,9.11L58.48,41.09l2.21,8.09-5-.69,3.42,2.63C71.89,46.34,84.32,44.84,96.38,47.24Z" fill="#005e29" stroke="#000" stroke-miterlimit="10"/>
    <path d="M23.86,61.22c3.48-1,5.25.28,4.91,4.51A121.05,121.05,0,0,0,8,86.35C13.4,75.72,18.75,66.53,23.86,61.22Z" fill="#191919" stroke="#000" stroke-miterlimit="10"/>
    <path d="M28,61.81a158.6,158.6,0,0,0-17,19.53" fill="#f9f7e5" stroke="#000" stroke-miterlimit="10" stroke-width="4"/>
    <path d="M47.47,57.26l3.24-2.59,2.92,3.73,3.56-3.73,1.94,3.23c1.48-3.8.81-7-4.58-8.72C48.28,49.58,47,52.88,47.47,57.26Z" fill="#005e29" stroke="#000" stroke-miterlimit="10"/>
    <path d="M18.49,47.4c3.77.75,5.93,2.18,5.92,4.5-7.18,3.29-14.29,6.61-21.14,10C7.45,56.46,12.88,51.87,18.49,47.4Z" fill="#191919" stroke="#000" stroke-miterlimit="10"/>
    <path d="M20.76,31.88c2.16,1.62,2.57,3.24,1.26,4.87a123.38,123.38,0,0,0-17.13,1.6Z" fill="#191919" stroke="#000" stroke-miterlimit="10"/>
    <path d="M27.88,18c1.88,1.66,2.12,3.6-.46,6.05-5-1.77-10.33-1.73-15.73-1.52C17.72,19.7,23.44,17.53,27.88,18Z" fill="#191919" stroke="#000" stroke-miterlimit="10"/>
    <path d="M42.37,7.4c.56,1.37,0,2.75-1.67,4.12l-14.12-1.3A72.17,72.17,0,0,1,42.37,7.4Z" fill="#191919" stroke="#000" stroke-miterlimit="10" stroke-width="2"/>
    <path d="M39.75,79.25c3-1.71,5.41-.48,7.62,1.8a60.22,60.22,0,0,0-4.43,15C41,89.69,39.57,83.83,39.75,79.25Z" fill="#191919" stroke="#000" stroke-miterlimit="10"/>
    <path d="M44.07,77.14c-1.25,5.49-1.4,13.51-1,21" fill="none" stroke="#fff" stroke-miterlimit="10"/>
    <path d="M28.85,60.33C22,67.91,14.82,77,7.48,86.84" fill="none" stroke="#fff" stroke-miterlimit="10"/>
    <path d="M24.32,48.37c-5.59,2.71-14.24,9-23.32,15.84" fill="none" stroke="#fff" stroke-miterlimit="10"/>
    <path d="M22.51,33.81C17.34,34.3,10.78,36,3.59,38.35" fill="none" stroke="#fff" stroke-miterlimit="10"/>
    <path d="M29.32,20.49c-5.11-.74-11.9.47-19.25,2.34" fill="none" stroke="#fff" stroke-miterlimit="10"/>
    <path d="M42.37,9.46a140,140,0,0,0-16.76.76" fill="none" stroke="#fff" stroke-miterlimit="10"/>
    <path d="M47.47,72.13l.42.08,3.26.69a96.26,96.26,0,0,0-.44,12.16" fill="#191919" stroke="#000" stroke-miterlimit="10"/>
    <path d="M53.63,73.29h3.45l-.7,11.93A50.62,50.62,0,0,1,53.63,73.29Z" fill="#191919" stroke="#000" stroke-miterlimit="10"/>
    <polygon points="60.27 69.38 61.72 67.31 62.86 81.34 60.27 69.38" fill="#191919" stroke="#000" stroke-miterlimit="10"/>
    <path d="M94.89,35.11l-3-6.25C72.37,19.58,35.59,40.58,44.37,57.78l3-.89c-.83-3.33.53-5.62,3-7.39C55,42.29,62.26,37.36,72,34.61,80.49,34.08,88.32,34.09,94.89,35.11Z" fill="#d34802" stroke="#000" stroke-miterlimit="10"/>
  </g>
</svg>
