<svg id="Layer_1" data-name="Layer 1" xmlns="http://www.w3.org/2000/svg" xmlns:xlink="http://www.w3.org/1999/xlink" width="1391" height="1485" viewBox="0 0 1391 1485">
  <defs>
    <linearGradient id="linear-gradient" x1="-0.5" y1="362.39" x2="1393.19" y2="362.39" gradientTransform="matrix(1, 0, 0, -1, 0, 1485)" gradientUnits="userSpaceOnUse">
      <stop offset="0" stop-color="#39b54a"/>
      <stop offset="1" stop-color="#0f5109" stop-opacity="0.96"/>
    </linearGradient>
    <linearGradient id="linear-gradient-2" x1="-3" y1="1104.8" x2="1390.69" y2="1104.8" gradientTransform="matrix(1, 0, 0, -1, 0, 1485)" gradientUnits="userSpaceOnUse">
      <stop offset="0" stop-color="#fff"/>
      <stop offset="1" stop-color="#8fd2ea"/>
    </linearGradient>
    <linearGradient id="linear-gradient-3" x1="30.97" y1="763.04" x2="162.21" y2="763.04" gradientTransform="matrix(1, 0, 0, -1, 0, 1485)" gradientUnits="userSpaceOnUse">
      <stop offset="0" stop-color="#fbb03b"/>
      <stop offset="1" stop-color="#9e8613"/>
    </linearGradient>
    <linearGradient id="linear-gradient-4" x1="141.96" y1="743.96" x2="328.66" y2="743.96" xlink:href="#linear-gradient-3"/>
    <linearGradient id="linear-gradient-5" x1="138.14" y1="269.87" x2="231.38" y2="108.37" gradientTransform="matrix(1, 0, 0, -1, 0, 1485)" gradientUnits="userSpaceOnUse">
      <stop offset="0" stop-color="#603813" stop-opacity="0.96"/>
      <stop offset="1" stop-color="#6b070c"/>
    </linearGradient>
    <linearGradient id="linear-gradient-6" x1="1159.16" y1="718.75" x2="1159.16" y2="1132.98" gradientTransform="matrix(1, 0, 0, -1, 0, 1485)" gradientUnits="userSpaceOnUse">
      <stop offset="0.02" stop-color="#333"/>
      <stop offset="0.2" stop-color="#4b4946"/>
      <stop offset="0.4" stop-color="#605c56"/>
      <stop offset="0.53" stop-color="#68635c"/>
      <stop offset="0.55" stop-color="#736e67"/>
      <stop offset="0.66" stop-color="#a4a19d"/>
      <stop offset="0.77" stop-color="#cbcac7"/>
      <stop offset="0.86" stop-color="#e8e7e6"/>
      <stop offset="0.94" stop-color="#f9f9f8"/>
      <stop offset="1" stop-color="#fff"/>
    </linearGradient>
    <radialGradient id="radial-gradient" cx="1539.21" cy="513.83" r="51.32" gradientTransform="matrix(0.95, 0, 0, -1.03, -240.87, 1482.99)" gradientUnits="userSpaceOnUse">
      <stop offset="0" stop-color="#f7931e"/>
      <stop offset="0.05" stop-color="#e98a1d"/>
      <stop offset="0.2" stop-color="#bf711a"/>
      <stop offset="0.35" stop-color="#9d5d17"/>
      <stop offset="0.51" stop-color="#824d15"/>
      <stop offset="0.66" stop-color="#6f4114"/>
      <stop offset="0.83" stop-color="#643a13"/>
      <stop offset="1" stop-color="#603813"/>
    </radialGradient>
    <linearGradient id="linear-gradient-7" x1="829.16" y1="722.16" x2="829.16" y2="1012.07" xlink:href="#linear-gradient-6"/>
    <linearGradient id="linear-gradient-8" x1="1004.15" y1="766.06" x2="1135.4" y2="766.06" xlink:href="#linear-gradient-3"/>
    <linearGradient id="linear-gradient-9" x1="1115.13" y1="746.98" x2="1301.84" y2="746.98" xlink:href="#linear-gradient-3"/>
    <linearGradient id="linear-gradient-10" x1="327.15" y1="750.94" x2="391.47" y2="750.94" xlink:href="#linear-gradient-3"/>
    <linearGradient id="linear-gradient-11" x1="1225.79" y1="503.61" x2="1225.79" y2="614.1" gradientTransform="matrix(1, 0, 0, -1, 0, 1485)" gradientUnits="userSpaceOnUse">
      <stop offset="0" stop-color="#ed1c24"/>
      <stop offset="0.07" stop-color="#ee2c23"/>
      <stop offset="0.26" stop-color="#f15121"/>
      <stop offset="0.45" stop-color="#f46e20"/>
      <stop offset="0.64" stop-color="#f6821f"/>
      <stop offset="0.82" stop-color="#f78f1e"/>
      <stop offset="1" stop-color="#f7931e"/>
    </linearGradient>
  </defs>
  <title>Artboard 1</title>
  <rect x="-0.5" y="760.72" width="1393.69" height="723.78" fill="url(#linear-gradient)"/>
  <rect x="-3" y="0.19" width="1393.69" height="760.02" fill="url(#linear-gradient-2)"/>
  <g>
    <polygon points="162.21 779.07 96.59 779.09 30.97 779.11 63.77 721.96 96.56 664.81 129.39 721.94 162.21 779.07" stroke="#000" stroke-miterlimit="10" fill="url(#linear-gradient-3)"/>
    <polygon points="114.38 778.74 93.9 778.75 73.41 778.75 83.64 750.85 93.88 722.95 104.13 750.84 114.38 778.74"/>
  </g>
  <polygon points="328.66 822.28 235.31 822.3 141.96 822.33 188.61 741.04 235.26 659.74 281.96 741.01 328.66 822.28" stroke="#000" stroke-miterlimit="10" fill="url(#linear-gradient-4)"/>
  <polygon points="264.47 821.57 232.32 821.58 200.17 821.59 216.24 777.79 232.29 734 248.38 777.79 264.47 821.57"/>
  <g>
    <g>
      <polygon points="140.72 207.77 125.41 237.37 118.41 202.27 104.69 219.19 108.39 194.61 70.86 239.37 90.51 177.02 35.43 196.19 82.27 153.85 22.13 147.57 82.66 129.95 61.35 107.11 90.31 111.14 43.82 50.66 105.71 93.08 101.13 57.72 138.37 80.88 156.73 54.89 175.53 85.66 209.97 75.5 190.23 112.43 215.28 112.43 199.92 128.59 256.25 117.67 210.21 152.03 244.91 162.3 205.2 174.48 232.5 200.59 191.8 189.16 197.86 228.92 174.66 201.71 154.76 262.61 140.72 207.77" fill="#f7b541"/>
      <path d="M46.14,52.87l58.36,40,1.85,1.26-.29-2.22-4.3-33.22,36,22.34.8.5.54-.78,17.65-25,18.21,29.8.4.65L176,86,209,76.29l-18.73,35.17-.8,1.48h24.72L200.68,127.1l-2.17,2.29,3.09-.61,52.63-10.2L210.76,151l-1.61,1.21,1.92.56,32.14,9.52-37.3,11.44-1.64.5,1.24,1.19,25.22,24.16-38-10.68-1.45-.48.23,1.54,5.68,37.24-21.47-25.16-1.16-1.36-.56,1.7-19.09,58.38-13.28-51.89-.67-2.55-1.2,2.33-14,27.18-6.56-32.64-.42-2.09-1.34,1.65L105.5,217.45l3.12-21,.53-3.52-2.29,2.72L72.09,237.12l18.6-59,.6-1.91-1.88.66-51.81,18L81.76,155l1.68-1.52-2.24-.26-56.47-5.9L82,130.63l1.57-.46L82.46,129,62.68,107.8,89,111.47l2.43.33L90,109.86l-43.82-57m-4.66-4.36,47.69,62-29.15-4,21.71,23.29L19.53,147.9l61.57,6.31L33.25,197.5l56.49-19.65-20.12,63.8,38-45.3L104,221l14.18-17.59,7,35.47,15.36-29.7,14.14,55.23,20.17-61.68,23.75,27.87-6.21-40.74,41.92,11.76-28.14-26.9,40.5-12.45L211.31,151.8l47-35-56.95,11.07,15.09-15.9H191.08L211,74.68,175.76,85.06,156.73,54,138.2,80.15,100.47,56.69,105,92Z"/>
    </g>
    <path d="M194.85,144.7a52.8,52.8,0,1,1-52.76-53.12,52.3,52.3,0,0,1,21.37,4.56A53.13,53.13,0,0,1,194.85,144.7Z" fill="#f5ff7b"/>
  </g>
  <path d="M1251.05,326h122.62c-14.85-28.82-33.43-43-57.29-22.74,1.28-27.5-49.32-35.12-55.28.52,0,0,7-43-31.16-32.85s-12,55.07-12,55.07Z" fill="#fff" stroke="#000" stroke-miterlimit="10" opacity="0.8" style="isolation: isolate"/>
  <path d="M1224.65,335.64h87.94c-10.65-20.69-24-30.86-41-16.32.92-19.73-35.39-25.17-39.65.36,0,0,5-30.8-22.36-23.55s-8.65,39.51-8.65,39.51Z" fill="#fff" stroke="#000" stroke-miterlimit="10"/>
  <path d="M1009,188.15h186.46c-22.58-43.83-50.83-65.38-87.1-34.56,1.94-41.83-75-53.42-84.11.76,0,0,10.7-65.31-47.38-49.94s-18.35,83.74-18.35,83.74Z" fill="#fff" stroke="#000" stroke-miterlimit="10" opacity="0.8" style="isolation: isolate"/>
  <path d="M968.83,202.76H1102.6c-16.2-31.45-36.46-46.91-62.5-24.81,1.4-30-53.81-38.32-60.31.55,0,0,7.68-46.85-34-35.83s-13.16,60.09-13.16,60.09Z" fill="#fff" stroke="#000" stroke-miterlimit="10"/>
  <path d="M506.44,165.68H312.52c23.49-45.59,52.87-68,90.6-36-2-43.5,78-55.55,87.42.8,0,0-11.13-67.92,49.27-51.94s19.07,87.1,19.07,87.1Z" fill="#fff" stroke="#000" stroke-miterlimit="10" opacity="0.8" style="isolation: isolate"/>
  <path d="M548.2,180.86H409.08c16.85-32.69,37.93-48.8,65-25.8-1.45-31.2,56-39.85,62.71.57,0,0-8-48.72,35.36-37.25s13.67,62.49,13.67,62.49Z" fill="#fff" stroke="#000" stroke-miterlimit="10"/>
  <g>
    <path d="M164.12,1333.72c-4,13.36-3.18,33.22-1.61,54.11h15.4c-2.6-21.38-4.27-42,0-58" fill="#4d0b00" stroke="#000" stroke-miterlimit="10" stroke-width="0.5"/>
    <path d="M72.31,1306.74c-11.33,23.73-17.64,48.13-17.57,73.35l14.11,7.74c1.59-19.77,7-40.61,15.4-62.24C87.71,1307.61,80.63,1306.19,72.31,1306.74Z" fill="#4d0b00" stroke="#000" stroke-miterlimit="10" stroke-width="0.5"/>
    <path d="M247.19,1208.53c-3.52-10.51,1.1-18.27,10.27-24.52a70.2,70.2,0,0,0,1.4,14.54c1,4.27,2.55,7.72,5,10,12.91,13.71,27.35,25.55,44.91,33.54,0,0,5.12,6.44,0,16.77s-10.27,11.61-10.27,11.61c-8.74-7.73-20.85-11.87-35.93-12.91,0,0-12.82,1.3-21.8-2.58s-5.14-19.34-5.14-19.34c-5.28,18.48-13.36,32.74-24.38,42.57,3.93-.69,22.94,12.26,7.94,33.67-.22.32-10.74,11.43-11.79,19.22-1.2,8.94-2.27,60.4,0,59.39H190.73c3-21.92,3.3-42.69,0-61.93-49.41,11.75-70.68,7.24-87.24,0-4.75,18.18-3.81,39.26,0,61.93H84.25a372.76,372.76,0,0,1,0-74.83s-19.25-2.57-15.4-33.54,15.4-38.69,26.94-40,49,14.65,78.26,7.73c0,0,39.78-36.12,51.33-43.86S247.19,1208.53,247.19,1208.53Z" stroke="#000" stroke-miterlimit="10" stroke-width="0.5" fill="url(#linear-gradient-5)"/>
    <path d="M81.53,1251.19c-3.39-14.32-13.32-18.77-25.91-19.19-13.78,2-20.09,11.21-19.37,27.3,11.12,26.49,6.79,45-2.49,63-6.64,8.54-13.75,2.8-20.58-2.09-2.85,11.63,21.91,28,29.22,18.33,3.53-4.68,10.43-20.55,16-37.46,6-18.12,10.48-37.5,7.63-45.46l9.55,10.13C81.83,1264.63,83.63,1259.63,81.53,1251.19Z" stroke="#000" stroke-miterlimit="10" stroke-width="0.5"/>
    <path d="M244.62,1196.91c-19.49,2.38-46.06,28.62-69.28,46.45,1.95,16.35,5.3,21.49,2.57,36.12,9.1-9.41,16.28-18.84,16.68-28.38l5.13,15.47c5.16-7,8.68-17.71,11.54-29.67l5.14,15.49c4.79-8.65,8.67-17.71,9-28.38,5.12,2.88,8,6.18,6.41,10.32,5.37-4,8.12-10.73,9-19.35l9,10.32a84.3,84.3,0,0,1-3.86-28.39H243.3" stroke="#000" stroke-miterlimit="10" stroke-width="0.5"/>
    <path d="M284.4,1208.53a49.28,49.28,0,0,0-26.24-13.87l4.77,12.89a91.76,91.76,0,0,1,7.4,25.49c3-2.86,4-7.42,3.86-12.91,3.74,7.7,6,16.53,7.7,25.8,2.26-6.77,3.22-13.29,1.63-19.34a39.56,39.56,0,0,1,9.91,14.18C296.16,1240.65,292.36,1214.69,284.4,1208.53Z" stroke="#000" stroke-miterlimit="10" stroke-width="0.5"/>
    <ellipse cx="303" cy="1247.87" rx="1.92" ry="1.93" stroke="#000" stroke-miterlimit="10" stroke-width="0.5"/>
    <path d="M307.83,1260.64a191.62,191.62,0,0,1-28.57-10.84" stroke="#000" stroke-miterlimit="10" stroke-width="0.5"/>
    <polygon points="191.9 1380.59 206.21 1380.59 211.26 1390.42 188.17 1390.42 191.9 1380.59" stroke="#000" stroke-miterlimit="10" stroke-width="0.5"/>
    <polygon points="161.23 1380.09 177.91 1380.09 181.75 1390.42 157.37 1390.42 161.23 1380.09" stroke="#000" stroke-miterlimit="10" stroke-width="0.5"/>
    <polygon points="83.41 1380.59 101.95 1380.09 107.34 1390.42 80.4 1390.42 83.41 1380.59" stroke="#000" stroke-miterlimit="10" stroke-width="0.5"/>
    <polygon points="54.74 1369.77 69.94 1379.23 72.7 1390.42 52.17 1382.68 54.74 1369.77" stroke="#000" stroke-miterlimit="10" stroke-width="0.5"/>
    <ellipse cx="219.56" cy="1214.3" rx="15.5" ry="2" transform="translate(-703.43 395.26) rotate(-38.17)" fill="#fff" opacity="0.3" style="isolation: isolate"/>
    <ellipse cx="48.79" cy="1242.1" rx="8.28" ry="5.23" transform="matrix(0.81, -0.59, 0.59, 0.81, -721.86, 266.75)" fill="#fff" opacity="0.3" style="isolation: isolate"/>
  </g>
  <g>
    <path d="M240.44,1384.55c-3.5,11.79-2.81,29.28-1.43,47.75H252.6c-1.53-12.58-8.61-26.94-2.18-35.82,4-5.56,8.31-10.59,5.79-15.26" fill="#fff" stroke="#000" stroke-miterlimit="10" stroke-width="0.5"/>
    <path d="M159.44,1360.73c-10,21-15.56,42.47-15.51,64.73l12.45,6.84c1-12.15-4-30.69,7.59-37.7,6.09-3.7,7.52-9.7,6-17.23C173,1361.51,166.79,1360.26,159.44,1360.73Z" fill="#fff" stroke="#000" stroke-miterlimit="10" stroke-width="0.5"/>
    <path d="M313.72,1274.09c-3.1-9.27,1-16.11,9.06-21.62a63.46,63.46,0,0,0,1.24,12.82c.86,3.77,2.25,6.82,4.42,8.8,11.4,12.08,24.13,22.55,39.62,29.6,0,0,4.54,5.68,0,14.79s-9,10.24-9,10.24c-7.71-6.8-18.39-10.47-31.7-11.38,0,0-11.31,1.14-19.24-2.28s-4.53-17.11-4.53-17.11c-4.66,16.3-11.78,28.9-21.5,37.56,3.46-.6,24.5,14.74,7,29.71-7.85,6.72-14.92,74.19-10.39,69.31H263.92c2.63-19.33,2.91-37.66,0-54.63-43.59,10.36-62.37,6.38-77,0,2,6,3.22,12.36-2.72,19-7.42,8.3.61,23.16,2.72,35.61h-17a329.53,329.53,0,0,1,0-66s-17-2.27-13.59-29.58,13.59-34.15,23.77-35.23,43.18,12.92,69.09,6.82c0,0,35-31.87,45.27-38.7S313.72,1274.09,313.72,1274.09Z" fill="#fff" stroke="#000" stroke-miterlimit="10" stroke-width="0.5"/>
    <path d="M311.46,1263.85c-17.19,2.09-40.66,25.25-61.07,41,1.71,14.43,4.67,19,2.26,31.86,8-8.28,14.37-16.61,14.72-25l4.52,13.66c4.57-6.26,7.66-15.64,10.2-26.17l4.52,13.66c4.23-7.64,7.65-15.63,7.92-25,4.53,2.55,7.08,5.46,5.67,9.06,4.73-3.54,7.16-9.45,7.92-17.11l7.93,9.06a74.29,74.29,0,0,1-3.41-25h-2.26" stroke="#000" stroke-miterlimit="10" stroke-width="0.5"/>
    <path d="M346.55,1274.09a43.37,43.37,0,0,0-23.15-12.23l4.2,11.37a81.15,81.15,0,0,1,6.51,22.52c2.61-2.51,3.48-6.54,3.39-11.37,3.31,6.78,5.31,14.57,6.79,22.76,2-6,2.84-11.73,1.45-17.12a34.92,34.92,0,0,1,8.74,12.53C356.94,1302.44,353.56,1279.53,346.55,1274.09Z" stroke="#000" stroke-miterlimit="10" stroke-width="0.5"/>
    <path d="M367.23,1320.07a169.16,169.16,0,0,1-25.2-9.56" stroke="#000" stroke-miterlimit="10" stroke-width="0.5"/>
    <polygon points="264.94 1425.9 277.57 1425.9 282.04 1434.57 261.66 1434.57 264.94 1425.9" stroke="#000" stroke-miterlimit="10" stroke-width="0.5"/>
    <polygon points="237.88 1425.46 252.6 1425.46 255.99 1434.57 234.49 1434.57 237.88 1425.46" stroke="#000" stroke-miterlimit="10" stroke-width="0.5"/>
    <polygon points="169.23 1425.9 185.59 1425.46 190.34 1434.57 166.57 1434.57 169.23 1425.9" stroke="#000" stroke-miterlimit="10" stroke-width="0.5"/>
    <polygon points="143.93 1416.36 157.34 1424.7 159.78 1434.57 141.66 1427.73 143.93 1416.36" stroke="#000" stroke-miterlimit="10" stroke-width="0.5"/>
    <ellipse cx="289.34" cy="1279.2" rx="13.67" ry="1.77" transform="translate(-728.61 452.26) rotate(-38.17)" fill="#fff" opacity="0.3" style="isolation: isolate"/>
    <ellipse cx="138.69" cy="1303.72" rx="7.3" ry="4.61" transform="matrix(0.81, -0.59, 0.59, 0.81, -740.88, 331.47)" fill="#fff" opacity="0.3" style="isolation: isolate"/>
    <path d="M201.73,1307.1c-3.71,6.64,4,6.29,6.25,13.87,3.15,10.47-2.4,11.59-5.94,15.68-.77,9-5.63,12.37-14.78,9.91-3.92-7.7-10.44-5.63-17.24-2.48.27,9.21-12.4,11.32-13.69,7.43-1.46-16.43,2.72-30.26,11.23-42.1C172.09,1302.54,183.84,1302.07,201.73,1307.1Z" fill="#6d270f" stroke="#000" stroke-miterlimit="10" stroke-width="0.5"/>
    <path d="M167.57,1311.74c-3-12.65-11.76-16.56-22.85-16.93-12.16,1.74-17.74,9.88-17.1,24.09,9.81,23.36,6,39.65-2.18,55.53-5.87,7.53-12.15,2.47-18.17-1.84-2.52,10.26,19.33,24.71,25.77,16.17,3.12-4.13,9.22-18.12,14.14-33.06,5.3-16,9.25-33.08,6.74-40.1l8.41,8.94C167.84,1323.59,169.43,1319.18,167.57,1311.74Z" stroke="#000" stroke-miterlimit="10" stroke-width="0.5"/>
    <path d="M210.59,1386c-3.49-4.7-2.28-8,3.76-9.71.38-7.31,4.19-9.9,9.86-9.9l9.85,5s0-7.43,4.91-2.47,0,9.9,0,9.9c5.24-.42,8.29.61,6.27,5C232.13,1385.77,220.35,1386.68,210.59,1386Z" fill="#6d270f" stroke="#000" stroke-miterlimit="10" stroke-width="0.5"/>
    <path d="M280.84,1329.22a11.83,11.83,0,0,0,6.29,8.56s3.57,3.83-1.36,6.3-7.39,2.48-7.39,2.48-7.39,9.89-12.31,7.43,0-9.91,0-9.91c2.77-2.33,4.26-6.7,4.92-12.38C274,1327.78,277.34,1327.63,280.84,1329.22Z" fill="#6d270f" stroke="#000" stroke-miterlimit="10" stroke-width="0.5"/>
  </g>
  <path d="M925.63,732.53C999.26,554.57,1082.08,404,1198,352c103.27,77.36,149.86,175.46,194.74,287.4l-1,126.83-465.56-3Z" stroke="#000" stroke-miterlimit="10" stroke-width="2" fill="url(#linear-gradient-6)"/>
  <ellipse cx="1225.89" cy="956.74" rx="57.63" ry="41.27" stroke="#000" stroke-miterlimit="10" fill="url(#radial-gradient)"/>
  <path d="M1197.15,955.43A143.47,143.47,0,0,0,1205,976c13.71,7.47,27.12,6.91,40.28,0,6.42-6.09,9.83-13.74,11-22.56-1.58-4.7-6.8-17.33-11.48-20.36-3.27,5-4.24,16.27-7.14,17.6-5.46-4.42-10.15-14.18-11.22-20.91-3.58,1.29-2.88,12.42-2,20.91-7.34-2.28-11.7-8.71-14.28-17.6C1204.66,937.94,1200.32,945.32,1197.15,955.43Z" fill="none" stroke="#000" stroke-miterlimit="10" stroke-width="0.75"/>
  <path d="M978.19,762.84c7.75-106.62-131.5-308.65-192.9-288.52S688.06,676.89,679.83,760.21Z" stroke="#000" stroke-miterlimit="10" stroke-width="2" fill="url(#linear-gradient-7)"/>
  <g>
    <polygon points="1135.4 776.05 1069.77 776.07 1004.15 776.09 1036.95 718.94 1069.74 661.79 1102.57 718.92 1135.4 776.05" stroke="#000" stroke-miterlimit="10" fill="url(#linear-gradient-8)"/>
    <polygon points="1087.56 775.72 1067.08 775.73 1046.59 775.73 1056.82 747.83 1067.06 719.93 1077.31 747.82 1087.56 775.72"/>
  </g>
  <polygon points="1301.84 819.26 1208.49 819.28 1115.13 819.31 1161.79 738.02 1208.44 656.72 1255.14 737.99 1301.84 819.26" stroke="#000" stroke-miterlimit="10" fill="url(#linear-gradient-9)"/>
  <polygon points="391.47 762.06 359.31 762.07 327.15 762.07 343.22 734.06 359.29 706.06 375.38 734.05 391.47 762.06" stroke="#000" stroke-miterlimit="10" fill="url(#linear-gradient-10)"/>
  <polygon points="377.47 762.29 359.32 762.3 341.16 762.3 350.24 746.49 359.31 730.68 368.39 746.48 377.47 762.29" stroke="#000" stroke-miterlimit="10"/>
  <polygon points="1237.65 818.55 1205.5 818.56 1173.35 818.57 1189.41 774.77 1205.48 730.98 1221.56 774.77 1237.65 818.55"/>
  <g>
    <ellipse cx="1187.54" cy="995.06" rx="13.66" ry="14.74" fill="#757372" stroke="#000" stroke-miterlimit="10"/>
    <ellipse cx="1169.65" cy="977.78" rx="13.66" ry="14.74" fill="#757372" stroke="#000" stroke-miterlimit="10"/>
    <ellipse cx="1163.05" cy="952.36" rx="13.66" ry="14.74" fill="#757372" stroke="#000" stroke-miterlimit="10"/>
    <ellipse cx="1175.3" cy="926.96" rx="13.66" ry="14.74" fill="#757372" stroke="#000" stroke-miterlimit="10"/>
    <ellipse cx="1196.96" cy="911.71" rx="13.66" ry="14.74" fill="#757372" stroke="#000" stroke-miterlimit="10"/>
    <ellipse cx="1222.39" cy="907.65" rx="13.66" ry="14.74" fill="#757372" stroke="#000" stroke-miterlimit="10"/>
    <ellipse cx="1247.84" cy="911.71" rx="13.66" ry="14.74" fill="#757372" stroke="#000" stroke-miterlimit="10"/>
    <ellipse cx="1272.33" cy="922.89" rx="13.66" ry="14.74" fill="#757372" stroke="#000" stroke-miterlimit="10"/>
    <ellipse cx="1283.63" cy="948.31" rx="13.66" ry="14.74" fill="#757372" stroke="#000" stroke-miterlimit="10"/>
    <ellipse cx="1280.81" cy="976.76" rx="13.66" ry="14.74" fill="#757372" stroke="#000" stroke-miterlimit="10"/>
    <ellipse cx="1261.96" cy="995.06" rx="13.66" ry="14.74" fill="#757372" stroke="#000" stroke-miterlimit="10"/>
    <ellipse cx="1236.53" cy="1002.17" rx="13.66" ry="14.74" fill="#757372" stroke="#000" stroke-miterlimit="10"/>
    <ellipse cx="1212.04" cy="1002.17" rx="13.66" ry="14.74" fill="#757372" stroke="#000" stroke-miterlimit="10"/>
  </g>
  <path d="M1204.8,975.52a135,135,0,0,1-8-21.39,68.33,68.33,0,0,1-1.56-7.47c-1.91-13.23,11.49-36.08,11.49-36.08,2.8-15.1-1.26-27.65-6.7-39.68,6.82,3.54,13.72,6.77,18.18,18l1-13.22c4.67,9.5,7.52,20.95,9.57,22.85-.5-3,6.72-9.06,12.45-14.44-3.1,13.62-2.46,23.87,0,32.47l4.78-10.82s10.53,27.66,10.53,43.28a38.91,38.91,0,0,1-9.39,25.35C1241.05,981.13,1216,985.51,1204.8,975.52Z" stroke="#000" stroke-miterlimit="10" fill="url(#linear-gradient-11)"/>
</svg>
