<svg id="Layer_1" data-name="Layer 1" xmlns="http://www.w3.org/2000/svg" xmlns:xlink="http://www.w3.org/1999/xlink" width="100" height="110" viewBox="0 -5 100 110">
  <defs>
    <linearGradient id="linear-gradient" x1="4.84" y1="53.64" x2="96.09" y2="53.64" gradientUnits="userSpaceOnUse">
      <stop offset="0" stop-color="#f7931e" stop-opacity="0.96"/>
      <stop offset="1" stop-color="#f15a24"/>
    </linearGradient>
    <linearGradient id="linear-gradient-2" x1="49.97" y1="36.87" x2="49.97" y2="92.97" gradientUnits="userSpaceOnUse">
      <stop offset="0"/>
      <stop offset="0.18" stop-color="#050505"/>
      <stop offset="0.39" stop-color="#141414" stop-opacity="0.99"/>
      <stop offset="0.62" stop-color="#2c2c2c" stop-opacity="0.98"/>
      <stop offset="0.86" stop-color="#4f4f4f" stop-opacity="0.97"/>
      <stop offset="1" stop-color="#666" stop-opacity="0.96"/>
    </linearGradient>
  </defs>
  <title>native_6</title>
  <polygon points="96.08 93.13 50.46 93.14 4.84 93.15 27.64 53.64 50.45 14.12 73.27 53.63 96.08 93.13" stroke="#000" stroke-miterlimit="10" fill="url(#linear-gradient)"/>
  <polygon points="69.6 92.96 49.97 92.97 30.35 92.97 40.16 64.92 49.96 36.87 59.78 64.92 69.6 92.96" stroke="#000" stroke-miterlimit="10" fill="url(#linear-gradient-2)"/>
  <line x1="45.55" y1="5.96" x2="52.42" y2="17.74" fill="none" stroke="#000" stroke-miterlimit="10"/>
  <line x1="57.33" y1="6.94" x2="49.48" y2="15.78" fill="none" stroke="#000" stroke-miterlimit="10"/>
  <line x1="51.44" y1="4" x2="50.46" y2="14.79" fill="none" stroke="#000" stroke-miterlimit="10"/>
  <path d="M32.2,45.73a18.61,18.61,0,0,1,1.57,1.45c1,1,2-1,2-1l1,1c1,1,2.94-1,2.94-1s0,2,1,2a10,10,0,0,0,3-1l2,2.08,1.62-4.62-13.1-2.28Z" fill="#006837" stroke="#000" stroke-miterlimit="10" stroke-width="0.75"/>
  <path d="M68.11,45.46s-.57.49-1.52,1.5-2-.91-2-.91l-.95,1c-.94,1-3-.88-3-.88s.07,2-.91,2a10,10,0,0,1-3-.88l-2,2.16L53,44.9l13-2.73Z" fill="#006837" stroke="#000" stroke-miterlimit="10" stroke-width="0.75"/>
  <path d="M76.6,59.45a25.46,25.46,0,0,0-1.89,1.76c-1.17,1.2-2.47-1.06-2.47-1.06l-1.17,1.19c-1.18,1.19-3.69-1-3.69-1s.08,2.3-1.14,2.34a12.5,12.5,0,0,1-3.68-1l-2.45,2.53-2.19-5.33L74.05,55.6Z" fill="#006837" stroke="#000" stroke-miterlimit="10" stroke-width="0.75"/>
  <path d="M23.57,60.43a24.63,24.63,0,0,1,1.89,1.77c1.17,1.19,2.47-1.07,2.47-1.07l1.18,1.19c1.17,1.2,3.68-1,3.68-1s-.08,2.29,1.14,2.33a12.67,12.67,0,0,0,3.69-1l2.44,2.52,2.19-5.33L26.12,56.58Z" fill="#006837" stroke="#000" stroke-miterlimit="10" stroke-width="0.75"/>
  <polygon points="72.18 51.74 56.25 54.85 58.01 58.59 74.1 55.38 72.18 51.74" fill="#9b1012" stroke="#000" stroke-miterlimit="10"/>
  <polygon points="42.99 55.38 29.04 52.16 26.9 56.45 41.91 59.67 42.99 55.38" fill="#9b1012" stroke="#000" stroke-miterlimit="10"/>
</svg>
