<svg id="Layer_1" data-name="Layer 1" xmlns="http://www.w3.org/2000/svg" width="100" height="110" viewBox="0 -5 100 110">
  <title>native_5</title>
  <g>
    <path d="M50.92,68.27c-1.33,4.84-1.07,12-.54,19.61h5.19c-.58-5.16-3.29-11.06-.83-14.71,1.53-2.28,3.18-4.35,2.22-6.27" fill="#c6c6c6" stroke="#000" stroke-miterlimit="10" stroke-width="0.5"/>
    <path d="M20,58.48A64.61,64.61,0,0,0,14,85.08l4.76,2.8c.37-5-1.52-12.6,2.9-15.48,2.33-1.52,2.88-4,2.29-7.08C25.15,58.8,22.76,58.29,20,58.48Z" fill="#c6c6c6" stroke="#000" stroke-miterlimit="10" stroke-width="0.5"/>
    <path d="M78.94,22.88c-1.19-3.8.38-6.62,3.46-8.88a27.61,27.61,0,0,0,.48,5.27,7,7,0,0,0,1.69,3.61A48.74,48.74,0,0,0,99.71,35s1.74,2.34,0,6.08-3.46,4.21-3.46,4.21c-2.94-2.8-7-4.3-12.11-4.68,0,0-4.33.47-7.36-.93s-1.73-7-1.73-7c-1.78,6.7-4.51,11.88-8.23,15.44,1.33-.25,9.37,6,2.68,12.2-3,2.76-5.7,30.48-4,28.48H59.9a79.94,79.94,0,0,0,0-22.45c-16.66,4.26-23.84,2.63-29.43,0,.78,2.47,1.24,5.08-1,7.82-2.83,3.41.24,9.5,1,14.63H24A146.15,146.15,0,0,1,24,61.7s-6.49-.94-5.19-12.16S24,35.51,27.88,35s16.51,5.31,26.39,2.81c0,0,13.42-13.09,17.32-15.9S78.94,22.88,78.94,22.88Z" fill="#c6c6c6" stroke="#000" stroke-miterlimit="10" stroke-width="0.5"/>
    <path d="M78.08,18.68c-6.58.85-15.55,10.37-23.37,16.83.65,5.93,1.79,7.79.86,13.09,3.07-3.4,5.5-6.82,5.63-10.28l1.73,5.61c1.74-2.58,2.93-6.42,3.89-10.76l1.74,5.61a23.57,23.57,0,0,0,3-10.28c1.72,1,2.7,2.24,2.16,3.74,1.81-1.46,2.74-3.89,3-7l3,3.74a32.54,32.54,0,0,1-1.3-10.28h-.87" stroke="#000" stroke-miterlimit="10" stroke-width="0.5"/>
    <path d="M91.49,22.88a16.24,16.24,0,0,0-8.85-5l1.61,4.67a34.87,34.87,0,0,1,2.48,9.24c1-1,1.33-2.69,1.3-4.68a38,38,0,0,1,2.6,9.36,13.28,13.28,0,0,0,.55-7,14.39,14.39,0,0,1,3.34,5.14C95.46,34.53,94.17,25.12,91.49,22.88Z" stroke="#000" stroke-miterlimit="10" stroke-width="0.5"/>
    <ellipse cx="97.77" cy="37.15" rx="0.65" ry="0.7" stroke="#000" stroke-miterlimit="10" stroke-width="0.5"/>
    <path d="M99.39,41.78a62.24,62.24,0,0,1-9.63-3.93" stroke="#000" stroke-miterlimit="10" stroke-width="0.5"/>
    <polygon points="60.29 85.26 65.12 85.26 66.83 88.82 59.03 88.82 60.29 85.26" stroke="#000" stroke-miterlimit="10" stroke-width="0.5"/>
    <polygon points="49.95 85.08 55.57 85.08 56.87 88.82 48.65 88.82 49.95 85.08" stroke="#000" stroke-miterlimit="10" stroke-width="0.5"/>
    <polygon points="23.7 85.26 29.95 85.08 31.77 88.82 22.68 88.82 23.7 85.26" stroke="#000" stroke-miterlimit="10" stroke-width="0.5"/>
    <polygon points="14.03 81.34 19.16 84.77 20.09 88.82 13.16 86.01 14.03 81.34" stroke="#000" stroke-miterlimit="10" stroke-width="0.5"/>
    <ellipse cx="69.64" cy="24.96" rx="5.38" ry="0.7" transform="translate(0.36 50.92) rotate(-40.26)" fill="#fff" opacity="0.3"/>
    <ellipse cx="12.03" cy="35.05" rx="2.87" ry="1.84" transform="translate(-19.99 16.39) rotate(-40.83)" fill="#fff" opacity="0.3"/>
    <path d="M36.13,36.45c-1.42,2.73,1.51,2.58,2.38,5.69,1.21,4.31-.91,4.77-2.27,6.45-.29,3.68-2.15,5.08-5.65,4.07-1.5-3.16-4-2.31-6.59-1,.11,3.79-4.74,4.65-5.23,3A26.21,26.21,0,0,1,23.06,37.4C24.79,34.57,29.28,34.38,36.13,36.45Z" fill="#6d270f" stroke="#000" stroke-miterlimit="10" stroke-width="0.5"/>
    <path d="M23.06,38.35c-1.14-5.19-4.49-6.8-8.73-7-4.65.72-6.78,4.07-6.54,9.9,3.75,9.6,2.29,16.3-.83,22.82-2.25,3.1-4.65,1-6.95-.76C-.95,67.57,7.4,73.51,9.87,70c1.19-1.69,3.52-7.44,5.4-13.57,2-6.59,3.54-13.6,2.58-16.48l3.21,3.67C23.17,43.22,23.78,41.41,23.06,38.35Z" stroke="#000" stroke-miterlimit="10" stroke-width="0.5"/>
    <path d="M39.51,68.85c-1.33-1.93-.87-3.27,1.44-4,.15-3,1.6-4.07,3.77-4.06l3.76,2s0-3,1.88-1a3,3,0,0,1,0,4.07c2-.17,3.17.25,2.4,2.07A57.46,57.46,0,0,1,39.51,68.85Z" fill="#6d270f" stroke="#000" stroke-miterlimit="10" stroke-width="0.5"/>
    <path d="M66.37,45.54a4.86,4.86,0,0,0,2.4,3.51,1.59,1.59,0,0,1-.52,2.59,6.86,6.86,0,0,1-2.82,1s-2.83,4.07-4.71,3.05,0-4.07,0-4.07c1.06-1,1.63-2.75,1.88-5.09A2.68,2.68,0,0,1,66.37,45.54Z" fill="#6d270f" stroke="#000" stroke-miterlimit="10" stroke-width="0.5"/>
  </g>
</svg>
