<svg id="Level_complete" xmlns="http://www.w3.org/2000/svg" width="1920" height="1080" viewBox="0 0 1920 1080"><defs><style>.cls-1{fill:#19315b;}.cls-2{fill:#285443;}.cls-3{fill:gray;}.cls-4{fill:#878787;}.cls-5{fill:#2e5a9a;}.cls-6{fill:#286199;}.cls-7{fill:#666;}.cls-8{fill:#602568;}.cls-9{fill:#361d0b;}.cls-10{fill:#654a7c;}.cls-11{opacity:0.9;}.cls-12{fill:#bdccd4;}.cls-13{fill:#003c37;}.cls-14{fill:#9b4100;}.cls-15{fill:#22416d;}.cls-16{fill:#b3b3b3;}.cls-17{fill:#4d4d4d;}.cls-18{fill:#eaf2f2;}.cls-19{opacity:0.89;}.cls-20{fill:#ffb0ff;}.cls-21{fill:#999;}.cls-22{fill:#ccc;}.cls-23{opacity:0.8;}</style></defs><title>background_level_complete</title><g id="Background"><rect class="cls-1" width="1920" height="1080"/><path class="cls-2" d="M1152.83,626.77,962,596c-163.87-26.4-432-26.4-595.9,0L0,655v425H1328V832.43C1328,734.85,1249.17,642.3,1152.83,626.77Z"/><path class="cls-2" d="M1112,680s239-89,342-106c39.7-6.55,193,3.14,267,23,111.67,30,199,83,199,83v400H1112Z"/><circle class="cls-3" cx="886.69" cy="143.31" r="107.31"/><circle class="cls-4" cx="890.49" cy="147.11" r="20.83"/><circle class="cls-4" cx="917.33" cy="83.67" r="14.84"/><circle class="cls-4" cx="847.57" cy="95.98" r="27.15"/><circle class="cls-4" cx="819.35" cy="171.74" r="15.35"/><circle class="cls-4" cx="952.9" cy="132.92" r="9.37"/><circle class="cls-4" cx="874.07" cy="212.78" r="20.83"/><circle class="cls-4" cx="952.9" cy="179.43" r="14.84"/></g><g id="House"><path class="cls-5" d="M1810.37,701.87l-150.46,81.58V449L1819,392V687.38A16.47,16.47,0,0,1,1810.37,701.87Z"/><path class="cls-6" d="M1659.89,449,1476.45,307,1299.54,443.94a16.83,16.83,0,0,0-6.54,13.33V767.5a16.5,16.5,0,0,0,16.5,16.5h350.41V449Z"/><path class="cls-7" d="M1819,392l-159.09,57L1476,307l195.84-16.48a16.69,16.69,0,0,1,11.17,3.1Z"/></g><g id="Details"><path class="cls-8" d="M1338.67,576h77.83a16.5,16.5,0,0,1,16.5,16.5V784a0,0,0,0,1,0,0H1322a0,0,0,0,1,0,0V592.67A16.67,16.67,0,0,1,1338.67,576Z"/><rect class="cls-9" x="1476" y="476" width="150" height="193" rx="16.5" ry="16.5"/><path class="cls-10" d="M1502.12,488H1545a0,0,0,0,1,0,0v80a0,0,0,0,1,0,0h-59a0,0,0,0,1,0,0V504.13A16.12,16.12,0,0,1,1502.12,488Z"/><path class="cls-10" d="M1553,488h42.38A16.63,16.63,0,0,1,1612,504.63V568a0,0,0,0,1,0,0h-59a0,0,0,0,1,0,0V488A0,0,0,0,1,1553,488Z"/><path class="cls-10" d="M1486,578h59a0,0,0,0,1,0,0v81.91a0,0,0,0,1,0,0h-42.79A16.21,16.21,0,0,1,1486,643.71V578A0,0,0,0,1,1486,578Z"/><path class="cls-10" d="M1553,578h59a0,0,0,0,1,0,0v65.58a16.33,16.33,0,0,1-16.33,16.33H1553a0,0,0,0,1,0,0V578A0,0,0,0,1,1553,578Z"/></g><g id="zzzzz"><g class="cls-11"><path class="cls-12" d="M1617.33,461.5l1-5.14,43.4-45.83a40,40,0,0,1-7.76.85,36.66,36.66,0,0,1-8.39-1.16l-4.29-1c-.89-.23-1.66-.43-2.31-.58a22.75,22.75,0,0,0-4.6-.77,14.69,14.69,0,0,0-7.14,2.35l.66-3.17q6-5.31,12.07-5.32a26.07,26.07,0,0,1,4.93.75l4.53,1a47.78,47.78,0,0,0,10.35,1.14,27.09,27.09,0,0,0,10.55-1.92l-1.1,5.33-42.58,45.45a37.27,37.27,0,0,1,8.64-1.17,42.74,42.74,0,0,1,6.68.74l7,1.21c.49.08,1.7.32,3.63.71a24,24,0,0,0,4.18.5q5.94,0,10.67-6.21l-.79,4q-6.6,8.75-13,8.75a46.3,46.3,0,0,1-8.95-1.29l-5.19-1.13a36.13,36.13,0,0,0-7.66-.94Q1627.22,458.61,1617.33,461.5Z"/></g><g class="cls-11"><path class="cls-12" d="M1676.2,416.16l.76-3.86,32.55-34.37a29.93,29.93,0,0,1-5.83.64,27.87,27.87,0,0,1-6.29-.87l-3.22-.75c-.66-.18-1.24-.32-1.72-.44a16.62,16.62,0,0,0-3.46-.58,11,11,0,0,0-5.35,1.77l.5-2.38q4.48-4,9-4a19.89,19.89,0,0,1,3.69.56l3.4.76a35.89,35.89,0,0,0,7.76.85,20.26,20.26,0,0,0,7.91-1.44l-.82,4-31.93,34.09a27.66,27.66,0,0,1,6.47-.88,31.79,31.79,0,0,1,5,.56l5.25.91c.37.05,1.28.23,2.72.52a17.57,17.57,0,0,0,3.14.38q4.45,0,8-4.66l-.59,3q-5,6.57-9.79,6.57a34.26,34.26,0,0,1-6.7-1l-3.9-.85a27.16,27.16,0,0,0-5.74-.7Q1683.61,414,1676.2,416.16Z"/></g><g class="cls-11"><path class="cls-12" d="M1725.72,378.75l.61-3.08,26-27.5a24.22,24.22,0,0,1-4.66.51,22,22,0,0,1-5-.7l-2.57-.6-1.38-.35a13.38,13.38,0,0,0-2.76-.46,8.82,8.82,0,0,0-4.29,1.41l.4-1.9a10.92,10.92,0,0,1,7.24-3.19,16.29,16.29,0,0,1,3,.44l2.71.61a28.56,28.56,0,0,0,6.22.68,16.31,16.31,0,0,0,6.32-1.14l-.65,3.19-25.55,27.27a22.76,22.76,0,0,1,5.18-.7,25,25,0,0,1,4,.45l4.19.72,2.18.42a14.07,14.07,0,0,0,2.51.31q3.57,0,6.4-3.73l-.47,2.37q-4,5.25-7.83,5.25a28.11,28.11,0,0,1-5.36-.77l-3.12-.68a21.56,21.56,0,0,0-4.6-.57A35,35,0,0,0,1725.72,378.75Z"/></g><g class="cls-11"><path class="cls-12" d="M1766.24,355.34l.46-2.31,19.53-20.62a18.63,18.63,0,0,1-3.5.38,16.53,16.53,0,0,1-3.77-.52l-1.93-.45c-.4-.11-.75-.19-1-.26a9.63,9.63,0,0,0-2.07-.35,6.53,6.53,0,0,0-3.21,1.06l.29-1.43a8.25,8.25,0,0,1,5.44-2.39,12,12,0,0,1,2.21.33l2,.46a21.67,21.67,0,0,0,4.66.51,12.26,12.26,0,0,0,4.74-.86l-.49,2.4-19.16,20.45a16.83,16.83,0,0,1,3.89-.53,18.23,18.23,0,0,1,3,.34l3.15.54c.22,0,.77.14,1.63.32a11.25,11.25,0,0,0,1.88.23c1.79,0,3.39-.94,4.8-2.8l-.35,1.78q-3,3.93-5.87,3.93a20.73,20.73,0,0,1-4-.58l-2.33-.51a16.47,16.47,0,0,0-3.45-.42A26.73,26.73,0,0,0,1766.24,355.34Z"/></g><g class="cls-11"><path class="cls-12" d="M1793.26,325.94l.31-1.54,13-13.75a12.12,12.12,0,0,1-2.33.25,10.64,10.64,0,0,1-2.52-.35l-1.29-.3-.69-.17a6.36,6.36,0,0,0-1.38-.23,4.38,4.38,0,0,0-2.14.7l.2-.95a5.46,5.46,0,0,1,3.62-1.59,7.77,7.77,0,0,1,1.48.22l1.35.3a14.31,14.31,0,0,0,3.11.34,8.14,8.14,0,0,0,3.16-.57l-.32,1.6-12.78,13.63a11.38,11.38,0,0,1,2.59-.35,12.64,12.64,0,0,1,2,.23l2.09.36c.15,0,.52.09,1.09.21a7.42,7.42,0,0,0,1.26.15,4,4,0,0,0,3.2-1.86l-.24,1.18q-2,2.63-3.91,2.63a13.88,13.88,0,0,1-2.69-.39l-1.55-.34a10.78,10.78,0,0,0-2.3-.28A17.56,17.56,0,0,0,1793.26,325.94Z"/></g><g class="cls-11"><path class="cls-12" d="M1812.26,330.94l.31-1.54,13-13.75a12.12,12.12,0,0,1-2.33.25,10.64,10.64,0,0,1-2.52-.35l-1.29-.3-.69-.17a6.36,6.36,0,0,0-1.38-.23,4.38,4.38,0,0,0-2.14.7l.2-.95a5.46,5.46,0,0,1,3.62-1.59,7.77,7.77,0,0,1,1.48.22l1.35.3a14.31,14.31,0,0,0,3.11.34,8.14,8.14,0,0,0,3.16-.57l-.32,1.6-12.78,13.63a11.38,11.38,0,0,1,2.59-.35,12.64,12.64,0,0,1,2,.23l2.09.36c.15,0,.52.09,1.09.21a7.42,7.42,0,0,0,1.26.15,4,4,0,0,0,3.2-1.86l-.24,1.18q-2,2.63-3.91,2.63a13.88,13.88,0,0,1-2.69-.39l-1.55-.34a10.78,10.78,0,0,0-2.3-.28A17.56,17.56,0,0,0,1812.26,330.94Z"/></g><g class="cls-11"><path class="cls-12" d="M1797.26,350.94l.31-1.54,13-13.75a12.12,12.12,0,0,1-2.33.25,10.64,10.64,0,0,1-2.52-.35l-1.29-.3-.69-.17a6.36,6.36,0,0,0-1.38-.23,4.38,4.38,0,0,0-2.14.7l.2-.95a5.46,5.46,0,0,1,3.62-1.59,7.77,7.77,0,0,1,1.48.22l1.35.3a14.31,14.31,0,0,0,3.11.34,8.14,8.14,0,0,0,3.16-.57l-.32,1.6-12.78,13.63a11.38,11.38,0,0,1,2.59-.35,12.64,12.64,0,0,1,2,.23l2.09.36c.15,0,.52.09,1.09.21a7.42,7.42,0,0,0,1.26.15,4,4,0,0,0,3.2-1.86l-.24,1.18q-2,2.63-3.91,2.63a13.88,13.88,0,0,1-2.69-.39l-1.55-.34a10.78,10.78,0,0,0-2.3-.28A17.56,17.56,0,0,0,1797.26,350.94Z"/></g></g><g id="Lamp"><polygon class="cls-13" points="1601 630 1564 630 1575.75 599 1589.25 599 1601 630"/><path class="cls-14" d="M1587,660h-9V630h9a37.94,37.94,0,0,1,.65,28.26Z"/><path class="cls-14" d="M1578,660h9V630h-9a37.94,37.94,0,0,0-.65,28.26Z"/></g><g class="cls-11"><rect class="cls-15" x="-183" y="-43" width="2155" height="1146"/></g><g id="Title"><g id="Ears"><path class="cls-16" d="M488.32,247.79C424.39,263,382.15,342.92,394,426.4a189.28,189.28,0,0,0,9.42,38.08,75.27,75.27,0,0,1,2.11,45.5c-10.17,37.94,8.38,81.76,51,110.26,56.68,37.87,134.47,34.33,173.74-7.89,29.06-31.25,28.89-74.92,3.87-110.87a73.43,73.43,0,0,1-11.41-58.86,198.23,198.23,0,0,0,2.76-71.13C613.67,288,552.25,232.63,488.32,247.79Z"/><path class="cls-16" d="M361,519.1a48.84,48.84,0,0,1-18.12-29.19,187,187,0,0,0-14.79-43.55c-36.48-76-116-119.09-177.59-96.23s-82,103-45.48,179a197.24,197.24,0,0,0,48.3,63.56c12.22,10.59,18.47,25.51,17.08,41.26-4.19,47.34,20.24,87.73,64.3,98.2,56.1,13.34,122.77-26.89,148.91-89.85C404.1,592.94,393.56,544.24,361,519.1Z"/></g><g id="Trunk"><path class="cls-16" d="M202.22,815.43,186,748.6a5.85,5.85,0,0,1,6.88-7.11c20.51,4.39,123.44,4.7,164.46-39.32C394,662.82,355.47,557.93,358.54,557l86.4-26.69.17.58c18.11,59.79,50.79,132.41-9.34,213.24-40.78,54.8-162.23,91-234,71.57"/></g><g id="Head"><circle class="cls-16" cx="371.06" cy="469.52" r="178.39"/></g><circle class="cls-17" cx="418.07" cy="428.06" r="44.23"/><circle class="cls-17" cx="308.96" cy="461.12" r="44.23"/><circle class="cls-18" cx="315.19" cy="449.47" r="23.1"/><circle class="cls-18" cx="294.25" cy="487.14" r="8.85"/><circle class="cls-18" cx="421.48" cy="417.27" r="23.1"/><circle class="cls-18" cx="405.24" cy="453.52" r="8.85"/><path class="cls-7" d="M450.21,606c-.21,0-20.5-2.27-41.17,4-28.24,8.56-43.91,21.69-44.07,21.82l-3.81-4.49c.67-.57,16.76-14.07,46.17-23a119,119,0,0,1,43.56-4.21Z"/><path class="cls-7" d="M452.38,634c-.17,0-18-2.95-35.85,2.46-24.45,7.4-37.69,19.73-37.82,19.86l-4-4.29c.58-.54,14.39-13.41,40.16-21.22,19.22-5.82,37.77-2.76,38.56-2.62Z"/><path class="cls-7" d="M392.47,680.84l-4.32-4c.48-.52,12-12.79,34.16-19.5,16.56-5,32.91-1.19,33.59-1L454.52,662c-.15,0-15.51-3.61-30.5.93C403.49,669.19,392.58,680.72,392.47,680.84Z"/><g class="cls-19"><ellipse class="cls-20" cx="333.65" cy="540.93" rx="25.06" ry="14.74" transform="translate(-142.49 119.96) rotate(-16.85)"/></g><g class="cls-19"><ellipse class="cls-20" cx="442.76" cy="507.87" rx="25.06" ry="14.74" transform="translate(-128.22 150.17) rotate(-16.85)"/></g><path class="cls-21" d="M742.13,424.18q-9.17,0-18.53,22.43l-11.34,28.71q-10.8,27.4-20.72,36a136.33,136.33,0,0,1,33.29-6.63c1.83-.18,3.6-.27,5.34-.27a20.19,20.19,0,0,1,5.57.85,15.06,15.06,0,0,1,5.16,2.57q4.71,3.69,4.72,10.39c0,2.46-.92,3.69-2.74,3.69a6.3,6.3,0,0,1-2.94-.75,28.44,28.44,0,0,0-3.24-1.44,39.62,39.62,0,0,0-4.21-1.3A44,44,0,0,0,721.25,517a76.58,76.58,0,0,0-11.11.78c-3.56.53-6.91,1.08-10,1.68l-8.82,1.71a36.53,36.53,0,0,1-6.12.75,4.91,4.91,0,0,1-3.21-.93,10.74,10.74,0,0,1-2.09-2.35c-1.36-2.1-2.05-3.81-2.05-5.13,0-2.14.51-3.51,1.51-4.1q5.88-3.15,13.26-24.41,6.84-19.68,9.33-26.38t5.5-13.09a113.77,113.77,0,0,1,6.53-12,53.56,53.56,0,0,1,7.76-9.78q9.09-9,20-9,7.72,0,13,6.63a22.13,22.13,0,0,1,4.78,14.08q0,10.88-8.06,22.49a31.88,31.88,0,0,1-10.19,9.85,10.42,10.42,0,0,1-4.82,1.43,8.08,8.08,0,0,1-3.79-.85,11.52,11.52,0,0,1-2.87-2.09q-2.53-2.66-2.53-4.82c0-1.43.36-2.38,1.09-2.83a54.45,54.45,0,0,0,14-12.31q6.23-7.72,6.23-14.93T742.13,424.18Z"/><path class="cls-21" d="M776.8,497.33a44.4,44.4,0,0,1,2-11.38,55,55,0,0,1,4.58-10.53,61.39,61.39,0,0,1,6.74-9.64,52.68,52.68,0,0,1,8.37-8q9.78-7.32,19.76-7.32,11.68,0,15.58,9.64a19.29,19.29,0,0,1,1.3,7.76,21.26,21.26,0,0,1-1.71,8.27,24.18,24.18,0,0,1-4.54,6.91,33.24,33.24,0,0,1-6.91,5.57,47.33,47.33,0,0,1-8.71,4.17,64.53,64.53,0,0,1-20.78,3.55,12.67,12.67,0,0,0-.35,2.87,18.55,18.55,0,0,0,.41,4.27,12.55,12.55,0,0,0,1.64,4.21,7.84,7.84,0,0,0,7.11,4.1,29,29,0,0,0,15.45-4.65,21.4,21.4,0,0,0,4.34-3.25,4.62,4.62,0,0,1,2.91-1.67,2.59,2.59,0,0,1,2.15,1.47A6.06,6.06,0,0,1,827,507a10,10,0,0,1-2,6.28q-8.61,8.63-25.63,8.62-10.05,0-16.13-6Q776.39,509.1,776.8,497.33Zm39.92-37.74q-7.17,0-13.81,9.85a74.39,74.39,0,0,0-9,20.1,33.24,33.24,0,0,0,19.82-9q7.72-7.38,7.73-14.15T816.72,459.59Z"/><path class="cls-21" d="M860.49,514.62a12.67,12.67,0,0,1-1-5.33,27.43,27.43,0,0,1,1-6.8,67.17,67.17,0,0,1,2.46-7.62q1.5-3.9,3.35-7.93l3.48-7.93q6.78-15.66,5-18.46a8.65,8.65,0,0,0-3.14-2.6,1.82,1.82,0,0,1-.75-1.67,3.38,3.38,0,0,1,1-2.29,8.91,8.91,0,0,1,2.63-1.92,15.34,15.34,0,0,1,6.63-1.57,13.92,13.92,0,0,1,5.09.72,9.42,9.42,0,0,1,2.91,1.81,7.58,7.58,0,0,1,2.19,5.47,25.17,25.17,0,0,1-1.23,7.25q-1.23,4-3.08,8.47t-4,9.09l-4,9q-4.3,9.92-4.3,13.12c0,4.2,1.48,6.29,4.44,6.29q11.41,0,21.4-13.53a51.56,51.56,0,0,0,8.34-17.09,31.49,31.49,0,0,0,1.16-8q0-3.58-.24-6a22.63,22.63,0,0,0-.79-4.23,13.93,13.93,0,0,0-3-5.68q-1.44-1.77,1.29-4.17c2-1.68,4.86-2.53,8.55-2.53a7.59,7.59,0,0,1,6,3.21c2.19,2.56,3.29,6.21,3.29,11a47.36,47.36,0,0,1-2.12,14,63.1,63.1,0,0,1-5.81,13.19,68.25,68.25,0,0,1-8.72,11.8,65.63,65.63,0,0,1-10.83,9.5q-12.45,8.74-24.89,8.75Q863.7,521.94,860.49,514.62Z"/><path class="cls-21" d="M950.46,497.33a44.4,44.4,0,0,1,2-11.38A55,55,0,0,1,957,475.42a62,62,0,0,1,6.73-9.64,53.16,53.16,0,0,1,8.38-8q9.76-7.32,19.75-7.32,11.7,0,15.59,9.64a19.47,19.47,0,0,1,1.3,7.76,21.62,21.62,0,0,1-1.71,8.27,24,24,0,0,1-4.55,6.91,32.92,32.92,0,0,1-6.9,5.57,47.43,47.43,0,0,1-8.72,4.17,64.44,64.44,0,0,1-20.78,3.55,13.4,13.4,0,0,0-.34,2.87,18.55,18.55,0,0,0,.41,4.27,12.55,12.55,0,0,0,1.64,4.21,7.84,7.84,0,0,0,7.11,4.1,29,29,0,0,0,15.45-4.65,21.68,21.68,0,0,0,4.34-3.25,4.62,4.62,0,0,1,2.91-1.67,2.6,2.6,0,0,1,2.15,1.47,6.14,6.14,0,0,1,.92,3.32,10,10,0,0,1-2.05,6.28Q990,521.95,973,521.94q-10,0-16.14-6Q950.06,509.1,950.46,497.33Zm39.92-37.74q-7.17,0-13.81,9.85a74.08,74.08,0,0,0-9,20.1,33.24,33.24,0,0,0,19.82-9q7.73-7.38,7.73-14.15T990.38,459.59Z"/><path class="cls-21" d="M1037.22,518.52a13.42,13.42,0,0,1-2.77-4.55,17.78,17.78,0,0,1-1.06-6.42,39.49,39.49,0,0,1,1.68-9.81q1.67-6.15,4.27-14l5.74-17q12.24-35.54,14.15-55,.62-5.75,5.61-5.74a8.57,8.57,0,0,1,5.19,1.5q4,3,3.83,6.7a52.52,52.52,0,0,1-1.3,9q-1.15,5.3-3,11.56T1065.31,448l-9.43,27.76q-8.13,23.65-8.13,30.55,0,3.69,3,3.69a11.11,11.11,0,0,0,5.23-1.23,9.64,9.64,0,0,1,3-1.23,1.27,1.27,0,0,1,1.43,1.44q0,6.09-6.22,10.18-4.17,2.8-7.62,2.81a15.86,15.86,0,0,1-5.57-.82A10.53,10.53,0,0,1,1037.22,518.52Z"/><path class="cls-21" d="M1151.81,497.67a46,46,0,0,1,1.88-11.86,56.54,56.54,0,0,1,4.65-11.18,51.92,51.92,0,0,1,6.91-9.7,47.87,47.87,0,0,1,8.71-7.66,36,36,0,0,1,20.72-6.77q11.21,0,15.24,9a16.55,16.55,0,0,1,1.33,7.28,23.49,23.49,0,0,1-1.33,7.45,26.64,26.64,0,0,1-3.08,6.05q-4.17,6-8.4,6c-3.15,0-5.47-.86-7-2.59a5.53,5.53,0,0,1-1.23-5.27,2.78,2.78,0,0,1,1.23-1.6,21.56,21.56,0,0,0,2.6-2.29,16.08,16.08,0,0,0,4.65-10.87q.13-4.25-5.2-4.24-5.73,0-12,6.42-9.15,9.38-12.92,24-3.27,12.72,1.23,18.59a8.7,8.7,0,0,0,7.25,3.42q7.73,0,14.9-5.47a20.36,20.36,0,0,0,3.56-3.48c.91-1.19,1.75-1.78,2.53-1.78a2.29,2.29,0,0,1,1.94,1.13,4.92,4.92,0,0,1,.79,2.9q0,4-3.62,7.93a31.19,31.19,0,0,1-22.36,8.89q-11.15,0-17.22-6.36T1151.81,497.67Z"/><path class="cls-21" d="M1241.65,516.61a19,19,0,0,1-4.51-6.94,28.49,28.49,0,0,1-1.71-9.95,45.31,45.31,0,0,1,1.4-11.62,56.65,56.65,0,0,1,4.17-11.35,57.43,57.43,0,0,1,6.5-10.25,49.26,49.26,0,0,1,8.37-8.34q10-7.67,20.71-7.66,14.09,0,19.07,12.38,3.55,9,.41,21.66A56.23,56.23,0,0,1,1285.54,506a42.45,42.45,0,0,1-17.91,13.88,27.87,27.87,0,0,1-10.22,2.05,28.69,28.69,0,0,1-9-1.3A18,18,0,0,1,1241.65,516.61Zm13.06-33.16a66.2,66.2,0,0,0-3.25,10.39,43.49,43.49,0,0,0-1.13,10.08,17.07,17.07,0,0,0,1.47,7.46,4.76,4.76,0,0,0,4.55,2.7,10.62,10.62,0,0,0,6.19-2.16,30.25,30.25,0,0,0,5.91-5.71,54.43,54.43,0,0,0,5.4-8.2,79.22,79.22,0,0,0,4.44-9.71q4.17-11,4-19.55,0-7.51-3.07-9.57a6.24,6.24,0,0,0-3.45-.82,9.32,9.32,0,0,0-5.1,2,31.13,31.13,0,0,0-5.74,5.43,57.88,57.88,0,0,0-5.54,8A77.53,77.53,0,0,0,1254.71,483.45Z"/><path class="cls-21" d="M1376.88,463.42q-4,0-14.49,11.49-7.87,9-11.42,13.46l-6.15,7.8q-4,7.51-6.22,12.51l-3.69,7.93a19.55,19.55,0,0,1-2.5,4.13,3.64,3.64,0,0,1-2.87,1.2,9.65,9.65,0,0,1-3.49-.65,10.17,10.17,0,0,1-2.9-1.68,6.24,6.24,0,0,1-2.6-4.78,12.07,12.07,0,0,1,1.5-4l2.6-5.53q1.23-2.46,2.87-6.29l3.83-9.37q8.07-20.16,8.07-26a5.4,5.4,0,0,0-2.05-4.65l-1.37-1a1.88,1.88,0,0,1-.68-1.67,3.48,3.48,0,0,1,.92-2.29,8.27,8.27,0,0,1,2.43-1.92,13.56,13.56,0,0,1,6.18-1.57,14,14,0,0,1,4.89.69,10,10,0,0,1,3.08,1.84,6.85,6.85,0,0,1,2.59,5,21,21,0,0,1-.68,5.23,53,53,0,0,1-1.71,5.33c-.68,1.8-1.41,3.55-2.19,5.23-1.82,3.92-2.95,6.33-3.38,7.21s-.56,1.22-.38,1q12.51-16.22,15-19.14a64,64,0,0,1,8.2-8.34q5.4-4,10.22-4a10.1,10.1,0,0,1,7.69,3,11,11,0,0,1,2.88,7.93,29.43,29.43,0,0,1-2.19,10.12q-2.19,5.81-2.94,8.13l10-13.26,5.6-6.7q5.07-5.67,8.89-7.45a15.72,15.72,0,0,1,6.25-1.78,13.54,13.54,0,0,1,4.79.89,11.12,11.12,0,0,1,4,2.53,11.78,11.78,0,0,1,3.49,8.89,27.09,27.09,0,0,1-2.47,10.93q-2.46,5.61-4.3,9.2c-1.23,2.39-2.42,4.8-3.56,7.21q-5,10.88-5,16.13,0,3.69,3,3.69a11.14,11.14,0,0,0,5.23-1.23,9.62,9.62,0,0,1,3-1.23,1.27,1.27,0,0,1,1.44,1.44q0,6.09-6.22,10.18-4.17,2.8-7.63,2.81a15.9,15.9,0,0,1-5.57-.82,10.49,10.49,0,0,1-3.82-2.6,13.67,13.67,0,0,1-3.83-9.91,37.87,37.87,0,0,1,1.5-10.94,84.39,84.39,0,0,1,3.56-9.67q2-4.68,4.13-8.62t3.18-6.25q2.19-4.78,2.19-7c0-1.78-.94-2.67-2.8-2.67q-3.7,0-13.27,12.24-7.24,9.49-10,13.67l-4.71,6.84q-4,7.51-6.09,12.51l-3.48,7.93a20.21,20.21,0,0,1-2.26,4.13,3.22,3.22,0,0,1-2.66,1.2,10.37,10.37,0,0,1-3.32-.55,9.65,9.65,0,0,1-2.77-1.43q-2.65-2-2.66-4.21a18.42,18.42,0,0,1,1.47-6.08q1.47-3.87,3.65-8.65l9.57-20.23q5.13-11.28,5.13-14.33C1379.68,464.44,1378.75,463.42,1376.88,463.42Zm6.76,19.28s.07,0,.07-.07l.07-.14C1383.69,482.59,1383.64,482.65,1383.64,482.7Z"/><path class="cls-21" d="M1469.72,514.76q-.13,1-3,10.8T1462,541.08q-4.3,12.85-7.11,16a7.17,7.17,0,0,1-5.47,2.47,6.46,6.46,0,0,1-6-3.83,4.87,4.87,0,0,1-.61-2.43c0-.89.68-2.81,2.05-5.78q5.4-11.28,14.42-44.43,3.63-13.12,4.79-17.84l2.18-8.55a116.86,116.86,0,0,0,2.5-11.51c.25-2,.12-3.47-.38-4.31a6,6,0,0,0-1.71-1.92c-.63-.43-1.23-.8-1.77-1.12a1.63,1.63,0,0,1-.69-1.75,4,4,0,0,1,1.13-2.32,8.52,8.52,0,0,1,2.5-1.81,14.45,14.45,0,0,1,6.18-1.44,12.9,12.9,0,0,1,4.89.75,8.39,8.39,0,0,1,2.94,2.05q2.46,2.67,2.19,5.2-.69,5.26-1.51,9,12-17,24.82-17,11.68,0,15.65,12.1a34,34,0,0,1,1.37,10.32,42.13,42.13,0,0,1-1.85,12.21,54.65,54.65,0,0,1-5,11.58,58.1,58.1,0,0,1-7.31,10.09,59.44,59.44,0,0,1-8.82,8q-9.84,7.11-18.59,7.11T1469.72,514.76Zm10.56-29.16a63.66,63.66,0,0,0-4,9.61,28.7,28.7,0,0,0-1.54,8.75,11.55,11.55,0,0,0,1.71,6.53,5.69,5.69,0,0,0,5.06,2.56,13.74,13.74,0,0,0,6.66-1.81,29,29,0,0,0,6.43-4.89,43.67,43.67,0,0,0,5.81-7.21,56.66,56.66,0,0,0,4.68-8.78,49.15,49.15,0,0,0,4.31-19.21,18.19,18.19,0,0,0-1.3-7.66,4.23,4.23,0,0,0-4-2.73,9.82,9.82,0,0,0-5.64,2.08,41,41,0,0,0-6.15,5.54,74.39,74.39,0,0,0-6.36,7.93A82.39,82.39,0,0,0,1480.28,485.6Z"/><path class="cls-21" d="M1556,518.52a13.24,13.24,0,0,1-2.76-4.55,17.78,17.78,0,0,1-1.06-6.42,39.39,39.39,0,0,1,1.67-9.81q1.68-6.15,4.27-14l5.75-17q12.23-35.54,14.15-55c.41-3.83,2.27-5.74,5.6-5.74a8.58,8.58,0,0,1,5.2,1.5c2.64,2,3.92,4.24,3.82,6.7a52.38,52.38,0,0,1-1.29,9q-1.17,5.3-3,11.56T1584.1,448l-9.43,27.76q-8.14,23.65-8.14,30.55,0,3.69,3,3.69a11.14,11.14,0,0,0,5.23-1.23,9.53,9.53,0,0,1,3-1.23,1.27,1.27,0,0,1,1.44,1.44q0,6.09-6.22,10.18c-2.78,1.87-5.33,2.81-7.63,2.81a15.86,15.86,0,0,1-5.57-.82A10.61,10.61,0,0,1,1556,518.52Z"/><path class="cls-21" d="M1610.5,497.33a44.4,44.4,0,0,1,2-11.38,55,55,0,0,1,4.58-10.53,62,62,0,0,1,6.73-9.64,53.16,53.16,0,0,1,8.38-8q9.78-7.32,19.75-7.32,11.7,0,15.59,9.64a19.47,19.47,0,0,1,1.3,7.76,21.62,21.62,0,0,1-1.71,8.27,24,24,0,0,1-4.55,6.91,32.92,32.92,0,0,1-6.9,5.57,47.43,47.43,0,0,1-8.72,4.17,64.44,64.44,0,0,1-20.78,3.55,13.4,13.4,0,0,0-.34,2.87,18.55,18.55,0,0,0,.41,4.27,12.55,12.55,0,0,0,1.64,4.21,7.84,7.84,0,0,0,7.11,4.1,29,29,0,0,0,15.45-4.65,21.68,21.68,0,0,0,4.34-3.25,4.62,4.62,0,0,1,2.91-1.67,2.6,2.6,0,0,1,2.15,1.47,6.14,6.14,0,0,1,.92,3.32,10,10,0,0,1-2,6.28q-8.61,8.63-25.63,8.62-10.05,0-16.14-6Q1610.09,509.1,1610.5,497.33Zm39.92-37.74q-7.17,0-13.81,9.85a74.39,74.39,0,0,0-9,20.1,33.24,33.24,0,0,0,19.82-9q7.72-7.38,7.73-14.15T1650.42,459.59Z"/><path class="cls-21" d="M1733.69,503.34c1.32,0,2,.89,2,2.67a8,8,0,0,1-1.37,4.37q-1.85,4-7.38,7.52a23.27,23.27,0,0,1-12.65,4q-11,0-14-9.85-3.48-11.69,10.46-49.56-7.86-.67-8.54-2.73a4.12,4.12,0,0,1-.21-1.33,3.17,3.17,0,0,1,.65-1.68,9.5,9.5,0,0,1,1.68-1.84,7.54,7.54,0,0,1,4.85-2h5.4q7.38-17.29,10.53-19.68a5.56,5.56,0,0,1,3.35-1.1,8.59,8.59,0,0,1,3.08.48,6.87,6.87,0,0,1,2.18,1.37,6.15,6.15,0,0,1,2.19,4.58,7.59,7.59,0,0,1-.82,3.14l-5.06,11h1.64c2.83,0,5.1,0,6.84-.07l3.89-.07c.87,0,2-.07,3.25-.07s2,.48,2,1.44q0,9-21.33,9h-.55l-4.64,12q-7.86,21.33-7.87,29.88a5.71,5.71,0,0,0,1.1,3.72c.73.89,2.09,1.33,4.1,1.33a14.14,14.14,0,0,0,5.47-1,23.81,23.81,0,0,0,4.31-2.29c1.23-.84,2.29-1.61,3.17-2.29A4.07,4.07,0,0,1,1733.69,503.34Z"/><path class="cls-21" d="M1762.9,497.33a44.4,44.4,0,0,1,2-11.38,54.35,54.35,0,0,1,4.58-10.53,61.33,61.33,0,0,1,6.73-9.64,53.16,53.16,0,0,1,8.38-8q9.77-7.32,19.75-7.32,11.68,0,15.59,9.64a19.47,19.47,0,0,1,1.3,7.76,21.62,21.62,0,0,1-1.71,8.27,24.22,24.22,0,0,1-4.55,6.91,33.44,33.44,0,0,1-6.9,5.57,47.43,47.43,0,0,1-8.72,4.17,64.49,64.49,0,0,1-20.78,3.55,12.78,12.78,0,0,0-.34,2.87,18,18,0,0,0,.41,4.27,12.34,12.34,0,0,0,1.64,4.21,7.84,7.84,0,0,0,7.11,4.1,29.06,29.06,0,0,0,15.45-4.65,22,22,0,0,0,4.34-3.25,4.58,4.58,0,0,1,2.9-1.67,2.61,2.61,0,0,1,2.16,1.47,6.14,6.14,0,0,1,.92,3.32,10,10,0,0,1-2.05,6.28q-8.61,8.63-25.64,8.62-10,0-16.13-6Q1762.48,509.1,1762.9,497.33Zm39.92-37.74q-7.18,0-13.81,9.85a73.78,73.78,0,0,0-9,20.1,33.27,33.27,0,0,0,19.82-9q7.73-7.38,7.72-14.15T1802.82,459.59Z"/><path class="cls-21" d="M744.13,422.18q-9.17,0-18.53,22.43l-11.34,28.71q-10.8,27.4-20.72,36a136.33,136.33,0,0,1,33.29-6.63c1.83-.18,3.6-.27,5.34-.27a20.19,20.19,0,0,1,5.57.85,15.06,15.06,0,0,1,5.16,2.57q4.71,3.69,4.72,10.39c0,2.46-.92,3.69-2.74,3.69a6.3,6.3,0,0,1-2.94-.75,28.44,28.44,0,0,0-3.24-1.44,39.62,39.62,0,0,0-4.21-1.3A44,44,0,0,0,723.25,515a76.58,76.58,0,0,0-11.11.78c-3.56.53-6.91,1.08-10,1.68l-8.82,1.71a36.53,36.53,0,0,1-6.12.75,4.91,4.91,0,0,1-3.21-.93,10.74,10.74,0,0,1-2.09-2.35c-1.36-2.1-2.05-3.81-2.05-5.13,0-2.14.51-3.51,1.51-4.1q5.88-3.15,13.26-24.41,6.84-19.68,9.33-26.38t5.5-13.09a113.77,113.77,0,0,1,6.53-12,53.56,53.56,0,0,1,7.76-9.78q9.09-9,20-9,7.72,0,13,6.63a22.13,22.13,0,0,1,4.78,14.08q0,10.88-8.06,22.49a31.88,31.88,0,0,1-10.19,9.85,10.42,10.42,0,0,1-4.82,1.43,8.08,8.08,0,0,1-3.79-.85,11.52,11.52,0,0,1-2.87-2.09q-2.53-2.66-2.53-4.82c0-1.43.36-2.38,1.09-2.83a54.45,54.45,0,0,0,14-12.31q6.23-7.72,6.23-14.93T744.13,422.18Z"/><path class="cls-21" d="M778.8,495.33a44.4,44.4,0,0,1,2-11.38,55,55,0,0,1,4.58-10.53,61.39,61.39,0,0,1,6.74-9.64,52.68,52.68,0,0,1,8.37-8q9.78-7.32,19.76-7.32,11.68,0,15.58,9.64a19.29,19.29,0,0,1,1.3,7.76,21.26,21.26,0,0,1-1.71,8.27,24.18,24.18,0,0,1-4.54,6.91,33.24,33.24,0,0,1-6.91,5.57,47.33,47.33,0,0,1-8.71,4.17,64.53,64.53,0,0,1-20.78,3.55,12.67,12.67,0,0,0-.35,2.87,18.55,18.55,0,0,0,.41,4.27,12.55,12.55,0,0,0,1.64,4.21,7.84,7.84,0,0,0,7.11,4.1,29,29,0,0,0,15.45-4.65,21.4,21.4,0,0,0,4.34-3.25,4.62,4.62,0,0,1,2.91-1.67,2.59,2.59,0,0,1,2.15,1.47A6.06,6.06,0,0,1,829,505a10,10,0,0,1-2,6.28q-8.61,8.63-25.63,8.62-10.05,0-16.13-6Q778.39,507.1,778.8,495.33Zm39.92-37.74q-7.17,0-13.81,9.85a74.39,74.39,0,0,0-9,20.1,33.24,33.24,0,0,0,19.82-9q7.72-7.38,7.73-14.15T818.72,457.59Z"/><path class="cls-21" d="M862.49,512.62a12.67,12.67,0,0,1-1-5.33,27.43,27.43,0,0,1,1-6.8,67.17,67.17,0,0,1,2.46-7.62q1.5-3.9,3.35-7.93l3.48-7.93q6.78-15.66,5-18.46a8.65,8.65,0,0,0-3.14-2.6,1.82,1.82,0,0,1-.75-1.67,3.38,3.38,0,0,1,1-2.29,8.91,8.91,0,0,1,2.63-1.92,15.34,15.34,0,0,1,6.63-1.57,13.92,13.92,0,0,1,5.09.72,9.42,9.42,0,0,1,2.91,1.81,7.58,7.58,0,0,1,2.19,5.47,25.17,25.17,0,0,1-1.23,7.25q-1.23,4-3.08,8.47t-4,9.09l-4,9q-4.3,9.92-4.3,13.12c0,4.2,1.48,6.29,4.44,6.29q11.41,0,21.4-13.53a51.56,51.56,0,0,0,8.34-17.09,31.49,31.49,0,0,0,1.16-8q0-3.58-.24-6a22.63,22.63,0,0,0-.79-4.23,13.93,13.93,0,0,0-3-5.68q-1.44-1.77,1.29-4.17c2-1.68,4.86-2.53,8.55-2.53a7.59,7.59,0,0,1,6,3.21c2.19,2.56,3.29,6.21,3.29,11a47.36,47.36,0,0,1-2.12,14,63.1,63.1,0,0,1-5.81,13.19,68.25,68.25,0,0,1-8.72,11.8,65.63,65.63,0,0,1-10.83,9.5q-12.45,8.74-24.89,8.75Q865.7,519.94,862.49,512.62Z"/><path class="cls-21" d="M952.46,495.33a44.4,44.4,0,0,1,2-11.38A55,55,0,0,1,959,473.42a62,62,0,0,1,6.73-9.64,53.16,53.16,0,0,1,8.38-8q9.76-7.32,19.75-7.32,11.7,0,15.59,9.64a19.47,19.47,0,0,1,1.3,7.76,21.62,21.62,0,0,1-1.71,8.27,24,24,0,0,1-4.55,6.91,32.92,32.92,0,0,1-6.9,5.57,47.43,47.43,0,0,1-8.72,4.17,64.44,64.44,0,0,1-20.78,3.55,13.4,13.4,0,0,0-.34,2.87,18.55,18.55,0,0,0,.41,4.27,12.55,12.55,0,0,0,1.64,4.21,7.84,7.84,0,0,0,7.11,4.1,29,29,0,0,0,15.45-4.65,21.68,21.68,0,0,0,4.34-3.25,4.62,4.62,0,0,1,2.91-1.67,2.6,2.6,0,0,1,2.15,1.47,6.14,6.14,0,0,1,.92,3.32,10,10,0,0,1-2.05,6.28Q992,519.95,975,519.94q-10,0-16.14-6Q952.06,507.1,952.46,495.33Zm39.92-37.74q-7.17,0-13.81,9.85a74.08,74.08,0,0,0-9,20.1,33.24,33.24,0,0,0,19.82-9q7.73-7.38,7.73-14.15T992.38,457.59Z"/><path class="cls-21" d="M1039.22,516.52a13.42,13.42,0,0,1-2.77-4.55,17.78,17.78,0,0,1-1.06-6.42,39.49,39.49,0,0,1,1.68-9.81q1.67-6.15,4.27-14l5.74-17q12.24-35.54,14.15-55,.62-5.75,5.61-5.74a8.57,8.57,0,0,1,5.19,1.5q4,3,3.83,6.7a52.52,52.52,0,0,1-1.3,9q-1.15,5.3-3,11.56T1067.31,446l-9.43,27.76q-8.13,23.65-8.13,30.55,0,3.69,3,3.69a11.11,11.11,0,0,0,5.23-1.23,9.64,9.64,0,0,1,3-1.23,1.27,1.27,0,0,1,1.43,1.44q0,6.09-6.22,10.18-4.17,2.8-7.62,2.81a15.86,15.86,0,0,1-5.57-.82A10.53,10.53,0,0,1,1039.22,516.52Z"/><path class="cls-21" d="M1153.81,495.67a46,46,0,0,1,1.88-11.86,56.54,56.54,0,0,1,4.65-11.18,51.92,51.92,0,0,1,6.91-9.7,47.87,47.87,0,0,1,8.71-7.66,36,36,0,0,1,20.72-6.77q11.21,0,15.24,9a16.55,16.55,0,0,1,1.33,7.28,23.49,23.49,0,0,1-1.33,7.45,26.64,26.64,0,0,1-3.08,6.05q-4.17,6-8.4,6c-3.15,0-5.47-.86-7-2.59a5.53,5.53,0,0,1-1.23-5.27,2.78,2.78,0,0,1,1.23-1.6,21.56,21.56,0,0,0,2.6-2.29,16.08,16.08,0,0,0,4.65-10.87q.13-4.25-5.2-4.24-5.73,0-12,6.42-9.15,9.38-12.92,24-3.27,12.72,1.23,18.59a8.7,8.7,0,0,0,7.25,3.42q7.73,0,14.9-5.47a20.36,20.36,0,0,0,3.56-3.48c.91-1.19,1.75-1.78,2.53-1.78a2.29,2.29,0,0,1,1.94,1.13,4.92,4.92,0,0,1,.79,2.9q0,4-3.62,7.93a31.19,31.19,0,0,1-22.36,8.89q-11.15,0-17.22-6.36T1153.81,495.67Z"/><path class="cls-21" d="M1243.65,514.61a19,19,0,0,1-4.51-6.94,28.49,28.49,0,0,1-1.71-9.95,45.31,45.31,0,0,1,1.4-11.62,56.65,56.65,0,0,1,4.17-11.35,57.43,57.43,0,0,1,6.5-10.25,49.26,49.26,0,0,1,8.37-8.34q10-7.67,20.71-7.66,14.09,0,19.07,12.38,3.55,9,.41,21.66A56.23,56.23,0,0,1,1287.54,504a42.45,42.45,0,0,1-17.91,13.88,27.87,27.87,0,0,1-10.22,2.05,28.69,28.69,0,0,1-9-1.3A18,18,0,0,1,1243.65,514.61Zm13.06-33.16a66.2,66.2,0,0,0-3.25,10.39,43.49,43.49,0,0,0-1.13,10.08,17.07,17.07,0,0,0,1.47,7.46,4.76,4.76,0,0,0,4.55,2.7,10.62,10.62,0,0,0,6.19-2.16,30.25,30.25,0,0,0,5.91-5.71,54.43,54.43,0,0,0,5.4-8.2,79.22,79.22,0,0,0,4.44-9.71q4.17-11,4-19.55,0-7.51-3.07-9.57a6.24,6.24,0,0,0-3.45-.82,9.32,9.32,0,0,0-5.1,2,31.13,31.13,0,0,0-5.74,5.43,57.88,57.88,0,0,0-5.54,8A77.53,77.53,0,0,0,1256.71,481.45Z"/><path class="cls-21" d="M1378.88,461.42q-4,0-14.49,11.49-7.87,9-11.42,13.46l-6.15,7.8q-4,7.51-6.22,12.51l-3.69,7.93a19.55,19.55,0,0,1-2.5,4.13,3.64,3.64,0,0,1-2.87,1.2,9.65,9.65,0,0,1-3.49-.65,10.17,10.17,0,0,1-2.9-1.68,6.24,6.24,0,0,1-2.6-4.78,12.07,12.07,0,0,1,1.5-4l2.6-5.53q1.23-2.46,2.87-6.29l3.83-9.37q8.07-20.16,8.07-26a5.4,5.4,0,0,0-2.05-4.65l-1.37-1a1.88,1.88,0,0,1-.68-1.67,3.48,3.48,0,0,1,.92-2.29,8.27,8.27,0,0,1,2.43-1.92,13.56,13.56,0,0,1,6.18-1.57,14,14,0,0,1,4.89.69,10,10,0,0,1,3.08,1.84,6.85,6.85,0,0,1,2.59,5,21,21,0,0,1-.68,5.23,53,53,0,0,1-1.71,5.33c-.68,1.8-1.41,3.55-2.19,5.23-1.82,3.92-2.95,6.33-3.38,7.21s-.56,1.22-.38,1q12.51-16.22,15-19.14a64,64,0,0,1,8.2-8.34q5.4-4,10.22-4a10.1,10.1,0,0,1,7.69,3,11,11,0,0,1,2.88,7.93,29.43,29.43,0,0,1-2.19,10.12q-2.19,5.81-2.94,8.13l10-13.26,5.6-6.7q5.07-5.67,8.89-7.45a15.72,15.72,0,0,1,6.25-1.78,13.54,13.54,0,0,1,4.79.89,11.12,11.12,0,0,1,4,2.53,11.78,11.78,0,0,1,3.49,8.89,27.09,27.09,0,0,1-2.47,10.93q-2.46,5.61-4.3,9.2c-1.23,2.39-2.42,4.8-3.56,7.21q-5,10.88-5,16.13,0,3.69,3,3.69a11.14,11.14,0,0,0,5.23-1.23,9.62,9.62,0,0,1,3-1.23,1.27,1.27,0,0,1,1.44,1.44q0,6.09-6.22,10.18-4.17,2.8-7.63,2.81a15.9,15.9,0,0,1-5.57-.82,10.49,10.49,0,0,1-3.82-2.6,13.67,13.67,0,0,1-3.83-9.91,37.87,37.87,0,0,1,1.5-10.94,84.39,84.39,0,0,1,3.56-9.67q2-4.68,4.13-8.62t3.18-6.25q2.19-4.78,2.19-7c0-1.78-.94-2.67-2.8-2.67q-3.7,0-13.27,12.24-7.24,9.49-10,13.67l-4.71,6.84q-4,7.51-6.09,12.51l-3.48,7.93a20.21,20.21,0,0,1-2.26,4.13,3.22,3.22,0,0,1-2.66,1.2,10.37,10.37,0,0,1-3.32-.55,9.65,9.65,0,0,1-2.77-1.43q-2.65-2-2.66-4.21a18.42,18.42,0,0,1,1.47-6.08q1.47-3.87,3.65-8.65l9.57-20.23q5.13-11.28,5.13-14.33C1381.68,462.44,1380.75,461.42,1378.88,461.42Zm6.76,19.28s.07,0,.07-.07l.07-.14C1385.69,480.59,1385.64,480.65,1385.64,480.7Z"/><path class="cls-21" d="M1471.72,512.76q-.13,1-3,10.8T1464,539.08q-4.3,12.85-7.11,16a7.17,7.17,0,0,1-5.47,2.47,6.46,6.46,0,0,1-6-3.83,4.87,4.87,0,0,1-.61-2.43c0-.89.68-2.81,2.05-5.78q5.4-11.28,14.42-44.43,3.63-13.12,4.79-17.84l2.18-8.55a116.86,116.86,0,0,0,2.5-11.51c.25-2,.12-3.47-.38-4.31a6,6,0,0,0-1.71-1.92c-.63-.43-1.23-.8-1.77-1.12a1.63,1.63,0,0,1-.69-1.75,4,4,0,0,1,1.13-2.32,8.52,8.52,0,0,1,2.5-1.81,14.45,14.45,0,0,1,6.18-1.44,12.9,12.9,0,0,1,4.89.75,8.39,8.39,0,0,1,2.94,2.05q2.46,2.67,2.19,5.2-.69,5.26-1.51,9,12-17,24.82-17,11.68,0,15.65,12.1a34,34,0,0,1,1.37,10.32,42.13,42.13,0,0,1-1.85,12.21,54.65,54.65,0,0,1-5,11.58,58.1,58.1,0,0,1-7.31,10.09,59.44,59.44,0,0,1-8.82,8q-9.84,7.11-18.59,7.11T1471.72,512.76Zm10.56-29.16a63.66,63.66,0,0,0-4,9.61,28.7,28.7,0,0,0-1.54,8.75,11.55,11.55,0,0,0,1.71,6.53,5.69,5.69,0,0,0,5.06,2.56,13.74,13.74,0,0,0,6.66-1.81,29,29,0,0,0,6.43-4.89,43.67,43.67,0,0,0,5.81-7.21,56.66,56.66,0,0,0,4.68-8.78,49.15,49.15,0,0,0,4.31-19.21,18.19,18.19,0,0,0-1.3-7.66,4.23,4.23,0,0,0-4-2.73,9.82,9.82,0,0,0-5.64,2.08,41,41,0,0,0-6.15,5.54,74.39,74.39,0,0,0-6.36,7.93A82.39,82.39,0,0,0,1482.28,483.6Z"/><path class="cls-21" d="M1558,516.52a13.24,13.24,0,0,1-2.76-4.55,17.78,17.78,0,0,1-1.06-6.42,39.39,39.39,0,0,1,1.67-9.81q1.68-6.15,4.27-14l5.75-17q12.23-35.54,14.15-55c.41-3.83,2.27-5.74,5.6-5.74a8.58,8.58,0,0,1,5.2,1.5c2.64,2,3.92,4.24,3.82,6.7a52.38,52.38,0,0,1-1.29,9q-1.17,5.3-3,11.56T1586.1,446l-9.43,27.76q-8.14,23.65-8.14,30.55,0,3.69,3,3.69a11.14,11.14,0,0,0,5.23-1.23,9.53,9.53,0,0,1,3-1.23,1.27,1.27,0,0,1,1.44,1.44q0,6.09-6.22,10.18c-2.78,1.87-5.33,2.81-7.63,2.81a15.86,15.86,0,0,1-5.57-.82A10.61,10.61,0,0,1,1558,516.52Z"/><path class="cls-21" d="M1612.5,495.33a44.4,44.4,0,0,1,2-11.38,55,55,0,0,1,4.58-10.53,62,62,0,0,1,6.73-9.64,53.16,53.16,0,0,1,8.38-8q9.78-7.32,19.75-7.32,11.7,0,15.59,9.64a19.47,19.47,0,0,1,1.3,7.76,21.62,21.62,0,0,1-1.71,8.27,24,24,0,0,1-4.55,6.91,32.92,32.92,0,0,1-6.9,5.57,47.43,47.43,0,0,1-8.72,4.17,64.44,64.44,0,0,1-20.78,3.55,13.4,13.4,0,0,0-.34,2.87,18.55,18.55,0,0,0,.41,4.27,12.55,12.55,0,0,0,1.64,4.21,7.84,7.84,0,0,0,7.11,4.1,29,29,0,0,0,15.45-4.65,21.68,21.68,0,0,0,4.34-3.25,4.62,4.62,0,0,1,2.91-1.67,2.6,2.6,0,0,1,2.15,1.47,6.14,6.14,0,0,1,.92,3.32,10,10,0,0,1-2,6.28q-8.61,8.63-25.63,8.62-10.05,0-16.14-6Q1612.09,507.1,1612.5,495.33Zm39.92-37.74q-7.17,0-13.81,9.85a74.39,74.39,0,0,0-9,20.1,33.24,33.24,0,0,0,19.82-9q7.72-7.38,7.73-14.15T1652.42,457.59Z"/><path class="cls-21" d="M1735.69,501.34c1.32,0,2,.89,2,2.67a8,8,0,0,1-1.37,4.37q-1.85,4-7.38,7.52a23.27,23.27,0,0,1-12.65,4q-11,0-14-9.85-3.48-11.68,10.46-49.56-7.86-.67-8.54-2.73a4.12,4.12,0,0,1-.21-1.33,3.17,3.17,0,0,1,.65-1.68,9.5,9.5,0,0,1,1.68-1.84,7.54,7.54,0,0,1,4.85-2h5.4q7.38-17.29,10.53-19.68a5.56,5.56,0,0,1,3.35-1.1,8.59,8.59,0,0,1,3.08.48,6.87,6.87,0,0,1,2.18,1.37,6.15,6.15,0,0,1,2.19,4.58,7.59,7.59,0,0,1-.82,3.14l-5.06,11h1.64c2.83,0,5.1,0,6.84-.07l3.89-.07c.87,0,2-.07,3.25-.07s2,.48,2,1.44q0,9-21.33,9h-.55l-4.64,12q-7.86,21.33-7.87,29.88a5.71,5.71,0,0,0,1.1,3.72c.73.89,2.09,1.33,4.1,1.33a14.14,14.14,0,0,0,5.47-1,23.81,23.81,0,0,0,4.31-2.29c1.23-.84,2.29-1.61,3.17-2.29A4.07,4.07,0,0,1,1735.69,501.34Z"/><path class="cls-21" d="M1764.9,495.33a44.4,44.4,0,0,1,2-11.38,54.35,54.35,0,0,1,4.58-10.53,61.33,61.33,0,0,1,6.73-9.64,53.16,53.16,0,0,1,8.38-8q9.77-7.32,19.75-7.32,11.68,0,15.59,9.64a19.47,19.47,0,0,1,1.3,7.76,21.62,21.62,0,0,1-1.71,8.27,24.22,24.22,0,0,1-4.55,6.91,33.44,33.44,0,0,1-6.9,5.57,47.43,47.43,0,0,1-8.72,4.17,64.49,64.49,0,0,1-20.78,3.55,12.78,12.78,0,0,0-.34,2.87,18,18,0,0,0,.41,4.27,12.34,12.34,0,0,0,1.64,4.21,7.84,7.84,0,0,0,7.11,4.1,29.06,29.06,0,0,0,15.45-4.65,22,22,0,0,0,4.34-3.25,4.58,4.58,0,0,1,2.9-1.67,2.61,2.61,0,0,1,2.16,1.47,6.14,6.14,0,0,1,.92,3.32,10,10,0,0,1-2.05,6.28q-8.61,8.63-25.64,8.62-10,0-16.13-6Q1764.48,507.1,1764.9,495.33Zm39.92-37.74q-7.18,0-13.81,9.85a73.78,73.78,0,0,0-9,20.1,33.27,33.27,0,0,0,19.82-9q7.73-7.38,7.72-14.15T1804.82,457.59Z"/><path class="cls-22" d="M747.13,419.18q-9.17,0-18.53,22.43l-11.34,28.71q-10.8,27.4-20.72,36a136.33,136.33,0,0,1,33.29-6.63c1.83-.18,3.6-.27,5.34-.27a20.19,20.19,0,0,1,5.57.85,15.06,15.06,0,0,1,5.16,2.57q4.71,3.69,4.72,10.39c0,2.46-.92,3.69-2.74,3.69a6.3,6.3,0,0,1-2.94-.75,28.44,28.44,0,0,0-3.24-1.44,39.62,39.62,0,0,0-4.21-1.3A44,44,0,0,0,726.25,512a76.58,76.58,0,0,0-11.11.78c-3.56.53-6.91,1.08-10,1.68l-8.82,1.71a36.53,36.53,0,0,1-6.12.75,4.91,4.91,0,0,1-3.21-.93,10.74,10.74,0,0,1-2.09-2.35c-1.36-2.1-2.05-3.81-2.05-5.13,0-2.14.51-3.51,1.51-4.1q5.88-3.15,13.26-24.41,6.84-19.68,9.33-26.38t5.5-13.09a113.77,113.77,0,0,1,6.53-12,53.56,53.56,0,0,1,7.76-9.78q9.09-9,20-9,7.72,0,13,6.63a22.13,22.13,0,0,1,4.78,14.08q0,10.88-8.06,22.49a31.88,31.88,0,0,1-10.19,9.85,10.42,10.42,0,0,1-4.82,1.43,8.08,8.08,0,0,1-3.79-.85,11.52,11.52,0,0,1-2.87-2.09q-2.53-2.66-2.53-4.82c0-1.43.36-2.38,1.09-2.83a54.45,54.45,0,0,0,14-12.31q6.23-7.72,6.23-14.93T747.13,419.18Z"/><path class="cls-22" d="M781.8,492.33a44.4,44.4,0,0,1,2-11.38,55,55,0,0,1,4.58-10.53,61.39,61.39,0,0,1,6.74-9.64,52.68,52.68,0,0,1,8.37-8q9.78-7.32,19.76-7.32,11.68,0,15.58,9.64a19.29,19.29,0,0,1,1.3,7.76,21.44,21.44,0,0,1-1.71,8.27,24.18,24.18,0,0,1-4.54,6.91,33.24,33.24,0,0,1-6.91,5.57,47.33,47.33,0,0,1-8.71,4.17,64.53,64.53,0,0,1-20.78,3.55,12.67,12.67,0,0,0-.35,2.87,18.55,18.55,0,0,0,.41,4.27,12.55,12.55,0,0,0,1.64,4.21,7.84,7.84,0,0,0,7.11,4.1,29,29,0,0,0,15.45-4.65,21.4,21.4,0,0,0,4.34-3.25,4.62,4.62,0,0,1,2.91-1.67,2.59,2.59,0,0,1,2.15,1.47A6.06,6.06,0,0,1,832,502a10,10,0,0,1-2,6.28q-8.61,8.63-25.63,8.62-10.05,0-16.13-6Q781.39,504.1,781.8,492.33Zm39.92-37.74q-7.17,0-13.81,9.85a74.39,74.39,0,0,0-9,20.1,33.24,33.24,0,0,0,19.82-9q7.72-7.38,7.73-14.15T821.72,454.59Z"/><path class="cls-22" d="M865.49,509.62a12.67,12.67,0,0,1-1-5.33,27.43,27.43,0,0,1,1-6.8,67.17,67.17,0,0,1,2.46-7.62q1.5-3.9,3.35-7.93l3.48-7.93q6.78-15.66,5-18.46a8.65,8.65,0,0,0-3.14-2.6,1.82,1.82,0,0,1-.75-1.67,3.38,3.38,0,0,1,1-2.29,8.91,8.91,0,0,1,2.63-1.92,15.34,15.34,0,0,1,6.63-1.57,13.92,13.92,0,0,1,5.09.72,9.42,9.42,0,0,1,2.91,1.81,7.58,7.58,0,0,1,2.19,5.47,25.17,25.17,0,0,1-1.23,7.25q-1.23,4-3.08,8.47t-4,9.09l-4,9q-4.3,9.92-4.3,13.12c0,4.2,1.48,6.29,4.44,6.29q11.41,0,21.4-13.53a51.56,51.56,0,0,0,8.34-17.09,31.49,31.49,0,0,0,1.16-8q0-3.58-.24-6a22.63,22.63,0,0,0-.79-4.23,13.93,13.93,0,0,0-3-5.68q-1.44-1.77,1.29-4.17c2-1.68,4.86-2.53,8.55-2.53a7.59,7.59,0,0,1,6,3.21c2.19,2.56,3.29,6.21,3.29,11a47.36,47.36,0,0,1-2.12,14,63.1,63.1,0,0,1-5.81,13.19,68.25,68.25,0,0,1-8.72,11.8,65.63,65.63,0,0,1-10.83,9.5q-12.45,8.74-24.89,8.75Q868.7,516.94,865.49,509.62Z"/><path class="cls-22" d="M955.46,492.33a44.4,44.4,0,0,1,2-11.38A55,55,0,0,1,962,470.42a62,62,0,0,1,6.73-9.64,53.16,53.16,0,0,1,8.38-8q9.76-7.32,19.75-7.32,11.7,0,15.59,9.64a19.47,19.47,0,0,1,1.3,7.76,21.62,21.62,0,0,1-1.71,8.27,24,24,0,0,1-4.55,6.91,32.92,32.92,0,0,1-6.9,5.57,47.43,47.43,0,0,1-8.72,4.17,64.44,64.44,0,0,1-20.78,3.55,13.4,13.4,0,0,0-.34,2.87,18.55,18.55,0,0,0,.41,4.27,12.55,12.55,0,0,0,1.64,4.21,7.84,7.84,0,0,0,7.11,4.1,29,29,0,0,0,15.45-4.65,21.68,21.68,0,0,0,4.34-3.25,4.62,4.62,0,0,1,2.91-1.67,2.6,2.6,0,0,1,2.15,1.47,6.14,6.14,0,0,1,.92,3.32,10,10,0,0,1-2.05,6.28Q995,516.95,978,516.94q-10,0-16.14-6Q955.06,504.1,955.46,492.33Zm39.92-37.74q-7.17,0-13.81,9.85a74.08,74.08,0,0,0-9,20.1,33.24,33.24,0,0,0,19.82-9q7.73-7.38,7.73-14.15T995.38,454.59Z"/><path class="cls-22" d="M1042.22,513.52a13.42,13.42,0,0,1-2.77-4.55,17.78,17.78,0,0,1-1.06-6.42,39.49,39.49,0,0,1,1.68-9.81q1.67-6.15,4.27-14l5.74-17q12.24-35.54,14.15-55,.62-5.75,5.61-5.74a8.57,8.57,0,0,1,5.19,1.5q4,3,3.83,6.7a52.52,52.52,0,0,1-1.3,9q-1.15,5.3-3,11.56T1070.31,443l-9.43,27.76q-8.13,23.65-8.13,30.55,0,3.69,3,3.69a11.11,11.11,0,0,0,5.23-1.23,9.64,9.64,0,0,1,3-1.23,1.27,1.27,0,0,1,1.43,1.44q0,6.09-6.22,10.18-4.17,2.8-7.62,2.81a15.86,15.86,0,0,1-5.57-.82A10.53,10.53,0,0,1,1042.22,513.52Z"/><path class="cls-22" d="M1156.81,492.67a46,46,0,0,1,1.88-11.86,56.54,56.54,0,0,1,4.65-11.18,51.92,51.92,0,0,1,6.91-9.7,47.87,47.87,0,0,1,8.71-7.66,36,36,0,0,1,20.72-6.77q11.21,0,15.24,9a16.55,16.55,0,0,1,1.33,7.28,23.49,23.49,0,0,1-1.33,7.45,26.64,26.64,0,0,1-3.08,6.05q-4.17,6-8.4,6c-3.15,0-5.47-.86-7-2.59a5.53,5.53,0,0,1-1.23-5.27,2.78,2.78,0,0,1,1.23-1.6,21.56,21.56,0,0,0,2.6-2.29,16.08,16.08,0,0,0,4.65-10.87q.13-4.25-5.2-4.24-5.73,0-12,6.42-9.15,9.38-12.92,24-3.27,12.72,1.23,18.59a8.7,8.7,0,0,0,7.25,3.42q7.73,0,14.9-5.47a20.36,20.36,0,0,0,3.56-3.48c.91-1.19,1.75-1.78,2.53-1.78a2.29,2.29,0,0,1,1.94,1.13,4.92,4.92,0,0,1,.79,2.9q0,4-3.62,7.93a31.19,31.19,0,0,1-22.36,8.89q-11.15,0-17.22-6.36T1156.81,492.67Z"/><path class="cls-22" d="M1246.65,511.61a19,19,0,0,1-4.51-6.94,28.49,28.49,0,0,1-1.71-9.95,45.31,45.31,0,0,1,1.4-11.62,56.65,56.65,0,0,1,4.17-11.35,57.43,57.43,0,0,1,6.5-10.25,49.26,49.26,0,0,1,8.37-8.34q10-7.67,20.71-7.66,14.09,0,19.07,12.38,3.55,9,.41,21.66A56.23,56.23,0,0,1,1290.54,501a42.45,42.45,0,0,1-17.91,13.88,27.87,27.87,0,0,1-10.22,2.05,28.69,28.69,0,0,1-9-1.3A18,18,0,0,1,1246.65,511.61Zm13.06-33.16a66.2,66.2,0,0,0-3.25,10.39,43.49,43.49,0,0,0-1.13,10.08,17.07,17.07,0,0,0,1.47,7.46,4.76,4.76,0,0,0,4.55,2.7,10.62,10.62,0,0,0,6.19-2.16,30.25,30.25,0,0,0,5.91-5.71,54.43,54.43,0,0,0,5.4-8.2,79.22,79.22,0,0,0,4.44-9.71q4.17-11,4-19.55,0-7.51-3.07-9.57a6.24,6.24,0,0,0-3.45-.82,9.32,9.32,0,0,0-5.1,2,31.13,31.13,0,0,0-5.74,5.43,57.88,57.88,0,0,0-5.54,8A77.53,77.53,0,0,0,1259.71,478.45Z"/><path class="cls-22" d="M1381.88,458.42q-4,0-14.49,11.49-7.87,9-11.42,13.46l-6.15,7.8q-4,7.51-6.22,12.51l-3.69,7.93a19.55,19.55,0,0,1-2.5,4.13,3.64,3.64,0,0,1-2.87,1.2,9.65,9.65,0,0,1-3.49-.65,10.17,10.17,0,0,1-2.9-1.68,6.24,6.24,0,0,1-2.6-4.78,12.07,12.07,0,0,1,1.5-4l2.6-5.53q1.23-2.46,2.87-6.29l3.83-9.37q8.07-20.16,8.07-26a5.4,5.4,0,0,0-2.05-4.65l-1.37-1a1.88,1.88,0,0,1-.68-1.67,3.48,3.48,0,0,1,.92-2.29,8.27,8.27,0,0,1,2.43-1.92,13.56,13.56,0,0,1,6.18-1.57,14,14,0,0,1,4.89.69,10,10,0,0,1,3.08,1.84,6.85,6.85,0,0,1,2.59,5,21,21,0,0,1-.68,5.23,53,53,0,0,1-1.71,5.33c-.68,1.8-1.41,3.55-2.19,5.23-1.82,3.92-2.95,6.33-3.38,7.21s-.56,1.22-.38,1q12.51-16.22,15-19.14a64,64,0,0,1,8.2-8.34q5.4-4,10.22-4a10.1,10.1,0,0,1,7.69,3,11,11,0,0,1,2.88,7.93,29.43,29.43,0,0,1-2.19,10.12q-2.19,5.81-2.94,8.13l10-13.26,5.6-6.7q5.07-5.67,8.89-7.45a15.72,15.72,0,0,1,6.25-1.78,13.54,13.54,0,0,1,4.79.89,11.12,11.12,0,0,1,4,2.53,11.78,11.78,0,0,1,3.49,8.89,27.09,27.09,0,0,1-2.47,10.93q-2.46,5.61-4.3,9.2c-1.23,2.39-2.42,4.8-3.56,7.21q-5,10.88-5,16.13,0,3.69,3,3.69a11.14,11.14,0,0,0,5.23-1.23,9.62,9.62,0,0,1,3-1.23,1.27,1.27,0,0,1,1.44,1.44q0,6.09-6.22,10.18-4.17,2.8-7.63,2.81a15.9,15.9,0,0,1-5.57-.82,10.49,10.49,0,0,1-3.82-2.6,13.67,13.67,0,0,1-3.83-9.91,37.87,37.87,0,0,1,1.5-10.94,84.39,84.39,0,0,1,3.56-9.67q2-4.68,4.13-8.62t3.18-6.25q2.19-4.78,2.19-7c0-1.78-.94-2.67-2.8-2.67q-3.7,0-13.27,12.24-7.24,9.49-10,13.67l-4.71,6.84q-4,7.51-6.09,12.51l-3.48,7.93a20.21,20.21,0,0,1-2.26,4.13,3.22,3.22,0,0,1-2.66,1.2,10.37,10.37,0,0,1-3.32-.55,9.65,9.65,0,0,1-2.77-1.43q-2.65-2-2.66-4.21a18.42,18.42,0,0,1,1.47-6.08q1.47-3.87,3.65-8.65l9.57-20.23q5.13-11.28,5.13-14.33C1384.68,459.44,1383.75,458.42,1381.88,458.42Zm6.76,19.28s.07,0,.07-.07l.07-.14C1388.69,477.59,1388.64,477.65,1388.64,477.7Z"/><path class="cls-22" d="M1474.72,509.76q-.13,1-3,10.8T1467,536.08q-4.3,12.85-7.11,16a7.17,7.17,0,0,1-5.47,2.47,6.46,6.46,0,0,1-6-3.83,4.87,4.87,0,0,1-.61-2.43c0-.89.68-2.81,2.05-5.78q5.4-11.28,14.42-44.43,3.63-13.12,4.79-17.84l2.18-8.55a116.86,116.86,0,0,0,2.5-11.51c.25-2,.12-3.47-.38-4.31a6,6,0,0,0-1.71-1.92c-.63-.43-1.23-.8-1.77-1.12a1.63,1.63,0,0,1-.69-1.75,4,4,0,0,1,1.13-2.32,8.52,8.52,0,0,1,2.5-1.81,14.45,14.45,0,0,1,6.18-1.44,12.9,12.9,0,0,1,4.89.75,8.39,8.39,0,0,1,2.94,2.05q2.46,2.67,2.19,5.2-.69,5.26-1.51,9,12-17,24.82-17,11.68,0,15.65,12.1a34,34,0,0,1,1.37,10.32,42.13,42.13,0,0,1-1.85,12.21,54.65,54.65,0,0,1-5,11.58,58.1,58.1,0,0,1-7.31,10.09,59.44,59.44,0,0,1-8.82,8q-9.84,7.11-18.59,7.11T1474.72,509.76Zm10.56-29.16a63.66,63.66,0,0,0-4,9.61,28.7,28.7,0,0,0-1.54,8.75,11.55,11.55,0,0,0,1.71,6.53,5.69,5.69,0,0,0,5.06,2.56,13.74,13.74,0,0,0,6.66-1.81,29,29,0,0,0,6.43-4.89,43.67,43.67,0,0,0,5.81-7.21,56.66,56.66,0,0,0,4.68-8.78,49.15,49.15,0,0,0,4.31-19.21,18.19,18.19,0,0,0-1.3-7.66,4.23,4.23,0,0,0-4-2.73,9.82,9.82,0,0,0-5.64,2.08,41,41,0,0,0-6.15,5.54,74.39,74.39,0,0,0-6.36,7.93A82.39,82.39,0,0,0,1485.28,480.6Z"/><path class="cls-22" d="M1561,513.52a13.24,13.24,0,0,1-2.76-4.55,17.78,17.78,0,0,1-1.06-6.42,39.39,39.39,0,0,1,1.67-9.81q1.68-6.15,4.27-14l5.75-17q12.23-35.54,14.15-55c.41-3.83,2.27-5.74,5.6-5.74a8.58,8.58,0,0,1,5.2,1.5c2.64,2,3.92,4.24,3.82,6.7a52.38,52.38,0,0,1-1.29,9q-1.17,5.3-3,11.56T1589.1,443l-9.43,27.76q-8.14,23.65-8.14,30.55,0,3.69,3,3.69a11.14,11.14,0,0,0,5.23-1.23,9.53,9.53,0,0,1,3-1.23,1.27,1.27,0,0,1,1.44,1.44q0,6.09-6.22,10.18c-2.78,1.87-5.33,2.81-7.63,2.81a15.86,15.86,0,0,1-5.57-.82A10.61,10.61,0,0,1,1561,513.52Z"/><path class="cls-22" d="M1615.5,492.33a44.4,44.4,0,0,1,2-11.38,55,55,0,0,1,4.58-10.53,62,62,0,0,1,6.73-9.64,53.16,53.16,0,0,1,8.38-8q9.78-7.32,19.75-7.32,11.7,0,15.59,9.64a19.47,19.47,0,0,1,1.3,7.76,21.62,21.62,0,0,1-1.71,8.27,24,24,0,0,1-4.55,6.91,32.92,32.92,0,0,1-6.9,5.57,47.43,47.43,0,0,1-8.72,4.17,64.44,64.44,0,0,1-20.78,3.55,13.4,13.4,0,0,0-.34,2.87,18.55,18.55,0,0,0,.41,4.27,12.55,12.55,0,0,0,1.64,4.21,7.84,7.84,0,0,0,7.11,4.1,29,29,0,0,0,15.45-4.65,21.68,21.68,0,0,0,4.34-3.25,4.62,4.62,0,0,1,2.91-1.67,2.6,2.6,0,0,1,2.15,1.47,6.14,6.14,0,0,1,.92,3.32,10,10,0,0,1-2,6.28q-8.61,8.63-25.63,8.62-10.05,0-16.14-6Q1615.09,504.1,1615.5,492.33Zm39.92-37.74q-7.17,0-13.81,9.85a74.39,74.39,0,0,0-9,20.1,33.24,33.24,0,0,0,19.82-9q7.72-7.38,7.73-14.15T1655.42,454.59Z"/><path class="cls-22" d="M1738.69,498.34c1.32,0,2,.89,2,2.67a8,8,0,0,1-1.37,4.37q-1.85,4-7.38,7.52a23.27,23.27,0,0,1-12.65,4q-11,0-14-9.85-3.48-11.68,10.46-49.56-7.86-.67-8.54-2.73a4.12,4.12,0,0,1-.21-1.33,3.17,3.17,0,0,1,.65-1.68,9.5,9.5,0,0,1,1.68-1.84,7.54,7.54,0,0,1,4.85-2h5.4q7.38-17.29,10.53-19.68a5.56,5.56,0,0,1,3.35-1.1,8.59,8.59,0,0,1,3.08.48,6.87,6.87,0,0,1,2.18,1.37,6.15,6.15,0,0,1,2.19,4.58,7.59,7.59,0,0,1-.82,3.14l-5.06,11h1.64c2.83,0,5.1,0,6.84-.07l3.89-.07c.87,0,2-.07,3.25-.07s2,.48,2,1.44q0,9-21.33,9h-.55l-4.64,12q-7.86,21.33-7.87,29.88a5.71,5.71,0,0,0,1.1,3.72c.73.89,2.09,1.33,4.1,1.33a14.14,14.14,0,0,0,5.47-1,23.81,23.81,0,0,0,4.31-2.29c1.23-.84,2.29-1.61,3.17-2.29A4.07,4.07,0,0,1,1738.69,498.34Z"/><path class="cls-22" d="M1767.9,492.33a44.4,44.4,0,0,1,2-11.38,54.35,54.35,0,0,1,4.58-10.53,61.33,61.33,0,0,1,6.73-9.64,53.16,53.16,0,0,1,8.38-8q9.77-7.32,19.75-7.32,11.68,0,15.59,9.64a19.47,19.47,0,0,1,1.3,7.76,21.62,21.62,0,0,1-1.71,8.27,24.22,24.22,0,0,1-4.55,6.91,33.44,33.44,0,0,1-6.9,5.57,47.43,47.43,0,0,1-8.72,4.17,64.49,64.49,0,0,1-20.78,3.55,12.78,12.78,0,0,0-.34,2.87,18,18,0,0,0,.41,4.27,12.34,12.34,0,0,0,1.64,4.21,7.84,7.84,0,0,0,7.11,4.1,29.06,29.06,0,0,0,15.45-4.65,22,22,0,0,0,4.34-3.25,4.58,4.58,0,0,1,2.9-1.67,2.61,2.61,0,0,1,2.16,1.47,6.14,6.14,0,0,1,.92,3.32,10,10,0,0,1-2.05,6.28q-8.61,8.63-25.64,8.62-10,0-16.13-6Q1767.48,504.1,1767.9,492.33Zm39.92-37.74q-7.18,0-13.81,9.85a73.78,73.78,0,0,0-9,20.1,33.27,33.27,0,0,0,19.82-9q7.73-7.38,7.72-14.15T1807.82,454.59Z"/><g class="cls-23"><path class="cls-22" d="M983.47,344.35c.61,0,.91.43.91,1.3a4.4,4.4,0,0,1-.47,2.14,9.53,9.53,0,0,1-1.1,1.54,7.86,7.86,0,0,1-1.58,1.31,8.43,8.43,0,0,1-4.7,1.47,10.22,10.22,0,0,1-3.92-.61,6.68,6.68,0,0,1-2.51-1.81,10.09,10.09,0,0,1-2.27-7,46.5,46.5,0,0,1,1.83-11.63q1.83-6.87,3.53-11.75t3.5-9.32l3.3-8.39q-5.43,4.88-13.74,20.47l-8.86,16.77q-7.1,13.26-10.14,13.26a4.06,4.06,0,0,1-4.07-2.56q-1-2.46-1-8.34a66.34,66.34,0,0,1,.94-11.27q.93-5.42,2.36-10.57a128.69,128.69,0,0,1,6.45-18.09q-3.86,2.16-8.54,9.63-3.58,6-5,8.72L928.9,337q-5.89,10.74-9.48,13.26a9.56,9.56,0,0,1-5.61,1.83,4.22,4.22,0,0,1-3.7-1.61,2.23,2.23,0,0,1-.43-1.21c0-.37.11-.59.32-.66a10.4,10.4,0,0,0,3.21-1.3c.62-.45,1.24-.91,1.85-1.39a18.28,18.28,0,0,0,2.67-3q1.75-2.32,3.81-5.6t4.29-7.35l4.65-8.57A88.88,88.88,0,0,1,944,301.43a23.13,23.13,0,0,1,4.91-4.14,13.8,13.8,0,0,1,5.6-2.31,8.2,8.2,0,0,1,1.63-.18,7.33,7.33,0,0,1,1.69.22,4.89,4.89,0,0,1,1.63.69,2.29,2.29,0,0,1,1,2.93c-.2.74-.58,1.83-1.14,3.3l-2,5.24q-6.93,19.11-7.58,34.79c1.29-2.23,2.6-4.66,3.91-7.29l4.14-8.17,4.36-8.31q10.06-18.68,18.71-21.39a10.06,10.06,0,0,1,3-.58,4.7,4.7,0,0,1,1.9.31,5.16,5.16,0,0,1,1.25.78,2.23,2.23,0,0,1,.87,2.4c-.27.82-.62,1.86-1.06,3.13l-5.31,15.49-1.9,6.08a96.78,96.78,0,0,0-3.74,16.19,6.47,6.47,0,0,0,.53,3.72,2.29,2.29,0,0,0,2.07,1.33,8.09,8.09,0,0,0,2.07-.2,6.75,6.75,0,0,0,1.3-.46l1-.43A1.55,1.55,0,0,1,983.47,344.35Z"/><path class="cls-22" d="M1003.21,349.25a10.18,10.18,0,0,1-2.42-3.71,15.22,15.22,0,0,1-.91-5.33,24.85,24.85,0,0,1,.75-6.23,30.39,30.39,0,0,1,2.23-6.08,31.42,31.42,0,0,1,3.48-5.49,26.36,26.36,0,0,1,4.49-4.47,18,18,0,0,1,11.09-4.1q7.55,0,10.22,6.63,1.9,4.8.22,11.61a30,30,0,0,1-5.64,11.5,22.7,22.7,0,0,1-9.59,7.43,15.27,15.27,0,0,1-10.27.4A9.47,9.47,0,0,1,1003.21,349.25Zm7-17.76a33.92,33.92,0,0,0-1.74,5.57,23.23,23.23,0,0,0-.61,5.4,9.11,9.11,0,0,0,.79,4,2.54,2.54,0,0,0,2.44,1.45,5.69,5.69,0,0,0,3.31-1.16,15.8,15.8,0,0,0,3.17-3.05,29.4,29.4,0,0,0,2.89-4.4,41.58,41.58,0,0,0,2.38-5.2,28.69,28.69,0,0,0,2.16-10.47q0-4-1.65-5.13a3.33,3.33,0,0,0-1.85-.44,4.93,4.93,0,0,0-2.72,1.08,16.17,16.17,0,0,0-3.08,2.91,30.59,30.59,0,0,0-3,4.29A40.42,40.42,0,0,0,1010.21,331.49Z"/><path class="cls-22" d="M1048.19,350.86a4.64,4.64,0,0,1-1.17-1.22,2.54,2.54,0,0,1-.48-1.17,3.24,3.24,0,0,1,.2-1.21c.16-.48.37-1.06.64-1.74q7.47-18.39,7.47-24.69a3,3,0,0,0-1.2-2.49l-.74-.51a1.14,1.14,0,0,1-.35-.9,1.88,1.88,0,0,1,.46-1.22,4.62,4.62,0,0,1,1.25-1,6.81,6.81,0,0,1,3.24-.84,7.2,7.2,0,0,1,2.6.37,4.76,4.76,0,0,1,1.59,1,3.86,3.86,0,0,1,1.41,2.78,12.56,12.56,0,0,1-.33,3c-.23,1-.5,2-.82,2.95s-.64,1.88-1,2.75a20,20,0,0,0-.63,1.92,5.68,5.68,0,0,0-.22,1.61,3.15,3.15,0,0,0,1.07-1.5l1.42-2.71q4.77-8.56,9.31-11.35a6.16,6.16,0,0,1,3.16-.77,3.77,3.77,0,0,1,3,1.3,4.54,4.54,0,0,1,1.19,2.88,9.54,9.54,0,0,1-.22,2.61,7.23,7.23,0,0,1-.83,2,3.44,3.44,0,0,1-2.93,2.05,1.33,1.33,0,0,1-.87-.33l-.81-.69a3.6,3.6,0,0,0-2.33-1.06,4.42,4.42,0,0,0-2.7,1.46,27.05,27.05,0,0,0-3.32,3.77,70.19,70.19,0,0,0-9.45,17.14l-1.61,4.25a11.14,11.14,0,0,1-1.1,2.25,1.61,1.61,0,0,1-1.41.68,5.32,5.32,0,0,1-1.86-.35A6.36,6.36,0,0,1,1048.19,350.86Z"/><path class="cls-22" d="M1114.7,320.76c-.76,0-1.83.73-3.22,2.18s-2.6,2.78-3.63,4l-3.11,3.74-6,7.65q-2.12,4-3.33,6.7l-2,4.25a10.94,10.94,0,0,1-1.33,2.22,1.94,1.94,0,0,1-1.54.64,5.17,5.17,0,0,1-1.87-.35,5.41,5.41,0,0,1-1.56-.9,3.36,3.36,0,0,1-1.39-2.56,6.37,6.37,0,0,1,.81-2.16l1.39-3c.44-.88,1-2,1.54-3.37l2-5q4.32-10.8,4.32-14a2.9,2.9,0,0,0-1.1-2.49l-.73-.51a1,1,0,0,1-.37-.9,1.88,1.88,0,0,1,.5-1.22,4.59,4.59,0,0,1,1.3-1,7.23,7.23,0,0,1,3.31-.84,7,7,0,0,1,2.58.37,4.35,4.35,0,0,1,1.54,1,3.7,3.7,0,0,1,1.36,2.67,11.73,11.73,0,0,1-.35,2.8,28.2,28.2,0,0,1-.88,2.86c-.36,1-.73,1.91-1.12,2.83s-.74,1.74-1.06,2.42l-.73,1.58q-.3.58-.15.36,4.07-5.64,5.35-7.25l2.56-3.07a25.18,25.18,0,0,1,4.43-4.36c2.18-1.47,3.88-2.2,5.13-2.2a9.08,9.08,0,0,1,3.15.48,6.63,6.63,0,0,1,2.23,1.35,6.22,6.22,0,0,1,2,4.76,15.56,15.56,0,0,1-1.32,6c-.88,2.1-1.64,3.81-2.29,5.11s-1.26,2.63-1.85,4q-2.74,6.1-2.75,8.9c0,.83.66,1.24,2,1.24a5.93,5.93,0,0,0,2.8-.66,5.15,5.15,0,0,1,1.63-.66.68.68,0,0,1,.77.77q0,3.25-3.33,5.46a7.54,7.54,0,0,1-4.1,1.5,10.06,10.06,0,0,1-3.1-.4,5.9,5.9,0,0,1-2.18-1.29,6.91,6.91,0,0,1-2.16-5.42q0-4.25,2.68-10.62c1.29-2.9,2.21-4.89,2.74-6l1.25-2.6a9.4,9.4,0,0,0,1.13-3.7C1116.71,321.21,1116,320.76,1114.7,320.76Z"/><path class="cls-22" d="M1152.32,344.9c.63,0,1,.41,1,1.24a5.36,5.36,0,0,1-1.5,3.41,7.41,7.41,0,0,1-5.9,2.56q-4.24,0-5.82-3.44a6.68,6.68,0,0,1-.59-2.93,13.73,13.73,0,0,1,.61-3.83c.4-1.4.9-2.88,1.5-4.43s1.25-3.12,2-4.71l1.94-4.61q2.12-5.16,2.12-6.81a4.38,4.38,0,0,0-.35-2.18,3.06,3.06,0,0,0-.75-.83l-.73-.51a1,1,0,0,1-.37-.9,1.88,1.88,0,0,1,.5-1.22,4.59,4.59,0,0,1,1.3-1,8.36,8.36,0,0,1,3.84-.84q5.38,0,5.39,2.82a20.47,20.47,0,0,1-1.72,7.53c-1.15,2.82-2.13,5.09-2.93,6.83l-2.2,5.05q-2.41,5.56-2.42,8a1.43,1.43,0,0,0,1.61,1.61,5.46,5.46,0,0,0,2.38-.4A3.07,3.07,0,0,1,1152.32,344.9Zm7.5-39.65a6.34,6.34,0,0,1-1.83,1.39,5.89,5.89,0,0,1-2.16.66,3.9,3.9,0,0,1-2.14-.34,5.08,5.08,0,0,1-1.74-1.36,5.66,5.66,0,0,1-1.57-3.7,5.25,5.25,0,0,1,.6-2.8,5,5,0,0,1,1.52-1.52,6.14,6.14,0,0,1,3.31-1.13,10.09,10.09,0,0,1,2.42.22,4.78,4.78,0,0,1,1.59.73,3.5,3.5,0,0,1,1.8,3,7.34,7.34,0,0,1-.5,2.89A6.75,6.75,0,0,1,1159.82,305.25Z"/><path class="cls-22" d="M1197.59,320.76c-.76,0-1.84.73-3.23,2.18s-2.6,2.78-3.62,4l-3.11,3.74-6,7.65q-2.13,4-3.33,6.7l-2,4.25a10.44,10.44,0,0,1-1.34,2.22,1.94,1.94,0,0,1-1.54.64,5.16,5.16,0,0,1-1.86-.35,5.41,5.41,0,0,1-1.56-.9,3.33,3.33,0,0,1-1.39-2.56,6.5,6.5,0,0,1,.8-2.16l1.4-3c.44-.88,1-2,1.53-3.37l2.06-5q4.32-10.8,4.32-14a2.9,2.9,0,0,0-1.1-2.49l-.73-.51a1,1,0,0,1-.37-.9,1.87,1.87,0,0,1,.49-1.22,4.74,4.74,0,0,1,1.3-1,7.27,7.27,0,0,1,3.32-.84,7,7,0,0,1,2.58.37,4.44,4.44,0,0,1,1.54,1,3.69,3.69,0,0,1,1.35,2.67,11.25,11.25,0,0,1-.35,2.8,28.1,28.1,0,0,1-.87,2.86c-.36,1-.73,1.91-1.12,2.83s-.75,1.74-1.06,2.42l-.74,1.58c-.19.39-.24.51-.14.36q4.07-5.64,5.34-7.25l2.57-3.07a24.84,24.84,0,0,1,4.43-4.36q3.25-2.21,5.13-2.2a9.08,9.08,0,0,1,3.15.48,6.73,6.73,0,0,1,2.23,1.35,6.22,6.22,0,0,1,2,4.76,15.72,15.72,0,0,1-1.31,6c-.88,2.1-1.65,3.81-2.29,5.11s-1.27,2.63-1.85,4q-2.74,6.1-2.75,8.9c0,.83.66,1.24,2,1.24a6,6,0,0,0,2.8-.66,5.06,5.06,0,0,1,1.63-.66.68.68,0,0,1,.77.77q0,3.25-3.33,5.46a7.54,7.54,0,0,1-4.11,1.5,10,10,0,0,1-3.09-.4,5.9,5.9,0,0,1-2.18-1.29,6.91,6.91,0,0,1-2.16-5.42q0-4.25,2.67-10.62c1.3-2.9,2.21-4.89,2.75-6l1.24-2.6a9.28,9.28,0,0,0,1.14-3.7C1199.6,321.21,1198.93,320.76,1197.59,320.76Z"/><path class="cls-22" d="M1244.39,343.76q-5.57,8.36-12.34,8.35-6.1,0-8.24-6.52a17.76,17.76,0,0,1-.73-5.49,23.86,23.86,0,0,1,.93-6.54,30.71,30.71,0,0,1,2.55-6.21,30.1,30.1,0,0,1,3.79-5.4,27.75,27.75,0,0,1,4.67-4.26,17.33,17.33,0,0,1,10.33-3.85,7.52,7.52,0,0,1,7.32,4.8c.29-.32.56-.64.81-1a8.84,8.84,0,0,1,.8-.94,2.64,2.64,0,0,1,1.67-1,4.93,4.93,0,0,1,1.5.26,7.66,7.66,0,0,1,1.52.69q1.8,1.06,1.35,2a75.73,75.73,0,0,0-3.36,8.57l-5.42,17.29q-6.42,19.67-16.26,25.41a12.26,12.26,0,0,1-4.51,1.78,7.89,7.89,0,0,1-2.74,0,5.26,5.26,0,0,1-1.51-.62c-1-.61-1.42-1.16-1.42-1.65,0-.85.56-1.37,1.7-1.57a11.06,11.06,0,0,0,3.57-1.37,20.81,20.81,0,0,0,3.55-2.62Q1240.85,357.54,1244.39,343.76Zm-11-12.71a34.93,34.93,0,0,0-1.52,5.4,24,24,0,0,0-.55,4.53,22.57,22.57,0,0,0,.11,2.67,5.06,5.06,0,0,0,.44,1.61,2.31,2.31,0,0,0,2.16,1.54,4.8,4.8,0,0,0,2.82-1,18.66,18.66,0,0,0,2.93-2.76,35.36,35.36,0,0,0,3.07-4.14,56.53,56.53,0,0,0,2.93-5.13,50.34,50.34,0,0,0,4.32-11.61,4,4,0,0,0-1.24-2.08c-1.39-1.35-2.65-2-3.77-2a6.3,6.3,0,0,0-3.37,1.05,13.64,13.64,0,0,0-3.21,2.82,25.55,25.55,0,0,0-2.84,4.13A35.5,35.5,0,0,0,1233.43,331.05Z"/><path class="cls-22" d="M1286.94,307.34a11.64,11.64,0,0,1-2.48,1.46,6.36,6.36,0,0,1-2.56.54c-.88,0-1.37-.28-1.46-.85,0-.31.15-.74.62-1.28l1.57-1.61c2-2.1,3.08-4,3.08-5.57a6.9,6.9,0,0,0-.92-3.68c-.61-1-1-1.69-1.22-2.1a2,2,0,0,1,.13-1.67,4,4,0,0,1,1.73-1.81,6.58,6.58,0,0,1,3.36-.77,3.72,3.72,0,0,1,3.25,1.81,7.06,7.06,0,0,1,1.21,4,11.18,11.18,0,0,1-.53,3.72,15.82,15.82,0,0,1-1.39,2.95,16.09,16.09,0,0,1-2,2.67A19.11,19.11,0,0,1,1286.94,307.34Z"/><path class="cls-22" d="M1300.15,345.3a4.58,4.58,0,0,1,.49-2.11,5.64,5.64,0,0,1,1.23-1.63,4.71,4.71,0,0,1,3.22-1.43c1,0,1.46.5,1.46,1.51,0,2.54.85,4.3,2.53,5.31a3.73,3.73,0,0,0,1.91.55,5.85,5.85,0,0,0,1.68-.22,3.92,3.92,0,0,0,1.28-.7,3.16,3.16,0,0,0,1.32-2.53,5.61,5.61,0,0,0-.66-2.69,22,22,0,0,0-1.65-2.58l-2.08-2.93q-4.39-5.87-4.4-10.8a10.1,10.1,0,0,1,3.48-7.44,14.12,14.12,0,0,1,10.14-3.77q5.43,0,8.46,2.67a6.42,6.42,0,0,1,2.49,4.95,5.56,5.56,0,0,1-2.19,4.61,4.75,4.75,0,0,1-4,1.14,2.07,2.07,0,0,1-1.35-.9,1.82,1.82,0,0,1-.19-1.63,6,6,0,0,0,.3-1.9,4.69,4.69,0,0,0-.37-1.84,4.12,4.12,0,0,0-1-1.42,3.87,3.87,0,0,0-2.69-1.21,7.3,7.3,0,0,0-2.33.31,5.07,5.07,0,0,0-1.61.9,4.25,4.25,0,0,0-1.43,3.24,7.66,7.66,0,0,0,.66,3.31,19.52,19.52,0,0,0,1.63,2.78c.65.93,1.35,1.87,2.11,2.82a29.89,29.89,0,0,1,2.09,3,12.79,12.79,0,0,1,2.3,6.5,8.75,8.75,0,0,1-1.17,4.69,11.54,11.54,0,0,1-3,3.24,14.65,14.65,0,0,1-8.93,3,11.33,11.33,0,0,1-7.47-2.27A5.7,5.7,0,0,1,1300.15,345.3Z"/><path class="cls-22" d="M1402.48,320.76q-2,0-7.22,6.15l-3,3.74-5.86,7.65q-2.11,4-3.33,6.7l-2,4.25a10.5,10.5,0,0,1-1.33,2.22,1.94,1.94,0,0,1-1.54.64,5.17,5.17,0,0,1-1.87-.35,5.41,5.41,0,0,1-1.56-.9,3.36,3.36,0,0,1-1.39-2.56,6.67,6.67,0,0,1,.77-2.16l1.47-3q6.84-14.1,12.41-35.74a135.83,135.83,0,0,0,3-14.35q.4-3.07,3-3.08a4.56,4.56,0,0,1,2.78.81c1.42,1.05,2.1,2.17,2.06,3.36a26.05,26.05,0,0,1-.52,4c-.29,1.49-.67,3.11-1.13,4.86s-1,3.58-1.58,5.51q-2.41,7.35-3.59,10.62-3.59,9.84-4.43,11.53c.37-.44.85-1,1.43-1.79q6.66-8.76,8.24-10.46a31.31,31.31,0,0,1,2.67-2.62,8.6,8.6,0,0,1,5.86-2,6,6,0,0,1,4.65,1.94,6.06,6.06,0,0,1,1.65,4.08,15,15,0,0,1-.49,4,29.31,29.31,0,0,1-1.27,3.6q-.76,1.83-1.68,3.78l-1.83,3.84q-2.57,5.82-2.56,8.64c0,1.32.53,2,1.61,2a6,6,0,0,0,2.8-.66,5.06,5.06,0,0,1,1.63-.66.68.68,0,0,1,.77.77q0,3.25-3.3,5.46a7.68,7.68,0,0,1-4.14,1.5,10.38,10.38,0,0,1-3.09-.39,5.5,5.5,0,0,1-2.18-1.26,7.5,7.5,0,0,1-2.16-5.82q0-4.14,2.71-10.4l3.95-8.42a9.28,9.28,0,0,0,1.14-3.7C1404,321.21,1403.48,320.76,1402.48,320.76Z"/><path class="cls-22" d="M1427.72,338.93a23.55,23.55,0,0,1,1.06-6.1,29.81,29.81,0,0,1,2.45-5.64,33,33,0,0,1,3.61-5.16,28.11,28.11,0,0,1,4.48-4.27,17.61,17.61,0,0,1,10.59-3.92q6.25,0,8.35,5.16a10.26,10.26,0,0,1,.69,4.16,11.49,11.49,0,0,1-.91,4.43,12.85,12.85,0,0,1-2.44,3.7,17.5,17.5,0,0,1-3.7,3,24.88,24.88,0,0,1-4.67,2.24,34.56,34.56,0,0,1-11.13,1.9,6.67,6.67,0,0,0-.18,1.54,9.6,9.6,0,0,0,.22,2.29,6.57,6.57,0,0,0,.88,2.25,4.19,4.19,0,0,0,3.81,2.2,15.52,15.52,0,0,0,8.27-2.49,11.67,11.67,0,0,0,2.33-1.74,2.45,2.45,0,0,1,1.55-.9,1.41,1.41,0,0,1,1.16.79,3.29,3.29,0,0,1,.49,1.78,5.35,5.35,0,0,1-1.1,3.37q-4.6,4.61-13.73,4.61a11.74,11.74,0,0,1-8.64-3.22Q1427.5,345.23,1427.72,338.93Zm21.38-20.22q-3.84,0-7.39,5.27a39.54,39.54,0,0,0-4.84,10.77,17.79,17.79,0,0,0,10.62-4.83q4.14-4,4.14-7.58T1449.1,318.71Z"/><path class="cls-22" d="M1472.55,350.86a4.64,4.64,0,0,1-1.17-1.22,2.54,2.54,0,0,1-.48-1.17,3,3,0,0,1,.2-1.21c.16-.48.37-1.06.64-1.74q7.47-18.39,7.47-24.69a3,3,0,0,0-1.21-2.49l-.73-.51a1.11,1.11,0,0,1-.35-.9,1.83,1.83,0,0,1,.46-1.22,4.48,4.48,0,0,1,1.25-1,6.81,6.81,0,0,1,3.24-.84,7.24,7.24,0,0,1,2.6.37,4.76,4.76,0,0,1,1.59,1,3.86,3.86,0,0,1,1.41,2.78,12.56,12.56,0,0,1-.33,3c-.23,1-.51,2-.82,2.95s-.64,1.88-1,2.75-.52,1.51-.62,1.92a5.31,5.31,0,0,0-.22,1.61,3.05,3.05,0,0,0,1.06-1.5L1487,326q4.77-8.56,9.3-11.35a6.23,6.23,0,0,1,3.17-.77,3.78,3.78,0,0,1,3,1.3,4.6,4.6,0,0,1,1.19,2.88,9.54,9.54,0,0,1-.22,2.61,7.56,7.56,0,0,1-.83,2,3.44,3.44,0,0,1-2.93,2.05,1.38,1.38,0,0,1-.88-.33l-.8-.69a3.6,3.6,0,0,0-2.33-1.06A4.46,4.46,0,0,0,1493,324a27.71,27.71,0,0,0-3.31,3.77,70.19,70.19,0,0,0-9.45,17.14l-1.61,4.25a11.71,11.71,0,0,1-1.1,2.25,1.62,1.62,0,0,1-1.41.68,5.42,5.42,0,0,1-1.87-.35A6.46,6.46,0,0,1,1472.55,350.86Z"/><path class="cls-22" d="M1513,338.93a24,24,0,0,1,1.06-6.1,29.23,29.23,0,0,1,2.46-5.64,32.28,32.28,0,0,1,3.6-5.16,28.17,28.17,0,0,1,4.49-4.27,17.58,17.58,0,0,1,10.58-3.92q6.27,0,8.35,5.16a10.43,10.43,0,0,1,.7,4.16,11.5,11.5,0,0,1-.92,4.43,12.82,12.82,0,0,1-2.43,3.7,17.5,17.5,0,0,1-3.7,3,25.5,25.5,0,0,1-4.67,2.24,34.65,34.65,0,0,1-11.13,1.9,7.15,7.15,0,0,0-.19,1.54,10.15,10.15,0,0,0,.22,2.29,6.78,6.78,0,0,0,.88,2.25,4.19,4.19,0,0,0,3.81,2.2,15.58,15.58,0,0,0,8.28-2.49,11.58,11.58,0,0,0,2.32-1.74,2.46,2.46,0,0,1,1.56-.9,1.4,1.4,0,0,1,1.15.79,3.29,3.29,0,0,1,.5,1.78,5.41,5.41,0,0,1-1.1,3.37q-4.62,4.61-13.74,4.61a11.75,11.75,0,0,1-8.64-3.22Q1512.8,345.23,1513,338.93Zm21.39-20.22q-3.86,0-7.4,5.27a40.15,40.15,0,0,0-4.84,10.77,17.79,17.79,0,0,0,10.62-4.83q4.14-4,4.14-7.58T1534.41,318.71Z"/><path class="cls-22" d="M1562.78,350.5a6.08,6.08,0,0,1-1.3-1.85,5.74,5.74,0,0,1-.48-2.42,5.54,5.54,0,0,1,.53-2.45,5.06,5.06,0,0,1,1.34-1.74,4.69,4.69,0,0,1,3-1.17,14.05,14.05,0,0,1,2.71.22,8.26,8.26,0,0,1,2.07.69,3.65,3.65,0,0,1,2.3,3.37,7,7,0,0,1-1.79,4.8,5.55,5.55,0,0,1-3.5,2.09,6.19,6.19,0,0,1-2.94-.28A5.8,5.8,0,0,1,1562.78,350.5Zm6.09-12.89q-1.78,0-1.79-5.09,0-7,3.7-18.06a57.92,57.92,0,0,1,7.47-15.6c1.51-2.07,3-3.32,4.5-3.73a8.83,8.83,0,0,1,2.18-.3,9.39,9.39,0,0,1,1.78.15,5.1,5.1,0,0,1,1.35.44c.86.39,1.28.89,1.28,1.5a3.36,3.36,0,0,1-.73,1.94c-.49.69-1.27,1.86-2.34,3.52s-2.33,3.83-3.77,6.52a187.32,187.32,0,0,0-10.15,22.85c-.34.88-.63,1.68-.86,2.4a16.1,16.1,0,0,1-.71,1.85C1570.26,337.07,1569.63,337.61,1568.87,337.61Z"/></g></g></svg>
