<svg xmlns="http://www.w3.org/2000/svg" width="1920" height="1080" viewBox="0 0 1920 1080"><defs><style>.cls-1{fill:#19315b;}.cls-2{fill:#285443;}.cls-3{fill:gray;}.cls-4{fill:#878787;}.cls-5{fill:#2e5a9a;}.cls-6{fill:#286199;}.cls-7{fill:#666;}.cls-8{fill:#602568;}.cls-9{fill:#361d0b;}.cls-10{fill:#654a7c;}.cls-11{opacity:0.9;}.cls-12{fill:#bdccd4;}.cls-13{fill:#003c37;}.cls-14{fill:#9b4100;}.cls-15{fill:#b3b3b3;}.cls-16{fill:#4d4d4d;}.cls-17{fill:#eaf2f2;}.cls-18{fill:#999;}.cls-19{fill:#ccc;}.cls-20{opacity:0.8;}</style></defs><title>background_game_over</title><g id="Game_over"><rect class="cls-1" x="-2.83" y="1" width="1920" height="1080"/><path class="cls-2" d="M1150,627.77,959.13,597c-163.88-26.4-432-26.4-595.91,0l-366,59v425h1328V833.43C1325.17,735.85,1246.34,643.3,1150,627.77Z"/><path class="cls-2" d="M1109.17,681s239-89,342-106c39.71-6.55,193,3.14,267,23,111.67,30,199,83,199,83v400h-808Z"/><circle class="cls-3" cx="883.86" cy="144.31" r="107.31"/><circle class="cls-4" cx="887.66" cy="148.11" r="20.83"/><circle class="cls-4" cx="914.51" cy="84.67" r="14.84"/><circle class="cls-4" cx="844.74" cy="96.98" r="27.15"/><circle class="cls-4" cx="816.53" cy="172.74" r="15.35"/><circle class="cls-4" cx="950.07" cy="133.92" r="9.37"/><circle class="cls-4" cx="871.25" cy="213.78" r="20.83"/><circle class="cls-4" cx="950.07" cy="180.43" r="14.84"/><path class="cls-5" d="M1807.54,702.87l-150.45,81.58V450l159.08-57V688.38A16.47,16.47,0,0,1,1807.54,702.87Z"/><path class="cls-6" d="M1657.07,450,1473.62,308,1296.71,444.94a16.86,16.86,0,0,0-6.54,13.33V768.5a16.5,16.5,0,0,0,16.5,16.5h350.42V450Z"/><path class="cls-7" d="M1816.17,393l-159.08,57L1473.17,308,1669,291.52a16.67,16.67,0,0,1,11.17,3.1Z"/><path class="cls-8" d="M1335.84,577h77.83a16.5,16.5,0,0,1,16.5,16.5V785a0,0,0,0,1,0,0h-111a0,0,0,0,1,0,0V593.67A16.67,16.67,0,0,1,1335.84,577Z"/><rect class="cls-9" x="1473.17" y="477" width="150" height="193" rx="16.5" ry="16.5"/><path class="cls-10" d="M1499.3,489h42.88a0,0,0,0,1,0,0v80a0,0,0,0,1,0,0h-59a0,0,0,0,1,0,0V505.13A16.13,16.13,0,0,1,1499.3,489Z"/><path class="cls-10" d="M1550.17,489h42.38a16.63,16.63,0,0,1,16.63,16.63V569a0,0,0,0,1,0,0h-59a0,0,0,0,1,0,0V489A0,0,0,0,1,1550.17,489Z"/><path class="cls-10" d="M1483.17,579h59a0,0,0,0,1,0,0v81.91a0,0,0,0,1,0,0h-42.79a16.21,16.21,0,0,1-16.21-16.21V579A0,0,0,0,1,1483.17,579Z"/><path class="cls-10" d="M1550.17,579h59a0,0,0,0,1,0,0v65.58a16.33,16.33,0,0,1-16.33,16.33h-42.67a0,0,0,0,1,0,0V579A0,0,0,0,1,1550.17,579Z"/><g class="cls-11"><path class="cls-12" d="M1614.5,462.5l1-5.14,43.39-45.83a40,40,0,0,1-7.76.85,36.73,36.73,0,0,1-8.39-1.16l-4.29-1c-.89-.23-1.65-.43-2.3-.58a22.92,22.92,0,0,0-4.61-.77,14.72,14.72,0,0,0-7.14,2.35l.67-3.17q6-5.31,12.07-5.32a26.11,26.11,0,0,1,4.92.75l4.53,1a47.84,47.84,0,0,0,10.35,1.14,27.05,27.05,0,0,0,10.55-1.92l-1.1,5.33-42.57,45.45a37.19,37.19,0,0,1,8.63-1.17,42.62,42.62,0,0,1,6.68.74l7,1.21c.5.08,1.71.32,3.63.71a24,24,0,0,0,4.18.5q5.94,0,10.67-6.21l-.78,4q-6.61,8.75-13,8.75a46.3,46.3,0,0,1-9-1.29l-5.19-1.13a36.13,36.13,0,0,0-7.66-.94Q1624.39,459.61,1614.5,462.5Z"/></g><g class="cls-11"><path class="cls-12" d="M1673.37,417.16l.76-3.86,32.55-34.37a29.92,29.92,0,0,1-5.82.64,27.72,27.72,0,0,1-6.29-.87l-3.22-.75-1.73-.44a16.66,16.66,0,0,0-3.45-.58,11,11,0,0,0-5.36,1.77l.5-2.38q4.49-4,9-4a19.89,19.89,0,0,1,3.69.56l3.4.76a35.91,35.91,0,0,0,7.77.85,20.33,20.33,0,0,0,7.91-1.44l-.82,4-31.94,34.09a27.67,27.67,0,0,1,6.48-.88,31.79,31.79,0,0,1,5,.56l5.24.91c.37.05,1.28.23,2.73.52a17.48,17.48,0,0,0,3.13.38q4.45,0,8-4.66l-.59,3q-4.95,6.57-9.78,6.57a34.33,34.33,0,0,1-6.71-1l-3.9-.85a27.16,27.16,0,0,0-5.74-.7Q1680.78,415,1673.37,417.16Z"/></g><g class="cls-11"><path class="cls-12" d="M1722.89,379.75l.61-3.08,26-27.5a24.22,24.22,0,0,1-4.66.51,22,22,0,0,1-5-.7l-2.58-.6-1.38-.35a13.38,13.38,0,0,0-2.76-.46,8.89,8.89,0,0,0-4.29,1.41l.4-1.9a10.93,10.93,0,0,1,7.25-3.19,16.33,16.33,0,0,1,3,.44l2.72.61a28.4,28.4,0,0,0,6.21.68,16.4,16.4,0,0,0,6.33-1.14l-.66,3.19-25.55,27.27a22.83,22.83,0,0,1,5.18-.7,24.93,24.93,0,0,1,4,.45l4.2.72,2.18.42a13.88,13.88,0,0,0,2.5.31q3.57,0,6.4-3.73l-.47,2.37q-4,5.25-7.83,5.25a28.11,28.11,0,0,1-5.36-.77l-3.12-.68a21.55,21.55,0,0,0-4.59-.57A35,35,0,0,0,1722.89,379.75Z"/></g><g class="cls-11"><path class="cls-12" d="M1763.41,356.34l.46-2.31,19.53-20.62a18.53,18.53,0,0,1-3.49.38,16.54,16.54,0,0,1-3.78-.52l-1.93-.45-1-.26a9.63,9.63,0,0,0-2.07-.35,6.53,6.53,0,0,0-3.21,1.06l.3-1.43a8.21,8.21,0,0,1,5.43-2.39,11.89,11.89,0,0,1,2.21.33l2,.46a21.67,21.67,0,0,0,4.66.51,12.31,12.31,0,0,0,4.75-.86l-.5,2.4-19.16,20.45a16.9,16.9,0,0,1,3.89-.53,18.12,18.12,0,0,1,3,.34l3.15.54c.22,0,.77.14,1.64.32a11,11,0,0,0,1.88.23c1.78,0,3.38-.94,4.8-2.8l-.36,1.78c-2,2.62-3.93,3.93-5.87,3.93a20.56,20.56,0,0,1-4-.58l-2.34-.51a16.47,16.47,0,0,0-3.45-.42A26.73,26.73,0,0,0,1763.41,356.34Z"/></g><g class="cls-11"><path class="cls-12" d="M1790.43,326.94l.31-1.54,13-13.75a12.12,12.12,0,0,1-2.33.25,10.78,10.78,0,0,1-2.52-.35l-1.29-.3-.69-.17a6.36,6.36,0,0,0-1.38-.23,4.41,4.41,0,0,0-2.14.7l.2-.95a5.48,5.48,0,0,1,3.62-1.59,7.66,7.66,0,0,1,1.48.22l1.36.3a14.16,14.16,0,0,0,3.1.34,8.22,8.22,0,0,0,3.17-.57l-.33,1.6-12.77,13.63a11.31,11.31,0,0,1,2.59-.35,12.66,12.66,0,0,1,2,.23l2.1.36,1.09.21a7.32,7.32,0,0,0,1.25.15,4,4,0,0,0,3.2-1.86l-.23,1.18c-1.33,1.75-2.63,2.63-3.92,2.63a13.8,13.8,0,0,1-2.68-.39l-1.56-.34a10.78,10.78,0,0,0-2.3-.28A17.56,17.56,0,0,0,1790.43,326.94Z"/></g><g class="cls-11"><path class="cls-12" d="M1809.43,331.94l.31-1.54,13-13.75a12.12,12.12,0,0,1-2.33.25,10.78,10.78,0,0,1-2.52-.35l-1.29-.3-.69-.17a6.36,6.36,0,0,0-1.38-.23,4.41,4.41,0,0,0-2.14.7l.2-.95a5.48,5.48,0,0,1,3.62-1.59,7.66,7.66,0,0,1,1.48.22l1.36.3a14.16,14.16,0,0,0,3.1.34,8.22,8.22,0,0,0,3.17-.57l-.33,1.6-12.77,13.63a11.31,11.31,0,0,1,2.59-.35,12.66,12.66,0,0,1,2,.23l2.1.36,1.09.21a7.32,7.32,0,0,0,1.25.15,4,4,0,0,0,3.2-1.86l-.23,1.18c-1.33,1.75-2.63,2.63-3.92,2.63a13.8,13.8,0,0,1-2.68-.39l-1.56-.34a10.78,10.78,0,0,0-2.3-.28A17.56,17.56,0,0,0,1809.43,331.94Z"/></g><g class="cls-11"><path class="cls-12" d="M1794.43,351.94l.31-1.54,13-13.75a12.12,12.12,0,0,1-2.33.25,10.78,10.78,0,0,1-2.52-.35l-1.29-.3-.69-.17a6.36,6.36,0,0,0-1.38-.23,4.41,4.41,0,0,0-2.14.7l.2-.95a5.48,5.48,0,0,1,3.62-1.59,7.66,7.66,0,0,1,1.48.22l1.36.3a14.16,14.16,0,0,0,3.1.34,8.22,8.22,0,0,0,3.17-.57l-.33,1.6-12.77,13.63a11.31,11.31,0,0,1,2.59-.35,12.66,12.66,0,0,1,2,.23l2.1.36,1.09.21a7.32,7.32,0,0,0,1.25.15,4,4,0,0,0,3.2-1.86l-.23,1.18c-1.33,1.75-2.63,2.63-3.92,2.63a13.8,13.8,0,0,1-2.68-.39l-1.56-.34a10.78,10.78,0,0,0-2.3-.28A17.56,17.56,0,0,0,1794.43,351.94Z"/></g><polygon class="cls-13" points="1598.17 631 1561.17 631 1572.92 600 1586.42 600 1598.17 631"/><path class="cls-14" d="M1584.17,661h-9V631h9a37.89,37.89,0,0,1,.65,28.26Z"/><path class="cls-14" d="M1575.17,661h9V631h-9a37.94,37.94,0,0,0-.65,28.26Z"/><g class="cls-11"><rect class="cls-1" x="-24.83" y="-43" width="2032" height="1131"/></g><g id="Ears"><path class="cls-15" d="M490.9,257.85c-63.69,14.23-106.66,93.1-96,176.16A187.77,187.77,0,0,0,403.77,472a74.73,74.73,0,0,1,1.51,45.21c-10.59,37.54,7.26,81.3,49.26,110.15,55.8,38.35,133.1,35.84,172.64-5.59,29.26-30.65,29.66-74,5.28-110a72.92,72.92,0,0,1-10.58-58.61,196.91,196.91,0,0,0,3.66-70.6C614.87,299.41,554.59,243.61,490.9,257.85Z"/><path class="cls-15" d="M360.94,525.64a48.45,48.45,0,0,1-17.62-29.22A186.61,186.61,0,0,0,329.2,453C294,377,215.54,333.21,154.07,355.12S71.35,456.37,106.6,532.33a195.81,195.81,0,0,0,47.13,63.75c12,10.67,18,25.57,16.44,41.19-4.78,47,19,87.39,62.58,98.36,55.55,14,122.28-25.12,149.05-87.31C402.81,599.53,393,551,360.94,525.64Z"/></g><g id="Trunk"><path class="cls-15" d="M199.45,817.89,184.19,751.3a5.8,5.8,0,0,1,6.92-7C211.43,749,313.65,750.6,355,707.41c36.92-38.61,0-143.27,3.08-144.15l86.14-25.39.17.58c17.21,59.61,48.73,132.15-12,211.65C391.1,804,270,838.34,199,818.15"/></g><g id="Head"><circle class="cls-15" cx="370.71" cy="471.71" r="177.17"/></g><circle class="cls-16" cx="419.44" cy="420.55" r="43.93"/><circle class="cls-16" cx="300.33" cy="454.94" r="43.93"/><circle class="cls-17" cx="306.67" cy="443.46" r="22.94"/><circle class="cls-17" cx="285.39" cy="480.6" r="8.79"/><circle class="cls-17" cx="422.96" cy="409.88" r="22.94"/><circle class="cls-17" cx="406.37" cy="445.66" r="8.79"/><path class="cls-7" d="M348,493l-1.81,1.9c-8.06,8.45-19.86,15.14-33.13,18.82-13.71,3.8-27.44,4-38.67.59l-4,2.4c12.36,3.77,27.68,3.48,43.15-.81,15.05-4.18,28.26-11.62,37.18-21l1.8-1.89Z"/><path class="cls-7" d="M474.5,456.46l-1.8,1.9c-8.07,8.45-19.86,15.14-33.14,18.82-13.7,3.8-27.44,4-38.67.59l-4,2.41c12.35,3.76,27.68,3.47,43.14-.82,15.07-4.18,28.26-11.62,37.18-21l1.81-1.89Z"/><path class="cls-7" d="M344.48,506.21,343,507.48c-6.81,5.69-16.47,10.47-27.15,13.46-11,3.09-21.87,3.94-30.56,2.4L282,525.05c9.56,1.69,21.67.71,34.1-2.77,12.11-3.39,22.93-8.73,30.46-15l1.53-1.28Z"/><path class="cls-7" d="M470.15,469.91l-1.53,1.28c-6.81,5.68-16.47,10.47-27.15,13.46-11,3.09-21.87,3.94-30.56,2.4l-3.27,1.71c9.56,1.69,21.67.71,34.1-2.78,12.11-3.39,22.93-8.72,30.46-15l1.53-1.28Z"/><path class="cls-7" d="M448.43,613.1c-.2,0-20.32-2.52-40.93,3.44-28.17,8.13-43.89,21-44.05,21.1l-3.73-4.51c.67-.56,16.83-13.75,46.15-22.22a118.24,118.24,0,0,1,43.31-3.62Z"/><path class="cls-7" d="M450.23,641c-.18,0-17.85-3.16-35.64,2-24.38,7-37.68,19.11-37.81,19.23l-4-4.31c.58-.53,14.47-13.13,40.15-20.55,19.16-5.53,37.56-2.25,38.33-2.11Z"/><path class="cls-7" d="M390.12,686.67l-4.24-4c.48-.51,12.1-12.55,34.18-18.93,16.52-4.77,32.7-.76,33.38-.58L452,668.8c-.15,0-15.36-3.78-30.31.54C401.22,675.25,390.23,686.56,390.12,686.67Z"/><path class="cls-18" d="M745.88,515.26l.09-2.56a110.46,110.46,0,0,1,13-48.28,99.15,99.15,0,0,1,27.86-33.58q16.58-12.64,32.3-12.65,12,0,18.8,8.29,6,7.18,6,17.6,0,12.48-9.14,24.61a34.43,34.43,0,0,1-11.2,10.09,11.58,11.58,0,0,1-5.34,1.54,9.9,9.9,0,0,1-4.48-1,12.42,12.42,0,0,1-3.51-2.56q-3.24-3.35-3.24-6c0-1.77.45-3,1.36-3.68q14-10.08,19.14-20.76a19.11,19.11,0,0,0,1.88-8q0-8.28-7.86-8.28-12.48,0-25.8,14.09-12.39,13.08-21,32.82-8.71,20.25-9.23,37.17-.86,18,8.54,24.18a14.36,14.36,0,0,0,8,2.14,19,19,0,0,0,9.1-2.31,27.59,27.59,0,0,0,7.47-5.81q6.67-7.69,6.84-16,.16-6.24-4.44-8.63a18.44,18.44,0,0,0-4.06-1.45,16.36,16.36,0,0,1-3.59-1.24c-.94-.49-1.19-1.4-.73-2.74a12.69,12.69,0,0,1,2.56-4.14q5-5.47,10.86-5.47a31.26,31.26,0,0,1,5.89.85,56.82,56.82,0,0,0,9.91,1.63c1.71,0,3.07,0,4.06-.13a23.6,23.6,0,0,0,3-.47,52.4,52.4,0,0,0,6.58-1.88c3.36-1.14,5-.38,5,2.26a17.45,17.45,0,0,1-1.63,7.48,17.75,17.75,0,0,1-4.44,6,21,21,0,0,1-15,5.3q.94,5.55-3.93,14.36-8.62,15.81-24.78,21.79a36.67,36.67,0,0,1-12.86,2.13,33.46,33.46,0,0,1-13.12-2.52,28.88,28.88,0,0,1-10.25-7.22Q745.89,532.45,745.88,515.26Z"/><path class="cls-18" d="M936.45,528.34q0,7.86,5.55,7.86a14.84,14.84,0,0,0,6.37-1.2,10.57,10.57,0,0,1,3.37-1.19c1.2,0,1.8.62,1.8,1.88q0,7.35-7.69,12.64-8.13,5.56-16.58,2.74-5.55-2-8.2-8.46a17,17,0,0,1-1.29-6.07,55.48,55.48,0,0,1,.86-9.4q-7.95,16.25-19.74,22.39a21.8,21.8,0,0,1-10,2.39,18.39,18.39,0,0,1-9.18-2.18,20.21,20.21,0,0,1-6.63-6q-5.55-8-5-20.17a63.33,63.33,0,0,1,9-29.82,69.63,69.63,0,0,1,19.65-22.3q11.88-8.81,22.22-8.8t16.66,9.48q5.9-9.48,10.42-9.48,4.88,0,7.35,1.79,4.7,3.42,3.33,6-21.45,43.92-22,54.69A28.12,28.12,0,0,0,936.45,528.34Zm-47.43.34q0,10.26,6.58,10.25,5,0,12.39-8.54,10.77-12.57,19.06-33.84a123.94,123.94,0,0,0,4.44-13.33,10,10,0,0,0-4.87-8.54,8.88,8.88,0,0,0-4.57-.94A15.26,15.26,0,0,0,915,476,34.15,34.15,0,0,0,907.1,482a52.66,52.66,0,0,0-7.1,9.11,72.38,72.38,0,0,0-5.76,11.4A70.54,70.54,0,0,0,889,528.68Z"/><path class="cls-18" d="M1052.25,478.78q-5,0-18.12,14.35-9.83,11.21-14.27,16.84l-7.69,9.74q-4.95,9.39-7.77,15.63l-4.62,9.92a24.89,24.89,0,0,1-3.12,5.17,4.57,4.57,0,0,1-3.59,1.49,12,12,0,0,1-4.36-.81,13.12,13.12,0,0,1-3.63-2.09q-3.24-2.74-3.24-6c0-.86.62-2.54,1.88-5l3.24-6.92c1-2.05,2.22-4.67,3.59-7.86l4.79-11.71q10.08-25.2,10.08-32.55,0-3.93-2.56-5.81l-1.71-1.2a2.37,2.37,0,0,1-.86-2.09,4.38,4.38,0,0,1,1.16-2.86,10.48,10.48,0,0,1,3-2.4,16.82,16.82,0,0,1,7.73-2,17.55,17.55,0,0,1,6.11.85,12.46,12.46,0,0,1,3.85,2.31q3.24,3,3.24,6.24a25.85,25.85,0,0,1-.85,6.53,62.74,62.74,0,0,1-2.14,6.67q-1.27,3.38-2.73,6.54-3.42,7.35-4.23,9c-.54,1.11-.7,1.53-.47,1.24q15.63-20.25,18.8-23.93A80,80,0,0,1,1044,467.67q6.75-5,12.78-5a12.65,12.65,0,0,1,9.61,3.76,13.76,13.76,0,0,1,3.59,9.91,36.66,36.66,0,0,1-2.74,12.65q-2.73,7.26-3.67,10.16l12.56-16.57,7-8.38q6.32-7.08,11.11-9.31a19.73,19.73,0,0,1,7.81-2.22,16.89,16.89,0,0,1,6,1.11,13.78,13.78,0,0,1,5,3.16q4.37,4.19,4.36,11.11a33.88,33.88,0,0,1-3.07,13.67q-3.07,7-5.39,11.49c-1.53,3-3,6-4.44,9q-6.24,13.59-6.24,20.16,0,4.62,3.76,4.62a13.9,13.9,0,0,0,6.54-1.54,11.84,11.84,0,0,1,3.8-1.54,1.59,1.59,0,0,1,1.8,1.8q0,7.6-7.78,12.73-5.22,3.5-9.53,3.5a19.72,19.72,0,0,1-7-1,13.38,13.38,0,0,1-4.79-3.25,17.11,17.11,0,0,1-4.78-12.39,47,47,0,0,1,1.88-13.67,106.14,106.14,0,0,1,4.44-12.09q2.57-5.85,5.17-10.77c1.74-3.28,3.06-5.88,4-7.82q2.73-6,2.73-8.8,0-3.33-3.5-3.33-4.62,0-16.58,15.29-9.06,11.88-12.56,17.09l-5.9,8.55q-4.95,9.39-7.6,15.63l-4.36,9.92a25,25,0,0,1-2.82,5.17,4,4,0,0,1-3.33,1.49,12.94,12.94,0,0,1-4.15-.68,11.91,11.91,0,0,1-3.46-1.8Q1031,547,1031,544.19a23,23,0,0,1,1.84-7.61q1.83-4.82,4.57-10.81l12-25.29q6.4-14.1,6.41-17.9T1052.25,478.78Zm8.45,24.09c.06,0,.09,0,.09-.08l.09-.17C1060.76,502.73,1060.7,502.82,1060.7,502.87Z"/><path class="cls-18" d="M1153.86,521.16a55.6,55.6,0,0,1,2.48-14.23,68.74,68.74,0,0,1,5.72-13.16,77.08,77.08,0,0,1,8.42-12,66.27,66.27,0,0,1,10.47-10q12.21-9.13,24.69-9.14,14.61,0,19.48,12.05a24.19,24.19,0,0,1,1.63,9.69,26.79,26.79,0,0,1-2.14,10.34,30,30,0,0,1-5.68,8.63,41.2,41.2,0,0,1-8.63,7,59,59,0,0,1-10.9,5.21,80.45,80.45,0,0,1-26,4.44,16.22,16.22,0,0,0-.43,3.59,22.65,22.65,0,0,0,.51,5.34,15.58,15.58,0,0,0,2,5.26,9.79,9.79,0,0,0,8.89,5.13,36.22,36.22,0,0,0,19.31-5.82,27.18,27.18,0,0,0,5.43-4.05q2.08-2.1,3.63-2.1a3.27,3.27,0,0,1,2.69,1.84,7.64,7.64,0,0,1,1.15,4.14,12.55,12.55,0,0,1-2.56,7.87q-10.77,10.76-32,10.76-12.57,0-20.17-7.52Q1153.36,535.87,1153.86,521.16Zm49.9-47.17q-9,0-17.26,12.31a92.79,92.79,0,0,0-11.28,25.12A41.51,41.51,0,0,0,1200,500.14q9.66-9.22,9.66-17.69T1203.76,474Z"/><path class="cls-18" d="M1342.39,545.26a23.67,23.67,0,0,1-5.64-8.68,35.05,35.05,0,0,1-2.13-12.43,56.6,56.6,0,0,1,1.75-14.53,70.6,70.6,0,0,1,5.21-14.18,71.69,71.69,0,0,1,8.12-12.82,61.72,61.72,0,0,1,10.46-10.42q12.48-9.57,25.9-9.57,17.6,0,23.84,15.46,4.44,11.21.51,27.09A70.24,70.24,0,0,1,1397.25,532a53,53,0,0,1-22.39,17.35,34.61,34.61,0,0,1-12.77,2.56,35.74,35.74,0,0,1-11.2-1.62A22.25,22.25,0,0,1,1342.39,545.26Zm16.32-41.45a83.2,83.2,0,0,0-4.06,13,54.93,54.93,0,0,0-1.41,12.61q.09,5.94,1.84,9.31a5.94,5.94,0,0,0,5.68,3.38,13.27,13.27,0,0,0,7.74-2.7,37.5,37.5,0,0,0,7.39-7.13,68,68,0,0,0,6.75-10.26,96,96,0,0,0,5.55-12.13q5.22-13.75,5-24.44,0-9.39-3.84-12a7.79,7.79,0,0,0-4.32-1c-1.85,0-4,.85-6.36,2.52a38.72,38.72,0,0,0-7.18,6.8,71.26,71.26,0,0,0-6.92,10A94.63,94.63,0,0,0,1358.71,503.81Z"/><path class="cls-18" d="M1447.34,542.78a15.91,15.91,0,0,1-1.28-6.67,34.32,34.32,0,0,1,1.19-8.5,87.55,87.55,0,0,1,3.08-9.53q1.88-4.86,4.19-9.91l4.35-9.91q8.46-19.56,6.24-23.07a10.73,10.73,0,0,0-3.93-3.25,2.27,2.27,0,0,1-.94-2.09,4.2,4.2,0,0,1,1.24-2.86,11,11,0,0,1,3.29-2.4,19,19,0,0,1,8.29-2,17.63,17.63,0,0,1,6.36.89,11.82,11.82,0,0,1,3.64,2.27,9.47,9.47,0,0,1,2.73,6.84,31.24,31.24,0,0,1-1.54,9.05q-1.53,5-3.84,10.6t-5,11.36l-5,11.2q-5.37,12.39-5.38,16.4,0,7.86,5.56,7.86,14.26,0,26.74-16.91a64.16,64.16,0,0,0,10.42-21.37,39,39,0,0,0,1.46-9.95q0-4.49-.3-7.48a29.53,29.53,0,0,0-1-5.3,17.5,17.5,0,0,0-3.76-7.09q-1.8-2.22,1.62-5.21,3.77-3.17,10.68-3.16,4.27,0,7.52,4,4.1,4.78,4.1,13.72a59,59,0,0,1-2.65,17.52,78.14,78.14,0,0,1-7.26,16.49,85.92,85.92,0,0,1-10.89,14.74A81.51,81.51,0,0,1,1493.65,541q-15.56,10.95-31.1,10.94Q1451.34,551.92,1447.34,542.78Z"/><path class="cls-18" d="M1559.81,521.16a55.59,55.59,0,0,1,2.47-14.23,69.41,69.41,0,0,1,5.73-13.16,76.41,76.41,0,0,1,8.42-12,65.79,65.79,0,0,1,10.46-10q12.22-9.13,24.7-9.14,14.61,0,19.48,12.05a24,24,0,0,1,1.62,9.69,26.79,26.79,0,0,1-2.13,10.34,30,30,0,0,1-5.69,8.63,40.94,40.94,0,0,1-8.63,7,58.86,58.86,0,0,1-10.89,5.21,80.56,80.56,0,0,1-26,4.44,15.74,15.74,0,0,0-.42,3.59,22.65,22.65,0,0,0,.51,5.34,15.58,15.58,0,0,0,2,5.26,9.78,9.78,0,0,0,8.89,5.13,36.27,36.27,0,0,0,19.31-5.82,26.81,26.81,0,0,0,5.42-4.05q2.1-2.1,3.63-2.1a3.27,3.27,0,0,1,2.7,1.84,7.64,7.64,0,0,1,1.15,4.14,12.55,12.55,0,0,1-2.56,7.87q-10.77,10.76-32,10.76-12.55,0-20.16-7.52Q1559.29,535.87,1559.81,521.16Zm49.9-47.17q-9,0-17.26,12.31a92.79,92.79,0,0,0-11.28,25.12A41.56,41.56,0,0,0,1606,500.14q9.65-9.22,9.65-17.69T1609.71,474Z"/><path class="cls-18" d="M1664.41,549a11.18,11.18,0,0,1-2.73-2.87,5.94,5.94,0,0,1-1.11-2.73,7.2,7.2,0,0,1,.47-2.82c.37-1.11.86-2.46,1.49-4.06Q1680,493.64,1680,479c-.17-2.74-1.11-4.67-2.82-5.81l-1.71-1.2a2.61,2.61,0,0,1-.81-2.09,4.26,4.26,0,0,1,1.07-2.86,10.16,10.16,0,0,1,2.91-2.4,15.78,15.78,0,0,1,7.56-2,17.12,17.12,0,0,1,6.06.85,11.27,11.27,0,0,1,3.72,2.31c2.17,2,3.26,4.22,3.29,6.49a28.91,28.91,0,0,1-.77,6.92q-.81,3.51-1.92,6.88t-2.22,6.41a41.68,41.68,0,0,0-1.45,4.49,12.12,12.12,0,0,0-.52,3.76,7.33,7.33,0,0,0,2.48-3.51l3.33-6.32q11.11-20,21.71-26.49a14.47,14.47,0,0,1,7.39-1.79,8.8,8.8,0,0,1,7,3,10.56,10.56,0,0,1,2.78,6.71,22,22,0,0,1-.51,6.11,17.4,17.4,0,0,1-1.93,4.57c-1.88,3.19-4.15,4.78-6.83,4.78a3.16,3.16,0,0,1-2-.76l-1.88-1.63a8.42,8.42,0,0,0-5.43-2.48c-1.74,0-3.84,1.14-6.32,3.42a63.17,63.17,0,0,0-7.73,8.8,163.57,163.57,0,0,0-22,40l-3.76,9.92a27.18,27.18,0,0,1-2.56,5.25,3.77,3.77,0,0,1-3.29,1.58,12.4,12.4,0,0,1-4.36-.81A15.56,15.56,0,0,1,1664.41,549Z"/><path class="cls-18" d="M747.88,513.26l.09-2.56a110.46,110.46,0,0,1,13-48.28,99.15,99.15,0,0,1,27.86-33.58q16.58-12.64,32.3-12.65,12,0,18.8,8.29,6,7.18,6,17.6,0,12.48-9.14,24.61a34.43,34.43,0,0,1-11.2,10.09,11.58,11.58,0,0,1-5.34,1.54,9.9,9.9,0,0,1-4.48-1,12.42,12.42,0,0,1-3.51-2.56q-3.24-3.35-3.24-6c0-1.77.45-3,1.36-3.68q14-10.08,19.14-20.76a19.11,19.11,0,0,0,1.88-8q0-8.28-7.86-8.28-12.48,0-25.8,14.09-12.39,13.08-21,32.82-8.71,20.25-9.23,37.17-.86,18,8.54,24.18a14.36,14.36,0,0,0,8,2.14,19,19,0,0,0,9.1-2.31,27.59,27.59,0,0,0,7.47-5.81q6.67-7.69,6.84-16,.16-6.24-4.44-8.63a18.44,18.44,0,0,0-4.06-1.45,16.36,16.36,0,0,1-3.59-1.24c-.94-.49-1.19-1.4-.73-2.74a12.69,12.69,0,0,1,2.56-4.14q5-5.47,10.86-5.47a31.26,31.26,0,0,1,5.89.85,56.82,56.82,0,0,0,9.91,1.63c1.71,0,3.07,0,4.06-.13a23.6,23.6,0,0,0,3-.47,52.4,52.4,0,0,0,6.58-1.88c3.36-1.14,5-.38,5,2.26a17.45,17.45,0,0,1-1.63,7.48,17.75,17.75,0,0,1-4.44,6,21,21,0,0,1-15,5.3q.94,5.55-3.93,14.36-8.62,15.81-24.78,21.79a36.67,36.67,0,0,1-12.86,2.13,33.46,33.46,0,0,1-13.12-2.52,28.88,28.88,0,0,1-10.25-7.22Q747.89,530.45,747.88,513.26Z"/><path class="cls-18" d="M938.45,526.34q0,7.86,5.55,7.86a14.84,14.84,0,0,0,6.37-1.2,10.57,10.57,0,0,1,3.37-1.19c1.2,0,1.8.62,1.8,1.88q0,7.35-7.69,12.64-8.13,5.56-16.58,2.74-5.55-2-8.2-8.46a17,17,0,0,1-1.29-6.07,55.48,55.48,0,0,1,.86-9.4q-7.95,16.25-19.74,22.39a21.8,21.8,0,0,1-10,2.39,18.39,18.39,0,0,1-9.18-2.18,20.21,20.21,0,0,1-6.63-6q-5.55-8-5-20.17a63.33,63.33,0,0,1,9-29.82,69.63,69.63,0,0,1,19.65-22.3q11.88-8.81,22.22-8.8t16.66,9.48q5.9-9.48,10.42-9.48,4.88,0,7.35,1.79,4.7,3.42,3.33,6-21.45,43.92-22,54.69A28.12,28.12,0,0,0,938.45,526.34Zm-47.43.34q0,10.26,6.58,10.25,5,0,12.39-8.54,10.77-12.57,19.06-33.84a123.94,123.94,0,0,0,4.44-13.33,10,10,0,0,0-4.87-8.54,8.88,8.88,0,0,0-4.57-.94A15.26,15.26,0,0,0,917,474,34.15,34.15,0,0,0,909.1,480a52.66,52.66,0,0,0-7.1,9.11,72.38,72.38,0,0,0-5.76,11.4A70.54,70.54,0,0,0,891,526.68Z"/><path class="cls-18" d="M1054.25,476.78q-5,0-18.12,14.35-9.83,11.21-14.27,16.84l-7.69,9.74q-4.95,9.39-7.77,15.63l-4.62,9.92a24.89,24.89,0,0,1-3.12,5.17,4.57,4.57,0,0,1-3.59,1.49,12,12,0,0,1-4.36-.81,13.12,13.12,0,0,1-3.63-2.09q-3.24-2.74-3.24-6c0-.86.62-2.54,1.88-5l3.24-6.92c1-2.05,2.22-4.67,3.59-7.86l4.79-11.71q10.08-25.2,10.08-32.55,0-3.93-2.56-5.81l-1.71-1.2a2.37,2.37,0,0,1-.86-2.09,4.38,4.38,0,0,1,1.16-2.86,10.48,10.48,0,0,1,3-2.4,16.82,16.82,0,0,1,7.73-2,17.55,17.55,0,0,1,6.11.85,12.46,12.46,0,0,1,3.85,2.31q3.24,3,3.24,6.24a25.85,25.85,0,0,1-.85,6.53,62.74,62.74,0,0,1-2.14,6.67q-1.28,3.38-2.73,6.54-3.42,7.35-4.23,9c-.54,1.11-.7,1.53-.47,1.24q15.63-20.25,18.8-23.93A80,80,0,0,1,1046,465.67q6.75-5,12.78-5a12.65,12.65,0,0,1,9.61,3.76,13.76,13.76,0,0,1,3.59,9.91,36.66,36.66,0,0,1-2.74,12.65q-2.73,7.26-3.67,10.16l12.56-16.57,7-8.38q6.32-7.08,11.11-9.31a19.73,19.73,0,0,1,7.81-2.22,16.89,16.89,0,0,1,6,1.11,13.78,13.78,0,0,1,5,3.16q4.37,4.19,4.36,11.11a33.88,33.88,0,0,1-3.07,13.67q-3.07,7-5.39,11.49c-1.53,3-3,6-4.44,9q-6.24,13.59-6.24,20.16,0,4.62,3.76,4.62a13.9,13.9,0,0,0,6.54-1.54,11.84,11.84,0,0,1,3.8-1.54,1.59,1.59,0,0,1,1.8,1.8q0,7.6-7.78,12.73-5.22,3.5-9.53,3.5a19.72,19.72,0,0,1-7-1,13.38,13.38,0,0,1-4.79-3.25,17.11,17.11,0,0,1-4.78-12.39,47,47,0,0,1,1.88-13.67,106.14,106.14,0,0,1,4.44-12.09q2.57-5.85,5.17-10.77c1.74-3.28,3.06-5.88,4-7.82q2.73-6,2.73-8.8,0-3.33-3.5-3.33-4.62,0-16.58,15.29-9.06,11.88-12.56,17.09l-5.9,8.55q-4.95,9.39-7.6,15.63l-4.36,9.92a25,25,0,0,1-2.82,5.17,4,4,0,0,1-3.33,1.49,12.94,12.94,0,0,1-4.15-.68,11.91,11.91,0,0,1-3.46-1.8Q1033,545,1033,542.19a23,23,0,0,1,1.84-7.61q1.83-4.82,4.57-10.81l12-25.29q6.4-14.1,6.41-17.9T1054.25,476.78Zm8.45,24.09c.06,0,.09,0,.09-.08l.09-.17C1062.76,500.73,1062.7,500.82,1062.7,500.87Z"/><path class="cls-18" d="M1155.86,519.16a55.6,55.6,0,0,1,2.48-14.23,68.74,68.74,0,0,1,5.72-13.16,77.08,77.08,0,0,1,8.42-12,66.27,66.27,0,0,1,10.47-10q12.21-9.13,24.69-9.14,14.61,0,19.48,12.05a24.19,24.19,0,0,1,1.63,9.69,26.79,26.79,0,0,1-2.14,10.34,30,30,0,0,1-5.68,8.63,41.2,41.2,0,0,1-8.63,7,59,59,0,0,1-10.9,5.21,80.45,80.45,0,0,1-26,4.44,16.22,16.22,0,0,0-.43,3.59,22.65,22.65,0,0,0,.51,5.34,15.58,15.58,0,0,0,2,5.26,9.79,9.79,0,0,0,8.89,5.13,36.22,36.22,0,0,0,19.31-5.82,27.18,27.18,0,0,0,5.43-4.05q2.08-2.1,3.63-2.1a3.27,3.27,0,0,1,2.69,1.84,7.64,7.64,0,0,1,1.15,4.14,12.55,12.55,0,0,1-2.56,7.87q-10.77,10.76-32,10.76-12.57,0-20.17-7.52Q1155.36,533.87,1155.86,519.16Zm49.9-47.17q-9,0-17.26,12.31a92.79,92.79,0,0,0-11.28,25.12A41.51,41.51,0,0,0,1202,498.14q9.66-9.22,9.66-17.69T1205.76,472Z"/><path class="cls-18" d="M1344.39,543.26a23.67,23.67,0,0,1-5.64-8.68,35.05,35.05,0,0,1-2.13-12.43,56.6,56.6,0,0,1,1.75-14.53,70.6,70.6,0,0,1,5.21-14.18,71.69,71.69,0,0,1,8.12-12.82,61.72,61.72,0,0,1,10.46-10.42q12.48-9.57,25.9-9.57,17.6,0,23.84,15.46,4.44,11.21.51,27.09A70.24,70.24,0,0,1,1399.25,530a53,53,0,0,1-22.39,17.35,34.61,34.61,0,0,1-12.77,2.56,35.74,35.74,0,0,1-11.2-1.62A22.25,22.25,0,0,1,1344.39,543.26Zm16.32-41.45a83.2,83.2,0,0,0-4.06,13,54.93,54.93,0,0,0-1.41,12.61q.09,5.94,1.84,9.31a5.94,5.94,0,0,0,5.68,3.38,13.27,13.27,0,0,0,7.74-2.7,37.5,37.5,0,0,0,7.39-7.13,68,68,0,0,0,6.75-10.26,96,96,0,0,0,5.55-12.13q5.22-13.75,5-24.44,0-9.39-3.84-12a7.79,7.79,0,0,0-4.32-1c-1.85,0-4,.85-6.36,2.52a38.72,38.72,0,0,0-7.18,6.8,71.26,71.26,0,0,0-6.92,10A94.63,94.63,0,0,0,1360.71,501.81Z"/><path class="cls-18" d="M1449.34,540.78a15.91,15.91,0,0,1-1.28-6.67,34.32,34.32,0,0,1,1.19-8.5,87.55,87.55,0,0,1,3.08-9.53q1.88-4.86,4.19-9.91l4.35-9.91q8.46-19.56,6.24-23.07a10.73,10.73,0,0,0-3.93-3.25,2.27,2.27,0,0,1-.94-2.09,4.2,4.2,0,0,1,1.24-2.86,11,11,0,0,1,3.29-2.4,19,19,0,0,1,8.29-2,17.63,17.63,0,0,1,6.36.89,11.82,11.82,0,0,1,3.64,2.27,9.47,9.47,0,0,1,2.73,6.84,31.24,31.24,0,0,1-1.54,9.05q-1.53,5-3.84,10.6t-5,11.36l-5,11.2q-5.37,12.39-5.38,16.4,0,7.86,5.56,7.86,14.26,0,26.74-16.91a64.16,64.16,0,0,0,10.42-21.37,39,39,0,0,0,1.46-9.95q0-4.49-.3-7.48a29.53,29.53,0,0,0-1-5.3,17.5,17.5,0,0,0-3.76-7.09q-1.8-2.22,1.62-5.21,3.77-3.17,10.68-3.16,4.27,0,7.52,4,4.1,4.78,4.1,13.72a59,59,0,0,1-2.65,17.52,78.14,78.14,0,0,1-7.26,16.49,85.92,85.92,0,0,1-10.89,14.74A81.51,81.51,0,0,1,1495.65,539q-15.56,10.95-31.1,10.94Q1453.34,549.92,1449.34,540.78Z"/><path class="cls-18" d="M1561.81,519.16a55.59,55.59,0,0,1,2.47-14.23,69.41,69.41,0,0,1,5.73-13.16,76.41,76.41,0,0,1,8.42-12,65.79,65.79,0,0,1,10.46-10q12.22-9.13,24.7-9.14,14.61,0,19.48,12.05a24,24,0,0,1,1.62,9.69,26.79,26.79,0,0,1-2.13,10.34,30,30,0,0,1-5.69,8.63,40.94,40.94,0,0,1-8.63,7,58.86,58.86,0,0,1-10.89,5.21,80.56,80.56,0,0,1-26,4.44,15.74,15.74,0,0,0-.42,3.59,22.65,22.65,0,0,0,.51,5.34,15.58,15.58,0,0,0,2,5.26,9.78,9.78,0,0,0,8.89,5.13,36.27,36.27,0,0,0,19.31-5.82,26.81,26.81,0,0,0,5.42-4.05q2.1-2.1,3.63-2.1a3.27,3.27,0,0,1,2.7,1.84,7.64,7.64,0,0,1,1.15,4.14,12.55,12.55,0,0,1-2.56,7.87q-10.77,10.76-32,10.76-12.55,0-20.16-7.52Q1561.29,533.87,1561.81,519.16Zm49.9-47.17q-9,0-17.26,12.31a92.79,92.79,0,0,0-11.28,25.12A41.56,41.56,0,0,0,1608,498.14q9.65-9.22,9.65-17.69T1611.71,472Z"/><path class="cls-18" d="M1666.41,547a11.18,11.18,0,0,1-2.73-2.87,5.94,5.94,0,0,1-1.11-2.73,7.2,7.2,0,0,1,.47-2.82c.37-1.11.86-2.46,1.49-4.06Q1682,491.64,1682,477c-.17-2.74-1.11-4.67-2.82-5.81l-1.71-1.2a2.61,2.61,0,0,1-.81-2.09,4.26,4.26,0,0,1,1.07-2.86,10.16,10.16,0,0,1,2.91-2.4,15.78,15.78,0,0,1,7.56-2,17.12,17.12,0,0,1,6.06.85,11.27,11.27,0,0,1,3.72,2.31c2.17,2,3.26,4.22,3.29,6.49a28.91,28.91,0,0,1-.77,6.92q-.81,3.51-1.92,6.88t-2.22,6.41a41.68,41.68,0,0,0-1.45,4.49,12.12,12.12,0,0,0-.52,3.76,7.33,7.33,0,0,0,2.48-3.51l3.33-6.32q11.11-20,21.71-26.49a14.47,14.47,0,0,1,7.39-1.79,8.8,8.8,0,0,1,7,3,10.56,10.56,0,0,1,2.78,6.71,22,22,0,0,1-.51,6.11,17.4,17.4,0,0,1-1.93,4.57c-1.88,3.19-4.15,4.78-6.83,4.78a3.16,3.16,0,0,1-2-.76l-1.88-1.63a8.42,8.42,0,0,0-5.43-2.48c-1.74,0-3.84,1.14-6.32,3.42a63.17,63.17,0,0,0-7.73,8.8,163.57,163.57,0,0,0-22,40l-3.76,9.92a27.18,27.18,0,0,1-2.56,5.25,3.77,3.77,0,0,1-3.29,1.58,12.4,12.4,0,0,1-4.36-.81A15.56,15.56,0,0,1,1666.41,547Z"/><path class="cls-19" d="M750.88,510.26l.09-2.56a110.46,110.46,0,0,1,13-48.28,99.15,99.15,0,0,1,27.86-33.58q16.58-12.64,32.3-12.65,12,0,18.8,8.29,6,7.18,6,17.6,0,12.48-9.14,24.61a34.43,34.43,0,0,1-11.2,10.09,11.58,11.58,0,0,1-5.34,1.54,9.9,9.9,0,0,1-4.48-1,12.42,12.42,0,0,1-3.51-2.56q-3.24-3.35-3.24-6c0-1.77.45-3,1.36-3.68q14-10.08,19.14-20.76a19.11,19.11,0,0,0,1.88-8q0-8.28-7.86-8.28-12.48,0-25.8,14.09-12.39,13.08-21,32.82-8.71,20.25-9.23,37.17-.86,18,8.54,24.18a14.36,14.36,0,0,0,8,2.14,19,19,0,0,0,9.1-2.31,27.59,27.59,0,0,0,7.47-5.81q6.67-7.69,6.84-16,.16-6.24-4.44-8.63a18.44,18.44,0,0,0-4.06-1.45,16.36,16.36,0,0,1-3.59-1.24c-.94-.49-1.19-1.4-.73-2.74a12.69,12.69,0,0,1,2.56-4.14q5-5.47,10.86-5.47a31.26,31.26,0,0,1,5.89.85,56.82,56.82,0,0,0,9.91,1.63c1.71,0,3.07,0,4.06-.13a23.6,23.6,0,0,0,3-.47,52.4,52.4,0,0,0,6.58-1.88c3.36-1.14,5-.38,5,2.26a17.45,17.45,0,0,1-1.63,7.48,17.75,17.75,0,0,1-4.44,6,21,21,0,0,1-15,5.3q.94,5.55-3.93,14.36-8.62,15.81-24.78,21.79a36.67,36.67,0,0,1-12.86,2.13,33.46,33.46,0,0,1-13.12-2.52,28.88,28.88,0,0,1-10.25-7.22Q750.89,527.45,750.88,510.26Z"/><path class="cls-19" d="M941.45,523.34q0,7.86,5.55,7.86a14.84,14.84,0,0,0,6.37-1.2,10.57,10.57,0,0,1,3.37-1.19c1.2,0,1.8.62,1.8,1.88q0,7.35-7.69,12.64-8.13,5.56-16.58,2.74-5.55-2-8.2-8.46a17,17,0,0,1-1.29-6.07,55.48,55.48,0,0,1,.86-9.4q-7.95,16.25-19.74,22.39a21.8,21.8,0,0,1-10,2.39,18.39,18.39,0,0,1-9.18-2.18,20.21,20.21,0,0,1-6.63-6q-5.55-8-5-20.17a63.33,63.33,0,0,1,9-29.82,69.63,69.63,0,0,1,19.65-22.3q11.88-8.81,22.22-8.8t16.66,9.48q5.9-9.48,10.42-9.48,4.88,0,7.35,1.79,4.7,3.42,3.33,6-21.45,43.92-22,54.69A28.12,28.12,0,0,0,941.45,523.34Zm-47.43.34q0,10.26,6.58,10.25,5,0,12.39-8.54,10.77-12.57,19.06-33.84a123.94,123.94,0,0,0,4.44-13.33,10,10,0,0,0-4.87-8.54,8.88,8.88,0,0,0-4.57-.94A15.26,15.26,0,0,0,920,471,34.15,34.15,0,0,0,912.1,477a52.66,52.66,0,0,0-7.1,9.11,72.38,72.38,0,0,0-5.76,11.4A70.54,70.54,0,0,0,894,523.68Z"/><path class="cls-19" d="M1057.25,473.78q-5,0-18.12,14.35-9.83,11.21-14.27,16.84l-7.69,9.74q-4.95,9.39-7.77,15.63l-4.62,9.92a24.89,24.89,0,0,1-3.12,5.17,4.57,4.57,0,0,1-3.59,1.49,12,12,0,0,1-4.36-.81,13.12,13.12,0,0,1-3.63-2.09q-3.24-2.74-3.24-6c0-.86.62-2.54,1.88-5l3.24-6.92c1-2.05,2.22-4.67,3.59-7.86l4.79-11.71q10.08-25.2,10.08-32.55,0-3.93-2.56-5.81l-1.71-1.2a2.37,2.37,0,0,1-.86-2.09,4.38,4.38,0,0,1,1.16-2.86,10.48,10.48,0,0,1,3-2.4,16.82,16.82,0,0,1,7.73-2,17.55,17.55,0,0,1,6.11.85,12.46,12.46,0,0,1,3.85,2.31q3.24,3,3.24,6.24a25.85,25.85,0,0,1-.85,6.53,62.74,62.74,0,0,1-2.14,6.67q-1.28,3.38-2.73,6.54-3.42,7.35-4.23,9c-.54,1.11-.7,1.53-.47,1.24q15.63-20.25,18.8-23.93A80,80,0,0,1,1049,462.67q6.75-5,12.78-5a12.65,12.65,0,0,1,9.61,3.76,13.76,13.76,0,0,1,3.59,9.91,36.66,36.66,0,0,1-2.74,12.65q-2.73,7.26-3.67,10.16l12.56-16.57,7-8.38q6.32-7.08,11.11-9.31a19.73,19.73,0,0,1,7.81-2.22,16.89,16.89,0,0,1,6,1.11,13.78,13.78,0,0,1,5,3.16q4.37,4.19,4.36,11.11a33.88,33.88,0,0,1-3.07,13.67q-3.07,7-5.39,11.49c-1.53,3-3,6-4.44,9q-6.24,13.59-6.24,20.16,0,4.62,3.76,4.62a13.9,13.9,0,0,0,6.54-1.54,11.84,11.84,0,0,1,3.8-1.54,1.59,1.59,0,0,1,1.8,1.8q0,7.6-7.78,12.73-5.22,3.5-9.53,3.5a19.72,19.72,0,0,1-7-1,13.38,13.38,0,0,1-4.79-3.25,17.11,17.11,0,0,1-4.78-12.39,47,47,0,0,1,1.88-13.67,106.14,106.14,0,0,1,4.44-12.09q2.57-5.85,5.17-10.77c1.74-3.28,3.06-5.88,4-7.82q2.73-6,2.73-8.8,0-3.33-3.5-3.33-4.62,0-16.58,15.29-9.06,11.88-12.56,17.09l-5.9,8.55q-4.95,9.39-7.6,15.63l-4.36,9.92a25,25,0,0,1-2.82,5.17,4,4,0,0,1-3.33,1.49,12.94,12.94,0,0,1-4.15-.68,11.91,11.91,0,0,1-3.46-1.8Q1036,542,1036,539.19a23,23,0,0,1,1.84-7.61q1.83-4.82,4.57-10.81l12-25.29q6.4-14.1,6.41-17.9T1057.25,473.78Zm8.45,24.09c.06,0,.09,0,.09-.08l.09-.17C1065.76,497.73,1065.7,497.82,1065.7,497.87Z"/><path class="cls-19" d="M1158.86,516.16a55.6,55.6,0,0,1,2.48-14.23,68.74,68.74,0,0,1,5.72-13.16,77.08,77.08,0,0,1,8.42-12,66.27,66.27,0,0,1,10.47-10q12.21-9.13,24.69-9.14,14.61,0,19.48,12.05a24.19,24.19,0,0,1,1.63,9.69,26.79,26.79,0,0,1-2.14,10.34,30,30,0,0,1-5.68,8.63,41.2,41.2,0,0,1-8.63,7,59,59,0,0,1-10.9,5.21,80.45,80.45,0,0,1-26,4.44,16.22,16.22,0,0,0-.43,3.59,22.65,22.65,0,0,0,.51,5.34,15.58,15.58,0,0,0,2,5.26,9.79,9.79,0,0,0,8.89,5.13,36.22,36.22,0,0,0,19.31-5.82,27.18,27.18,0,0,0,5.43-4.05q2.08-2.1,3.63-2.1a3.27,3.27,0,0,1,2.69,1.84,7.64,7.64,0,0,1,1.15,4.14,12.55,12.55,0,0,1-2.56,7.87q-10.77,10.76-32,10.76-12.57,0-20.17-7.52Q1158.36,530.87,1158.86,516.16Zm49.9-47.17q-9,0-17.26,12.31a92.79,92.79,0,0,0-11.28,25.12A41.51,41.51,0,0,0,1205,495.14q9.66-9.22,9.66-17.69T1208.76,469Z"/><path class="cls-19" d="M1347.39,540.26a23.67,23.67,0,0,1-5.64-8.68,35.05,35.05,0,0,1-2.13-12.43,56.6,56.6,0,0,1,1.75-14.53,70.6,70.6,0,0,1,5.21-14.18,71.69,71.69,0,0,1,8.12-12.82,61.72,61.72,0,0,1,10.46-10.42q12.48-9.57,25.9-9.57,17.6,0,23.84,15.46,4.44,11.21.51,27.09A70.24,70.24,0,0,1,1402.25,527a53,53,0,0,1-22.39,17.35,34.61,34.61,0,0,1-12.77,2.56,35.74,35.74,0,0,1-11.2-1.62A22.25,22.25,0,0,1,1347.39,540.26Zm16.32-41.45a83.2,83.2,0,0,0-4.06,13,54.93,54.93,0,0,0-1.41,12.61q.09,5.94,1.84,9.31a5.94,5.94,0,0,0,5.68,3.38,13.27,13.27,0,0,0,7.74-2.7,37.5,37.5,0,0,0,7.39-7.13,68,68,0,0,0,6.75-10.26,96,96,0,0,0,5.55-12.13q5.22-13.75,5-24.44,0-9.39-3.84-12a7.79,7.79,0,0,0-4.32-1c-1.85,0-4,.85-6.36,2.52a38.72,38.72,0,0,0-7.18,6.8,71.26,71.26,0,0,0-6.92,10A94.63,94.63,0,0,0,1363.71,498.81Z"/><path class="cls-19" d="M1452.34,537.78a15.91,15.91,0,0,1-1.28-6.67,34.32,34.32,0,0,1,1.19-8.5,87.55,87.55,0,0,1,3.08-9.53q1.88-4.86,4.19-9.91l4.35-9.91q8.46-19.56,6.24-23.07a10.73,10.73,0,0,0-3.93-3.25,2.27,2.27,0,0,1-.94-2.09,4.2,4.2,0,0,1,1.24-2.86,11,11,0,0,1,3.29-2.4,19,19,0,0,1,8.29-2,17.63,17.63,0,0,1,6.36.89,11.82,11.82,0,0,1,3.64,2.27,9.47,9.47,0,0,1,2.73,6.84,31.24,31.24,0,0,1-1.54,9.05q-1.53,5-3.84,10.6t-5,11.36l-5,11.2q-5.37,12.39-5.38,16.4,0,7.86,5.56,7.86,14.26,0,26.74-16.91a64.16,64.16,0,0,0,10.42-21.37,39,39,0,0,0,1.46-9.95q0-4.49-.3-7.48a29.53,29.53,0,0,0-1-5.3,17.5,17.5,0,0,0-3.76-7.09q-1.8-2.22,1.62-5.21,3.77-3.17,10.68-3.16,4.27,0,7.52,4,4.1,4.78,4.1,13.72a59,59,0,0,1-2.65,17.52,78.14,78.14,0,0,1-7.26,16.49,85.92,85.92,0,0,1-10.89,14.74A81.51,81.51,0,0,1,1498.65,536q-15.56,10.95-31.1,10.94Q1456.34,546.92,1452.34,537.78Z"/><path class="cls-19" d="M1564.81,516.16a55.59,55.59,0,0,1,2.47-14.23,69.41,69.41,0,0,1,5.73-13.16,76.41,76.41,0,0,1,8.42-12,65.79,65.79,0,0,1,10.46-10q12.22-9.13,24.7-9.14,14.61,0,19.48,12.05a24,24,0,0,1,1.62,9.69,26.79,26.79,0,0,1-2.13,10.34,30,30,0,0,1-5.69,8.63,40.94,40.94,0,0,1-8.63,7,58.86,58.86,0,0,1-10.89,5.21,80.56,80.56,0,0,1-26,4.44,15.74,15.74,0,0,0-.42,3.59,22.65,22.65,0,0,0,.51,5.34,15.58,15.58,0,0,0,2,5.26,9.78,9.78,0,0,0,8.89,5.13,36.27,36.27,0,0,0,19.31-5.82,26.81,26.81,0,0,0,5.42-4.05q2.1-2.1,3.63-2.1a3.27,3.27,0,0,1,2.7,1.84,7.64,7.64,0,0,1,1.15,4.14,12.55,12.55,0,0,1-2.56,7.87q-10.77,10.76-32,10.76-12.55,0-20.16-7.52Q1564.29,530.87,1564.81,516.16Zm49.9-47.17q-9,0-17.26,12.31a92.79,92.79,0,0,0-11.28,25.12A41.56,41.56,0,0,0,1611,495.14q9.65-9.22,9.65-17.69T1614.71,469Z"/><path class="cls-19" d="M1669.41,544a11.18,11.18,0,0,1-2.73-2.87,5.94,5.94,0,0,1-1.11-2.73,7.2,7.2,0,0,1,.47-2.82c.37-1.11.86-2.46,1.49-4.06Q1685,488.64,1685,474c-.17-2.74-1.11-4.67-2.82-5.81l-1.71-1.2a2.61,2.61,0,0,1-.81-2.09,4.26,4.26,0,0,1,1.07-2.86,10.16,10.16,0,0,1,2.91-2.4,15.78,15.78,0,0,1,7.56-2,17.12,17.12,0,0,1,6.06.85,11.27,11.27,0,0,1,3.72,2.31c2.17,2,3.26,4.22,3.29,6.49a28.91,28.91,0,0,1-.77,6.92q-.81,3.51-1.92,6.88t-2.22,6.41a41.68,41.68,0,0,0-1.45,4.49,12.12,12.12,0,0,0-.52,3.76,7.33,7.33,0,0,0,2.48-3.51l3.33-6.32q11.11-20,21.71-26.49a14.47,14.47,0,0,1,7.39-1.79,8.8,8.8,0,0,1,7,3,10.56,10.56,0,0,1,2.78,6.71,22,22,0,0,1-.51,6.11,17.4,17.4,0,0,1-1.93,4.57c-1.88,3.19-4.15,4.78-6.83,4.78a3.16,3.16,0,0,1-2-.76l-1.88-1.63a8.42,8.42,0,0,0-5.43-2.48c-1.74,0-3.84,1.14-6.32,3.42a63.17,63.17,0,0,0-7.73,8.8,163.57,163.57,0,0,0-22,40l-3.76,9.92a27.18,27.18,0,0,1-2.56,5.25,3.77,3.77,0,0,1-3.29,1.58,12.4,12.4,0,0,1-4.36-.81A15.56,15.56,0,0,1,1669.41,544Z"/><g class="cls-20"><path class="cls-19" d="M783,309.66a7.54,7.54,0,0,1-2.49,1.18,15.19,15.19,0,0,1-3.77.38c-1.57,0-3.62-.11-6.13-.33-.59,1.59-1.19,3.44-1.8,5.57l-4.21,14.35q-7.8,25.79-16.63,28.93a4.19,4.19,0,0,1-1.59.26,4.28,4.28,0,0,1-1.57-.24,3.3,3.3,0,0,1-1-.6,1.79,1.79,0,0,1-.81-1.32,1,1,0,0,1,.33-.88l1-.59q5.26-3.44,9.66-18.31l2.64-8.93a159.12,159.12,0,0,1,6.63-18.94c-1.93-.17-3.4-.25-4.4-.25q-4.32,0-6.22,1.21a7.34,7.34,0,0,0-2.62,2.62,6.38,6.38,0,0,0-.79,2c-.07.69-.29,1.12-.66,1.3a2.84,2.84,0,0,1-1.33.28,2.9,2.9,0,0,1-1.63-.57,4.77,4.77,0,0,1-1.39-1.44,5.92,5.92,0,0,1-.92-4.05,7.82,7.82,0,0,1,1.48-3.88,10.5,10.5,0,0,1,2.91-2.66,12.42,12.42,0,0,1,6.58-1.9,56.69,56.69,0,0,1,6.55.35c2.07.23,4.12.49,6.17.78,5.45.74,8.92,1.1,10.4,1.1a15,15,0,0,0,3.32-.26,5.75,5.75,0,0,0,1.85-.76,11.93,11.93,0,0,1,1.08-.68,2.24,2.24,0,0,1,1-.17c.73,0,1,.56.95,1.67a7.21,7.21,0,0,1-.81,2.86A6,6,0,0,1,783,309.66Z"/><path class="cls-19" d="M812.44,328.76q-2,0-7.21,6.15l-3,3.74-5.86,7.65q-2.13,4-3.33,6.7l-2,4.25a10.88,10.88,0,0,1-1.34,2.22,1.94,1.94,0,0,1-1.54.64,5.21,5.21,0,0,1-1.87-.35,5.49,5.49,0,0,1-1.55-.9,3.33,3.33,0,0,1-1.39-2.56,6.42,6.42,0,0,1,.77-2.16l1.46-3q6.86-14.1,12.42-35.74a138.16,138.16,0,0,0,3-14.35q.4-3.07,3-3.08a4.57,4.57,0,0,1,2.79.81c1.41,1.05,2.1,2.17,2,3.36a26.05,26.05,0,0,1-.52,4c-.29,1.49-.67,3.11-1.13,4.86s-1,3.58-1.57,5.51q-2.43,7.35-3.59,10.62-3.6,9.84-4.43,11.53c.36-.44.84-1,1.42-1.79q6.67-8.76,8.24-10.46a29.8,29.8,0,0,1,2.68-2.62,8.58,8.58,0,0,1,5.86-2,6.11,6.11,0,0,1,6.29,6,15,15,0,0,1-.49,4,31,31,0,0,1-1.26,3.6c-.52,1.22-1.08,2.48-1.69,3.78l-1.83,3.84q-2.57,5.82-2.56,8.64c0,1.32.54,2,1.61,2a6,6,0,0,0,2.8-.66,5.15,5.15,0,0,1,1.63-.66.68.68,0,0,1,.77.77q0,3.25-3.3,5.46a7.68,7.68,0,0,1-4.13,1.5,10.41,10.41,0,0,1-3.1-.39,5.57,5.57,0,0,1-2.18-1.26,7.5,7.5,0,0,1-2.16-5.82q0-4.14,2.71-10.4l4-8.42a9.4,9.4,0,0,0,1.13-3.7C813.94,329.21,813.44,328.76,812.44,328.76Z"/><path class="cls-19" d="M837.68,346.93a24,24,0,0,1,1.06-6.1,29.81,29.81,0,0,1,2.45-5.64A33,33,0,0,1,844.8,330a28.17,28.17,0,0,1,4.49-4.27,17.58,17.58,0,0,1,10.58-3.92q6.27,0,8.35,5.16a10.43,10.43,0,0,1,.7,4.16,11.5,11.5,0,0,1-.92,4.43,13,13,0,0,1-2.43,3.7,17.76,17.76,0,0,1-3.7,3,25.5,25.5,0,0,1-4.67,2.24,34.65,34.65,0,0,1-11.13,1.9,7.15,7.15,0,0,0-.19,1.54,10.15,10.15,0,0,0,.22,2.29,6.78,6.78,0,0,0,.88,2.25,4.19,4.19,0,0,0,3.81,2.2,15.58,15.58,0,0,0,8.28-2.49,11.58,11.58,0,0,0,2.32-1.74,2.46,2.46,0,0,1,1.56-.9,1.4,1.4,0,0,1,1.15.79,3.29,3.29,0,0,1,.49,1.78,5.4,5.4,0,0,1-1.09,3.37q-4.62,4.61-13.74,4.61a11.74,11.74,0,0,1-8.64-3.22Q837.46,353.23,837.68,346.93Zm21.39-20.22q-3.86,0-7.4,5.27a39.54,39.54,0,0,0-4.84,10.77,17.79,17.79,0,0,0,10.62-4.83q4.14-4,4.14-7.58T859.07,326.71Z"/><path class="cls-19" d="M915.44,346.93a24,24,0,0,1,1.06-6.1,29.81,29.81,0,0,1,2.45-5.64,33,33,0,0,1,3.61-5.16,28.17,28.17,0,0,1,4.49-4.27,17.58,17.58,0,0,1,10.58-3.92q6.27,0,8.35,5.16a10.43,10.43,0,0,1,.7,4.16,11.5,11.5,0,0,1-.92,4.43,13,13,0,0,1-2.43,3.7,17.5,17.5,0,0,1-3.7,3,25.5,25.5,0,0,1-4.67,2.24,34.65,34.65,0,0,1-11.13,1.9,7.15,7.15,0,0,0-.19,1.54,10.15,10.15,0,0,0,.22,2.29,6.78,6.78,0,0,0,.88,2.25,4.19,4.19,0,0,0,3.81,2.2,15.58,15.58,0,0,0,8.28-2.49,11.58,11.58,0,0,0,2.32-1.74,2.46,2.46,0,0,1,1.56-.9,1.4,1.4,0,0,1,1.15.79,3.29,3.29,0,0,1,.49,1.78,5.4,5.4,0,0,1-1.09,3.37q-4.62,4.61-13.74,4.61a11.74,11.74,0,0,1-8.64-3.22Q915.22,353.23,915.44,346.93Zm21.39-20.22q-3.86,0-7.4,5.27a39.84,39.84,0,0,0-4.84,10.77,17.79,17.79,0,0,0,10.62-4.83q4.14-4,4.14-7.58T936.83,326.71Z"/><path class="cls-19" d="M961.92,358.28a7.25,7.25,0,0,1-1.49-2.44,9.77,9.77,0,0,1-.56-3.44,21,21,0,0,1,.89-5.25q.9-3.3,2.29-7.51l3.08-9.12q6.55-19,7.58-29.44.33-3.07,3-3.08a4.61,4.61,0,0,1,2.79.81,4.34,4.34,0,0,1,2,3.58,28.62,28.62,0,0,1-.7,4.82c-.42,1.89-1,4-1.61,6.19s-1.42,4.6-2.27,7.09l-5.06,14.86q-4.35,12.67-4.35,16.37c0,1.32.53,2,1.61,2A6,6,0,0,0,972,353a5.06,5.06,0,0,1,1.63-.66.68.68,0,0,1,.77.77q0,3.25-3.33,5.46a7.51,7.51,0,0,1-4.09,1.5,8.44,8.44,0,0,1-3-.44A5.66,5.66,0,0,1,961.92,358.28Z"/><path class="cls-19" d="M991.11,346.93a24,24,0,0,1,1.06-6.1,29.23,29.23,0,0,1,2.46-5.64,32.28,32.28,0,0,1,3.6-5.16,28.17,28.17,0,0,1,4.49-4.27,17.58,17.58,0,0,1,10.58-3.92q6.27,0,8.35,5.16a10.43,10.43,0,0,1,.7,4.16,11.5,11.5,0,0,1-.92,4.43,12.62,12.62,0,0,1-2.43,3.7,17.5,17.5,0,0,1-3.7,3,25.19,25.19,0,0,1-4.67,2.24,34.65,34.65,0,0,1-11.13,1.9,7.15,7.15,0,0,0-.19,1.54,10.15,10.15,0,0,0,.22,2.29,6.78,6.78,0,0,0,.88,2.25,4.19,4.19,0,0,0,3.81,2.2,15.58,15.58,0,0,0,8.28-2.49,11.58,11.58,0,0,0,2.32-1.74,2.46,2.46,0,0,1,1.56-.9,1.4,1.4,0,0,1,1.15.79,3.29,3.29,0,0,1,.5,1.78,5.41,5.41,0,0,1-1.1,3.37q-4.62,4.61-13.73,4.61a11.78,11.78,0,0,1-8.65-3.22Q990.89,353.23,991.11,346.93Zm21.39-20.22q-3.86,0-7.4,5.27a39.83,39.83,0,0,0-4.83,10.77,17.84,17.84,0,0,0,10.62-4.83c2.76-2.64,4.13-5.17,4.13-7.58S1014.18,326.71,1012.5,326.71Z"/><path class="cls-19" d="M1042.35,356.26q-.07.56-1.59,5.79c-1,3.49-1.86,6.26-2.55,8.31-1.54,4.59-2.8,7.45-3.81,8.57a3.82,3.82,0,0,1-2.93,1.32,3.44,3.44,0,0,1-3.18-2.05,2.59,2.59,0,0,1-.33-1.3,10.35,10.35,0,0,1,1.1-3.09q2.89-6,7.72-23.81,2-7,2.57-9.56l1.17-4.57c.76-3,1.2-5.09,1.34-6.17a4,4,0,0,0-.2-2.31,3.33,3.33,0,0,0-.92-1c-.34-.23-.66-.43-1-.6a.85.85,0,0,1-.37-.93,2.16,2.16,0,0,1,.6-1.25,4.72,4.72,0,0,1,1.34-1,7.85,7.85,0,0,1,3.32-.77,6.81,6.81,0,0,1,2.61.4,4.44,4.44,0,0,1,1.58,1.1,3.57,3.57,0,0,1,1.17,2.79c-.24,1.88-.51,3.49-.8,4.83q6.4-9.12,13.29-9.12,6.26,0,8.38,6.48a18.14,18.14,0,0,1,.74,5.53,22.52,22.52,0,0,1-1,6.54,30,30,0,0,1-2.67,6.21,31.91,31.91,0,0,1-8.65,9.7q-5.27,3.81-10,3.81A7.69,7.69,0,0,1,1042.35,356.26Zm5.66-15.61a33.52,33.52,0,0,0-2.16,5.14,15.44,15.44,0,0,0-.83,4.69,6.22,6.22,0,0,0,.92,3.5,3.05,3.05,0,0,0,2.71,1.37,7.35,7.35,0,0,0,3.57-1,15.62,15.62,0,0,0,3.44-2.62,23.52,23.52,0,0,0,3.11-3.86,29.46,29.46,0,0,0,2.51-4.71,26.25,26.25,0,0,0,2.31-10.29,9.63,9.63,0,0,0-.7-4.1,2.25,2.25,0,0,0-2.14-1.47,5.31,5.31,0,0,0-3,1.12,21.54,21.54,0,0,0-3.29,3,38.81,38.81,0,0,0-3.41,4.25A42,42,0,0,0,1048,340.65Z"/><path class="cls-19" d="M1113.22,328.76q-2,0-7.22,6.15l-3,3.74-5.86,7.65q-2.13,4-3.34,6.7l-2,4.25a10.88,10.88,0,0,1-1.34,2.22,1.94,1.94,0,0,1-1.54.64,5.17,5.17,0,0,1-1.87-.35,5.35,5.35,0,0,1-1.55-.9,3.33,3.33,0,0,1-1.39-2.56,6.56,6.56,0,0,1,.76-2.16l1.47-3q6.84-14.1,12.41-35.74a135.83,135.83,0,0,0,3-14.35q.4-3.07,3-3.08a4.59,4.59,0,0,1,2.79.81c1.41,1.05,2.1,2.17,2,3.36a26.05,26.05,0,0,1-.52,4c-.29,1.49-.67,3.11-1.13,4.86s-1,3.58-1.58,5.51q-2.41,7.35-3.58,10.62c-2.4,6.56-3.87,10.41-4.44,11.53.37-.44.85-1,1.43-1.79q6.67-8.76,8.24-10.46a29.8,29.8,0,0,1,2.68-2.62,8.57,8.57,0,0,1,5.85-2,6,6,0,0,1,4.65,1.94,6.06,6.06,0,0,1,1.65,4.08,15,15,0,0,1-.49,4,31,31,0,0,1-1.26,3.6c-.52,1.22-1.08,2.48-1.69,3.78l-1.83,3.84q-2.57,5.82-2.56,8.64c0,1.32.53,2,1.61,2a6,6,0,0,0,2.8-.66,5.06,5.06,0,0,1,1.63-.66.68.68,0,0,1,.77.77q0,3.25-3.3,5.46a7.68,7.68,0,0,1-4.14,1.5,10.38,10.38,0,0,1-3.09-.39,5.57,5.57,0,0,1-2.18-1.26,7.5,7.5,0,0,1-2.16-5.82q0-4.14,2.71-10.4l3.95-8.42a9.28,9.28,0,0,0,1.14-3.7C1114.72,329.21,1114.22,328.76,1113.22,328.76Z"/><path class="cls-19" d="M1166.36,350c0,2.25.8,3.37,2.38,3.37a6.4,6.4,0,0,0,2.73-.51,4.46,4.46,0,0,1,1.45-.51c.51,0,.77.26.77.8q0,3.15-3.3,5.42a7.68,7.68,0,0,1-7.1,1.17,6,6,0,0,1-3.52-3.62,7.45,7.45,0,0,1-.55-2.6,23.23,23.23,0,0,1,.37-4q-3.4,7-8.46,9.59a9.23,9.23,0,0,1-4.29,1,7.93,7.93,0,0,1-3.93-.93,8.75,8.75,0,0,1-2.84-2.59,13.71,13.71,0,0,1-2.16-8.64,27.13,27.13,0,0,1,3.84-12.78,29.81,29.81,0,0,1,8.43-9.56q5.08-3.76,9.52-3.77a8.25,8.25,0,0,1,7.14,4.07q2.52-4.07,4.47-4.07a5.38,5.38,0,0,1,3.15.77c1.34,1,1.81,1.83,1.42,2.56q-9.18,18.82-9.44,23.44A12.24,12.24,0,0,0,1166.36,350Zm-20.32.15q0,4.39,2.82,4.39,2.16,0,5.31-3.66a50.16,50.16,0,0,0,8.16-14.5,51.7,51.7,0,0,0,1.91-5.71,4.33,4.33,0,0,0-2.09-3.67,3.91,3.91,0,0,0-2-.4,6.62,6.62,0,0,0-3,.95,14.89,14.89,0,0,0-3.37,2.6,22.91,22.91,0,0,0-3,3.9,31.07,31.07,0,0,0-2.47,4.89A30.26,30.26,0,0,0,1146,350.15Z"/><path class="cls-19" d="M1214.78,328.76c-.76,0-1.83.73-3.22,2.18s-2.6,2.78-3.63,4l-3.11,3.74-6,7.65q-2.13,4-3.34,6.7l-2,4.25a10.5,10.5,0,0,1-1.33,2.22,1.94,1.94,0,0,1-1.54.64,5.17,5.17,0,0,1-1.87-.35,5.35,5.35,0,0,1-1.55-.9,3.33,3.33,0,0,1-1.39-2.56,6.27,6.27,0,0,1,.8-2.16l1.39-3c.44-.88,1-2,1.54-3.37l2-5q4.32-10.8,4.32-14a2.87,2.87,0,0,0-1.1-2.49l-.73-.51a1,1,0,0,1-.36-.9,1.87,1.87,0,0,1,.49-1.22,4.59,4.59,0,0,1,1.3-1,7.23,7.23,0,0,1,3.31-.84,7,7,0,0,1,2.58.37,4.26,4.26,0,0,1,1.54,1,3.67,3.67,0,0,1,1.36,2.67,11.73,11.73,0,0,1-.35,2.8,28.2,28.2,0,0,1-.88,2.86c-.35,1-.73,1.91-1.12,2.83s-.74,1.74-1.06,2.42l-.73,1.58c-.2.39-.24.51-.15.36q4.07-5.64,5.35-7.25l2.56-3.07a25.18,25.18,0,0,1,4.43-4.36q3.27-2.21,5.13-2.2a9,9,0,0,1,3.15.48,6.53,6.53,0,0,1,2.23,1.35,6.19,6.19,0,0,1,2,4.76,15.56,15.56,0,0,1-1.32,6c-.88,2.1-1.64,3.81-2.29,5.11s-1.26,2.63-1.85,4q-2.75,6.1-2.74,8.9c0,.83.65,1.24,2,1.24a6,6,0,0,0,2.81-.66,5.13,5.13,0,0,1,1.62-.66.68.68,0,0,1,.77.77q0,3.25-3.33,5.46a7.54,7.54,0,0,1-4.1,1.5,10.06,10.06,0,0,1-3.1-.4,5.86,5.86,0,0,1-2.17-1.29A6.91,6.91,0,0,1,1209,353q0-4.25,2.67-10.62c1.29-2.9,2.21-4.89,2.74-6l1.25-2.6a9.28,9.28,0,0,0,1.14-3.7C1216.8,329.21,1216.12,328.76,1214.78,328.76Z"/><path class="cls-19" d="M1261.44,350.15c.71,0,1.07.47,1.07,1.43a4.27,4.27,0,0,1-.74,2.34,10.21,10.21,0,0,1-4,4,12.48,12.48,0,0,1-6.78,2.16q-5.89,0-7.47-5.27-1.86-6.27,5.61-26.55-4.22-.37-4.58-1.47a2.35,2.35,0,0,1-.11-.71,1.61,1.61,0,0,1,.35-.9,5.38,5.38,0,0,1,.89-1,4.06,4.06,0,0,1,2.6-1.06h2.9q3.94-9.27,5.64-10.55a3,3,0,0,1,1.79-.58,4.62,4.62,0,0,1,1.65.25,3.72,3.72,0,0,1,1.17.73,3.34,3.34,0,0,1,1.17,2.46,4,4,0,0,1-.44,1.68l-2.71,5.9h.88c1.52,0,2.74,0,3.66,0l2.09,0c.46,0,1,0,1.74,0s1,.26,1,.77q0,4.83-11.42,4.83h-.29l-2.49,6.45q-4.21,11.42-4.22,16a3.08,3.08,0,0,0,.59,2,2.76,2.76,0,0,0,2.2.71,7.5,7.5,0,0,0,2.93-.55,11.55,11.55,0,0,0,2.3-1.23c.66-.45,1.23-.86,1.71-1.22A2.11,2.11,0,0,1,1261.44,350.15Z"/><path class="cls-19" d="M1321.57,355.55q-5,4.41-7.84,4.41a4,4,0,0,1-3.93-2.93,5.21,5.21,0,0,1-.41-1.9,14.43,14.43,0,0,1,.75-4.62c.5-1.48,1-2.88,1.49-4.17l3.22-8.31a56.88,56.88,0,0,0,2.27-7.11,3.79,3.79,0,0,0-.11-2.73,6.09,6.09,0,0,0-1.19-1.24c-.45-.35-.88-.67-1.28-.95a1.28,1.28,0,0,1-.61-1.07,1.8,1.8,0,0,1,.54-1.22,4.77,4.77,0,0,1,1.41-1,8.33,8.33,0,0,1,3.64-.84,9.35,9.35,0,0,1,3,.38,5.72,5.72,0,0,1,1.77,1,3.76,3.76,0,0,1,1.36,2.91,14.87,14.87,0,0,1-.57,3.82c-.38,1.42-.86,2.92-1.43,4.51s-1.21,3.23-1.92,4.94l-2,5.06a52.37,52.37,0,0,0-2.89,9.15c2.3-.78,5.33-3.59,9.12-8.42A94.15,94.15,0,0,0,1336.86,327a3.06,3.06,0,0,1,1.35-1.65,7.25,7.25,0,0,1,3.34-.55c2.12.08,3.22.74,3.29,2a5,5,0,0,1-.6,2.51c-.45.92-.83,1.68-1.12,2.29l-1.43,2.93q-4.28,8.67-4.28,14.1,0,3.77,2,5.16a3,3,0,0,0,1.79.44,6.44,6.44,0,0,0,2.86-.86,12.84,12.84,0,0,0,3.15-2.36,21.81,21.81,0,0,0,2.8-3.5,25.86,25.86,0,0,0,2.25-4.27,22.23,22.23,0,0,0,2-8.49c0-4.23-.8-7.34-2.38-9.34-.54-.64-.38-1.38.47-2.23a5.79,5.79,0,0,1,4.25-1.36q3.55,0,4.83,4a14.54,14.54,0,0,1,.52,4.51A24.59,24.59,0,0,1,1361,337a36.43,36.43,0,0,1-2.88,7.07,40.55,40.55,0,0,1-4.17,6.31,36,36,0,0,1-5,5.1q-5.57,4.61-10.32,4.61-8.17,0-8.17-10.55a25.43,25.43,0,0,1,.44-4.72A57.74,57.74,0,0,1,1321.57,355.55Z"/><path class="cls-19" d="M1378.83,357.25a10,10,0,0,1-2.41-3.71,15.22,15.22,0,0,1-.92-5.33,24.85,24.85,0,0,1,.75-6.23,30.43,30.43,0,0,1,2.24-6.08,30.79,30.79,0,0,1,3.47-5.49,26.36,26.36,0,0,1,4.49-4.47,18,18,0,0,1,11.1-4.1q7.54,0,10.21,6.63,1.9,4.8.22,11.61a30,30,0,0,1-5.64,11.5,22.64,22.64,0,0,1-9.59,7.43,15.27,15.27,0,0,1-10.27.4A9.47,9.47,0,0,1,1378.83,357.25Zm7-17.76a36,36,0,0,0-1.74,5.57,23.23,23.23,0,0,0-.61,5.4,9.11,9.11,0,0,0,.79,4,2.54,2.54,0,0,0,2.44,1.45,5.69,5.69,0,0,0,3.31-1.16,15.8,15.8,0,0,0,3.17-3.05,29.4,29.4,0,0,0,2.89-4.4,41.58,41.58,0,0,0,2.38-5.2,28.69,28.69,0,0,0,2.16-10.47q0-4-1.65-5.13a3.29,3.29,0,0,0-1.84-.44,4.92,4.92,0,0,0-2.73,1.08,16.47,16.47,0,0,0-3.08,2.91,31.46,31.46,0,0,0-3,4.29A40.42,40.42,0,0,0,1385.83,339.49Z"/><path class="cls-19" d="M1447.91,360.07q-8.31,0-13.26-15.78c-1.29,2.39-2.37,4.56-3.22,6.52l-2.2,5a18.77,18.77,0,0,1-1.78,3.18,2.29,2.29,0,0,1-1.84,1.14,4.87,4.87,0,0,1-1.87-.35,5.18,5.18,0,0,1-1.47-.9,3.44,3.44,0,0,1-1.28-2.56,6.67,6.67,0,0,1,.77-2.16l1.47-3q6.84-14.1,12.41-35.74a135.83,135.83,0,0,0,3-14.35q.39-3.07,3-3.08a4,4,0,0,1,2.56.81,4.15,4.15,0,0,1,1.91,3.38,29.6,29.6,0,0,1-.5,4.09q-.42,2.27-1.11,5c-.47,1.79-1,3.67-1.58,5.62q-2.39,7.65-3.55,10.91l-3.44,9.49c-.44,1.12-.79,1.94-1,2.45q8.49-3.36,12.75-7.62c1.7-1.7,2.56-3.3,2.56-4.79a1.85,1.85,0,0,0-.75-1.65,8,8,0,0,1-1-.79q-.27-.27,0-1a2.78,2.78,0,0,1,1.37-1.37,5.38,5.38,0,0,1,2.75-.66,10.73,10.73,0,0,1,2.69.29,5.24,5.24,0,0,1,1.88.92,4.18,4.18,0,0,1,1.8,3.62,9.42,9.42,0,0,1-1,4.31,13,13,0,0,1-3.08,3.79q-4.14,3.51-13.25,6.81a20.57,20.57,0,0,0,4.17,8.57q2.89,3.51,5.31,3.51a5,5,0,0,0,2.2-.44l1.32-.65a1.53,1.53,0,0,1,.77-.22c.6,0,.91.36.91,1.09a4,4,0,0,1-.33,1.67,8.65,8.65,0,0,1-.93,1.52,9.26,9.26,0,0,1-1.56,1.58A8.68,8.68,0,0,1,1447.91,360.07Z"/><path class="cls-19" d="M1471,346.93a24,24,0,0,1,1.06-6.1,29.23,29.23,0,0,1,2.46-5.64,32.35,32.35,0,0,1,3.61-5.16,27.7,27.7,0,0,1,4.48-4.27,17.58,17.58,0,0,1,10.58-3.92q6.27,0,8.35,5.16a10.43,10.43,0,0,1,.7,4.16,11.32,11.32,0,0,1-.92,4.43,12.62,12.62,0,0,1-2.43,3.7,17.5,17.5,0,0,1-3.7,3,25.19,25.19,0,0,1-4.67,2.24,34.65,34.65,0,0,1-11.13,1.9,6.67,6.67,0,0,0-.18,1.54,9.11,9.11,0,0,0,.22,2.29,6.77,6.77,0,0,0,.87,2.25,4.19,4.19,0,0,0,3.81,2.2,15.58,15.58,0,0,0,8.28-2.49,11.3,11.3,0,0,0,2.32-1.74,2.46,2.46,0,0,1,1.56-.9,1.4,1.4,0,0,1,1.15.79,3.29,3.29,0,0,1,.5,1.78,5.41,5.41,0,0,1-1.1,3.37q-4.62,4.61-13.73,4.61a11.78,11.78,0,0,1-8.65-3.22Q1470.8,353.23,1471,346.93Zm21.39-20.22q-3.84,0-7.4,5.27a39.83,39.83,0,0,0-4.83,10.77,17.84,17.84,0,0,0,10.62-4.83q4.14-4,4.14-7.58C1494.94,327.92,1494.09,326.71,1492.41,326.71Z"/><path class="cls-19" d="M1582.58,352.53a.75.75,0,0,1,.85.84,6.36,6.36,0,0,1-3.15,5.35,8.88,8.88,0,0,1-5,1.39,5.26,5.26,0,0,1-3.59-1.1,6.22,6.22,0,0,1-2.24-4.83q0-3.63,3-11.1-5.64,7.62-7.91,10.13a40.24,40.24,0,0,1-3.95,3.9q-3.66,3-6.63,3-4.55,0-6-3.92a7.88,7.88,0,0,1-.44-2.76,12.93,12.93,0,0,1,.53-3.48,36.68,36.68,0,0,1,1.37-4q.84-2.08,1.83-4.29l2-4.39q3.81-8.46,2.82-10a4.71,4.71,0,0,0-1.65-1.39,1,1,0,0,1-.44-.9,1.83,1.83,0,0,1,.53-1.22,5.18,5.18,0,0,1,1.38-1,8.37,8.37,0,0,1,3.59-.84,7.6,7.6,0,0,1,2.72.38,4.59,4.59,0,0,1,1.52,1,3.67,3.67,0,0,1,1.21,2.67,13.35,13.35,0,0,1-.47,3.28c-.32,1.2-.74,2.52-1.25,3.93s-1.07,2.88-1.68,4.4c-1.69,3.95-2.82,6.57-3.41,7.83l-1.35,2.82a10.58,10.58,0,0,0-1.14,3.56,2.38,2.38,0,0,0,.33,1.44,1.44,1.44,0,0,0,1.19.42,3.61,3.61,0,0,0,2-.8,21.56,21.56,0,0,0,2.49-2.16c.9-.9,1.84-1.95,2.82-3.13s1.92-2.41,2.85-3.68a63.85,63.85,0,0,0,4-6q7.77-13.72,8.28-14.35a3.17,3.17,0,0,1,2.4-1.58,7.26,7.26,0,0,1,2.14.28,4.71,4.71,0,0,1,1.57.78c1,.76,1.36,1.52,1,2.27q-8.94,18.65-9.63,23.44c-.12,1.1-.18,1.86-.18,2.27,0,1.86.56,2.78,1.68,2.78a5.3,5.3,0,0,0,2.6-.56A3.81,3.81,0,0,1,1582.58,352.53Z"/><path class="cls-19" d="M1606.14,356.26q-.08.56-1.6,5.79t-2.54,8.31q-2.31,6.88-3.81,8.57a3.83,3.83,0,0,1-2.93,1.32,3.44,3.44,0,0,1-3.18-2.05,2.59,2.59,0,0,1-.33-1.3,10.22,10.22,0,0,1,1.09-3.09q2.9-6,7.73-23.81,1.93-7,2.56-9.56l1.18-4.57c.75-3,1.2-5.09,1.33-6.17a3.81,3.81,0,0,0-.2-2.31,3.31,3.31,0,0,0-.91-1c-.35-.23-.66-.43-1-.6a.86.86,0,0,1-.36-.93,2.16,2.16,0,0,1,.6-1.25,4.58,4.58,0,0,1,1.34-1,7.8,7.8,0,0,1,3.31-.77,6.86,6.86,0,0,1,2.62.4,4.44,4.44,0,0,1,1.58,1.1,3.64,3.64,0,0,1,1.17,2.79q-.37,2.82-.81,4.83,6.4-9.12,13.3-9.12,6.26,0,8.38,6.48a18.17,18.17,0,0,1,.73,5.53,22.85,22.85,0,0,1-1,6.54,30,30,0,0,1-2.68,6.21,32.06,32.06,0,0,1-8.64,9.7q-5.28,3.81-10,3.81A7.68,7.68,0,0,1,1606.14,356.26Zm5.65-15.61a33.52,33.52,0,0,0-2.16,5.14,15.4,15.4,0,0,0-.82,4.69,6.22,6.22,0,0,0,.92,3.5,3.05,3.05,0,0,0,2.71,1.37,7.38,7.38,0,0,0,3.57-1,15.62,15.62,0,0,0,3.44-2.62,23.52,23.52,0,0,0,3.11-3.86,30.29,30.29,0,0,0,2.51-4.71,26.25,26.25,0,0,0,2.31-10.29,9.79,9.79,0,0,0-.7-4.1,2.26,2.26,0,0,0-2.14-1.47,5.29,5.29,0,0,0-3,1.12,22.05,22.05,0,0,0-3.3,3,38.78,38.78,0,0,0-3.4,4.25A42.12,42.12,0,0,0,1611.79,340.65Z"/><path class="cls-19" d="M1651.5,358.5a6.26,6.26,0,0,1-1.3-1.85,5.74,5.74,0,0,1-.48-2.42,5.54,5.54,0,0,1,.53-2.45,5.18,5.18,0,0,1,1.34-1.74,4.69,4.69,0,0,1,3-1.17,14,14,0,0,1,2.71.22,8.7,8.7,0,0,1,2.11.69,3.67,3.67,0,0,1,2.27,3.37,7.06,7.06,0,0,1-1.8,4.8,5.53,5.53,0,0,1-3.49,2.09,6.23,6.23,0,0,1-3-.28A5.8,5.8,0,0,1,1651.5,358.5Z"/><path class="cls-19" d="M1681.42,358.5a6.45,6.45,0,0,1-1.3-1.85,5.9,5.9,0,0,1-.47-2.42,5.54,5.54,0,0,1,.53-2.45,5.06,5.06,0,0,1,1.34-1.74,4.69,4.69,0,0,1,3-1.17,14.05,14.05,0,0,1,2.71.22,8.77,8.77,0,0,1,2.1.69,3.65,3.65,0,0,1,2.27,3.37,7,7,0,0,1-1.79,4.8,5.55,5.55,0,0,1-3.5,2.09,6.24,6.24,0,0,1-2.95-.28A5.89,5.89,0,0,1,1681.42,358.5Z"/><path class="cls-19" d="M1711.35,358.5a6.26,6.26,0,0,1-1.3-1.85,5.74,5.74,0,0,1-.48-2.42,5.41,5.41,0,0,1,.54-2.45,5.16,5.16,0,0,1,1.33-1.74,4.69,4.69,0,0,1,3-1.17,13.91,13.91,0,0,1,2.71.22,8.7,8.7,0,0,1,2.11.69,3.67,3.67,0,0,1,2.27,3.37,7.06,7.06,0,0,1-1.8,4.8,5.53,5.53,0,0,1-3.49,2.09,6.24,6.24,0,0,1-3-.28A5.8,5.8,0,0,1,1711.35,358.5Z"/></g></g></svg>
