<svg id="Title" xmlns="http://www.w3.org/2000/svg" width="1920" height="1080" viewBox="0 0 1920 1080"><defs><style>.cls-1{fill:#19315b;}.cls-2{fill:#285443;}.cls-3{fill:gray;}.cls-4{fill:#878787;}.cls-5{fill:#999;}.cls-6{fill:#ccc;}.cls-7{fill:#b3b3b3;}.cls-8{fill:#666;}.cls-9{fill:#2e5a9a;}.cls-10{fill:#286199;}.cls-11{fill:#602568;}.cls-12{fill:#361d0b;}.cls-13{fill:#654a7c;}.cls-14{opacity:0.9;}.cls-15{fill:#bdccd4;}.cls-16{fill:#003c37;}.cls-17{fill:#9b4100;}</style></defs><title>background_title</title><g id="Background"><rect class="cls-1" width="1920" height="1080"/><path class="cls-2" d="M1152.83,626.77,962,596c-163.87-26.4-432-26.4-595.9,0L0,655v425H1328V832.43C1328,734.85,1249.17,642.3,1152.83,626.77Z"/><path class="cls-2" d="M1112,680s239-89,342-106c39.7-6.55,193,3.14,267,23,111.67,30,199,83,199,83v400H1112Z"/></g><g id="Title-2" data-name="Title"><circle class="cls-3" cx="886.69" cy="143.31" r="107.31"/><circle class="cls-4" cx="890.49" cy="147.11" r="20.83"/><circle class="cls-4" cx="917.33" cy="83.67" r="14.84"/><circle class="cls-4" cx="847.57" cy="95.98" r="27.15"/><circle class="cls-4" cx="819.35" cy="171.74" r="15.35"/><circle class="cls-4" cx="952.9" cy="132.92" r="9.37"/><circle class="cls-4" cx="874.07" cy="212.78" r="20.83"/><circle class="cls-4" cx="952.9" cy="179.43" r="14.84"/><path class="cls-5" d="M318.53,179.45l-.77,6.58q0,10.35,6.92,14.1a11.87,11.87,0,0,0,5.72,1.28,14.8,14.8,0,0,0,6-1.15,13.08,13.08,0,0,0,7.95-11.92,20.1,20.1,0,0,0-2.05-9.14,54.24,54.24,0,0,0-5.13-8.21l-6.83-8.37q-8.29-9.92-11.11-18.07a46.24,46.24,0,0,1-2.82-15,48.56,48.56,0,0,1,1.67-12.94A54.34,54.34,0,0,1,322.71,105a52.25,52.25,0,0,1,7.18-10.12,47.48,47.48,0,0,1,9.31-8q10.68-7.17,21.2-7.18t16.4,2.91A27.84,27.84,0,0,1,386.29,90Q393,98.36,393,110.24A37.8,37.8,0,0,1,386.71,131q-5.71,8.9-12.81,11.28a9.51,9.51,0,0,1-4.23.77,11.19,11.19,0,0,1-4.53-.81,10.42,10.42,0,0,1-3.21-2.18,9.07,9.07,0,0,1-3-6.49c0-1.6.49-2.65,1.46-3.16a33.57,33.57,0,0,0,11.27-10.17q5.22-7.26,5.47-14.49t-3.46-10.68a13.94,13.94,0,0,0-9.87-3.46,22.37,22.37,0,0,0-11.11,2.78,27.65,27.65,0,0,0-8.54,7.48q-7.7,10.08-7.69,23.84,0,9.14,6.32,19.31,2.65,4.35,5.77,8.59c2.08,2.81,4,5.71,5.85,8.67q6.24,10.33,6.24,18.54a29.54,29.54,0,0,1-2.95,13.84,32.9,32.9,0,0,1-7.82,9.83A35.61,35.61,0,0,1,326,213.55q-12.65,0-19.48-7.52Q301,200,301,192.87a19.75,19.75,0,0,1,4.36-13q3.33-4,6.4-4.78Q318.52,173.3,318.53,179.45Z"/><path class="cls-5" d="M437,202.91q-11.67,10.29-18.29,10.3t-9.19-6.84a12.35,12.35,0,0,1-.94-4.44,33.53,33.53,0,0,1,1.76-10.77q1.74-5.21,3.46-9.74l7.52-19.4q4.35-11.88,5.29-16.58c.63-3.13.54-5.25-.25-6.36a14.5,14.5,0,0,0-2.78-2.91c-1.05-.82-2.05-1.56-3-2.22a2.92,2.92,0,0,1-1.41-2.48,4.22,4.22,0,0,1,1.24-2.86,10.88,10.88,0,0,1,3.29-2.39,19.45,19.45,0,0,1,8.5-2,21.28,21.28,0,0,1,6.92.9,13.29,13.29,0,0,1,4.15,2.27,8.79,8.79,0,0,1,3.16,6.79,34.7,34.7,0,0,1-1.33,8.93q-1.32,5-3.33,10.51t-4.49,11.53l-4.7,11.8q-5.55,14.27-6.75,21.36,8-2.73,21.28-19.66a220.78,220.78,0,0,0,25.55-42.29,6.92,6.92,0,0,1,3.16-3.85,16.79,16.79,0,0,1,7.78-1.28q7.42.26,7.69,4.61a11.76,11.76,0,0,1-1.41,5.86c-1.06,2.13-1.92,3.92-2.61,5.34L484,153.9q-10,20.26-10,32.9,0,8.8,4.79,12a7,7,0,0,0,4.18,1,14.91,14.91,0,0,0,6.67-2,30.58,30.58,0,0,0,7.35-5.51,50.88,50.88,0,0,0,6.53-8.16,62.09,62.09,0,0,0,5.26-10q4.69-11.19,4.7-19.82,0-14.79-5.55-21.79-1.89-2.22,1.11-5.21,3.15-3.17,9.91-3.17,8.28,0,11.28,9.32c.79,2.33,1.19,5.84,1.19,10.51a56.74,56.74,0,0,1-2.47,15.59,84.65,84.65,0,0,1-6.71,16.49,94.27,94.27,0,0,1-9.74,14.74,83.9,83.9,0,0,1-11.58,11.88q-13,10.77-24.1,10.77-19.05,0-19.05-24.61a59,59,0,0,1,1-11A135,135,0,0,1,437,202.91Z"/><path class="cls-5" d="M563.54,182.79A55.6,55.6,0,0,1,566,168.56a68.47,68.47,0,0,1,5.72-13.16,77,77,0,0,1,8.42-12.05,66.2,66.2,0,0,1,10.47-9.95q12.21-9.15,24.69-9.15,14.61,0,19.48,12.05a24.28,24.28,0,0,1,1.63,9.7,26.83,26.83,0,0,1-2.14,10.34,30.11,30.11,0,0,1-5.68,8.63,41.48,41.48,0,0,1-8.63,7,60,60,0,0,1-10.9,5.22,80.54,80.54,0,0,1-26,4.44,15.56,15.56,0,0,0-.43,3.59,22.74,22.74,0,0,0,.51,5.34,15.52,15.52,0,0,0,2,5.25,9.78,9.78,0,0,0,8.89,5.13,36.23,36.23,0,0,0,19.31-5.81,27.2,27.2,0,0,0,5.43-4.06c1.39-1.39,2.6-2.09,3.63-2.09a3.25,3.25,0,0,1,2.69,1.84,7.59,7.59,0,0,1,1.15,4.14,12.5,12.5,0,0,1-2.56,7.86q-10.77,10.77-32,10.77-12.57,0-20.17-7.52Q563,197.48,563.54,182.79Zm49.9-47.17q-9,0-17.26,12.3A92.93,92.93,0,0,0,584.9,173a41.49,41.49,0,0,0,24.78-11.27q9.66-9.24,9.66-17.69T613.44,135.62Z"/><path class="cls-5" d="M668.66,182.79a55.59,55.59,0,0,1,2.47-14.23,69.14,69.14,0,0,1,5.73-13.16,77,77,0,0,1,8.42-12.05,65.72,65.72,0,0,1,10.46-9.95q12.22-9.15,24.7-9.15,14.61,0,19.48,12.05a24.11,24.11,0,0,1,1.62,9.7,26.82,26.82,0,0,1-2.13,10.34,29.94,29.94,0,0,1-5.69,8.63,41.22,41.22,0,0,1-8.63,7,59.53,59.53,0,0,1-10.89,5.22,80.56,80.56,0,0,1-26,4.44,16.26,16.26,0,0,0-.42,3.59,22.74,22.74,0,0,0,.51,5.34,15.52,15.52,0,0,0,2.05,5.25,9.78,9.78,0,0,0,8.89,5.13,36.25,36.25,0,0,0,19.31-5.81A26.82,26.82,0,0,0,724,191c1.4-1.39,2.61-2.09,3.64-2.09a3.25,3.25,0,0,1,2.69,1.84,7.59,7.59,0,0,1,1.15,4.14,12.5,12.5,0,0,1-2.56,7.86q-10.77,10.77-32,10.77-12.55,0-20.16-7.52Q668.14,197.48,668.66,182.79Zm49.9-47.17q-9,0-17.26,12.3A92.93,92.93,0,0,0,690,173a41.49,41.49,0,0,0,24.78-11.27q9.65-9.24,9.65-17.69T718.56,135.62Z"/><path class="cls-5" d="M822.65,190.31c1.65,0,2.48,1.11,2.48,3.33a10,10,0,0,1-1.71,5.47q-2.31,4.95-9.23,9.4a29.06,29.06,0,0,1-15.81,5q-13.75,0-17.43-12.31-4.35-14.61,13.07-62-9.82-.85-10.68-3.42a5.21,5.21,0,0,1-.25-1.66,3.93,3.93,0,0,1,.81-2.1,12.27,12.27,0,0,1,2.09-2.3,9.52,9.52,0,0,1,6.07-2.48h6.75Q808,105.72,812,102.72a7,7,0,0,1,4.19-1.37,10.64,10.64,0,0,1,3.84.6,8.55,8.55,0,0,1,2.74,1.71,7.72,7.72,0,0,1,2.73,5.73,9.49,9.49,0,0,1-1,3.93l-6.32,13.75h2c3.53,0,6.38,0,8.55-.08l4.87-.09c1.08-.05,2.43-.08,4.06-.08s2.43.6,2.43,1.79q0,11.28-26.66,11.28h-.68l-5.81,15q-9.82,26.65-9.83,37.34a7.15,7.15,0,0,0,1.37,4.66q1.37,1.66,5.12,1.66a17.51,17.51,0,0,0,6.84-1.28,29.44,29.44,0,0,0,5.38-2.86c1.54-1,2.87-2,4-2.86A5,5,0,0,1,822.65,190.31Z"/><path class="cls-5" d="M936.84,192.53a145.52,145.52,0,0,1,3.29-15.34q2.52-9.78,6.45-20.89a234.22,234.22,0,0,1,21.28-45.38,6.29,6.29,0,0,1,4.36-3.16,49.85,49.85,0,0,1,6.62-.51,18.75,18.75,0,0,1,5.13.64,9.9,9.9,0,0,1,3.54,1.67q2.57,2.13.86,4.52-15.47,23.34-27,56.91-4.36,12.82-5.22,17.82t-1.24,6.84a16.29,16.29,0,0,0-.38,3.2q0,2.82,3.59,2.82a22.94,22.94,0,0,0,8-1.67,60.74,60.74,0,0,0,9.57-4.7,95,95,0,0,0,10.64-7.39,112.9,112.9,0,0,0,10.81-9.78,115.82,115.82,0,0,0,10-11.75,89.51,89.51,0,0,0,8.2-13.33q7.77-15.37,7.77-30.33,0-20.52-16.66-27.26a32.41,32.41,0,0,0-12.09-2.31,59.46,59.46,0,0,0-10.64.81,53.13,53.13,0,0,0-8.37,2.27A41.67,41.67,0,0,0,961.71,104a6.81,6.81,0,0,1-3.51.86,9.77,9.77,0,0,1-4.4-1.2,18,18,0,0,1-4.23-3q-4.27-4.19-3.41-8,.93-5.48,16.4-9.49a104.94,104.94,0,0,1,26.15-3.33,73.47,73.47,0,0,1,23.71,3.59,47.33,47.33,0,0,1,17.13,9.65q12.32,11.46,12.31,30.68,0,25.47-17.6,49.13-16.15,22-38.46,33.33-14.43,7.35-26.57,7.35A25,25,0,0,1,942.91,208Q935.56,202.1,936.84,192.53Z"/><path class="cls-5" d="M1067.85,210.64a11.14,11.14,0,0,1-2.73-2.86,6.13,6.13,0,0,1-1.12-2.73,7.42,7.42,0,0,1,.48-2.82c.36-1.11.86-2.47,1.49-4.06q17.43-42.9,17.43-57.6-.26-4.09-2.82-5.81l-1.71-1.19a2.63,2.63,0,0,1-.81-2.1,4.28,4.28,0,0,1,1.07-2.86,10.13,10.13,0,0,1,2.91-2.39,15.79,15.79,0,0,1,7.56-2,17.09,17.09,0,0,1,6.06.86,11.27,11.27,0,0,1,3.72,2.31q3.24,3.08,3.29,6.49a28.91,28.91,0,0,1-.77,6.92q-.81,3.51-1.92,6.88t-2.22,6.41a45.7,45.7,0,0,0-1.46,4.48,12.34,12.34,0,0,0-.51,3.76,7.26,7.26,0,0,0,2.48-3.5l3.33-6.32q11.12-20,21.71-26.49a14.37,14.37,0,0,1,7.39-1.8,8.8,8.8,0,0,1,7,3,10.56,10.56,0,0,1,2.78,6.7,22,22,0,0,1-.51,6.11,17.46,17.46,0,0,1-1.93,4.58q-2.82,4.78-6.83,4.78a3.17,3.17,0,0,1-2.05-.77l-1.88-1.62a8.42,8.42,0,0,0-5.43-2.48c-1.74,0-3.84,1.14-6.32,3.42a63.84,63.84,0,0,0-7.74,8.8,163.87,163.87,0,0,0-22,40l-3.76,9.91a27.64,27.64,0,0,1-2.56,5.26,3.77,3.77,0,0,1-3.29,1.58,12.4,12.4,0,0,1-4.36-.81A15.26,15.26,0,0,1,1067.85,210.64Z"/><path class="cls-5" d="M1162.29,182.79a55.17,55.17,0,0,1,2.48-14.23,68.47,68.47,0,0,1,5.72-13.16,77,77,0,0,1,8.42-12.05,66.2,66.2,0,0,1,10.47-9.95q12.21-9.15,24.69-9.15,14.61,0,19.48,12.05a24.28,24.28,0,0,1,1.63,9.7,26.83,26.83,0,0,1-2.14,10.34,30.11,30.11,0,0,1-5.68,8.63,41.74,41.74,0,0,1-8.63,7,60,60,0,0,1-10.9,5.22,80.54,80.54,0,0,1-26,4.44,15.56,15.56,0,0,0-.43,3.59,22.74,22.74,0,0,0,.51,5.34,15.52,15.52,0,0,0,2,5.25,9.78,9.78,0,0,0,8.89,5.13,36.23,36.23,0,0,0,19.31-5.81,27.2,27.2,0,0,0,5.43-4.06c1.39-1.39,2.6-2.09,3.63-2.09a3.25,3.25,0,0,1,2.69,1.84,7.59,7.59,0,0,1,1.15,4.14,12.5,12.5,0,0,1-2.56,7.86q-10.77,10.77-32,10.77-12.57,0-20.17-7.52Q1161.77,197.48,1162.29,182.79Zm49.9-47.17q-9,0-17.26,12.3A92.93,92.93,0,0,0,1183.65,173a41.49,41.49,0,0,0,24.78-11.27q9.66-9.24,9.66-17.69T1212.19,135.62Z"/><path class="cls-5" d="M1332.52,190q0,7.88,5.55,7.87a14.84,14.84,0,0,0,6.37-1.2,10.42,10.42,0,0,1,3.37-1.2c1.2,0,1.8.63,1.8,1.88q0,7.35-7.69,12.65-8.13,5.55-16.58,2.73-5.55-2-8.2-8.46a17,17,0,0,1-1.29-6.06,55.39,55.39,0,0,1,.86-9.4Q1308.76,205,1297,211.16a21.8,21.8,0,0,1-10,2.39,18.5,18.5,0,0,1-9.18-2.18,20,20,0,0,1-6.62-6q-5.57-8-5.05-20.16a63.22,63.22,0,0,1,9-29.82,69.67,69.67,0,0,1,19.65-22.31q11.88-8.79,22.21-8.8t16.67,9.49q5.89-9.48,10.42-9.49,4.88,0,7.35,1.8,4.69,3.42,3.33,6-21.45,43.92-22,54.69A27.94,27.94,0,0,0,1332.52,190Zm-47.43.35q0,10.24,6.58,10.25,5,0,12.39-8.55,10.77-12.56,19.06-33.83a124.68,124.68,0,0,0,4.44-13.33,10,10,0,0,0-4.87-8.55,9,9,0,0,0-4.57-.94,15.26,15.26,0,0,0-7.09,2.22,34.48,34.48,0,0,0-7.86,6.07,52.57,52.57,0,0,0-7.1,9.1,72.49,72.49,0,0,0-5.76,11.41A70.5,70.5,0,0,0,1285.09,190.31Z"/><path class="cls-5" d="M1448.32,140.4q-5,0-18.12,14.36-9.83,11.19-14.27,16.83l-7.69,9.74q-5,9.4-7.77,15.64l-4.62,9.91a23.79,23.79,0,0,1-3.12,5.17,4.54,4.54,0,0,1-3.59,1.5,11.91,11.91,0,0,1-4.35-.81,12.82,12.82,0,0,1-3.64-2.1q-3.24-2.73-3.24-6c0-.85.62-2.53,1.88-5l3.24-6.92q1.54-3.07,3.59-7.86l4.79-11.71q10.08-25.2,10.08-32.56a6.73,6.73,0,0,0-2.56-5.81l-1.71-1.19a2.39,2.39,0,0,1-.86-2.1,4.4,4.4,0,0,1,1.16-2.86,10.46,10.46,0,0,1,3-2.39,16.84,16.84,0,0,1,7.73-2,17.48,17.48,0,0,1,6.11.86,12.34,12.34,0,0,1,3.85,2.31c2.16,2,3.25,4.07,3.25,6.23a25.89,25.89,0,0,1-.86,6.54,65.64,65.64,0,0,1-2.13,6.66c-.86,2.26-1.77,4.43-2.74,6.54q-3.42,7.35-4.23,9c-.54,1.11-.7,1.52-.47,1.24q15.64-20.27,18.8-23.93,6.59-7.6,10.25-10.43,6.75-5,12.78-5a12.69,12.69,0,0,1,9.61,3.76,13.78,13.78,0,0,1,3.59,9.92,36.81,36.81,0,0,1-2.73,12.64q-2.74,7.26-3.68,10.17l12.56-16.58,7-8.37q6.32-7.09,11.11-9.31a19.6,19.6,0,0,1,7.82-2.23,16.87,16.87,0,0,1,6,1.11,14.07,14.07,0,0,1,5,3.17q4.35,4.18,4.35,11.1a33.89,33.89,0,0,1-3.07,13.68q-3.07,7-5.39,11.49c-1.53,3-3,6-4.44,9q-6.24,13.59-6.24,20.17c0,3.08,1.26,4.61,3.76,4.61a14,14,0,0,0,6.54-1.53,11.84,11.84,0,0,1,3.8-1.54,1.59,1.59,0,0,1,1.8,1.79q0,7.6-7.78,12.73-5.21,3.51-9.53,3.51a19.47,19.47,0,0,1-7-1,13.22,13.22,0,0,1-4.79-3.24,17.14,17.14,0,0,1-4.78-12.39,47.38,47.38,0,0,1,1.88-13.68,106.84,106.84,0,0,1,4.44-12.09q2.57-5.85,5.17-10.76c1.74-3.28,3.06-5.89,4-7.82q2.73-6,2.73-8.8,0-3.35-3.5-3.34-4.62,0-16.58,15.3-9.06,11.88-12.56,17.09l-5.9,8.54q-5,9.4-7.6,15.64l-4.36,9.91a24.76,24.76,0,0,1-2.82,5.17,4,4,0,0,1-3.33,1.5,12.68,12.68,0,0,1-4.15-.69,11.89,11.89,0,0,1-3.46-1.79q-3.33-2.48-3.33-5.26a23,23,0,0,1,1.84-7.6q1.83-4.83,4.57-10.81l12-25.29q6.4-14.1,6.41-17.9T1448.32,140.4Zm8.46,24.1s.08,0,.08-.09l.09-.17C1456.83,164.36,1456.78,164.44,1456.78,164.5Z"/><path class="cls-5" d="M1545,197.65a10.67,10.67,0,0,1,1.16-4.91,12.88,12.88,0,0,1,2.86-3.8,11,11,0,0,1,7.52-3.33c2.28,0,3.42,1.16,3.42,3.5q0,8.88,5.89,12.39a8.59,8.59,0,0,0,4.45,1.28,13.2,13.2,0,0,0,3.93-.51,9,9,0,0,0,3-1.62,7.39,7.39,0,0,0,3.07-5.9,13.11,13.11,0,0,0-1.53-6.28,52.89,52.89,0,0,0-3.85-6l-4.87-6.83q-10.26-13.68-10.25-25.21,0-9.57,8.12-17.35,9.22-8.79,23.66-8.8,12.64,0,19.74,6.24,5.82,5,5.81,11.54a13,13,0,0,1-5.12,10.76q-4.62,3.6-9.23,2.65a4.8,4.8,0,0,1-3.16-2.09,4.17,4.17,0,0,1-.43-3.8,14.72,14.72,0,0,0,.68-4.45,10.57,10.57,0,0,0-.85-4.27,9.94,9.94,0,0,0-2.31-3.33,9.09,9.09,0,0,0-6.28-2.82,17.33,17.33,0,0,0-5.43.72,11.66,11.66,0,0,0-3.75,2.1,9.86,9.86,0,0,0-3.34,7.56,17.83,17.83,0,0,0,1.54,7.73,45.65,45.65,0,0,0,3.8,6.5c1.51,2.16,3.15,4.36,4.92,6.58a69.86,69.86,0,0,1,4.87,7q5.37,8.64,5.38,15.17a20.38,20.38,0,0,1-2.73,10.94,26.84,26.84,0,0,1-7.1,7.56,34.07,34.07,0,0,1-20.85,6.92q-11,0-17.43-5.3Q1545,203.72,1545,197.65Z"/><path class="cls-5" d="M320.53,175.6l-.77,6.58q0,10.35,6.92,14.1a11.87,11.87,0,0,0,5.72,1.28,14.8,14.8,0,0,0,6-1.15,13.08,13.08,0,0,0,7.95-11.92,20.1,20.1,0,0,0-2.05-9.14,54.24,54.24,0,0,0-5.13-8.21l-6.83-8.37q-8.29-9.92-11.11-18.07a46.24,46.24,0,0,1-2.82-15,48.68,48.68,0,0,1,1.67-13,54.46,54.46,0,0,1,4.65-11.62A52,52,0,0,1,331.89,91a47.48,47.48,0,0,1,9.31-8q10.68-7.17,21.2-7.18t16.4,2.91a27.84,27.84,0,0,1,9.49,7.35Q395,94.51,395,106.39a37.8,37.8,0,0,1-6.24,20.76Q383,136,375.9,138.43a9.51,9.51,0,0,1-4.23.77,11.19,11.19,0,0,1-4.53-.81,10.42,10.42,0,0,1-3.21-2.18,9.07,9.07,0,0,1-3-6.49c0-1.6.49-2.65,1.46-3.16a33.57,33.57,0,0,0,11.27-10.17q5.22-7.26,5.47-14.49t-3.46-10.68a13.94,13.94,0,0,0-9.87-3.46,22.37,22.37,0,0,0-11.11,2.78A27.65,27.65,0,0,0,346.16,98q-7.7,10.08-7.69,23.84,0,9.14,6.32,19.31,2.65,4.35,5.77,8.58t5.85,8.68q6.24,10.33,6.24,18.54a29.54,29.54,0,0,1-2.95,13.84,32.9,32.9,0,0,1-7.82,9.83A35.61,35.61,0,0,1,328,209.7q-12.65,0-19.48-7.52Q303,196.11,303,189a19.75,19.75,0,0,1,4.36-13q3.33-4,6.4-4.78Q320.52,169.45,320.53,175.6Z"/><path class="cls-5" d="M439,199.06q-11.67,10.29-18.29,10.3t-9.19-6.84a12.35,12.35,0,0,1-.94-4.44,33.53,33.53,0,0,1,1.76-10.77q1.74-5.2,3.46-9.74l7.52-19.4q4.35-11.88,5.29-16.58c.63-3.13.54-5.25-.25-6.36a14.5,14.5,0,0,0-2.78-2.91c-1.05-.82-2.05-1.56-3-2.22a2.92,2.92,0,0,1-1.41-2.48,4.22,4.22,0,0,1,1.24-2.86,10.88,10.88,0,0,1,3.29-2.39,19.45,19.45,0,0,1,8.5-2,21.28,21.28,0,0,1,6.92.9,13.48,13.48,0,0,1,4.15,2.26,8.82,8.82,0,0,1,3.16,6.8,34.7,34.7,0,0,1-1.33,8.93q-1.32,5-3.33,10.51t-4.49,11.53l-4.7,11.8q-5.55,14.26-6.75,21.36,8-2.73,21.28-19.66a220.78,220.78,0,0,0,25.55-42.29,6.92,6.92,0,0,1,3.16-3.85,16.79,16.79,0,0,1,7.78-1.28q7.42.25,7.69,4.61a11.76,11.76,0,0,1-1.41,5.86c-1.06,2.13-1.92,3.91-2.61,5.34L486,150.05Q476,170.3,476,183q0,8.81,4.79,12.05a7,7,0,0,0,4.18,1,14.91,14.91,0,0,0,6.67-2,30.58,30.58,0,0,0,7.35-5.51,50.88,50.88,0,0,0,6.53-8.16,62.09,62.09,0,0,0,5.26-10q4.69-11.19,4.7-19.82,0-14.79-5.55-21.79-1.89-2.22,1.11-5.22,3.15-3.15,9.91-3.16,8.28,0,11.28,9.32c.79,2.33,1.19,5.84,1.19,10.51a56.74,56.74,0,0,1-2.47,15.59,84.9,84.9,0,0,1-6.71,16.49,94.27,94.27,0,0,1-9.74,14.74,83.9,83.9,0,0,1-11.58,11.88q-13,10.77-24.1,10.77-19.05,0-19.05-24.61a59.17,59.17,0,0,1,1-11A135.11,135.11,0,0,1,439,199.06Z"/><path class="cls-5" d="M565.54,178.94A55.6,55.6,0,0,1,568,164.71a68.47,68.47,0,0,1,5.72-13.16,77,77,0,0,1,8.42-12.05,66.2,66.2,0,0,1,10.47-9.95q12.21-9.15,24.69-9.15,14.61,0,19.48,12a24.28,24.28,0,0,1,1.63,9.7,26.83,26.83,0,0,1-2.14,10.34,30.11,30.11,0,0,1-5.68,8.63,41.48,41.48,0,0,1-8.63,7,60,60,0,0,1-10.9,5.22,80.54,80.54,0,0,1-26,4.44,15.56,15.56,0,0,0-.43,3.59,22.74,22.74,0,0,0,.51,5.34,15.52,15.52,0,0,0,2,5.25,9.78,9.78,0,0,0,8.89,5.13,36.32,36.32,0,0,0,19.31-5.81,27.2,27.2,0,0,0,5.43-4.06c1.39-1.39,2.6-2.09,3.63-2.09a3.25,3.25,0,0,1,2.69,1.83,7.65,7.65,0,0,1,1.15,4.15,12.5,12.5,0,0,1-2.56,7.86q-10.77,10.77-32,10.77-12.57,0-20.17-7.52Q565,193.63,565.54,178.94Zm49.9-47.17q-9,0-17.26,12.3a92.93,92.93,0,0,0-11.28,25.12,41.49,41.49,0,0,0,24.78-11.27q9.66-9.24,9.66-17.69T615.44,131.77Z"/><path class="cls-5" d="M670.66,178.94a55.59,55.59,0,0,1,2.47-14.23,69.14,69.14,0,0,1,5.73-13.16,77,77,0,0,1,8.42-12.05,65.72,65.72,0,0,1,10.46-9.95q12.22-9.15,24.7-9.15,14.61,0,19.48,12a24.11,24.11,0,0,1,1.62,9.7,26.82,26.82,0,0,1-2.13,10.34,29.94,29.94,0,0,1-5.69,8.63,41.22,41.22,0,0,1-8.63,7,59.53,59.53,0,0,1-10.89,5.22,80.56,80.56,0,0,1-26,4.44,16.26,16.26,0,0,0-.42,3.59,22.74,22.74,0,0,0,.51,5.34,15.52,15.52,0,0,0,2.05,5.25,9.78,9.78,0,0,0,8.89,5.13,36.34,36.34,0,0,0,19.31-5.81,26.82,26.82,0,0,0,5.42-4.06c1.4-1.39,2.61-2.09,3.64-2.09a3.25,3.25,0,0,1,2.69,1.83,7.65,7.65,0,0,1,1.15,4.15,12.5,12.5,0,0,1-2.56,7.86q-10.77,10.77-32,10.77-12.55,0-20.16-7.52Q670.14,193.63,670.66,178.94Zm49.9-47.17q-9,0-17.26,12.3A92.93,92.93,0,0,0,692,169.19a41.49,41.49,0,0,0,24.78-11.27q9.65-9.24,9.65-17.69T720.56,131.77Z"/><path class="cls-5" d="M824.65,186.46c1.65,0,2.48,1.11,2.48,3.33a10,10,0,0,1-1.71,5.47q-2.31,5-9.23,9.4a29.06,29.06,0,0,1-15.81,5q-13.75,0-17.43-12.31Q778.6,182.78,796,135.44q-9.82-.85-10.68-3.42a5.21,5.21,0,0,1-.25-1.66,3.93,3.93,0,0,1,.81-2.1A12.27,12.27,0,0,1,788,126a9.52,9.52,0,0,1,6.07-2.48h6.75Q810,101.86,814,98.87a7,7,0,0,1,4.19-1.37,10.64,10.64,0,0,1,3.84.6,8.55,8.55,0,0,1,2.74,1.71,7.72,7.72,0,0,1,2.73,5.72,9.57,9.57,0,0,1-1,3.94l-6.32,13.75h2q5.3,0,8.55-.08l4.87-.09c1.08,0,2.43-.08,4.06-.08s2.43.59,2.43,1.79q0,11.28-26.66,11.28h-.68l-5.81,15q-9.82,26.65-9.83,37.34a7.15,7.15,0,0,0,1.37,4.66q1.37,1.66,5.12,1.66a17.51,17.51,0,0,0,6.84-1.28,29.44,29.44,0,0,0,5.38-2.86c1.54-1,2.87-2,4-2.86A5,5,0,0,1,824.65,186.46Z"/><path class="cls-5" d="M938.84,188.68a145,145,0,0,1,3.29-15.34q2.52-9.78,6.45-20.89a234.22,234.22,0,0,1,21.28-45.38,6.29,6.29,0,0,1,4.36-3.16,49.85,49.85,0,0,1,6.62-.51A18.75,18.75,0,0,1,986,104a9.9,9.9,0,0,1,3.54,1.67q2.57,2.13.86,4.52-15.47,23.34-27,56.91Q959,180,958.15,185t-1.24,6.84a16.29,16.29,0,0,0-.38,3.2q0,2.82,3.59,2.82a23.17,23.17,0,0,0,8-1.67,60.74,60.74,0,0,0,9.57-4.7,95,95,0,0,0,10.64-7.39,112.9,112.9,0,0,0,10.81-9.78,115.82,115.82,0,0,0,10-11.75,90,90,0,0,0,8.2-13.33q7.77-15.37,7.77-30.34,0-20.51-16.66-27.25a32.41,32.41,0,0,0-12.09-2.31,59.46,59.46,0,0,0-10.64.81,53.13,53.13,0,0,0-8.37,2.27,41.67,41.67,0,0,0-13.67,7.77,6.81,6.81,0,0,1-3.51.86,9.77,9.77,0,0,1-4.4-1.2,18,18,0,0,1-4.23-3q-4.27-4.18-3.41-8,.93-5.48,16.4-9.49A104.94,104.94,0,0,1,990.71,76a73.47,73.47,0,0,1,23.71,3.59,47.33,47.33,0,0,1,17.13,9.65q12.32,11.46,12.31,30.68,0,25.47-17.6,49.13-16.15,22-38.46,33.33-14.43,7.35-26.57,7.35a25,25,0,0,1-16.32-5.56Q937.56,198.25,938.84,188.68Z"/><path class="cls-5" d="M1069.85,206.79a11.14,11.14,0,0,1-2.73-2.86,6.13,6.13,0,0,1-1.12-2.73,7.42,7.42,0,0,1,.48-2.82c.36-1.12.86-2.47,1.49-4.06q17.43-42.9,17.43-57.6-.26-4.09-2.82-5.81l-1.71-1.19a2.63,2.63,0,0,1-.81-2.1,4.28,4.28,0,0,1,1.07-2.86,10.13,10.13,0,0,1,2.91-2.39,15.79,15.79,0,0,1,7.56-2,17.09,17.09,0,0,1,6.06.86,11.42,11.42,0,0,1,3.72,2.3c2.16,2.06,3.26,4.22,3.29,6.5a28.91,28.91,0,0,1-.77,6.92q-.81,3.51-1.92,6.88t-2.22,6.41a45.7,45.7,0,0,0-1.46,4.48,12.34,12.34,0,0,0-.51,3.76,7.26,7.26,0,0,0,2.48-3.5l3.33-6.32q11.12-20,21.71-26.49a14.37,14.37,0,0,1,7.39-1.8,8.8,8.8,0,0,1,7,3,10.56,10.56,0,0,1,2.78,6.7,22,22,0,0,1-.51,6.11,17.46,17.46,0,0,1-1.93,4.58q-2.82,4.78-6.83,4.78a3.17,3.17,0,0,1-2.05-.77l-1.88-1.62a8.42,8.42,0,0,0-5.43-2.48c-1.74,0-3.84,1.14-6.32,3.42a63.84,63.84,0,0,0-7.74,8.8,163.87,163.87,0,0,0-22,40l-3.76,9.91a27.64,27.64,0,0,1-2.56,5.26,3.77,3.77,0,0,1-3.29,1.58,12.4,12.4,0,0,1-4.36-.81A15.58,15.58,0,0,1,1069.85,206.79Z"/><path class="cls-5" d="M1164.29,178.94a55.17,55.17,0,0,1,2.48-14.23,68.47,68.47,0,0,1,5.72-13.16,77,77,0,0,1,8.42-12.05,66.2,66.2,0,0,1,10.47-9.95q12.21-9.15,24.69-9.15,14.61,0,19.48,12a24.28,24.28,0,0,1,1.63,9.7,26.83,26.83,0,0,1-2.14,10.34,30.11,30.11,0,0,1-5.68,8.63,41.74,41.74,0,0,1-8.63,7,60,60,0,0,1-10.9,5.22,80.54,80.54,0,0,1-26,4.44,15.56,15.56,0,0,0-.43,3.59,22.74,22.74,0,0,0,.51,5.34,15.52,15.52,0,0,0,2,5.25,9.78,9.78,0,0,0,8.89,5.13,36.32,36.32,0,0,0,19.31-5.81,27.2,27.2,0,0,0,5.43-4.06c1.39-1.39,2.6-2.09,3.63-2.09a3.25,3.25,0,0,1,2.69,1.83,7.65,7.65,0,0,1,1.15,4.15,12.5,12.5,0,0,1-2.56,7.86q-10.77,10.77-32,10.77-12.57,0-20.17-7.52Q1163.77,193.63,1164.29,178.94Zm49.9-47.17q-9,0-17.26,12.3a92.93,92.93,0,0,0-11.28,25.12,41.49,41.49,0,0,0,24.78-11.27q9.66-9.24,9.66-17.69T1214.19,131.77Z"/><path class="cls-5" d="M1334.52,186.11q0,7.86,5.55,7.86a14.84,14.84,0,0,0,6.37-1.19,10.42,10.42,0,0,1,3.37-1.2c1.2,0,1.8.63,1.8,1.88q0,7.35-7.69,12.65-8.13,5.55-16.58,2.73-5.55-2-8.2-8.46a17,17,0,0,1-1.29-6.06,55.3,55.3,0,0,1,.86-9.4q-7.95,16.23-19.74,22.38a21.69,21.69,0,0,1-10,2.4,18.5,18.5,0,0,1-9.18-2.18,20,20,0,0,1-6.62-6q-5.57-8-5.05-20.16a63.22,63.22,0,0,1,9-29.82,69.67,69.67,0,0,1,19.65-22.31q11.88-8.79,22.21-8.8t16.67,9.49q5.89-9.49,10.42-9.49,4.88,0,7.35,1.8,4.69,3.42,3.33,6-21.45,43.92-22,54.69A27.83,27.83,0,0,0,1334.52,186.11Zm-47.43.35q0,10.24,6.58,10.25,5,0,12.39-8.55,10.77-12.56,19.06-33.83a124.68,124.68,0,0,0,4.44-13.33,10,10,0,0,0-4.87-8.55,9,9,0,0,0-4.57-.94,15.26,15.26,0,0,0-7.09,2.22,34.2,34.2,0,0,0-7.86,6.07,52.57,52.57,0,0,0-7.1,9.1,72.49,72.49,0,0,0-5.76,11.41A70.5,70.5,0,0,0,1287.09,186.46Z"/><path class="cls-5" d="M1450.32,136.55q-5,0-18.12,14.36-9.83,11.19-14.27,16.83l-7.69,9.74q-5,9.41-7.77,15.64l-4.62,9.91a23.79,23.79,0,0,1-3.12,5.17,4.54,4.54,0,0,1-3.59,1.5,11.91,11.91,0,0,1-4.35-.81,13.06,13.06,0,0,1-3.64-2.1q-3.24-2.73-3.24-6c0-.85.62-2.53,1.88-5l3.24-6.92q1.54-3.07,3.59-7.86l4.79-11.71q10.08-25.2,10.08-32.56a6.73,6.73,0,0,0-2.56-5.81l-1.71-1.19a2.39,2.39,0,0,1-.86-2.1,4.4,4.4,0,0,1,1.16-2.86,10.46,10.46,0,0,1,3-2.39,16.84,16.84,0,0,1,7.73-2,17.48,17.48,0,0,1,6.11.86,12.51,12.51,0,0,1,3.85,2.3c2.16,2,3.25,4.08,3.25,6.24a25.89,25.89,0,0,1-.86,6.54,65.64,65.64,0,0,1-2.13,6.66c-.86,2.26-1.77,4.43-2.74,6.54q-3.42,7.35-4.23,9c-.54,1.11-.7,1.52-.47,1.23q15.64-20.25,18.8-23.92,6.59-7.6,10.25-10.43,6.75-5,12.78-5a12.69,12.69,0,0,1,9.61,3.76,13.77,13.77,0,0,1,3.59,9.91,36.81,36.81,0,0,1-2.73,12.65q-2.74,7.26-3.68,10.17l12.56-16.58,7-8.37q6.32-7.09,11.11-9.32a19.72,19.72,0,0,1,7.82-2.22,16.87,16.87,0,0,1,6,1.11,13.93,13.93,0,0,1,5,3.17q4.35,4.19,4.35,11.1a33.89,33.89,0,0,1-3.07,13.68q-3.07,7-5.39,11.49c-1.53,3-3,6-4.44,9q-6.24,13.59-6.24,20.17c0,3.08,1.26,4.61,3.76,4.61a14,14,0,0,0,6.54-1.53,11.84,11.84,0,0,1,3.8-1.54,1.59,1.59,0,0,1,1.8,1.79q0,7.6-7.78,12.73-5.21,3.51-9.53,3.51a19.47,19.47,0,0,1-7-1,13.12,13.12,0,0,1-4.79-3.25,17.11,17.11,0,0,1-4.78-12.39,47.35,47.35,0,0,1,1.88-13.67,106.84,106.84,0,0,1,4.44-12.09q2.57-5.85,5.17-10.77c1.74-3.27,3.06-5.88,4-7.81q2.73-6,2.73-8.8,0-3.34-3.5-3.34-4.62,0-16.58,15.3-9.06,11.88-12.56,17.09l-5.9,8.54q-5,9.41-7.6,15.64l-4.36,9.91a24.76,24.76,0,0,1-2.82,5.17,4,4,0,0,1-3.33,1.5,12.68,12.68,0,0,1-4.15-.69,11.89,11.89,0,0,1-3.46-1.79Q1429,204.75,1429,202a23,23,0,0,1,1.84-7.6q1.83-4.83,4.57-10.81l12-25.29q6.4-14.1,6.41-17.9T1450.32,136.55Zm8.46,24.1s.08,0,.08-.09l.09-.17C1458.83,160.51,1458.78,160.59,1458.78,160.65Z"/><path class="cls-5" d="M1547,193.8a10.67,10.67,0,0,1,1.16-4.91,12.88,12.88,0,0,1,2.86-3.8,11,11,0,0,1,7.52-3.33c2.28,0,3.42,1.16,3.42,3.5q0,8.88,5.89,12.39a8.59,8.59,0,0,0,4.45,1.28,13.2,13.2,0,0,0,3.93-.51,8.84,8.84,0,0,0,3-1.63,7.36,7.36,0,0,0,3.07-5.89,13.11,13.11,0,0,0-1.53-6.28,52.89,52.89,0,0,0-3.85-6l-4.87-6.83q-10.26-13.68-10.25-25.21,0-9.57,8.12-17.35,9.22-8.79,23.66-8.8,12.64,0,19.74,6.24,5.82,5,5.81,11.54a13,13,0,0,1-5.12,10.76q-4.62,3.6-9.23,2.65a4.8,4.8,0,0,1-3.16-2.09,4.17,4.17,0,0,1-.43-3.8,14.72,14.72,0,0,0,.68-4.45A10.57,10.57,0,0,0,1601,137a9.94,9.94,0,0,0-2.31-3.33,9.09,9.09,0,0,0-6.28-2.82,17.33,17.33,0,0,0-5.43.72,11.66,11.66,0,0,0-3.75,2.1,9.86,9.86,0,0,0-3.34,7.56,17.83,17.83,0,0,0,1.54,7.73,45.65,45.65,0,0,0,3.8,6.5q2.26,3.24,4.92,6.58a68.73,68.73,0,0,1,4.87,7q5.37,8.64,5.38,15.17a20.41,20.41,0,0,1-2.73,10.94,26.84,26.84,0,0,1-7.1,7.56,34.13,34.13,0,0,1-20.85,6.92q-11,0-17.43-5.3Q1547,199.87,1547,193.8Z"/><path class="cls-6" d="M323.53,169.83l-.77,6.58q0,10.34,6.92,14.1a12,12,0,0,0,5.72,1.28,14.8,14.8,0,0,0,6-1.16,12.46,12.46,0,0,0,4.36-3,12.63,12.63,0,0,0,3.59-8.89,20.13,20.13,0,0,0-2.05-9.14,54.16,54.16,0,0,0-5.13-8.2L335.32,153q-8.29-9.9-11.11-18.07a46.23,46.23,0,0,1-2.82-15,48.63,48.63,0,0,1,1.67-13,54.26,54.26,0,0,1,4.65-11.62,52,52,0,0,1,7.18-10.13,47.77,47.77,0,0,1,9.31-7.94q10.68-7.19,21.2-7.18T381.8,73a27.84,27.84,0,0,1,9.49,7.35Q398,88.75,398,100.61a37.86,37.86,0,0,1-6.24,20.77q-5.71,8.88-12.81,11.28a9.66,9.66,0,0,1-4.23.77,11,11,0,0,1-4.53-.82,10.39,10.39,0,0,1-3.21-2.17,9.09,9.09,0,0,1-3-6.5c0-1.59.49-2.65,1.46-3.16a33.57,33.57,0,0,0,11.27-10.17q5.22-7.26,5.47-14.48t-3.46-10.68Q375,82,368.81,82a22.37,22.37,0,0,0-11.11,2.77,27.79,27.79,0,0,0-8.54,7.48q-7.7,10.08-7.69,23.84,0,9.15,6.32,19.31,2.65,4.37,5.77,8.59t5.85,8.67q6.24,10.35,6.24,18.54A29.58,29.58,0,0,1,362.7,185a32.86,32.86,0,0,1-7.82,9.82A35.61,35.61,0,0,1,331,203.92q-12.65,0-19.48-7.52Q306,190.34,306,183.24a19.78,19.78,0,0,1,4.36-13c2.22-2.67,4.35-4.27,6.4-4.78Q323.52,163.67,323.53,169.83Z"/><path class="cls-6" d="M442,193.28q-11.67,10.31-18.29,10.3t-9.19-6.84a12.31,12.31,0,0,1-.94-4.44,33.58,33.58,0,0,1,1.76-10.77q1.74-5.21,3.46-9.74l7.52-19.39q4.35-11.88,5.29-16.58c.63-3.13.54-5.26-.25-6.37a14.18,14.18,0,0,0-2.78-2.9c-1.05-.83-2.05-1.57-3-2.22a2.93,2.93,0,0,1-1.41-2.48,4.2,4.2,0,0,1,1.24-2.86,10.9,10.9,0,0,1,3.29-2.4,19.44,19.44,0,0,1,8.5-2,21.59,21.59,0,0,1,6.92.89,13.49,13.49,0,0,1,4.15,2.27,8.8,8.8,0,0,1,3.16,6.79,34.64,34.64,0,0,1-1.33,8.93q-1.32,5-3.33,10.51t-4.49,11.54l-4.7,11.79q-5.55,14.27-6.75,21.36,8-2.73,21.28-19.65a220.56,220.56,0,0,0,25.55-42.3,6.93,6.93,0,0,1,3.16-3.84,16.78,16.78,0,0,1,7.78-1.29c4.95.18,7.52,1.71,7.69,4.62a11.7,11.7,0,0,1-1.41,5.85c-1.06,2.14-1.92,3.92-2.61,5.34L489,144.28q-10,20.25-10,32.9,0,8.79,4.79,12a6.9,6.9,0,0,0,4.18,1,14.91,14.91,0,0,0,6.67-2,30.32,30.32,0,0,0,7.35-5.51,50,50,0,0,0,6.53-8.16,61.57,61.57,0,0,0,5.26-9.95q4.69-11.2,4.7-19.83,0-14.78-5.55-21.79-1.89-2.22,1.11-5.21,3.15-3.17,9.91-3.16,8.28,0,11.28,9.31,1.18,3.51,1.19,10.51a56.86,56.86,0,0,1-2.47,15.6,85.16,85.16,0,0,1-6.71,16.49,94.74,94.74,0,0,1-9.74,14.74,84.43,84.43,0,0,1-11.58,11.88q-13,10.76-24.1,10.76-19.05,0-19.05-24.61a59.06,59.06,0,0,1,1-11A134.71,134.71,0,0,1,442,193.28Z"/><path class="cls-6" d="M568.54,173.16A55.6,55.6,0,0,1,571,158.93a68.74,68.74,0,0,1,5.72-13.16,76.41,76.41,0,0,1,8.42-12,66.27,66.27,0,0,1,10.47-10q12.21-9.13,24.69-9.14,14.61,0,19.48,12.05a24.19,24.19,0,0,1,1.63,9.69,26.79,26.79,0,0,1-2.14,10.34,30,30,0,0,1-5.68,8.63,41.2,41.2,0,0,1-8.63,7,59.26,59.26,0,0,1-10.9,5.21,80.54,80.54,0,0,1-26,4.44,15.63,15.63,0,0,0-.43,3.59,22.65,22.65,0,0,0,.51,5.34,15.58,15.58,0,0,0,2,5.26,9.78,9.78,0,0,0,8.89,5.13,36.24,36.24,0,0,0,19.31-5.82,27.18,27.18,0,0,0,5.43-4.05q2.08-2.1,3.63-2.1a3.27,3.27,0,0,1,2.69,1.84,7.64,7.64,0,0,1,1.15,4.14,12.55,12.55,0,0,1-2.56,7.87q-10.77,10.76-32,10.76-12.57,0-20.17-7.52Q568,187.87,568.54,173.16ZM618.44,126q-9,0-17.26,12.31a92.79,92.79,0,0,0-11.28,25.12,41.56,41.56,0,0,0,24.78-11.28q9.66-9.22,9.66-17.69T618.44,126Z"/><path class="cls-6" d="M673.66,173.16a55.59,55.59,0,0,1,2.47-14.23,69.41,69.41,0,0,1,5.73-13.16,76.41,76.41,0,0,1,8.42-12,65.79,65.79,0,0,1,10.46-10q12.22-9.13,24.7-9.14,14.61,0,19.48,12.05a24,24,0,0,1,1.62,9.69,26.79,26.79,0,0,1-2.13,10.34,29.8,29.8,0,0,1-5.69,8.63,40.94,40.94,0,0,1-8.63,7,58.86,58.86,0,0,1-10.89,5.21,80.56,80.56,0,0,1-26,4.44,16.34,16.34,0,0,0-.42,3.59,22.65,22.65,0,0,0,.51,5.34,15.58,15.58,0,0,0,2.05,5.26,9.78,9.78,0,0,0,8.89,5.13,36.27,36.27,0,0,0,19.31-5.82,26.81,26.81,0,0,0,5.42-4.05c1.4-1.4,2.61-2.1,3.64-2.1a3.27,3.27,0,0,1,2.69,1.84,7.64,7.64,0,0,1,1.15,4.14,12.55,12.55,0,0,1-2.56,7.87q-10.77,10.76-32,10.76-12.55,0-20.16-7.52Q673.14,187.87,673.66,173.16ZM723.56,126q-9,0-17.26,12.31A92.79,92.79,0,0,0,695,163.42a41.56,41.56,0,0,0,24.78-11.28q9.65-9.22,9.65-17.69T723.56,126Z"/><path class="cls-6" d="M827.65,180.68c1.65,0,2.48,1.11,2.48,3.33a9.94,9.94,0,0,1-1.71,5.47q-2.31,5-9.23,9.4a29.06,29.06,0,0,1-15.81,5q-13.75,0-17.43-12.3Q781.6,177,799,129.67q-9.82-.85-10.68-3.42a5.27,5.27,0,0,1-.25-1.67,3.9,3.9,0,0,1,.81-2.09,12,12,0,0,1,2.09-2.31,9.52,9.52,0,0,1,6.07-2.48h6.75Q813,96.09,817,93.09a7,7,0,0,1,4.19-1.36,10.64,10.64,0,0,1,3.84.6,8.36,8.36,0,0,1,2.74,1.7,7.72,7.72,0,0,1,2.73,5.73,9.49,9.49,0,0,1-1,3.93l-6.32,13.76h2q5.3,0,8.55-.09l4.87-.08c1.08-.06,2.43-.09,4.06-.09s2.43.6,2.43,1.8q0,11.27-26.66,11.27h-.68l-5.81,15q-9.82,26.67-9.83,37.35a7.14,7.14,0,0,0,1.37,4.65q1.37,1.66,5.13,1.67a17.68,17.68,0,0,0,6.83-1.28,29.44,29.44,0,0,0,5.38-2.87q2.31-1.57,4-2.86A5.05,5.05,0,0,1,827.65,180.68Z"/><path class="cls-6" d="M941.84,182.9a146.05,146.05,0,0,1,3.29-15.34q2.52-9.78,6.45-20.89a234.12,234.12,0,0,1,21.28-45.37,6.27,6.27,0,0,1,4.36-3.16,48.38,48.38,0,0,1,6.62-.52,19.15,19.15,0,0,1,5.13.64,10.07,10.07,0,0,1,3.54,1.67q2.57,2.13.86,4.53-15.47,23.33-27,56.91-4.36,12.81-5.22,17.81T959.91,186a16.37,16.37,0,0,0-.38,3.2q0,2.82,3.59,2.82a23.13,23.13,0,0,0,8-1.66,61.62,61.62,0,0,0,9.57-4.7,96.37,96.37,0,0,0,10.64-7.39,115.73,115.73,0,0,0,20.81-21.54,89,89,0,0,0,8.2-13.33q7.77-15.37,7.77-30.33,0-20.5-16.66-27.26a32.41,32.41,0,0,0-12.09-2.31,58.45,58.45,0,0,0-10.64.82,53.11,53.11,0,0,0-8.37,2.26,41.87,41.87,0,0,0-13.67,7.78,6.81,6.81,0,0,1-3.51.85,9.77,9.77,0,0,1-4.4-1.2,17.7,17.7,0,0,1-4.23-3q-4.27-4.19-3.41-8,.93-5.46,16.4-9.48a104.49,104.49,0,0,1,26.15-3.34,73.47,73.47,0,0,1,23.71,3.59,47.35,47.35,0,0,1,17.13,9.66q12.32,11.44,12.31,30.67,0,25.47-17.6,49.14-16.15,22-38.46,33.32-14.43,7.35-26.57,7.35a25.09,25.09,0,0,1-16.32-5.55Q940.56,192.48,941.84,182.9Z"/><path class="cls-6" d="M1072.85,201a11.18,11.18,0,0,1-2.73-2.87,6.08,6.08,0,0,1-1.12-2.73,7.42,7.42,0,0,1,.48-2.82c.36-1.11.86-2.46,1.49-4.06q17.43-42.9,17.43-57.59c-.17-2.74-1.11-4.67-2.82-5.81l-1.71-1.2a2.61,2.61,0,0,1-.81-2.09,4.26,4.26,0,0,1,1.07-2.86,10.16,10.16,0,0,1,2.91-2.4,15.78,15.78,0,0,1,7.56-2,17.12,17.12,0,0,1,6.06.85,11.27,11.27,0,0,1,3.72,2.31c2.16,2,3.26,4.22,3.29,6.49a28.91,28.91,0,0,1-.77,6.92q-.81,3.51-1.92,6.88t-2.22,6.41a44.82,44.82,0,0,0-1.46,4.49,12.31,12.31,0,0,0-.51,3.76,7.33,7.33,0,0,0,2.48-3.51l3.33-6.32q11.12-20,21.71-26.49a14.47,14.47,0,0,1,7.39-1.79,8.8,8.8,0,0,1,7,3,10.56,10.56,0,0,1,2.78,6.71,22,22,0,0,1-.51,6.11,17.4,17.4,0,0,1-1.93,4.57q-2.82,4.78-6.83,4.78a3.16,3.16,0,0,1-2.05-.76l-1.88-1.63a8.42,8.42,0,0,0-5.43-2.48c-1.74,0-3.84,1.14-6.32,3.42a63.84,63.84,0,0,0-7.74,8.8,163.87,163.87,0,0,0-22,40l-3.76,9.92a27.18,27.18,0,0,1-2.56,5.25,3.77,3.77,0,0,1-3.29,1.58,12.4,12.4,0,0,1-4.36-.81A15.56,15.56,0,0,1,1072.85,201Z"/><path class="cls-6" d="M1167.29,173.16a55.17,55.17,0,0,1,2.48-14.23,68.74,68.74,0,0,1,5.72-13.16,76.41,76.41,0,0,1,8.42-12,66.27,66.27,0,0,1,10.47-10q12.21-9.13,24.69-9.14,14.61,0,19.48,12.05a24.19,24.19,0,0,1,1.63,9.69,26.79,26.79,0,0,1-2.14,10.34,30,30,0,0,1-5.68,8.63,41.46,41.46,0,0,1-8.63,7,59.26,59.26,0,0,1-10.9,5.21,80.54,80.54,0,0,1-26,4.44,15.63,15.63,0,0,0-.43,3.59,22.65,22.65,0,0,0,.51,5.34,15.58,15.58,0,0,0,2,5.26,9.78,9.78,0,0,0,8.89,5.13,36.24,36.24,0,0,0,19.31-5.82,27.18,27.18,0,0,0,5.43-4.05q2.09-2.1,3.63-2.1a3.27,3.27,0,0,1,2.69,1.84,7.64,7.64,0,0,1,1.15,4.14,12.55,12.55,0,0,1-2.56,7.87q-10.77,10.76-32,10.76-12.57,0-20.17-7.52Q1166.77,187.87,1167.29,173.16Zm49.9-47.17q-9,0-17.26,12.31a92.79,92.79,0,0,0-11.28,25.12,41.56,41.56,0,0,0,24.78-11.28q9.66-9.22,9.66-17.69T1217.19,126Z"/><path class="cls-6" d="M1337.52,180.34q0,7.86,5.55,7.86a14.84,14.84,0,0,0,6.37-1.2,10.57,10.57,0,0,1,3.37-1.19c1.2,0,1.8.62,1.8,1.88q0,7.35-7.69,12.64-8.13,5.56-16.58,2.74-5.55-2-8.2-8.46a17,17,0,0,1-1.29-6.07,55.48,55.48,0,0,1,.86-9.4q-7.95,16.25-19.74,22.39a21.8,21.8,0,0,1-10,2.39,18.39,18.39,0,0,1-9.18-2.18,20.08,20.08,0,0,1-6.62-6q-5.57-8-5.05-20.17a63.22,63.22,0,0,1,9-29.82,69.63,69.63,0,0,1,19.65-22.3q11.88-8.81,22.21-8.8t16.67,9.48q5.89-9.48,10.42-9.48,4.88,0,7.35,1.79,4.69,3.42,3.33,6-21.45,43.92-22,54.69A28.12,28.12,0,0,0,1337.52,180.34Zm-47.43.34q0,10.26,6.58,10.25,5,0,12.39-8.54,10.77-12.57,19.06-33.84a123.94,123.94,0,0,0,4.44-13.33,10,10,0,0,0-4.87-8.54,8.86,8.86,0,0,0-4.57-.94A15.26,15.26,0,0,0,1316,128a34.15,34.15,0,0,0-7.86,6.06,52.66,52.66,0,0,0-7.1,9.11,72.38,72.38,0,0,0-5.76,11.4A70.54,70.54,0,0,0,1290.09,180.68Z"/><path class="cls-6" d="M1453.32,130.78q-5,0-18.12,14.35-9.83,11.2-14.27,16.84l-7.69,9.74q-5,9.39-7.77,15.63l-4.62,9.92a24,24,0,0,1-3.12,5.17,4.57,4.57,0,0,1-3.59,1.49,11.91,11.91,0,0,1-4.35-.81,13,13,0,0,1-3.64-2.09q-3.24-2.75-3.24-6c0-.86.62-2.54,1.88-5l3.24-6.92q1.54-3.07,3.59-7.86l4.79-11.71q10.08-25.2,10.08-32.55,0-3.93-2.56-5.81l-1.71-1.2a2.37,2.37,0,0,1-.86-2.09,4.38,4.38,0,0,1,1.16-2.86,10.48,10.48,0,0,1,3-2.4,16.82,16.82,0,0,1,7.73-2,17.51,17.51,0,0,1,6.11.85,12.34,12.34,0,0,1,3.85,2.31c2.16,2,3.25,4.07,3.25,6.24a25.87,25.87,0,0,1-.86,6.53,65,65,0,0,1-2.13,6.67q-1.29,3.38-2.74,6.54-3.42,7.35-4.23,9c-.54,1.11-.7,1.53-.47,1.24q15.64-20.25,18.8-23.93,6.59-7.61,10.25-10.42,6.75-5,12.78-5a12.65,12.65,0,0,1,9.61,3.76,13.76,13.76,0,0,1,3.59,9.91,36.86,36.86,0,0,1-2.73,12.65q-2.74,7.26-3.68,10.16l12.56-16.57,7-8.38q6.32-7.08,11.11-9.31a19.72,19.72,0,0,1,7.82-2.22,16.87,16.87,0,0,1,6,1.11,13.91,13.91,0,0,1,5,3.16q4.35,4.18,4.35,11.11a33.88,33.88,0,0,1-3.07,13.67q-3.07,7-5.39,11.49c-1.53,3-3,6-4.44,9q-6.24,13.59-6.24,20.16c0,3.08,1.26,4.62,3.76,4.62a13.87,13.87,0,0,0,6.54-1.54,11.84,11.84,0,0,1,3.8-1.54,1.59,1.59,0,0,1,1.8,1.8q0,7.6-7.78,12.73-5.21,3.5-9.53,3.5a19.72,19.72,0,0,1-7-1,13.38,13.38,0,0,1-4.79-3.25,17.11,17.11,0,0,1-4.78-12.39,47.31,47.31,0,0,1,1.88-13.67,106.14,106.14,0,0,1,4.44-12.09q2.57-5.85,5.17-10.77c1.74-3.28,3.06-5.88,4-7.82q2.73-6,2.73-8.8,0-3.33-3.5-3.33-4.62,0-16.58,15.29Q1470.49,158,1467,163.16l-5.9,8.55q-5,9.39-7.6,15.63l-4.36,9.92a25,25,0,0,1-2.82,5.17,4,4,0,0,1-3.33,1.49,12.94,12.94,0,0,1-4.15-.68,11.91,11.91,0,0,1-3.46-1.8Q1432,199,1432,196.19a23,23,0,0,1,1.84-7.61q1.83-4.82,4.57-10.81l12-25.29q6.4-14.1,6.41-17.9T1453.32,130.78Zm8.46,24.09s.08,0,.08-.08l.09-.17C1461.83,154.73,1461.78,154.82,1461.78,154.87Z"/><path class="cls-6" d="M1550,188a10.64,10.64,0,0,1,1.16-4.91,13.05,13.05,0,0,1,2.86-3.81,11,11,0,0,1,7.52-3.33q3.42,0,3.42,3.5,0,8.9,5.89,12.39a8.51,8.51,0,0,0,4.45,1.29,13.18,13.18,0,0,0,3.93-.52,9,9,0,0,0,3-1.62,7.37,7.37,0,0,0,3.07-5.9,13.14,13.14,0,0,0-1.53-6.28,52.82,52.82,0,0,0-3.85-6L1575,166q-10.26-13.66-10.25-25.21,0-9.56,8.12-17.34,9.22-8.81,23.66-8.8,12.64,0,19.74,6.24,5.82,5,5.81,11.53a13,13,0,0,1-5.12,10.77q-4.62,3.59-9.23,2.65a4.84,4.84,0,0,1-3.16-2.1,4.16,4.16,0,0,1-.43-3.8,14.61,14.61,0,0,0,.68-4.44,10.65,10.65,0,0,0-.85-4.28,10,10,0,0,0-2.31-3.33,9.09,9.09,0,0,0-6.28-2.82,17.3,17.3,0,0,0-5.43.73,11.45,11.45,0,0,0-3.75,2.09,9.86,9.86,0,0,0-3.34,7.56,17.9,17.9,0,0,0,1.54,7.74,45.57,45.57,0,0,0,3.8,6.49q2.26,3.26,4.92,6.58a68.87,68.87,0,0,1,4.87,7q5.37,8.63,5.38,15.17a20.37,20.37,0,0,1-2.73,10.93,26.74,26.74,0,0,1-7.1,7.57,34.13,34.13,0,0,1-20.85,6.92q-11,0-17.43-5.3Q1550,194.1,1550,188Z"/></g><g id="Elephant"><g id="Ears"><path class="cls-7" d="M530,334.25c-66.14,9.71-116,87-111.42,172.69a192.48,192.48,0,0,0,6.17,39.43,76.55,76.55,0,0,1-1.88,46.3c-13.66,37.56,1.25,83.61,42,116.27,54.1,43.4,133.26,46.71,176.8,7.38,32.22-29.1,35.91-73.38,13.73-112a74.69,74.69,0,0,1-6.36-60.67,201.55,201.55,0,0,0,9.09-71.85C653.54,386.11,596.19,324.54,530,334.25Z"/><path class="cls-7" d="M377,598a49.68,49.68,0,0,1-15.78-31.19,190.74,190.74,0,0,0-11.13-45.45c-30.25-80.27-107-131-171.49-113.26s-92.19,97.16-61.94,177.44a200.55,200.55,0,0,0,43.32,68.7c11.45,11.82,16.47,27.49,13.67,43.33-8.44,47.62,12.75,90.72,56.48,105.23,55.68,18.48,126.82-16.39,158.89-77.89C414.14,676.64,407.77,626.34,377,598Z"/></g><g id="Trunk"><path class="cls-7" d="M189.83,884.29l-10.55-69.18a6,6,0,0,1,7.61-6.59c20.4,6.26,124.7,15.69,170.17-25.3,40.65-36.65,10.89-146.37,14.08-147l89.93-19.4.13.6c13.06,62.21,39.76,138.71-28.35,215.31-46.18,51.94-172.48,77.84-243.54,51.83"/></g><g id="Head"><circle class="cls-7" cx="391.57" cy="548.61" r="181.5"/></g><path class="cls-8" d="M372.61,533.43l-3.21-2.94c-14.34-13.15-30.58-18.42-45.63-14.85-15.54,3.68-28.11,16.24-35.38,35.35l-5.61-2.13c8-21,22.07-34.91,39.61-39.06,17.06-4,35.21,1.73,51.06,16.26l3.21,3Z"/><path class="cls-8" d="M496.9,507.32l-3.21-2.94c-14.35-13.15-30.58-18.42-45.63-14.85-15.55,3.68-28.11,16.24-35.39,35.36l-5.61-2.14c8-21,22.08-34.91,39.61-39.06,17.09-4,35.22,1.73,51.07,16.27L501,502.9Z"/><path class="cls-8" d="M459.71,694c-.2,0-20.56-4.11-42.07.41-29.39,6.17-46.43,18.1-46.6,18.22l-3.47-4.9c.73-.52,18.24-12.77,48.83-19.2a121,121,0,0,1,44.52-.41Z"/><path class="cls-8" d="M459.44,722.56c-.17,0-18-4.58-36.56-.68-25.43,5.34-39.94,16.67-40.09,16.78l-3.72-4.7c.63-.5,15.77-12.33,42.58-18,20-4.2,38.53.55,39.31.75Z"/><path class="cls-8" d="M394.57,764.7l-4-4.44c.54-.49,13.31-11.91,36.35-16.75,17.24-3.62,33.47,1.71,34.15,1.94l-1.91,5.69c-.15,0-15.4-5-31-1.76C406.78,753.87,394.69,764.59,394.57,764.7Z"/></g><g id="House"><path class="cls-9" d="M1810.37,701.87l-150.46,81.58V449L1819,392V687.38A16.47,16.47,0,0,1,1810.37,701.87Z"/><path class="cls-10" d="M1659.89,449,1476.45,307,1299.54,443.94a16.83,16.83,0,0,0-6.54,13.33V767.5a16.5,16.5,0,0,0,16.5,16.5h350.41V449Z"/><path class="cls-8" d="M1819,392l-159.09,57L1476,307l195.84-16.48a16.69,16.69,0,0,1,11.17,3.1Z"/></g><g id="Details"><path class="cls-11" d="M1338.67,576h77.83a16.5,16.5,0,0,1,16.5,16.5V784a0,0,0,0,1,0,0H1322a0,0,0,0,1,0,0V592.67A16.67,16.67,0,0,1,1338.67,576Z"/><rect class="cls-12" x="1476" y="476" width="150" height="193" rx="16.5"/><path class="cls-13" d="M1502.12,488H1545a0,0,0,0,1,0,0v80a0,0,0,0,1,0,0h-59a0,0,0,0,1,0,0V504.13A16.12,16.12,0,0,1,1502.12,488Z"/><path class="cls-13" d="M1553,488h42.38A16.63,16.63,0,0,1,1612,504.63V568a0,0,0,0,1,0,0h-59a0,0,0,0,1,0,0V488A0,0,0,0,1,1553,488Z"/><path class="cls-13" d="M1486,578h59a0,0,0,0,1,0,0v81.91a0,0,0,0,1,0,0h-42.79A16.21,16.21,0,0,1,1486,643.71V578A0,0,0,0,1,1486,578Z"/><path class="cls-13" d="M1553,578h59a0,0,0,0,1,0,0v65.58a16.33,16.33,0,0,1-16.33,16.33H1553a0,0,0,0,1,0,0V578A0,0,0,0,1,1553,578Z"/></g><g id="zzzzz"><g class="cls-14"><path class="cls-15" d="M1658.21,456.65c0,1.15-.49,1.72-1.45,1.72a3.8,3.8,0,0,1-1.83-.54q-3-2.74-9.81-2.74a48,48,0,0,0-12.73,1.64l-3,.78a21.2,21.2,0,0,1-4.94.86,3.8,3.8,0,0,1-2.35-.56,5.63,5.63,0,0,1-1.19-1.43,6.78,6.78,0,0,1-1.13-3.28,7.22,7.22,0,0,1,.45-2.56,24.3,24.3,0,0,1,2.21-3.9c1.17-1.81,2.58-3.81,4.23-6s3.5-4.47,5.53-6.9l6.29-7.3,12.66-14,9.29-10-5.23,2q-10.15,3.87-14,3.87a18.33,18.33,0,0,1-5.94-.75,6.18,6.18,0,0,1-3.26-2.57q-1.1-1.45-1.1-5.82,0-1.8,1-1.86a3.58,3.58,0,0,1,1.83.35c.55.28,1.2.58,2,.92a16.77,16.77,0,0,0,6.93,1.37,50.88,50.88,0,0,0,6.84-.41c2-.28,3.74-.58,5.33-.92l4.14-.9a13.11,13.11,0,0,1,3-.43,4.24,4.24,0,0,1,2.34.76,10.94,10.94,0,0,1,2.11,1.78c1.49,1.62,2.23,2.89,2.23,3.83a7.21,7.21,0,0,1-1.45,3.63,46.89,46.89,0,0,1-3.9,5.08q-2.46,2.85-5.67,6.17-17.38,17.77-20.54,21.29-7.15,7.89-9.77,12.62a64.11,64.11,0,0,1,17.46-4.65,35.57,35.57,0,0,1,4.36-.35,17.74,17.74,0,0,1,2.65.17,6.3,6.3,0,0,1,2,.69,9.27,9.27,0,0,1,3.44,3.75A9.62,9.62,0,0,1,1658.21,456.65Z"/></g><g class="cls-14"><path class="cls-15" d="M1706.86,412.52c0,.86-.37,1.29-1.09,1.29a2.89,2.89,0,0,1-1.38-.41q-2.25-2.06-7.35-2a36,36,0,0,0-9.55,1.23l-2.26.59a16,16,0,0,1-3.7.64,2.82,2.82,0,0,1-1.76-.42,4.09,4.09,0,0,1-.89-1.07,5,5,0,0,1-.85-2.46,5.24,5.24,0,0,1,.34-1.92A17.78,17.78,0,0,1,1680,405c.88-1.36,1.94-2.85,3.18-4.49s2.62-3.35,4.14-5.17l4.72-5.47,9.49-10.52,7-7.53-3.93,1.49q-7.62,2.91-10.5,2.9a14,14,0,0,1-4.46-.55,4.65,4.65,0,0,1-2.44-1.94c-.55-.72-.82-2.17-.82-4.36,0-.9.25-1.36.76-1.39a2.63,2.63,0,0,1,1.38.26l1.46.69a12.63,12.63,0,0,0,5.2,1,38.63,38.63,0,0,0,5.13-.3c1.47-.21,2.81-.44,4-.69l3.1-.68a10.23,10.23,0,0,1,2.23-.32,3.24,3.24,0,0,1,1.76.57,8.43,8.43,0,0,1,1.58,1.34c1.11,1.21,1.67,2.16,1.67,2.87a5.4,5.4,0,0,1-1.09,2.72,35.22,35.22,0,0,1-2.93,3.81q-1.85,2.14-4.24,4.63-13,13.34-15.41,16a56.34,56.34,0,0,0-7.33,9.46,48.48,48.48,0,0,1,13.1-3.49,28.54,28.54,0,0,1,3.27-.26,12.41,12.41,0,0,1,2,.13,5,5,0,0,1,1.51.51,7.09,7.09,0,0,1,2.57,2.82A7.19,7.19,0,0,1,1706.86,412.52Z"/></g><g class="cls-14"><path class="cls-15" d="M1750.25,375.84c0,.69-.29,1-.87,1a2.36,2.36,0,0,1-1.1-.32q-1.82-1.65-5.89-1.65a28.61,28.61,0,0,0-7.64,1l-1.8.47a13,13,0,0,1-3,.51,2.19,2.19,0,0,1-1.4-.34,3.18,3.18,0,0,1-.72-.85,4.1,4.1,0,0,1-.68-2,4.34,4.34,0,0,1,.27-1.54,14.89,14.89,0,0,1,1.33-2.34c.7-1.09,1.55-2.28,2.54-3.59s2.1-2.68,3.32-4.13l3.77-4.38,7.59-8.42,5.58-6-3.14,1.19q-6.09,2.32-8.4,2.32a11.29,11.29,0,0,1-3.56-.44,3.73,3.73,0,0,1-2-1.55,6.28,6.28,0,0,1-.66-3.49c0-.72.21-1.09.61-1.11a2,2,0,0,1,1.1.21l1.18.55a10.12,10.12,0,0,0,4.16.82,29.17,29.17,0,0,0,4.1-.25c1.18-.16,2.24-.35,3.2-.55l2.48-.54a8.09,8.09,0,0,1,1.78-.26,2.62,2.62,0,0,1,1.41.46,6.49,6.49,0,0,1,1.26,1.07,4,4,0,0,1,1.34,2.29,4.34,4.34,0,0,1-.87,2.18,28.27,28.27,0,0,1-2.34,3.05c-1,1.14-2.12,2.38-3.4,3.7q-10.42,10.67-12.33,12.78a45.16,45.16,0,0,0-5.86,7.57,38.89,38.89,0,0,1,10.48-2.79,22.19,22.19,0,0,1,2.61-.21,10.25,10.25,0,0,1,1.6.1,3.79,3.79,0,0,1,1.2.41,5.72,5.72,0,0,1,2.07,2.25A5.87,5.87,0,0,1,1750.25,375.84Z"/></g><g class="cls-14"><path class="cls-15" d="M1784.63,353.16c0,.52-.21.78-.65.78a1.75,1.75,0,0,1-.82-.25,6.46,6.46,0,0,0-4.41-1.23,21.62,21.62,0,0,0-5.73.74l-1.36.35a9.53,9.53,0,0,1-2.22.39,1.7,1.7,0,0,1-1.06-.26,2.42,2.42,0,0,1-.53-.64,3,3,0,0,1-.51-1.48,3.35,3.35,0,0,1,.2-1.15,12.27,12.27,0,0,1,1-1.76c.53-.81,1.17-1.71,1.91-2.69s1.57-2,2.49-3.1l2.83-3.29,5.69-6.31,4.19-4.51-2.36.89a22,22,0,0,1-6.3,1.74,8.45,8.45,0,0,1-2.67-.33,2.78,2.78,0,0,1-1.47-1.16,4.72,4.72,0,0,1-.49-2.62c0-.54.15-.82.45-.83a1.62,1.62,0,0,1,.83.15c.25.13.54.26.88.42a7.52,7.52,0,0,0,3.12.61,23.23,23.23,0,0,0,3.08-.18c.88-.13,1.68-.26,2.4-.42l1.86-.4a5.85,5.85,0,0,1,1.33-.19,1.9,1.9,0,0,1,1.06.34,4.86,4.86,0,0,1,1,.8,3,3,0,0,1,1,1.72,3.34,3.34,0,0,1-.65,1.64,21.25,21.25,0,0,1-1.76,2.28c-.74.86-1.59,1.78-2.55,2.78q-7.81,8-9.24,9.58a34,34,0,0,0-4.4,5.68,28.82,28.82,0,0,1,7.86-2.1,17.5,17.5,0,0,1,2-.15,6.86,6.86,0,0,1,1.2.08,2.81,2.81,0,0,1,.9.3,4.3,4.3,0,0,1,1.55,1.69A4.4,4.4,0,0,1,1784.63,353.16Z"/></g><g class="cls-14"><path class="cls-15" d="M1805.53,324.48c0,.35-.15.52-.44.52a1.16,1.16,0,0,1-.55-.17,4.34,4.34,0,0,0-2.94-.82,14.28,14.28,0,0,0-3.82.5l-.9.23a6.61,6.61,0,0,1-1.49.26,1.14,1.14,0,0,1-.7-.17,1.71,1.71,0,0,1-.36-.43,2.09,2.09,0,0,1-.34-1,2.15,2.15,0,0,1,.14-.77,7.27,7.27,0,0,1,.66-1.17c.35-.55.78-1.14,1.27-1.8s1-1.34,1.66-2.06l1.89-2.2,3.79-4.2,2.79-3-1.57.59a14.38,14.38,0,0,1-4.2,1.16,5.52,5.52,0,0,1-1.78-.22,1.93,1.93,0,0,1-1-.77,3.15,3.15,0,0,1-.33-1.75c0-.36.11-.54.31-.56a1.11,1.11,0,0,1,.55.11l.59.28a5,5,0,0,0,2.08.41,15.37,15.37,0,0,0,2.05-.13c.59-.08,1.12-.17,1.6-.27l1.24-.27a3.73,3.73,0,0,1,.89-.13,1.22,1.22,0,0,1,.7.23,3,3,0,0,1,.63.53,2,2,0,0,1,.67,1.15,2.18,2.18,0,0,1-.43,1.09,15.38,15.38,0,0,1-1.17,1.52c-.5.57-1.06,1.19-1.7,1.85q-5.22,5.34-6.17,6.39a22.85,22.85,0,0,0-2.93,3.79,19.13,19.13,0,0,1,5.24-1.4,11,11,0,0,1,1.31-.1,4.61,4.61,0,0,1,.8.05,1.85,1.85,0,0,1,.6.2,2.87,2.87,0,0,1,1,1.13A2.91,2.91,0,0,1,1805.53,324.48Z"/></g><g class="cls-14"><path class="cls-15" d="M1824.53,329.48c0,.35-.15.52-.44.52a1.16,1.16,0,0,1-.55-.17,4.34,4.34,0,0,0-2.94-.82,14.28,14.28,0,0,0-3.82.5l-.9.23a6.61,6.61,0,0,1-1.49.26,1.14,1.14,0,0,1-.7-.17,1.71,1.71,0,0,1-.36-.43,2.09,2.09,0,0,1-.34-1,2.15,2.15,0,0,1,.14-.77,7.27,7.27,0,0,1,.66-1.17c.35-.55.78-1.14,1.27-1.8s1-1.34,1.66-2.06l1.89-2.2,3.79-4.2,2.79-3-1.57.59a14.38,14.38,0,0,1-4.2,1.16,5.52,5.52,0,0,1-1.78-.22,1.93,1.93,0,0,1-1-.77,3.15,3.15,0,0,1-.33-1.75c0-.36.11-.54.31-.56a1.11,1.11,0,0,1,.55.11l.59.28a5,5,0,0,0,2.08.41,15.37,15.37,0,0,0,2.05-.13c.59-.08,1.12-.17,1.6-.27l1.24-.27a3.73,3.73,0,0,1,.89-.13,1.22,1.22,0,0,1,.7.23,3,3,0,0,1,.63.53,2,2,0,0,1,.67,1.15,2.18,2.18,0,0,1-.43,1.09,15.38,15.38,0,0,1-1.17,1.52c-.5.57-1.06,1.19-1.7,1.85q-5.22,5.34-6.17,6.39a22.85,22.85,0,0,0-2.93,3.79,19.13,19.13,0,0,1,5.24-1.4,11,11,0,0,1,1.31-.1,4.61,4.61,0,0,1,.8.05,1.85,1.85,0,0,1,.6.2,2.87,2.87,0,0,1,1,1.13A2.91,2.91,0,0,1,1824.53,329.48Z"/></g><g class="cls-14"><path class="cls-15" d="M1809.53,349.48c0,.35-.15.52-.44.52a1.16,1.16,0,0,1-.55-.17,4.34,4.34,0,0,0-2.94-.82,14.28,14.28,0,0,0-3.82.5l-.9.23a6.61,6.61,0,0,1-1.49.26,1.14,1.14,0,0,1-.7-.17,1.71,1.71,0,0,1-.36-.43,2.09,2.09,0,0,1-.34-1,2.15,2.15,0,0,1,.14-.77,7.27,7.27,0,0,1,.66-1.17c.35-.55.78-1.14,1.27-1.8s1-1.34,1.66-2.06l1.89-2.2,3.79-4.2,2.79-3-1.57.59a14.38,14.38,0,0,1-4.2,1.16,5.52,5.52,0,0,1-1.78-.22,1.93,1.93,0,0,1-1-.77,3.15,3.15,0,0,1-.33-1.75c0-.36.11-.54.31-.56a1.11,1.11,0,0,1,.55.11l.59.28a5,5,0,0,0,2.08.41,15.37,15.37,0,0,0,2.05-.13c.59-.08,1.12-.17,1.6-.27l1.24-.27a3.73,3.73,0,0,1,.89-.13,1.22,1.22,0,0,1,.7.23,3,3,0,0,1,.63.53,2,2,0,0,1,.67,1.15,2.18,2.18,0,0,1-.43,1.09,15.38,15.38,0,0,1-1.17,1.52c-.5.57-1.06,1.19-1.7,1.85q-5.22,5.34-6.17,6.39a22.85,22.85,0,0,0-2.93,3.79,19.13,19.13,0,0,1,5.24-1.4,11,11,0,0,1,1.31-.1,4.61,4.61,0,0,1,.8.05,1.85,1.85,0,0,1,.6.2,2.87,2.87,0,0,1,1,1.13A2.91,2.91,0,0,1,1809.53,349.48Z"/></g></g><g id="Lamp"><polygon class="cls-16" points="1601 630 1564 630 1575.75 599 1589.25 599 1601 630"/><path class="cls-17" d="M1587,660h-9V630h9a37.94,37.94,0,0,1,.65,28.26Z"/><path class="cls-17" d="M1578,660h9V630h-9a37.94,37.94,0,0,0-.65,28.26Z"/></g></svg>