<svg xmlns="http://www.w3.org/2000/svg" width="420" height="120" viewBox="0 0 420 120"><defs><style>.cls-1{fill:#614d7c;}.cls-2{fill:#d8c5b2;}</style></defs><title>button_music</title><g id="Buttons"><rect class="cls-1" x="2.06" y="4.59" width="415.88" height="110.81" rx="45.84"/><path class="cls-2" d="M372.1,6.09a44.39,44.39,0,0,1,44.34,44.34V69.57a44.39,44.39,0,0,1-44.34,44.34H47.9A44.39,44.39,0,0,1,3.56,69.57V50.43A44.39,44.39,0,0,1,47.9,6.09H372.1m0-3H47.9A47.48,47.48,0,0,0,.56,50.43V69.57A47.48,47.48,0,0,0,47.9,116.91H372.1a47.48,47.48,0,0,0,47.34-47.34V50.43A47.48,47.48,0,0,0,372.1,3.09Z"/><path class="cls-2" d="M207.07,76.1c.57,0,.86.41.86,1.22a4,4,0,0,1-.45,2,8,8,0,0,1-1,1.44A7.19,7.19,0,0,1,205,82a7.91,7.91,0,0,1-4.42,1.38,9.76,9.76,0,0,1-3.68-.57,6.45,6.45,0,0,1-2.35-1.7,9.48,9.48,0,0,1-2.13-6.57,43.37,43.37,0,0,1,1.72-10.91q1.71-6.45,3.32-11t3.28-8.75L203.8,36q-5.09,4.58-12.89,19.22l-8.32,15.74q-6.66,12.45-9.52,12.45A3.81,3.81,0,0,1,169.25,81q-.92-2.3-.92-7.82a62.55,62.55,0,0,1,.87-10.59q.88-5.07,2.22-9.92a121.38,121.38,0,0,1,6.05-17q-3.61,2-8,9-3.37,5.61-4.74,8.19l-8.87,16.32Q150.32,79.3,147,81.67a9,9,0,0,1-5.26,1.72,4,4,0,0,1-3.48-1.52,2.12,2.12,0,0,1-.41-1.13c0-.34.1-.55.31-.62a10.1,10.1,0,0,0,3-1.22c.58-.42,1.16-.86,1.73-1.31a16.18,16.18,0,0,0,2.51-2.85c1.1-1.45,2.3-3.21,3.58-5.26s2.62-4.35,4-6.89l4.37-8A83.36,83.36,0,0,1,170,35.81a21.76,21.76,0,0,1,4.6-3.88,13.07,13.07,0,0,1,5.26-2.17,7.86,7.86,0,0,1,1.53-.17,6.81,6.81,0,0,1,1.58.21,4.24,4.24,0,0,1,1.53.65,2.15,2.15,0,0,1,.9,2.75c-.19.69-.54,1.72-1.07,3.09l-1.86,4.92Q176,59.15,175.34,73.86,177.16,70.74,179,67l3.88-7.66L187,51.55Q196.44,34,204.56,31.48a9.29,9.29,0,0,1,2.82-.55,4.52,4.52,0,0,1,1.78.29,4.65,4.65,0,0,1,1.17.74,2.09,2.09,0,0,1,.83,2.25c-.25.77-.59,1.75-1,2.94l-5,14.54-1.79,5.71a91.11,91.11,0,0,0-3.51,15.19,6.09,6.09,0,0,0,.5,3.49,2.16,2.16,0,0,0,1.94,1.26,6.75,6.75,0,0,0,3.17-.62l.89-.42A1.53,1.53,0,0,1,207.07,76.1Z"/><path class="cls-2" d="M247.16,76.27a.7.7,0,0,1,.79.79,6,6,0,0,1-3,5,8.36,8.36,0,0,1-4.68,1.31,5,5,0,0,1-3.36-1,5.84,5.84,0,0,1-2.1-4.54q0-3.41,2.85-10.42-5.3,7.16-7.42,9.51a36.45,36.45,0,0,1-3.72,3.66q-3.44,2.82-6.22,2.82-4.26,0-5.67-3.68a7.71,7.71,0,0,1-.41-2.6,12,12,0,0,1,.5-3.26,33.74,33.74,0,0,1,1.29-3.77c.52-1.3,1.1-2.64,1.71-4l1.86-4.12q3.57-7.95,2.65-9.42a4.41,4.41,0,0,0-1.55-1.31.9.9,0,0,1-.41-.84,1.66,1.66,0,0,1,.5-1.15,4.54,4.54,0,0,1,1.29-1,7.94,7.94,0,0,1,3.36-.79,7.09,7.09,0,0,1,2.57.36,4.36,4.36,0,0,1,1.42.92,3.46,3.46,0,0,1,1.14,2.51,12.12,12.12,0,0,1-.45,3.07c-.3,1.14-.69,2.37-1.17,3.7s-1,2.7-1.58,4.12c-1.58,3.71-2.65,6.17-3.2,7.36l-1.27,2.65a9.89,9.89,0,0,0-1.06,3.33,2.34,2.34,0,0,0,.3,1.36,1.37,1.37,0,0,0,1.12.39,3.42,3.42,0,0,0,1.88-.75,20.07,20.07,0,0,0,2.33-2c.85-.85,1.73-1.83,2.65-2.94s1.81-2.26,2.68-3.46a58.62,58.62,0,0,0,3.78-5.63q7.29-12.9,7.77-13.48a3,3,0,0,1,2.25-1.48,7.06,7.06,0,0,1,2,.26,4.38,4.38,0,0,1,1.48.74q1.44,1.07.93,2.13-8.39,17.5-9,22a21,21,0,0,0-.17,2.13c0,1.75.52,2.62,1.58,2.62a5,5,0,0,0,2.44-.54A3.65,3.65,0,0,1,247.16,76.27Z"/><path class="cls-2" d="M254.14,77a4.12,4.12,0,0,1,.47-2,5,5,0,0,1,1.15-1.53,4.38,4.38,0,0,1,3-1.34,1.23,1.23,0,0,1,1.38,1.4q0,3.58,2.37,5a3.45,3.45,0,0,0,1.79.51,5.28,5.28,0,0,0,1.58-.2,3.9,3.9,0,0,0,1.2-.65,3,3,0,0,0,1.24-2.38,5.25,5.25,0,0,0-.62-2.52,20.64,20.64,0,0,0-1.55-2.43l-2-2.75q-4.12-5.49-4.12-10.14a9.52,9.52,0,0,1,3.26-7,13.24,13.24,0,0,1,9.52-3.54c3.4,0,6,.84,7.95,2.51a6.05,6.05,0,0,1,2.33,4.64A5.22,5.22,0,0,1,281.09,59,4.47,4.47,0,0,1,277.38,60a1.89,1.89,0,0,1-1.27-.84,1.7,1.7,0,0,1-.18-1.53,5.63,5.63,0,0,0,.28-1.79,4.43,4.43,0,0,0-.34-1.72,4.13,4.13,0,0,0-.93-1.34,3.71,3.71,0,0,0-2.53-1.13,7,7,0,0,0-2.18.29,4.63,4.63,0,0,0-1.51.84,4,4,0,0,0-1.35,3A7.3,7.3,0,0,0,268,59a19.67,19.67,0,0,0,1.53,2.61q.92,1.3,2,2.64a28.94,28.94,0,0,1,2,2.82,12,12,0,0,1,2.16,6.1,8.26,8.26,0,0,1-1.09,4.41,10.87,10.87,0,0,1-2.86,3,13.75,13.75,0,0,1-8.39,2.78,10.69,10.69,0,0,1-7-2.13A5.37,5.37,0,0,1,254.14,77Z"/><path class="cls-2" d="M298.87,76.61c.59,0,.89.39.89,1.17a5,5,0,0,1-1.41,3.2,6.92,6.92,0,0,1-5.53,2.41q-4,0-5.47-3.24a6.33,6.33,0,0,1-.55-2.75,13.12,13.12,0,0,1,.57-3.59c.38-1.32.85-2.7,1.41-4.16s1.17-2.92,1.84-4.41l1.82-4.34q2-4.84,2-6.39a4.15,4.15,0,0,0-.33-2,2.86,2.86,0,0,0-.71-.78l-.68-.48a1,1,0,0,1-.35-.84,1.76,1.76,0,0,1,.47-1.15,4.18,4.18,0,0,1,1.22-1,7.9,7.9,0,0,1,3.61-.79c3.36,0,5.05.89,5.05,2.65a19.08,19.08,0,0,1-1.62,7.07q-1.61,4-2.75,6.41l-2.06,4.74Q294,73.55,294,75.86a1.34,1.34,0,0,0,1.51,1.51,5.19,5.19,0,0,0,2.24-.38A2.93,2.93,0,0,1,298.87,76.61Zm7.05-37.21a6.38,6.38,0,0,1-1.72,1.31,5.83,5.83,0,0,1-2,.62,3.64,3.64,0,0,1-2-.33,4.68,4.68,0,0,1-1.63-1.27,5.31,5.31,0,0,1-1.48-3.47,5,5,0,0,1,.56-2.63A4.76,4.76,0,0,1,299,32.2a5.79,5.79,0,0,1,3.11-1.06,9.56,9.56,0,0,1,2.27.2,4.65,4.65,0,0,1,1.5.69,3.3,3.3,0,0,1,1.68,2.77,6.87,6.87,0,0,1-.46,2.71A6.6,6.6,0,0,1,305.92,39.4Z"/><path class="cls-2" d="M309.12,71.18a22.8,22.8,0,0,1,.95-6,27.84,27.84,0,0,1,2.33-5.62,26.32,26.32,0,0,1,3.47-4.88,24.4,24.4,0,0,1,4.39-3.85,18.09,18.09,0,0,1,10.41-3.41q5.64,0,7.67,4.51a8.4,8.4,0,0,1,.67,3.66,11.67,11.67,0,0,1-.67,3.74,13.23,13.23,0,0,1-1.55,3.05c-1.4,2-2.8,3-4.23,3a4.38,4.38,0,0,1-3.5-1.3,2.77,2.77,0,0,1-.62-2.65,1.38,1.38,0,0,1,.62-.81,10.07,10.07,0,0,0,1.3-1.15,8.08,8.08,0,0,0,2.34-5.47q.07-2.13-2.61-2.13c-1.93,0-3.94,1.08-6,3.23a26.22,26.22,0,0,0-6.5,12.07q-1.65,6.39.62,9.35a4.36,4.36,0,0,0,3.64,1.72,12.26,12.26,0,0,0,7.5-2.75,10.3,10.3,0,0,0,1.79-1.75c.45-.6.88-.9,1.27-.9a1.17,1.17,0,0,1,1,.57,2.52,2.52,0,0,1,.39,1.46,5.87,5.87,0,0,1-1.82,4,15.68,15.68,0,0,1-11.24,4.47q-5.6,0-8.66-3.2T309.12,71.18Z"/></g></svg>