<svg xmlns="http://www.w3.org/2000/svg" width="420" height="120" viewBox="0 0 420 120"><defs><style>.cls-1{fill:#426e72;}.cls-2{fill:#d8c5b2;}</style></defs><title>button_effects</title><g id="Buttons"><rect class="cls-1" x="2.06" y="4.59" width="415.88" height="110.81" rx="45.84"/><path class="cls-2" d="M372.1,6.09a44.39,44.39,0,0,1,44.34,44.34V69.57a44.39,44.39,0,0,1-44.34,44.34H47.9A44.39,44.39,0,0,1,3.56,69.57V50.43A44.39,44.39,0,0,1,47.9,6.09H372.1m0-3H47.9A47.48,47.48,0,0,0,.56,50.43V69.57A47.48,47.48,0,0,0,47.9,116.91H372.1a47.48,47.48,0,0,0,47.34-47.34V50.43A47.48,47.48,0,0,0,372.1,3.09Z"/><path class="cls-2" d="M176.39,36.22c0-1.92-1.15-2.89-3.44-2.89q-6.57,0-11.93,6.09a20.65,20.65,0,0,0-4.43,7.73,12.24,12.24,0,0,0-.62,3.58,6.78,6.78,0,0,0,.36,2.45,4.59,4.59,0,0,0,.91,1.5,2.85,2.85,0,0,0,2.71,1,8,8,0,0,1,3-.68,5.36,5.36,0,0,1,2.06.32,3.86,3.86,0,0,1,1.25.81,2.67,2.67,0,0,1,1,1.86c0,1.16-.39,1.77-1.17,1.82a12.61,12.61,0,0,0-3.74,1,24.16,24.16,0,0,0-4,2.15,20.23,20.23,0,0,0-3.54,3q-3.54,3.78-3.54,7.59a3.91,3.91,0,0,0,.86,2.75,4.46,4.46,0,0,0,3.44,1.62,10.38,10.38,0,0,0,3.9-.77A17.1,17.1,0,0,0,163,75.2a25.39,25.39,0,0,0,4.53-4.29c.73-.87,1.38-1.31,1.93-1.31a1.37,1.37,0,0,1,1.25,1,5.07,5.07,0,0,1,.43,2.08,5.37,5.37,0,0,1-.86,3.35,15.63,15.63,0,0,1-2.15,2.17,17,17,0,0,1-3.07,2,20,20,0,0,1-9.22,2.2q-8.28,0-11.34-5.43a8.69,8.69,0,0,1-1.1-4.16,11.83,11.83,0,0,1,.64-4,15.75,15.75,0,0,1,1.63-3.38,16.49,16.49,0,0,1,2.23-2.82,23.54,23.54,0,0,1,2.44-2.18,9.45,9.45,0,0,1,3.92-2.1,8.73,8.73,0,0,1-5.22-6,12.69,12.69,0,0,1-.41-3.5,15.08,15.08,0,0,1,.79-4.56,20.52,20.52,0,0,1,2.23-4.78A24.74,24.74,0,0,1,155,35.22a23.85,23.85,0,0,1,4.4-3.47,20.66,20.66,0,0,1,10.93-3.16q6,0,9,3a8.4,8.4,0,0,1,2.37,6.15q0,4.27-3.57,8.63a14.42,14.42,0,0,1-3.9,3.54,8,8,0,0,1-2.72,1,4.22,4.22,0,0,1-1.82-.24,4.74,4.74,0,0,1-1.46-.88,3.44,3.44,0,0,1-1.41-2.3,2.34,2.34,0,0,1,.89-2l3.1-2.2Q176.39,39.24,176.39,36.22Z"/><path class="cls-2" d="M176.77,89.61a8.52,8.52,0,0,1,1.08-2.87q1.08-2.16,2.37-5.49c.86-2.22,1.68-4.54,2.46-6.94s1.57-5,2.37-7.74l2.69-9.07-3.58,1a2.53,2.53,0,0,1-2.2-1.41,1.8,1.8,0,0,1-.21-.89c0-.35.28-.75.83-1.22a10.65,10.65,0,0,1,2-1.33,24,24,0,0,1,4.95-1.89l.31-1q.93-2.88,1.77-6c.56-2.07,1.15-4.09,1.79-6.06a49.65,49.65,0,0,1,2.14-5.62,21,21,0,0,1,2.82-4.66,11.17,11.17,0,0,1,9-4.33,9,9,0,0,1,6.33,2.13A7.41,7.41,0,0,1,216,32a10.43,10.43,0,0,1-2.17,6.57,5.19,5.19,0,0,1-4.06,2.3A3.74,3.74,0,0,1,206,38.32a3,3,0,0,1-.27-1.1c0-.51.34-1,1-1.38A7.57,7.57,0,0,0,209.43,32a4.82,4.82,0,0,0,.24-1.48c0-1.87-.74-2.81-2.2-2.81q-3,0-5.57,6.84c-.51,1.39-1,2.93-1.51,4.6l-3.24,11a34,34,0,0,1,4.56-.48,9.25,9.25,0,0,1,2.53.32,8,8,0,0,1,2,.91,3.92,3.92,0,0,1,2,3.31,1.71,1.71,0,0,1-1.93,1.95L202,56c-2.39,0-4.59.11-6.6.31l-2.82,10Q189.76,76.37,188,81a75,75,0,0,1-3.39,7.8,5,5,0,0,1-4.71,2.92C177.82,91.7,176.77,91,176.77,89.61Z"/><path class="cls-2" d="M206.24,89.61a8.52,8.52,0,0,1,1.08-2.87q1.08-2.16,2.37-5.49c.86-2.22,1.68-4.54,2.46-6.94s1.57-5,2.37-7.74l2.68-9.07-3.57,1a2.52,2.52,0,0,1-2.2-1.41,1.8,1.8,0,0,1-.21-.89c0-.35.28-.75.83-1.22a10.88,10.88,0,0,1,2-1.33,24.33,24.33,0,0,1,5-1.89l.3-1q.93-2.88,1.77-6c.57-2.07,1.16-4.09,1.79-6.06A51.65,51.65,0,0,1,225,33.08a21,21,0,0,1,2.82-4.66,11.14,11.14,0,0,1,9-4.33,9,9,0,0,1,6.33,2.13A7.44,7.44,0,0,1,245.49,32a10.42,10.42,0,0,1-2.16,6.57,5.2,5.2,0,0,1-4.06,2.3,3.73,3.73,0,0,1-3.78-2.54,3.05,3.05,0,0,1-.28-1.1c0-.51.35-1,1-1.38A7.49,7.49,0,0,0,238.89,32a4.82,4.82,0,0,0,.24-1.48c0-1.87-.73-2.81-2.2-2.81q-3,0-5.57,6.84c-.5,1.39-1,2.93-1.51,4.6l-3.23,11a33.83,33.83,0,0,1,4.56-.48,9.13,9.13,0,0,1,2.52.32,7.94,7.94,0,0,1,2,.91,3.91,3.91,0,0,1,2,3.31,1.71,1.71,0,0,1-1.92,1.95L231.43,56c-2.38,0-4.58.11-6.6.31l-2.81,10Q219.23,76.37,217.49,81a73.08,73.08,0,0,1-3.38,7.8,5,5,0,0,1-4.71,2.92C207.29,91.7,206.24,91,206.24,89.61Z"/><path class="cls-2" d="M239.93,70a22.48,22.48,0,0,1,1-5.72,27.78,27.78,0,0,1,2.3-5.3,30.56,30.56,0,0,1,3.39-4.84,26.47,26.47,0,0,1,4.21-4,16.51,16.51,0,0,1,9.93-3.68q5.88,0,7.84,4.85a9.56,9.56,0,0,1,.65,3.9,10.56,10.56,0,0,1-.86,4.16,12.13,12.13,0,0,1-2.28,3.47,16.78,16.78,0,0,1-3.47,2.81,23.71,23.71,0,0,1-4.39,2.09,32.41,32.41,0,0,1-10.45,1.79,6.4,6.4,0,0,0-.17,1.44,9.4,9.4,0,0,0,.21,2.15,6.29,6.29,0,0,0,.82,2.12,4,4,0,0,0,3.58,2.06A14.58,14.58,0,0,0,260,75a11.13,11.13,0,0,0,2.18-1.63,2.31,2.31,0,0,1,1.46-.84,1.29,1.29,0,0,1,1.08.74,3,3,0,0,1,.47,1.66,5.1,5.1,0,0,1-1,3.17q-4.34,4.32-12.89,4.33a11,11,0,0,1-8.12-3Q239.73,75.92,239.93,70ZM260,51c-2.41,0-4.72,1.65-6.95,5a37.1,37.1,0,0,0-4.53,10.1,16.7,16.7,0,0,0,10-4.53q3.88-3.72,3.89-7.12C262.38,52.17,261.59,51,260,51Z"/><path class="cls-2" d="M274.42,70.18a22.78,22.78,0,0,1,.94-6,28.45,28.45,0,0,1,2.34-5.62,25.86,25.86,0,0,1,3.47-4.88,24.39,24.39,0,0,1,4.38-3.85A18.12,18.12,0,0,1,296,46.46q5.64,0,7.67,4.51a8.42,8.42,0,0,1,.67,3.66,12.07,12.07,0,0,1-.67,3.75,13.78,13.78,0,0,1-1.55,3q-2.1,3-4.23,3a4.42,4.42,0,0,1-3.51-1.3,2.77,2.77,0,0,1-.61-2.65,1.36,1.36,0,0,1,.61-.81,10,10,0,0,0,1.31-1.15A8.08,8.08,0,0,0,298,53.06q.06-2.13-2.61-2.13-2.89,0-6.05,3.24a26,26,0,0,0-6.5,12.06q-1.65,6.39.62,9.35a4.36,4.36,0,0,0,3.64,1.72,12.26,12.26,0,0,0,7.5-2.75,10.21,10.21,0,0,0,1.78-1.75c.46-.6.88-.9,1.27-.9a1.16,1.16,0,0,1,1,.57,2.45,2.45,0,0,1,.4,1.46,5.91,5.91,0,0,1-1.82,4A15.7,15.7,0,0,1,286,82.39q-5.61,0-8.67-3.2C275.29,77.08,274.32,74.08,274.42,70.18Z"/><path class="cls-2" d="M329.08,73c.67,0,1,.44,1,1.34a4,4,0,0,1-.69,2.2,9.66,9.66,0,0,1-3.71,3.78,11.72,11.72,0,0,1-6.36,2q-5.54,0-7-5-1.76-5.88,5.26-24.93c-2.64-.22-4.07-.68-4.3-1.37a2.09,2.09,0,0,1-.11-.67,1.56,1.56,0,0,1,.33-.84,5.12,5.12,0,0,1,.84-.93,3.82,3.82,0,0,1,2.45-1h2.71q3.7-8.7,5.29-9.9a2.87,2.87,0,0,1,1.69-.55,4.35,4.35,0,0,1,1.55.24,3.36,3.36,0,0,1,1.09.69,3.09,3.09,0,0,1,1.1,2.3,3.74,3.74,0,0,1-.41,1.58l-2.54,5.54h.82c1.42,0,2.57,0,3.44,0l2,0c.44,0,1,0,1.63,0s1,.24,1,.72q0,4.53-10.72,4.53h-.28l-2.33,6.06q-4,10.72-4,15a2.91,2.91,0,0,0,.55,1.87,2.58,2.58,0,0,0,2.07.67,7.2,7.2,0,0,0,2.75-.51,12.15,12.15,0,0,0,2.16-1.16c.62-.42,1.15-.8,1.6-1.15A2,2,0,0,1,329.08,73Z"/><path class="cls-2" d="M334.45,76a4.23,4.23,0,0,1,.46-2,5.15,5.15,0,0,1,1.16-1.53,4.38,4.38,0,0,1,3-1.34,1.23,1.23,0,0,1,1.38,1.41q0,3.57,2.37,5a3.46,3.46,0,0,0,1.78.52,5.28,5.28,0,0,0,1.59-.21,3.9,3.9,0,0,0,1.2-.65,3,3,0,0,0,1.24-2.38A5.28,5.28,0,0,0,348,72.3a22,22,0,0,0-1.55-2.43l-2-2.75Q340.4,61.63,340.4,57a9.49,9.49,0,0,1,3.26-7,13.29,13.29,0,0,1,9.52-3.54c3.4,0,6,.84,7.94,2.51a6,6,0,0,1,2.34,4.64A5.21,5.21,0,0,1,361.4,58,4.48,4.48,0,0,1,357.69,59a1.89,1.89,0,0,1-1.27-.84,1.7,1.7,0,0,1-.18-1.53,5.63,5.63,0,0,0,.28-1.79,4.26,4.26,0,0,0-.35-1.72,4,4,0,0,0-.92-1.34,3.71,3.71,0,0,0-2.53-1.13,7,7,0,0,0-2.18.29,4.72,4.72,0,0,0-1.51.84,4,4,0,0,0-1.35,3A7.26,7.26,0,0,0,348.3,58a19.67,19.67,0,0,0,1.53,2.61c.61.87,1.27,1.75,2,2.65a27.64,27.64,0,0,1,2,2.81,12,12,0,0,1,2.16,6.11,8.14,8.14,0,0,1-1.1,4.4,10.69,10.69,0,0,1-2.85,3,13.75,13.75,0,0,1-8.39,2.78,10.69,10.69,0,0,1-7-2.13A5.37,5.37,0,0,1,334.45,76Z"/></g></svg>