<svg xmlns="http://www.w3.org/2000/svg" width="420" height="120" viewBox="0 0 420 120"><defs><style>.cls-1{fill:#75634e;}.cls-2{fill:#d8c5b2;}</style></defs><title>button_back</title><g id="Buttons"><g id="Back"><rect class="cls-1" x="2.06" y="4.59" width="415.88" height="110.81" rx="45.84"/><path class="cls-2" d="M372.1,6.09a44.39,44.39,0,0,1,44.34,44.34V69.57a44.39,44.39,0,0,1-44.34,44.34H47.9A44.39,44.39,0,0,1,3.56,69.57V50.43A44.39,44.39,0,0,1,47.9,6.09H372.1m0-3H47.9A47.48,47.48,0,0,0,.56,50.43V69.57A47.48,47.48,0,0,0,47.9,116.91H372.1a47.48,47.48,0,0,0,47.34-47.34V50.43A47.48,47.48,0,0,0,372.1,3.09Z"/><path class="cls-2" d="M144.45,79a12.39,12.39,0,0,1-.65-4.66,42.87,42.87,0,0,1,.77-6.59,64,64,0,0,1,2.15-8.25,63.89,63.89,0,0,1,9.07-18,2.71,2.71,0,0,1,2.08-1.34,5.09,5.09,0,0,1,2.14.48,8.46,8.46,0,0,1,1.83,1.13c1.33,1.1,1.77,2,1.31,2.68q-4.85,7.77-7.94,14A25.69,25.69,0,0,0,169,53.45q6.49-4.79,6.5-11.62,0-4.63-4.61-5.91a13.15,13.15,0,0,0-3.35-.38,20.9,20.9,0,0,0-4,.4,26.27,26.27,0,0,0-4,1.08,29,29,0,0,0-7,3.71,2.8,2.8,0,0,1-1.65.65A4.11,4.11,0,0,1,149.2,41a6.65,6.65,0,0,1-1.59-1q-2.67-2.26.76-4.71,5-3.51,14.71-4.54c1.22-.11,2.84-.17,4.87-.17a20.6,20.6,0,0,1,6.22,1,13.8,13.8,0,0,1,5.1,2.68q3.54,3.16,3.54,8.8,0,5.09-4,10a27.51,27.51,0,0,1-9.49,7.42A9.16,9.16,0,0,1,173.48,64a8.31,8.31,0,0,1,1.32,4.77,12.28,12.28,0,0,1-1,4.71,14.12,14.12,0,0,1-2.54,3.89,18.63,18.63,0,0,1-3.72,3.06,23.83,23.83,0,0,1-4.45,2.18,27.46,27.46,0,0,1-9.69,1.79Q146.48,84.39,144.45,79Zm8.32-15A33.68,33.68,0,0,0,150,75.28a4.73,4.73,0,0,0,1.15,3.59,4.43,4.43,0,0,0,3.35,1.25,11.73,11.73,0,0,0,4.4-.92,15.75,15.75,0,0,0,4.16-2.51q4.33-3.64,4.47-8.25a5.48,5.48,0,0,0-3.78-5.71,9.68,9.68,0,0,0-2.51-.58,23,23,0,0,0-4.52.82C154.8,63.48,153.48,63.81,152.77,64Z"/><path class="cls-2" d="M210.15,74.9c0,2.11.74,3.16,2.23,3.16a6,6,0,0,0,2.56-.48,4.25,4.25,0,0,1,1.36-.48c.48,0,.72.25.72.76q0,3-3.09,5.08a7.23,7.23,0,0,1-6.67,1.1,5.56,5.56,0,0,1-3.3-3.4,6.93,6.93,0,0,1-.51-2.44,22.19,22.19,0,0,1,.34-3.78q-3.19,6.52-7.94,9a8.64,8.64,0,0,1-4,1,7.5,7.5,0,0,1-3.7-.88,8.06,8.06,0,0,1-2.66-2.42,12.94,12.94,0,0,1-2-8.12,25.46,25.46,0,0,1,3.61-12,28.08,28.08,0,0,1,7.9-9c3.19-2.35,6.17-3.54,8.94-3.54a7.77,7.77,0,0,1,6.71,3.82c1.58-2.54,3-3.82,4.19-3.82a5,5,0,0,1,3,.73c1.27.91,1.71,1.72,1.35,2.4q-8.64,17.67-8.87,22A11,11,0,0,0,210.15,74.9ZM191.07,75q0,4.13,2.65,4.12c1.35,0,3-1.14,5-3.44a47.07,47.07,0,0,0,7.67-13.61,48.75,48.75,0,0,0,1.78-5.36,4,4,0,0,0-2-3.44,3.63,3.63,0,0,0-1.84-.38,6.12,6.12,0,0,0-2.86.9,13.64,13.64,0,0,0-3.16,2.44,20.89,20.89,0,0,0-2.85,3.66,29,29,0,0,0-2.32,4.59A28.34,28.34,0,0,0,191.07,75Z"/><path class="cls-2" d="M223.36,72.18a22.78,22.78,0,0,1,.94-6,27.3,27.3,0,0,1,2.34-5.62,25.86,25.86,0,0,1,3.47-4.88,24.39,24.39,0,0,1,4.38-3.85,18.12,18.12,0,0,1,10.42-3.41q5.64,0,7.66,4.51a8.14,8.14,0,0,1,.67,3.66,11.52,11.52,0,0,1-.67,3.75,13.34,13.34,0,0,1-1.54,3q-2.1,3-4.23,3a4.42,4.42,0,0,1-3.51-1.3,2.79,2.79,0,0,1-.62-2.65,1.42,1.42,0,0,1,.62-.81,10,10,0,0,0,1.31-1.15,8.08,8.08,0,0,0,2.34-5.47c0-1.42-.83-2.13-2.62-2.13s-3.94,1.08-6,3.24a26.12,26.12,0,0,0-6.49,12.06q-1.65,6.39.62,9.35A4.35,4.35,0,0,0,236,79.3a12.21,12.21,0,0,0,7.49-2.75,10,10,0,0,0,1.79-1.75c.46-.6.88-.9,1.27-.9a1.16,1.16,0,0,1,1,.57,2.45,2.45,0,0,1,.4,1.46,5.91,5.91,0,0,1-1.82,4,15.7,15.7,0,0,1-11.24,4.47q-5.61,0-8.67-3.2C224.23,79.08,223.26,76.08,223.36,72.18Z"/><path class="cls-2" d="M280.77,84.35q-7.8,0-12.44-14.81-1.83,3.36-3,6.12l-2.06,4.67a18.57,18.57,0,0,1-1.67,3,2.18,2.18,0,0,1-1.74,1.07,4.51,4.51,0,0,1-1.75-.33,4.94,4.94,0,0,1-1.37-.84,3.23,3.23,0,0,1-1.21-2.41,6.16,6.16,0,0,1,.73-2L257.6,76Q264,62.77,269.25,42.45A128.36,128.36,0,0,0,272,29q.38-2.88,2.82-2.88a3.78,3.78,0,0,1,2.4.75A3.91,3.91,0,0,1,279.05,30a28.58,28.58,0,0,1-.46,3.84q-.4,2.13-1,4.65t-1.48,5.28Q273.83,51,272.73,54l-3.24,8.91c-.41,1.05-.73,1.82-1,2.3q8-3.16,12-7.15c1.61-1.6,2.41-3.11,2.41-4.5a1.74,1.74,0,0,0-.7-1.55,8.43,8.43,0,0,1-1-.74q-.25-.25,0-.93a2.72,2.72,0,0,1,1.29-1.29,5.08,5.08,0,0,1,2.58-.62,9.91,9.91,0,0,1,2.52.28,4.87,4.87,0,0,1,1.77.86,3.92,3.92,0,0,1,1.69,3.4,8.8,8.8,0,0,1-.93,4,12,12,0,0,1-2.89,3.56q-3.89,3.3-12.44,6.39A19.37,19.37,0,0,0,278.71,75q2.71,3.3,5,3.3a4.64,4.64,0,0,0,2.06-.42l1.24-.61a1.48,1.48,0,0,1,.72-.21c.57,0,.86.34.86,1a3.59,3.59,0,0,1-.31,1.56,7.83,7.83,0,0,1-.87,1.43,8.46,8.46,0,0,1-1.46,1.48A8.12,8.12,0,0,1,280.77,84.35Z"/><g id="Back-2" data-name="Back"><path class="cls-2" d="M111.6,48.88c-2.24-.62-32.58.62-32.58.62-.08-7.06-.24-12.91-.49-14.8-.73-5.5-2.91-5.61-4.75-4.53S56.37,49.53,53.87,54.93c-1.54,3.31-1.56,5.47,0,9C55.72,68.24,71,86.66,73.78,88.74s4,.53,4.75-4.53c.25-1.77.42-7.67.49-14.83,0,0,31.14,1.24,33.22,0,1.31-.78,1.6-1.87,1.92-3.73s.16-9.31,0-12.42S112.88,49.24,111.6,48.88Z"/></g></g></g></svg>