<svg xmlns="http://www.w3.org/2000/svg" width="420" height="120" viewBox="0 0 420 120"><defs><style>.cls-1{fill:#426e72;}.cls-2{fill:#d8c5b2;}</style></defs><title>button_settings</title><g id="Buttons"><g id="Settings-2" data-name="Settings"><rect class="cls-1" x="2.06" y="4.59" width="415.88" height="110.81" rx="45.84"/><path class="cls-2" d="M372.1,6.09a44.39,44.39,0,0,1,44.34,44.34V69.57a44.39,44.39,0,0,1-44.34,44.34H47.9A44.39,44.39,0,0,1,3.56,69.57V50.43A44.39,44.39,0,0,1,47.9,6.09H372.1m0-3H47.9A47.48,47.48,0,0,0,.56,50.43V69.57A47.48,47.48,0,0,0,47.9,116.91H372.1a47.48,47.48,0,0,0,47.34-47.34V50.43A47.48,47.48,0,0,0,372.1,3.09Z"/><path class="cls-2" d="M149.2,68.67l-.31,2.65c0,2.77.92,4.66,2.78,5.67a4.85,4.85,0,0,0,2.3.52,6,6,0,0,0,2.41-.47,5,5,0,0,0,1.75-1.22,5,5,0,0,0,1.45-3.57,8.1,8.1,0,0,0-.83-3.68,22.05,22.05,0,0,0-2.06-3.3l-2.75-3.37a24.27,24.27,0,0,1-4.47-7.27,18.49,18.49,0,0,1-1.13-6,19.57,19.57,0,0,1,.67-5.21,21.58,21.58,0,0,1,1.87-4.68,20.43,20.43,0,0,1,2.89-4.07,19.27,19.27,0,0,1,3.74-3.2,15.89,15.89,0,0,1,15.13-1.72,11.14,11.14,0,0,1,3.81,3,12.67,12.67,0,0,1,2.69,8.15,15.25,15.25,0,0,1-2.51,8.35,10.4,10.4,0,0,1-5.16,4.54,3.94,3.94,0,0,1-1.7.31A4.45,4.45,0,0,1,168,53.7a4,4,0,0,1-1.29-.88,3.65,3.65,0,0,1-1.21-2.61,1.31,1.31,0,0,1,.59-1.27,13.51,13.51,0,0,0,4.54-4.09,10.71,10.71,0,0,0,2.2-5.83,5.3,5.3,0,0,0-1.4-4.29,5.58,5.58,0,0,0-4-1.4A9,9,0,0,0,163,34.45a11.22,11.22,0,0,0-3.44,3,15.37,15.37,0,0,0-3.1,9.59A14.8,14.8,0,0,0,159,54.82c.71,1.17,1.48,2.32,2.32,3.45s1.62,2.3,2.35,3.49a14.88,14.88,0,0,1,2.51,7.46A11.92,11.92,0,0,1,165,74.79a13.22,13.22,0,0,1-3.15,3.95,14.34,14.34,0,0,1-9.62,3.65q-5.1,0-7.84-3a7.75,7.75,0,0,1-2.2-5.29,8,8,0,0,1,1.75-5.23,5.24,5.24,0,0,1,2.58-1.92C148.29,66.44,149.2,67,149.2,68.67Z"/><path class="cls-2" d="M178.49,70a22,22,0,0,1,1-5.72,27.78,27.78,0,0,1,2.3-5.3,30.56,30.56,0,0,1,3.39-4.84,26.05,26.05,0,0,1,4.21-4,16.47,16.47,0,0,1,9.93-3.68q5.88,0,7.84,4.85a9.73,9.73,0,0,1,.65,3.9,10.74,10.74,0,0,1-.86,4.16,12.13,12.13,0,0,1-2.28,3.47,16.85,16.85,0,0,1-3.48,2.81,23.92,23.92,0,0,1-4.38,2.09,32.46,32.46,0,0,1-10.45,1.79,6.4,6.4,0,0,0-.17,1.44,9.4,9.4,0,0,0,.21,2.15,6.29,6.29,0,0,0,.82,2.12,4,4,0,0,0,3.58,2.06A14.58,14.58,0,0,0,198.56,75a10.93,10.93,0,0,0,2.19-1.63,2.31,2.31,0,0,1,1.46-.84,1.29,1.29,0,0,1,1.08.74,3,3,0,0,1,.47,1.66,5.05,5.05,0,0,1-1,3.17q-4.32,4.32-12.89,4.33a11,11,0,0,1-8.11-3Q178.29,75.92,178.49,70Zm20.07-19c-2.4,0-4.72,1.65-6.94,5a37.42,37.42,0,0,0-4.54,10.1,16.73,16.73,0,0,0,10-4.53q3.88-3.72,3.89-7.12C200.94,52.17,200.15,51,198.56,51Z"/><path class="cls-2" d="M233.12,73c.66,0,1,.44,1,1.34a4,4,0,0,1-.68,2.2,9.66,9.66,0,0,1-3.71,3.78,11.72,11.72,0,0,1-6.36,2q-5.54,0-7-5-1.74-5.88,5.26-24.93c-2.63-.22-4.07-.68-4.29-1.37a2.09,2.09,0,0,1-.11-.67,1.56,1.56,0,0,1,.33-.84,5.12,5.12,0,0,1,.84-.93,3.8,3.8,0,0,1,2.44-1h2.72q3.71-8.7,5.29-9.9a2.87,2.87,0,0,1,1.69-.55,4.29,4.29,0,0,1,1.54.24,3.3,3.3,0,0,1,1.1.69,3.09,3.09,0,0,1,1.1,2.3,3.9,3.9,0,0,1-.41,1.58L231.3,47.6h.82c1.42,0,2.57,0,3.44,0l2,0c.43,0,1,0,1.63,0s1,.24,1,.72q0,4.53-10.72,4.53h-.28l-2.34,6.06q-3.94,10.72-3.95,15a2.86,2.86,0,0,0,.55,1.87,2.57,2.57,0,0,0,2.06.67,7.13,7.13,0,0,0,2.75-.51,11.91,11.91,0,0,0,2.17-1.16c.62-.42,1.15-.8,1.6-1.15A2,2,0,0,1,233.12,73Z"/><path class="cls-2" d="M260.14,73c.67,0,1,.44,1,1.34a4,4,0,0,1-.69,2.2,9.59,9.59,0,0,1-3.71,3.78,11.72,11.72,0,0,1-6.36,2q-5.53,0-7-5-1.76-5.88,5.26-24.93c-2.64-.22-4.07-.68-4.3-1.37a2.09,2.09,0,0,1-.1-.67,1.61,1.61,0,0,1,.32-.84,4.85,4.85,0,0,1,.85-.93,3.78,3.78,0,0,1,2.44-1h2.71q3.72-8.7,5.3-9.9a2.82,2.82,0,0,1,1.68-.55,4.31,4.31,0,0,1,1.55.24,3.41,3.41,0,0,1,1.1.69,3.12,3.12,0,0,1,1.1,2.3,3.9,3.9,0,0,1-.41,1.58l-2.55,5.54h.83c1.42,0,2.56,0,3.43,0l2,0c.44,0,1,0,1.64,0s1,.24,1,.72q0,4.53-10.73,4.53h-.27l-2.34,6.06q-4,10.72-3.95,15a2.86,2.86,0,0,0,.55,1.87,2.54,2.54,0,0,0,2.06.67,7.16,7.16,0,0,0,2.75-.51,11.81,11.81,0,0,0,2.16-1.16c.62-.42,1.16-.8,1.6-1.15A2,2,0,0,1,260.14,73Z"/><path class="cls-2" d="M278.68,75.62c.6,0,.89.38.89,1.16a5,5,0,0,1-1.41,3.2,6.92,6.92,0,0,1-5.53,2.41q-4,0-5.47-3.23a6.39,6.39,0,0,1-.55-2.75,13.12,13.12,0,0,1,.57-3.6c.38-1.31.85-2.7,1.41-4.16s1.17-2.92,1.84-4.41l1.82-4.33q2-4.86,2-6.4a4.18,4.18,0,0,0-.32-2,2.86,2.86,0,0,0-.71-.78l-.68-.48a1,1,0,0,1-.35-.84,1.76,1.76,0,0,1,.47-1.15,4.18,4.18,0,0,1,1.22-1,7.9,7.9,0,0,1,3.61-.79c3.37,0,5,.89,5,2.65a19.08,19.08,0,0,1-1.62,7.07q-1.61,4-2.75,6.41l-2.06,4.74q-2.27,5.22-2.27,7.53a1.34,1.34,0,0,0,1.52,1.51,5.05,5.05,0,0,0,2.23-.38A2.87,2.87,0,0,1,278.68,75.62Zm7.05-37.22A6.38,6.38,0,0,1,284,39.71a5.83,5.83,0,0,1-2,.62,3.64,3.64,0,0,1-2-.33,4.68,4.68,0,0,1-1.63-1.27,5.31,5.31,0,0,1-1.48-3.47,5,5,0,0,1,.56-2.63,4.76,4.76,0,0,1,1.43-1.43A5.79,5.79,0,0,1,282,30.14a10.13,10.13,0,0,1,2.27.2,4.65,4.65,0,0,1,1.5.69,3.3,3.3,0,0,1,1.68,2.77,6.87,6.87,0,0,1-.46,2.71A6.47,6.47,0,0,1,285.73,38.4Z"/><path class="cls-2" d="M313.85,53c-.71,0-1.72.68-3,2s-2.44,2.6-3.41,3.73l-2.92,3.5-5.64,7.19c-1.33,2.52-2.37,4.61-3.12,6.29l-1.86,4a10,10,0,0,1-1.26,2.08,1.81,1.81,0,0,1-1.44.6,4.73,4.73,0,0,1-1.75-.33,5.32,5.32,0,0,1-1.46-.84,3.17,3.17,0,0,1-1.31-2.41,6,6,0,0,1,.76-2l1.3-2.78c.42-.83.9-1.88,1.45-3.16l1.92-4.71Q296.16,56,296.15,53a2.74,2.74,0,0,0-1-2.34l-.69-.48a1,1,0,0,1-.34-.84,1.74,1.74,0,0,1,.46-1.15,4.32,4.32,0,0,1,1.22-1,6.87,6.87,0,0,1,3.11-.79,6.7,6.7,0,0,1,2.42.35,4.21,4.21,0,0,1,1.45.93A3.46,3.46,0,0,1,304,50.25a10.89,10.89,0,0,1-.33,2.63,24.72,24.72,0,0,1-.82,2.68c-.33.9-.68,1.79-1.05,2.66s-.7,1.63-1,2.27L300.14,62c-.19.36-.23.48-.14.34q3.81-5.3,5-6.81l2.4-2.88a23.53,23.53,0,0,1,4.16-4.09q3.06-2.07,4.82-2.07a8.48,8.48,0,0,1,3,.45,6.38,6.38,0,0,1,2.1,1.27,5.83,5.83,0,0,1,1.89,4.47,14.58,14.58,0,0,1-1.24,5.67q-1.23,3-2.15,4.8c-.6,1.23-1.18,2.47-1.73,3.73q-2.58,5.75-2.58,8.35,0,1.17,1.86,1.17a5.55,5.55,0,0,0,2.63-.62,4.89,4.89,0,0,1,1.53-.62.64.64,0,0,1,.72.73c0,2-1.05,3.74-3.13,5.12a7.06,7.06,0,0,1-3.85,1.41,9.55,9.55,0,0,1-2.91-.38,5.48,5.48,0,0,1-2-1.2,6.5,6.5,0,0,1-2-5.09,27,27,0,0,1,2.51-10q1.81-4.09,2.58-5.6l1.17-2.44a8.71,8.71,0,0,0,1.06-3.48C315.74,53.39,315.11,53,313.85,53Z"/><path class="cls-2" d="M350.47,74.55q-5.24,7.83-11.59,7.84-5.73,0-7.73-6.12a16.69,16.69,0,0,1-.69-5.16,22,22,0,0,1,.88-6.13,27.37,27.37,0,0,1,2.39-5.83,28.17,28.17,0,0,1,3.56-5.07,26.5,26.5,0,0,1,4.38-4,16.31,16.31,0,0,1,9.69-3.61A7.08,7.08,0,0,1,358.24,51a10.32,10.32,0,0,0,.75-.91,7.85,7.85,0,0,1,.76-.88,2.44,2.44,0,0,1,1.56-.89,4.54,4.54,0,0,1,1.41.24,7.07,7.07,0,0,1,1.43.65c1.12.67,1.55,1.28,1.27,1.86a71.38,71.38,0,0,0-3.16,8l-5.09,16.23q-6,18.45-15.26,23.85a11.6,11.6,0,0,1-4.23,1.67,7.83,7.83,0,0,1-2.58,0,5.58,5.58,0,0,1-1.41-.59c-.89-.57-1.34-1.09-1.34-1.55,0-.8.54-1.29,1.6-1.47A10.47,10.47,0,0,0,337.3,96a19.78,19.78,0,0,0,3.34-2.46Q347.14,87.48,350.47,74.55Zm-10.3-11.93a34,34,0,0,0-1.42,5.07,22.3,22.3,0,0,0-.52,4.25c0,1.1,0,1.93.1,2.51a4.85,4.85,0,0,0,.42,1.51,2.17,2.17,0,0,0,2,1.44,4.46,4.46,0,0,0,2.64-.94,17,17,0,0,0,2.75-2.6A33.46,33.46,0,0,0,349.06,70a54.64,54.64,0,0,0,2.75-4.81,47.22,47.22,0,0,0,4.05-10.9,3.79,3.79,0,0,0-1.16-2,5.49,5.49,0,0,0-3.54-1.89,5.93,5.93,0,0,0-3.17,1A13,13,0,0,0,345,54a23.9,23.9,0,0,0-2.67,3.89A34,34,0,0,0,340.17,62.62Z"/><path class="cls-2" d="M367.53,76a4.23,4.23,0,0,1,.46-2,5.13,5.13,0,0,1,1.15-1.53,4.38,4.38,0,0,1,3-1.34,1.23,1.23,0,0,1,1.37,1.41q0,3.57,2.37,5a3.49,3.49,0,0,0,1.79.52,5.17,5.17,0,0,0,1.58-.21,3.84,3.84,0,0,0,1.21-.65,3,3,0,0,0,1.23-2.38,5.17,5.17,0,0,0-.62-2.52,20.48,20.48,0,0,0-1.54-2.43l-2-2.75q-4.12-5.49-4.13-10.14a9.5,9.5,0,0,1,3.27-7,13.27,13.27,0,0,1,9.52-3.54q5.08,0,7.94,2.51a6,6,0,0,1,2.34,4.64A5.24,5.24,0,0,1,394.48,58,4.49,4.49,0,0,1,390.76,59a1.91,1.91,0,0,1-1.27-.84,1.7,1.7,0,0,1-.17-1.53,5.92,5.92,0,0,0,.27-1.79,4.26,4.26,0,0,0-.34-1.72,4.13,4.13,0,0,0-.93-1.34,3.67,3.67,0,0,0-2.52-1.13,7.08,7.08,0,0,0-2.19.29,4.94,4.94,0,0,0-1.51.84,4,4,0,0,0-1.34,3,7.26,7.26,0,0,0,.62,3.12,17.7,17.7,0,0,0,1.53,2.61c.61.87,1.26,1.75,2,2.65A26,26,0,0,1,386.84,66,12,12,0,0,1,389,72.13a8.23,8.23,0,0,1-1.1,4.4,10.69,10.69,0,0,1-2.85,3,13.78,13.78,0,0,1-8.39,2.78,10.67,10.67,0,0,1-7-2.13A5.37,5.37,0,0,1,367.53,76Z"/><path class="cls-2" d="M110.19,54.71h-4.78a1.84,1.84,0,0,1-1.76-1.31,22.92,22.92,0,0,0-1.51-3.61,1.83,1.83,0,0,1,.31-2.18l3.35-3.35a3.16,3.16,0,0,0,0-4.46l-2.59-2.59a3.16,3.16,0,0,0-4.46,0l-3.39,3.38a1.85,1.85,0,0,1-2.17.32,20.83,20.83,0,0,0-3.62-1.48,1.85,1.85,0,0,1-1.32-1.77V32.93a3.16,3.16,0,0,0-3.15-3.16H81.43a3.16,3.16,0,0,0-3.15,3.16v4.78A1.85,1.85,0,0,1,77,39.47,21.31,21.31,0,0,0,73.37,41a1.85,1.85,0,0,1-2.19-.31l-3.35-3.35a3.16,3.16,0,0,0-4.46,0l-2.59,2.59a3.16,3.16,0,0,0,0,4.46l3.38,3.38a1.85,1.85,0,0,1,.33,2.17A20.21,20.21,0,0,0,63,53.55a1.85,1.85,0,0,1-1.77,1.31H56.5A3.16,3.16,0,0,0,53.35,58v3.67a3.15,3.15,0,0,0,3.15,3.15h4.78A1.85,1.85,0,0,1,63,66.14a21.34,21.34,0,0,0,1.52,3.61,1.86,1.86,0,0,1-.32,2.19l-3.35,3.35a3.16,3.16,0,0,0,0,4.46l2.59,2.59a3.16,3.16,0,0,0,4.46,0L71.33,79a1.85,1.85,0,0,1,2.17-.33,21.68,21.68,0,0,0,3.62,1.49,1.85,1.85,0,0,1,1.32,1.77v4.73a3.15,3.15,0,0,0,3.15,3.15h3.67a3.15,3.15,0,0,0,3.15-3.15V81.84a1.86,1.86,0,0,1,1.31-1.77,20.74,20.74,0,0,0,3.6-1.51,1.86,1.86,0,0,1,2.19.32l3.35,3.35a3.16,3.16,0,0,0,4.46,0l2.59-2.6a3.14,3.14,0,0,0,0-4.45l-3.38-3.39a1.83,1.83,0,0,1-.32-2.17A20.83,20.83,0,0,0,103.69,66a1.85,1.85,0,0,1,1.77-1.32h4.73a3.16,3.16,0,0,0,3.16-3.15V57.86A3.16,3.16,0,0,0,110.19,54.71Zm-26.84,15a10,10,0,1,1,10-10A10,10,0,0,1,83.35,69.75Z"/></g></g></svg>