<svg xmlns="http://www.w3.org/2000/svg" width="540" height="120" viewBox="0 0 540 120"><defs><style>.cls-1{fill:#614d7c;}.cls-2{fill:#d8c5b2;}</style></defs><title>button_play_again</title><g id="Buttons"><path class="cls-1" d="M64.33,116.18c-32.1,0-58.21-20.56-58.21-45.84V51.21c0-25.28,26.11-45.84,58.21-45.84H476.05c32.1,0,58.22,20.56,58.22,45.84V70.34c0,25.28-26.12,45.84-58.22,45.84Z"/><path class="cls-2" d="M476.05,6.87c31.05,0,56.31,19.89,56.31,44.34V70.34c0,24.45-25.26,44.34-56.31,44.34H64.33C33.28,114.68,8,94.79,8,70.34V51.21C8,26.76,33.28,6.87,64.33,6.87H476.05m0-3H64.33c-33.06,0-60.12,21.3-60.12,47.34V70.34c0,26,27.06,47.34,60.12,47.34H476.05c33.07,0,60.12-21.3,60.12-47.34V51.21c0-26-27-47.34-60.12-47.34Z"/><path class="cls-2" d="M159,75.45a38.72,38.72,0,0,1-5,6.22c-1.64,1.59-3.22,2.39-4.76,2.39a2.5,2.5,0,0,1-1.75-.55,2.43,2.43,0,0,1-1-1.69,1.36,1.36,0,0,1,.52-1.17q5.19-3.74,11.51-22l2-5.77Q164,43,166.45,40.61a2.89,2.89,0,0,1,1.78-.66,4,4,0,0,1,1.62.3,4.26,4.26,0,0,1,1.2.74,3.11,3.11,0,0,1,1.17,2.4,3.68,3.68,0,0,1-.48,1.48c-.32.64-.69,1.48-1.1,2.51l-4.37,12.13a25.38,25.38,0,0,0,13.79-6.91q5.08-5,5.09-10.38c0-3.37-1.52-5.58-4.54-6.63A10.62,10.62,0,0,0,177,35a17.89,17.89,0,0,0-4.18.51,31.39,31.39,0,0,0-4.19,1.34,24.64,24.64,0,0,0-6.81,4,2.17,2.17,0,0,1-1.51.65,3.55,3.55,0,0,1-1.55-.34,4.43,4.43,0,0,1-1.27-.9,3.42,3.42,0,0,1-1.27-2.45,3.33,3.33,0,0,1,.89-2.26,9.1,9.1,0,0,1,2.37-1.8,20.1,20.1,0,0,1,3.41-1.44,38.91,38.91,0,0,1,4-1.09,40.3,40.3,0,0,1,8.2-.86,25.83,25.83,0,0,1,7.46,1,16.61,16.61,0,0,1,5.58,2.73,10.59,10.59,0,0,1,4.44,8.73v.55a17.63,17.63,0,0,1-4.92,11.45,27.75,27.75,0,0,1-10.38,6.77,29.67,29.67,0,0,1-10.86,2.27h-.9a4.91,4.91,0,0,1-.86-.07A65.33,65.33,0,0,1,159,75.45Z"/><path class="cls-2" d="M193.82,82.44a6.68,6.68,0,0,1-1.4-2.28,9.17,9.17,0,0,1-.53-3.24,20,20,0,0,1,.84-4.93q.84-3.09,2.15-7l2.89-8.56q6.15-17.88,7.11-27.64c.21-1.93,1.15-2.89,2.82-2.89a4.28,4.28,0,0,1,2.62.76A4.06,4.06,0,0,1,212.24,30a26.71,26.71,0,0,1-.65,4.52c-.39,1.77-.9,3.71-1.51,5.81s-1.33,4.31-2.14,6.65l-4.74,14q-4.09,11.89-4.09,15.37c0,1.24.5,1.86,1.51,1.86a5.64,5.64,0,0,0,2.63-.62,4.64,4.64,0,0,1,1.53-.62.64.64,0,0,1,.72.72,6,6,0,0,1-3.13,5.12,7,7,0,0,1-3.83,1.41,8,8,0,0,1-2.8-.41A5.31,5.31,0,0,1,193.82,82.44Z"/><path class="cls-2" d="M240.09,74.67c0,2.11.75,3.17,2.24,3.17a5.84,5.84,0,0,0,2.56-.49,4.17,4.17,0,0,1,1.36-.48c.48,0,.72.26.72.76q0,3-3.1,5.09a7.25,7.25,0,0,1-6.67,1.1,5.58,5.58,0,0,1-3.3-3.41,6.88,6.88,0,0,1-.51-2.44,22.19,22.19,0,0,1,.34-3.78q-3.19,6.54-7.94,9a8.76,8.76,0,0,1-4,1,7.42,7.42,0,0,1-3.7-.88,8.06,8.06,0,0,1-2.66-2.42,13,13,0,0,1-2-8.11,25.47,25.47,0,0,1,3.61-12,28,28,0,0,1,7.91-9q4.77-3.54,8.94-3.54a7.74,7.74,0,0,1,6.7,3.81q2.37-3.81,4.19-3.81a5,5,0,0,1,3,.72c1.26.92,1.71,1.72,1.34,2.41q-8.62,17.67-8.87,22A10.74,10.74,0,0,0,240.09,74.67ZM221,74.81c0,2.75.89,4.13,2.65,4.13q2,0,5-3.44a47.33,47.33,0,0,0,7.66-13.61,49,49,0,0,0,1.79-5.37,4,4,0,0,0-2-3.43,3.51,3.51,0,0,0-1.84-.38,6.21,6.21,0,0,0-2.85.89A14,14,0,0,0,228.28,56a20.89,20.89,0,0,0-2.85,3.66,29.86,29.86,0,0,0-2.32,4.59A28.38,28.38,0,0,0,221,74.81Z"/><path class="cls-2" d="M253.37,80.48a7.41,7.41,0,0,1-.42-2.59,12.46,12.46,0,0,1,.5-3.27,35.76,35.76,0,0,1,1.29-3.76c.53-1.31,1.1-2.65,1.72-4l1.86-4.13q3.57-7.93,2.64-9.42a4.35,4.35,0,0,0-1.54-1.3.91.91,0,0,1-.42-.85,1.72,1.72,0,0,1,.5-1.15,4.52,4.52,0,0,1,1.29-1,7.83,7.83,0,0,1,3.37-.79,7,7,0,0,1,2.56.36,4.24,4.24,0,0,1,1.43.91A3.46,3.46,0,0,1,269.28,52a12.6,12.6,0,0,1-.44,3.08q-.45,1.69-1.17,3.69c-.48,1.33-1,2.71-1.58,4.13-1.59,3.71-2.65,6.16-3.2,7.35l-1.27,2.65a10,10,0,0,0-1.07,3.33,2.28,2.28,0,0,0,.31,1.36A1.34,1.34,0,0,0,262,78a3.47,3.47,0,0,0,1.79-.62,15.6,15.6,0,0,0,2.11-1.65,31.54,31.54,0,0,0,2.35-2.39c.82-.9,1.61-1.85,2.39-2.84A44.81,44.81,0,0,0,275.16,64q7.43-13.68,7.87-14.3a3.06,3.06,0,0,1,2.29-1.48,6.72,6.72,0,0,1,2,.26,4.29,4.29,0,0,1,1.48.74c.91.66,1.2,1.41.84,2.23s-.78,2-1.29,3.4q-6.53,18.95-8.47,23.62T276.5,86a54.76,54.76,0,0,1-3.38,5.72A42.77,42.77,0,0,1,269,97q-5,5.37-9.42,5.74a4.39,4.39,0,0,1-2.68-.48c-1.14-.69-1.71-1.34-1.71-2s.52-1,1.56-1.29A10.22,10.22,0,0,0,260,97.55,22.69,22.69,0,0,0,263.16,95a33.19,33.19,0,0,0,7-9.42,70.64,70.64,0,0,0,3.44-8.45L276.33,69c-.67.8-1.4,1.74-2.2,2.82l-2.47,3.3a39.07,39.07,0,0,1-5.37,5.81q-4.05,3.25-7.25,3.26C256.2,84.16,254.31,82.94,253.37,80.48Z"/><path class="cls-2" d="M343.82,74.67c0,2.11.75,3.17,2.24,3.17a5.84,5.84,0,0,0,2.56-.49,4.17,4.17,0,0,1,1.36-.48c.48,0,.72.26.72.76q0,3-3.1,5.09a7.25,7.25,0,0,1-6.67,1.1,5.58,5.58,0,0,1-3.3-3.41,6.88,6.88,0,0,1-.51-2.44,22.19,22.19,0,0,1,.34-3.78q-3.19,6.54-7.94,9a8.76,8.76,0,0,1-4,1,7.42,7.42,0,0,1-3.7-.88,8.06,8.06,0,0,1-2.66-2.42,13,13,0,0,1-2-8.11,25.47,25.47,0,0,1,3.61-12,28,28,0,0,1,7.91-9q4.77-3.54,8.94-3.54a7.74,7.74,0,0,1,6.7,3.81q2.37-3.81,4.19-3.81a5,5,0,0,1,3,.72c1.26.92,1.71,1.72,1.34,2.41q-8.62,17.67-8.87,22A10.74,10.74,0,0,0,343.82,74.67Zm-19.08.14c0,2.75.89,4.13,2.65,4.13q2,0,5-3.44A47.1,47.1,0,0,0,340,61.89a49,49,0,0,0,1.79-5.37,4,4,0,0,0-2-3.43,3.51,3.51,0,0,0-1.84-.38,6.18,6.18,0,0,0-2.85.89A14,14,0,0,0,332,56a20.89,20.89,0,0,0-2.85,3.66,29,29,0,0,0-2.32,4.59A28.38,28.38,0,0,0,324.74,74.81Z"/><path class="cls-2" d="M377.31,76.32q-5.22,7.84-11.58,7.84Q360,84.16,358,78a16.63,16.63,0,0,1-.69-5.15,22.5,22.5,0,0,1,.88-6.14,27.8,27.8,0,0,1,2.39-5.83,28.17,28.17,0,0,1,3.56-5.07,26.43,26.43,0,0,1,4.38-4,16.26,16.26,0,0,1,9.69-3.61,7.07,7.07,0,0,1,6.88,4.5,10.32,10.32,0,0,0,.75-.91,9,9,0,0,1,.76-.88,2.48,2.48,0,0,1,1.57-.89,4.64,4.64,0,0,1,1.41.24A7.25,7.25,0,0,1,391,51c1.12.67,1.55,1.29,1.27,1.86a72.14,72.14,0,0,0-3.16,8L384,77.08q-6,18.47-15.26,23.86a11.56,11.56,0,0,1-4.23,1.66,7.56,7.56,0,0,1-2.58,0,5.35,5.35,0,0,1-1.4-.58c-.9-.58-1.35-1.09-1.35-1.55,0-.8.54-1.3,1.6-1.48a9.94,9.94,0,0,0,3.35-1.29,18.75,18.75,0,0,0,3.34-2.46Q374,89.25,377.31,76.32ZM367,64.4a33.7,33.7,0,0,0-1.42,5.07,20.48,20.48,0,0,0-.41,6.75,4.52,4.52,0,0,0,.41,1.51,2.17,2.17,0,0,0,2,1.45,4.48,4.48,0,0,0,2.64-1A16.91,16.91,0,0,0,373,75.64a32.51,32.51,0,0,0,2.89-3.89,53.23,53.23,0,0,0,2.75-4.81A47.27,47.27,0,0,0,382.71,56a3.92,3.92,0,0,0-1.17-2A5.49,5.49,0,0,0,378,52.19a6,6,0,0,0-3.17,1,13,13,0,0,0-3,2.65,24,24,0,0,0-2.67,3.88A33.54,33.54,0,0,0,367,64.4Z"/><path class="cls-2" d="M422.56,74.67c0,2.11.74,3.17,2.23,3.17a5.84,5.84,0,0,0,2.56-.49,4.25,4.25,0,0,1,1.36-.48c.48,0,.72.26.72.76q0,3-3.09,5.09a7.26,7.26,0,0,1-6.67,1.1,5.58,5.58,0,0,1-3.3-3.41,6.7,6.7,0,0,1-.52-2.44,22.25,22.25,0,0,1,.35-3.78q-3.19,6.54-7.94,9a8.8,8.8,0,0,1-4,1,7.35,7.35,0,0,1-3.69-.88,8.19,8.19,0,0,1-2.67-2.42,12.91,12.91,0,0,1-2-8.11,25.45,25.45,0,0,1,3.6-12,28.08,28.08,0,0,1,7.91-9q4.78-3.54,8.94-3.54a7.73,7.73,0,0,1,6.7,3.81q2.37-3.81,4.2-3.81a5,5,0,0,1,2.95.72c1.26.92,1.71,1.72,1.34,2.41q-8.62,17.67-8.87,22C422.58,73.78,422.56,74.21,422.56,74.67Zm-19.08.14q0,4.13,2.64,4.13,2,0,5-3.44a47.1,47.1,0,0,0,7.66-13.61,49,49,0,0,0,1.79-5.37,4,4,0,0,0-2-3.43,3.48,3.48,0,0,0-1.84-.38,6.21,6.21,0,0,0-2.85.89A13.92,13.92,0,0,0,410.75,56a21.41,21.41,0,0,0-2.86,3.66,29.86,29.86,0,0,0-2.32,4.59A28.57,28.57,0,0,0,403.48,74.81Z"/><path class="cls-2" d="M447.41,77.39q.9,0,.9,1.17a5,5,0,0,1-1.41,3.19,6.91,6.91,0,0,1-5.53,2.41c-2.66,0-4.49-1.08-5.47-3.23a6.22,6.22,0,0,1-.55-2.75,13.06,13.06,0,0,1,.57-3.59,43.53,43.53,0,0,1,1.41-4.16q.84-2.19,1.83-4.42L441,61.68q2-4.84,2-6.39a4.17,4.17,0,0,0-.33-2,2.78,2.78,0,0,0-.7-.77l-.69-.48a1,1,0,0,1-.34-.85,1.76,1.76,0,0,1,.46-1.15,4.29,4.29,0,0,1,1.22-1,7.81,7.81,0,0,1,3.61-.79q5.06,0,5.06,2.65A19,19,0,0,1,449.65,58c-1.08,2.65-2,4.78-2.75,6.41l-2.06,4.74q-2.26,5.24-2.27,7.53a1.34,1.34,0,0,0,1.51,1.52,5.22,5.22,0,0,0,2.24-.38A3,3,0,0,1,447.41,77.39Zm7-37.21a6.2,6.2,0,0,1-1.72,1.3,5.58,5.58,0,0,1-2,.62,3.74,3.74,0,0,1-2-.32,4.8,4.8,0,0,1-1.63-1.28A5.34,5.34,0,0,1,445.59,37a4.89,4.89,0,0,1,.57-2.63A4.61,4.61,0,0,1,447.59,33a5.79,5.79,0,0,1,3.11-1.07,9.53,9.53,0,0,1,2.27.21,4.47,4.47,0,0,1,1.49.68,3.31,3.31,0,0,1,1.69,2.77,6.91,6.91,0,0,1-.47,2.72A6.4,6.4,0,0,1,454.46,40.18Z"/><path class="cls-2" d="M482.59,54.74q-1.06,0-3,2c-1.3,1.36-2.44,2.61-3.4,3.73L473.24,64,467.6,71.2q-2,3.78-3.13,6.29l-1.85,4a10.14,10.14,0,0,1-1.26,2.08,1.83,1.83,0,0,1-1.44.6,4.82,4.82,0,0,1-1.76-.33A5,5,0,0,1,456.7,83a3.12,3.12,0,0,1-1.3-2.4,6.06,6.06,0,0,1,.75-2l1.31-2.79c.41-.82.89-1.88,1.44-3.16l1.93-4.71q4.05-10.14,4.05-13.1a2.69,2.69,0,0,0-1-2.33l-.68-.48a1,1,0,0,1-.35-.85,1.78,1.78,0,0,1,.47-1.15,4.16,4.16,0,0,1,1.22-1,7.33,7.33,0,0,1,5.53-.45,4.26,4.26,0,0,1,1.44.93A3.48,3.48,0,0,1,472.76,52a10.83,10.83,0,0,1-.33,2.63,24.15,24.15,0,0,1-.83,2.68c-.33.91-.68,1.79-1,2.66s-.7,1.63-1,2.27l-.69,1.48c-.18.37-.23.48-.14.35q3.82-5.3,5-6.81l2.41-2.89a23.55,23.55,0,0,1,4.16-4.09q3.06-2.05,4.81-2.06a8.5,8.5,0,0,1,3,.45A6.08,6.08,0,0,1,490.18,50a5.84,5.84,0,0,1,1.9,4.47,14.76,14.76,0,0,1-1.24,5.67c-.83,2-1.54,3.57-2.15,4.79s-1.19,2.47-1.74,3.73q-2.58,5.75-2.58,8.36,0,1.17,1.86,1.17a5.64,5.64,0,0,0,2.63-.62,4.64,4.64,0,0,1,1.53-.62.64.64,0,0,1,.72.72A6,6,0,0,1,488,82.75a7,7,0,0,1-3.85,1.41,9.53,9.53,0,0,1-2.9-.38,5.52,5.52,0,0,1-2.05-1.2,6.48,6.48,0,0,1-2-5.09,26.85,26.85,0,0,1,2.51-10q1.81-4.08,2.57-5.6l1.17-2.44A8.72,8.72,0,0,0,484.48,56C484.48,55.16,483.85,54.74,482.59,54.74Z"/><path class="cls-2" d="M85.54,31c-5.69-.59-11.59.39-17.77,5.86a35,35,0,0,0-4.18-3c-2.21-1.06-3.41.31-4.05,1.78s-3,16.53-2.56,19.63c.27,1.9,1,2.52,3,2.51,2.4,0,16.71-4.67,18.9-5.89s2.34-2.42,1.06-4.29a38.87,38.87,0,0,0-4.19-4.06c3.12-3.1,6.86-3.1,10.42-2.57,11.7,1.75,19.82,7.72,19.29,19.62-.54,12.26-8.88,19.07-19.91,20.19-9,.91-16.89-2.62-18.88-13.59-.34-1.87-2.46-2.87-4.32-2.47l-2.45.53c-2.17.46-3.42,1.51-2.76,4.81,3,14.89,14.66,21.85,28.41,20.67,16.34-1.4,28.88-12.77,29.86-29.58C116.36,44.7,102.64,32.78,85.54,31Z"/></g></svg>
