<svg xmlns="http://www.w3.org/2000/svg" width="420" height="120" viewBox="0 0 420 120"><defs><style>.cls-1{fill:#75634e;}.cls-2{fill:#d8c5b2;}</style></defs><title>button_quit</title><g id="Buttons"><g id="Quit"><rect class="cls-1" x="2.06" y="4.59" width="415.88" height="110.81" rx="45.84"/><path class="cls-2" d="M372.1,6.09a44.39,44.39,0,0,1,44.34,44.34V69.57a44.39,44.39,0,0,1-44.34,44.34H47.9A44.39,44.39,0,0,1,3.56,69.57V50.43A44.39,44.39,0,0,1,47.9,6.09H372.1m0-3H47.9A47.48,47.48,0,0,0,.56,50.43V69.57A47.48,47.48,0,0,0,47.9,116.91H372.1a47.48,47.48,0,0,0,47.34-47.34V50.43A47.48,47.48,0,0,0,372.1,3.09Z"/><path class="cls-2" d="M156.17,84.39l-4.16.37a2,2,0,0,1-2-1,1.4,1.4,0,0,1,0-1.6,4.4,4.4,0,0,1,1.67-1c.79-.32,1.76-.67,2.9-1a32.09,32.09,0,0,0,3.89-1.59,22.59,22.59,0,0,0,4.67-3.11,42.94,42.94,0,0,0,4.92-4.84,55.39,55.39,0,0,0,4.57-6.1,51.94,51.94,0,0,0,3.78-7A36.35,36.35,0,0,0,180,42.69q0-7.63-5.84-7.63-4.37,0-9.32,4.64A36.23,36.23,0,0,0,157,50.6a28.58,28.58,0,0,0-3.3,12.58,11.58,11.58,0,0,0,.76,4.71,21,21,0,0,0,2.85,4.26,1.37,1.37,0,0,1,.11.6,2.16,2.16,0,0,1-.36,1,4.44,4.44,0,0,1-1,1.14,4.51,4.51,0,0,1-3,1.31,4.69,4.69,0,0,1-2.76-.92,8.22,8.22,0,0,1-2.25-2.45,13.62,13.62,0,0,1-2.17-7.6,35.6,35.6,0,0,1,1-8.49,42.14,42.14,0,0,1,2.87-8.08,38.49,38.49,0,0,1,4.44-7.17A31.92,31.92,0,0,1,160,35.78a22.61,22.61,0,0,1,14.13-5.19q9,0,12,8.63a21.29,21.29,0,0,1,1,6.92,26.76,26.76,0,0,1-1,7.45,39.38,39.38,0,0,1-2.73,6.91,48.91,48.91,0,0,1-4,6.46,54.63,54.63,0,0,1-4.73,5.67A37.15,37.15,0,0,1,165,80.26a28.65,28.65,0,0,1,6.25,2.86l5.13,3.12a35.32,35.32,0,0,0,6.51,3.41,12.35,12.35,0,0,0,3.54.79,4.53,4.53,0,0,0,1.74-.24,5.65,5.65,0,0,0,.89-.52l.69-.55a1,1,0,0,1,.65-.24c.62,0,.93.45.93,1.34a5.24,5.24,0,0,1-.5,2.34,5.74,5.74,0,0,1-1.43,1.79,7.7,7.7,0,0,1-5.29,1.85,16.79,16.79,0,0,1-5.67-.88,22.93,22.93,0,0,1-4.57-2.18,39.25,39.25,0,0,1-4-2.85,41,41,0,0,0-4-2.85A17.85,17.85,0,0,0,156.17,84.39Z"/><path class="cls-2" d="M223,77.27a.7.7,0,0,1,.79.79,5.93,5.93,0,0,1-3,5,8.3,8.3,0,0,1-4.67,1.31,5,5,0,0,1-3.37-1,5.84,5.84,0,0,1-2.1-4.54q0-3.41,2.86-10.42-5.29,7.16-7.43,9.51a37.56,37.56,0,0,1-3.71,3.66c-2.29,1.88-4.37,2.82-6.22,2.82q-4.26,0-5.67-3.68a7.46,7.46,0,0,1-.42-2.6,12.45,12.45,0,0,1,.5-3.26,33.74,33.74,0,0,1,1.29-3.77c.53-1.3,1.1-2.64,1.72-4l1.86-4.12Q199,55,198.08,53.52a4.36,4.36,0,0,0-1.54-1.31.89.89,0,0,1-.42-.84,1.7,1.7,0,0,1,.5-1.15,4.54,4.54,0,0,1,1.29-1,8,8,0,0,1,3.37-.79,6.79,6.79,0,0,1,2.56.37,4.24,4.24,0,0,1,1.43.91,3.49,3.49,0,0,1,1.13,2.51,12.12,12.12,0,0,1-.45,3.07c-.29,1.14-.68,2.37-1.16,3.7s-1,2.7-1.59,4.12q-2.37,5.58-3.19,7.36l-1.27,2.65a10,10,0,0,0-1.07,3.33,2.23,2.23,0,0,0,.31,1.36,1.37,1.37,0,0,0,1.12.39,3.4,3.4,0,0,0,1.87-.75,19.29,19.29,0,0,0,2.34-2q1.27-1.28,2.64-2.94t2.69-3.45a61.85,61.85,0,0,0,3.78-5.64q7.29-12.9,7.77-13.48a3,3,0,0,1,2.25-1.48,7.11,7.11,0,0,1,2,.26,4.57,4.57,0,0,1,1.48.74q1.44,1.07.93,2.13-8.4,17.5-9.05,22c-.11,1-.17,1.74-.17,2.13,0,1.75.53,2.62,1.58,2.62a4.92,4.92,0,0,0,2.44-.54A3.72,3.72,0,0,1,223,77.27Z"/><path class="cls-2" d="M243.12,77.62c.6,0,.9.38.9,1.16a5,5,0,0,1-1.41,3.2,7,7,0,0,1-5.54,2.41q-4,0-5.46-3.23a6.25,6.25,0,0,1-.55-2.75,13.47,13.47,0,0,1,.56-3.6c.38-1.31.85-2.7,1.41-4.16s1.18-2.92,1.84-4.41l1.82-4.33q2-4.86,2-6.4a4.15,4.15,0,0,0-.33-2,3,3,0,0,0-.7-.78l-.69-.48a1,1,0,0,1-.35-.84,1.76,1.76,0,0,1,.47-1.15,4.18,4.18,0,0,1,1.22-1,7.9,7.9,0,0,1,3.61-.79c3.37,0,5.05.89,5.05,2.65a19.25,19.25,0,0,1-1.61,7.07q-1.62,4-2.75,6.41l-2.07,4.74q-2.26,5.22-2.26,7.53a1.33,1.33,0,0,0,1.51,1.51A5,5,0,0,0,242,78,2.92,2.92,0,0,1,243.12,77.62Zm7-37.22a6.38,6.38,0,0,1-1.72,1.31,5.83,5.83,0,0,1-2,.62,3.64,3.64,0,0,1-2-.33,4.77,4.77,0,0,1-1.63-1.27,5.31,5.31,0,0,1-1.48-3.47,4.87,4.87,0,0,1,.57-2.63,4.72,4.72,0,0,1,1.42-1.43,5.79,5.79,0,0,1,3.11-1.06,10.13,10.13,0,0,1,2.27.2,4.65,4.65,0,0,1,1.5.69,3.3,3.3,0,0,1,1.68,2.77,6.87,6.87,0,0,1-.46,2.71A6.47,6.47,0,0,1,250.17,40.4Z"/><path class="cls-2" d="M273.52,75c.66,0,1,.44,1,1.34a4.08,4.08,0,0,1-.68,2.2,9.62,9.62,0,0,1-3.72,3.78,11.72,11.72,0,0,1-6.36,2c-3.69,0-6-1.65-7-5Q255,73.56,262,54.51c-2.64-.22-4.07-.68-4.3-1.37a2.09,2.09,0,0,1-.1-.67,1.56,1.56,0,0,1,.33-.84,4.78,4.78,0,0,1,.84-.93,3.78,3.78,0,0,1,2.44-1h2.72q3.7-8.7,5.29-9.9a2.82,2.82,0,0,1,1.68-.55,4.31,4.31,0,0,1,1.55.24,3.41,3.41,0,0,1,1.1.69,3.12,3.12,0,0,1,1.1,2.3,3.9,3.9,0,0,1-.41,1.58L271.7,49.6h.82c1.42,0,2.57,0,3.44,0l2,0c.43,0,1,0,1.63,0s1,.24,1,.72q0,4.53-10.73,4.53h-.27l-2.34,6.06q-3.94,10.72-3.95,15a2.86,2.86,0,0,0,.55,1.87,2.54,2.54,0,0,0,2.06.67,7.13,7.13,0,0,0,2.75-.51,11.91,11.91,0,0,0,2.17-1.16c.61-.42,1.15-.8,1.59-1.15A2.07,2.07,0,0,1,273.52,75Z"/><path class="cls-2" d="M93.57,59.42s17.55-15.64,19.3-19.3a5.41,5.41,0,0,0,0-4.56,14.51,14.51,0,0,0-4.43-4.44,4.23,4.23,0,0,0-4.56,0c-4.43,3.09-19.3,19.3-19.3,19.3a1.28,1.28,0,0,1-1.81,0s-16.24-17-19.3-19.3c-1.78-1.32-2.77-1.14-4.55,0a15,15,0,0,0-4.44,4.44,4.46,4.46,0,0,0,0,4.56c1.51,3.17,19.3,19.3,19.3,19.3a1.27,1.27,0,0,1,0,1.8s-17.62,16.61-19.3,19.3a5,5,0,0,0,0,4.56c.7,1.51,3.14,3.48,4.44,4.44s2.87.85,4.55,0c4.85-2.45,19.3-19.3,19.3-19.3a1.28,1.28,0,0,1,1.81,0s14.87,17.34,19.3,19.3a4.88,4.88,0,0,0,4.56,0,16.42,16.42,0,0,0,4.43-4.44,4.64,4.64,0,0,0,0-4.56c-2.07-3.83-19.3-19.3-19.3-19.3A1.27,1.27,0,0,1,93.57,59.42Z"/></g></g></svg>