<svg xmlns="http://www.w3.org/2000/svg" width="420" height="120" viewBox="0 0 420 120"><defs><style>.cls-1{fill:#614d7c;}.cls-2{fill:#d8c5b2;}</style></defs><title>button_play</title><g id="Buttons"><g id="Play"><rect class="cls-1" x="2.06" y="4.59" width="415.88" height="110.81" rx="45.84"/><path class="cls-2" d="M372.1,6.09a44.39,44.39,0,0,1,44.34,44.34V69.57a44.39,44.39,0,0,1-44.34,44.34H47.9A44.39,44.39,0,0,1,3.56,69.57V50.43A44.39,44.39,0,0,1,47.9,6.09H372.1m0-3H47.9A47.48,47.48,0,0,0,.56,50.43V69.57A47.48,47.48,0,0,0,47.9,116.91H372.1a47.48,47.48,0,0,0,47.34-47.34V50.43A47.48,47.48,0,0,0,372.1,3.09Z"/><path class="cls-2" d="M155.32,74.67a38.28,38.28,0,0,1-5,6.22,7,7,0,0,1-4.76,2.39,2.48,2.48,0,0,1-1.76-.55,2.41,2.41,0,0,1-1-1.68,1.36,1.36,0,0,1,.51-1.17q5.19-3.75,11.52-22l2-5.78q3.5-9.9,5.94-12.27a2.94,2.94,0,0,1,1.79-.65,4.22,4.22,0,0,1,1.62.29,4.84,4.84,0,0,1,1.2.74,3.13,3.13,0,0,1,1.17,2.41,3.69,3.69,0,0,1-.48,1.47c-.32.65-.69,1.48-1.1,2.51l-4.37,12.14a25.48,25.48,0,0,0,13.79-6.91q5.09-5.05,5.08-10.38,0-5.06-4.54-6.64a10.83,10.83,0,0,0-3.59-.55,17.9,17.9,0,0,0-4.17.52,30.57,30.57,0,0,0-4.2,1.34,24.47,24.47,0,0,0-6.8,4,2.16,2.16,0,0,1-1.52.66,3.51,3.51,0,0,1-1.54-.35,4.4,4.4,0,0,1-1.27-.89A3.43,3.43,0,0,1,152.58,37a3.25,3.25,0,0,1,.9-2.25A8.6,8.6,0,0,1,155.85,33a21.72,21.72,0,0,1,3.4-1.44c1.28-.42,2.6-.78,3.95-1.08a40.37,40.37,0,0,1,8.2-.86,26.08,26.08,0,0,1,7.46,1,16.87,16.87,0,0,1,5.59,2.74,10.58,10.58,0,0,1,4.43,8.73v.55A17.54,17.54,0,0,1,184,54.06a27.65,27.65,0,0,1-10.38,6.78,29.65,29.65,0,0,1-10.87,2.26h-.89A6,6,0,0,1,161,63,65.52,65.52,0,0,1,155.32,74.67Z"/><path class="cls-2" d="M190.16,81.67a6.71,6.71,0,0,1-1.39-2.29,8.89,8.89,0,0,1-.53-3.23,19.91,19.91,0,0,1,.84-4.93c.56-2.07,1.28-4.41,2.15-7l2.88-8.56q6.16-17.88,7.12-27.64.32-2.88,2.82-2.88a4.33,4.33,0,0,1,2.61.75,4.07,4.07,0,0,1,1.93,3.37,26.58,26.58,0,0,1-.66,4.52c-.39,1.78-.89,3.71-1.51,5.81s-1.33,4.31-2.13,6.65l-4.74,14q-4.1,11.9-4.09,15.36c0,1.24.5,1.86,1.51,1.86a5.64,5.64,0,0,0,2.63-.62,4.89,4.89,0,0,1,1.53-.62.64.64,0,0,1,.72.72q0,3.06-3.13,5.13a7,7,0,0,1-3.83,1.41,7.75,7.75,0,0,1-2.8-.42A5.32,5.32,0,0,1,190.16,81.67Z"/><path class="cls-2" d="M236.44,73.9c0,2.11.74,3.16,2.23,3.16a6,6,0,0,0,2.56-.48,4.25,4.25,0,0,1,1.36-.48q.72,0,.72.75c0,2-1,3.67-3.09,5.09a7.23,7.23,0,0,1-6.67,1.1,5.56,5.56,0,0,1-3.3-3.4,7,7,0,0,1-.52-2.44,22.25,22.25,0,0,1,.35-3.78q-3.2,6.52-7.94,9a8.76,8.76,0,0,1-4,1,7.5,7.5,0,0,1-3.7-.88,8.06,8.06,0,0,1-2.66-2.42,12.94,12.94,0,0,1-2-8.12,25.32,25.32,0,0,1,3.61-12,28.08,28.08,0,0,1,7.9-9q4.78-3.54,8.94-3.54a7.74,7.74,0,0,1,6.7,3.82c1.59-2.54,3-3.82,4.2-3.82a4.94,4.94,0,0,1,2.95.73c1.26.91,1.71,1.71,1.34,2.4q-8.62,17.67-8.86,22A10.91,10.91,0,0,0,236.44,73.9ZM217.36,74q0,4.13,2.65,4.12c1.35,0,3-1.14,5-3.44a47.2,47.2,0,0,0,7.67-13.61,48.75,48.75,0,0,0,1.78-5.36,4,4,0,0,0-2-3.44,3.57,3.57,0,0,0-1.83-.38,6.12,6.12,0,0,0-2.86.9,13.64,13.64,0,0,0-3.16,2.44,20.89,20.89,0,0,0-2.85,3.66A29.41,29.41,0,0,0,217.36,74Z"/><path class="cls-2" d="M249.71,79.71a7.71,7.71,0,0,1-.41-2.6,12.45,12.45,0,0,1,.5-3.26,33.74,33.74,0,0,1,1.29-3.77c.52-1.3,1.1-2.64,1.72-4l1.85-4.12q3.59-7.95,2.65-9.42a4.41,4.41,0,0,0-1.55-1.31.9.9,0,0,1-.41-.84,1.7,1.7,0,0,1,.5-1.15,4.54,4.54,0,0,1,1.29-1,7.94,7.94,0,0,1,3.37-.79,7.07,7.07,0,0,1,2.56.36,4.36,4.36,0,0,1,1.42.92,3.46,3.46,0,0,1,1.14,2.51,12.12,12.12,0,0,1-.45,3.07c-.3,1.14-.69,2.37-1.17,3.7s-1,2.7-1.58,4.12c-1.58,3.71-2.65,6.17-3.19,7.36L258,72.15a9.89,9.89,0,0,0-1.06,3.33,2.25,2.25,0,0,0,.31,1.36,1.34,1.34,0,0,0,1.11.39,3.35,3.35,0,0,0,1.79-.62A15,15,0,0,0,262.23,75a31.56,31.56,0,0,0,2.35-2.39c.81-.9,1.61-1.85,2.39-2.83a45.64,45.64,0,0,0,4.54-6.5q7.42-13.68,7.87-14.3a3.09,3.09,0,0,1,2.29-1.48,7.16,7.16,0,0,1,2,.26,4.42,4.42,0,0,1,1.47.74c.92.67,1.2,1.41.85,2.24s-.79,1.95-1.29,3.4Q278.17,73,276.23,77.71t-3.38,7.51A53.3,53.3,0,0,1,269.46,91a42.52,42.52,0,0,1-4.14,5.26q-5,5.36-9.42,5.74a4.38,4.38,0,0,1-2.68-.48c-1.15-.69-1.72-1.34-1.72-2s.52-1.05,1.57-1.29a10.22,10.22,0,0,0,3.23-1.44,24.23,24.23,0,0,0,3.21-2.53,33.86,33.86,0,0,0,7.05-9.42A71.28,71.28,0,0,0,270,76.37l2.69-8.18c-.67.8-1.4,1.74-2.2,2.82L268,74.31a38.09,38.09,0,0,1-5.36,5.81c-2.71,2.18-5.12,3.27-7.25,3.27Q251.12,83.39,249.71,79.71Z"/><g id="Play-2" data-name="Play"><path class="cls-2" d="M101.88,55.74C98.28,51.48,68.63,33.05,63.21,31s-7.79-.53-9.21,4.53-1.41,44,0,49.51,5.65,5.61,9.21,4.53S97,70.19,101.88,64.79C104.86,61.48,104.9,59.32,101.88,55.74Z"/></g></g></g></svg>