<svg xmlns="http://www.w3.org/2000/svg" width="310" height="230" viewBox="0 0 310 230"><defs><style>.cls-1{fill:#f2f2f2;}.cls-2{fill:lime;stroke:#006837;stroke-miterlimit:10;stroke-width:7px;}.cls-3{fill:#005000;}.cls-4{fill:#f78b2b;}.cls-5{fill:#2e489a;}.cls-6{fill:#eaf2f2;}.cls-7{fill:#ffb0ff;opacity:0.89;}.cls-8{fill:#4d4d4d;}</style></defs><title>carrot</title><g id="Dreams"><ellipse class="cls-1" cx="166.96" cy="115" rx="87.16" ry="68.24"/><ellipse class="cls-1" cx="103.73" cy="46.76" rx="50.13" ry="39.25"/><ellipse class="cls-1" cx="53.6" cy="99.39" rx="50.13" ry="39.25"/><ellipse class="cls-1" cx="70.69" cy="159.16" rx="50.13" ry="39.25"/><ellipse class="cls-1" cx="129.93" cy="190.38" rx="50.13" ry="39.25"/><ellipse class="cls-1" cx="217.66" cy="186.81" rx="50.13" ry="39.25"/><ellipse class="cls-1" cx="193.74" cy="39.62" rx="50.13" ry="39.25"/><ellipse class="cls-1" cx="256.4" cy="79.76" rx="50.13" ry="39.25"/><ellipse class="cls-1" cx="256.4" cy="145.78" rx="50.13" ry="39.25"/><line class="cls-2" x1="136.48" y1="76.38" x2="171.47" y2="76.38"/><path class="cls-3" d="M133.16,82.13,130.84,66.3c-.44-3,1.19-3.06,3.21-.15l8.16,11.76"/><path class="cls-3" d="M135.36,85.34l1.83-28.4c.35-5.35,3.06-4.8,5.36,1.08l9.26,23.81"/><path class="cls-3" d="M139.57,84.46l4.63-35c.87-6.59,5-6.09,8.05,1l12.53,28.62"/><path class="cls-3" d="M137.07,99.24l-10.31-26c-1.94-4.89.2-5,4.23-.16l16.3,19.47"/><path class="cls-3" d="M174.67,80.85,177,65c.44-3-1.19-3.06-3.21-.15l-8.17,11.76"/><path class="cls-3" d="M172.47,84.07l-1.84-28.41c-.34-5.35-3.06-4.8-5.35,1.08L156,80.55"/><path class="cls-3" d="M167.35,82.27l-4.63-35c-.87-6.59-4.95-6.09-8.05,1L142.15,76.89"/><path class="cls-3" d="M170.76,99.31l10.31-26c1.94-4.9-.21-5-4.24-.17L160.54,92.62"/><path class="cls-4" d="M141.83,178.65,115.45,92.72a12.72,12.72,0,0,1,12.16-16.45h52.76a12.72,12.72,0,0,1,12.16,16.45l-26.38,85.93C162.47,190.63,145.51,190.63,141.83,178.65Z"/><circle class="cls-5" cx="140.75" cy="99.31" r="10.32"/><circle class="cls-6" cx="142.93" cy="97.13" r="5.39"/><circle class="cls-6" cx="135.7" cy="104.12" r="2.06"/><circle class="cls-5" cx="167.35" cy="99.31" r="10.32"/><circle class="cls-6" cx="168.84" cy="97.13" r="5.39"/><circle class="cls-6" cx="162.77" cy="104.12" r="2.06"/><ellipse class="cls-7" cx="140.86" cy="118.8" rx="5.85" ry="3.44"/><ellipse class="cls-7" cx="167.47" cy="118.8" rx="5.85" ry="3.44"/><path class="cls-8" d="M146.57,140.57a5.18,5.18,0,0,1-2.11-.45c-3.81-1.69-6-7.79-4.42-12.31l2.13.75c-1.19,3.39.46,8.28,3.21,9.5,2.23,1,4.74-.82,7.07-5.08a1.86,1.86,0,0,1,1.68-.94,1.77,1.77,0,0,1,1.58,1c1.08,2.14,3.31,5.59,6.23,4.57,2.59-.9,4.67-5,4.05-8a2.76,2.76,0,0,1,.29-1.92l0,0,2,1.13,0,.05a.51.51,0,0,0,0,.33c.86,4.14-1.82,9.28-5.52,10.57-1.51.52-5.3,1-8.61-5C151.29,139.46,148.53,140.57,146.57,140.57Z"/></g></svg>
