<svg xmlns="http://www.w3.org/2000/svg" width="180" height="160" viewBox="0 0 180 160"><defs><style>.cls-1{fill:lime;stroke:#006837;stroke-miterlimit:10;stroke-width:7px;}.cls-2{fill:#005000;}.cls-3{fill:#f78b2b;}.cls-4{fill:#2e489a;}.cls-5{fill:#eaf2f2;}.cls-6{fill:#ffb0ff;opacity:0.89;}.cls-7{fill:#4d4d4d;}</style></defs><title>carrot</title><g id="Dreams"><line class="cls-1" x1="71.28" y1="38.57" x2="108.68" y2="38.57"/><path class="cls-2" d="M67.73,44.72,65.25,27.8c-.47-3.19,1.27-3.27,3.43-.16l8.73,12.57"/><path class="cls-2" d="M70.08,48.16l2-30.37c.37-5.72,3.28-5.13,5.73,1.16l9.9,25.45"/><path class="cls-2" d="M74.59,47.21,79.53,9.8c.94-7,5.3-6.51,8.61,1.06l13.39,30.6"/><path class="cls-2" d="M71.91,63l-11-27.79c-2.08-5.23.22-5.32,4.53-.18L82.84,55.86"/><path class="cls-2" d="M112.1,43.36l2.49-16.93c.46-3.18-1.28-3.27-3.44-.16l-8.73,12.57"/><path class="cls-2" d="M109.75,46.79l-2-30.36c-.37-5.73-3.27-5.14-5.72,1.16L92.16,43"/><path class="cls-2" d="M104.28,44.88,99.34,7.47c-.94-7-5.3-6.51-8.61,1L77.34,39.12"/><path class="cls-2" d="M107.92,63.09l11-27.79c2.08-5.23-.21-5.32-4.52-.18L97,55.94"/><path class="cls-3" d="M77,147.89,48.81,56a13.59,13.59,0,0,1,13-17.59h56.4a13.59,13.59,0,0,1,13,17.59L103,147.89C99.07,160.7,80.93,160.7,77,147.89Z"/><circle class="cls-4" cx="75.84" cy="63.08" r="11.03"/><circle class="cls-5" cx="78.17" cy="60.75" r="5.76"/><circle class="cls-5" cx="70.45" cy="68.23" r="2.21"/><circle class="cls-4" cx="104.28" cy="63.08" r="11.03"/><circle class="cls-5" cx="105.88" cy="60.75" r="5.76"/><circle class="cls-5" cx="99.38" cy="68.23" r="2.21"/><ellipse class="cls-6" cx="75.97" cy="83.92" rx="6.25" ry="3.68"/><ellipse class="cls-6" cx="104.41" cy="83.92" rx="6.25" ry="3.68"/><path class="cls-7" d="M82.07,107.19a5.64,5.64,0,0,1-2.26-.48c-4.07-1.81-6.41-8.33-4.72-13.15l2.27.79c-1.26,3.63.5,8.85,3.43,10.16,2.39,1,5.07-.87,7.56-5.44a2,2,0,0,1,1.8-1,1.91,1.91,0,0,1,1.69,1c1.15,2.29,3.54,6,6.65,4.89,2.77-1,5-5.35,4.34-8.52a2.89,2.89,0,0,1,.31-2l0-.06,2.09,1.21,0,0a.51.51,0,0,0,0,.35c.92,4.43-2,9.92-5.9,11.3-1.62.56-5.67,1.12-9.21-5.34C87.11,106,84.16,107.19,82.07,107.19Z"/></g></svg>
