<svg xmlns="http://www.w3.org/2000/svg" width="350" height="320" viewBox="0 0 350 320"><defs><style>.cls-1{fill:#b3b3b3;}.cls-2{fill:#666;}.cls-3{fill:#4d4d4d;}.cls-4{fill:#e6e6e6;}</style></defs><title>e_asleep_unhappy</title><g id="Elephant"><g id="Ears"><path class="cls-1" d="M287.64,5.23C245.79,2.66,205.19,43.69,197,96.87a121.11,121.11,0,0,0-1.29,25,48.13,48.13,0,0,1-7.12,28.18c-13.23,21.29-10,51.48,10.76,76.78,27.62,33.62,75.78,45.85,107.58,27.33,23.53-13.71,31.5-40.42,22.87-67a46.93,46.93,0,0,1,3.92-38.07,126.33,126.33,0,0,0,14.85-42.93C356.76,53,329.49,7.8,287.64,5.23Z"/><path class="cls-1" d="M159.67,147.38A31.18,31.18,0,0,1,154,126.2a119.43,119.43,0,0,0-1-29.33C144.81,43.69,104.21,2.66,62.36,5.23S-6.76,53,1.46,106.16A125.76,125.76,0,0,0,19.2,153.92,30.92,30.92,0,0,1,22,182.28c-11.32,28.14-3.87,57.33,21.1,71.88,31.8,18.52,80,6.29,107.58-27.33C172.34,200.46,174.92,168.76,159.67,147.38Z"/></g><g id="Trunk"><path class="cls-1" d="M7.88,299l2.44-43.82a3.73,3.73,0,0,1,5.52-3.07c11.72,6.47,74.53,25.71,107.73,6.41,29.67-17.25,25.55-88.44,27.59-88.44l57.71-.31v.38c0,39.87,6.52,90.27-45.16,128.52-35.05,25.93-115.91,25.54-156.18.41"/></g><g id="Head"><circle class="cls-1" cx="175.31" cy="115.82" r="113.84"/></g><path class="cls-2" d="M158.13,115.51l-1.45.85c-6.49,3.78-15,5.8-23.81,5.71-9.14-.1-17.65-2.42-24-6.53l-2.89.78c7,4.52,16.47,7.07,26.78,7.18,10,.11,19.52-2.13,26.69-6.31l1.45-.84Z"/><path class="cls-2" d="M242.73,115.51l-1.45.85c-6.48,3.78-14.95,5.8-23.81,5.71-9.14-.1-17.65-2.42-24-6.53l-2.89.78c7,4.52,16.47,7.07,26.79,7.18,10,.11,19.51-2.13,26.68-6.31l1.46-.84Z"/><ellipse class="cls-3" cx="214.53" cy="105.16" rx="25.07" ry="7.94"/><ellipse class="cls-3" cx="133.59" cy="105.16" rx="25.07" ry="7.94"/><ellipse class="cls-4" cx="138.88" cy="103.49" rx="13.09" ry="4.15"/><ellipse class="cls-4" cx="121.33" cy="108.87" rx="5.01" ry="1.59"/><ellipse class="cls-4" cx="218.15" cy="103.49" rx="13.09" ry="4.15"/><ellipse class="cls-4" cx="203.39" cy="108.87" rx="5.01" ry="1.59"/><path class="cls-2" d="M198.09,217a73.46,73.46,0,0,0-25.89-5.18c-18.83,0-30.83,5.13-30.95,5.18l-1.5-3.45c.52-.23,12.84-5.49,32.45-5.49a75.79,75.79,0,0,1,27.39,5.49Z"/><path class="cls-2" d="M194.23,234.49a56.66,56.66,0,0,0-22.35-5.13c-16.31,0-26.67,5.08-26.77,5.13l-1.69-3.37c.46-.22,11.28-5.53,28.46-5.53a59.56,59.56,0,0,1,24,5.53Z"/><path class="cls-2" d="M149,252l-1.9-3.25c.39-.22,9.7-5.59,24.47-5.59a45.45,45.45,0,0,1,20.71,5.59l-1.9,3.25c-.09-.05-8.81-5.07-18.81-5.07C157.87,246.92,149.06,251.94,149,252Z"/></g></svg>
