<svg xmlns="http://www.w3.org/2000/svg" width="350" height="320" viewBox="0 0 350 320"><defs><style>.cls-1{fill:#b3b3b3;}.cls-2{fill:#666;}</style></defs><title>e_asleep_happy</title><g id="Elephant"><g id="Ears"><path class="cls-1" d="M287.64,3.66C245.79,1.1,205.19,42.12,197,95.3a121.11,121.11,0,0,0-1.29,25,48.11,48.11,0,0,1-7.12,28.18c-13.23,21.29-10,51.49,10.76,76.78,27.62,33.62,75.78,45.86,107.58,27.33,23.53-13.71,31.5-40.42,22.87-67a46.9,46.9,0,0,1,3.92-38.06,126.46,126.46,0,0,0,14.85-42.94C356.76,51.42,329.49,6.23,287.64,3.66Z"/><path class="cls-1" d="M159.67,145.81A31.16,31.16,0,0,1,154,124.63a119.43,119.43,0,0,0-1-29.33C144.81,42.12,104.21,1.1,62.36,3.66S-6.76,51.42,1.46,104.59A125.81,125.81,0,0,0,19.2,152.36,30.9,30.9,0,0,1,22,180.71C10.68,208.86,18.13,238,43.1,252.59c31.8,18.53,80,6.29,107.58-27.33C172.34,198.89,174.92,167.19,159.67,145.81Z"/></g><g id="Trunk"><path class="cls-1" d="M7.88,297.44l2.44-43.83a3.74,3.74,0,0,1,5.52-3.07C27.56,257,90.37,276.25,123.57,257c29.67-17.25,25.55-88.44,27.59-88.44l57.71-.31v.39c0,39.86,6.52,90.26-45.16,128.51C128.66,323,47.8,322.64,7.53,297.51"/></g><g id="Head"><circle class="cls-1" cx="175" cy="117.39" r="113.84"/></g><path class="cls-2" d="M165.32,105.63l-1.6-2.22c-7.1-9.92-16.39-15.25-26.09-15-10,.25-19.35,6.34-26.28,17.14l-3.17-2c7.63-11.88,18-18.58,29.35-18.87,11-.28,21.4,5.6,29.25,16.57l1.6,2.22Z"/><path class="cls-2" d="M245,105.63l-1.6-2.22c-7.1-9.92-16.39-15.25-26.09-15-10,.25-19.35,6.34-26.28,17.14l-3.17-2c7.63-11.88,18-18.58,29.35-18.87,11-.28,21.4,5.6,29.25,16.57l1.59,2.22Z"/><path class="cls-2" d="M198.09,215.4a73.46,73.46,0,0,0-25.89-5.18c-18.83,0-30.83,5.13-30.95,5.18l-1.5-3.45c.52-.23,12.84-5.49,32.45-5.49A75.79,75.79,0,0,1,199.59,212Z"/><path class="cls-2" d="M194.23,232.92a56.66,56.66,0,0,0-22.35-5.13c-16.31,0-26.67,5.08-26.77,5.13l-1.69-3.37c.46-.22,11.28-5.53,28.46-5.53a59.56,59.56,0,0,1,24,5.53Z"/><path class="cls-2" d="M149,250.42l-1.9-3.24c.39-.23,9.7-5.59,24.47-5.59a45.31,45.31,0,0,1,20.71,5.59l-1.9,3.24c-.09,0-8.81-5.07-18.81-5.07C157.87,245.35,149.06,250.37,149,250.42Z"/></g></svg>
