<svg xmlns="http://www.w3.org/2000/svg" width="310" height="230" viewBox="0 0 310 230"><defs><style>.cls-1{fill:#f2f2f2;}.cls-2{opacity:0.9;}.cls-3{fill:#006837;}.cls-4{fill:#ffb0ff;}.cls-5{fill:#b3b3b3;}.cls-6{fill:#ff4c76;}.cls-7{fill:#2e489a;}.cls-8{fill:#eaf2f2;}.cls-9{opacity:0.89;}.cls-10{fill:#4d4d4d;}.cls-11{opacity:0.15;}.cls-12{fill:#fff;}</style></defs><title>lollipop</title><g id="Dreams"><ellipse class="cls-1" cx="166.96" cy="115" rx="87.16" ry="68.24"/><ellipse class="cls-1" cx="103.73" cy="46.76" rx="50.13" ry="39.25"/><ellipse class="cls-1" cx="53.6" cy="99.39" rx="50.13" ry="39.25"/><ellipse class="cls-1" cx="70.69" cy="159.16" rx="50.13" ry="39.25"/><ellipse class="cls-1" cx="129.93" cy="190.38" rx="50.13" ry="39.25"/><ellipse class="cls-1" cx="217.66" cy="186.81" rx="50.13" ry="39.25"/><ellipse class="cls-1" cx="193.74" cy="39.62" rx="50.13" ry="39.25"/><ellipse class="cls-1" cx="256.4" cy="79.76" rx="50.13" ry="39.25"/><ellipse class="cls-1" cx="256.4" cy="145.78" rx="50.13" ry="39.25"/><g class="cls-2"><rect class="cls-3" x="148.59" y="122.23" width="15.13" height="6.26"/><path class="cls-4" d="M147.16,123.73l-1,4.5c-.18.85.52.87,1.39,0l3.53-3.34"/><path class="cls-4" d="M148.11,122.82l.79,8.07c.15,1.52,1.33,1.36,2.32-.31l4-6.76"/><path class="cls-4" d="M149.93,123.07l2,9.94c.38,1.88,2.15,1.74,3.49-.28l5.41-8.13"/><path class="cls-4" d="M148.85,118.87l-4.46,7.39c-.84,1.39.09,1.41,1.83,0l7.05-5.53"/><path class="cls-4" d="M165.11,124.09l1,4.5c.19.85-.51.87-1.39,0l-3.53-3.35"/><path class="cls-4" d="M164.16,123.18l-.8,8.07c-.15,1.52-1.32,1.37-2.31-.3l-4-6.77"/><path class="cls-4" d="M161.94,123.69l-2,9.94c-.37,1.88-2.14,1.74-3.48-.28l-5.41-8.13"/><path class="cls-4" d="M163.42,118.85l4.46,7.38c.84,1.4-.09,1.42-1.83,0L159,120.75"/></g><rect class="cls-5" x="153.56" y="97.65" width="5.12" height="92.16"/><circle class="cls-4" cx="156.12" cy="86.13" r="41.32"/><circle class="cls-6" cx="156.12" cy="86.13" r="39.68"/><circle class="cls-7" cx="145.41" cy="76.82" r="8.36"/><circle class="cls-8" cx="147.17" cy="75.05" r="4.37"/><circle class="cls-8" cx="141.32" cy="80.72" r="1.67"/><circle class="cls-7" cx="166.96" cy="76.82" r="8.36"/><circle class="cls-8" cx="168.17" cy="75.05" r="4.37"/><circle class="cls-8" cx="163.24" cy="80.72" r="1.67"/><g class="cls-9"><ellipse class="cls-4" cx="145.5" cy="92.61" rx="4.74" ry="2.79"/></g><g class="cls-9"><ellipse class="cls-4" cx="167.05" cy="92.61" rx="4.74" ry="2.79"/></g><path class="cls-10" d="M150.13,110.24a4.12,4.12,0,0,1-1.71-.36c-3.09-1.37-4.86-6.31-3.58-10l1.72.61c-1,2.75.38,6.7,2.6,7.69,1.81.8,3.84-.66,5.73-4.12a1.52,1.52,0,0,1,1.36-.75,1.42,1.42,0,0,1,1.28.77c.87,1.73,2.68,4.52,5,3.7,2.1-.73,3.79-4,3.29-6.46a2.18,2.18,0,0,1,.23-1.55l0,0,1.58.91,0,0a.34.34,0,0,0,0,.27c.7,3.35-1.48,7.51-4.48,8.56-1.22.42-4.29.84-7-4C154,109.35,151.71,110.24,150.13,110.24Z"/><g class="cls-11"><rect class="cls-12" x="114.8" y="44.81" width="82.65" height="145"/></g></g></svg>
