<svg xmlns="http://www.w3.org/2000/svg" width="180" height="160" viewBox="0 0 180 160"><defs><style>.cls-1{opacity:0.9;}.cls-2{fill:#006837;}.cls-3{fill:#ffb0ff;}.cls-4{fill:#b3b3b3;}.cls-5{fill:#ff4c76;}.cls-6{fill:#2e489a;}.cls-7{fill:#eaf2f2;}.cls-8{opacity:0.89;}.cls-9{fill:#4d4d4d;}.cls-10{opacity:0.15;}.cls-11{fill:#fff;}</style></defs><title>lollipop</title><g id="Dreams"><g class="cls-1"><rect class="cls-2" x="81.58" y="85.51" width="16.92" height="7"/><path class="cls-3" d="M80,87.18l-1.13,5c-.21,1,.58,1,1.56.05l4-3.74"/><path class="cls-3" d="M81,86.16l.89,9c.16,1.7,1.48,1.52,2.59-.35L89,87.28"/><path class="cls-3" d="M83.08,86.44l2.24,11.12c.42,2.1,2.39,1.94,3.89-.31l6.06-9.1"/><path class="cls-3" d="M81.87,81.74l-5,8.26c-.94,1.56.1,1.59,2.05.06l7.88-6.19"/><path class="cls-3" d="M100.05,87.59l1.12,5c.22.95-.57,1-1.55,0l-4-3.74"/><path class="cls-3" d="M99,86.57l-.89,9c-.17,1.7-1.48,1.53-2.59-.34L91,87.68"/><path class="cls-3" d="M96.51,87.13,94.27,98.26c-.42,2.09-2.39,1.93-3.89-.32l-6.06-9.1"/><path class="cls-3" d="M98.16,81.72l5,8.26c.94,1.56-.1,1.58-2.05,0l-7.88-6.19"/></g><rect class="cls-4" x="87.14" y="58.02" width="5.73" height="103.07"/><circle class="cls-3" cx="90" cy="45.13" r="46.22"/><circle class="cls-5" cx="90" cy="45.13" r="44.38"/><circle class="cls-6" cx="78.02" cy="34.72" r="9.35"/><circle class="cls-7" cx="79.99" cy="32.74" r="4.88"/><circle class="cls-7" cx="73.45" cy="39.08" r="1.87"/><circle class="cls-6" cx="102.12" cy="34.72" r="9.35"/><circle class="cls-7" cx="103.47" cy="32.74" r="4.88"/><circle class="cls-7" cx="97.97" cy="39.08" r="1.87"/><g class="cls-8"><ellipse class="cls-3" cx="78.12" cy="52.38" rx="5.3" ry="3.12"/></g><g class="cls-8"><ellipse class="cls-3" cx="102.23" cy="52.38" rx="5.3" ry="3.12"/></g><path class="cls-9" d="M83.3,72.09a4.75,4.75,0,0,1-1.92-.4c-3.45-1.53-5.43-7.06-4-11.15l1.93.68c-1.08,3.07.42,7.5,2.9,8.6,2,.9,4.3-.74,6.41-4.6a1.68,1.68,0,0,1,1.53-.85,1.61,1.61,0,0,1,1.43.86c1,1.94,3,5.06,5.63,4.15,2.35-.82,4.24-4.53,3.68-7.23a2.5,2.5,0,0,1,.26-1.74l0,0,1.77,1,0,0a.46.46,0,0,0,0,.3c.78,3.75-1.65,8.4-5,9.57-1.37.47-4.8.94-7.81-4.52C87.57,71.09,85.07,72.09,83.3,72.09Z"/><g class="cls-10"><rect class="cls-11" x="43.78" y="-1.08" width="92.43" height="162.16"/></g></g></svg>
