<svg xmlns="http://www.w3.org/2000/svg" width="180" height="160" viewBox="0 0 180 160"><defs><style>.cls-1{opacity:0.75;}.cls-2{fill:gray;}.cls-3{fill:#00002b;}.cls-4{fill:#eaf2f2;}.cls-5{fill:#4d4d4d;}.cls-6{fill:#534741;}</style></defs><title>mouse</title><g id="Dreams"><g class="cls-1"><circle class="cls-2" cx="90.21" cy="84.1" r="52.4"/><circle class="cls-2" cx="141.32" cy="61.78" r="38.28"/><circle class="cls-2" cx="38.68" cy="61.78" r="38.28"/><circle class="cls-3" cx="72.01" cy="79.99" r="13.72"/><circle class="cls-4" cx="74.91" cy="77.1" r="7.17"/><circle class="cls-4" cx="65.3" cy="86.4" r="2.74"/><circle class="cls-3" cx="107.38" cy="79.99" r="13.72"/><circle class="cls-4" cx="109.37" cy="77.1" r="7.17"/><circle class="cls-4" cx="101.29" cy="86.4" r="2.74"/><path class="cls-5" d="M96,114.07h0a7.47,7.47,0,0,0-6.48-11.21h0A7.47,7.47,0,0,0,83,114.07h0A7.47,7.47,0,0,0,96,114.07Z"/><path class="cls-6" d="M103,106.25l-1-1.17a85.26,85.26,0,0,1,50.66-19.35h.25l.07,1.5h-.26A84.35,84.35,0,0,0,103,106.25Z"/><path class="cls-6" d="M102.93,109.81l-.63-1.37a85.27,85.27,0,0,1,53.91-5.86l.25,0-.32,1.48-.25-.06A84.37,84.37,0,0,0,102.93,109.81Z"/><path class="cls-6" d="M156.8,120l-.22-.11a84.28,84.28,0,0,0-52.77-7.27l-.28-1.48a85.17,85.17,0,0,1,53.72,7.4l.22.11Z"/><path class="cls-6" d="M76,106.25a84.35,84.35,0,0,0-49.76-19H26l.07-1.5h.25A85.26,85.26,0,0,1,77,105.08Z"/><path class="cls-6" d="M76,109.81a84.37,84.37,0,0,0-53-5.76l-.25.06-.32-1.48.25,0a85.27,85.27,0,0,1,53.91,5.86Z"/><path class="cls-6" d="M22.17,120l-.67-1.35.22-.11a85.17,85.17,0,0,1,53.72-7.4l-.28,1.48a84.28,84.28,0,0,0-52.77,7.27Z"/><path class="cls-6" d="M63.26,42.24a32.92,32.92,0,0,0-39.88-9.56l-1.59.76-.65-1.37,1.59-.75a34.23,34.23,0,0,1,41.72,10Z"/><path class="cls-6" d="M117.17,42.24l-1.2-.93a34.23,34.23,0,0,1,41.72-10l1.59.75-.65,1.37L157,32.68A32.91,32.91,0,0,0,117.17,42.24Z"/></g></g></svg>
