<svg xmlns="http://www.w3.org/2000/svg" width="310" height="230" viewBox="0 0 310 230"><defs><style>.cls-1{fill:#f2f2f2;}.cls-2{opacity:0.75;}.cls-3{fill:gray;}.cls-4{fill:#00002b;}.cls-5{fill:#eaf2f2;}.cls-6{fill:#4d4d4d;}.cls-7{fill:#534741;}</style></defs><title>mouse</title><g id="Dreams"><ellipse class="cls-1" cx="166.96" cy="115" rx="87.16" ry="68.24"/><ellipse class="cls-1" cx="103.73" cy="46.76" rx="50.13" ry="39.25"/><ellipse class="cls-1" cx="53.6" cy="99.39" rx="50.13" ry="39.25"/><ellipse class="cls-1" cx="70.69" cy="159.16" rx="50.13" ry="39.25"/><ellipse class="cls-1" cx="129.93" cy="190.38" rx="50.13" ry="39.25"/><ellipse class="cls-1" cx="217.66" cy="186.81" rx="50.13" ry="39.25"/><ellipse class="cls-1" cx="193.74" cy="39.62" rx="50.13" ry="39.25"/><ellipse class="cls-1" cx="256.4" cy="79.76" rx="50.13" ry="39.25"/><ellipse class="cls-1" cx="256.4" cy="145.78" rx="50.13" ry="39.25"/><g class="cls-2"><circle class="cls-3" cx="158.8" cy="123.77" r="49.87"/><circle class="cls-3" cx="207.44" cy="102.53" r="36.43"/><circle class="cls-3" cx="109.76" cy="102.53" r="36.43"/><circle class="cls-4" cx="141.48" cy="119.86" r="13.06"/><circle class="cls-5" cx="144.24" cy="117.1" r="6.82"/><circle class="cls-5" cx="135.1" cy="125.95" r="2.61"/><circle class="cls-4" cx="175.14" cy="119.86" r="13.06"/><circle class="cls-5" cx="177.03" cy="117.1" r="6.82"/><circle class="cls-5" cx="169.34" cy="125.95" r="2.61"/><path class="cls-6" d="M164.27,152.29h0a7.11,7.11,0,0,0-6.16-10.67h0A7.11,7.11,0,0,0,152,152.29h0A7.11,7.11,0,0,0,164.27,152.29Z"/><path class="cls-7" d="M170.94,144.84l-.92-1.11a81.12,81.12,0,0,1,48.21-18.41h.24l.06,1.43h-.24A80.23,80.23,0,0,0,170.94,144.84Z"/><path class="cls-7" d="M170.91,148.23l-.6-1.3a81.25,81.25,0,0,1,51.3-5.58l.23.06-.3,1.4-.24-.05A80.23,80.23,0,0,0,170.91,148.23Z"/><path class="cls-7" d="M222.17,158l-.22-.11A80.23,80.23,0,0,0,171.74,151l-.27-1.42a81.08,81.08,0,0,1,51.12,7.05l.22.1Z"/><path class="cls-7" d="M145.28,144.84a80.23,80.23,0,0,0-47.35-18.09h-.24l.06-1.43H98a81.12,81.12,0,0,1,48.21,18.41Z"/><path class="cls-7" d="M145.31,148.23a80.16,80.16,0,0,0-50.39-5.47l-.24.05-.3-1.4.23-.06a81.25,81.25,0,0,1,51.3,5.58Z"/><path class="cls-7" d="M94.05,158l-.64-1.29.22-.1a81.08,81.08,0,0,1,51.12-7.05l-.27,1.42a80.16,80.16,0,0,0-50.21,6.91Z"/><path class="cls-7" d="M133.15,83.93A31.34,31.34,0,0,0,95.2,74.84l-1.51.72-.61-1.3,1.51-.72a32.6,32.6,0,0,1,39.7,9.51Z"/><path class="cls-7" d="M184.45,83.93l-1.13-.88A32.58,32.58,0,0,1,223,73.54l1.52.72-.62,1.3-1.51-.72A31.34,31.34,0,0,0,184.45,83.93Z"/></g></g></svg>
