<svg xmlns="http://www.w3.org/2000/svg" width="80" height="60" viewBox="0 0 80 60"><defs><style>.cls-1{fill:#d8c5b2;}</style></defs><title>muted</title><g id="Buttons"><g id="Unmute"><rect class="cls-1" x="-2.49" y="25" width="84.98" height="9.38" rx="2.34" transform="translate(-9.78 27.85) rotate(-34.46)"/><path class="cls-1" d="M29.65,58.61c6.11,2.48,7.81,1.9,6.25-3.8a67.55,67.55,0,0,1-1.82-11.68L20.63,52.36A28.09,28.09,0,0,0,29.65,58.61Z"/><path class="cls-1" d="M35.9,5.38c1.56-5.7-.27-6.71-6.25-3.8C21.84,5.38,12.46,16.79,10.9,24.39a27.23,27.23,0,0,0,0,11.41A22.66,22.66,0,0,0,12,39.5L33.64,24.67C33.88,17.1,34.63,10,35.9,5.38Z"/><path class="cls-1" d="M62.46,30.1c0,14.61-5.73,23.89-21,21.65-.93-.14-1.64,1-1.28,2.07.51,1.44,1,2.78,1.55,4a1.25,1.25,0,0,0,1,.79C61.08,60.22,68.71,48.21,68.71,30.1a35.67,35.67,0,0,0-1.32-9.83l-5.5,3.78A30.93,30.93,0,0,1,62.46,30.1Z"/><path class="cls-1" d="M41.9,1.8a1.31,1.31,0,0,0-1,1C40.43,4.17,40,5.57,39.6,7,39.3,8,40,9,40.84,9a22,22,0,0,1,12.31,2.33l6.12-4.2A22.25,22.25,0,0,0,41.9,1.8Z"/><path class="cls-1" d="M40,11.24a1.28,1.28,0,0,0-1.19,1c-.37,1.41-.71,2.81-1,4.19-.24,1,.43,2,1.29,1.9a11,11,0,0,1,3.57.13l6.92-4.74A17.74,17.74,0,0,0,40,11.24Z"/><path class="cls-1" d="M39.26,41.78c-.83-.1-1.5.84-1.31,1.83.29,1.44.6,2.88.93,4.3a1.3,1.3,0,0,0,1.2,1.1c13.15-.23,16.13-7.28,16.13-18.91,0-.73,0-1.43-.05-2.12l-6.28,4.31C49.38,38.8,46.45,42.66,39.26,41.78Z"/></g></g></svg>