<svg xmlns="http://www.w3.org/2000/svg" width="210" height="60" viewBox="0 0 210 60"><defs><style>.cls-1{fill:#f2f2f2;}.cls-2{fill:#fbb03b;}</style></defs><title>points</title><g id="Energy"><rect class="cls-1" x="4" width="202" height="60" rx="12" ry="12"/><path class="cls-2" d="M131.06,11.15c.49-1,1.29-1,1.77,0L137,19.49a4.28,4.28,0,0,0,2.86,2.08L149,22.91c1.09.16,1.34.92.55,1.68l-6.66,6.5a4.27,4.27,0,0,0-1.1,3.36l1.57,9.17c.19,1.09-.45,1.56-1.43,1l-8.23-4.33a4.29,4.29,0,0,0-3.54,0l-8.24,4.33c-1,.52-1.61.05-1.43-1l1.57-9.17A4.23,4.23,0,0,0,121,31.09l-6.66-6.5c-.79-.76-.54-1.52.55-1.68l9.2-1.34A4.28,4.28,0,0,0,127,19.49Z"/></g></svg>
