<svg xmlns="http://www.w3.org/2000/svg" width="310" height="230" viewBox="0 0 310 230"><defs><style>.cls-1{fill:#f2f2f2;}.cls-2{fill:#ffd555;}.cls-3{fill:#ff8100;}.cls-4{fill:#eaf2f2;}.cls-5{fill:#ffb0ff;opacity:0.89;}</style></defs><title>sun</title><g id="Dreams"><ellipse class="cls-1" cx="166.96" cy="115" rx="87.16" ry="68.24"/><ellipse class="cls-1" cx="103.73" cy="46.76" rx="50.13" ry="39.25"/><ellipse class="cls-1" cx="53.6" cy="99.39" rx="50.13" ry="39.25"/><ellipse class="cls-1" cx="70.69" cy="159.16" rx="50.13" ry="39.25"/><ellipse class="cls-1" cx="129.93" cy="190.38" rx="50.13" ry="39.25"/><ellipse class="cls-1" cx="217.66" cy="186.81" rx="50.13" ry="39.25"/><ellipse class="cls-1" cx="193.74" cy="39.62" rx="50.13" ry="39.25"/><ellipse class="cls-1" cx="256.4" cy="79.76" rx="50.13" ry="39.25"/><ellipse class="cls-1" cx="256.4" cy="145.78" rx="50.13" ry="39.25"/><circle class="cls-2" cx="156.86" cy="114.34" r="41.93"/><circle class="cls-3" cx="145.54" cy="104.5" r="8.83"/><circle class="cls-4" cx="147.4" cy="102.63" r="4.61"/><circle class="cls-4" cx="141.22" cy="108.62" r="1.77"/><circle class="cls-3" cx="168.31" cy="104.5" r="8.83"/><circle class="cls-4" cx="169.59" cy="102.63" r="4.61"/><circle class="cls-4" cx="164.38" cy="108.62" r="1.77"/><ellipse class="cls-5" cx="145.64" cy="121.19" rx="5.01" ry="2.94"/><ellipse class="cls-5" cx="168.41" cy="121.19" rx="5.01" ry="2.94"/><path class="cls-3" d="M150.52,139.82a4.34,4.34,0,0,1-1.8-.39c-3.27-1.44-5.14-6.66-3.79-10.53l1.83.64c-1,2.91.39,7.08,2.74,8.13,1.91.85,4.06-.7,6.06-4.35a1.59,1.59,0,0,1,1.44-.8,1.53,1.53,0,0,1,1.35.81c.92,1.84,2.83,4.79,5.32,3.92,2.22-.77,4-4.28,3.48-6.83a2.28,2.28,0,0,1,.25-1.64l0,0,1.68,1,0,.05a.36.36,0,0,0,0,.28c.74,3.54-1.56,7.94-4.73,9-1.3.45-4.54.9-7.37-4.27C154.56,138.87,152.2,139.82,150.52,139.82Z"/><rect class="cls-2" x="180.32" y="40.6" width="2.71" height="31.37" rx="1.35" ry="1.35" transform="translate(36.12 -66.14) rotate(22.85)"/><rect class="cls-2" x="213.56" y="74.61" width="2.71" height="31.37" rx="1.35" ry="1.35" transform="translate(201.23 -142.41) rotate(63.85)"/><rect class="cls-2" x="196.17" y="66.68" width="2.71" height="16.35" rx="1.35" ry="1.35" transform="translate(110.78 -117.75) rotate(45)"/><rect class="cls-2" x="210.27" y="106.1" width="2.71" height="16.35" rx="1.35" ry="1.35" transform="translate(325.9 -97.36) rotate(90)"/><rect class="cls-2" x="155.59" y="52" width="2.71" height="16.35" rx="1.35" ry="1.35"/><rect class="cls-2" x="180.32" y="156.48" width="2.71" height="31.37" rx="1.35" ry="1.35" transform="translate(-52.6 84.07) rotate(-22.85)"/><rect class="cls-2" x="213.56" y="122.47" width="2.71" height="31.37" rx="1.35" ry="1.35" transform="translate(-3.83 270.17) rotate(-63.85)"/><rect class="cls-2" x="196.17" y="145.43" width="2.71" height="16.35" rx="1.35" ry="1.35" transform="translate(-50.76 184.66) rotate(-45)"/><rect class="cls-2" x="210.27" y="106.01" width="2.71" height="16.35" rx="1.35" ry="1.35" transform="translate(97.44 325.81) rotate(-90)"/><rect class="cls-2" x="155.59" y="160.12" width="2.71" height="16.35" rx="1.35" ry="1.35"/><rect class="cls-2" x="130.78" y="40.6" width="2.71" height="31.37" rx="1.35" ry="1.35" transform="translate(275.76 56.84) rotate(157.15)"/><rect class="cls-2" x="97.55" y="74.61" width="2.71" height="31.37" rx="1.35" ry="1.35" transform="translate(223.55 41.33) rotate(116.15)"/><rect class="cls-2" x="114.94" y="66.68" width="2.71" height="16.35" rx="1.35" ry="1.35" transform="translate(251.45 45.55) rotate(135)"/><rect class="cls-2" x="100.83" y="106.1" width="2.71" height="16.35" rx="1.35" ry="1.35" transform="translate(216.46 12.09) rotate(90)"/><rect class="cls-2" x="155.51" y="52" width="2.71" height="16.35" rx="1.35" ry="1.35" transform="translate(313.73 120.34) rotate(-180)"/><rect class="cls-2" x="130.78" y="156.48" width="2.71" height="31.37" rx="1.35" ry="1.35" transform="translate(187.03 382.14) rotate(-157.15)"/><rect class="cls-2" x="97.55" y="122.47" width="2.71" height="31.37" rx="1.35" ry="1.35" transform="translate(18.48 287.83) rotate(-116.15)"/><rect class="cls-2" x="114.94" y="145.43" width="2.71" height="16.35" rx="1.35" ry="1.35" transform="translate(89.91 344.45) rotate(-135)"/><rect class="cls-2" x="100.83" y="106.01" width="2.71" height="16.35" rx="1.35" ry="1.35" transform="translate(-12 216.37) rotate(-90)"/><rect class="cls-2" x="155.51" y="160.12" width="2.71" height="16.35" rx="1.35" ry="1.35" transform="translate(313.73 336.58) rotate(180)"/></g></svg>
