<svg xmlns="http://www.w3.org/2000/svg" width="180" height="160" viewBox="0 0 180 160"><defs><style>.cls-1{fill:#ffd555;}.cls-2{fill:#ff8100;}.cls-3{fill:#eaf2f2;}.cls-4{fill:#ffb0ff;opacity:0.89;}</style></defs><title>sun</title><g id="Dreams"><circle class="cls-1" cx="89.95" cy="80.12" r="44.19"/><circle class="cls-2" cx="78.02" cy="69.75" r="9.31"/><circle class="cls-3" cx="79.98" cy="67.78" r="4.86"/><circle class="cls-3" cx="73.47" cy="74.09" r="1.86"/><circle class="cls-2" cx="102.02" cy="69.75" r="9.31"/><circle class="cls-3" cx="103.36" cy="67.78" r="4.86"/><circle class="cls-3" cx="97.88" cy="74.09" r="1.86"/><ellipse class="cls-4" cx="78.12" cy="87.33" rx="5.28" ry="3.1"/><ellipse class="cls-4" cx="102.12" cy="87.33" rx="5.28" ry="3.1"/><path class="cls-2" d="M83.27,107a4.63,4.63,0,0,1-1.9-.41c-3.44-1.52-5.41-7-4-11.1l1.92.68c-1.07,3.06.42,7.46,2.9,8.56,2,.9,4.27-.73,6.38-4.58a1.67,1.67,0,0,1,1.52-.84,1.6,1.6,0,0,1,1.42.85c1,1.94,3,5,5.61,4.13,2.34-.81,4.22-4.51,3.66-7.19a2.51,2.51,0,0,1,.26-1.73l0,0,1.77,1,0,0a.49.49,0,0,0,0,.3c.78,3.74-1.64,8.37-5,9.53-1.36.48-4.78.95-7.77-4.5C87.53,106,85,107,83.27,107Z"/><rect class="cls-1" x="114.68" y="2.41" width="2.85" height="33.06" rx="1.43" ry="1.43" transform="translate(16.47 -43.61) rotate(22.85)"/><rect class="cls-1" x="149.7" y="38.25" width="2.85" height="33.06" rx="1.43" ry="1.43" transform="translate(133.68 -105.02) rotate(63.85)"/><rect class="cls-1" x="131.38" y="29.89" width="2.85" height="17.23" rx="1.43" ry="1.43" transform="translate(66.12 -82.63) rotate(45)"/><rect class="cls-1" x="146.24" y="71.43" width="2.85" height="17.23" rx="1.43" ry="1.43" transform="translate(227.71 -67.62) rotate(90)"/><rect class="cls-1" x="88.62" y="14.42" width="2.85" height="17.23" rx="1.43" ry="1.43"/><rect class="cls-1" x="114.68" y="124.53" width="2.85" height="33.06" rx="1.43" ry="1.43" transform="translate(-45.67 56.17) rotate(-22.85)"/><rect class="cls-1" x="149.7" y="88.69" width="2.85" height="33.06" rx="1.43" ry="1.43" transform="translate(-9.93 194.5) rotate(-63.85)"/><rect class="cls-1" x="131.38" y="112.88" width="2.85" height="17.23" rx="1.43" ry="1.43" transform="translate(-47.01 129.49) rotate(-45)"/><rect class="cls-1" x="146.24" y="71.34" width="2.85" height="17.23" rx="1.43" ry="1.43" transform="translate(67.71 227.62) rotate(-90)"/><rect class="cls-1" x="88.62" y="128.36" width="2.85" height="17.23" rx="1.43" ry="1.43"/><rect class="cls-1" x="62.47" y="2.41" width="2.85" height="33.06" rx="1.43" ry="1.43" transform="translate(130.13 11.58) rotate(157.15)"/><rect class="cls-1" x="27.45" y="38.25" width="2.85" height="33.06" rx="1.43" ry="1.43" transform="translate(90.77 53.01) rotate(116.15)"/><rect class="cls-1" x="45.77" y="29.89" width="2.85" height="17.23" rx="1.43" ry="1.43" transform="translate(107.8 32.36) rotate(135)"/><rect class="cls-1" x="30.91" y="71.43" width="2.85" height="17.23" rx="1.43" ry="1.43" transform="translate(112.38 47.71) rotate(90)"/><rect class="cls-1" x="88.53" y="14.42" width="2.85" height="17.23" rx="1.43" ry="1.43" transform="translate(179.92 46.06) rotate(-180)"/><rect class="cls-1" x="62.47" y="124.53" width="2.85" height="33.06" rx="1.43" ry="1.43" transform="translate(67.99 295.86) rotate(-157.15)"/><rect class="cls-1" x="27.45" y="88.69" width="2.85" height="33.06" rx="1.43" ry="1.43" transform="translate(-52.85 177.51) rotate(-116.15)"/><rect class="cls-1" x="45.77" y="112.88" width="2.85" height="17.23" rx="1.43" ry="1.43" transform="translate(-5.34 240.78) rotate(-135)"/><rect class="cls-1" x="30.91" y="71.34" width="2.85" height="17.23" rx="1.43" ry="1.43" transform="translate(-47.62 112.29) rotate(-90)"/><rect class="cls-1" x="88.53" y="128.36" width="2.85" height="17.23" rx="1.43" ry="1.43" transform="translate(179.92 273.94) rotate(-180)"/></g></svg>
