<svg xmlns="http://www.w3.org/2000/svg" width="80" height="60" viewBox="0 0 80 60"><defs><style>.cls-1{fill:#d8c5b2;}</style></defs><title>unmuted</title><g id="Buttons"><g id="Mute"><path class="cls-1" d="M11.39,35.8c1.57,7.6,9.38,19,18.75,22.81,6.12,2.48,7.82,1.9,6.25-3.8-3.12-11.41-3.12-38,0-49.43,1.57-5.7-.26-6.71-6.25-3.8C22.33,5.38,13,16.79,11.39,24.39A27.57,27.57,0,0,0,11.39,35.8Z"/><path class="cls-1" d="M69.21,30.1c0-18-12.07-30-26.81-28.3a1.31,1.31,0,0,0-1,1C40.93,4.17,40.51,5.57,40.1,7c-.31,1,.35,2.07,1.23,2C54.41,8,63,15.73,63,30.1,63,44.71,57.23,54,42,51.75c-.94-.14-1.65,1-1.28,2.07.5,1.44,1,2.78,1.55,4a1.25,1.25,0,0,0,1,.79C61.58,60.22,69.21,48.21,69.21,30.1Z"/><path class="cls-1" d="M56.71,30.1c0-11.41-4.46-18.65-16.24-18.86a1.28,1.28,0,0,0-1.19,1c-.37,1.41-.72,2.81-1,4.19-.23,1,.44,2,1.29,1.9,6.93-.79,10.93,4.1,10.93,11.72,0,7.82-2.74,12.65-10.7,11.68-.84-.1-1.51.84-1.31,1.83.29,1.44.6,2.88.93,4.3a1.3,1.3,0,0,0,1.2,1.1C53.72,48.78,56.71,41.73,56.71,30.1Z"/><path class="cls-1" d="M44.21,30c-.05-3.6-2.23-6.71-5.15-7.36A6.26,6.26,0,0,0,38,22.49a1.34,1.34,0,0,0-1.21,1.29,54.25,54.25,0,0,0-.41,6.32c0,1.87.13,4,.36,6.29A1.34,1.34,0,0,0,38,37.7h0C41.44,37.7,44.26,34.23,44.21,30Z"/></g></g></svg>